# Noesis .obj export.
#
mtllib B1103.mtl
g
v  0.089343 0.032917 -0.241133
v  0.107571 0.122645 -0.226327
v  0.164183 0.108251 -0.216756
v  0.141760 0.240415 -0.158606
v  0.063813 -0.055766 -0.218247
v  0.160672 0.022608 -0.237488
v  0.266992 0.088128 -0.280179
v  0.231115 0.193895 -0.210852
v  0.213370 0.237092 -0.111336
v  0.212032 0.181056 -0.182863
v  0.198946 0.227298 -0.095618
v  0.460418 0.226536 -0.130483
v  0.247319 0.239863 -0.000044
v  0.481859 0.258038 -0.000786
v  0.461250 0.226382 0.129009
v  0.199560 0.227184 0.095823
v  0.213205 0.180839 0.182927
v  0.214085 0.236960 0.111460
v  0.232468 0.193645 0.210808
v  0.142779 0.240226 0.159192
v  0.268788 0.087795 0.279778
v  0.156799 0.263769 -0.076560
v  0.170550 0.282253 0.000227
v  0.157292 0.263677 0.077079
v  0.247018 0.082691 0.243264
v  0.251988 0.000337 0.251929
v  0.279522 -0.023395 0.303490
v  0.250725 -0.094870 0.248193
v  0.273665 -0.125833 0.284486
v  0.222519 -0.169426 0.192527
v  0.244298 -0.213107 0.217602
v  0.132520 -0.205412 0.098944
v  0.426395 0.155321 0.228568
v  0.378889 0.059478 0.269726
v  0.351374 -0.020005 0.264275
v  0.340921 -0.115981 0.254532
v  0.325100 -0.203174 0.206105
v  0.321905 -0.260549 0.130177
v  0.323644 -0.313819 -0.000618
v  0.153044 -0.060419 0.223382
v  0.162196 0.022325 0.237692
v  0.165574 0.107993 0.217039
v  0.090892 0.032630 0.241807
v  0.065215 -0.056026 0.218979
v  0.116741 -0.133712 0.173976
v  0.135107 -0.242249 0.111415
v  0.139408 -0.226980 -0.000003
v  0.131885 -0.205294 -0.098878
v  0.321066 -0.260394 -0.131337
v  0.221282 -0.169197 -0.192939
v  0.323774 -0.202928 -0.207215
v  0.249132 -0.094574 -0.248696
v  0.339284 -0.115677 -0.255639
v  0.250370 0.000637 -0.252327
v  0.046043 -0.133163 0.170691
v  0.087954 -0.192444 0.096056
v  0.139164 -0.277265 -0.000032
v  0.134392 -0.242117 -0.111410
v  0.242900 -0.212848 -0.218205
v  0.271838 -0.125495 -0.285172
v  0.277573 -0.023034 -0.304092
v  0.245457 0.082981 -0.243532
v  0.151612 -0.060153 -0.223218
v  0.115626 -0.133505 -0.173722
v  0.087339 -0.192330 -0.095689
v  0.097362 -0.231978 0.000129
v  0.063162 -0.239116 0.000234
v  0.040620 -0.202167 -0.094039
v  0.044950 -0.132960 -0.169983
v  0.349675 -0.019690 -0.265335
v  0.377154 0.059799 -0.270867
v  0.424925 0.155594 -0.229901
v  0.041225 -0.202279 0.094694
v  0.109025 0.122376 0.226991
v  0.398157 -0.142423 0.281430
v  0.192042 0.024463 0.230411
v  0.307065 -0.200233 0.288733
v  0.264973 -0.247879 0.204760
v  0.390674 -0.342031 0.253056
v  0.367737 -0.359037 0.165266
v  0.502971 -0.419685 0.174277
v  0.490647 -0.419449 0.096786
v  0.701696 -0.457803 0.018559
v  0.529995 -0.381581 0.180762
v  0.449540 -0.294278 0.256979
v  0.192042 0.024463 0.230411
v  0.398157 -0.142423 0.281430
v  0.307065 -0.200233 0.288733
v  0.449540 -0.294278 0.256979
v  0.390674 -0.342031 0.253056
v  0.529995 -0.381581 0.180762
v  0.502971 -0.419685 0.174277
v  0.701696 -0.457803 0.018559
v  0.490647 -0.419449 0.096786
v  0.367737 -0.359037 0.165266
v  0.264973 -0.247879 0.204760
v  0.460418 0.226536 -0.130483
v  0.481859 0.258038 -0.000786
v  0.374290 -0.034589 -0.000615
v  0.461250 0.226382 0.129009
v  0.426395 0.155321 0.228568
v  0.378889 0.059478 0.269726
v  0.351374 -0.020005 0.264275
v  0.340921 -0.115981 0.254532
v  0.325100 -0.203174 0.206105
v  0.321905 -0.260549 0.130177
v  0.323644 -0.313819 -0.000618
v  0.321066 -0.260394 -0.131337
v  0.323774 -0.202928 -0.207215
v  0.339284 -0.115677 -0.255639
v  0.349675 -0.019690 -0.265335
v  0.377154 0.059799 -0.270867
v  0.424925 0.155594 -0.229901
v  0.040620 -0.202167 -0.094039
v  0.063162 -0.239116 0.000234
v  0.208127 0.008001 -0.000056
v  0.041225 -0.202279 0.094694
v  0.046043 -0.133163 0.170691
v  0.065215 -0.056026 0.218979
v  0.090892 0.032630 0.241807
v  0.109025 0.122376 0.226991
v  0.142779 0.240226 0.159192
v  0.157292 0.263677 0.077079
v  0.170550 0.282253 0.000227
v  0.156799 0.263769 -0.076560
v  0.141760 0.240415 -0.158606
v  0.107571 0.122645 -0.226327
v  0.089343 0.032917 -0.241133
v  0.063813 -0.055766 -0.218247
v  0.044950 -0.132960 -0.169983

vt  0.320849 -0.685998 0.000000
vt  0.242144 -0.604390 0.000000
vt  0.290682 -0.557755 0.000000
vt  0.142314 -0.468017 0.000000
vt  0.399961 -0.774336 0.000000
vt  0.375232 -0.624660 0.000000
vt  0.405983 -0.474064 0.000000
vt  0.268857 -0.432877 0.000000
vt  0.157887 -0.369678 0.000000
vt  0.265078 -0.390899 0.000000
vt  0.145688 -0.348257 0.000000
vt  0.316902 -0.100196 0.000000
vt  0.066673 -0.242927 0.000000
vt  0.184976 -0.005343 0.000000
vt  0.316902 -0.100196 0.000000
vt  0.145688 -0.348257 0.000000
vt  0.265078 -0.390899 0.000000
vt  0.157887 -0.369678 0.000000
vt  0.268857 -0.432877 0.000000
vt  0.142314 -0.468017 0.000000
vt  0.405983 -0.474064 0.000000
vt  0.079486 -0.382087 0.000000
vt  0.006560 -0.320417 0.000000
vt  0.079486 -0.382087 0.000000
vt  0.412074 -0.423828 0.000000
vt  0.511958 -0.463622 0.000000
vt  0.504685 -0.529703 0.000000
vt  0.613322 -0.534109 0.000000
vt  0.584066 -0.581182 0.000000
vt  0.694897 -0.636859 0.000000
vt  0.649451 -0.662409 0.000000
vt  0.732846 -0.796776 0.000000
vt  0.428640 -0.200840 0.000000
vt  0.515115 -0.304938 0.000000
vt  0.588548 -0.380843 0.000000
vt  0.686469 -0.458832 0.000000
vt  0.779480 -0.546077 0.000000
vt  0.867166 -0.625577 0.000000
vt  0.994408 -0.738874 0.000000
vt  0.455281 -0.692633 0.000000
vt  0.375232 -0.624660 0.000000
vt  0.290682 -0.557755 0.000000
vt  0.320849 -0.685998 0.000000
vt  0.399961 -0.774336 0.000000
vt  0.540247 -0.785132 0.000000
vt  0.692666 -0.822928 0.000000
vt  0.821895 -0.879223 0.000000
vt  0.732846 -0.796776 0.000000
vt  0.867166 -0.625577 0.000000
vt  0.694897 -0.636859 0.000000
vt  0.779480 -0.546077 0.000000
vt  0.613322 -0.534109 0.000000
vt  0.686469 -0.458832 0.000000
vt  0.511958 -0.463622 0.000000
vt  0.497133 -0.852543 0.000000
vt  0.626834 -0.878632 0.000000
vt  0.787181 -0.927702 0.000000
vt  0.692666 -0.822928 0.000000
vt  0.649451 -0.662409 0.000000
vt  0.584066 -0.581182 0.000000
vt  0.504685 -0.529703 0.000000
vt  0.412074 -0.423828 0.000000
vt  0.455281 -0.692633 0.000000
vt  0.540247 -0.785132 0.000000
vt  0.626834 -0.878632 0.000000
vt  0.724675 -0.960397 0.000000
vt  0.700143 -0.990415 0.000000
vt  0.596943 -0.924817 0.000000
vt  0.497133 -0.852543 0.000000
vt  0.588548 -0.380843 0.000000
vt  0.515115 -0.304938 0.000000
vt  0.428640 -0.200840 0.000000
vt  0.596943 -0.924817 0.000000
vt  0.242144 -0.604390 0.000000
vt  0.921797 -0.351034 0.000000
vt  0.993341 -0.707318 0.000000
vt  0.778757 -0.479017 0.000000
vt  0.921797 -0.351034 0.000000
vt  0.616141 -0.368001 0.000000
vt  0.711650 -0.272089 0.000000
vt  0.489038 -0.233993 0.000000
vt  0.550075 -0.173308 0.000000
vt  0.273114 -0.007015 0.000000
vt  0.550075 -0.173308 0.000000
vt  0.711650 -0.272089 0.000000
vt  0.993341 -0.707318 0.000000
vt  0.921797 -0.351034 0.000000
vt  0.778757 -0.479017 0.000000
vt  0.711650 -0.272089 0.000000
vt  0.616141 -0.368001 0.000000
vt  0.550075 -0.173308 0.000000
vt  0.489038 -0.233993 0.000000
vt  0.273114 -0.007015 0.000000
vt  0.550075 -0.173308 0.000000
vt  0.711650 -0.272089 0.000000
vt  0.921797 -0.351034 0.000000
vt  0.032479 -0.604974 0.000000
vt  0.109011 -0.487811 0.000000
vt  0.315283 -0.718609 0.000000
vt  0.032479 -0.604974 0.000000
vt  0.007167 -0.732192 0.000000
vt  0.045050 -0.840033 0.000000
vt  0.105032 -0.898439 0.000000
vt  0.177927 -0.961775 0.000000
vt  0.274599 -0.992535 0.000000
vt  0.371195 -0.980552 0.000000
vt  0.507167 -0.925557 0.000000
vt  0.371195 -0.980552 0.000000
vt  0.274599 -0.992535 0.000000
vt  0.177927 -0.961775 0.000000
vt  0.105032 -0.898439 0.000000
vt  0.045050 -0.840033 0.000000
vt  0.007167 -0.732192 0.000000
vt  0.959396 -0.228865 0.000000
vt  0.949414 -0.315899 0.000000
vt  0.723509 -0.240302 0.000000
vt  0.959396 -0.228865 0.000000
vt  0.932333 -0.146796 0.000000
vt  0.883290 -0.079999 0.000000
vt  0.820603 -0.033311 0.000000
vt  0.747663 -0.011309 0.000000
vt  0.631802 -0.018262 0.000000
vt  0.578817 -0.069657 0.000000
vt  0.531104 -0.119867 0.000000
vt  0.578817 -0.069657 0.000000
vt  0.631802 -0.018262 0.000000
vt  0.747663 -0.011309 0.000000
vt  0.820603 -0.033311 0.000000
vt  0.883290 -0.079999 0.000000
vt  0.932333 -0.146796 0.000000

vn  -0.754674 0.170612 -0.633529
vn  -0.704231 0.378920 -0.600399
vn  -0.168192 0.288427 -0.942614
vn  -0.639745 0.703427 -0.309705
vn  -0.839863 -0.020835 -0.542399
vn  -0.255970 0.041264 -0.965804
vn  0.682930 0.358999 -0.636181
vn  0.726225 0.542328 -0.422466
vn  0.880607 0.422382 0.214770
vn  0.913244 0.379757 -0.147546
vn  0.591782 0.797103 0.120089
vn  0.739826 0.544341 -0.395411
vn  0.174132 0.984722 0.000027
vn  0.771920 0.635716 -0.002098
vn  0.742350 0.543873 0.391304
vn  0.591002 0.797248 -0.122933
vn  0.914173 0.379585 0.142135
vn  0.879211 0.422642 -0.219911
vn  0.728922 0.541828 0.418443
vn  -0.637742 0.703056 0.314639
vn  0.686998 0.358243 0.632214
vn  -0.577956 0.815310 -0.035164
vn  -0.443697 0.896175 0.001956
vn  -0.577716 0.815265 0.039840
vn  0.859967 0.326528 0.392221
vn  0.844501 0.024435 0.534996
vn  0.672297 -0.022323 0.739945
vn  0.874118 -0.236363 0.424323
vn  0.636038 -0.432780 0.638871
vn  0.620194 -0.780206 0.081473
vn  0.568955 -0.775339 0.274116
vn  0.664212 -0.746718 -0.035148
vn  0.651692 0.280047 0.704890
vn  0.525789 -0.047510 0.849287
vn  0.552579 -0.180370 0.813709
vn  0.568198 -0.316136 0.759742
vn  0.459125 -0.633635 0.622665
vn  0.467016 -0.770006 0.434725
vn  0.424536 -0.905409 -0.001881
vn  -0.327641 -0.274586 0.904021
vn  -0.249769 0.040115 0.967474
vn  -0.162139 0.287304 0.944017
vn  -0.750593 0.169856 0.638560
vn  -0.836345 -0.021711 0.547773
vn  -0.305942 -0.542684 0.782236
vn  0.125351 -0.960882 0.246968
vn  0.571923 -0.820304 -0.002337
vn  0.664463 -0.746716 0.030069
vn  0.464252 -0.769462 -0.438632
vn  0.619553 -0.780185 -0.086402
vn  0.455119 -0.632891 -0.626351
vn  0.871376 -0.235855 -0.430204
vn  0.563310 -0.315230 -0.763748
vn  0.841051 0.025074 -0.540374
vn  -0.871767 -0.262429 0.413707
vn  -0.294089 -0.790430 0.537338
vn  0.325534 -0.945529 -0.001606
vn  0.123695 -0.960597 -0.248902
vn  0.567287 -0.774946 -0.278647
vn  0.631925 -0.432017 -0.643453
vn  0.667536 -0.021440 -0.744269
vn  0.857435 0.326998 -0.397338
vn  -0.333353 -0.273374 -0.902298
vn  -0.310819 -0.541556 -0.781094
vn  -0.297532 -0.789792 -0.536380
vn  -0.376721 -0.926327 0.000658
vn  -0.657388 -0.753550 0.001681
vn  -0.828489 -0.512663 -0.225350
vn  -0.874335 -0.261914 -0.408582
vn  0.547348 -0.179401 -0.817451
vn  0.520329 -0.046497 -0.852699
vn  0.647158 0.280888 -0.708723
vn  -0.827045 -0.512913 0.230035
vn  -0.700363 0.378202 0.605355
vn  0.046800 0.052259 0.997536
vn  -0.474987 -0.014774 0.879869
vn  -0.375914 -0.184306 0.908141
vn  -0.704953 -0.465370 0.535230
vn  -0.225401 -0.630392 0.742833
vn  -0.514843 -0.817955 0.256684
vn  0.033739 -0.844191 0.534980
vn  -0.272587 -0.961282 0.040418
vn  0.091559 -0.933953 0.345468
vn  0.405697 -0.436783 0.802889
vn  0.203224 -0.298092 0.932653
vn  0.474987 0.014774 -0.879869
vn  -0.046800 -0.052259 -0.997536
vn  0.375914 0.184306 -0.908141
vn  -0.203224 0.298092 -0.932653
vn  0.225401 0.630392 -0.742833
vn  -0.405697 0.436783 -0.802889
vn  -0.033739 0.844191 -0.534980
vn  -0.091559 0.933953 -0.345468
vn  0.272587 0.961282 -0.040418
vn  0.514843 0.817955 -0.256684
vn  0.704953 0.465370 -0.535230
vn  0.739826 0.544341 -0.395411
vn  0.771920 0.635716 -0.002098
vn  0.964375 -0.264520 -0.003251
vn  0.742350 0.543873 0.391304
vn  0.651692 0.280047 0.704890
vn  0.525789 -0.047510 0.849287
vn  0.552579 -0.180370 0.813709
vn  0.568198 -0.316136 0.759742
vn  0.459125 -0.633635 0.622665
vn  0.467016 -0.770006 0.434725
vn  0.424536 -0.905409 -0.001881
vn  0.464252 -0.769462 -0.438632
vn  0.455119 -0.632891 -0.626351
vn  0.563310 -0.315230 -0.763748
vn  0.547348 -0.179401 -0.817451
vn  0.520329 -0.046497 -0.852699
vn  0.647158 0.280888 -0.708723
vn  -0.828489 -0.512663 -0.225350
vn  -0.657388 -0.753550 0.001681
vn  -0.972991 0.230821 0.003248
vn  -0.827045 -0.512913 0.230035
vn  -0.871767 -0.262429 0.413707
vn  -0.836345 -0.021711 0.547773
vn  -0.750593 0.169856 0.638560
vn  -0.700363 0.378202 0.605355
vn  -0.637742 0.703056 0.314639
vn  -0.577716 0.815265 0.039840
vn  -0.443697 0.896175 0.001956
vn  -0.577956 0.815310 -0.035164
vn  -0.639745 0.703427 -0.309705
vn  -0.704231 0.378920 -0.600399
vn  -0.754674 0.170612 -0.633529
vn  -0.839863 -0.020835 -0.542399
vn  -0.874335 -0.261914 -0.408582

g B1103
usemtl mesh1material
f  1/1/1 2/2/2 3/3/3
f  4/4/4 3/3/3 2/2/2
f  5/5/5 1/1/1 6/6/6
f  3/3/3 6/6/6 1/1/1
f  6/6/6 3/3/3 7/7/7
f  4/4/4 7/7/7 3/3/3
f  7/7/7 4/4/4 8/8/8
f  9/9/9 8/8/8 4/4/4
f  8/8/8 9/9/9 10/10/10
f  11/11/11 10/10/10 9/9/9
f  10/10/10 11/11/11 12/12/12
f  13/13/13 12/12/12 11/11/11
f  12/12/12 13/13/13 14/14/14
f  14/14/14 13/13/13 15/15/15
f  16/16/16 15/15/15 13/13/13
f  15/15/15 16/16/16 17/17/17
f  18/18/18 17/17/17 16/16/16
f  17/17/17 18/18/18 19/19/19
f  20/20/20 19/19/19 18/18/18
f  19/19/19 20/20/20 21/21/21
f  22/22/22 9/9/9 4/4/4
f  9/9/9 22/22/22 11/11/11
f  11/11/11 22/22/22 13/13/13
f  23/23/23 13/13/13 22/22/22
f  24/24/24 13/13/13 23/23/23
f  13/13/13 24/24/24 16/16/16
f  16/16/16 24/24/24 18/18/18
f  20/20/20 18/18/18 24/24/24
f  17/17/17 19/19/19 25/25/25
f  21/21/21 25/25/25 19/19/19
f  25/25/25 21/21/21 26/26/26
f  27/27/27 26/26/26 21/21/21
f  26/26/26 27/27/27 28/28/28
f  29/29/29 28/28/28 27/27/27
f  28/28/28 29/29/29 30/30/30
f  31/31/31 30/30/30 29/29/29
f  30/30/30 31/31/31 32/32/32
f  15/15/15 17/17/17 33/33/33
f  33/33/33 17/17/17 34/34/34
f  25/25/25 34/34/34 17/17/17
f  34/34/34 25/25/25 35/35/35
f  26/26/26 35/35/35 25/25/25
f  35/35/35 26/26/26 36/36/36
f  28/28/28 36/36/36 26/26/26
f  36/36/36 28/28/28 37/37/37
f  30/30/30 37/37/37 28/28/28
f  37/37/37 30/30/30 38/38/38
f  32/32/32 38/38/38 30/30/30
f  38/38/38 32/32/32 39/39/39
f  31/31/31 29/29/29 40/40/40
f  27/27/27 40/40/40 29/29/29
f  40/40/40 27/27/27 41/41/41
f  21/21/21 41/41/41 27/27/27
f  20/20/20 42/42/42 21/21/21
f  21/21/21 42/42/42 41/41/41
f  43/43/43 41/41/41 42/42/42
f  44/44/44 41/41/41 43/43/43
f  41/41/41 44/44/44 40/40/40
f  45/45/45 40/40/40 44/44/44
f  40/40/40 45/45/45 31/31/31
f  46/46/46 31/31/31 45/45/45
f  31/31/31 46/46/46 32/32/32
f  47/47/47 32/32/32 46/46/46
f  32/32/32 47/47/47 39/39/39
f  48/48/48 39/39/39 47/47/47
f  39/39/39 48/48/48 49/49/49
f  50/50/50 49/49/49 48/48/48
f  49/49/49 50/50/50 51/51/51
f  52/52/52 51/51/51 50/50/50
f  51/51/51 52/52/52 53/53/53
f  54/54/54 53/53/53 52/52/52
f  44/44/44 55/55/55 45/45/45
f  56/56/56 45/45/45 55/55/55
f  45/45/45 56/56/56 46/46/46
f  57/57/57 46/46/46 56/56/56
f  46/46/46 57/57/57 47/47/47
f  58/58/58 47/47/47 57/57/57
f  47/47/47 58/58/58 48/48/48
f  59/59/59 48/48/48 58/58/58
f  48/48/48 59/59/59 50/50/50
f  60/60/60 50/50/50 59/59/59
f  50/50/50 60/60/60 52/52/52
f  61/61/61 52/52/52 60/60/60
f  52/52/52 61/61/61 54/54/54
f  7/7/7 54/54/54 61/61/61
f  54/54/54 7/7/7 62/62/62
f  8/8/8 62/62/62 7/7/7
f  62/62/62 8/8/8 10/10/10
f  61/61/61 60/60/60 63/63/63
f  59/59/59 63/63/63 60/60/60
f  63/63/63 59/59/59 64/64/64
f  58/58/58 64/64/64 59/59/59
f  64/64/64 58/58/58 65/65/65
f  57/57/57 65/65/65 58/58/58
f  65/65/65 57/57/57 66/66/66
f  56/56/56 66/66/66 57/57/57
f  67/67/67 66/66/66 56/56/56
f  66/66/66 67/67/67 65/65/65
f  68/68/68 65/65/65 67/67/67
f  69/69/69 65/65/65 68/68/68
f  65/65/65 69/69/69 64/64/64
f  5/5/5 64/64/64 69/69/69
f  64/64/64 5/5/5 63/63/63
f  6/6/6 63/63/63 5/5/5
f  63/63/63 6/6/6 61/61/61
f  7/7/7 61/61/61 6/6/6
f  53/53/53 54/54/54 70/70/70
f  62/62/62 70/70/70 54/54/54
f  70/70/70 62/62/62 71/71/71
f  10/10/10 71/71/71 62/62/62
f  71/71/71 10/10/10 72/72/72
f  12/12/12 72/72/72 10/10/10
f  55/55/55 73/73/73 56/56/56
f  67/67/67 56/56/56 73/73/73
f  43/43/43 42/42/42 74/74/74
f  20/20/20 74/74/74 42/42/42
f  75/75/75 76/76/76 77/77/77
f  78/78/78 77/77/77 76/76/76
f  77/77/77 78/78/78 79/79/79
f  80/80/80 79/79/79 78/78/78
f  79/79/79 80/80/80 81/81/81
f  82/82/82 81/81/81 80/80/80
f  83/83/83 81/81/81 82/82/82
f  84/84/84 81/81/81 83/83/83
f  81/81/81 84/84/84 79/79/79
f  85/85/85 79/79/79 84/84/84
f  79/79/79 85/85/85 77/77/77
f  75/75/75 77/77/77 85/85/85
f  86/86/86 87/87/87 88/88/88
f  89/89/89 88/88/88 87/87/87
f  88/88/88 89/89/89 90/90/90
f  91/91/91 90/90/90 89/89/89
f  90/90/90 91/91/91 92/92/92
f  93/93/93 92/92/92 91/91/91
f  94/94/94 92/92/92 93/93/93
f  95/95/95 92/92/92 94/94/94
f  92/92/92 95/95/95 90/90/90
f  96/96/96 90/90/90 95/95/95
f  90/90/90 96/96/96 88/88/88
f  86/86/86 88/88/88 96/96/96
f  97/97/97 98/98/98 99/99/99
f  100/100/100 99/99/99 98/98/98
f  101/101/101 99/99/99 100/100/100
f  102/102/102 99/99/99 101/101/101
f  103/103/103 99/99/99 102/102/102
f  104/104/104 99/99/99 103/103/103
f  105/105/105 99/99/99 104/104/104
f  106/106/106 99/99/99 105/105/105
f  107/107/107 99/99/99 106/106/106
f  108/108/108 99/99/99 107/107/107
f  109/109/109 99/99/99 108/108/108
f  110/110/110 99/99/99 109/109/109
f  111/111/111 99/99/99 110/110/110
f  112/112/112 99/99/99 111/111/111
f  113/113/113 99/99/99 112/112/112
f  99/99/99 113/113/113 97/97/97
f  114/114/114 115/115/115 116/116/116
f  117/117/117 116/116/116 115/115/115
f  118/118/118 116/116/116 117/117/117
f  119/119/119 116/116/116 118/118/118
f  120/120/120 116/116/116 119/119/119
f  121/121/121 116/116/116 120/120/120
f  122/122/122 116/116/116 121/121/121
f  123/123/123 116/116/116 122/122/122
f  124/124/124 116/116/116 123/123/123
f  125/125/125 116/116/116 124/124/124
f  126/126/126 116/116/116 125/125/125
f  127/127/127 116/116/116 126/126/126
f  128/128/128 116/116/116 127/127/127
f  129/129/129 116/116/116 128/128/128
f  130/130/130 116/116/116 129/129/129
f  116/116/116 130/130/130 114/114/114

g
