# Noesis .obj export.
#
mtllib B1112.mtl
g
v  0.206346 -0.190921 -0.161303
v  0.224909 -0.274671 0.000135
v  0.057636 -0.191063 -0.144814
v  0.071371 -0.246179 0.000135
v  0.099570 -0.057476 -0.270301
v  0.225117 -0.062237 -0.236834
v  0.136029 0.088829 -0.261394
v  0.243887 0.066447 -0.224742
v  0.207679 0.222746 -0.197571
v  0.295156 0.187430 -0.175602
v  0.301790 0.218301 0.000137
v  0.223180 0.281128 0.000137
v  0.207678 0.222745 0.197844
v  0.295156 0.187429 0.175875
v  0.243887 0.066446 0.225014
v  0.136029 0.088827 0.261666
v  0.225117 -0.062238 0.237105
v  0.099570 -0.057477 0.270572
v  0.206346 -0.190921 0.161574
v  0.057636 -0.191064 0.145085
v  0.349514 -0.151357 -0.139363
v  0.320747 -0.066884 -0.189438
v  0.347451 0.023377 -0.152630
v  0.402793 0.078710 -0.124407
v  0.427266 0.154900 0.000136
v  0.402793 0.078709 0.124679
v  0.347451 0.023376 0.152902
v  0.320747 -0.066885 0.189709
v  0.349514 -0.151357 0.139634
v  0.399158 -0.187359 0.000135
v  0.453213 -0.028165 0.129110
v  0.390578 -0.080750 0.164468
v  0.410269 -0.054772 0.000136
v  0.516834 0.008512 0.000136
v  0.453213 -0.028164 -0.128838
v  0.390578 -0.080749 -0.164197
v  0.115732 0.081102 -0.256432
v  0.081586 -0.055923 -0.264774
v  0.254375 0.019880 0.000136
v  0.042312 -0.181037 -0.147247
v  0.073466 -0.070534 -0.297129
v  0.138032 0.075087 -0.308762
v  0.141474 -0.076880 -0.342697
v  0.048100 -0.211757 -0.280043
v  0.010969 -0.239650 -0.154540
v  0.010027 -0.341675 -0.161779
v  0.014427 -0.274355 0.000135
v  0.003981 -0.358209 0.000135
v  0.010027 -0.341676 0.162048
v  0.010969 -0.239650 0.154810
v  0.048100 -0.211759 0.280314
v  0.042312 -0.181038 0.147517
v  0.073466 -0.070536 0.297400
v  0.141474 -0.076882 0.342968
v  0.138031 0.075085 0.309035
v  0.242833 0.060349 0.382112
v  0.253008 0.184336 0.378317
v  0.031305 -0.466738 -0.197573
v  0.031305 -0.466738 0.000135
v  0.031305 -0.466739 0.197842
v  0.042319 -0.374028 0.302292
v  0.073119 -0.257874 0.390219
v  0.175636 -0.077915 0.405618
v  0.290555 0.051754 0.453093
v  0.299397 0.167735 0.483105
v  0.365891 0.272179 0.442811
v  0.196363 0.221214 0.280263
v  0.115732 0.081100 0.256704
v  0.081586 -0.055924 0.265045
v  0.171626 0.217738 0.196930
v  0.317410 0.289140 0.310920
v  0.424192 0.345101 0.367548
v  0.293936 0.300927 0.171946
v  0.186145 0.272418 0.000137
v  0.479213 0.427256 0.266262
v  0.390177 0.394557 0.113350
v  0.400383 0.376948 0.230482
v  0.264647 0.342825 0.000137
v  0.359894 0.408479 0.000137
v  0.390177 0.394558 -0.113076
v  0.293936 0.300928 -0.171673
v  0.171626 0.217739 -0.196657
v  0.317411 0.289142 -0.310646
v  0.196364 0.221216 -0.279990
v  0.365891 0.272181 -0.442537
v  0.424193 0.345103 -0.367274
v  0.253009 0.184338 -0.378044
v  0.299397 0.167738 -0.482832
v  0.290555 0.051756 -0.452820
v  0.242833 0.060351 -0.381840
v  0.175636 -0.077913 -0.405347
v  0.073119 -0.257871 -0.389949
v  0.042319 -0.374026 -0.302023
v  0.479213 0.427258 -0.265988
v  0.400383 0.376949 -0.230209
v  0.479213 0.427258 -0.265988
v  0.390177 0.394558 -0.113076
v  0.400383 0.376949 -0.230209
v  0.298276 0.302715 -0.171611
v  0.424193 0.345103 -0.367274
v  0.057636 -0.191064 0.145085
v  0.099570 -0.057477 0.270572
v  0.088640 -0.072739 0.304088
v  0.136029 0.088827 0.261666
v  0.154075 0.080281 0.315072
v  0.208690 0.228984 0.283223
v  0.207678 0.222745 0.197844
v  0.317410 0.289140 0.310920
v  0.298276 0.302714 0.171885
v  0.223180 0.281128 0.000137
v  0.277814 0.352378 0.000137
v  0.390177 0.394557 0.113350
v  0.318776 0.380465 0.000137
v  0.359894 0.408479 0.000137
v  0.207679 0.222746 -0.197571
v  0.317411 0.289142 -0.310646
v  0.150617 -0.077916 0.346728
v  0.242917 0.060349 0.382112
v  0.253008 0.184336 0.378317
v  0.365891 0.272179 0.442811
v  0.424192 0.345101 0.367548
v  0.299397 0.167735 0.483105
v  0.290555 0.051754 0.453093
v  0.175636 -0.077915 0.405618
v  0.073119 -0.257874 0.390219
v  0.049607 -0.212825 0.280891
v  0.042319 -0.374028 0.302292
v  0.010105 -0.342134 0.162017
v  0.019201 -0.248742 0.153551
v  0.023622 -0.286117 0.000135
v  0.005212 -0.361768 0.000135
v  0.031305 -0.466739 0.197842
v  0.071371 -0.246179 0.000135
v  0.019201 -0.248741 -0.153280
v  0.057636 -0.191063 -0.144814
v  0.049607 -0.212823 -0.280621
v  0.088640 -0.072737 -0.303817
v  0.099570 -0.057476 -0.270301
v  0.136029 0.088829 -0.261394
v  0.154075 0.080283 -0.314800
v  0.208690 0.228985 -0.282950
v  0.365891 0.272181 -0.442537
v  0.042319 -0.374026 -0.302023
v  0.073119 -0.257871 -0.389949
v  0.150618 -0.077914 -0.346456
v  0.242918 0.060352 -0.381840
v  0.253009 0.184338 -0.378044
v  0.299397 0.167738 -0.482832
v  0.290555 0.051756 -0.452820
v  0.175636 -0.077913 -0.405347
v  0.031305 -0.466738 0.000135
v  0.031305 -0.466738 -0.197573
v  0.010105 -0.342133 -0.161747
v  0.479213 0.427256 0.266262
v  0.400383 0.376948 0.230482
v  0.055175 -0.232657 0.000135

vt  0.657909 -0.477388 0.000000
vt  0.495315 -0.520778 0.000000
vt  0.704087 -0.604491 0.000000
vt  0.564702 -0.650838 0.000000
vt  0.845931 -0.489937 0.000000
vt  0.768251 -0.398548 0.000000
vt  0.931522 -0.368811 0.000000
vt  0.843993 -0.306623 0.000000
vt  0.977478 -0.209463 0.000000
vt  0.878701 -0.184426 0.000000
vt  0.873528 -0.021933 0.000000
vt  0.984663 -0.013819 0.000000
vt  0.977478 -0.209463 0.000000
vt  0.878701 -0.184426 0.000000
vt  0.843993 -0.306623 0.000000
vt  0.931522 -0.368811 0.000000
vt  0.768251 -0.398548 0.000000
vt  0.845931 -0.489937 0.000000
vt  0.657909 -0.477388 0.000000
vt  0.704087 -0.604491 0.000000
vt  0.609921 -0.351576 0.000000
vt  0.700566 -0.329387 0.000000
vt  0.738682 -0.245819 0.000000
vt  0.733829 -0.169098 0.000000
vt  0.737319 -0.031873 0.000000
vt  0.733829 -0.169098 0.000000
vt  0.738682 -0.245819 0.000000
vt  0.700566 -0.329387 0.000000
vt  0.609921 -0.351576 0.000000
vt  0.470530 -0.332978 0.000000
vt  0.638113 -0.211466 0.000000
vt  0.645188 -0.286605 0.000000
vt  0.513324 -0.204364 0.000000
vt  0.577962 -0.093291 0.000000
vt  0.638113 -0.211466 0.000000
vt  0.645188 -0.286605 0.000000
vt  0.274366 -0.341981 0.000000
vt  0.322155 -0.427390 0.000000
vt  0.105155 -0.444317 0.000000
vt  0.302743 -0.548163 0.000000
vt  0.346737 -0.426346 0.000000
vt  0.306132 -0.325604 0.000000
vt  0.390668 -0.391829 0.000000
vt  0.392610 -0.514616 0.000000
vt  0.330615 -0.583065 0.000000
vt  0.373413 -0.637820 0.000000
vt  0.259776 -0.657566 0.000000
vt  0.288928 -0.709260 0.000000
vt  0.373413 -0.637820 0.000000
vt  0.330615 -0.583065 0.000000
vt  0.392610 -0.514616 0.000000
vt  0.302743 -0.548163 0.000000
vt  0.346737 -0.426346 0.000000
vt  0.390668 -0.391829 0.000000
vt  0.306132 -0.325604 0.000000
vt  0.375070 -0.270994 0.000000
vt  0.318700 -0.206275 0.000000
vt  0.444001 -0.694240 0.000000
vt  0.332886 -0.773310 0.000000
vt  0.444001 -0.694240 0.000000
vt  0.465807 -0.601194 0.000000
vt  0.475953 -0.499594 0.000000
vt  0.430932 -0.363210 0.000000
vt  0.423804 -0.238707 0.000000
vt  0.387697 -0.165276 0.000000
vt  0.329813 -0.098184 0.000000
vt  0.243479 -0.236509 0.000000
vt  0.274366 -0.341981 0.000000
vt  0.322155 -0.427390 0.000000
vt  0.192132 -0.267871 0.000000
vt  0.243100 -0.139870 0.000000
vt  0.262157 -0.050296 0.000000
vt  0.150606 -0.172244 0.000000
vt  0.058338 -0.269596 0.000000
vt  0.175031 -0.005681 0.000000
vt  0.086874 -0.093432 0.000000
vt  0.166762 -0.074381 0.000000
vt  0.034107 -0.200853 0.000000
vt  0.011457 -0.124122 0.000000
vt  0.086874 -0.093432 0.000000
vt  0.150606 -0.172244 0.000000
vt  0.192132 -0.267871 0.000000
vt  0.243100 -0.139870 0.000000
vt  0.243479 -0.236509 0.000000
vt  0.329813 -0.098184 0.000000
vt  0.262157 -0.050296 0.000000
vt  0.318700 -0.206275 0.000000
vt  0.387697 -0.165276 0.000000
vt  0.423804 -0.238707 0.000000
vt  0.375070 -0.270994 0.000000
vt  0.430932 -0.363210 0.000000
vt  0.475953 -0.499594 0.000000
vt  0.465807 -0.601194 0.000000
vt  0.175031 -0.005681 0.000000
vt  0.166762 -0.074381 0.000000
vt  0.988454 -0.804776 0.000000
vt  0.923181 -0.677711 0.000000
vt  0.916126 -0.771611 0.000000
vt  0.818094 -0.720598 0.000000
vt  0.909423 -0.884186 0.000000
vt  0.329019 -0.791670 0.000000
vt  0.476935 -0.837939 0.000000
vt  0.470287 -0.866522 0.000000
vt  0.596179 -0.804143 0.000000
vt  0.604379 -0.849031 0.000000
vt  0.721701 -0.802777 0.000000
vt  0.716976 -0.734520 0.000000
vt  0.817315 -0.831697 0.000000
vt  0.818094 -0.720598 0.000000
vt  0.766761 -0.577982 0.000000
vt  0.836465 -0.579907 0.000000
vt  0.923181 -0.677711 0.000000
vt  0.875919 -0.581909 0.000000
vt  0.915413 -0.584393 0.000000
vt  0.716976 -0.734520 0.000000
vt  0.817315 -0.831697 0.000000
vt  0.497119 -0.919854 0.000000
vt  0.630344 -0.930946 0.000000
vt  0.721094 -0.892013 0.000000
vt  0.835700 -0.941886 0.000000
vt  0.909423 -0.884186 0.000000
vt  0.743296 -0.981695 0.000000
vt  0.651639 -0.995106 0.000000
vt  0.515642 -0.966542 0.000000
vt  0.357190 -0.994829 0.000000
vt  0.355150 -0.898695 0.000000
vt  0.245228 -0.969272 0.000000
vt  0.217963 -0.859778 0.000000
vt  0.281526 -0.821460 0.000000
vt  0.203336 -0.725576 0.000000
vt  0.147379 -0.752319 0.000000
vt  0.142649 -0.929738 0.000000
vt  0.243585 -0.700213 0.000000
vt  0.281526 -0.821460 0.000000
vt  0.329019 -0.791670 0.000000
vt  0.355150 -0.898695 0.000000
vt  0.470287 -0.866522 0.000000
vt  0.476935 -0.837939 0.000000
vt  0.596179 -0.804143 0.000000
vt  0.604379 -0.849031 0.000000
vt  0.721701 -0.802777 0.000000
vt  0.835700 -0.941886 0.000000
vt  0.245228 -0.969272 0.000000
vt  0.357190 -0.994829 0.000000
vt  0.497119 -0.919854 0.000000
vt  0.630344 -0.930946 0.000000
vt  0.721094 -0.892013 0.000000
vt  0.743296 -0.981695 0.000000
vt  0.651639 -0.995106 0.000000
vt  0.515642 -0.966542 0.000000
vt  0.070857 -0.791309 0.000000
vt  0.142649 -0.929738 0.000000
vt  0.217963 -0.859778 0.000000
vt  0.988454 -0.804776 0.000000
vt  0.916126 -0.771611 0.000000
vt  0.236665 -0.623933 0.000000

vn  0.145240 -0.751391 -0.643675
vn  0.172536 -0.985003 -0.000003
vn  0.548305 -0.753004 -0.363794
vn  0.302315 -0.953208 -0.000003
vn  0.726309 -0.380754 -0.572277
vn  0.320928 -0.242923 -0.915420
vn  0.890652 -0.223130 -0.396172
vn  0.440976 0.116970 -0.889864
vn  0.891693 -0.277340 -0.357723
vn  0.531045 0.573516 -0.623756
vn  0.513414 0.858141 0.000002
vn  0.998756 -0.049872 0.000000
vn  0.891693 -0.277342 0.357722
vn  0.531044 0.573512 0.623759
vn  0.440975 0.116965 0.889865
vn  0.890652 -0.223132 0.396171
vn  0.320928 -0.242929 0.915419
vn  0.726309 -0.380758 0.572276
vn  0.145240 -0.751394 0.643671
vn  0.548305 -0.753006 0.363790
vn  0.454574 -0.673273 -0.583152
vn  0.420024 -0.114157 -0.900304
vn  0.454866 0.147850 -0.878201
vn  0.653991 0.319055 -0.685930
vn  0.741862 0.670553 0.000002
vn  0.653991 0.319051 0.685932
vn  0.454866 0.147845 0.878202
vn  0.420024 -0.114162 0.900304
vn  0.454574 -0.673276 0.583148
vn  0.770713 -0.637182 -0.000002
vn  0.790964 -0.239642 0.562981
vn  0.616148 -0.293581 0.730871
vn  0.830063 -0.557670 -0.000001
vn  0.993163 -0.116736 -0.000000
vn  0.790964 -0.239638 -0.562982
vn  0.616148 -0.293577 -0.730872
vn  -0.948663 0.313810 0.039529
vn  -0.914011 0.333615 0.230837
vn  -0.973346 0.229340 0.000000
vn  -0.867146 0.477680 0.140995
vn  -0.862408 0.201922 -0.464199
vn  -0.729098 0.290127 -0.619873
vn  -0.699846 0.292910 -0.651475
vn  -0.938320 0.197590 -0.283749
vn  -0.963769 0.262218 -0.048891
vn  -0.991778 -0.035318 -0.122999
vn  -0.926323 0.376730 0.000001
vn  -0.998486 -0.055016 -0.000000
vn  -0.991778 -0.035319 0.122998
vn  -0.963769 0.262218 0.048892
vn  -0.938320 0.197589 0.283750
vn  -0.867146 0.477681 -0.140992
vn  -0.862408 0.201919 0.464199
vn  -0.699846 0.292906 0.651476
vn  -0.729098 0.290124 0.619875
vn  -0.704936 0.200430 0.680363
vn  -0.747724 0.332182 0.574947
vn  0.132189 -0.672733 -0.727982
vn  0.242704 -0.970100 -0.000003
vn  0.132189 -0.672740 0.727975
vn  0.012415 -0.941789 0.335975
vn  -0.107582 -0.706712 0.699274
vn  0.175959 -0.349504 0.920264
vn  0.670748 0.423507 0.608883
vn  -0.042752 0.477985 -0.877327
vn  0.746585 0.400665 0.531111
vn  -0.696418 0.637512 0.329517
vn  -0.948663 0.313810 -0.039527
vn  -0.914010 0.333616 -0.230836
vn  -0.863596 0.504056 -0.011421
vn  -0.531090 0.817692 0.222088
vn  0.503381 0.117190 0.856081
vn  -0.573942 0.790980 0.211994
vn  -0.914315 0.405005 0.000001
vn  -0.794038 -0.583986 -0.168715
vn  0.650793 0.617610 -0.441619
vn  -0.620598 0.751175 0.224934
vn  -0.626312 0.779572 0.000002
vn  -0.712651 -0.701519 -0.000002
vn  0.650792 0.617607 0.441623
vn  -0.573942 0.790981 -0.211990
vn  -0.863596 0.504056 0.011423
vn  -0.531090 0.817693 -0.222084
vn  -0.696417 0.637514 -0.329513
vn  0.746585 0.400668 -0.531108
vn  0.503397 0.117193 -0.856071
vn  -0.747724 0.332185 -0.574945
vn  -0.042752 0.477980 0.877330
vn  0.670753 0.423507 -0.608878
vn  -0.704936 0.200433 -0.680362
vn  0.175959 -0.349499 -0.920266
vn  -0.107582 -0.706708 -0.699278
vn  0.012406 -0.941787 -0.335981
vn  -0.794038 -0.583987 0.168711
vn  -0.620597 0.751176 -0.224930
vn  -0.794038 -0.583987 0.168711
vn  0.650792 0.617607 0.441623
vn  0.625296 -0.747247 0.225004
vn  0.628189 -0.750407 0.205593
vn  0.503397 0.117193 -0.856071
vn  0.548305 -0.753006 0.363790
vn  0.726309 -0.380758 0.572276
vn  0.867533 -0.231502 -0.440220
vn  0.890652 -0.223132 0.396171
vn  0.756484 -0.284283 -0.588995
vn  0.725718 -0.655934 -0.207566
vn  0.891693 -0.277342 0.357722
vn  0.539714 -0.816297 -0.205834
vn  0.628189 -0.750406 -0.205597
vn  0.998756 -0.049872 0.000000
vn  0.689634 -0.724158 -0.000002
vn  0.650793 0.617610 -0.441619
vn  0.564686 -0.825306 -0.000002
vn  -0.712651 -0.701519 -0.000002
vn  0.891693 -0.277340 -0.357723
vn  0.539714 -0.816299 0.205829
vn  0.723111 -0.318673 -0.612828
vn  0.714590 -0.190274 -0.673169
vn  0.759327 -0.337415 -0.556393
vn  0.746585 0.400665 0.531111
vn  0.503381 0.117190 0.856081
vn  -0.042752 0.477985 -0.877327
vn  0.670748 0.423507 0.608883
vn  0.175959 -0.349504 0.920264
vn  -0.107582 -0.706712 0.699274
vn  0.938900 -0.253376 -0.232953
vn  0.012415 -0.941789 0.335975
vn  0.994471 -0.001042 -0.105004
vn  0.939684 -0.341756 0.014020
vn  0.882095 -0.471073 -0.000001
vn  0.999994 0.003453 0.000000
vn  0.132189 -0.672740 0.727975
vn  0.302315 -0.953208 -0.000003
vn  0.939684 -0.341756 -0.014021
vn  0.548305 -0.753004 -0.363794
vn  0.938900 -0.253377 0.232952
vn  0.867533 -0.231504 0.440219
vn  0.726309 -0.380754 -0.572277
vn  0.890652 -0.223130 -0.396172
vn  0.756484 -0.284286 0.588994
vn  0.725718 -0.655936 0.207562
vn  0.746585 0.400668 -0.531108
vn  0.012406 -0.941787 -0.335981
vn  -0.107582 -0.706708 -0.699278
vn  0.723110 -0.318677 0.612827
vn  0.714590 -0.190278 0.673168
vn  0.759327 -0.337418 0.556392
vn  -0.042752 0.477980 0.877330
vn  0.670753 0.423507 -0.608878
vn  0.175959 -0.349499 -0.920266
vn  0.242704 -0.970100 -0.000003
vn  0.132189 -0.672733 -0.727982
vn  0.994471 -0.001043 0.105004
vn  -0.794038 -0.583986 -0.168715
vn  0.625296 -0.747245 -0.225008
vn  -0.773273 0.634073 0.000002

g B1112
usemtl mesh1material
f  1/1/1 2/2/2 3/3/3
f  4/4/4 3/3/3 2/2/2
f  5/5/5 1/1/1 3/3/3
f  1/1/1 5/5/5 6/6/6
f  7/7/7 6/6/6 5/5/5
f  6/6/6 7/7/7 8/8/8
f  9/9/9 8/8/8 7/7/7
f  8/8/8 9/9/9 10/10/10
f  10/10/10 9/9/9 11/11/11
f  12/12/12 11/11/11 9/9/9
f  13/13/13 11/11/11 12/12/12
f  11/11/11 13/13/13 14/14/14
f  14/14/14 13/13/13 15/15/15
f  16/16/16 15/15/15 13/13/13
f  15/15/15 16/16/16 17/17/17
f  18/18/18 17/17/17 16/16/16
f  17/17/17 18/18/18 19/19/19
f  20/20/20 19/19/19 18/18/18
f  19/19/19 20/20/20 2/2/2
f  4/4/4 2/2/2 20/20/20
f  6/6/6 21/21/21 1/1/1
f  21/21/21 6/6/6 22/22/22
f  8/8/8 22/22/22 6/6/6
f  22/22/22 8/8/8 23/23/23
f  10/10/10 23/23/23 8/8/8
f  23/23/23 10/10/10 24/24/24
f  24/24/24 10/10/10 25/25/25
f  11/11/11 25/25/25 10/10/10
f  14/14/14 25/25/25 11/11/11
f  25/25/25 14/14/14 26/26/26
f  26/26/26 14/14/14 27/27/27
f  15/15/15 27/27/27 14/14/14
f  27/27/27 15/15/15 28/28/28
f  17/17/17 28/28/28 15/15/15
f  28/28/28 17/17/17 29/29/29
f  19/19/19 29/29/29 17/17/17
f  29/29/29 19/19/19 30/30/30
f  2/2/2 30/30/30 19/19/19
f  26/26/26 27/27/27 31/31/31
f  28/28/28 31/31/31 27/27/27
f  31/31/31 28/28/28 32/32/32
f  29/29/29 32/32/32 28/28/28
f  30/30/30 32/32/32 29/29/29
f  33/33/33 32/32/32 30/30/30
f  32/32/32 33/33/33 31/31/31
f  34/34/34 31/31/31 33/33/33
f  25/25/25 31/31/31 34/34/34
f  31/31/31 25/25/25 26/26/26
f  24/24/24 25/25/25 35/35/35
f  34/34/34 35/35/35 25/25/25
f  33/33/33 35/35/35 34/34/34
f  35/35/35 33/33/33 36/36/36
f  30/30/30 36/36/36 33/33/33
f  21/21/21 36/36/36 30/30/30
f  22/22/22 36/36/36 21/21/21
f  36/36/36 22/22/22 35/35/35
f  23/23/23 35/35/35 22/22/22
f  35/35/35 23/23/23 24/24/24
f  21/21/21 30/30/30 1/1/1
f  2/2/2 1/1/1 30/30/30
f  37/37/37 38/38/38 39/39/39
f  39/39/39 38/38/38 40/40/40
f  41/41/41 40/40/40 38/38/38
f  38/38/38 37/37/37 41/41/41
f  42/42/42 41/41/41 37/37/37
f  43/43/43 41/41/41 42/42/42
f  44/44/44 41/41/41 43/43/43
f  41/41/41 44/44/44 40/40/40
f  40/40/40 44/44/44 45/45/45
f  46/46/46 45/45/45 44/44/44
f  45/45/45 46/46/46 47/47/47
f  48/48/48 47/47/47 46/46/46
f  49/49/49 47/47/47 48/48/48
f  47/47/47 49/49/49 50/50/50
f  51/51/51 50/50/50 49/49/49
f  50/50/50 51/51/51 52/52/52
f  52/52/52 51/51/51 53/53/53
f  54/54/54 53/53/53 51/51/51
f  53/53/53 54/54/54 55/55/55
f  56/56/56 55/55/55 54/54/54
f  57/57/57 55/55/55 56/56/56
f  46/46/46 58/58/58 48/48/48
f  59/59/59 48/48/48 58/58/58
f  60/60/60 48/48/48 59/59/59
f  48/48/48 60/60/60 49/49/49
f  61/61/61 49/49/49 60/60/60
f  49/49/49 61/61/61 51/51/51
f  62/62/62 51/51/51 61/61/61
f  51/51/51 62/62/62 54/54/54
f  63/63/63 54/54/54 62/62/62
f  64/64/64 54/54/54 63/63/63
f  54/54/54 64/64/64 56/56/56
f  56/56/56 64/64/64 57/57/57
f  65/65/65 57/57/57 64/64/64
f  65/65/65 66/66/66 57/57/57
f  67/67/67 57/57/57 66/66/66
f  57/57/57 67/67/67 55/55/55
f  68/68/68 55/55/55 67/67/67
f  55/55/55 68/68/68 53/53/53
f  69/69/69 53/53/53 68/68/68
f  53/53/53 69/69/69 52/52/52
f  52/52/52 69/69/69 39/39/39
f  68/68/68 39/39/39 69/69/69
f  39/39/39 68/68/68 70/70/70
f  67/67/67 70/70/70 68/68/68
f  70/70/70 67/67/67 71/71/71
f  66/66/66 71/71/71 67/67/67
f  72/72/72 71/71/71 66/66/66
f  73/73/73 71/71/71 72/72/72
f  71/71/71 73/73/73 70/70/70
f  74/74/74 70/70/70 73/73/73
f  70/70/70 74/74/74 39/39/39
f  75/75/75 76/76/76 77/77/77
f  73/73/73 77/77/77 76/76/76
f  72/72/72 77/77/77 73/73/73
f  77/77/77 72/72/72 75/75/75
f  73/73/73 76/76/76 78/78/78
f  79/79/79 78/78/78 76/76/76
f  80/80/80 78/78/78 79/79/79
f  78/78/78 80/80/80 81/81/81
f  73/73/73 78/78/78 74/74/74
f  81/81/81 74/74/74 78/78/78
f  74/74/74 81/81/81 82/82/82
f  83/83/83 82/82/82 81/81/81
f  82/82/82 83/83/83 84/84/84
f  84/84/84 83/83/83 85/85/85
f  85/85/85 83/83/83 86/86/86
f  81/81/81 86/86/86 83/83/83
f  74/74/74 82/82/82 39/39/39
f  39/39/39 82/82/82 37/37/37
f  84/84/84 37/37/37 82/82/82
f  37/37/37 84/84/84 42/42/42
f  42/42/42 84/84/84 87/87/87
f  85/85/85 87/87/87 84/84/84
f  88/88/88 87/87/87 85/85/85
f  89/89/89 87/87/87 88/88/88
f  90/90/90 87/87/87 89/89/89
f  87/87/87 90/90/90 42/42/42
f  42/42/42 90/90/90 43/43/43
f  89/89/89 43/43/43 90/90/90
f  91/91/91 43/43/43 89/89/89
f  92/92/92 43/43/43 91/91/91
f  43/43/43 92/92/92 44/44/44
f  93/93/93 44/44/44 92/92/92
f  44/44/44 93/93/93 46/46/46
f  58/58/58 46/46/46 93/93/93
f  94/94/94 86/86/86 95/95/95
f  81/81/81 95/95/95 86/86/86
f  80/80/80 95/95/95 81/81/81
f  95/95/95 80/80/80 94/94/94
f  96/96/96 97/97/97 98/98/98
f  99/99/99 98/98/98 97/97/97
f  100/100/100 98/98/98 99/99/99
f  98/98/98 100/100/100 96/96/96
f  101/101/101 102/102/102 103/103/103
f  104/104/104 103/103/103 102/102/102
f  103/103/103 104/104/104 105/105/105
f  105/105/105 104/104/104 106/106/106
f  107/107/107 106/106/106 104/104/104
f  106/106/106 107/107/107 108/108/108
f  108/108/108 107/107/107 109/109/109
f  110/110/110 109/109/109 107/107/107
f  111/111/111 109/109/109 110/110/110
f  109/109/109 111/111/111 112/112/112
f  113/113/113 112/112/112 111/111/111
f  112/112/112 113/113/113 114/114/114
f  114/114/114 113/113/113 97/97/97
f  111/111/111 97/97/97 113/113/113
f  97/97/97 111/111/111 99/99/99
f  110/110/110 99/99/99 111/111/111
f  115/115/115 99/99/99 110/110/110
f  99/99/99 115/115/115 116/116/116
f  103/103/103 105/105/105 117/117/117
f  117/117/117 105/105/105 118/118/118
f  118/118/118 105/105/105 119/119/119
f  106/106/106 119/119/119 105/105/105
f  119/119/119 106/106/106 120/120/120
f  108/108/108 120/120/120 106/106/106
f  120/120/120 108/108/108 121/121/121
f  109/109/109 121/121/121 108/108/108
f  120/120/120 122/122/122 119/119/119
f  123/123/123 119/119/119 122/122/122
f  119/119/119 123/123/123 118/118/118
f  118/118/118 123/123/123 117/117/117
f  124/124/124 117/117/117 123/123/123
f  125/125/125 117/117/117 124/124/124
f  117/117/117 125/125/125 126/126/126
f  127/127/127 126/126/126 125/125/125
f  128/128/128 126/126/126 127/127/127
f  126/126/126 128/128/128 129/129/129
f  129/129/129 128/128/128 130/130/130
f  130/130/130 128/128/128 131/131/131
f  131/131/131 128/128/128 132/132/132
f  127/127/127 132/132/132 128/128/128
f  126/126/126 103/103/103 117/117/117
f  103/103/103 126/126/126 101/101/101
f  129/129/129 101/101/101 126/126/126
f  101/101/101 129/129/129 133/133/133
f  130/130/130 133/133/133 129/129/129
f  134/134/134 133/133/133 130/130/130
f  133/133/133 134/134/134 135/135/135
f  136/136/136 135/135/135 134/134/134
f  137/137/137 135/135/135 136/136/136
f  135/135/135 137/137/137 138/138/138
f  138/138/138 137/137/137 139/139/139
f  140/140/140 139/139/139 137/137/137
f  141/141/141 139/139/139 140/140/140
f  139/139/139 141/141/141 115/115/115
f  115/115/115 141/141/141 116/116/116
f  142/142/142 116/116/116 141/141/141
f  100/100/100 116/116/116 142/142/142
f  99/99/99 116/116/116 100/100/100
f  143/143/143 144/144/144 136/136/136
f  145/145/145 136/136/136 144/144/144
f  136/136/136 145/145/145 137/137/137
f  137/137/137 145/145/145 140/140/140
f  146/146/146 140/140/140 145/145/145
f  147/147/147 140/140/140 146/146/146
f  140/140/140 147/147/147 141/141/141
f  141/141/141 147/147/147 142/142/142
f  142/142/142 147/147/147 148/148/148
f  148/148/148 147/147/147 149/149/149
f  146/146/146 149/149/149 147/147/147
f  145/145/145 149/149/149 146/146/146
f  149/149/149 145/145/145 150/150/150
f  144/144/144 150/150/150 145/145/145
f  132/132/132 151/151/151 131/131/131
f  152/152/152 131/131/131 151/151/151
f  153/153/153 131/131/131 152/152/152
f  131/131/131 153/153/153 130/130/130
f  130/130/130 153/153/153 134/134/134
f  134/134/134 153/153/153 136/136/136
f  136/136/136 153/153/153 143/143/143
f  152/152/152 143/143/143 153/153/153
f  154/154/154 121/121/121 155/155/155
f  109/109/109 155/155/155 121/121/121
f  112/112/112 155/155/155 109/109/109
f  155/155/155 112/112/112 154/154/154
f  39/39/39 40/40/40 156/156/156
f  45/45/45 156/156/156 40/40/40
f  47/47/47 156/156/156 45/45/45
f  50/50/50 156/156/156 47/47/47
f  52/52/52 156/156/156 50/50/50
f  156/156/156 52/52/52 39/39/39

g
