# Noesis .obj export.
#
mtllib b1132.mtl
g
v  0.501839 -0.320761 0.159938
v  0.594990 -0.320761 0.159938
v  0.615252 -0.383456 0.000032
v  0.708403 -0.383457 0.000032
v  0.594990 -0.320762 -0.159873
v  0.501839 -0.320761 -0.159873
v  0.362158 0.244819 -0.126113
v  0.455378 0.245555 -0.142272
v  0.366746 0.295906 0.000031
v  0.460064 0.291454 0.000031
v  0.455378 0.245556 0.142334
v  0.362158 0.244820 0.126176
v  0.273441 0.233611 0.111497
v  0.282428 0.263003 0.000031
v  0.273441 0.233610 -0.111434
v  0.532378 0.151541 -0.436453
v  0.635973 0.165405 -0.293394
v  0.488033 0.172472 -0.335053
v  0.625785 0.186336 -0.245208
v  0.629747 0.245698 -0.158619
v  0.630024 0.288580 0.000031
v  0.734020 0.193101 -0.163653
v  0.758059 0.267016 0.000031
v  0.849086 0.186015 0.000031
v  0.825033 0.148347 -0.158590
v  0.945310 0.141261 -0.037804
v  0.945310 0.141261 0.037867
v  0.825033 0.148348 0.158653
v  0.734020 0.193101 0.163716
v  0.629747 0.245699 0.158681
v  0.625785 0.186337 0.245271
v  0.488033 0.172473 0.335116
v  0.635973 0.165407 0.293457
v  0.532378 0.151543 0.436516
v  0.460064 0.291454 0.000031
v  0.455378 0.245555 -0.142272
v  0.366746 0.295906 0.000031
v  0.362158 0.244819 -0.126113
v  0.273441 0.233610 -0.111434
v  0.282428 0.263003 0.000031
v  0.273441 0.233611 0.111497
v  0.362158 0.244820 0.126176
v  0.455378 0.245556 0.142334
v  0.945310 0.141261 -0.037804
v  0.825033 0.148347 -0.158590
v  0.849086 0.186015 0.000031
v  0.734020 0.193101 -0.163653
v  0.758059 0.267016 0.000031
v  0.630024 0.288580 0.000031
v  0.629747 0.245698 -0.158619
v  0.625785 0.186336 -0.245208
v  0.488033 0.172472 -0.335053
v  0.635973 0.165405 -0.293394
v  0.532378 0.151541 -0.436453
v  0.532378 0.151543 0.436516
v  0.635973 0.165407 0.293457
v  0.488033 0.172473 0.335116
v  0.625785 0.186337 0.245271
v  0.629747 0.245699 0.158681
v  0.734020 0.193101 0.163716
v  0.825033 0.148348 0.158653
v  0.945310 0.141261 0.037867
v  0.123355 0.076237 -0.226125
v  0.086009 -0.045913 -0.209234
v  0.207242 0.035366 0.000032
v  0.057317 -0.139760 -0.131122
v  0.046623 -0.174737 0.000032
v  0.057317 -0.139760 0.131186
v  0.086009 -0.045912 0.209297
v  0.123355 0.076238 0.226188
v  0.156419 0.184384 0.189566
v  0.174888 0.244791 0.103648
v  0.182829 0.270765 0.000031
v  0.174888 0.244790 -0.103586
v  0.156419 0.184383 -0.189503
v  0.321166 -0.137299 -0.336404
v  0.521762 -0.188883 -0.170192
v  0.304607 -0.217538 -0.280862
v  0.501839 -0.320761 -0.159873
v  0.595892 -0.246376 0.000032
v  0.615252 -0.383456 0.000032
v  0.501839 -0.320761 0.159938
v  0.458603 -0.369261 0.000032
v  0.302049 -0.289623 -0.160892
v  0.300753 -0.342960 0.000032
v  0.302049 -0.289623 0.160956
v  0.304607 -0.217536 0.280926
v  0.521762 -0.188882 0.170256
v  0.554922 -0.081200 0.193003
v  0.426353 -0.046416 0.280004
v  0.511614 0.063033 0.258840
v  0.437244 0.130673 0.335116
v  0.361878 -0.002041 0.352376
v  0.321166 -0.137298 0.336468
v  0.254529 -0.106058 -0.245557
v  0.221983 -0.183487 -0.214017
v  0.214749 -0.199166 -0.146738
v  0.208367 -0.287464 0.000032
v  0.214748 -0.199165 0.146802
v  0.221983 -0.183486 0.214081
v  0.254529 -0.106057 0.245620
v  0.301504 0.017333 0.276484
v  0.344142 0.142745 0.270335
v  0.362158 0.221269 0.126176
v  0.273441 0.233611 0.111497
v  0.301504 0.017332 -0.276420
v  0.211228 0.048401 -0.243294
v  0.168115 -0.074224 -0.227651
v  0.130258 -0.175199 -0.143964
v  0.116593 -0.210165 0.000032
v  0.130258 -0.175198 0.144028
v  0.168115 -0.074223 0.227714
v  0.211228 0.048402 0.243358
v  0.252879 0.166356 0.205832
v  0.086009 -0.045912 0.209297
v  0.057317 -0.139760 0.131186
v  0.046623 -0.174737 0.000032
v  0.057317 -0.139760 -0.131122
v  0.086009 -0.045913 -0.209234
v  0.123355 0.076237 -0.226125
v  0.123355 0.076238 0.226188
v  0.156419 0.184384 0.189566
v  0.174888 0.244791 0.103648
v  0.282428 0.263003 0.000031
v  0.182829 0.270765 0.000031
v  0.174888 0.244790 -0.103586
v  0.273441 0.233610 -0.111434
v  0.156419 0.184383 -0.189503
v  0.252879 0.166356 -0.205769
v  0.344143 0.142744 -0.270272
v  0.362158 0.221269 -0.126113
v  0.437244 0.130671 -0.335053
v  0.455377 0.217342 -0.142272
v  0.366746 0.259216 0.000031
v  0.460064 0.273724 0.000031
v  0.455377 0.217343 0.142334
v  0.361878 -0.002042 -0.352312
v  0.426353 -0.046417 -0.279940
v  0.511614 0.063032 -0.258776
v  0.554922 -0.081201 -0.192939
v  0.623629 0.034297 -0.161048
v  0.610561 -0.128354 0.000032
v  0.698058 0.015872 0.000032
v  0.623629 0.034298 0.161111
v  0.734020 0.152847 0.163716
v  0.625785 0.144536 0.245271
v  0.629747 0.204916 0.158681
v  0.849085 0.145761 0.000031
v  0.734019 0.152847 -0.163653
v  0.625785 0.144535 -0.245208
v  0.629747 0.204915 -0.158619
v  0.630024 0.274070 0.000031
v  0.758059 0.235732 0.000031

vt  0.047699 -0.376465 0.000000
vt  0.139463 -0.354381 0.000000
vt  0.191082 -0.516670 0.000000
vt  0.282847 -0.494586 0.000000
vt  0.139463 -0.354381 0.000000
vt  0.047699 -0.376465 0.000000
vt  0.116447 -0.927084 0.000000
vt  0.129470 -0.856734 0.000000
vt  0.012040 -0.915851 0.000000
vt  0.012094 -0.846001 0.000000
vt  0.129470 -0.856734 0.000000
vt  0.116447 -0.927084 0.000000
vt  0.099125 -0.992979 0.000000
vt  0.011769 -0.978978 0.000000
vt  0.099125 -0.992979 0.000000
vt  0.364214 -0.840249 0.000000
vt  0.270975 -0.741724 0.000000
vt  0.282412 -0.854129 0.000000
vt  0.228985 -0.741781 0.000000
vt  0.147776 -0.724094 0.000000
vt  0.015111 -0.721444 0.000000
vt  0.157241 -0.628297 0.000000
vt  0.018242 -0.626080 0.000000
vt  0.032442 -0.537482 0.000000
vt  0.157734 -0.550077 0.000000
vt  0.063821 -0.460187 0.000000
vt  0.063821 -0.460187 0.000000
vt  0.157734 -0.550077 0.000000
vt  0.157241 -0.628297 0.000000
vt  0.147776 -0.724094 0.000000
vt  0.228985 -0.741781 0.000000
vt  0.282412 -0.854129 0.000000
vt  0.270975 -0.741724 0.000000
vt  0.364214 -0.840249 0.000000
vt  0.012094 -0.846001 0.000000
vt  0.129470 -0.856734 0.000000
vt  0.012040 -0.915851 0.000000
vt  0.116447 -0.927084 0.000000
vt  0.099125 -0.992979 0.000000
vt  0.011769 -0.978978 0.000000
vt  0.099125 -0.992979 0.000000
vt  0.116447 -0.927084 0.000000
vt  0.129470 -0.856734 0.000000
vt  0.063821 -0.460187 0.000000
vt  0.157734 -0.550077 0.000000
vt  0.032442 -0.537482 0.000000
vt  0.157241 -0.628297 0.000000
vt  0.018242 -0.626080 0.000000
vt  0.015111 -0.721444 0.000000
vt  0.147776 -0.724094 0.000000
vt  0.228985 -0.741781 0.000000
vt  0.282412 -0.854129 0.000000
vt  0.270975 -0.741724 0.000000
vt  0.364214 -0.840249 0.000000
vt  0.364214 -0.840249 0.000000
vt  0.270975 -0.741724 0.000000
vt  0.282412 -0.854129 0.000000
vt  0.228985 -0.741781 0.000000
vt  0.147776 -0.724094 0.000000
vt  0.157241 -0.628297 0.000000
vt  0.157734 -0.550077 0.000000
vt  0.063821 -0.460187 0.000000
vt  0.181498 -0.172297 0.000000
vt  0.167543 -0.260342 0.000000
vt  0.018521 -0.163089 0.000000
vt  0.110527 -0.319971 0.000000
vt  0.022837 -0.334912 0.000000
vt  0.110527 -0.319971 0.000000
vt  0.167543 -0.260342 0.000000
vt  0.181498 -0.172297 0.000000
vt  0.152130 -0.089866 0.000000
vt  0.092374 -0.037397 0.000000
vt  0.022576 -0.011254 0.000000
vt  0.092374 -0.037397 0.000000
vt  0.152130 -0.089866 0.000000
vt  0.732871 -0.341317 0.000000
vt  0.501853 -0.292993 0.000000
vt  0.725127 -0.277865 0.000000
vt  0.527974 -0.170484 0.000000
vt  0.341877 -0.214394 0.000000
vt  0.377732 -0.067008 0.000000
vt  0.527974 -0.170484 0.000000
vt  0.539603 -0.012957 0.000000
vt  0.712600 -0.158719 0.000000
vt  0.704480 -0.006529 0.000000
vt  0.712600 -0.158719 0.000000
vt  0.725127 -0.277865 0.000000
vt  0.501853 -0.292993 0.000000
vt  0.504069 -0.403501 0.000000
vt  0.641913 -0.417774 0.000000
vt  0.600759 -0.528440 0.000000
vt  0.705600 -0.568066 0.000000
vt  0.730976 -0.453372 0.000000
vt  0.732871 -0.341317 0.000000
vt  0.826057 -0.340969 0.000000
vt  0.819354 -0.255621 0.000000
vt  0.826137 -0.189981 0.000000
vt  0.811831 -0.032271 0.000000
vt  0.826137 -0.189981 0.000000
vt  0.819354 -0.255621 0.000000
vt  0.826057 -0.340969 0.000000
vt  0.815037 -0.469211 0.000000
vt  0.791650 -0.595106 0.000000
vt  0.797500 -0.754443 0.000000
vt  0.886192 -0.746706 0.000000
vt  0.815037 -0.469211 0.000000
vt  0.901414 -0.483362 0.000000
vt  0.903608 -0.345848 0.000000
vt  0.905211 -0.210795 0.000000
vt  0.918253 -0.067838 0.000000
vt  0.905211 -0.210795 0.000000
vt  0.903608 -0.345848 0.000000
vt  0.901414 -0.483362 0.000000
vt  0.890398 -0.620918 0.000000
vt  0.982368 -0.341156 0.000000
vt  0.979021 -0.212785 0.000000
vt  0.986928 -0.080796 0.000000
vt  0.979021 -0.212785 0.000000
vt  0.982368 -0.341156 0.000000
vt  0.986310 -0.487202 0.000000
vt  0.986310 -0.487202 0.000000
vt  0.981278 -0.623496 0.000000
vt  0.976828 -0.741659 0.000000
vt  0.886826 -0.859489 0.000000
vt  0.978231 -0.848159 0.000000
vt  0.976828 -0.741659 0.000000
vt  0.886192 -0.746706 0.000000
vt  0.981278 -0.623496 0.000000
vt  0.890398 -0.620918 0.000000
vt  0.791650 -0.595106 0.000000
vt  0.797500 -0.754443 0.000000
vt  0.705600 -0.568066 0.000000
vt  0.706385 -0.754508 0.000000
vt  0.803634 -0.877699 0.000000
vt  0.701730 -0.895383 0.000000
vt  0.706385 -0.754508 0.000000
vt  0.730976 -0.453372 0.000000
vt  0.641913 -0.417774 0.000000
vt  0.600759 -0.528440 0.000000
vt  0.504069 -0.403501 0.000000
vt  0.465247 -0.530581 0.000000
vt  0.320738 -0.353035 0.000000
vt  0.300863 -0.534873 0.000000
vt  0.465247 -0.530581 0.000000
vt  0.450866 -0.681112 0.000000
vt  0.550075 -0.639021 0.000000
vt  0.546276 -0.730691 0.000000
vt  0.283720 -0.740064 0.000000
vt  0.450866 -0.681112 0.000000
vt  0.550075 -0.639021 0.000000
vt  0.546276 -0.730691 0.000000
vt  0.523265 -0.885939 0.000000
vt  0.387921 -0.834607 0.000000

vn  0.409128 -0.630938 0.659191
vn  0.000004 0.841132 0.540829
vn  0.761409 -0.648272 0.000001
vn  -0.000005 -0.999314 -0.037032
vn  -0.000001 -0.229041 -0.973417
vn  0.409128 -0.630941 -0.659188
vn  0.120826 -0.921606 0.368841
vn  0.003087 -0.933861 0.357624
vn  0.137634 -0.990483 0.000002
vn  -0.019444 -0.999811 0.000002
vn  0.003087 -0.933862 -0.357620
vn  0.120826 -0.921608 -0.368837
vn  0.243304 -0.919083 -0.309983
vn  0.363522 -0.931586 0.000002
vn  0.243304 -0.919082 0.309987
vn  -0.092622 -0.982389 0.162277
vn  -0.131828 -0.942098 0.308339
vn  -0.111558 -0.960571 0.254672
vn  -0.080118 -0.904934 0.417942
vn  -0.139521 -0.917173 0.373265
vn  -0.142269 -0.989828 0.000002
vn  -0.418302 -0.847999 0.325456
vn  -0.424149 -0.905592 0.000002
vn  -0.483682 -0.875244 0.000002
vn  -0.403106 -0.874769 0.268857
vn  -0.319240 -0.910012 0.264509
vn  -0.319240 -0.910013 -0.264505
vn  -0.403106 -0.874771 -0.268853
vn  -0.418302 -0.848000 -0.325452
vn  -0.139521 -0.917175 -0.373261
vn  -0.080118 -0.904936 -0.417939
vn  -0.111558 -0.960572 -0.254668
vn  -0.131828 -0.942099 -0.308335
vn  -0.092622 -0.982389 -0.162273
vn  0.019444 0.999811 -0.000002
vn  -0.003087 0.933861 -0.357624
vn  -0.137634 0.990483 -0.000002
vn  -0.120826 0.921606 -0.368841
vn  -0.243304 0.919082 -0.309987
vn  -0.363522 0.931586 -0.000002
vn  -0.243304 0.919083 0.309983
vn  -0.120826 0.921608 0.368837
vn  -0.003087 0.933862 0.357620
vn  0.319240 0.910012 -0.264509
vn  0.403106 0.874769 -0.268857
vn  0.483682 0.875244 -0.000002
vn  0.418302 0.847999 -0.325456
vn  0.424149 0.905592 -0.000002
vn  0.142269 0.989828 -0.000002
vn  0.139521 0.917173 -0.373265
vn  0.080118 0.904934 -0.417943
vn  0.111558 0.960571 -0.254672
vn  0.131828 0.942098 -0.308339
vn  0.092622 0.982389 -0.162277
vn  0.092622 0.982389 0.162273
vn  0.131828 0.942099 0.308335
vn  0.111558 0.960572 0.254668
vn  0.080118 0.904936 0.417939
vn  0.139521 0.917175 0.373261
vn  0.418302 0.848000 0.325452
vn  0.403106 0.874771 0.268853
vn  0.319240 0.910013 0.264505
vn  -0.778905 0.295069 -0.553391
vn  -0.851420 0.035737 -0.523266
vn  -0.962491 0.271313 -0.000001
vn  -0.921774 -0.227026 -0.314311
vn  -0.947593 -0.319481 0.000001
vn  -0.921774 -0.227025 0.314312
vn  -0.851420 0.035739 0.523266
vn  -0.778905 0.295071 0.553390
vn  -0.683138 0.559301 0.469579
vn  -0.670235 0.705345 0.230811
vn  -0.641516 0.767110 -0.000002
vn  -0.670235 0.705344 -0.230814
vn  -0.683138 0.559299 -0.469581
vn  -0.188690 -0.275319 -0.942653
vn  0.689757 -0.275650 -0.669517
vn  -0.277418 -0.590334 -0.757987
vn  0.409128 -0.630941 -0.659188
vn  0.996923 -0.078381 0.000000
vn  0.761409 -0.648272 0.000001
vn  0.409128 -0.630938 0.659191
vn  -0.128632 -0.991692 0.000002
vn  -0.440830 -0.813713 -0.378866
vn  -0.386256 -0.922392 0.000002
vn  -0.440830 -0.813712 0.378870
vn  -0.277418 -0.590331 0.757990
vn  0.689757 -0.275647 0.669518
vn  0.695228 -0.302323 0.652118
vn  0.574236 -0.251152 0.779215
vn  0.507245 -0.345824 0.789372
vn  0.123361 0.417443 0.900291
vn  -0.085749 -0.001551 0.996316
vn  -0.188690 -0.275316 0.942654
vn  -0.550764 -0.080908 -0.830730
vn  -0.558042 -0.574135 -0.599131
vn  -0.448923 -0.816104 -0.363926
vn  -0.525317 -0.850907 0.000002
vn  -0.448923 -0.816103 0.363929
vn  -0.558041 -0.574133 0.599134
vn  -0.550764 -0.080905 0.830731
vn  -0.586097 0.168822 0.792458
vn  -0.392097 0.616263 0.682993
vn  0.008183 0.927466 0.373817
vn  0.044104 0.911172 0.409658
vn  -0.586097 0.168819 -0.792459
vn  -0.213223 0.147820 -0.965756
vn  -0.324842 -0.233838 -0.916405
vn  -0.443783 -0.725652 -0.525820
vn  -0.554991 -0.831856 0.000002
vn  -0.443783 -0.725650 0.525823
vn  -0.324842 -0.233834 0.916406
vn  -0.213223 0.147824 0.965756
vn  -0.165507 0.621096 0.766060
vn  -0.851420 0.035739 0.523266
vn  -0.921774 -0.227025 0.314312
vn  -0.947593 -0.319481 0.000001
vn  -0.921774 -0.227026 -0.314311
vn  -0.851420 0.035737 -0.523266
vn  -0.778905 0.295069 -0.553391
vn  -0.778905 0.295071 0.553390
vn  -0.683138 0.559301 0.469579
vn  -0.670235 0.705345 0.230811
vn  0.063814 0.997962 -0.000002
vn  -0.641516 0.767110 -0.000002
vn  -0.670235 0.705344 -0.230814
vn  0.044103 0.911171 -0.409662
vn  -0.683138 0.559299 -0.469581
vn  -0.165507 0.621092 -0.766062
vn  -0.392097 0.616261 -0.682995
vn  0.008183 0.927465 -0.373821
vn  0.123360 0.417439 -0.900293
vn  0.007582 0.919062 -0.394040
vn  -0.021873 0.999761 -0.000002
vn  -0.066114 0.997812 -0.000002
vn  0.007582 0.919064 0.394037
vn  -0.085749 -0.001555 -0.996316
vn  0.574236 -0.251155 -0.779213
vn  0.507245 -0.345827 -0.789371
vn  0.695228 -0.302326 -0.652117
vn  0.679721 -0.471918 -0.561492
vn  0.956425 -0.291977 0.000001
vn  0.768248 -0.640152 0.000001
vn  0.679720 -0.471916 0.561494
vn  0.722070 0.132155 0.679080
vn  0.461359 0.219984 0.859508
vn  0.199425 0.857248 0.474717
vn  0.999206 -0.039836 -0.000000
vn  0.722070 0.132152 -0.679080
vn  0.461360 0.219981 -0.859509
vn  0.199425 0.857246 -0.474721
vn  0.164343 0.986403 -0.000002
vn  0.495933 0.868361 -0.000002

g B1132
usemtl B1132_3
f  1/1/1 2/2/2 3/3/3
f  4/4/4 3/3/3 2/2/2
f  4/4/4 2/2/2 3/3/3
f  3/3/3 2/2/2 1/1/1
f  3/3/3 1/1/1 2/2/2
f  1/1/1 3/3/3 2/2/2
f  2/2/2 3/3/3 4/4/4
f  2/2/2 4/4/4 3/3/3
f  3/3/3 4/4/4 5/5/5
f  3/3/3 5/5/5 4/4/4
f  5/5/5 3/3/3 6/6/6
f  5/5/5 6/6/6 3/3/3
f  7/7/7 8/8/8 9/9/9
f  10/10/10 9/9/9 8/8/8
f  11/11/11 9/9/9 10/10/10
f  12/12/12 9/9/9 11/11/11
f  13/13/13 9/9/9 12/12/12
f  14/14/14 9/9/9 13/13/13
f  15/15/15 9/9/9 14/14/14
f  9/9/9 15/15/15 7/7/7
f  16/16/16 17/17/17 18/18/18
f  19/19/19 18/18/18 17/17/17
f  18/18/18 19/19/19 8/8/8
f  20/20/20 8/8/8 19/19/19
f  8/8/8 20/20/20 10/10/10
f  10/10/10 20/20/20 21/21/21
f  22/22/22 21/21/21 20/20/20
f  21/21/21 22/22/22 23/23/23
f  23/23/23 22/22/22 24/24/24
f  25/25/25 24/24/24 22/22/22
f  24/24/24 25/25/25 26/26/26
f  27/27/27 28/28/28 24/24/24
f  29/29/29 24/24/24 28/28/28
f  24/24/24 29/29/29 23/23/23
f  23/23/23 29/29/29 21/21/21
f  30/30/30 21/21/21 29/29/29
f  21/21/21 30/30/30 10/10/10
f  10/10/10 30/30/30 11/11/11
f  31/31/31 11/11/11 30/30/30
f  11/11/11 31/31/31 32/32/32
f  33/33/33 32/32/32 31/31/31
f  32/32/32 33/33/33 34/34/34
f  35/35/35 36/36/36 37/37/37
f  38/38/38 37/37/37 36/36/36
f  39/39/39 37/37/37 38/38/38
f  40/40/40 37/37/37 39/39/39
f  41/41/41 37/37/37 40/40/40
f  42/42/42 37/37/37 41/41/41
f  43/43/43 37/37/37 42/42/42
f  37/37/37 43/43/43 35/35/35
f  44/44/44 45/45/45 46/46/46
f  47/47/47 46/46/46 45/45/45
f  46/46/46 47/47/47 48/48/48
f  48/48/48 47/47/47 49/49/49
f  50/50/50 49/49/49 47/47/47
f  49/49/49 50/50/50 35/35/35
f  35/35/35 50/50/50 36/36/36
f  51/51/51 36/36/36 50/50/50
f  36/36/36 51/51/51 52/52/52
f  53/53/53 52/52/52 51/51/51
f  52/52/52 53/53/53 54/54/54
f  55/55/55 56/56/56 57/57/57
f  58/58/58 57/57/57 56/56/56
f  57/57/57 58/58/58 43/43/43
f  59/59/59 43/43/43 58/58/58
f  43/43/43 59/59/59 35/35/35
f  35/35/35 59/59/59 49/49/49
f  60/60/60 49/49/49 59/59/59
f  49/49/49 60/60/60 48/48/48
f  48/48/48 60/60/60 46/46/46
f  61/61/61 46/46/46 60/60/60
f  46/46/46 61/61/61 62/62/62
f  63/63/63 64/64/64 65/65/65
f  66/66/66 65/65/65 64/64/64
f  67/67/67 65/65/65 66/66/66
f  68/68/68 65/65/65 67/67/67
f  69/69/69 65/65/65 68/68/68
f  70/70/70 65/65/65 69/69/69
f  71/71/71 65/65/65 70/70/70
f  72/72/72 65/65/65 71/71/71
f  73/73/73 65/65/65 72/72/72
f  74/74/74 65/65/65 73/73/73
f  75/75/75 65/65/65 74/74/74
f  65/65/65 75/75/75 63/63/63
f  76/76/76 77/77/77 78/78/78
f  78/78/78 77/77/77 79/79/79
f  80/80/80 79/79/79 77/77/77
f  79/79/79 80/80/80 81/81/81
f  82/82/82 81/81/81 80/80/80
f  83/83/83 81/81/81 82/82/82
f  81/81/81 83/83/83 79/79/79
f  84/84/84 79/79/79 83/83/83
f  79/79/79 84/84/84 78/78/78
f  84/84/84 83/83/83 85/85/85
f  85/85/85 83/83/83 86/86/86
f  82/82/82 86/86/86 83/83/83
f  86/86/86 82/82/82 87/87/87
f  87/87/87 82/82/82 88/88/88
f  80/80/80 88/88/88 82/82/82
f  89/89/89 88/88/88 80/80/80
f  88/88/88 89/89/89 90/90/90
f  91/91/91 90/90/90 89/89/89
f  92/92/92 90/90/90 91/91/91
f  93/93/93 90/90/90 92/92/92
f  94/94/94 90/90/90 93/93/93
f  90/90/90 94/94/94 88/88/88
f  87/87/87 88/88/88 94/94/94
f  78/78/78 95/95/95 76/76/76
f  95/95/95 78/78/78 96/96/96
f  96/96/96 78/78/78 97/97/97
f  84/84/84 97/97/97 78/78/78
f  85/85/85 97/97/97 84/84/84
f  97/97/97 85/85/85 98/98/98
f  98/98/98 85/85/85 99/99/99
f  86/86/86 99/99/99 85/85/85
f  87/87/87 99/99/99 86/86/86
f  99/99/99 87/87/87 100/100/100
f  100/100/100 87/87/87 101/101/101
f  94/94/94 101/101/101 87/87/87
f  101/101/101 94/94/94 102/102/102
f  93/93/93 102/102/102 94/94/94
f  102/102/102 93/93/93 103/103/103
f  92/92/92 103/103/103 93/93/93
f  104/104/104 103/103/103 92/92/92
f  105/105/105 103/103/103 104/104/104
f  76/76/76 95/95/95 106/106/106
f  106/106/106 95/95/95 107/107/107
f  107/107/107 95/95/95 108/108/108
f  96/96/96 108/108/108 95/95/95
f  108/108/108 96/96/96 109/109/109
f  97/97/97 109/109/109 96/96/96
f  98/98/98 109/109/109 97/97/97
f  109/109/109 98/98/98 110/110/110
f  110/110/110 98/98/98 111/111/111
f  99/99/99 111/111/111 98/98/98
f  100/100/100 111/111/111 99/99/99
f  111/111/111 100/100/100 112/112/112
f  101/101/101 112/112/112 100/100/100
f  112/112/112 101/101/101 113/113/113
f  102/102/102 113/113/113 101/101/101
f  113/113/113 102/102/102 114/114/114
f  103/103/103 114/114/114 102/102/102
f  114/114/114 103/103/103 105/105/105
f  113/113/113 115/115/115 112/112/112
f  112/112/112 115/115/115 111/111/111
f  116/116/116 111/111/111 115/115/115
f  117/117/117 111/111/111 116/116/116
f  111/111/111 117/117/117 110/110/110
f  110/110/110 117/117/117 109/109/109
f  118/118/118 109/109/109 117/117/117
f  119/119/119 109/109/109 118/118/118
f  109/109/109 119/119/119 108/108/108
f  108/108/108 119/119/119 107/107/107
f  120/120/120 107/107/107 119/119/119
f  113/113/113 121/121/121 115/115/115
f  121/121/121 113/113/113 122/122/122
f  114/114/114 122/122/122 113/113/113
f  105/105/105 122/122/122 114/114/114
f  122/122/122 105/105/105 123/123/123
f  124/124/124 123/123/123 105/105/105
f  123/123/123 124/124/124 125/125/125
f  125/125/125 124/124/124 126/126/126
f  127/127/127 126/126/126 124/124/124
f  126/126/126 127/127/127 128/128/128
f  128/128/128 127/127/127 129/129/129
f  129/129/129 127/127/127 130/130/130
f  131/131/131 130/130/130 127/127/127
f  130/130/130 131/131/131 132/132/132
f  132/132/132 131/131/131 133/133/133
f  134/134/134 133/133/133 131/131/131
f  133/133/133 134/134/134 135/135/135
f  136/136/136 135/135/135 134/134/134
f  120/120/120 128/128/128 107/107/107
f  129/129/129 107/107/107 128/128/128
f  107/107/107 129/129/129 106/106/106
f  130/130/130 106/106/106 129/129/129
f  106/106/106 130/130/130 137/137/137
f  132/132/132 137/137/137 130/130/130
f  137/137/137 132/132/132 138/138/138
f  139/139/139 138/138/138 132/132/132
f  138/138/138 139/139/139 140/140/140
f  141/141/141 140/140/140 139/139/139
f  140/140/140 141/141/141 142/142/142
f  143/143/143 142/142/142 141/141/141
f  142/142/142 143/143/143 144/144/144
f  145/145/145 144/144/144 143/143/143
f  144/144/144 145/145/145 146/146/146
f  147/147/147 146/146/146 145/145/145
f  146/146/146 147/147/147 136/136/136
f  135/135/135 136/136/136 147/147/147
f  106/106/106 137/137/137 76/76/76
f  138/138/138 76/76/76 137/137/137
f  76/76/76 138/138/138 77/77/77
f  140/140/140 77/77/77 138/138/138
f  77/77/77 140/140/140 80/80/80
f  142/142/142 80/80/80 140/140/140
f  80/80/80 142/142/142 89/89/89
f  144/144/144 89/89/89 142/142/142
f  89/89/89 144/144/144 91/91/91
f  146/146/146 91/91/91 144/144/144
f  91/91/91 146/146/146 92/92/92
f  136/136/136 92/92/92 146/146/146
f  92/92/92 136/136/136 104/104/104
f  134/134/134 104/104/104 136/136/136
f  104/104/104 134/134/134 105/105/105
f  105/105/105 134/134/134 124/124/124
f  124/124/124 134/134/134 127/127/127
f  131/131/131 127/127/127 134/134/134
f  145/145/145 143/143/143 148/148/148
f  148/148/148 143/143/143 149/149/149
f  141/141/141 149/149/149 143/143/143
f  149/149/149 141/141/141 150/150/150
f  139/139/139 150/150/150 141/141/141
f  132/132/132 150/150/150 139/139/139
f  133/133/133 150/150/150 132/132/132
f  150/150/150 133/133/133 151/151/151
f  135/135/135 151/151/151 133/133/133
f  151/151/151 135/135/135 152/152/152
f  147/147/147 152/152/152 135/135/135
f  145/145/145 152/152/152 147/147/147
f  152/152/152 145/145/145 153/153/153
f  148/148/148 153/153/153 145/145/145
f  149/149/149 153/153/153 148/148/148
f  153/153/153 149/149/149 152/152/152
f  152/152/152 149/149/149 151/151/151
f  150/150/150 151/151/151 149/149/149

g
