# Noesis .obj export.
#
mtllib B1205.mtl
g
v  0.210091 0.035639 0.168938
v  0.210092 0.141718 0.148994
v  0.136487 0.148879 0.160814
v  0.136487 0.209978 0.084284
v  0.210092 0.198920 0.078325
v  0.149490 0.224348 0.000000
v  0.197089 0.215085 0.000000
v  0.210092 0.198920 -0.078325
v  0.136486 0.035600 0.182426
v  0.210091 -0.057722 0.146384
v  0.136486 -0.064259 0.157986
v  0.210091 -0.126066 0.084765
v  0.136486 -0.137361 0.091213
v  0.210091 -0.151082 0.000001
v  0.136486 -0.164118 0.000001
v  0.136486 -0.137361 -0.091212
v  0.210091 -0.126066 -0.084764
v  0.136486 -0.064259 -0.157985
v  0.210091 -0.057722 -0.146383
v  0.136486 0.035600 -0.182425
v  0.210091 0.035639 -0.168937
v  0.136487 0.148879 -0.160813
v  0.210092 0.141718 -0.148993
v  0.136487 0.209977 -0.084283
v  0.158065 0.237891 -0.019722
v  0.177571 0.237779 -0.027522
v  0.173318 0.219341 0.000000
v  0.199162 0.231014 -0.018555
v  0.207801 0.230521 0.000000
v  0.199162 0.231014 0.018556
v  0.177571 0.237779 0.027523
v  0.158065 0.237891 0.019723
v  0.148318 0.240600 0.000000
v  0.177636 0.235964 0.045977
v  0.199375 0.227309 0.037470
v  0.221819 0.240084 0.048861
v  0.230277 0.221108 0.000096
v  0.199375 0.227309 0.037470
v  0.177636 0.235964 0.045977
v  0.177636 0.254843 0.065466
v  0.155840 0.233843 0.038480
v  0.134750 0.254238 0.051055
v  0.155840 0.233843 0.038480
v  0.177636 0.237916 0.023254
v  0.203595 0.221697 0.000000
v  0.177636 0.226005 0.021342
v  0.177636 0.219662 0.000000
v  0.147903 0.226001 0.000000
v  0.177636 0.226005 -0.021341
v  0.155840 0.233843 -0.038479
v  0.177636 0.235964 -0.045977
v  0.134750 0.254238 -0.051054
v  0.177636 0.254843 -0.065465
v  0.177636 0.235964 -0.045977
v  0.221819 0.240084 -0.048861
v  0.199375 0.227309 -0.037469
v  0.147903 0.226001 0.000000
v  0.118892 0.234286 0.000000
v  0.177636 0.232357 0.000000
v  0.177636 0.237916 -0.023253
v  0.155840 0.233843 -0.038479
v  0.199375 0.227309 -0.037469
v  0.230277 0.221108 -0.000096
v  0.165490 0.245002 -0.014106
v  0.157314 0.246669 0.000000
v  0.179786 0.248987 0.000000
v  0.165490 0.245002 0.014107
v  0.179418 0.243107 0.018874
v  0.194250 0.239224 0.013672
v  0.201012 0.238880 0.000000
v  0.194250 0.239224 -0.013671
v  0.179418 0.243107 -0.018873
v  0.199162 0.231014 -0.018555
v  0.207801 0.230521 0.000000
v  0.199162 0.231014 0.018556
v  0.177571 0.237779 0.027523
v  0.158065 0.237891 0.019723
v  0.148318 0.240600 0.000000
v  0.158065 0.237891 -0.019722
v  0.177571 0.237779 -0.027522
v  0.210091 0.035639 0.168938
v  0.210091 -0.057722 0.146384
v  0.177446 0.037031 0.000001
v  0.210091 -0.126066 0.084765
v  0.210091 -0.151082 0.000001
v  0.210091 -0.126066 -0.084764
v  0.210091 -0.057722 -0.146383
v  0.210091 0.035639 -0.168937
v  0.210092 0.141718 -0.148993
v  0.210092 0.198920 -0.078325
v  0.197089 0.215085 0.000000
v  0.210092 0.198920 0.078325
v  0.210092 0.141718 0.148994
v  0.136486 -0.064259 0.157986
v  0.136486 0.035600 0.182426
v  0.166631 0.037049 0.000001
v  0.136487 0.148879 0.160814
v  0.136487 0.209978 0.084284
v  0.149490 0.224348 0.000000
v  0.136487 0.209977 -0.084283
v  0.136487 0.148879 -0.160813
v  0.136486 0.035600 -0.182425
v  0.136486 -0.064259 -0.157985
v  0.136486 -0.137361 -0.091212
v  0.136486 -0.164118 0.000001
v  0.136486 -0.137361 0.091213
v  0.173314 0.202465 0.098981
v  0.218604 0.203643 0.070255
v  0.173314 0.225099 0.049491
v  0.209005 0.216966 0.035128
v  0.173314 0.221666 0.000000
v  0.199405 0.216488 0.000000
v  0.209005 0.216966 -0.035127
v  0.173314 0.225099 -0.049490
v  0.218604 0.203643 -0.070254
v  0.173314 0.202465 -0.098980
v  0.128023 0.214700 -0.077294
v  0.137623 0.228779 -0.038647
v  0.147222 0.224727 0.000000
v  0.137623 0.228779 0.038647
v  0.128023 0.214700 0.077295

vt  0.171095 -0.520776 0.000000
vt  0.172507 -0.358200 0.000000
vt  0.024814 -0.346117 0.000000
vt  0.096056 -0.154176 0.000000
vt  0.238100 -0.179924 0.000000
vt  0.210797 -0.016410 0.000000
vt  0.298831 -0.041450 0.000000
vt  0.238100 -0.179924 0.000000
vt  0.022053 -0.522286 0.000000
vt  0.178521 -0.665343 0.000000
vt  0.030000 -0.676862 0.000000
vt  0.228084 -0.818928 0.000000
vt  0.083924 -0.842138 0.000000
vt  0.311761 -0.946996 0.000000
vt  0.174012 -0.979762 0.000000
vt  0.083924 -0.842138 0.000000
vt  0.228084 -0.818928 0.000000
vt  0.030000 -0.676862 0.000000
vt  0.178521 -0.665343 0.000000
vt  0.022053 -0.522286 0.000000
vt  0.171095 -0.520776 0.000000
vt  0.024814 -0.346117 0.000000
vt  0.172507 -0.358200 0.000000
vt  0.096056 -0.154176 0.000000
vt  0.967369 -0.721585 0.000000
vt  0.896809 -0.652153 0.000000
vt  0.876080 -0.785734 0.000000
vt  0.793999 -0.656332 0.000000
vt  0.731984 -0.726472 0.000000
vt  0.793999 -0.656332 0.000000
vt  0.896809 -0.652153 0.000000
vt  0.967369 -0.721585 0.000000
vt  0.980549 -0.828699 0.000000
vt  0.705466 -0.305233 0.000000
vt  0.756620 -0.187598 0.000000
vt  0.688125 -0.066142 0.000000
vt  0.981350 -0.020373 0.000000
vt  0.756620 -0.187598 0.000000
vt  0.705466 -0.305233 0.000000
vt  0.588281 -0.305233 0.000000
vt  0.750548 -0.423179 0.000000
vt  0.674934 -0.537304 0.000000
vt  0.750548 -0.423179 0.000000
vt  0.829670 -0.305233 0.000000
vt  0.981350 -0.164758 0.000000
vt  0.830389 -0.305233 0.000000
vt  0.981350 -0.305233 0.000000
vt  0.981350 -0.466132 0.000000
vt  0.830389 -0.305233 0.000000
vt  0.750548 -0.423179 0.000000
vt  0.705466 -0.305233 0.000000
vt  0.674934 -0.537304 0.000000
vt  0.588281 -0.305233 0.000000
vt  0.705466 -0.305233 0.000000
vt  0.688125 -0.066142 0.000000
vt  0.756620 -0.187598 0.000000
vt  0.981350 -0.466132 0.000000
vt  0.981350 -0.623120 0.000000
vt  0.981350 -0.305233 0.000000
vt  0.829670 -0.305233 0.000000
vt  0.750548 -0.423179 0.000000
vt  0.756620 -0.187598 0.000000
vt  0.981350 -0.020373 0.000000
vt  0.672678 -0.888467 0.000000
vt  0.620172 -0.981701 0.000000
vt  0.764494 -0.981702 0.000000
vt  0.672678 -0.888467 0.000000
vt  0.762122 -0.856750 0.000000
vt  0.857377 -0.891366 0.000000
vt  0.900802 -0.981702 0.000000
vt  0.857377 -0.891366 0.000000
vt  0.762122 -0.856750 0.000000
vt  0.918418 -0.837352 0.000000
vt  0.983331 -0.981071 0.000000
vt  0.918418 -0.837352 0.000000
vt  0.756192 -0.767535 0.000000
vt  0.609631 -0.828261 0.000000
vt  0.536392 -0.981069 0.000000
vt  0.609631 -0.828261 0.000000
vt  0.756192 -0.767535 0.000000
vt  0.374196 -0.133431 0.000000
vt  0.292899 -0.176280 0.000000
vt  0.415597 -0.316197 0.000000
vt  0.243784 -0.256574 0.000000
vt  0.240128 -0.353335 0.000000
vt  0.243784 -0.256574 0.000000
vt  0.292899 -0.176280 0.000000
vt  0.374196 -0.133431 0.000000
vt  0.477075 -0.134173 0.000000
vt  0.546365 -0.199557 0.000000
vt  0.576506 -0.281994 0.000000
vt  0.546365 -0.199557 0.000000
vt  0.477075 -0.134173 0.000000
vt  0.292899 -0.176280 0.000000
vt  0.374196 -0.133431 0.000000
vt  0.415597 -0.316197 0.000000
vt  0.477075 -0.134173 0.000000
vt  0.546365 -0.199557 0.000000
vt  0.576506 -0.281994 0.000000
vt  0.546365 -0.199557 0.000000
vt  0.477075 -0.134173 0.000000
vt  0.374196 -0.133431 0.000000
vt  0.292899 -0.176280 0.000000
vt  0.243784 -0.256574 0.000000
vt  0.240128 -0.353335 0.000000
vt  0.243784 -0.256574 0.000000
vt  0.515117 -0.888156 0.000000
vt  0.713863 -0.685239 0.000000
vt  0.458822 -0.623306 0.000000
vt  0.624855 -0.507679 0.000000
vt  0.402637 -0.358970 0.000000
vt  0.535957 -0.330633 0.000000
vt  0.624855 -0.507679 0.000000
vt  0.458822 -0.623306 0.000000
vt  0.713863 -0.685239 0.000000
vt  0.515117 -0.888156 0.000000
vt  0.259027 -0.821288 0.000000
vt  0.264118 -0.604041 0.000000
vt  0.269317 -0.387307 0.000000
vt  0.264118 -0.604041 0.000000
vt  0.259027 -0.821288 0.000000

vn  0.782325 -0.015951 0.622666
vn  0.753439 0.337011 0.564582
vn  -0.615865 0.405286 0.675613
vn  -0.660451 0.699763 0.272280
vn  0.783096 0.582332 0.218290
vn  -0.588786 0.808289 -0.000001
vn  0.734643 0.678454 -0.000000
vn  0.783096 0.582331 -0.218290
vn  -0.649932 -0.018609 0.759764
vn  0.773459 -0.294615 0.561215
vn  -0.642033 -0.358824 0.677524
vn  0.764742 -0.544805 0.344031
vn  -0.636059 -0.654260 0.409113
vn  0.761237 -0.648474 0.000001
vn  -0.631983 -0.774982 0.000000
vn  -0.636059 -0.654260 -0.409112
vn  0.764742 -0.544805 -0.344030
vn  -0.642033 -0.358825 -0.677523
vn  0.773460 -0.294616 -0.561214
vn  -0.649932 -0.018610 -0.759764
vn  0.782326 -0.015951 -0.622665
vn  -0.615865 0.405286 -0.675614
vn  0.753439 0.337010 -0.564583
vn  -0.660451 0.699762 -0.272281
vn  -0.666179 -0.022678 -0.745447
vn  -0.019096 0.067902 -0.997509
vn  -0.195359 -0.980732 0.000001
vn  0.660127 -0.255579 -0.706337
vn  0.970173 -0.242412 0.000000
vn  0.660127 -0.255578 0.706337
vn  -0.019096 0.067903 0.997509
vn  -0.666180 -0.022677 0.745447
vn  -0.995170 0.098170 -0.000000
vn  -0.103856 -0.797486 0.594331
vn  0.028253 -0.890384 0.454332
vn  -0.290065 0.459754 -0.839338
vn  0.009522 0.962895 0.269710
vn  0.087654 0.918000 -0.386773
vn  0.118936 0.887549 -0.445096
vn  0.048718 0.751350 -0.658104
vn  -0.240274 -0.837497 0.490782
vn  -0.670482 -0.441704 0.596113
vn  0.134519 0.897736 -0.419492
vn  0.109726 0.990435 -0.083653
vn  0.961078 -0.276276 0.000000
vn  -0.103711 -0.957449 0.269324
vn  -0.064217 -0.997936 0.000001
vn  -0.972677 -0.126131 -0.194913
vn  -0.103711 -0.957449 -0.269323
vn  -0.240274 -0.837498 -0.490781
vn  -0.103856 -0.797487 -0.594330
vn  -0.407842 0.091709 -0.908435
vn  0.566558 0.780133 0.265340
vn  0.118936 0.887550 0.445094
vn  -0.090990 -0.501555 0.860328
vn  0.028253 -0.890385 -0.454331
vn  -0.972677 -0.126131 0.194913
vn  -0.322737 -0.928731 -0.182482
vn  0.093575 0.995612 -0.000000
vn  0.109726 0.990436 0.083652
vn  0.134519 0.897737 0.419491
vn  0.087653 0.918000 0.386772
vn  -0.638606 -0.740878 0.208042
vn  -0.213039 0.873521 -0.437694
vn  -0.401499 0.915860 -0.000001
vn  0.174129 0.984723 -0.000001
vn  -0.213040 0.873521 0.437693
vn  0.150774 0.874872 0.460290
vn  0.515914 0.760927 0.393476
vn  0.656187 0.754599 -0.000000
vn  0.515914 0.760926 -0.393477
vn  0.150773 0.874871 -0.460291
vn  0.660127 -0.255579 -0.706337
vn  0.970173 -0.242412 0.000000
vn  0.660127 -0.255578 0.706337
vn  -0.019096 0.067903 0.997509
vn  -0.666180 -0.022677 0.745447
vn  -0.995170 0.098170 -0.000000
vn  -0.666179 -0.022678 -0.745447
vn  -0.019096 0.067902 -0.997509
vn  0.782325 -0.015951 0.622666
vn  0.773459 -0.294615 0.561215
vn  0.999958 0.009173 0.000000
vn  0.764742 -0.544805 0.344031
vn  0.761237 -0.648474 0.000001
vn  0.764742 -0.544805 -0.344030
vn  0.773460 -0.294616 -0.561214
vn  0.782326 -0.015951 -0.622665
vn  0.753439 0.337010 -0.564583
vn  0.783096 0.582331 -0.218290
vn  0.734643 0.678454 -0.000000
vn  0.783096 0.582332 0.218290
vn  0.753439 0.337011 0.564582
vn  -0.642033 -0.358824 0.677524
vn  -0.649932 -0.018609 0.759764
vn  -0.999964 0.008494 -0.000000
vn  -0.615865 0.405286 0.675613
vn  -0.660451 0.699763 0.272280
vn  -0.588786 0.808289 -0.000001
vn  -0.660451 0.699762 -0.272281
vn  -0.615865 0.405286 -0.675614
vn  -0.649932 -0.018610 -0.759764
vn  -0.642033 -0.358825 -0.677523
vn  -0.636059 -0.654260 -0.409112
vn  -0.631983 -0.774982 0.000000
vn  -0.636059 -0.654260 0.409113
vn  0.139805 0.900476 0.411823
vn  0.268927 0.899906 0.343291
vn  0.153404 0.968623 0.195544
vn  0.255382 0.962601 0.090442
vn  0.157930 0.987450 -0.000001
vn  0.194660 0.980871 -0.000000
vn  0.255382 0.962601 -0.090444
vn  0.153404 0.968622 -0.195545
vn  0.268926 0.899905 -0.343292
vn  0.139805 0.900475 -0.411824
vn  0.024553 0.922579 -0.385027
vn  0.061089 0.989619 -0.130086
vn  0.116516 0.993189 -0.000001
vn  0.061089 0.989619 0.130085
vn  0.024553 0.922579 0.385026

g B1110
usemtl mesh1material
f  1/1/1 2/2/2 3/3/3
f  3/3/3 2/2/2 4/4/4
f  5/5/5 4/4/4 2/2/2
f  4/4/4 5/5/5 6/6/6
f  7/7/7 6/6/6 5/5/5
f  6/6/6 7/7/7 8/8/8
f  9/9/9 1/1/1 3/3/3
f  1/1/1 9/9/9 10/10/10
f  11/11/11 10/10/10 9/9/9
f  10/10/10 11/11/11 12/12/12
f  13/13/13 12/12/12 11/11/11
f  12/12/12 13/13/13 14/14/14
f  15/15/15 14/14/14 13/13/13
f  16/16/16 14/14/14 15/15/15
f  14/14/14 16/16/16 17/17/17
f  18/18/18 17/17/17 16/16/16
f  17/17/17 18/18/18 19/19/19
f  20/20/20 19/19/19 18/18/18
f  19/19/19 20/20/20 21/21/21
f  22/22/22 21/21/21 20/20/20
f  21/21/21 22/22/22 23/23/23
f  24/24/24 23/23/23 22/22/22
f  23/23/23 24/24/24 8/8/8
f  6/6/6 8/8/8 24/24/24
f  25/25/25 26/26/26 27/27/27
f  28/28/28 27/27/27 26/26/26
f  29/29/29 27/27/27 28/28/28
f  30/30/30 27/27/27 29/29/29
f  31/31/31 27/27/27 30/30/30
f  32/32/32 27/27/27 31/31/31
f  33/33/33 27/27/27 32/32/32
f  27/27/27 33/33/33 25/25/25
f  34/34/34 35/35/35 36/36/36
f  37/37/37 36/36/36 35/35/35
f  38/38/38 36/36/36 37/37/37
f  39/39/39 36/36/36 38/38/38
f  40/40/40 36/36/36 39/39/39
f  36/36/36 40/40/40 34/34/34
f  41/41/41 34/34/34 42/42/42
f  40/40/40 42/42/42 34/34/34
f  39/39/39 42/42/42 40/40/40
f  42/42/42 39/39/39 43/43/43
f  43/43/43 39/39/39 44/44/44
f  38/38/38 44/44/44 39/39/39
f  44/44/44 38/38/38 45/45/45
f  37/37/37 45/45/45 38/38/38
f  35/35/35 45/45/45 37/37/37
f  45/45/45 35/35/35 46/46/46
f  34/34/34 46/46/46 35/35/35
f  46/46/46 34/34/34 41/41/41
f  47/47/47 48/48/48 49/49/49
f  50/50/50 49/49/49 48/48/48
f  49/49/49 50/50/50 51/51/51
f  52/52/52 51/51/51 50/50/50
f  51/51/51 52/52/52 53/53/53
f  54/54/54 53/53/53 52/52/52
f  55/55/55 53/53/53 54/54/54
f  53/53/53 55/55/55 51/51/51
f  56/56/56 51/51/51 55/55/55
f  51/51/51 56/56/56 49/49/49
f  45/45/45 49/49/49 56/56/56
f  49/49/49 45/45/45 47/47/47
f  46/46/46 47/47/47 45/45/45
f  47/47/47 46/46/46 57/57/57
f  41/41/41 57/57/57 46/46/46
f  57/57/57 41/41/41 58/58/58
f  42/42/42 58/58/58 41/41/41
f  58/58/58 42/42/42 43/43/43
f  58/58/58 43/43/43 57/57/57
f  44/44/44 57/57/57 43/43/43
f  57/57/57 44/44/44 59/59/59
f  45/45/45 59/59/59 44/44/44
f  60/60/60 59/59/59 45/45/45
f  59/59/59 60/60/60 48/48/48
f  48/48/48 60/60/60 61/61/61
f  54/54/54 61/61/61 60/60/60
f  52/52/52 61/61/61 54/54/54
f  61/61/61 52/52/52 58/58/58
f  50/50/50 58/58/58 52/52/52
f  48/48/48 58/58/58 50/50/50
f  58/58/58 48/48/48 61/61/61
f  54/54/54 60/60/60 62/62/62
f  45/45/45 62/62/62 60/60/60
f  62/62/62 45/45/45 63/63/63
f  56/56/56 63/63/63 45/45/45
f  55/55/55 63/63/63 56/56/56
f  63/63/63 55/55/55 62/62/62
f  54/54/54 62/62/62 55/55/55
f  64/64/64 65/65/65 66/66/66
f  67/67/67 66/66/66 65/65/65
f  68/68/68 66/66/66 67/67/67
f  69/69/69 66/66/66 68/68/68
f  70/70/70 66/66/66 69/69/69
f  71/71/71 66/66/66 70/70/70
f  72/72/72 66/66/66 71/71/71
f  66/66/66 72/72/72 64/64/64
f  73/73/73 71/71/71 74/74/74
f  70/70/70 74/74/74 71/71/71
f  69/69/69 74/74/74 70/70/70
f  74/74/74 69/69/69 75/75/75
f  75/75/75 69/69/69 76/76/76
f  68/68/68 76/76/76 69/69/69
f  76/76/76 68/68/68 77/77/77
f  67/67/67 77/77/77 68/68/68
f  77/77/77 67/67/67 78/78/78
f  65/65/65 78/78/78 67/67/67
f  64/64/64 78/78/78 65/65/65
f  78/78/78 64/64/64 79/79/79
f  72/72/72 79/79/79 64/64/64
f  79/79/79 72/72/72 80/80/80
f  71/71/71 80/80/80 72/72/72
f  80/80/80 71/71/71 73/73/73
f  81/81/81 82/82/82 83/83/83
f  84/84/84 83/83/83 82/82/82
f  85/85/85 83/83/83 84/84/84
f  86/86/86 83/83/83 85/85/85
f  87/87/87 83/83/83 86/86/86
f  88/88/88 83/83/83 87/87/87
f  89/89/89 83/83/83 88/88/88
f  90/90/90 83/83/83 89/89/89
f  91/91/91 83/83/83 90/90/90
f  92/92/92 83/83/83 91/91/91
f  93/93/93 83/83/83 92/92/92
f  83/83/83 93/93/93 81/81/81
f  94/94/94 95/95/95 96/96/96
f  97/97/97 96/96/96 95/95/95
f  98/98/98 96/96/96 97/97/97
f  99/99/99 96/96/96 98/98/98
f  100/100/100 96/96/96 99/99/99
f  101/101/101 96/96/96 100/100/100
f  102/102/102 96/96/96 101/101/101
f  103/103/103 96/96/96 102/102/102
f  104/104/104 96/96/96 103/103/103
f  105/105/105 96/96/96 104/104/104
f  106/106/106 96/96/96 105/105/105
f  96/96/96 106/106/106 94/94/94
f  107/107/107 108/108/108 109/109/109
f  110/110/110 109/109/109 108/108/108
f  109/109/109 110/110/110 111/111/111
f  112/112/112 111/111/111 110/110/110
f  113/113/113 111/111/111 112/112/112
f  111/111/111 113/113/113 114/114/114
f  115/115/115 114/114/114 113/113/113
f  116/116/116 114/114/114 115/115/115
f  117/117/117 114/114/114 116/116/116
f  118/118/118 114/114/114 117/117/117
f  114/114/114 118/118/118 111/111/111
f  119/119/119 111/111/111 118/118/118
f  120/120/120 111/111/111 119/119/119
f  111/111/111 120/120/120 109/109/109
f  121/121/121 109/109/109 120/120/120
f  109/109/109 121/121/121 107/107/107

g
