# Noesis .obj export.
#
mtllib b1202.mtl
g
v  0.371406 0.177811 0.105567
v  0.323676 0.116125 0.063440
v  0.313063 0.126318 0.080317
v  0.430303 0.262215 0.139418
v  0.438674 0.212414 0.102590
v  0.421465 0.212876 0.109001
v  0.379435 0.167691 0.095976
v  0.331132 0.104078 0.058021
v  0.386412 0.153218 0.095121
v  0.334232 0.082970 0.077830
v  0.390881 0.135180 0.112761
v  0.389184 0.119492 0.137634
v  0.458807 0.168070 0.170318
v  0.383671 0.108335 0.168414
v  0.464275 0.145406 0.209572
v  0.374667 0.104389 0.193213
v  0.329174 0.065254 0.114217
v  0.321606 0.064639 0.137195
v  0.441236 0.223140 0.202153
v  0.468529 0.187581 0.129611
v  0.440245 0.260357 0.158074
v  0.463018 0.201017 0.111531
v  0.337730 0.065738 0.089699
v  0.314211 0.076933 0.142115
v  0.366639 0.114510 0.202804
v  0.454670 0.138179 0.231423
v  0.435379 0.203270 0.267098
v  0.329055 0.218003 0.266240
v  0.320728 0.234526 0.226796
v  0.218156 0.267534 0.271568
v  0.223974 0.286141 0.256582
v  0.209190 0.296747 0.261635
v  0.217240 0.302548 0.232544
v  0.206563 0.299936 0.226543
v  0.315239 0.259576 0.172763
v  0.307391 0.250304 0.175435
v  0.410617 0.250204 0.142620
v  0.431439 0.133927 0.245788
v  0.414616 0.186231 0.270256
v  0.319787 0.206533 0.266658
v  0.208415 0.260172 0.273058
v  0.193823 0.292223 0.257993
v  0.199061 0.296459 0.226399
v  0.324999 0.261920 0.185717
v  0.304766 0.214432 -0.210990
v  0.196525 0.290570 -0.231175
v  0.195099 0.279065 -0.246511
v  0.314211 0.076933 -0.142052
v  0.306090 0.097444 -0.138217
v  0.359431 0.133386 -0.198491
v  0.320399 0.094143 -0.101701
v  0.367113 0.149749 -0.154952
v  0.368011 0.174542 -0.119510
v  0.421136 0.179491 -0.171681
v  0.406703 0.203462 -0.124409
v  0.413387 0.212773 -0.193949
v  0.400953 0.234822 -0.151318
v  0.304164 0.236119 -0.177883
v  0.199061 0.296459 -0.226336
v  0.193823 0.292223 -0.257930
v  0.199124 0.259210 -0.262185
v  0.313353 0.197029 -0.255803
v  0.401199 0.177094 -0.250995
v  0.307391 0.250304 -0.175372
v  0.410617 0.250204 -0.142557
v  0.421465 0.212876 -0.108938
v  0.371407 0.177811 -0.105504
v  0.313064 0.126318 -0.080254
v  0.405697 0.141874 -0.237651
v  0.319787 0.206533 -0.266595
v  0.414616 0.186231 -0.270193
v  0.431440 0.133927 -0.245725
v  0.366639 0.114510 -0.202741
v  0.208415 0.260171 -0.272995
v  0.195098 0.279065 0.246574
v  0.196525 0.290570 0.231238
v  0.304766 0.214432 0.211053
v  0.304164 0.236119 0.177945
v  0.431439 0.133927 0.245788
v  0.414616 0.186231 0.270256
v  0.405697 0.141874 0.237714
v  0.401199 0.177094 0.251058
v  0.413387 0.212774 0.194012
v  0.400953 0.234822 0.151381
v  0.307391 0.250304 0.175435
v  0.199061 0.296459 0.226399
v  0.193823 0.292223 0.257993
v  0.199124 0.259210 0.262248
v  0.313353 0.197030 0.255866
v  0.319787 0.206533 0.266658
v  0.208415 0.260172 0.273058
v  0.406703 0.203462 0.124472
v  0.421136 0.179491 0.171744
v  0.359431 0.133386 0.198554
v  0.367113 0.149750 0.155015
v  0.320399 0.094144 0.101764
v  0.368011 0.174543 0.119573
v  0.313063 0.126318 0.080317
v  0.371406 0.177811 0.105567
v  0.421465 0.212876 0.109001
v  0.410617 0.250204 0.142620
v  0.306090 0.097444 0.138280
v  0.314211 0.076933 0.142115
v  0.366639 0.114510 0.202804
v  0.440245 0.260357 -0.158011
v  0.441236 0.223139 -0.202090
v  0.324999 0.261919 -0.185654
v  0.320728 0.234526 -0.226734
v  0.217240 0.302548 -0.232481
v  0.223974 0.286141 -0.256519
v  0.366639 0.114510 -0.202741
v  0.454670 0.138178 -0.231360
v  0.374667 0.104389 -0.193149
v  0.464276 0.145405 -0.209509
v  0.435379 0.203270 -0.267035
v  0.329055 0.218002 -0.266177
v  0.218156 0.267533 -0.271505
v  0.209190 0.296747 -0.261572
v  0.206563 0.299935 -0.226480
v  0.315239 0.259576 -0.172700
v  0.430303 0.262215 -0.139356
v  0.438675 0.212414 -0.102527
v  0.431440 0.133927 -0.245725
v  0.414616 0.186231 -0.270193
v  0.319787 0.206533 -0.266595
v  0.208415 0.260171 -0.272995
v  0.193823 0.292223 -0.257930
v  0.199061 0.296459 -0.226336
v  0.307391 0.250304 -0.175372
v  0.410617 0.250204 -0.142557
v  0.421465 0.212876 -0.108938
v  0.371407 0.177811 -0.105504
v  0.313064 0.126318 -0.080254
v  0.323676 0.116125 -0.063377
v  0.379435 0.167691 -0.095913
v  0.463019 0.201017 -0.111468
v  0.468529 0.187580 -0.129548
v  0.458807 0.168069 -0.170254
v  0.383671 0.108335 -0.168351
v  0.329174 0.065253 -0.114154
v  0.321606 0.064639 -0.137132
v  0.314211 0.076933 -0.142052
v  0.331132 0.104078 -0.057958
v  0.386412 0.153218 -0.095058
v  0.390881 0.135179 -0.112698
v  0.389185 0.119492 -0.137571
v  0.337730 0.065738 -0.089636
v  0.334232 0.082970 -0.077767

vt  0.436899 -0.769002 0.000000
vt  0.498947 -0.993406 0.000000
vt  0.461448 -0.993406 0.000000
vt  0.482360 -0.509061 0.000000
vt  0.472024 -0.622241 0.000000
vt  0.437686 -0.607117 0.000000
vt  0.479264 -0.766827 0.000000
vt  0.529279 -0.993406 0.000000
vt  0.525290 -0.764912 0.000000
vt  0.583415 -0.993406 0.000000
vt  0.576867 -0.764912 0.000000
vt  0.630741 -0.764912 0.000000
vt  0.630741 -0.617578 0.000000
vt  0.692975 -0.764912 0.000000
vt  0.707923 -0.617578 0.000000
vt  0.765721 -0.764912 0.000000
vt  0.693366 -0.993406 0.000000
vt  0.768793 -0.993406 0.000000
vt  0.630741 -0.495833 0.000000
vt  0.563105 -0.617578 0.000000
vt  0.532289 -0.494092 0.000000
vt  0.524846 -0.618323 0.000000
vt  0.630741 -0.993406 0.000000
vt  0.823264 -0.993406 0.000000
vt  0.815224 -0.764912 0.000000
vt  0.768989 -0.617578 0.000000
vt  0.737904 -0.495833 0.000000
vt  0.722636 -0.316550 0.000000
vt  0.630741 -0.316550 0.000000
vt  0.665824 -0.039749 0.000000
vt  0.630741 -0.032690 0.000000
vt  0.630741 -0.015604 0.000000
vt  0.594756 -0.043132 0.000000
vt  0.574309 -0.039738 0.000000
vt  0.473557 -0.335782 0.000000
vt  0.429427 -0.356233 0.000000
vt  0.441564 -0.506885 0.000000
vt  0.807051 -0.617578 0.000000
vt  0.783882 -0.495833 0.000000
vt  0.766860 -0.316550 0.000000
vt  0.679179 -0.030795 0.000000
vt  0.630967 -0.006519 0.000000
vt  0.550696 -0.037529 0.000000
vt  0.549912 -0.315419 0.000000
vt  0.923162 -0.317153 0.000000
vt  0.944946 -0.047840 0.000000
vt  0.932826 -0.033325 0.000000
vt  0.862852 -0.993151 0.000000
vt  0.883204 -0.993151 0.000000
vt  0.863308 -0.765279 0.000000
vt  0.922444 -0.993151 0.000000
vt  0.917610 -0.765279 0.000000
vt  0.966717 -0.765279 0.000000
vt  0.914305 -0.617523 0.000000
vt  0.973230 -0.617523 0.000000
vt  0.917208 -0.495722 0.000000
vt  0.969406 -0.495722 0.000000
vt  0.951202 -0.317153 0.000000
vt  0.951695 -0.039607 0.000000
vt  0.931269 -0.011686 0.000000
vt  0.911972 -0.042000 0.000000
vt  0.870339 -0.317153 0.000000
vt  0.848794 -0.495722 0.000000
vt  0.964886 -0.317153 0.000000
vt  0.985836 -0.495722 0.000000
vt  0.993189 -0.617523 0.000000
vt  0.986457 -0.765279 0.000000
vt  0.963866 -0.993151 0.000000
vt  0.844527 -0.617523 0.000000
vt  0.851391 -0.317153 0.000000
vt  0.822840 -0.495722 0.000000
vt  0.817096 -0.617523 0.000000
vt  0.837985 -0.765279 0.000000
vt  0.898411 -0.033382 0.000000
vt  0.932826 -0.033325 0.000000
vt  0.944946 -0.047840 0.000000
vt  0.923162 -0.317153 0.000000
vt  0.951202 -0.317153 0.000000
vt  0.817096 -0.617523 0.000000
vt  0.822840 -0.495722 0.000000
vt  0.844527 -0.617523 0.000000
vt  0.848794 -0.495722 0.000000
vt  0.917208 -0.495722 0.000000
vt  0.969406 -0.495722 0.000000
vt  0.964886 -0.317153 0.000000
vt  0.951695 -0.039607 0.000000
vt  0.931269 -0.011686 0.000000
vt  0.911972 -0.042000 0.000000
vt  0.870339 -0.317153 0.000000
vt  0.851391 -0.317153 0.000000
vt  0.898411 -0.033382 0.000000
vt  0.973230 -0.617523 0.000000
vt  0.914305 -0.617523 0.000000
vt  0.863308 -0.765279 0.000000
vt  0.917610 -0.765279 0.000000
vt  0.922444 -0.993151 0.000000
vt  0.966717 -0.765279 0.000000
vt  0.963866 -0.993151 0.000000
vt  0.986457 -0.765279 0.000000
vt  0.993189 -0.617523 0.000000
vt  0.985836 -0.495722 0.000000
vt  0.883204 -0.993151 0.000000
vt  0.862852 -0.993151 0.000000
vt  0.837985 -0.765279 0.000000
vt  0.532289 -0.494092 0.000000
vt  0.630741 -0.495833 0.000000
vt  0.549912 -0.315419 0.000000
vt  0.630741 -0.316550 0.000000
vt  0.594756 -0.043132 0.000000
vt  0.630741 -0.032690 0.000000
vt  0.815224 -0.764912 0.000000
vt  0.768989 -0.617578 0.000000
vt  0.765721 -0.764912 0.000000
vt  0.707923 -0.617578 0.000000
vt  0.737904 -0.495833 0.000000
vt  0.722636 -0.316550 0.000000
vt  0.665824 -0.039749 0.000000
vt  0.630741 -0.015604 0.000000
vt  0.574309 -0.039738 0.000000
vt  0.473557 -0.335782 0.000000
vt  0.482360 -0.509061 0.000000
vt  0.472024 -0.622241 0.000000
vt  0.807051 -0.617578 0.000000
vt  0.783882 -0.495833 0.000000
vt  0.766860 -0.316550 0.000000
vt  0.679179 -0.030795 0.000000
vt  0.630967 -0.006519 0.000000
vt  0.550696 -0.037529 0.000000
vt  0.429427 -0.356233 0.000000
vt  0.441564 -0.506885 0.000000
vt  0.437686 -0.607117 0.000000
vt  0.436899 -0.769002 0.000000
vt  0.461448 -0.993406 0.000000
vt  0.498947 -0.993406 0.000000
vt  0.479264 -0.766827 0.000000
vt  0.524846 -0.618323 0.000000
vt  0.563105 -0.617578 0.000000
vt  0.630741 -0.617578 0.000000
vt  0.692975 -0.764912 0.000000
vt  0.693366 -0.993406 0.000000
vt  0.768793 -0.993406 0.000000
vt  0.823264 -0.993406 0.000000
vt  0.529279 -0.993406 0.000000
vt  0.525290 -0.764912 0.000000
vt  0.576867 -0.764912 0.000000
vt  0.630741 -0.764912 0.000000
vt  0.630741 -0.993406 0.000000
vt  0.583415 -0.993406 0.000000

vn  -0.505247 0.769185 -0.391255
vn  -0.075193 0.570801 -0.817638
vn  -0.722567 0.691251 -0.008326
vn  0.228399 0.824335 -0.517982
vn  0.195272 0.355695 -0.913975
vn  -0.460769 0.542466 -0.702440
vn  0.002543 0.401620 -0.915803
vn  0.557483 -0.049020 -0.828740
vn  0.487864 -0.154263 -0.859181
vn  0.760798 -0.353117 -0.544514
vn  0.664880 -0.570228 -0.482468
vn  0.683953 -0.687725 -0.243399
vn  0.938857 -0.326397 -0.109600
vn  0.576382 -0.814001 -0.072020
vn  0.920599 -0.389125 -0.032850
vn  0.180342 -0.882677 0.434002
vn  0.589985 -0.796503 0.132290
vn  0.170059 -0.885606 0.432183
vn  0.688560 0.620636 0.375095
vn  0.942703 -0.267578 -0.199284
vn  0.598387 0.784891 0.160868
vn  0.769609 0.059876 -0.635702
vn  0.800846 -0.544769 -0.248741
vn  -0.570787 -0.375604 0.730153
vn  -0.421294 -0.426207 0.800537
vn  0.709844 -0.588766 0.386621
vn  0.541887 0.431225 0.721390
vn  0.150393 0.551487 0.820515
vn  0.330305 0.833896 0.442173
vn  0.196170 0.324662 0.925263
vn  0.555983 0.607056 0.567773
vn  0.069148 0.769058 0.635428
vn  0.159507 0.987194 -0.002442
vn  -0.257112 0.859942 -0.440902
vn  -0.183900 0.570452 -0.800478
vn  -0.365701 -0.024779 -0.930403
vn  -0.470914 0.227233 -0.852411
vn  0.147739 -0.727293 0.670238
vn  -0.018952 -0.281280 0.959439
vn  -0.102294 -0.392017 0.914253
vn  -0.389722 -0.276280 0.878514
vn  -0.781007 0.469644 0.411657
vn  -0.698389 0.429342 -0.572641
vn  0.201990 0.961568 0.185975
vn  -0.354717 -0.834990 0.420675
vn  -0.880102 -0.185322 0.437122
vn  -0.884384 -0.362501 0.294037
vn  -0.570786 -0.375605 -0.730153
vn  -0.726858 0.633358 -0.265583
vn  -0.720223 0.425907 -0.547615
vn  -0.738676 0.610645 -0.285429
vn  -0.700135 0.663556 -0.263637
vn  -0.685190 0.676936 -0.268833
vn  -0.929609 0.313447 -0.193850
vn  -0.844056 0.536165 0.009826
vn  -0.705582 -0.625756 0.332542
vn  -0.696347 -0.381684 0.607798
vn  -0.391582 -0.506384 0.768270
vn  -0.698390 0.429342 0.572640
vn  -0.781008 0.469642 -0.411658
vn  -0.817827 -0.564617 -0.111205
vn  -0.315684 -0.919449 -0.234428
vn  -0.683429 -0.694700 -0.224316
vn  -0.365701 -0.024778 0.930402
vn  -0.470915 0.227235 0.852411
vn  -0.460770 0.542467 0.702439
vn  -0.505247 0.769185 0.391254
vn  -0.722567 0.691251 0.008325
vn  -0.740248 -0.313616 -0.594709
vn  -0.102293 -0.392018 -0.914253
vn  -0.018952 -0.281281 -0.959438
vn  0.147740 -0.727294 -0.670237
vn  -0.421294 -0.426208 -0.800536
vn  -0.389721 -0.276281 -0.878514
vn  -0.884384 -0.362501 -0.294036
vn  -0.880102 -0.185325 -0.437121
vn  -0.354717 -0.834991 -0.420674
vn  -0.391581 -0.506386 -0.768269
vn  0.147739 -0.727293 0.670238
vn  -0.018952 -0.281280 0.959439
vn  -0.740248 -0.313615 0.594709
vn  -0.683430 -0.694699 0.224314
vn  -0.705582 -0.625756 -0.332542
vn  -0.696347 -0.381684 -0.607798
vn  -0.365701 -0.024779 -0.930403
vn  -0.698389 0.429342 -0.572641
vn  -0.781007 0.469644 0.411657
vn  -0.817827 -0.564617 0.111205
vn  -0.315684 -0.919449 0.234430
vn  -0.102294 -0.392017 0.914253
vn  -0.389722 -0.276280 0.878514
vn  -0.844056 0.536165 -0.009826
vn  -0.929609 0.313447 0.193850
vn  -0.720224 0.425907 0.547614
vn  -0.700135 0.663557 0.263636
vn  -0.738677 0.610646 0.285428
vn  -0.685191 0.676936 0.268833
vn  -0.722567 0.691251 -0.008326
vn  -0.505247 0.769185 -0.391255
vn  -0.460769 0.542466 -0.702440
vn  -0.470914 0.227233 -0.852411
vn  -0.726859 0.633358 0.265583
vn  -0.570787 -0.375604 0.730153
vn  -0.421294 -0.426207 0.800537
vn  0.598388 0.784891 -0.160869
vn  0.688561 0.620635 -0.375096
vn  0.201991 0.961568 -0.185976
vn  0.330305 0.833895 -0.442174
vn  0.159508 0.987194 0.002443
vn  0.555984 0.607055 -0.567774
vn  -0.421294 -0.426208 -0.800536
vn  0.709844 -0.588767 -0.386620
vn  0.180341 -0.882678 -0.434001
vn  0.920599 -0.389125 0.032851
vn  0.541887 0.431224 -0.721391
vn  0.150394 0.551487 -0.820514
vn  0.196173 0.324661 -0.925263
vn  0.069149 0.769058 -0.635428
vn  -0.257114 0.859941 0.440901
vn  -0.183900 0.570452 0.800478
vn  0.228400 0.824336 0.517980
vn  0.195272 0.355697 0.913974
vn  0.147740 -0.727294 -0.670237
vn  -0.018952 -0.281281 -0.959438
vn  -0.102293 -0.392018 -0.914253
vn  -0.389721 -0.276281 -0.878514
vn  -0.781008 0.469642 -0.411658
vn  -0.698390 0.429342 0.572640
vn  -0.365701 -0.024778 0.930402
vn  -0.470915 0.227235 0.852411
vn  -0.460770 0.542467 0.702439
vn  -0.505247 0.769185 0.391254
vn  -0.722567 0.691251 0.008325
vn  -0.075193 0.570801 0.817638
vn  0.002543 0.401621 0.915802
vn  0.769609 0.059877 0.635702
vn  0.942703 -0.267578 0.199285
vn  0.938857 -0.326397 0.109601
vn  0.576382 -0.814001 0.072021
vn  0.589985 -0.796503 -0.132289
vn  0.170059 -0.885607 -0.432181
vn  -0.570786 -0.375605 -0.730153
vn  0.557482 -0.049019 0.828740
vn  0.487863 -0.154262 0.859181
vn  0.664880 -0.570227 0.482469
vn  0.683953 -0.687725 0.243400
vn  0.800846 -0.544770 0.248742
vn  0.760797 -0.353116 0.544515

g B1202
usemtl mesh1material
f  1/1/1 2/2/2 3/3/3
f  4/4/4 5/5/5 6/6/6
f  6/6/6 5/5/5 1/1/1
f  7/7/7 1/1/1 5/5/5
f  1/1/1 7/7/7 2/2/2
f  2/2/2 7/7/7 8/8/8
f  9/9/9 8/8/8 7/7/7
f  8/8/8 9/9/9 10/10/10
f  11/11/11 10/10/10 9/9/9
f  10/10/10 11/11/11 12/12/12
f  13/13/13 12/12/12 11/11/11
f  12/12/12 13/13/13 14/14/14
f  15/15/15 14/14/14 13/13/13
f  16/16/16 14/14/14 15/15/15
f  14/14/14 16/16/16 17/17/17
f  18/18/18 17/17/17 16/16/16
f  15/15/15 13/13/13 19/19/19
f  20/20/20 19/19/19 13/13/13
f  19/19/19 20/20/20 21/21/21
f  22/22/22 21/21/21 20/20/20
f  21/21/21 22/22/22 5/5/5
f  5/5/5 22/22/22 7/7/7
f  7/7/7 22/22/22 9/9/9
f  20/20/20 9/9/9 22/22/22
f  9/9/9 20/20/20 11/11/11
f  13/13/13 11/11/11 20/20/20
f  14/14/14 17/17/17 12/12/12
f  23/23/23 12/12/12 17/17/17
f  12/12/12 23/23/23 10/10/10
f  24/24/24 18/18/18 25/25/25
f  16/16/16 25/25/25 18/18/18
f  25/25/25 16/16/16 26/26/26
f  15/15/15 26/26/26 16/16/16
f  26/26/26 15/15/15 27/27/27
f  19/19/19 27/27/27 15/15/15
f  27/27/27 19/19/19 28/28/28
f  29/29/29 28/28/28 19/19/19
f  28/28/28 29/29/29 30/30/30
f  31/31/31 30/30/30 29/29/29
f  30/30/30 31/31/31 32/32/32
f  33/33/33 32/32/32 31/31/31
f  32/32/32 33/33/33 34/34/34
f  35/35/35 34/34/34 33/33/33
f  34/34/34 35/35/35 36/36/36
f  36/36/36 35/35/35 37/37/37
f  4/4/4 37/37/37 35/35/35
f  37/37/37 4/4/4 6/6/6
f  25/25/25 26/26/26 38/38/38
f  27/27/27 38/38/38 26/26/26
f  38/38/38 27/27/27 39/39/39
f  28/28/28 39/39/39 27/27/27
f  39/39/39 28/28/28 40/40/40
f  30/30/30 40/40/40 28/28/28
f  40/40/40 30/30/30 41/41/41
f  32/32/32 41/41/41 30/30/30
f  41/41/41 32/32/32 42/42/42
f  34/34/34 42/42/42 32/32/32
f  42/42/42 34/34/34 43/43/43
f  36/36/36 43/43/43 34/34/34
f  31/31/31 29/29/29 33/33/33
f  44/44/44 33/33/33 29/29/29
f  33/33/33 44/44/44 35/35/35
f  35/35/35 44/44/44 4/4/4
f  21/21/21 4/4/4 44/44/44
f  4/4/4 21/21/21 5/5/5
f  21/21/21 44/44/44 19/19/19
f  29/29/29 19/19/19 44/44/44
f  45/45/45 46/46/46 47/47/47
f  48/48/48 49/49/49 50/50/50
f  51/51/51 50/50/50 49/49/49
f  50/50/50 51/51/51 52/52/52
f  53/53/53 52/52/52 51/51/51
f  52/52/52 53/53/53 54/54/54
f  55/55/55 54/54/54 53/53/53
f  54/54/54 55/55/55 56/56/56
f  57/57/57 56/56/56 55/55/55
f  56/56/56 57/57/57 45/45/45
f  58/58/58 45/45/45 57/57/57
f  45/45/45 58/58/58 46/46/46
f  59/59/59 46/46/46 58/58/58
f  60/60/60 46/46/46 59/59/59
f  46/46/46 60/60/60 47/47/47
f  61/61/61 47/47/47 60/60/60
f  47/47/47 61/61/61 45/45/45
f  62/62/62 45/45/45 61/61/61
f  45/45/45 62/62/62 63/63/63
f  59/59/59 58/58/58 64/64/64
f  57/57/57 64/64/64 58/58/58
f  64/64/64 57/57/57 65/65/65
f  65/65/65 57/57/57 66/66/66
f  55/55/55 66/66/66 57/57/57
f  66/66/66 55/55/55 67/67/67
f  53/53/53 67/67/67 55/55/55
f  67/67/67 53/53/53 68/68/68
f  51/51/51 68/68/68 53/53/53
f  54/54/54 50/50/50 52/52/52
f  50/50/50 54/54/54 69/69/69
f  56/56/56 69/69/69 54/54/54
f  69/69/69 56/56/56 63/63/63
f  45/45/45 63/63/63 56/56/56
f  62/62/62 70/70/70 63/63/63
f  71/71/71 63/63/63 70/70/70
f  63/63/63 71/71/71 69/69/69
f  72/72/72 69/69/69 71/71/71
f  69/69/69 72/72/72 50/50/50
f  73/73/73 50/50/50 72/72/72
f  50/50/50 73/73/73 48/48/48
f  70/70/70 62/62/62 74/74/74
f  61/61/61 74/74/74 62/62/62
f  74/74/74 61/61/61 60/60/60
f  75/75/75 76/76/76 77/77/77
f  78/78/78 77/77/77 76/76/76
f  79/79/79 80/80/80 81/81/81
f  82/82/82 81/81/81 80/80/80
f  81/81/81 82/82/82 83/83/83
f  77/77/77 83/83/83 82/82/82
f  83/83/83 77/77/77 84/84/84
f  78/78/78 84/84/84 77/77/77
f  84/84/84 78/78/78 85/85/85
f  85/85/85 78/78/78 86/86/86
f  76/76/76 86/86/86 78/78/78
f  86/86/86 76/76/76 87/87/87
f  75/75/75 87/87/87 76/76/76
f  87/87/87 75/75/75 88/88/88
f  77/77/77 88/88/88 75/75/75
f  88/88/88 77/77/77 89/89/89
f  82/82/82 89/89/89 77/77/77
f  89/89/89 82/82/82 90/90/90
f  80/80/80 90/90/90 82/82/82
f  87/87/87 88/88/88 91/91/91
f  89/89/89 91/91/91 88/88/88
f  91/91/91 89/89/89 90/90/90
f  84/84/84 92/92/92 83/83/83
f  93/93/93 83/83/83 92/92/92
f  83/83/83 93/93/93 81/81/81
f  81/81/81 93/93/93 94/94/94
f  95/95/95 94/94/94 93/93/93
f  94/94/94 95/95/95 96/96/96
f  97/97/97 96/96/96 95/95/95
f  96/96/96 97/97/97 98/98/98
f  98/98/98 97/97/97 99/99/99
f  92/92/92 99/99/99 97/97/97
f  99/99/99 92/92/92 100/100/100
f  84/84/84 100/100/100 92/92/92
f  100/100/100 84/84/84 101/101/101
f  85/85/85 101/101/101 84/84/84
f  95/95/95 93/93/93 97/97/97
f  92/92/92 97/97/97 93/93/93
f  96/96/96 102/102/102 94/94/94
f  103/103/103 94/94/94 102/102/102
f  104/104/104 94/94/94 103/103/103
f  79/79/79 94/94/94 104/104/104
f  94/94/94 79/79/79 81/81/81
f  105/105/105 106/106/106 107/107/107
f  108/108/108 107/107/107 106/106/106
f  107/107/107 108/108/108 109/109/109
f  110/110/110 109/109/109 108/108/108
f  111/111/111 112/112/112 113/113/113
f  113/113/113 112/112/112 114/114/114
f  115/115/115 114/114/114 112/112/112
f  114/114/114 115/115/115 106/106/106
f  116/116/116 106/106/106 115/115/115
f  106/106/106 116/116/116 108/108/108
f  117/117/117 108/108/108 116/116/116
f  108/108/108 117/117/117 110/110/110
f  118/118/118 110/110/110 117/117/117
f  110/110/110 118/118/118 109/109/109
f  119/119/119 109/109/109 118/118/118
f  120/120/120 109/109/109 119/119/119
f  109/109/109 120/120/120 107/107/107
f  121/121/121 107/107/107 120/120/120
f  107/107/107 121/121/121 105/105/105
f  122/122/122 105/105/105 121/121/121
f  123/123/123 112/112/112 111/111/111
f  112/112/112 123/123/123 115/115/115
f  124/124/124 115/115/115 123/123/123
f  115/115/115 124/124/124 116/116/116
f  125/125/125 116/116/116 124/124/124
f  116/116/116 125/125/125 117/117/117
f  126/126/126 117/117/117 125/125/125
f  117/117/117 126/126/126 118/118/118
f  127/127/127 118/118/118 126/126/126
f  118/118/118 127/127/127 119/119/119
f  128/128/128 119/119/119 127/127/127
f  129/129/129 119/119/119 128/128/128
f  119/119/119 129/129/129 120/120/120
f  130/130/130 120/120/120 129/129/129
f  120/120/120 130/130/130 121/121/121
f  131/131/131 121/121/121 130/130/130
f  121/121/121 131/131/131 122/122/122
f  132/132/132 122/122/122 131/131/131
f  133/133/133 134/134/134 132/132/132
f  135/135/135 132/132/132 134/134/134
f  132/132/132 135/135/135 122/122/122
f  136/136/136 122/122/122 135/135/135
f  122/122/122 136/136/136 105/105/105
f  137/137/137 105/105/105 136/136/136
f  105/105/105 137/137/137 106/106/106
f  138/138/138 106/106/106 137/137/137
f  106/106/106 138/138/138 114/114/114
f  139/139/139 114/114/114 138/138/138
f  114/114/114 139/139/139 113/113/113
f  140/140/140 113/113/113 139/139/139
f  141/141/141 113/113/113 140/140/140
f  113/113/113 141/141/141 111/111/111
f  142/142/142 111/111/111 141/141/141
f  134/134/134 143/143/143 135/135/135
f  144/144/144 135/135/135 143/143/143
f  135/135/135 144/144/144 136/136/136
f  136/136/136 144/144/144 137/137/137
f  145/145/145 137/137/137 144/144/144
f  137/137/137 145/145/145 138/138/138
f  146/146/146 138/138/138 145/145/145
f  138/138/138 146/146/146 139/139/139
f  139/139/139 146/146/146 140/140/140
f  140/140/140 146/146/146 147/147/147
f  147/147/147 146/146/146 148/148/148
f  145/145/145 148/148/148 146/146/146
f  144/144/144 148/148/148 145/145/145
f  148/148/148 144/144/144 143/143/143

g
