# Noesis .obj export.
#
mtllib b1225.mtl
g
v  0.415939 0.113987 -0.339348
v  0.421736 0.112436 -0.318122
v  0.369526 0.082128 -0.345299
v  0.482286 0.126643 -0.374906
v  0.444660 0.148045 -0.338855
v  0.451444 0.134283 -0.333984
v  0.415578 0.134135 -0.304948
v  0.384311 0.083130 -0.311512
v  0.330423 0.039835 -0.372097
v  0.288576 0.068877 -0.401772
v  0.346634 0.112158 -0.359528
v  0.402380 0.129471 -0.345383
v  0.441280 0.120350 -0.349449
v  0.440205 0.132207 -0.357706
v  0.448488 0.120821 -0.336546
v  0.347488 0.151339 -0.307658
v  0.374495 0.114194 -0.291907
v  0.347107 0.044703 -0.317284
v  0.320650 0.010115 -0.317972
v  0.280068 -0.021452 -0.384555
v  0.231260 0.036970 -0.404454
v  0.162665 -0.005279 -0.374877
v  0.240524 -0.061274 -0.361685
v  0.299538 -0.016967 -0.300134
v  0.299251 0.065193 -0.289511
v  0.281596 0.049156 -0.277502
v  0.229349 0.099175 -0.303967
v  0.259216 0.110269 -0.315423
v  0.299062 0.129384 -0.307530
v  0.330835 0.088393 -0.285400
v  0.216153 0.091941 -0.275475
v  0.275177 0.041903 -0.256420
v  0.282730 -0.030714 -0.267860
v  0.202911 -0.079221 -0.314332
v  0.125412 -0.025378 -0.316570
v  0.107509 -0.038127 -0.226383
v  0.198254 -0.093157 -0.224165
v  0.097458 -0.036317 -0.101456
v  0.192165 -0.094056 -0.144982
v  0.202748 -0.080458 -0.069086
v  0.280824 -0.031973 -0.145016
v  0.297626 -0.018324 -0.069485
v  0.279628 0.046577 -0.165128
v  0.286767 0.059297 -0.098665
v  0.198534 0.108247 -0.112737
v  0.210635 0.095189 -0.218329
v  0.275572 0.040115 -0.210682
v  0.278463 -0.039264 -0.221434
v  0.109899 0.065378 -0.107350
v  0.125925 0.060158 -0.228725
v  0.136113 0.057099 -0.305168
v  0.167805 0.065562 -0.349228
v  0.216515 0.086145 -0.370571
v  0.276146 0.123886 -0.367021
v  0.337555 0.150659 -0.346348
v  0.403767 0.156133 -0.319172
v  0.398680 0.153591 -0.339110
v  0.440753 0.145656 -0.353093
v  0.097458 -0.036317 -0.101456
v  0.107509 -0.038127 -0.226383
v  0.125412 -0.025378 -0.316570
v  0.162665 -0.005279 -0.374877
v  0.231260 0.036970 -0.404454
v  0.288576 0.068877 -0.401772
v  0.346634 0.112158 -0.359528
v  0.402380 0.129471 -0.345383
v  0.440205 0.132207 -0.357706
v  0.402381 0.129473 0.345383
v  0.440205 0.132208 0.357705
v  0.398680 0.153592 0.339109
v  0.440753 0.145657 0.353092
v  0.403767 0.156134 0.319171
v  0.444660 0.148046 0.338854
v  0.482286 0.126645 0.374906
v  0.231260 0.036972 0.404454
v  0.288576 0.068879 0.401772
v  0.216515 0.086146 0.370570
v  0.276146 0.123888 0.367020
v  0.259217 0.110270 0.315422
v  0.299062 0.129385 0.307529
v  0.337555 0.150660 0.346347
v  0.347488 0.151341 0.307657
v  0.346634 0.112160 0.359527
v  0.451444 0.134284 0.333983
v  0.415579 0.134136 0.304948
v  0.374495 0.114195 0.291907
v  0.330836 0.088394 0.285400
v  0.299251 0.065195 0.289511
v  0.229349 0.099176 0.303967
v  0.167805 0.065563 0.349228
v  0.162665 -0.005278 0.374877
v  0.125412 -0.025377 0.316570
v  0.136113 0.057100 0.305168
v  0.216153 0.091942 0.275474
v  0.281597 0.049157 0.277502
v  0.299538 -0.016965 0.300134
v  0.320650 0.010116 0.317972
v  0.347107 0.044704 0.317284
v  0.384311 0.083131 0.311511
v  0.421736 0.112437 0.318122
v  0.448488 0.120822 0.336545
v  0.162665 -0.005278 0.374877
v  0.280069 -0.021451 0.384555
v  0.231260 0.036972 0.404454
v  0.288576 0.068879 0.401772
v  0.330423 0.039836 0.372097
v  0.369526 0.082129 0.345299
v  0.346634 0.112160 0.359527
v  0.415939 0.113989 0.339348
v  0.402381 0.129473 0.345383
v  0.441280 0.120352 0.349448
v  0.440205 0.132208 0.357705
v  0.240524 -0.061272 0.361685
v  0.202912 -0.079220 0.314333
v  0.282730 -0.030712 0.267860
v  0.198254 -0.093156 0.224165
v  0.278463 -0.039263 0.221434
v  0.192166 -0.094055 0.144982
v  0.280824 -0.031972 0.145016
v  0.275572 0.040115 0.210682
v  0.279628 0.046578 0.165128
v  0.210635 0.095190 0.218328
v  0.125925 0.060159 0.228724
v  0.107509 -0.038127 0.226383
v  0.125412 -0.025377 0.316570
v  0.107509 -0.038127 0.226383
v  0.097458 -0.036317 0.101456
v  0.202748 -0.080458 0.069087
v  0.297626 -0.018324 0.069485
v  0.286767 0.059297 0.098665
v  0.198534 0.108247 0.112737
v  0.109900 0.065378 0.107350
v  0.097458 -0.036317 0.101456
v  0.275177 0.041904 0.256420

vt  0.212335 -0.115510 0.000000
vt  0.196782 -0.147289 0.000000
vt  0.308997 -0.145638 0.000000
vt  0.089807 -0.050895 0.000000
vt  0.116598 -0.136846 0.000000
vt  0.135204 -0.120464 0.000000
vt  0.173779 -0.177140 0.000000
vt  0.269486 -0.192258 0.000000
vt  0.414360 -0.157218 0.000000
vt  0.450287 -0.062325 0.000000
vt  0.322990 -0.078920 0.000000
vt  0.231512 -0.084950 0.000000
vt  0.166304 -0.091008 0.000000
vt  0.169309 -0.066654 0.000000
vt  0.153800 -0.109610 0.000000
vt  0.174676 -0.281538 0.000000
vt  0.224899 -0.232498 0.000000
vt  0.356973 -0.234441 0.000000
vt  0.432674 -0.269946 0.000000
vt  0.537022 -0.176046 0.000000
vt  0.561234 -0.050662 0.000000
vt  0.708851 -0.075384 0.000000
vt  0.616465 -0.207439 0.000000
vt  0.493679 -0.313877 0.000000
vt  0.334183 -0.362226 0.000000
vt  0.373755 -0.409359 0.000000
vt  0.245396 -0.504255 0.000000
vt  0.220975 -0.437704 0.000000
vt  0.207703 -0.357071 0.000000
vt  0.282832 -0.300805 0.000000
vt  0.287875 -0.554299 0.000000
vt  0.414650 -0.445275 0.000000
vt  0.549701 -0.364796 0.000000
vt  0.693255 -0.258573 0.000000
vt  0.817276 -0.141154 0.000000
vt  0.907351 -0.241166 0.000000
vt  0.745778 -0.348881 0.000000
vt  0.982636 -0.356352 0.000000
vt  0.790447 -0.431476 0.000000
vt  0.811075 -0.506405 0.000000
vt  0.622588 -0.510267 0.000000
vt  0.631599 -0.590805 0.000000
vt  0.487470 -0.536682 0.000000
vt  0.508730 -0.585747 0.000000
vt  0.397145 -0.662322 0.000000
vt  0.343713 -0.607930 0.000000
vt  0.455796 -0.490621 0.000000
vt  0.588683 -0.409901 0.000000
vt  0.331292 -0.801796 0.000000
vt  0.250764 -0.740991 0.000000
vt  0.178895 -0.681129 0.000000
vt  0.134152 -0.611681 0.000000
vt  0.120852 -0.521507 0.000000
vt  0.127320 -0.410895 0.000000
vt  0.130184 -0.305885 0.000000
vt  0.141220 -0.200976 0.000000
vt  0.113371 -0.209474 0.000000
vt  0.094056 -0.137015 0.000000
vt  0.230883 -0.962549 0.000000
vt  0.130736 -0.877741 0.000000
vt  0.060914 -0.774076 0.000000
vt  0.020195 -0.666956 0.000000
vt  0.019755 -0.531836 0.000000
vt  0.023784 -0.434564 0.000000
vt  0.063935 -0.311405 0.000000
vt  0.070705 -0.207926 0.000000
vt  0.070353 -0.133132 0.000000
vt  0.070705 -0.207926 0.000000
vt  0.070353 -0.133132 0.000000
vt  0.113371 -0.209474 0.000000
vt  0.094056 -0.137015 0.000000
vt  0.141220 -0.200976 0.000000
vt  0.116598 -0.136846 0.000000
vt  0.089807 -0.050895 0.000000
vt  0.019755 -0.531836 0.000000
vt  0.023784 -0.434564 0.000000
vt  0.120852 -0.521507 0.000000
vt  0.127320 -0.410895 0.000000
vt  0.220975 -0.437704 0.000000
vt  0.207703 -0.357071 0.000000
vt  0.130184 -0.305885 0.000000
vt  0.174676 -0.281538 0.000000
vt  0.063935 -0.311405 0.000000
vt  0.135204 -0.120464 0.000000
vt  0.173779 -0.177140 0.000000
vt  0.224899 -0.232498 0.000000
vt  0.282832 -0.300805 0.000000
vt  0.334183 -0.362226 0.000000
vt  0.245396 -0.504255 0.000000
vt  0.134152 -0.611681 0.000000
vt  0.020195 -0.666956 0.000000
vt  0.060914 -0.774076 0.000000
vt  0.178895 -0.681129 0.000000
vt  0.287875 -0.554299 0.000000
vt  0.373755 -0.409359 0.000000
vt  0.493679 -0.313877 0.000000
vt  0.432674 -0.269946 0.000000
vt  0.356973 -0.234441 0.000000
vt  0.269486 -0.192258 0.000000
vt  0.196782 -0.147289 0.000000
vt  0.153800 -0.109610 0.000000
vt  0.708851 -0.075384 0.000000
vt  0.537022 -0.176046 0.000000
vt  0.561234 -0.050662 0.000000
vt  0.450287 -0.062325 0.000000
vt  0.414360 -0.157218 0.000000
vt  0.308997 -0.145638 0.000000
vt  0.322990 -0.078920 0.000000
vt  0.212335 -0.115510 0.000000
vt  0.231512 -0.084950 0.000000
vt  0.166304 -0.091008 0.000000
vt  0.169309 -0.066654 0.000000
vt  0.616465 -0.207439 0.000000
vt  0.693255 -0.258573 0.000000
vt  0.549701 -0.364796 0.000000
vt  0.745778 -0.348881 0.000000
vt  0.588683 -0.409901 0.000000
vt  0.790447 -0.431476 0.000000
vt  0.622588 -0.510267 0.000000
vt  0.455796 -0.490621 0.000000
vt  0.487470 -0.536682 0.000000
vt  0.343713 -0.607930 0.000000
vt  0.250764 -0.740991 0.000000
vt  0.130736 -0.877741 0.000000
vt  0.817276 -0.141154 0.000000
vt  0.907351 -0.241166 0.000000
vt  0.982636 -0.356352 0.000000
vt  0.811075 -0.506405 0.000000
vt  0.631599 -0.590805 0.000000
vt  0.508730 -0.585747 0.000000
vt  0.397145 -0.662322 0.000000
vt  0.331292 -0.801796 0.000000
vt  0.230883 -0.962549 0.000000
vt  0.414650 -0.445275 0.000000

vn  0.249214 -0.749892 -0.612824
vn  0.577888 -0.682070 0.448135
vn  0.641849 -0.408175 -0.649171
vn  0.783558 -0.130678 -0.607422
vn  0.455569 0.856753 0.241724
vn  0.721897 0.144310 0.676786
vn  0.432133 0.187017 0.882205
vn  0.608828 -0.676408 0.414488
vn  0.709712 -0.367992 -0.600741
vn  0.177824 0.184348 -0.966641
vn  0.359671 0.180252 -0.915503
vn  -0.001279 0.004155 -0.999991
vn  -0.052740 -0.882569 -0.467215
vn  -0.333473 -0.120471 -0.935031
vn  0.535725 -0.737962 0.410379
vn  -0.160506 0.814570 0.557417
vn  0.221305 0.004700 0.975193
vn  0.698564 -0.617679 0.361221
vn  0.799937 -0.530102 0.281233
vn  0.438355 -0.591493 -0.676743
vn  -0.217319 0.055042 -0.974547
vn  -0.591614 -0.207028 -0.779187
vn  0.187305 -0.838603 -0.511530
vn  0.830706 -0.513922 0.214038
vn  0.156016 0.086518 0.983958
vn  0.631773 0.383786 0.673477
vn  -0.151782 0.953234 0.261357
vn  -0.333164 0.817350 0.470043
vn  -0.390521 0.693548 0.605380
vn  0.065681 -0.051331 0.996520
vn  0.054228 0.994520 0.089380
vn  0.858885 0.468008 0.208051
vn  0.856837 -0.509270 0.080468
vn  -0.057262 -0.956938 -0.284590
vn  -0.849234 -0.347915 -0.397186
vn  -0.894781 -0.421815 -0.146419
vn  0.027240 -0.996760 -0.075681
vn  -0.868370 -0.495857 -0.007666
vn  0.002678 -0.998001 0.063141
vn  0.176403 -0.974537 0.138421
vn  0.868839 -0.493095 -0.044461
vn  0.886077 -0.455637 -0.085218
vn  0.881701 0.448381 -0.146826
vn  0.858641 0.478488 -0.183806
vn  0.065314 0.989399 -0.129705
vn  0.155942 0.984004 -0.086128
vn  0.905780 0.420592 -0.051618
vn  0.869656 -0.493654 0.001775
vn  -0.821152 0.559238 -0.113850
vn  -0.773069 0.617975 -0.143079
vn  -0.775152 0.578873 -0.253073
vn  -0.619494 0.631074 -0.466876
vn  -0.452646 0.710318 -0.539036
vn  -0.315792 0.816940 -0.482581
vn  -0.105958 0.868066 -0.485009
vn  0.164660 0.912140 0.375350
vn  -0.006337 0.802712 -0.596333
vn  -0.015078 0.774918 -0.631882
vn  -0.868370 -0.495857 -0.007666
vn  -0.894781 -0.421815 -0.146419
vn  -0.849234 -0.347915 -0.397186
vn  -0.591614 -0.207028 -0.779187
vn  -0.217319 0.055042 -0.974547
vn  0.177824 0.184348 -0.966641
vn  0.359671 0.180252 -0.915503
vn  -0.001279 0.004155 -0.999991
vn  -0.333473 -0.120471 -0.935031
vn  -0.001279 0.004159 0.999991
vn  -0.333473 -0.120467 0.935031
vn  -0.006337 0.802715 0.596330
vn  -0.015078 0.774921 0.631879
vn  0.164660 0.912138 -0.375354
vn  0.455569 0.856752 -0.241728
vn  0.783558 -0.130676 0.607422
vn  -0.217319 0.055046 0.974547
vn  0.177824 0.184352 0.966640
vn  -0.452646 0.710320 0.539033
vn  -0.315792 0.816942 0.482577
vn  -0.333164 0.817348 -0.470046
vn  -0.390521 0.693545 -0.605383
vn  -0.105958 0.868068 0.485006
vn  -0.160506 0.814568 -0.557420
vn  0.359671 0.180255 0.915503
vn  0.721897 0.144307 -0.676787
vn  0.432133 0.187013 -0.882206
vn  0.221305 0.004697 -0.975193
vn  0.065681 -0.051335 -0.996519
vn  0.156017 0.086514 -0.983958
vn  -0.151782 0.953233 -0.261361
vn  -0.619494 0.631075 0.466874
vn  -0.591614 -0.207025 0.779188
vn  -0.849234 -0.347913 0.397188
vn  -0.775152 0.578874 0.253070
vn  0.054228 0.994520 -0.089384
vn  0.631773 0.383783 -0.673478
vn  0.830706 -0.513923 -0.214036
vn  0.799937 -0.530103 -0.281231
vn  0.698564 -0.617681 -0.361219
vn  0.608828 -0.676410 -0.414486
vn  0.577889 -0.682072 -0.448133
vn  0.535725 -0.737963 -0.410376
vn  -0.591614 -0.207025 0.779188
vn  0.438355 -0.591490 0.676745
vn  -0.217319 0.055046 0.974547
vn  0.177824 0.184352 0.966640
vn  0.709712 -0.367990 0.600743
vn  0.641849 -0.408173 0.649172
vn  0.359671 0.180255 0.915503
vn  0.249214 -0.749890 0.612827
vn  -0.001279 0.004159 0.999991
vn  -0.052739 -0.882568 0.467218
vn  -0.333473 -0.120467 0.935031
vn  0.187305 -0.838600 0.511534
vn  -0.057262 -0.956936 0.284594
vn  0.856837 -0.509270 -0.080466
vn  0.027240 -0.996760 0.075685
vn  0.869656 -0.493654 -0.001773
vn  0.002678 -0.998001 -0.063137
vn  0.868838 -0.493095 0.044463
vn  0.905780 0.420593 0.051616
vn  0.881701 0.448382 0.146825
vn  0.155942 0.984004 0.086124
vn  -0.773069 0.617976 0.143076
vn  -0.894781 -0.421814 0.146421
vn  -0.849234 -0.347913 0.397188
vn  -0.894781 -0.421814 0.146421
vn  -0.868370 -0.495857 0.007669
vn  0.176403 -0.974537 -0.138416
vn  0.886077 -0.455637 0.085220
vn  0.858641 0.478489 0.183804
vn  0.065314 0.989400 0.129701
vn  -0.821152 0.559239 0.113847
vn  -0.868370 -0.495857 0.007669
vn  0.858885 0.468007 -0.208053

g B1225
usemtl B1225_3
f  1/1/1 2/2/2 3/3/3
f  4/4/4 5/5/5 6/6/6
f  7/7/7 6/6/6 5/5/5
f  6/6/6 7/7/7 2/2/2
f  8/8/8 2/2/2 7/7/7
f  2/2/2 8/8/8 3/3/3
f  9/9/9 3/3/3 8/8/8
f  10/10/10 3/3/3 9/9/9
f  11/11/11 3/3/3 10/10/10
f  3/3/3 11/11/11 1/1/1
f  12/12/12 1/1/1 11/11/11
f  1/1/1 12/12/12 13/13/13
f  14/14/14 13/13/13 12/12/12
f  4/4/4 13/13/13 14/14/14
f  13/13/13 4/4/4 15/15/15
f  6/6/6 15/15/15 4/4/4
f  2/2/2 15/15/15 6/6/6
f  1/1/1 15/15/15 2/2/2
f  15/15/15 1/1/1 13/13/13
f  16/16/16 17/17/17 7/7/7
f  7/7/7 17/17/17 8/8/8
f  18/18/18 8/8/8 17/17/17
f  8/8/8 18/18/18 9/9/9
f  19/19/19 9/9/9 18/18/18
f  20/20/20 9/9/9 19/19/19
f  9/9/9 20/20/20 10/10/10
f  10/10/10 20/20/20 21/21/21
f  21/21/21 20/20/20 22/22/22
f  22/22/22 20/20/20 23/23/23
f  19/19/19 23/23/23 20/20/20
f  23/23/23 19/19/19 24/24/24
f  25/25/25 24/24/24 19/19/19
f  24/24/24 25/25/25 26/26/26
f  26/26/26 25/25/25 27/27/27
f  27/27/27 25/25/25 28/28/28
f  28/28/28 25/25/25 29/29/29
f  30/30/30 29/29/29 25/25/25
f  29/29/29 30/30/30 16/16/16
f  16/16/16 30/30/30 17/17/17
f  17/17/17 30/30/30 18/18/18
f  18/18/18 30/30/30 19/19/19
f  25/25/25 19/19/19 30/30/30
f  27/27/27 31/31/31 26/26/26
f  32/32/32 26/26/26 31/31/31
f  26/26/26 32/32/32 24/24/24
f  33/33/33 24/24/24 32/32/32
f  34/34/34 24/24/24 33/33/33
f  24/24/24 34/34/34 23/23/23
f  23/23/23 34/34/34 22/22/22
f  22/22/22 34/34/34 35/35/35
f  35/35/35 34/34/34 36/36/36
f  37/37/37 36/36/36 34/34/34
f  36/36/36 37/37/37 38/38/38
f  39/39/39 38/38/38 37/37/37
f  38/38/38 39/39/39 40/40/40
f  41/41/41 40/40/40 39/39/39
f  40/40/40 41/41/41 42/42/42
f  43/43/43 42/42/42 41/41/41
f  42/42/42 43/43/43 44/44/44
f  45/45/45 44/44/44 43/43/43
f  45/45/45 43/43/43 46/46/46
f  47/47/47 46/46/46 43/43/43
f  46/46/46 47/47/47 31/31/31
f  31/31/31 47/47/47 32/32/32
f  32/32/32 47/47/47 33/33/33
f  48/48/48 33/33/33 47/47/47
f  37/37/37 33/33/33 48/48/48
f  33/33/33 37/37/37 34/34/34
f  43/43/43 41/41/41 47/47/47
f  47/47/47 41/41/41 48/48/48
f  39/39/39 48/48/48 41/41/41
f  48/48/48 39/39/39 37/37/37
f  49/49/49 45/45/45 50/50/50
f  46/46/46 50/50/50 45/45/45
f  50/50/50 46/46/46 51/51/51
f  31/31/31 51/51/51 46/46/46
f  51/51/51 31/31/31 52/52/52
f  27/27/27 52/52/52 31/31/31
f  52/52/52 27/27/27 53/53/53
f  28/28/28 53/53/53 27/27/27
f  53/53/53 28/28/28 54/54/54
f  29/29/29 54/54/54 28/28/28
f  54/54/54 29/29/29 55/55/55
f  16/16/16 55/55/55 29/29/29
f  56/56/56 55/55/55 16/16/16
f  55/55/55 56/56/56 57/57/57
f  57/57/57 56/56/56 58/58/58
f  58/58/58 56/56/56 5/5/5
f  5/5/5 56/56/56 7/7/7
f  16/16/16 7/7/7 56/56/56
f  59/59/59 49/49/49 60/60/60
f  50/50/50 60/60/60 49/49/49
f  60/60/60 50/50/50 61/61/61
f  51/51/51 61/61/61 50/50/50
f  61/61/61 51/51/51 62/62/62
f  52/52/52 62/62/62 51/51/51
f  62/62/62 52/52/52 63/63/63
f  53/53/53 63/63/63 52/52/52
f  63/63/63 53/53/53 64/64/64
f  54/54/54 64/64/64 53/53/53
f  55/55/55 64/64/64 54/54/54
f  64/64/64 55/55/55 65/65/65
f  65/65/65 55/55/55 66/66/66
f  57/57/57 66/66/66 55/55/55
f  66/66/66 57/57/57 67/67/67
f  58/58/58 67/67/67 57/57/57
f  67/67/67 58/58/58 4/4/4
f  5/5/5 4/4/4 58/58/58
f  68/68/68 69/69/69 70/70/70
f  71/71/71 70/70/70 69/69/69
f  70/70/70 71/71/71 72/72/72
f  72/72/72 71/71/71 73/73/73
f  73/73/73 71/71/71 74/74/74
f  69/69/69 74/74/74 71/71/71
f  75/75/75 76/76/76 77/77/77
f  78/78/78 77/77/77 76/76/76
f  77/77/77 78/78/78 79/79/79
f  79/79/79 78/78/78 80/80/80
f  81/81/81 80/80/80 78/78/78
f  80/80/80 81/81/81 82/82/82
f  82/82/82 81/81/81 72/72/72
f  72/72/72 81/81/81 70/70/70
f  70/70/70 81/81/81 68/68/68
f  68/68/68 81/81/81 83/83/83
f  83/83/83 81/81/81 76/76/76
f  78/78/78 76/76/76 81/81/81
f  84/84/84 85/85/85 73/73/73
f  73/73/73 85/85/85 72/72/72
f  72/72/72 85/85/85 82/82/82
f  86/86/86 82/82/82 85/85/85
f  87/87/87 82/82/82 86/86/86
f  82/82/82 87/87/87 80/80/80
f  88/88/88 80/80/80 87/87/87
f  80/80/80 88/88/88 79/79/79
f  89/89/89 79/79/79 88/88/88
f  79/79/79 89/89/89 77/77/77
f  90/90/90 77/77/77 89/89/89
f  77/77/77 90/90/90 75/75/75
f  91/91/91 75/75/75 90/90/90
f  92/92/92 91/91/91 93/93/93
f  90/90/90 93/93/93 91/91/91
f  93/93/93 90/90/90 94/94/94
f  89/89/89 94/94/94 90/90/90
f  94/94/94 89/89/89 95/95/95
f  88/88/88 95/95/95 89/89/89
f  95/95/95 88/88/88 96/96/96
f  96/96/96 88/88/88 97/97/97
f  87/87/87 97/97/97 88/88/88
f  97/97/97 87/87/87 98/98/98
f  86/86/86 98/98/98 87/87/87
f  98/98/98 86/86/86 99/99/99
f  85/85/85 99/99/99 86/86/86
f  99/99/99 85/85/85 100/100/100
f  84/84/84 100/100/100 85/85/85
f  100/100/100 84/84/84 101/101/101
f  101/101/101 84/84/84 74/74/74
f  73/73/73 74/74/74 84/84/84
f  102/102/102 103/103/103 104/104/104
f  104/104/104 103/103/103 105/105/105
f  106/106/106 105/105/105 103/103/103
f  107/107/107 105/105/105 106/106/106
f  105/105/105 107/107/107 108/108/108
f  109/109/109 108/108/108 107/107/107
f  108/108/108 109/109/109 110/110/110
f  111/111/111 110/110/110 109/109/109
f  110/110/110 111/111/111 112/112/112
f  112/112/112 111/111/111 74/74/74
f  74/74/74 111/111/111 101/101/101
f  109/109/109 101/101/101 111/111/111
f  101/101/101 109/109/109 100/100/100
f  107/107/107 100/100/100 109/109/109
f  100/100/100 107/107/107 99/99/99
f  106/106/106 99/99/99 107/107/107
f  99/99/99 106/106/106 98/98/98
f  97/97/97 98/98/98 106/106/106
f  106/106/106 103/103/103 97/97/97
f  113/113/113 97/97/97 103/103/103
f  97/97/97 113/113/113 96/96/96
f  114/114/114 96/96/96 113/113/113
f  96/96/96 114/114/114 115/115/115
f  116/116/116 115/115/115 114/114/114
f  115/115/115 116/116/116 117/117/117
f  118/118/118 117/117/117 116/116/116
f  119/119/119 117/117/117 118/118/118
f  117/117/117 119/119/119 120/120/120
f  121/121/121 120/120/120 119/119/119
f  122/122/122 120/120/120 121/121/121
f  120/120/120 122/122/122 94/94/94
f  94/94/94 122/122/122 93/93/93
f  123/123/123 93/93/93 122/122/122
f  93/93/93 123/123/123 92/92/92
f  124/124/124 92/92/92 123/123/123
f  102/102/102 113/113/113 103/103/103
f  113/113/113 102/102/102 114/114/114
f  125/125/125 114/114/114 102/102/102
f  126/126/126 114/114/114 125/125/125
f  114/114/114 126/126/126 116/116/116
f  127/127/127 116/116/116 126/126/126
f  116/116/116 127/127/127 118/118/118
f  128/128/128 118/118/118 127/127/127
f  118/118/118 128/128/128 119/119/119
f  129/129/129 119/119/119 128/128/128
f  119/119/119 129/129/129 121/121/121
f  130/130/130 121/121/121 129/129/129
f  131/131/131 121/121/121 130/130/130
f  121/121/121 131/131/131 122/122/122
f  122/122/122 131/131/131 123/123/123
f  132/132/132 123/123/123 131/131/131
f  123/123/123 132/132/132 124/124/124
f  133/133/133 124/124/124 132/132/132
f  120/120/120 94/94/94 134/134/134
f  95/95/95 134/134/134 94/94/94
f  96/96/96 134/134/134 95/95/95
f  115/115/115 134/134/134 96/96/96
f  134/134/134 115/115/115 120/120/120
f  117/117/117 120/120/120 115/115/115

g
