# Noesis .obj export.
#
mtllib b1230.mtl
g
v  0.130085 0.062745 0.177020
v  0.147991 -0.065270 0.135894
v  0.139836 -0.001184 0.170125
v  0.149678 -0.118918 0.067374
v  0.150273 -0.147201 -0.001999
v  0.112569 0.185840 0.139725
v  0.120237 0.121187 0.170752
v  0.006406 0.213971 -0.076728
v  -0.016363 0.168310 -0.130628
v  0.060143 0.231983 0.009076
v  -0.017019 0.105616 -0.144799
v  -0.001204 0.046228 -0.150397
v  0.075501 -0.011950 -0.169592
v  0.099174 -0.079880 -0.122426
v  0.139119 -0.117885 -0.079076
v  0.106008 0.209319 0.070990
v  0.104148 0.213712 0.076674
v  0.101960 0.229596 -0.002172
v  0.098627 0.239710 -0.002023
v  0.097764 0.221771 -0.080776
v  0.101301 0.207708 -0.078258
v  0.101437 0.177634 -0.145931
v  0.103154 0.164416 -0.141859
v  0.106400 0.122014 -0.185735
v  0.108083 0.119266 -0.177110
v  0.112535 0.062773 -0.190260
v  0.115435 0.062037 -0.182841
v  0.123542 -0.005256 -0.173459
v  0.119417 -0.009363 -0.177977
v  0.131389 -0.087980 -0.136772
v  0.131758 -0.083106 -0.129956
v  0.141417 -0.120812 -0.085037
v  0.222984 0.018126 0.141709
v  0.232027 -0.043388 0.106824
v  0.215048 0.071839 0.152393
v  0.205364 0.112136 0.144308
v  0.183719 0.193419 0.071789
v  0.195697 0.160829 0.118371
v  0.237731 -0.072839 0.059989
v  0.239847 -0.097293 -0.004551
v  0.182859 0.211318 -0.004365
v  0.186329 0.198026 -0.068217
v  0.235953 -0.077144 -0.073477
v  0.229988 -0.043831 -0.110400
v  0.219694 0.017818 -0.145248
v  0.210621 0.069648 -0.154908
v  0.200931 0.110388 -0.148896
v  0.190198 0.156728 -0.127159
v  0.166755 0.115658 -0.162115
v  0.167891 0.113645 -0.157489
v  0.166070 0.067916 -0.173396
v  0.165973 0.067869 -0.168665
v  0.176817 0.068518 -0.166037
v  0.183518 0.012710 -0.156371
v  0.172482 0.161555 -0.131337
v  0.173645 0.164975 -0.134704
v  0.177712 0.199543 -0.072964
v  0.181487 0.207279 -0.074391
v  0.136153 0.218042 -0.078557
v  0.137286 0.175847 -0.142172
v  0.140757 0.120558 -0.172913
v  0.146799 0.070152 -0.183725
v  0.158853 0.008179 -0.171746
v  0.159997 0.009900 -0.166996
v  0.158658 -0.066864 -0.131814
v  0.189847 -0.059735 -0.119207
v  0.197313 -0.098980 -0.078076
v  0.160417 -0.120800 -0.082737
v  0.137749 0.234268 -0.004433
v  0.098627 0.239710 -0.002023
v  0.097764 0.221771 -0.080776
v  0.101437 0.177634 -0.145931
v  0.106400 0.122014 -0.185735
v  0.112535 0.062773 -0.190260
v  0.119417 -0.009363 -0.177977
v  0.158923 -0.070470 -0.135341
v  0.131389 -0.087980 -0.136772
v  0.159810 -0.126344 -0.084942
v  0.141417 -0.120812 -0.085037
v  0.150273 -0.147201 -0.001999
v  0.197560 -0.120419 -0.004378
v  0.239847 -0.097293 -0.004551
v  0.235953 -0.077144 -0.073477
v  0.229988 -0.043831 -0.110400
v  0.219694 0.017818 -0.145248
v  0.210621 0.069648 -0.154908
v  0.200931 0.110388 -0.148896
v  0.190198 0.156728 -0.127159
v  0.186329 0.198026 -0.068217
v  0.182859 0.211318 -0.004365
v  0.232027 -0.043388 0.106824
v  0.191558 -0.059551 0.121037
v  0.237731 -0.072839 0.059989
v  0.196615 -0.110619 0.067992
v  0.239847 -0.097293 -0.004551
v  0.197560 -0.120419 -0.004378
v  0.181065 -0.111612 0.065631
v  0.150273 -0.147201 -0.001999
v  0.149678 -0.118918 0.067374
v  0.169225 -0.062685 0.128940
v  0.182872 0.009940 0.159477
v  0.222984 0.018126 0.141709
v  0.174703 0.070101 0.170826
v  0.215048 0.071839 0.152393
v  0.165837 0.118597 0.160914
v  0.205364 0.112136 0.144308
v  0.156442 0.177212 0.131523
v  0.195697 0.160829 0.118371
v  0.145607 0.215465 0.072973
v  0.183719 0.193419 0.071789
v  0.137749 0.234268 -0.004433
v  0.182859 0.211318 -0.004365
v  0.161006 0.006281 0.164944
v  0.152176 0.065748 0.173277
v  0.142945 0.113263 0.165833
v  0.132307 0.178381 0.136686
v  0.124139 0.226278 0.074836
v  0.147991 -0.065270 0.135894
v  0.139836 -0.001184 0.170125
v  0.130085 0.062745 0.177020
v  0.120237 0.121187 0.170752
v  0.112569 0.185840 0.139725
v  0.104148 0.213712 0.076674
v  0.098627 0.239710 -0.002023
v  0.054104 0.218061 -0.082647
v  0.038372 0.169219 -0.139721
v  -0.016363 0.168310 -0.130628
v  -0.017019 0.105616 -0.144799
v  0.037610 0.111563 -0.166687
v  -0.001204 0.046228 -0.150397
v  0.052080 0.051328 -0.171870
v  0.075501 -0.011950 -0.169592
v  0.097416 -0.012866 -0.175482
v  0.099174 -0.079880 -0.122426
v  0.115113 -0.079767 -0.122447
v  0.139119 -0.117885 -0.079076
v  0.125471 -0.079449 -0.128025
v  0.131758 -0.083106 -0.129956
v  0.074758 0.230846 0.006324
v  0.094784 0.231712 -0.000455
v  0.078498 0.210420 -0.080829
v  0.077297 0.171955 -0.146477
v  0.082147 0.116951 -0.175135
v  0.094896 0.056200 -0.181842
v  0.111958 -0.011364 -0.174282
v  0.123542 -0.005256 -0.173459
v  0.115435 0.062037 -0.182841
v  0.108083 0.119266 -0.177110
v  0.103154 0.164416 -0.141859
v  0.101301 0.207708 -0.078258
v  0.101960 0.229596 -0.002172
v  0.106008 0.209319 0.070990
v  0.060143 0.231983 0.009076
v  0.006406 0.213971 -0.076728

vt  0.506241 -0.888681 0.000000
vt  0.522378 -0.782834 0.000000
vt  0.506461 -0.842492 0.000000
vt  0.557229 -0.742153 0.000000
vt  0.612102 -0.714539 0.000000
vt  0.559133 -0.977690 0.000000
vt  0.525688 -0.936572 0.000000
vt  0.699796 -0.961973 0.000000
vt  0.746087 -0.917286 0.000000
vt  0.657324 -0.975369 0.000000
vt  0.753531 -0.866229 0.000000
vt  0.729139 -0.807316 0.000000
vt  0.700229 -0.774175 0.000000
vt  0.685951 -0.751177 0.000000
vt  0.663681 -0.733214 0.000000
vt  0.619179 -0.985371 0.000000
vt  0.617121 -0.993834 0.000000
vt  0.668353 -0.983709 0.000000
vt  0.670914 -0.996769 0.000000
vt  0.722931 -0.970076 0.000000
vt  0.714490 -0.958959 0.000000
vt  0.764040 -0.929685 0.000000
vt  0.749539 -0.921064 0.000000
vt  0.777384 -0.877569 0.000000
vt  0.764116 -0.875239 0.000000
vt  0.775567 -0.824983 0.000000
vt  0.753187 -0.830076 0.000000
vt  0.735905 -0.790140 0.000000
vt  0.758755 -0.781576 0.000000
vt  0.719390 -0.735457 0.000000
vt  0.703099 -0.751289 0.000000
vt  0.676199 -0.715037 0.000000
vt  0.984362 -0.091765 0.000000
vt  0.949546 -0.042494 0.000000
vt  0.996062 -0.134714 0.000000
vt  0.991002 -0.183991 0.000000
vt  0.918455 -0.262613 0.000000
vt  0.970404 -0.230706 0.000000
vt  0.903964 -0.015636 0.000000
vt  0.841755 -0.003224 0.000000
vt  0.867145 -0.285031 0.000000
vt  0.812687 -0.270339 0.000000
vt  0.778781 -0.025611 0.000000
vt  0.743040 -0.057098 0.000000
vt  0.717959 -0.110656 0.000000
vt  0.714255 -0.154769 0.000000
vt  0.727936 -0.202734 0.000000
vt  0.756287 -0.246106 0.000000
vt  0.395591 -0.609526 0.000000
vt  0.410902 -0.609526 0.000000
vt  0.367559 -0.491017 0.000000
vt  0.376898 -0.491017 0.000000
vt  0.403845 -0.491017 0.000000
vt  0.403845 -0.387059 0.000000
vt  0.442555 -0.731468 0.000000
vt  0.426928 -0.731468 0.000000
vt  0.474377 -0.863634 0.000000
vt  0.456671 -0.863634 0.000000
vt  0.351587 -0.863634 0.000000
vt  0.351587 -0.731468 0.000000
vt  0.351587 -0.609526 0.000000
vt  0.351587 -0.491017 0.000000
vt  0.341572 -0.387059 0.000000
vt  0.353131 -0.387059 0.000000
vt  0.322793 -0.249030 0.000000
vt  0.403845 -0.249030 0.000000
vt  0.403845 -0.138802 0.000000
vt  0.293615 -0.138802 0.000000
vt  0.351587 -0.986254 0.000000
vt  0.247835 -0.986254 0.000000
vt  0.247835 -0.863634 0.000000
vt  0.247835 -0.731468 0.000000
vt  0.247835 -0.609526 0.000000
vt  0.247835 -0.491017 0.000000
vt  0.247835 -0.387059 0.000000
vt  0.309217 -0.249030 0.000000
vt  0.247835 -0.249030 0.000000
vt  0.283790 -0.138802 0.000000
vt  0.247835 -0.138802 0.000000
vt  0.247835 -0.006565 0.000000
vt  0.403845 -0.006565 0.000000
vt  0.502010 -0.006565 0.000000
vt  0.502010 -0.138802 0.000000
vt  0.502010 -0.249030 0.000000
vt  0.502010 -0.387059 0.000000
vt  0.502010 -0.491017 0.000000
vt  0.502010 -0.609526 0.000000
vt  0.502010 -0.731468 0.000000
vt  0.502010 -0.863634 0.000000
vt  0.502010 -0.986254 0.000000
vt  0.004599 -0.249030 0.000000
vt  0.119436 -0.249030 0.000000
vt  0.004599 -0.138802 0.000000
vt  0.119436 -0.138802 0.000000
vt  0.004599 -0.006565 0.000000
vt  0.119366 -0.006565 0.000000
vt  0.158522 -0.138802 0.000000
vt  0.238664 -0.006565 0.000000
vt  0.238664 -0.138802 0.000000
vt  0.176075 -0.249030 0.000000
vt  0.119436 -0.387059 0.000000
vt  0.004599 -0.387059 0.000000
vt  0.119436 -0.491017 0.000000
vt  0.004599 -0.491017 0.000000
vt  0.119436 -0.609526 0.000000
vt  0.004599 -0.609526 0.000000
vt  0.119436 -0.731468 0.000000
vt  0.004599 -0.731468 0.000000
vt  0.119436 -0.863634 0.000000
vt  0.004599 -0.863634 0.000000
vt  0.119436 -0.986254 0.000000
vt  0.004599 -0.986254 0.000000
vt  0.176075 -0.387059 0.000000
vt  0.176075 -0.491017 0.000000
vt  0.176075 -0.609526 0.000000
vt  0.176075 -0.731468 0.000000
vt  0.191435 -0.863634 0.000000
vt  0.238664 -0.249030 0.000000
vt  0.238664 -0.387059 0.000000
vt  0.238664 -0.491017 0.000000
vt  0.238664 -0.609526 0.000000
vt  0.238664 -0.731468 0.000000
vt  0.238664 -0.863634 0.000000
vt  0.238664 -0.986254 0.000000
vt  0.824630 -0.742643 0.000000
vt  0.762216 -0.641822 0.000000
vt  0.693988 -0.699536 0.000000
vt  0.617643 -0.592801 0.000000
vt  0.702222 -0.540362 0.000000
vt  0.562761 -0.479698 0.000000
vt  0.652827 -0.435235 0.000000
vt  0.522336 -0.347298 0.000000
vt  0.605361 -0.321214 0.000000
vt  0.512687 -0.197673 0.000000
vt  0.572404 -0.187418 0.000000
vt  0.526108 -0.035179 0.000000
vt  0.618226 -0.157296 0.000000
vt  0.639106 -0.125005 0.000000
vt  0.900389 -0.853375 0.000000
vt  0.941751 -0.833160 0.000000
vt  0.896255 -0.710343 0.000000
vt  0.848050 -0.595646 0.000000
vt  0.796394 -0.484971 0.000000
vt  0.739442 -0.378728 0.000000
vt  0.684547 -0.270593 0.000000
vt  0.735695 -0.223180 0.000000
vt  0.806548 -0.326895 0.000000
vt  0.870320 -0.445463 0.000000
vt  0.920312 -0.570677 0.000000
vt  0.956813 -0.702360 0.000000
vt  0.974105 -0.833544 0.000000
vt  0.986645 -0.982242 0.000000
vt  0.872607 -0.881254 0.000000
vt  0.767965 -0.785913 0.000000

vn  -0.597352 -0.065216 0.799323
vn  -0.459928 -0.581918 0.670700
vn  -0.493695 -0.338076 0.801230
vn  -0.549364 -0.748778 0.370853
vn  -0.366353 -0.924608 0.104334
vn  -0.539535 0.512268 0.668194
vn  -0.620113 0.160052 0.768012
vn  -0.790809 0.608923 0.061921
vn  -0.849600 0.376141 -0.369726
vn  -0.613231 0.676647 0.407549
vn  -0.950170 -0.045898 -0.308335
vn  -0.797068 -0.589585 -0.130658
vn  -0.692288 -0.472425 -0.545482
vn  -0.671483 -0.695791 -0.254923
vn  -0.905416 -0.423938 0.022313
vn  -0.966507 -0.211272 0.145697
vn  -0.923862 0.312311 0.221225
vn  -0.802859 0.595342 -0.031373
vn  -0.716139 0.697665 0.020205
vn  -0.716270 0.636772 -0.285445
vn  -0.770848 0.580817 -0.261619
vn  -0.661132 0.492309 -0.566159
vn  -0.689210 0.449074 -0.568614
vn  -0.597268 0.252220 -0.761352
vn  -0.862043 0.101901 -0.496486
vn  -0.719231 -0.143399 -0.679811
vn  -0.857096 -0.094505 -0.506415
vn  -0.893596 -0.240253 -0.379163
vn  -0.784195 -0.291817 -0.547614
vn  -0.540274 -0.582994 -0.606813
vn  -0.901431 -0.375172 -0.216027
vn  -0.615499 -0.733738 -0.287731
vn  0.830924 -0.087307 0.549494
vn  0.852512 -0.283014 0.439461
vn  0.838593 0.153225 0.522765
vn  0.812574 0.333878 0.477754
vn  0.778118 0.598304 0.191218
vn  0.832602 0.460400 0.307906
vn  0.926937 -0.282701 0.246715
vn  0.874661 -0.483571 -0.033571
vn  0.777673 0.626546 0.051623
vn  0.727446 0.654417 -0.206303
vn  0.861561 -0.400053 -0.312523
vn  0.829978 -0.244716 -0.501250
vn  0.800219 -0.084336 -0.593749
vn  0.803251 0.145533 -0.577588
vn  0.739421 0.323054 -0.590671
vn  0.670619 0.525324 -0.523741
vn  0.746236 0.216506 -0.629490
vn  0.751113 0.205071 -0.627515
vn  0.845711 -0.000225 -0.533642
vn  0.819162 -0.032521 -0.572639
vn  0.268286 0.046176 -0.962232
vn  0.367535 -0.254903 -0.894395
vn  0.915289 0.200565 -0.349313
vn  0.831886 0.314182 -0.457445
vn  0.955597 0.219383 -0.196736
vn  0.863589 0.437409 -0.250773
vn  0.185895 0.901158 -0.391609
vn  0.226691 0.665500 -0.711141
vn  0.361782 0.376895 -0.852680
vn  0.347953 0.052249 -0.936055
vn  0.689642 -0.202352 -0.695304
vn  0.812876 -0.178426 -0.554433
vn  0.883299 -0.262333 -0.388541
vn  0.397757 -0.524708 -0.752642
vn  0.479845 -0.742830 -0.466854
vn  0.866049 -0.441973 -0.233707
vn  0.275075 0.961315 0.014417
vn  -0.716139 0.697665 0.020205
vn  -0.716270 0.636772 -0.285445
vn  -0.661132 0.492309 -0.566159
vn  -0.597268 0.252220 -0.761352
vn  -0.719231 -0.143399 -0.679811
vn  -0.784195 -0.291817 -0.547614
vn  0.808937 -0.301399 -0.504757
vn  -0.540274 -0.582994 -0.606813
vn  0.560755 -0.762013 -0.323867
vn  -0.615499 -0.733738 -0.287731
vn  -0.366353 -0.924608 0.104334
vn  0.464796 -0.885114 -0.023208
vn  0.874661 -0.483571 -0.033571
vn  0.861561 -0.400053 -0.312523
vn  0.829978 -0.244716 -0.501250
vn  0.800219 -0.084336 -0.593749
vn  0.803251 0.145533 -0.577588
vn  0.739421 0.323054 -0.590671
vn  0.670619 0.525324 -0.523741
vn  0.727446 0.654417 -0.206303
vn  0.777673 0.626546 0.051623
vn  0.852512 -0.283014 0.439461
vn  0.408513 -0.566252 0.715874
vn  0.926937 -0.282701 0.246715
vn  0.310598 -0.836660 0.451142
vn  0.874661 -0.483571 -0.033571
vn  0.464796 -0.885114 -0.023208
vn  0.135114 -0.900181 0.414028
vn  -0.366353 -0.924608 0.104334
vn  -0.549364 -0.748778 0.370853
vn  0.320084 -0.588446 0.742481
vn  0.358275 -0.269792 0.893785
vn  0.830924 -0.087307 0.549494
vn  0.263355 0.065259 0.962489
vn  0.838593 0.153225 0.522765
vn  0.256628 0.360129 0.896911
vn  0.812574 0.333878 0.477754
vn  0.317145 0.669625 0.671582
vn  0.832602 0.460400 0.307906
vn  0.433129 0.848366 0.304424
vn  0.778118 0.598304 0.191218
vn  0.275075 0.961315 0.014417
vn  0.777673 0.626546 0.051623
vn  0.285524 -0.259436 0.922588
vn  0.142195 0.043721 0.988873
vn  0.210402 0.285449 0.935014
vn  0.281627 0.619223 0.732973
vn  0.049308 0.942257 0.331239
vn  -0.459928 -0.581918 0.670700
vn  -0.493695 -0.338076 0.801230
vn  -0.597352 -0.065216 0.799323
vn  -0.620113 0.160052 0.768012
vn  -0.539535 0.512268 0.668194
vn  -0.923862 0.312311 0.221225
vn  -0.716139 0.697665 0.020205
vn  0.070798 0.895501 -0.439392
vn  -0.166086 0.604043 -0.779454
vn  -0.849600 0.376141 -0.369726
vn  -0.950170 -0.045898 -0.308335
vn  -0.298172 0.214260 -0.930154
vn  -0.797068 -0.589585 -0.130658
vn  -0.295193 -0.058444 -0.953648
vn  -0.692288 -0.472425 -0.545482
vn  -0.067926 -0.372999 -0.925342
vn  -0.671483 -0.695791 -0.254923
vn  -0.140761 -0.707783 -0.692264
vn  -0.905416 -0.423938 0.022313
vn  -0.419123 -0.634419 -0.649499
vn  -0.901431 -0.375172 -0.216027
vn  0.028827 0.997224 0.068653
vn  0.145921 0.989178 0.015283
vn  0.197393 0.875510 -0.441042
vn  0.051125 0.678390 -0.732921
vn  -0.133806 0.297592 -0.945270
vn  -0.125520 -0.020271 -0.991884
vn  0.161999 -0.360780 -0.918474
vn  -0.893596 -0.240253 -0.379163
vn  -0.857096 -0.094505 -0.506415
vn  -0.862043 0.101901 -0.496486
vn  -0.689210 0.449074 -0.568614
vn  -0.770848 0.580817 -0.261619
vn  -0.802859 0.595342 -0.031373
vn  -0.966507 -0.211272 0.145697
vn  -0.613231 0.676647 0.407549
vn  -0.790809 0.608923 0.061921

g B1230
usemtl B1230_3
f  1/1/1 2/2/2 3/3/3
f  4/4/4 2/2/2 5/5/5
f  1/1/1 5/5/5 2/2/2
f  5/5/5 1/1/1 6/6/6
f  7/7/7 6/6/6 1/1/1
f  8/8/8 9/9/9 10/10/10
f  11/11/11 10/10/10 9/9/9
f  12/12/12 10/10/10 11/11/11
f  13/13/13 10/10/10 12/12/12
f  14/14/14 10/10/10 13/13/13
f  15/15/15 10/10/10 14/14/14
f  10/10/10 15/15/15 16/16/16
f  5/5/5 16/16/16 15/15/15
f  6/6/6 16/16/16 5/5/5
f  17/17/17 16/16/16 6/6/6
f  16/16/16 17/17/17 18/18/18
f  19/19/19 18/18/18 17/17/17
f  20/20/20 18/18/18 19/19/19
f  18/18/18 20/20/20 21/21/21
f  22/22/22 21/21/21 20/20/20
f  21/21/21 22/22/22 23/23/23
f  24/24/24 23/23/23 22/22/22
f  23/23/23 24/24/24 25/25/25
f  24/24/24 26/26/26 25/25/25
f  25/25/25 26/26/26 27/27/27
f  27/27/27 26/26/26 28/28/28
f  29/29/29 28/28/28 26/26/26
f  30/30/30 28/28/28 29/29/29
f  28/28/28 30/30/30 31/31/31
f  32/32/32 31/31/31 30/30/30
f  31/31/31 32/32/32 15/15/15
f  5/5/5 15/15/15 32/32/32
f  33/33/33 34/34/34 35/35/35
f  35/35/35 34/34/34 36/36/36
f  37/37/37 36/36/36 34/34/34
f  36/36/36 37/37/37 38/38/38
f  34/34/34 39/39/39 37/37/37
f  40/40/40 37/37/37 39/39/39
f  37/37/37 40/40/40 41/41/41
f  41/41/41 40/40/40 42/42/42
f  43/43/43 42/42/42 40/40/40
f  42/42/42 43/43/43 44/44/44
f  45/45/45 46/46/46 44/44/44
f  47/47/47 44/44/44 46/46/46
f  44/44/44 47/47/47 42/42/42
f  48/48/48 42/42/42 47/47/47
f  49/49/49 50/50/50 51/51/51
f  51/51/51 50/50/50 52/52/52
f  53/53/53 52/52/52 50/50/50
f  52/52/52 53/53/53 54/54/54
f  50/50/50 49/49/49 55/55/55
f  56/56/56 55/55/55 49/49/49
f  55/55/55 56/56/56 57/57/57
f  57/57/57 56/56/56 58/58/58
f  58/58/58 56/56/56 59/59/59
f  59/59/59 56/56/56 60/60/60
f  49/49/49 60/60/60 56/56/56
f  60/60/60 49/49/49 61/61/61
f  51/51/51 61/61/61 49/49/49
f  61/61/61 51/51/51 62/62/62
f  62/62/62 51/51/51 63/63/63
f  52/52/52 63/63/63 51/51/51
f  63/63/63 52/52/52 64/64/64
f  54/54/54 64/64/64 52/52/52
f  64/64/64 54/54/54 65/65/65
f  66/66/66 65/65/65 54/54/54
f  67/67/67 65/65/65 66/66/66
f  68/68/68 65/65/65 67/67/67
f  69/69/69 59/59/59 70/70/70
f  70/70/70 59/59/59 71/71/71
f  60/60/60 71/71/71 59/59/59
f  71/71/71 60/60/60 72/72/72
f  61/61/61 72/72/72 60/60/60
f  72/72/72 61/61/61 73/73/73
f  62/62/62 73/73/73 61/61/61
f  73/73/73 62/62/62 74/74/74
f  63/63/63 74/74/74 62/62/62
f  74/74/74 63/63/63 75/75/75
f  76/76/76 75/75/75 63/63/63
f  75/75/75 76/76/76 77/77/77
f  78/78/78 77/77/77 76/76/76
f  77/77/77 78/78/78 79/79/79
f  79/79/79 78/78/78 80/80/80
f  68/68/68 80/80/80 78/78/78
f  80/80/80 68/68/68 81/81/81
f  67/67/67 81/81/81 68/68/68
f  68/68/68 78/78/78 65/65/65
f  76/76/76 65/65/65 78/78/78
f  65/65/65 76/76/76 64/64/64
f  63/63/63 64/64/64 76/76/76
f  82/82/82 81/81/81 83/83/83
f  67/67/67 83/83/83 81/81/81
f  83/83/83 67/67/67 84/84/84
f  66/66/66 84/84/84 67/67/67
f  84/84/84 66/66/66 85/85/85
f  54/54/54 85/85/85 66/66/66
f  85/85/85 54/54/54 86/86/86
f  53/53/53 86/86/86 54/54/54
f  86/86/86 53/53/53 87/87/87
f  50/50/50 87/87/87 53/53/53
f  87/87/87 50/50/50 88/88/88
f  55/55/55 88/88/88 50/50/50
f  88/88/88 55/55/55 89/89/89
f  57/57/57 89/89/89 55/55/55
f  89/89/89 57/57/57 90/90/90
f  58/58/58 90/90/90 57/57/57
f  90/90/90 58/58/58 69/69/69
f  59/59/59 69/69/69 58/58/58
f  91/91/91 92/92/92 93/93/93
f  94/94/94 93/93/93 92/92/92
f  93/93/93 94/94/94 95/95/95
f  95/95/95 94/94/94 96/96/96
f  96/96/96 94/94/94 97/97/97
f  92/92/92 97/97/97 94/94/94
f  98/98/98 96/96/96 99/99/99
f  97/97/97 99/99/99 96/96/96
f  99/99/99 97/97/97 100/100/100
f  92/92/92 100/100/100 97/97/97
f  100/100/100 92/92/92 101/101/101
f  91/91/91 101/101/101 92/92/92
f  102/102/102 101/101/101 91/91/91
f  101/101/101 102/102/102 103/103/103
f  104/104/104 103/103/103 102/102/102
f  103/103/103 104/104/104 105/105/105
f  106/106/106 105/105/105 104/104/104
f  105/105/105 106/106/106 107/107/107
f  108/108/108 107/107/107 106/106/106
f  107/107/107 108/108/108 109/109/109
f  110/110/110 109/109/109 108/108/108
f  109/109/109 110/110/110 111/111/111
f  112/112/112 111/111/111 110/110/110
f  100/100/100 101/101/101 113/113/113
f  103/103/103 113/113/113 101/101/101
f  113/113/113 103/103/103 114/114/114
f  105/105/105 114/114/114 103/103/103
f  114/114/114 105/105/105 115/115/115
f  107/107/107 115/115/115 105/105/105
f  115/115/115 107/107/107 116/116/116
f  109/109/109 116/116/116 107/107/107
f  116/116/116 109/109/109 117/117/117
f  99/99/99 100/100/100 118/118/118
f  113/113/113 118/118/118 100/100/100
f  118/118/118 113/113/113 119/119/119
f  114/114/114 119/119/119 113/113/113
f  119/119/119 114/114/114 120/120/120
f  115/115/115 120/120/120 114/114/114
f  120/120/120 115/115/115 121/121/121
f  116/116/116 121/121/121 115/115/115
f  121/121/121 116/116/116 122/122/122
f  117/117/117 122/122/122 116/116/116
f  122/122/122 117/117/117 123/123/123
f  123/123/123 117/117/117 124/124/124
f  109/109/109 124/124/124 117/117/117
f  124/124/124 109/109/109 111/111/111
f  125/125/125 126/126/126 127/127/127
f  127/127/127 126/126/126 128/128/128
f  129/129/129 128/128/128 126/126/126
f  128/128/128 129/129/129 130/130/130
f  131/131/131 130/130/130 129/129/129
f  130/130/130 131/131/131 132/132/132
f  133/133/133 132/132/132 131/131/131
f  132/132/132 133/133/133 134/134/134
f  135/135/135 134/134/134 133/133/133
f  134/134/134 135/135/135 136/136/136
f  137/137/137 136/136/136 135/135/135
f  136/136/136 137/137/137 138/138/138
f  139/139/139 140/140/140 125/125/125
f  141/141/141 125/125/125 140/140/140
f  125/125/125 141/141/141 126/126/126
f  142/142/142 126/126/126 141/141/141
f  126/126/126 142/142/142 129/129/129
f  143/143/143 129/129/129 142/142/142
f  129/129/129 143/143/143 131/131/131
f  144/144/144 131/131/131 143/143/143
f  131/131/131 144/144/144 133/133/133
f  145/145/145 133/133/133 144/144/144
f  133/133/133 145/145/145 135/135/135
f  137/137/137 135/135/135 145/145/145
f  138/138/138 137/137/137 146/146/146
f  145/145/145 146/146/146 137/137/137
f  146/146/146 145/145/145 147/147/147
f  144/144/144 147/147/147 145/145/145
f  147/147/147 144/144/144 148/148/148
f  143/143/143 148/148/148 144/144/144
f  148/148/148 143/143/143 149/149/149
f  142/142/142 149/149/149 143/143/143
f  149/149/149 142/142/142 150/150/150
f  141/141/141 150/150/150 142/142/142
f  150/150/150 141/141/141 151/151/151
f  140/140/140 151/151/151 141/141/141
f  151/151/151 140/140/140 152/152/152
f  139/139/139 152/152/152 140/140/140
f  152/152/152 139/139/139 153/153/153
f  153/153/153 139/139/139 154/154/154
f  125/125/125 154/154/154 139/139/139
f  154/154/154 125/125/125 127/127/127

g
