# Noesis .obj export.
#
mtllib b1266.mtl
g
v  -0.059835 0.098387 0.108751
v  -0.037711 0.106250 0.128327
v  -0.059835 0.122028 0.104661
v  -0.037711 0.130777 0.124540
v  -0.059835 0.145426 0.098759
v  -0.037711 0.154821 0.116271
v  -0.059835 0.164699 0.087443
v  -0.037711 0.173432 0.101964
v  -0.059835 0.176569 0.070523
v  -0.037711 0.183907 0.082921
v  -0.014013 0.110037 0.142612
v  -0.014013 0.135533 0.137998
v  -0.014013 0.158821 0.125290
v  -0.014013 0.177631 0.110151
v  -0.014013 0.190619 0.092009
v  0.010734 0.111868 0.150099
v  0.010734 0.136672 0.144035
v  0.010734 0.160043 0.129314
v  0.010734 0.179127 0.112771
v  0.010734 0.192329 0.094268
v  0.036006 0.186677 0.087004
v  0.036006 0.175571 0.107311
v  0.036005 0.156838 0.126564
v  0.036005 0.136019 0.143195
v  0.036005 0.115089 0.153149
v  -0.059835 0.098387 -0.108751
v  -0.059835 0.122028 -0.104662
v  -0.037711 0.106250 -0.128328
v  -0.037711 0.130776 -0.124541
v  -0.014013 0.110036 -0.142612
v  -0.014013 0.135533 -0.137999
v  0.010734 0.111868 -0.150100
v  0.010734 0.136672 -0.144035
v  0.036005 0.115089 -0.153150
v  0.036005 0.136018 -0.143196
v  -0.059835 0.145426 -0.098759
v  -0.037711 0.154820 -0.116272
v  -0.014013 0.158820 -0.125290
v  0.010734 0.160042 -0.129315
v  0.036005 0.156837 -0.126565
v  -0.059835 0.164698 -0.087443
v  -0.037711 0.173431 -0.101964
v  -0.014013 0.177630 -0.110152
v  0.010734 0.179126 -0.112772
v  0.036006 0.175571 -0.107311
v  -0.059835 0.176569 -0.070523
v  -0.037711 0.183906 -0.082921
v  -0.014013 0.190619 -0.092010
v  0.010734 0.192328 -0.094268
v  0.036006 0.186677 -0.087005

vt  1.000000 -1.000000 0.000000
vt  1.000000 -0.750000 0.000000
vt  0.750000 -1.000000 0.000000
vt  0.750000 -0.750000 0.000000
vt  0.500000 -1.000000 0.000000
vt  0.500000 -0.750000 0.000000
vt  0.250000 -1.000000 0.000000
vt  0.250000 -0.750000 0.000000
vt  0.000000 -1.000000 0.000000
vt  0.000000 -0.750000 0.000000
vt  1.000000 -0.500000 0.000000
vt  0.750000 -0.500000 0.000000
vt  0.500000 -0.500000 0.000000
vt  0.250000 -0.500000 0.000000
vt  0.000000 -0.500000 0.000000
vt  1.000000 -0.250000 0.000000
vt  0.750000 -0.250000 0.000000
vt  0.500000 -0.250000 0.000000
vt  0.250000 -0.250000 0.000000
vt  0.000000 -0.250000 0.000000
vt  0.000000 -0.000000 0.000000
vt  0.250000 -0.000000 0.000000
vt  0.500000 -0.000000 0.000000
vt  0.750000 -0.000000 0.000000
vt  1.000000 -0.000000 0.000000
vt  1.000000 -1.000000 0.000000
vt  0.750000 -1.000000 0.000000
vt  1.000000 -0.750000 0.000000
vt  0.750000 -0.750000 0.000000
vt  1.000000 -0.500000 0.000000
vt  0.750000 -0.500000 0.000000
vt  1.000000 -0.250000 0.000000
vt  0.750000 -0.250000 0.000000
vt  1.000000 -0.000000 0.000000
vt  0.750000 -0.000000 0.000000
vt  0.500000 -1.000000 0.000000
vt  0.500000 -0.750000 0.000000
vt  0.500000 -0.500000 0.000000
vt  0.500000 -0.250000 0.000000
vt  0.500000 -0.000000 0.000000
vt  0.250000 -1.000000 0.000000
vt  0.250000 -0.750000 0.000000
vt  0.250000 -0.500000 0.000000
vt  0.250000 -0.250000 0.000000
vt  0.250000 -0.000000 0.000000
vt  0.000000 -1.000000 0.000000
vt  0.000000 -0.750000 0.000000
vt  0.000000 -0.500000 0.000000
vt  0.000000 -0.250000 0.000000
vt  0.000000 -0.000000 0.000000

vn  -0.681985 0.124669 0.720662
vn  -0.614575 0.123300 0.779163
vn  -0.689906 0.144744 0.709281
vn  -0.601709 0.189182 0.775987
vn  -0.678131 0.288657 0.675882
vn  -0.533497 0.412924 0.738156
vn  -0.612852 0.562506 0.554977
vn  -0.456412 0.672904 0.582141
vn  -0.538877 0.711970 0.450234
vn  -0.433687 0.778880 0.453057
vn  -0.412898 0.157011 0.897142
vn  -0.366732 0.303595 0.879396
vn  -0.275181 0.538476 0.796441
vn  -0.243978 0.713244 0.657083
vn  -0.272431 0.782559 0.559807
vn  -0.209944 0.217467 0.953222
vn  -0.114496 0.401569 0.908643
vn  -0.007797 0.603085 0.797639
vn  0.052512 0.743370 0.666817
vn  0.087341 0.826295 0.556425
vn  0.316894 0.832130 0.455124
vn  0.264651 0.763214 0.589461
vn  0.183268 0.644427 0.742379
vn  0.070455 0.503522 0.861105
vn  -0.053245 0.334933 0.940736
vn  -0.681985 0.124666 -0.720663
vn  -0.689906 0.144741 -0.709281
vn  -0.614575 0.123296 -0.779163
vn  -0.601709 0.189179 -0.775988
vn  -0.412898 0.157007 -0.897142
vn  -0.366732 0.303591 -0.879398
vn  -0.209944 0.217463 -0.953223
vn  -0.114496 0.401566 -0.908645
vn  -0.053246 0.334929 -0.940738
vn  0.070455 0.503518 -0.861107
vn  -0.678131 0.288654 -0.675883
vn  -0.533497 0.412922 -0.738158
vn  -0.275181 0.538473 -0.796444
vn  -0.007798 0.603081 -0.797642
vn  0.183267 0.644424 -0.742382
vn  -0.612852 0.562504 -0.554979
vn  -0.456412 0.672902 -0.582144
vn  -0.243978 0.713241 -0.657086
vn  0.052512 0.743367 -0.666820
vn  0.264651 0.763211 -0.589464
vn  -0.538877 0.711968 -0.450237
vn  -0.433688 0.778878 -0.453061
vn  -0.272431 0.782557 -0.559810
vn  0.087341 0.826293 -0.556427
vn  0.316893 0.832128 -0.455128

g B1266
usemtl B1266_3
f  1/1/1 2/2/2 3/3/3
f  4/4/4 3/3/3 2/2/2
f  3/3/3 4/4/4 5/5/5
f  6/6/6 5/5/5 4/4/4
f  5/5/5 6/6/6 7/7/7
f  8/8/8 7/7/7 6/6/6
f  7/7/7 8/8/8 9/9/9
f  10/10/10 9/9/9 8/8/8
f  2/2/2 11/11/11 4/4/4
f  12/12/12 4/4/4 11/11/11
f  4/4/4 12/12/12 6/6/6
f  13/13/13 6/6/6 12/12/12
f  6/6/6 13/13/13 8/8/8
f  14/14/14 8/8/8 13/13/13
f  8/8/8 14/14/14 10/10/10
f  15/15/15 10/10/10 14/14/14
f  11/11/11 16/16/16 12/12/12
f  17/17/17 12/12/12 16/16/16
f  12/12/12 17/17/17 13/13/13
f  18/18/18 13/13/13 17/17/17
f  13/13/13 18/18/18 14/14/14
f  19/19/19 14/14/14 18/18/18
f  14/14/14 19/19/19 15/15/15
f  20/20/20 15/15/15 19/19/19
f  21/21/21 20/20/20 22/22/22
f  19/19/19 22/22/22 20/20/20
f  22/22/22 19/19/19 23/23/23
f  18/18/18 23/23/23 19/19/19
f  23/23/23 18/18/18 24/24/24
f  17/17/17 24/24/24 18/18/18
f  24/24/24 17/17/17 25/25/25
f  16/16/16 25/25/25 17/17/17
f  26/26/26 27/27/27 28/28/28
f  29/29/29 28/28/28 27/27/27
f  28/28/28 29/29/29 30/30/30
f  31/31/31 30/30/30 29/29/29
f  30/30/30 31/31/31 32/32/32
f  33/33/33 32/32/32 31/31/31
f  32/32/32 33/33/33 34/34/34
f  35/35/35 34/34/34 33/33/33
f  27/27/27 36/36/36 29/29/29
f  37/37/37 29/29/29 36/36/36
f  29/29/29 37/37/37 31/31/31
f  38/38/38 31/31/31 37/37/37
f  31/31/31 38/38/38 33/33/33
f  39/39/39 33/33/33 38/38/38
f  33/33/33 39/39/39 35/35/35
f  40/40/40 35/35/35 39/39/39
f  36/36/36 41/41/41 37/37/37
f  42/42/42 37/37/37 41/41/41
f  37/37/37 42/42/42 38/38/38
f  43/43/43 38/38/38 42/42/42
f  38/38/38 43/43/43 39/39/39
f  44/44/44 39/39/39 43/43/43
f  39/39/39 44/44/44 40/40/40
f  45/45/45 40/40/40 44/44/44
f  41/41/41 46/46/46 42/42/42
f  47/47/47 42/42/42 46/46/46
f  42/42/42 47/47/47 43/43/43
f  48/48/48 43/43/43 47/47/47
f  43/43/43 48/48/48 44/44/44
f  49/49/49 44/44/44 48/48/48
f  44/44/44 49/49/49 45/45/45
f  50/50/50 45/45/45 49/49/49

g
