# Noesis .obj export.
#
mtllib c1104.mtl
g
v  0.532630 -0.084098 -0.000017
v  0.567298 -0.093288 0.396101
v  0.511168 -0.256403 0.267969
v  0.532656 -0.084028 -0.000017
v  0.603582 0.074909 0.271968
v  0.606648 0.072236 -0.266616
v  0.571770 -0.097187 -0.389475
v  0.532630 -0.084098 -0.000017
v  0.514176 -0.259025 -0.260396
v  0.532656 -0.084028 -0.000017
v  0.470730 -0.445766 -0.186882
v  0.468552 -0.443867 0.195822
v  0.466132 -0.415323 -0.000016
v  0.532656 -0.084028 -0.000017
v  0.667838 0.266872 0.199885
v  0.651268 0.241671 -0.000018
v  0.670089 0.264909 -0.195697
v  0.143908 0.019290 0.232291
v  0.264195 0.109886 0.182474
v  0.175225 0.141365 0.183933
v  0.202902 0.232378 0.113823
v  0.291180 0.198245 0.113840
v  0.279825 0.102081 0.172018
v  0.233571 -0.009535 0.229357
v  0.358062 0.070637 0.170755
v  0.326798 -0.029236 0.237262
v  0.462866 0.067331 0.196704
v  0.430852 -0.056483 0.290372
v  0.603582 0.074909 0.271968
v  0.567298 -0.093288 0.396101
v  0.114732 -0.099596 0.201213
v  0.205069 -0.125753 0.186940
v  0.093094 -0.195047 0.115314
v  0.184107 -0.218535 0.115294
v  0.088649 -0.212735 -0.000858
v  0.179152 -0.237515 -0.000016
v  0.185402 -0.219664 -0.112160
v  0.199925 -0.207257 -0.000017
v  0.272059 -0.249487 -0.112927
v  0.279645 -0.234827 -0.000016
v  0.364807 -0.303801 -0.000016
v  0.270748 -0.248343 0.117433
v  0.360549 -0.322393 0.143141
v  0.396750 -0.186154 0.194161
v  0.511168 -0.256403 0.267969
v  0.305411 -0.132417 0.160601
v  0.218668 -0.109685 0.180163
v  0.468552 -0.443867 0.195822
v  0.466132 -0.415323 -0.000016
v  0.362142 -0.323782 -0.136773
v  0.470730 -0.445766 -0.186882
v  0.514176 -0.259025 -0.260396
v  0.398930 -0.188054 -0.188722
v  0.434132 -0.059343 -0.285817
v  0.571770 -0.097187 -0.389475
v  0.606648 0.072236 -0.266616
v  0.465085 0.065396 -0.193021
v  0.329483 -0.031576 -0.234274
v  0.359869 0.069062 -0.168404
v  0.236173 -0.011803 -0.227720
v  0.307218 -0.133993 -0.156839
v  0.220428 -0.111220 -0.177703
v  0.207184 -0.127596 -0.184481
v  0.670089 0.264909 -0.195697
v  0.504330 0.209330 -0.139984
v  0.385520 0.187858 -0.114464
v  0.293099 0.203356 -0.000018
v  0.292475 0.197116 -0.113615
v  0.281585 0.100547 -0.170842
v  0.266269 0.108079 -0.181677
v  0.204205 0.231242 -0.115034
v  0.177323 0.139536 -0.184553
v  0.146552 0.016985 -0.232053
v  0.116871 -0.101461 -0.200134
v  0.094397 -0.196182 -0.113542
v  0.651268 0.241671 -0.000018
v  0.497173 0.191446 -0.000018
v  0.385280 0.171878 -0.000018
v  0.384208 0.189002 0.115931
v  0.502721 0.210733 0.142697
v  0.667838 0.266872 0.199885
v  0.293099 0.203356 -0.000018
v  0.298430 0.216298 0.111775
v  0.291180 0.198245 0.113840
v  0.202902 0.232378 0.113823
v  0.209207 0.251352 0.111859
v  0.291786 0.240383 -0.000018
v  0.218261 0.267850 -0.000018
v  0.210489 0.250235 -0.113184
v  0.293106 0.203374 -0.000018
v  0.299702 0.215189 -0.111644
v  0.204205 0.231242 -0.115034
v  0.292475 0.197116 -0.113615
v  0.093094 -0.195047 0.115314
v  0.198558 0.035617 -0.000017
v  0.088649 -0.212735 -0.000858
v  0.094397 -0.196182 -0.113542
v  0.114732 -0.099596 0.201213
v  0.143908 0.019290 0.232291
v  0.175225 0.141365 0.183933
v  0.202902 0.232378 0.113823
v  0.209207 0.251352 0.111859
v  0.218261 0.267850 -0.000018
v  0.177323 0.139536 -0.184553
v  0.146552 0.016985 -0.232053
v  0.116871 -0.101461 -0.200134
v  0.210489 0.250235 -0.113184
v  0.204205 0.231242 -0.115034

vt  0.648511 -0.986270 0.000000
vt  0.650037 -0.621140 0.000000
vt  0.494562 -0.739826 0.000000
vt  0.648579 -0.986271 0.000000
vt  0.804439 -0.736579 0.000000
vt  0.804439 -0.736579 0.000000
vt  0.650037 -0.621140 0.000000
vt  0.648511 -0.986270 0.000000
vt  0.494562 -0.739826 0.000000
vt  0.648381 -0.986269 0.000000
vt  0.321076 -0.805530 0.000000
vt  0.321076 -0.805530 0.000000
vt  0.344490 -0.983029 0.000000
vt  0.648775 -0.986271 0.000000
vt  0.987158 -0.802680 0.000000
vt  0.961260 -0.985865 0.000000
vt  0.987158 -0.802680 0.000000
vt  0.344951 -0.157647 0.000000
vt  0.496635 -0.163186 0.000000
vt  0.449209 -0.079509 0.000000
vt  0.554593 -0.018268 0.000000
vt  0.597300 -0.107569 0.000000
vt  0.510345 -0.195956 0.000000
vt  0.391218 -0.250041 0.000000
vt  0.567067 -0.258612 0.000000
vt  0.451013 -0.343901 0.000000
vt  0.643121 -0.342021 0.000000
vt  0.521274 -0.459642 0.000000
vt  0.752998 -0.467216 0.000000
vt  0.617239 -0.621905 0.000000
vt  0.231746 -0.205558 0.000000
vt  0.267015 -0.293565 0.000000
vt  0.124105 -0.253993 0.000000
vt  0.158034 -0.350353 0.000000
vt  0.011328 -0.279642 0.000000
vt  0.035350 -0.369865 0.000000
vt  0.158034 -0.350353 0.000000
vt  0.045938 -0.395088 0.000000
vt  0.187282 -0.451272 0.000000
vt  0.063133 -0.467030 0.000000
vt  0.062454 -0.566754 0.000000
vt  0.187282 -0.451272 0.000000
vt  0.211019 -0.581166 0.000000
vt  0.352364 -0.510026 0.000000
vt  0.412012 -0.657104 0.000000
vt  0.318637 -0.402594 0.000000
vt  0.281648 -0.322268 0.000000
vt  0.238934 -0.758964 0.000000
vt  0.046063 -0.716471 0.000000
vt  0.211019 -0.581166 0.000000
vt  0.238934 -0.758964 0.000000
vt  0.412012 -0.657104 0.000000
vt  0.352364 -0.510026 0.000000
vt  0.521274 -0.459642 0.000000
vt  0.617239 -0.621905 0.000000
vt  0.752998 -0.467216 0.000000
vt  0.643121 -0.342021 0.000000
vt  0.451013 -0.343901 0.000000
vt  0.567067 -0.258612 0.000000
vt  0.391218 -0.250041 0.000000
vt  0.318637 -0.402594 0.000000
vt  0.281648 -0.322268 0.000000
vt  0.267015 -0.293565 0.000000
vt  0.939953 -0.364224 0.000000
vt  0.782776 -0.249379 0.000000
vt  0.674868 -0.169415 0.000000
vt  0.654301 -0.011361 0.000000
vt  0.597300 -0.107569 0.000000
vt  0.510345 -0.195956 0.000000
vt  0.496635 -0.163186 0.000000
vt  0.554593 -0.018268 0.000000
vt  0.449209 -0.079509 0.000000
vt  0.344951 -0.157647 0.000000
vt  0.231746 -0.205558 0.000000
vt  0.124105 -0.253993 0.000000
vt  0.989321 -0.164539 0.000000
vt  0.834120 -0.106865 0.000000
vt  0.735559 -0.059194 0.000000
vt  0.674868 -0.169415 0.000000
vt  0.782776 -0.249379 0.000000
vt  0.939953 -0.364224 0.000000
vt  0.034235 -0.771905 0.000000
vt  0.226810 -0.812569 0.000000
vt  0.246144 -0.796145 0.000000
vt  0.268640 -0.972102 0.000000
vt  0.232716 -0.978289 0.000000
vt  0.025643 -0.837930 0.000000
vt  0.027658 -0.979093 0.000000
vt  0.232716 -0.978289 0.000000
vt  0.034219 -0.771922 0.000000
vt  0.226810 -0.812569 0.000000
vt  0.268640 -0.972102 0.000000
vt  0.246144 -0.796145 0.000000
vt  0.031319 -0.105161 0.000000
vt  0.210401 -0.018484 0.000000
vt  0.015825 -0.021660 0.000000
vt  0.031319 -0.105161 0.000000
vt  0.101935 -0.157843 0.000000
vt  0.189684 -0.189153 0.000000
vt  0.279859 -0.154106 0.000000
vt  0.348018 -0.102903 0.000000
vt  0.362258 -0.100979 0.000000
vt  0.376631 -0.018542 0.000000
vt  0.279859 -0.154106 0.000000
vt  0.189684 -0.189153 0.000000
vt  0.101935 -0.157843 0.000000
vt  0.362258 -0.100979 0.000000
vt  0.348018 -0.102903 0.000000

vn  0.240466 0.325636 0.914405
vn  0.384088 -0.110688 0.916638
vn  0.410968 -0.531034 0.741018
vn  0.958324 -0.285585 0.007457
vn  0.617471 0.232893 0.751326
vn  0.626765 0.224676 -0.746114
vn  0.395149 -0.119909 -0.910757
vn  0.253392 0.314770 -0.914720
vn  0.420415 -0.538006 -0.730617
vn  0.958324 -0.285585 0.007457
vn  0.171696 -0.872365 -0.457712
vn  0.166253 -0.866430 0.470807
vn  0.286353 -0.958062 0.010890
vn  0.958324 -0.285585 0.007457
vn  0.580995 0.660753 0.475236
vn  0.734674 0.678415 0.002745
vn  0.586952 0.656492 -0.473820
vn  -0.663260 0.223757 0.714157
vn  0.402031 0.360520 0.841663
vn  -0.629118 0.512788 0.584174
vn  -0.775697 0.467849 0.423570
vn  0.371240 0.500112 0.782348
vn  0.406343 0.366847 0.836845
vn  0.068189 -0.019055 0.997490
vn  -0.035738 0.495507 0.867868
vn  -0.270873 0.059207 0.960793
vn  -0.318079 0.522076 0.791367
vn  -0.526772 0.142304 0.838010
vn  0.617471 0.232893 0.751326
vn  0.384088 -0.110688 0.916638
vn  -0.753278 -0.173898 0.634297
vn  0.389520 -0.543813 0.743332
vn  -0.815932 -0.447262 0.366349
vn  -0.149633 -0.847847 0.508691
vn  -0.878472 -0.477774 -0.004426
vn  0.311053 -0.950381 0.004710
vn  -0.141645 -0.852861 -0.502559
vn  0.257186 -0.966335 0.007182
vn  -0.490590 -0.716167 -0.496413
vn  -0.485711 -0.874109 0.004213
vn  -0.680801 -0.732465 0.002392
vn  -0.496492 -0.709468 0.500151
vn  -0.724226 -0.540319 0.428429
vn  -0.549918 -0.279891 0.786925
vn  0.410968 -0.531034 0.741018
vn  -0.268385 -0.412233 0.870651
vn  0.434115 -0.488425 0.756957
vn  0.166253 -0.866430 0.470807
vn  0.286353 -0.958062 0.010890
vn  -0.719650 -0.545908 -0.429055
vn  0.171696 -0.872365 -0.457712
vn  0.420415 -0.538006 -0.730617
vn  -0.540385 -0.287988 -0.790599
vn  -0.516598 0.133812 -0.845707
vn  0.395149 -0.119909 -0.910757
vn  0.626765 0.224676 -0.746114
vn  -0.308183 0.514172 -0.800406
vn  -0.258997 0.049249 -0.964622
vn  -0.024849 0.486643 -0.873248
vn  0.080428 -0.029326 -0.996329
vn  -0.258162 -0.420970 -0.869561
vn  0.450704 -0.495602 -0.742459
vn  0.405589 -0.550623 -0.729597
vn  0.586952 0.656492 -0.473820
vn  -0.360077 0.826423 -0.432862
vn  -0.065464 0.865181 -0.497168
vn  0.897792 0.440410 0.002812
vn  0.380757 0.491922 -0.782967
vn  0.419640 0.357193 -0.834455
vn  0.415575 0.350231 -0.839426
vn  -0.770885 0.463967 -0.436429
vn  -0.622320 0.506930 -0.596439
vn  -0.654594 0.216931 -0.724187
vn  -0.746535 -0.179549 -0.640661
vn  -0.811628 -0.449884 -0.372645
vn  0.734674 0.678415 0.002745
vn  -0.233382 0.972372 -0.004973
vn  0.075654 0.997128 -0.003450
vn  -0.072184 0.869551 0.488539
vn  -0.365327 0.830023 0.421425
vn  0.580995 0.660753 0.475236
vn  0.897792 0.440410 0.002812
vn  0.759934 0.293346 0.580042
vn  0.371240 0.500112 0.782348
vn  -0.775697 0.467849 0.423570
vn  -0.455717 0.699320 0.550704
vn  0.769573 0.638558 0.001081
vn  -0.476396 0.879211 -0.005928
vn  -0.449184 0.693773 -0.562950
vn  0.981308 -0.192329 0.006643
vn  0.766723 0.287716 -0.573896
vn  -0.770885 0.463967 -0.436429
vn  0.380757 0.491922 -0.782967
vn  -0.815932 -0.447262 0.366349
vn  -0.971941 0.235141 -0.006258
vn  -0.878472 -0.477774 -0.004426
vn  -0.811628 -0.449884 -0.372645
vn  -0.753278 -0.173898 0.634297
vn  -0.663260 0.223757 0.714157
vn  -0.629118 0.512788 0.584174
vn  -0.775697 0.467849 0.423570
vn  -0.455717 0.699320 0.550704
vn  -0.476396 0.879211 -0.005928
vn  -0.622320 0.506930 -0.596439
vn  -0.654594 0.216931 -0.724187
vn  -0.746535 -0.179549 -0.640661
vn  -0.449184 0.693773 -0.562950
vn  -0.770885 0.463967 -0.436429

g C1104
usemtl mesh1material
f  1/1/1 2/2/2 3/3/3
f  4/4/4 5/5/5 2/2/2
f  6/6/6 4/4/4 7/7/7
f  7/7/7 8/8/8 9/9/9
f  9/9/9 10/10/10 11/11/11
f  3/3/3 12/12/12 10/10/10
f  13/13/13 10/10/10 12/12/12
f  10/10/10 13/13/13 11/11/11
f  5/5/5 14/14/14 15/15/15
f  16/16/16 15/15/15 14/14/14
f  6/6/6 17/17/17 14/14/14
f  16/16/16 14/14/14 17/17/17
f  18/18/18 19/19/19 20/20/20
f  21/21/21 20/20/20 22/22/22
f  19/19/19 22/22/22 20/20/20
f  22/22/22 19/19/19 23/23/23
f  24/24/24 23/23/23 19/19/19
f  23/23/23 24/24/24 25/25/25
f  26/26/26 25/25/25 24/24/24
f  25/25/25 26/26/26 27/27/27
f  28/28/28 27/27/27 26/26/26
f  27/27/27 28/28/28 29/29/29
f  30/30/30 29/29/29 28/28/28
f  19/19/19 18/18/18 24/24/24
f  31/31/31 24/24/24 18/18/18
f  24/24/24 31/31/31 32/32/32
f  33/33/33 32/32/32 31/31/31
f  32/32/32 33/33/33 34/34/34
f  35/35/35 34/34/34 33/33/33
f  34/34/34 35/35/35 36/36/36
f  37/37/37 36/36/36 35/35/35
f  36/36/36 37/37/37 38/38/38
f  39/39/39 38/38/38 37/37/37
f  38/38/38 39/39/39 40/40/40
f  41/41/41 40/40/40 39/39/39
f  40/40/40 41/41/41 42/42/42
f  43/43/43 42/42/42 41/41/41
f  42/42/42 43/43/43 44/44/44
f  45/45/45 44/44/44 43/43/43
f  44/44/44 45/45/45 28/28/28
f  30/30/30 28/28/28 45/45/45
f  28/28/28 26/26/26 44/44/44
f  46/46/46 44/44/44 26/26/26
f  44/44/44 46/46/46 42/42/42
f  34/34/34 42/42/42 46/46/46
f  42/42/42 34/34/34 38/38/38
f  36/36/36 38/38/38 34/34/34
f  26/26/26 24/24/24 46/46/46
f  47/47/47 46/46/46 24/24/24
f  46/46/46 47/47/47 34/34/34
f  32/32/32 34/34/34 47/47/47
f  32/32/32 47/47/47 24/24/24
f  42/42/42 38/38/38 40/40/40
f  45/45/45 43/43/43 48/48/48
f  49/49/49 48/48/48 43/43/43
f  43/43/43 41/41/41 49/49/49
f  50/50/50 49/49/49 41/41/41
f  49/49/49 50/50/50 51/51/51
f  52/52/52 51/51/51 50/50/50
f  41/41/41 39/39/39 50/50/50
f  53/53/53 50/50/50 39/39/39
f  50/50/50 53/53/53 52/52/52
f  54/54/54 52/52/52 53/53/53
f  52/52/52 54/54/54 55/55/55
f  56/56/56 55/55/55 54/54/54
f  56/56/56 54/54/54 57/57/57
f  58/58/58 57/57/57 54/54/54
f  57/57/57 58/58/58 59/59/59
f  60/60/60 59/59/59 58/58/58
f  54/54/54 53/53/53 58/58/58
f  61/61/61 58/58/58 53/53/53
f  58/58/58 61/61/61 60/60/60
f  62/62/62 60/60/60 61/61/61
f  60/60/60 62/62/62 63/63/63
f  37/37/37 63/63/63 62/62/62
f  62/62/62 61/61/61 37/37/37
f  39/39/39 37/37/37 61/61/61
f  53/53/53 39/39/39 61/61/61
f  64/64/64 56/56/56 65/65/65
f  57/57/57 65/65/65 56/56/56
f  65/65/65 57/57/57 66/66/66
f  59/59/59 66/66/66 57/57/57
f  67/67/67 66/66/66 68/68/68
f  59/59/59 68/68/68 66/66/66
f  68/68/68 59/59/59 69/69/69
f  60/60/60 69/69/69 59/59/59
f  69/69/69 60/60/60 70/70/70
f  71/71/71 68/68/68 72/72/72
f  70/70/70 72/72/72 68/68/68
f  72/72/72 70/70/70 73/73/73
f  60/60/60 73/73/73 70/70/70
f  73/73/73 60/60/60 74/74/74
f  63/63/63 74/74/74 60/60/60
f  74/74/74 63/63/63 75/75/75
f  37/37/37 75/75/75 63/63/63
f  75/75/75 37/37/37 35/35/35
f  65/65/65 76/76/76 64/64/64
f  76/76/76 65/65/65 77/77/77
f  66/66/66 77/77/77 65/65/65
f  77/77/77 66/66/66 78/78/78
f  67/67/67 78/78/78 66/66/66
f  78/78/78 67/67/67 79/79/79
f  22/22/22 79/79/79 67/67/67
f  79/79/79 22/22/22 25/25/25
f  23/23/23 25/25/25 22/22/22
f  25/25/25 27/27/27 79/79/79
f  80/80/80 79/79/79 27/27/27
f  79/79/79 80/80/80 77/77/77
f  76/76/76 77/77/77 80/80/80
f  79/79/79 77/77/77 78/78/78
f  68/68/68 69/69/69 70/70/70
f  29/29/29 80/80/80 27/27/27
f  76/76/76 80/80/80 81/81/81
f  29/29/29 81/81/81 80/80/80
f  82/82/82 83/83/83 84/84/84
f  85/85/85 84/84/84 83/83/83
f  85/85/85 83/83/83 86/86/86
f  87/87/87 86/86/86 83/83/83
f  86/86/86 87/87/87 88/88/88
f  89/89/89 88/88/88 87/87/87
f  83/83/83 90/90/90 87/87/87
f  91/91/91 87/87/87 90/90/90
f  87/87/87 91/91/91 89/89/89
f  92/92/92 89/89/89 91/91/91
f  92/92/92 91/91/91 93/93/93
f  82/82/82 93/93/93 91/91/91
f  94/94/94 95/95/95 96/96/96
f  97/97/97 96/96/96 95/95/95
f  94/94/94 98/98/98 95/95/95
f  99/99/99 95/95/95 98/98/98
f  95/95/95 99/99/99 100/100/100
f  100/100/100 101/101/101 95/95/95
f  102/102/102 95/95/95 101/101/101
f  95/95/95 102/102/102 103/103/103
f  104/104/104 105/105/105 95/95/95
f  106/106/106 95/95/95 105/105/105
f  95/95/95 106/106/106 97/97/97
f  103/103/103 107/107/107 95/95/95
f  108/108/108 95/95/95 107/107/107
f  95/95/95 108/108/108 104/104/104

g
