# Noesis .obj export.
#
mtllib c1103.mtl
g
v  0.143668 0.021869 -0.243241
v  0.160083 0.106144 -0.228252
v  0.211061 0.092625 -0.218562
v  0.190870 0.216756 -0.159694
v  0.120678 -0.061425 -0.220071
v  0.207900 0.012186 -0.239550
v  0.303641 0.073723 -0.282770
v  0.271334 0.173064 -0.212586
v  0.255354 0.213636 -0.111840
v  0.254149 0.161005 -0.184251
v  0.246210 0.212020 -0.095927
v  0.477821 0.203721 -0.131224
v  0.285925 0.236136 0.000014
v  0.497129 0.233309 0.000014
v  0.478571 0.203578 0.131477
v  0.246763 0.211914 0.097880
v  0.255206 0.160804 0.186062
v  0.255998 0.213513 0.113710
v  0.272552 0.172831 0.214288
v  0.191788 0.216581 0.162033
v  0.305258 0.073414 0.284110
v  0.204412 0.238692 -0.076634
v  0.216795 0.256053 0.000014
v  0.204856 0.238607 0.078904
v  0.285655 0.068621 0.247145
v  0.290130 -0.008729 0.255918
v  0.314925 -0.031018 0.308117
v  0.288993 -0.098149 0.252137
v  0.309650 -0.127231 0.288878
v  0.263593 -0.168175 0.195782
v  0.283206 -0.209201 0.221168
v  0.182549 -0.201974 0.101043
v  0.447184 0.136837 0.232267
v  0.404404 0.046818 0.273934
v  0.379627 -0.027834 0.268417
v  0.370214 -0.117977 0.258554
v  0.355967 -0.199872 0.209529
v  0.353090 -0.253760 0.132663
v  0.354657 -0.303793 0.000016
v  0.201032 -0.065792 0.227019
v  0.209273 0.011923 0.241504
v  0.212314 0.092385 0.220596
v  0.145064 0.021602 0.245671
v  0.121942 -0.061666 0.222561
v  0.168340 -0.139346 0.177002
v  0.184879 -0.236572 0.113669
v  0.188751 -0.222232 0.000015
v  0.181977 -0.201864 -0.099225
v  0.352335 -0.253616 -0.132085
v  0.262479 -0.167962 -0.194449
v  0.354773 -0.199644 -0.208902
v  0.287558 -0.097875 -0.250897
v  0.368740 -0.117695 -0.257925
v  0.288673 -0.008450 -0.254572
v  0.104677 -0.138830 0.173676
v  0.142417 -0.193181 0.098119
v  0.188532 -0.269461 0.000016
v  0.184235 -0.236449 -0.111912
v  0.281947 -0.208960 -0.220028
v  0.308005 -0.126916 -0.287823
v  0.313169 -0.030682 -0.306977
v  0.284249 0.068890 -0.245670
v  0.199741 -0.065545 -0.225103
v  0.167336 -0.139154 -0.174995
v  0.141863 -0.193075 -0.095996
v  0.150889 -0.230313 0.000016
v  0.120092 -0.237017 0.000016
v  0.099793 -0.202315 -0.094326
v  0.103693 -0.138642 -0.171209
v  0.378097 -0.027541 -0.267741
v  0.402842 0.047117 -0.273342
v  0.445860 0.137090 -0.231870
v  0.100338 -0.202419 0.096740
v  0.161392 0.105894 0.230671
v  0.421755 -0.142812 0.285785
v  0.236148 0.013931 0.234134
v  0.339727 -0.197109 0.293178
v  0.301823 -0.241859 0.208167
v  0.415017 -0.330289 0.257061
v  0.394362 -0.346263 0.168186
v  0.516140 -0.403225 0.177309
v  0.505042 -0.403003 0.098859
v  0.691213 -0.409391 0.021234
v  0.540475 -0.367436 0.183873
v  0.468026 -0.285439 0.261033
v  0.236148 0.013931 0.234134
v  0.421755 -0.142812 0.285785
v  0.339727 -0.197109 0.293178
v  0.468026 -0.285439 0.261033
v  0.415017 -0.330289 0.257061
v  0.540475 -0.367436 0.183873
v  0.516140 -0.403225 0.177309
v  0.691213 -0.409391 0.021234
v  0.505042 -0.403003 0.098859
v  0.394362 -0.346263 0.168186
v  0.301823 -0.241859 0.208167
v  0.477821 0.203721 -0.131224
v  0.497129 0.233309 0.000014
v  0.400263 -0.041533 0.000015
v  0.478571 0.203578 0.131477
v  0.447184 0.136837 0.232267
v  0.404404 0.046818 0.273934
v  0.379627 -0.027834 0.268417
v  0.370214 -0.117977 0.258554
v  0.355967 -0.199872 0.209529
v  0.353090 -0.253760 0.132663
v  0.354657 -0.303793 0.000016
v  0.352335 -0.253616 -0.132085
v  0.354773 -0.199644 -0.208902
v  0.368740 -0.117695 -0.257925
v  0.378097 -0.027541 -0.267741
v  0.402842 0.047117 -0.273342
v  0.445860 0.137090 -0.231870
v  0.099793 -0.202315 -0.094326
v  0.120092 -0.237017 0.000016
v  0.250633 -0.001532 0.000015
v  0.100338 -0.202419 0.096740
v  0.104677 -0.138830 0.173676
v  0.121942 -0.061666 0.222561
v  0.145064 0.021602 0.245671
v  0.161392 0.105894 0.230671
v  0.191788 0.216581 0.162033
v  0.204856 0.238607 0.078904
v  0.216795 0.256053 0.000014
v  0.204412 0.238692 -0.076634
v  0.190870 0.216756 -0.159694
v  0.160083 0.106144 -0.228252
v  0.143668 0.021869 -0.243241
v  0.120678 -0.061425 -0.220071
v  0.103693 -0.138642 -0.171209

vt  0.320849 -0.685998 0.000000
vt  0.242144 -0.604390 0.000000
vt  0.290682 -0.557755 0.000000
vt  0.142314 -0.468017 0.000000
vt  0.399961 -0.774336 0.000000
vt  0.375232 -0.624660 0.000000
vt  0.405983 -0.474064 0.000000
vt  0.268857 -0.432877 0.000000
vt  0.157887 -0.369678 0.000000
vt  0.265078 -0.390899 0.000000
vt  0.145688 -0.348257 0.000000
vt  0.316902 -0.100196 0.000000
vt  0.066673 -0.242927 0.000000
vt  0.184976 -0.005343 0.000000
vt  0.316902 -0.100196 0.000000
vt  0.145688 -0.348257 0.000000
vt  0.265078 -0.390899 0.000000
vt  0.157887 -0.369678 0.000000
vt  0.268857 -0.432877 0.000000
vt  0.142314 -0.468017 0.000000
vt  0.405983 -0.474064 0.000000
vt  0.079486 -0.382087 0.000000
vt  0.006560 -0.320417 0.000000
vt  0.079486 -0.382087 0.000000
vt  0.412074 -0.423828 0.000000
vt  0.511958 -0.463622 0.000000
vt  0.504685 -0.529703 0.000000
vt  0.613322 -0.534109 0.000000
vt  0.584066 -0.581182 0.000000
vt  0.694897 -0.636859 0.000000
vt  0.649451 -0.662409 0.000000
vt  0.732846 -0.796776 0.000000
vt  0.428640 -0.200840 0.000000
vt  0.515115 -0.304938 0.000000
vt  0.588548 -0.380843 0.000000
vt  0.686469 -0.458832 0.000000
vt  0.779480 -0.546077 0.000000
vt  0.867166 -0.625577 0.000000
vt  0.994408 -0.738874 0.000000
vt  0.455281 -0.692633 0.000000
vt  0.375232 -0.624660 0.000000
vt  0.290682 -0.557755 0.000000
vt  0.320849 -0.685998 0.000000
vt  0.399961 -0.774336 0.000000
vt  0.540247 -0.785132 0.000000
vt  0.692666 -0.822928 0.000000
vt  0.821895 -0.879223 0.000000
vt  0.732846 -0.796776 0.000000
vt  0.867166 -0.625577 0.000000
vt  0.694897 -0.636859 0.000000
vt  0.779480 -0.546077 0.000000
vt  0.613322 -0.534109 0.000000
vt  0.686469 -0.458832 0.000000
vt  0.511958 -0.463622 0.000000
vt  0.497133 -0.852543 0.000000
vt  0.626834 -0.878632 0.000000
vt  0.787181 -0.927702 0.000000
vt  0.692666 -0.822928 0.000000
vt  0.649451 -0.662409 0.000000
vt  0.584066 -0.581182 0.000000
vt  0.504685 -0.529703 0.000000
vt  0.412074 -0.423828 0.000000
vt  0.455281 -0.692633 0.000000
vt  0.540247 -0.785132 0.000000
vt  0.626834 -0.878632 0.000000
vt  0.724675 -0.960397 0.000000
vt  0.700143 -0.990415 0.000000
vt  0.596943 -0.924817 0.000000
vt  0.497133 -0.852543 0.000000
vt  0.588548 -0.380843 0.000000
vt  0.515115 -0.304938 0.000000
vt  0.428640 -0.200840 0.000000
vt  0.596943 -0.924817 0.000000
vt  0.242144 -0.604390 0.000000
vt  0.921797 -0.351034 0.000000
vt  0.993341 -0.707318 0.000000
vt  0.778757 -0.479017 0.000000
vt  0.921797 -0.351034 0.000000
vt  0.616141 -0.368001 0.000000
vt  0.711650 -0.272089 0.000000
vt  0.489038 -0.233993 0.000000
vt  0.550075 -0.173308 0.000000
vt  0.273114 -0.007015 0.000000
vt  0.550075 -0.173308 0.000000
vt  0.711650 -0.272089 0.000000
vt  0.993341 -0.707318 0.000000
vt  0.921797 -0.351034 0.000000
vt  0.778757 -0.479017 0.000000
vt  0.711650 -0.272089 0.000000
vt  0.616141 -0.368001 0.000000
vt  0.550075 -0.173308 0.000000
vt  0.489038 -0.233993 0.000000
vt  0.273114 -0.007015 0.000000
vt  0.550075 -0.173308 0.000000
vt  0.711650 -0.272089 0.000000
vt  0.921797 -0.351034 0.000000
vt  0.032479 -0.604974 0.000000
vt  0.109011 -0.487811 0.000000
vt  0.315283 -0.718609 0.000000
vt  0.032479 -0.604974 0.000000
vt  0.007167 -0.732192 0.000000
vt  0.045050 -0.840033 0.000000
vt  0.105032 -0.898439 0.000000
vt  0.177927 -0.961775 0.000000
vt  0.274599 -0.992535 0.000000
vt  0.371195 -0.980552 0.000000
vt  0.507167 -0.925557 0.000000
vt  0.371195 -0.980552 0.000000
vt  0.274599 -0.992535 0.000000
vt  0.177927 -0.961775 0.000000
vt  0.105032 -0.898439 0.000000
vt  0.045050 -0.840033 0.000000
vt  0.007167 -0.732192 0.000000
vt  0.959396 -0.228865 0.000000
vt  0.949414 -0.315899 0.000000
vt  0.723509 -0.240302 0.000000
vt  0.959396 -0.228865 0.000000
vt  0.932333 -0.146796 0.000000
vt  0.883290 -0.079999 0.000000
vt  0.820603 -0.033311 0.000000
vt  0.747663 -0.011309 0.000000
vt  0.631802 -0.018262 0.000000
vt  0.578817 -0.069657 0.000000
vt  0.531104 -0.119867 0.000000
vt  0.578817 -0.069657 0.000000
vt  0.631802 -0.018262 0.000000
vt  0.747663 -0.011309 0.000000
vt  0.820603 -0.033311 0.000000
vt  0.883290 -0.079999 0.000000
vt  0.932333 -0.146796 0.000000

vn  -0.738670 0.159363 -0.654958
vn  -0.680427 0.390881 -0.619863
vn  -0.181437 0.307519 -0.934084
vn  -0.629894 0.717744 -0.296777
vn  -0.837041 -0.042286 -0.545503
vn  -0.281798 0.043015 -0.958509
vn  0.648367 0.373857 -0.663212
vn  0.707870 0.560674 -0.429610
vn  0.910312 0.385273 0.151316
vn  0.905394 0.378273 -0.192801
vn  0.452303 0.890347 -0.052001
vn  0.750917 0.534562 -0.387773
vn  0.131100 0.991367 -0.002087
vn  0.794426 0.607359 -0.001732
vn  0.753264 0.534414 0.383400
vn  0.453102 0.890171 0.047889
vn  0.906748 0.377557 0.187772
vn  0.909496 0.385071 -0.156641
vn  0.710760 0.559875 0.425864
vn  -0.627408 0.717869 0.301701
vn  0.652644 0.372854 0.659572
vn  -0.629621 0.772522 -0.082385
vn  -0.549235 0.835668 -0.000127
vn  -0.626773 0.774381 0.086545
vn  0.848608 0.334372 0.409950
vn  0.828831 0.026382 0.558877
vn  0.634209 -0.023894 0.772793
vn  0.862644 -0.240695 0.444871
vn  0.599277 -0.449521 0.662418
vn  0.616034 -0.781739 0.096886
vn  0.556063 -0.776196 0.297177
vn  0.657960 -0.752893 -0.015525
vn  0.654845 0.308350 0.689999
vn  0.524338 -0.028098 0.851047
vn  0.550921 -0.178926 0.815151
vn  0.562275 -0.328147 0.759057
vn  0.453124 -0.655143 0.604539
vn  0.464912 -0.783186 0.412889
vn  0.423080 -0.906089 -0.002289
vn  -0.353282 -0.284993 0.891051
vn  -0.275046 0.041825 0.960521
vn  -0.174896 0.306442 0.935684
vn  -0.733679 0.158398 0.660776
vn  -0.832907 -0.043836 0.551674
vn  -0.324288 -0.562151 0.760805
vn  0.135071 -0.967126 0.215463
vn  0.562272 -0.826943 -0.004002
vn  0.657970 -0.752984 0.009511
vn  0.462328 -0.782539 -0.416997
vn  0.614907 -0.782041 -0.101498
vn  0.449192 -0.654547 -0.608107
vn  0.859645 -0.240448 -0.450771
vn  0.557320 -0.327354 -0.763042
vn  0.825129 0.027125 -0.564293
vn  -0.858264 -0.299497 0.416755
vn  -0.294276 -0.814043 0.500735
vn  0.334599 -0.942355 -0.003277
vn  0.134152 -0.966368 -0.219398
vn  0.554028 -0.775938 -0.301617
vn  0.595015 -0.448841 -0.666708
vn  0.629289 -0.022914 -0.776834
vn  0.845812 0.335229 -0.414998
vn  -0.359429 -0.283616 -0.889029
vn  -0.329521 -0.560836 -0.759525
vn  -0.297066 -0.811986 -0.502425
vn  -0.354625 -0.935005 -0.002676
vn  -0.659279 -0.751899 -0.000782
vn  -0.818137 -0.530497 -0.221868
vn  -0.861397 -0.298129 -0.411234
vn  0.545564 -0.178056 -0.818936
vn  0.518774 -0.027200 -0.854478
vn  0.650398 0.309219 -0.693805
vn  -0.814810 -0.533484 0.226891
vn  -0.675584 0.390478 0.625391
vn  0.049334 0.061206 0.996905
vn  -0.515302 -0.013169 0.856907
vn  -0.391969 -0.186551 0.900866
vn  -0.732872 -0.469064 0.492826
vn  -0.226351 -0.642937 0.731709
vn  -0.529056 -0.815917 0.233195
vn  0.077053 -0.865176 0.495513
vn  -0.192463 -0.981000 0.024457
vn  0.207512 -0.940256 0.269920
vn  0.462188 -0.465332 0.754883
vn  0.221608 -0.312780 0.923612
vn  0.515302 0.013169 -0.856908
vn  -0.049334 -0.061206 -0.996905
vn  0.391969 0.186551 -0.900866
vn  -0.221608 0.312780 -0.923612
vn  0.226351 0.642937 -0.731709
vn  -0.462188 0.465332 -0.754883
vn  -0.077053 0.865176 -0.495513
vn  -0.207512 0.940256 -0.269920
vn  0.192463 0.981000 -0.024457
vn  0.529056 0.815917 -0.233195
vn  0.732872 0.469064 -0.492826
vn  0.750917 0.534562 -0.387773
vn  0.794426 0.607359 -0.001732
vn  0.967032 -0.254637 -0.002989
vn  0.753264 0.534414 0.383400
vn  0.654845 0.308350 0.689999
vn  0.524338 -0.028098 0.851047
vn  0.550921 -0.178926 0.815151
vn  0.562275 -0.328147 0.759057
vn  0.453124 -0.655143 0.604539
vn  0.464912 -0.783186 0.412889
vn  0.423080 -0.906089 -0.002289
vn  0.462328 -0.782539 -0.416997
vn  0.449192 -0.654547 -0.608107
vn  0.557320 -0.327354 -0.763042
vn  0.545564 -0.178056 -0.818936
vn  0.518774 -0.027200 -0.854478
vn  0.650398 0.309219 -0.693805
vn  -0.818137 -0.530497 -0.221868
vn  -0.659279 -0.751899 -0.000782
vn  -0.975544 0.219760 0.004369
vn  -0.814810 -0.533484 0.226891
vn  -0.858264 -0.299497 0.416755
vn  -0.832907 -0.043836 0.551674
vn  -0.733679 0.158398 0.660776
vn  -0.675584 0.390478 0.625391
vn  -0.627408 0.717869 0.301701
vn  -0.626773 0.774381 0.086545
vn  -0.549235 0.835668 -0.000127
vn  -0.629621 0.772522 -0.082385
vn  -0.629894 0.717744 -0.296777
vn  -0.680427 0.390881 -0.619863
vn  -0.738670 0.159363 -0.654958
vn  -0.837041 -0.042286 -0.545503
vn  -0.861397 -0.298129 -0.411234

g C1103
usemtl mesh1material
f  1/1/1 2/2/2 3/3/3
f  4/4/4 3/3/3 2/2/2
f  5/5/5 1/1/1 6/6/6
f  3/3/3 6/6/6 1/1/1
f  6/6/6 3/3/3 7/7/7
f  4/4/4 7/7/7 3/3/3
f  7/7/7 4/4/4 8/8/8
f  9/9/9 8/8/8 4/4/4
f  8/8/8 9/9/9 10/10/10
f  11/11/11 10/10/10 9/9/9
f  10/10/10 11/11/11 12/12/12
f  13/13/13 12/12/12 11/11/11
f  12/12/12 13/13/13 14/14/14
f  14/14/14 13/13/13 15/15/15
f  16/16/16 15/15/15 13/13/13
f  15/15/15 16/16/16 17/17/17
f  18/18/18 17/17/17 16/16/16
f  17/17/17 18/18/18 19/19/19
f  20/20/20 19/19/19 18/18/18
f  19/19/19 20/20/20 21/21/21
f  22/22/22 9/9/9 4/4/4
f  9/9/9 22/22/22 11/11/11
f  11/11/11 22/22/22 13/13/13
f  23/23/23 13/13/13 22/22/22
f  24/24/24 13/13/13 23/23/23
f  13/13/13 24/24/24 16/16/16
f  16/16/16 24/24/24 18/18/18
f  20/20/20 18/18/18 24/24/24
f  17/17/17 19/19/19 25/25/25
f  21/21/21 25/25/25 19/19/19
f  25/25/25 21/21/21 26/26/26
f  27/27/27 26/26/26 21/21/21
f  26/26/26 27/27/27 28/28/28
f  29/29/29 28/28/28 27/27/27
f  28/28/28 29/29/29 30/30/30
f  31/31/31 30/30/30 29/29/29
f  30/30/30 31/31/31 32/32/32
f  15/15/15 17/17/17 33/33/33
f  33/33/33 17/17/17 34/34/34
f  25/25/25 34/34/34 17/17/17
f  34/34/34 25/25/25 35/35/35
f  26/26/26 35/35/35 25/25/25
f  35/35/35 26/26/26 36/36/36
f  28/28/28 36/36/36 26/26/26
f  36/36/36 28/28/28 37/37/37
f  30/30/30 37/37/37 28/28/28
f  37/37/37 30/30/30 38/38/38
f  32/32/32 38/38/38 30/30/30
f  38/38/38 32/32/32 39/39/39
f  31/31/31 29/29/29 40/40/40
f  27/27/27 40/40/40 29/29/29
f  40/40/40 27/27/27 41/41/41
f  21/21/21 41/41/41 27/27/27
f  20/20/20 42/42/42 21/21/21
f  21/21/21 42/42/42 41/41/41
f  43/43/43 41/41/41 42/42/42
f  44/44/44 41/41/41 43/43/43
f  41/41/41 44/44/44 40/40/40
f  45/45/45 40/40/40 44/44/44
f  40/40/40 45/45/45 31/31/31
f  46/46/46 31/31/31 45/45/45
f  31/31/31 46/46/46 32/32/32
f  47/47/47 32/32/32 46/46/46
f  32/32/32 47/47/47 39/39/39
f  48/48/48 39/39/39 47/47/47
f  39/39/39 48/48/48 49/49/49
f  50/50/50 49/49/49 48/48/48
f  49/49/49 50/50/50 51/51/51
f  52/52/52 51/51/51 50/50/50
f  51/51/51 52/52/52 53/53/53
f  54/54/54 53/53/53 52/52/52
f  44/44/44 55/55/55 45/45/45
f  56/56/56 45/45/45 55/55/55
f  45/45/45 56/56/56 46/46/46
f  57/57/57 46/46/46 56/56/56
f  46/46/46 57/57/57 47/47/47
f  58/58/58 47/47/47 57/57/57
f  47/47/47 58/58/58 48/48/48
f  59/59/59 48/48/48 58/58/58
f  48/48/48 59/59/59 50/50/50
f  60/60/60 50/50/50 59/59/59
f  50/50/50 60/60/60 52/52/52
f  61/61/61 52/52/52 60/60/60
f  52/52/52 61/61/61 54/54/54
f  7/7/7 54/54/54 61/61/61
f  54/54/54 7/7/7 62/62/62
f  8/8/8 62/62/62 7/7/7
f  62/62/62 8/8/8 10/10/10
f  61/61/61 60/60/60 63/63/63
f  59/59/59 63/63/63 60/60/60
f  63/63/63 59/59/59 64/64/64
f  58/58/58 64/64/64 59/59/59
f  64/64/64 58/58/58 65/65/65
f  57/57/57 65/65/65 58/58/58
f  65/65/65 57/57/57 66/66/66
f  56/56/56 66/66/66 57/57/57
f  67/67/67 66/66/66 56/56/56
f  66/66/66 67/67/67 65/65/65
f  68/68/68 65/65/65 67/67/67
f  69/69/69 65/65/65 68/68/68
f  65/65/65 69/69/69 64/64/64
f  5/5/5 64/64/64 69/69/69
f  64/64/64 5/5/5 63/63/63
f  6/6/6 63/63/63 5/5/5
f  63/63/63 6/6/6 61/61/61
f  7/7/7 61/61/61 6/6/6
f  53/53/53 54/54/54 70/70/70
f  62/62/62 70/70/70 54/54/54
f  70/70/70 62/62/62 71/71/71
f  10/10/10 71/71/71 62/62/62
f  71/71/71 10/10/10 72/72/72
f  12/12/12 72/72/72 10/10/10
f  55/55/55 73/73/73 56/56/56
f  67/67/67 56/56/56 73/73/73
f  43/43/43 42/42/42 74/74/74
f  20/20/20 74/74/74 42/42/42
f  75/75/75 76/76/76 77/77/77
f  78/78/78 77/77/77 76/76/76
f  77/77/77 78/78/78 79/79/79
f  80/80/80 79/79/79 78/78/78
f  79/79/79 80/80/80 81/81/81
f  82/82/82 81/81/81 80/80/80
f  83/83/83 81/81/81 82/82/82
f  84/84/84 81/81/81 83/83/83
f  81/81/81 84/84/84 79/79/79
f  85/85/85 79/79/79 84/84/84
f  79/79/79 85/85/85 77/77/77
f  75/75/75 77/77/77 85/85/85
f  86/86/86 87/87/87 88/88/88
f  89/89/89 88/88/88 87/87/87
f  88/88/88 89/89/89 90/90/90
f  91/91/91 90/90/90 89/89/89
f  90/90/90 91/91/91 92/92/92
f  93/93/93 92/92/92 91/91/91
f  94/94/94 92/92/92 93/93/93
f  95/95/95 92/92/92 94/94/94
f  92/92/92 95/95/95 90/90/90
f  96/96/96 90/90/90 95/95/95
f  90/90/90 96/96/96 88/88/88
f  86/86/86 88/88/88 96/96/96
f  97/97/97 98/98/98 99/99/99
f  100/100/100 99/99/99 98/98/98
f  101/101/101 99/99/99 100/100/100
f  102/102/102 99/99/99 101/101/101
f  103/103/103 99/99/99 102/102/102
f  104/104/104 99/99/99 103/103/103
f  105/105/105 99/99/99 104/104/104
f  106/106/106 99/99/99 105/105/105
f  107/107/107 99/99/99 106/106/106
f  108/108/108 99/99/99 107/107/107
f  109/109/109 99/99/99 108/108/108
f  110/110/110 99/99/99 109/109/109
f  111/111/111 99/99/99 110/110/110
f  112/112/112 99/99/99 111/111/111
f  113/113/113 99/99/99 112/112/112
f  99/99/99 113/113/113 97/97/97
f  114/114/114 115/115/115 116/116/116
f  117/117/117 116/116/116 115/115/115
f  118/118/118 116/116/116 117/117/117
f  119/119/119 116/116/116 118/118/118
f  120/120/120 116/116/116 119/119/119
f  121/121/121 116/116/116 120/120/120
f  122/122/122 116/116/116 121/121/121
f  123/123/123 116/116/116 122/122/122
f  124/124/124 116/116/116 123/123/123
f  125/125/125 116/116/116 124/124/124
f  126/126/126 116/116/116 125/125/125
f  127/127/127 116/116/116 126/126/126
f  128/128/128 116/116/116 127/127/127
f  129/129/129 116/116/116 128/128/128
f  130/130/130 116/116/116 129/129/129
f  116/116/116 130/130/130 114/114/114

g
