# Noesis .obj export.
#
mtllib c1142.mtl
g
v  0.426415 -0.178858 0.317121
v  0.443566 0.046857 0.284346
v  0.558620 -0.009078 0.288226
v  0.329280 0.192363 0.218420
v  0.348665 0.142609 0.243753
v  0.284978 0.000890 0.275030
v  0.349344 -0.065028 0.299033
v  0.317482 -0.214362 0.280040
v  0.182565 -0.229352 0.200334
v  0.236862 -0.142251 0.248059
v  0.274453 -0.297833 0.225830
v  0.241085 0.063171 0.239494
v  0.262558 0.162610 0.184076
v  0.290599 0.261918 0.135758
v  0.207083 0.253529 0.071283
v  0.193757 0.298321 0.000061
v  0.182565 -0.229354 -0.200207
v  0.274453 -0.297835 -0.225703
v  0.236862 -0.142253 -0.247933
v  0.317482 -0.214364 -0.279914
v  0.284978 0.000887 -0.274905
v  0.241085 0.063169 -0.239370
v  0.329280 0.192361 -0.218296
v  0.262558 0.162608 -0.183952
v  0.290599 0.261917 -0.135635
v  0.207083 0.253529 -0.071160
v  0.348665 0.142607 -0.243629
v  0.558620 -0.009081 -0.288100
v  0.443566 0.046855 -0.284222
v  0.426415 -0.178860 -0.316994
v  0.349344 -0.065030 -0.298907
v  0.275756 -0.388120 0.000064
v  0.207059 -0.305372 -0.136106
v  0.247864 -0.331112 0.000064
v  0.258169 -0.280667 0.000064
v  0.207059 -0.305371 0.136234
v  0.234005 -0.245212 0.108707
v  0.323922 -0.241828 0.000063
v  0.292938 -0.198801 0.142050
v  0.418082 -0.225203 0.000063
v  0.389570 -0.168217 0.122757
v  0.466111 -0.086638 0.126067
v  0.499845 -0.147100 0.000063
v  0.488843 -0.009377 0.127723
v  0.389075 -0.081014 0.184706
v  0.299459 -0.084611 0.220863
v  0.182565 -0.229352 0.200334
v  0.234005 -0.245213 -0.108580
v  0.182565 -0.229354 -0.200207
v  0.292938 -0.198802 -0.141924
v  0.299459 -0.084612 -0.220738
v  0.389570 -0.168218 -0.122631
v  0.389075 -0.081016 -0.184580
v  0.466111 -0.086639 -0.125941
v  0.488843 -0.009378 -0.127598
v  0.211230 -0.106419 0.225735
v  0.234208 0.059610 0.221363
v  0.312867 0.057337 0.210230
v  0.403217 0.031563 0.173703
v  0.485164 0.028342 0.116666
v  0.407102 0.060541 0.164439
v  0.403405 0.043580 0.195740
v  0.311236 0.074055 0.200353
v  0.325670 0.064824 0.212715
v  0.251989 0.142684 0.174668
v  0.356426 0.145640 0.167020
v  0.241099 0.220805 0.087015
v  0.370067 0.201715 0.096655
v  0.478902 0.113059 0.119980
v  0.506279 0.005726 0.131361
v  0.524867 0.031272 0.000062
v  0.526288 -0.000009 0.000063
v  0.485164 0.028341 -0.116541
v  0.506279 0.005725 -0.131236
v  0.403405 0.043579 -0.195615
v  0.478902 0.113058 -0.119856
v  0.356426 0.145639 -0.166896
v  0.370067 0.201714 -0.096531
v  0.583098 0.017356 0.000062
v  0.496079 0.148570 0.000062
v  0.382871 0.231148 0.000062
v  0.213158 0.260056 0.000061
v  0.241099 0.220804 -0.086892
v  0.251989 0.142683 -0.174544
v  0.312867 0.057335 -0.210106
v  0.234208 0.059609 -0.221239
v  0.311236 0.074053 -0.200228
v  0.325670 0.064822 -0.212590
v  0.403217 0.031562 -0.173578
v  0.407102 0.060540 -0.164315
v  0.211230 -0.106421 -0.225609
v  0.182917 -0.116473 -0.236132
v  0.284978 0.005425 -0.279183
v  0.233693 -0.142253 -0.256251
v  0.317482 -0.214364 -0.279914
v  0.349061 -0.065030 -0.303176
v  0.426415 -0.178860 -0.316994
v  0.212923 0.031683 -0.248924
v  0.190466 0.031658 -0.212653
v  0.238634 0.166410 -0.208965
v  0.211833 0.135236 -0.173741
v  0.187640 0.202966 -0.084947
v  0.207083 0.253529 -0.071160
v  0.148049 0.298673 0.000061
v  0.193757 0.298321 0.000061
v  0.290599 0.261917 -0.135635
v  0.329280 0.192361 -0.218296
v  0.348665 0.142607 -0.243629
v  0.443566 0.046855 -0.284222
v  0.558620 -0.009081 -0.288100
v  0.274453 -0.297835 -0.225703
v  0.182565 -0.229354 -0.200207
v  0.158249 -0.091171 -0.201888
v  0.178355 0.240338 0.000062
v  0.187640 0.206714 0.085070
v  0.207083 0.253529 0.071283
v  0.290599 0.261918 0.135758
v  0.238634 0.166411 0.209088
v  0.329280 0.192363 0.218420
v  0.212923 0.031685 0.249049
v  0.190466 0.031660 0.212778
v  0.211833 0.135238 0.173865
v  0.132824 -0.183962 -0.153910
v  0.111047 -0.233536 -0.094345
v  0.207059 -0.305372 -0.136106
v  0.080243 -0.253072 0.000063
v  0.156014 -0.324803 0.000064
v  0.275756 -0.388120 0.000064
v  0.207059 -0.305371 0.136234
v  0.111047 -0.233535 0.094472
v  0.182565 -0.229352 0.200334
v  0.132824 -0.183961 0.154036
v  0.158249 -0.091170 0.202013
v  0.182917 -0.116472 0.236258
v  0.284978 0.005428 0.279308
v  0.348665 0.142609 0.243753
v  0.274453 -0.297833 0.225830
v  0.317482 -0.214362 0.280040
v  0.233693 -0.142251 0.256377
v  0.558620 -0.009078 0.288226
v  0.443566 0.046857 0.284346
v  0.426415 -0.178858 0.317121
v  0.349061 -0.065028 0.303302
v  0.182565 -0.229354 -0.200207
v  0.236862 -0.142253 -0.247933
v  0.211230 -0.106421 -0.225609
v  0.241085 0.063169 -0.239370
v  0.234208 0.059609 -0.221239
v  0.262558 0.162608 -0.183952
v  0.251989 0.142683 -0.174544
v  0.207083 0.253529 -0.071160
v  0.241099 0.220804 -0.086892
v  0.193757 0.298321 0.000061
v  0.213158 0.260056 0.000061
v  0.241099 0.220805 0.087015
v  0.207083 0.253529 0.071283
v  0.251989 0.142684 0.174668
v  0.262558 0.162610 0.184076
v  0.234208 0.059610 0.221363
v  0.241085 0.063171 0.239494
v  0.211230 -0.106419 0.225735
v  0.236862 -0.142251 0.248059
v  0.182565 -0.229352 0.200334
v  0.178355 0.240338 0.000062
v  0.187640 0.202966 -0.084947
v  0.319742 -0.010358 0.000063
v  0.211833 0.135236 -0.173741
v  0.190466 0.031658 -0.212653
v  0.158249 -0.091171 -0.201888
v  0.132824 -0.183962 -0.153910
v  0.111047 -0.233536 -0.094345
v  0.221614 -0.179896 0.000063
v  0.080243 -0.253072 0.000063
v  0.111047 -0.233535 0.094472
v  0.132824 -0.183961 0.154036
v  0.158249 -0.091170 0.202013
v  0.190466 0.031660 0.212778
v  0.211833 0.135238 0.173865
v  0.187640 0.206714 0.085070

vt  0.948639 -0.317913 0.000000
vt  0.871271 -0.144300 0.000000
vt  0.962447 -0.137684 0.000000
vt  0.677359 -0.109716 0.000000
vt  0.731257 -0.132433 0.000000
vt  0.750664 -0.290114 0.000000
vt  0.858561 -0.289020 0.000000
vt  0.888631 -0.435237 0.000000
vt  0.798772 -0.521894 0.000000
vt  0.781883 -0.421924 0.000000
vt  0.866071 -0.522044 0.000000
vt  0.690163 -0.301906 0.000000
vt  0.639382 -0.176919 0.000000
vt  0.583476 -0.048902 0.000000
vt  0.545330 -0.084485 0.000000
vt  0.456673 -0.018498 0.000000
vt  0.798772 -0.521894 0.000000
vt  0.866071 -0.522044 0.000000
vt  0.781883 -0.421924 0.000000
vt  0.888631 -0.435237 0.000000
vt  0.750664 -0.290114 0.000000
vt  0.690163 -0.301906 0.000000
vt  0.677359 -0.109716 0.000000
vt  0.639382 -0.176919 0.000000
vt  0.583476 -0.048902 0.000000
vt  0.545330 -0.084485 0.000000
vt  0.731257 -0.132433 0.000000
vt  0.962447 -0.137684 0.000000
vt  0.871271 -0.144300 0.000000
vt  0.948639 -0.317913 0.000000
vt  0.858561 -0.289020 0.000000
vt  0.784608 -0.548600 0.000000
vt  0.621302 -0.570671 0.000000
vt  0.743022 -0.506478 0.000000
vt  0.710016 -0.459179 0.000000
vt  0.621302 -0.570671 0.000000
vt  0.605736 -0.494889 0.000000
vt  0.688103 -0.393557 0.000000
vt  0.552385 -0.441337 0.000000
vt  0.673032 -0.318274 0.000000
vt  0.550619 -0.350642 0.000000
vt  0.499231 -0.266841 0.000000
vt  0.623127 -0.224851 0.000000
vt  0.445971 -0.217937 0.000000
vt  0.455049 -0.336569 0.000000
vt  0.423969 -0.413304 0.000000
vt  0.524582 -0.539180 0.000000
vt  0.605736 -0.494889 0.000000
vt  0.524582 -0.539180 0.000000
vt  0.552385 -0.441337 0.000000
vt  0.423969 -0.413304 0.000000
vt  0.550619 -0.350642 0.000000
vt  0.455049 -0.336569 0.000000
vt  0.499231 -0.266841 0.000000
vt  0.445971 -0.217937 0.000000
vt  0.397602 -0.486877 0.000000
vt  0.277033 -0.406810 0.000000
vt  0.309533 -0.342740 0.000000
vt  0.370255 -0.274119 0.000000
vt  0.420199 -0.192637 0.000000
vt  0.348301 -0.254199 0.000000
vt  0.328224 -0.248620 0.000000
vt  0.293481 -0.333334 0.000000
vt  0.274780 -0.302106 0.000000
vt  0.171719 -0.288667 0.000000
vt  0.225113 -0.226413 0.000000
vt  0.100160 -0.207342 0.000000
vt  0.185663 -0.153950 0.000000
vt  0.298981 -0.142098 0.000000
vt  0.393738 -0.159602 0.000000
vt  0.481974 -0.079988 0.000000
vt  0.522621 -0.122737 0.000000
vt  0.420199 -0.192637 0.000000
vt  0.393738 -0.159602 0.000000
vt  0.328224 -0.248620 0.000000
vt  0.298981 -0.142098 0.000000
vt  0.225113 -0.226413 0.000000
vt  0.185663 -0.153950 0.000000
vt  0.426526 -0.026469 0.000000
vt  0.278391 -0.032997 0.000000
vt  0.147668 -0.071788 0.000000
vt  0.035886 -0.138629 0.000000
vt  0.100160 -0.207342 0.000000
vt  0.171719 -0.288667 0.000000
vt  0.309533 -0.342740 0.000000
vt  0.277033 -0.406810 0.000000
vt  0.293481 -0.333334 0.000000
vt  0.274780 -0.302106 0.000000
vt  0.370255 -0.274119 0.000000
vt  0.348301 -0.254199 0.000000
vt  0.397602 -0.486877 0.000000
vt  0.507742 -0.813527 0.000000
vt  0.386096 -0.757707 0.000000
vt  0.519820 -0.779307 0.000000
vt  0.572970 -0.685779 0.000000
vt  0.426376 -0.657606 0.000000
vt  0.487541 -0.585441 0.000000
vt  0.373838 -0.818116 0.000000
vt  0.380542 -0.882871 0.000000
vt  0.238932 -0.817201 0.000000
vt  0.259228 -0.874275 0.000000
vt  0.161549 -0.910019 0.000000
vt  0.117542 -0.868721 0.000000
vt  0.024648 -0.950295 0.000000
vt  0.022650 -0.925377 0.000000
vt  0.099266 -0.819862 0.000000
vt  0.191378 -0.756397 0.000000
vt  0.232991 -0.715295 0.000000
vt  0.297537 -0.590481 0.000000
vt  0.323357 -0.508227 0.000000
vt  0.644536 -0.739842 0.000000
vt  0.618643 -0.801960 0.000000
vt  0.504287 -0.879776 0.000000
vt  0.094292 -0.974452 0.000000
vt  0.161549 -0.910019 0.000000
vt  0.117542 -0.868721 0.000000
vt  0.099266 -0.819862 0.000000
vt  0.238932 -0.817201 0.000000
vt  0.191378 -0.756397 0.000000
vt  0.373838 -0.818116 0.000000
vt  0.380542 -0.882871 0.000000
vt  0.259228 -0.874275 0.000000
vt  0.614298 -0.890037 0.000000
vt  0.679097 -0.916869 0.000000
vt  0.719599 -0.809968 0.000000
vt  0.750797 -0.980718 0.000000
vt  0.812696 -0.908293 0.000000
vt  0.884201 -0.809905 0.000000
vt  0.719599 -0.809968 0.000000
vt  0.679097 -0.916869 0.000000
vt  0.618643 -0.801960 0.000000
vt  0.614298 -0.890037 0.000000
vt  0.504287 -0.879776 0.000000
vt  0.507742 -0.813527 0.000000
vt  0.386096 -0.757707 0.000000
vt  0.232991 -0.715295 0.000000
vt  0.644536 -0.739842 0.000000
vt  0.572970 -0.685779 0.000000
vt  0.519820 -0.779307 0.000000
vt  0.323357 -0.508227 0.000000
vt  0.297537 -0.590481 0.000000
vt  0.487541 -0.585441 0.000000
vt  0.426376 -0.657606 0.000000
vt  0.944385 -0.383272 0.000000
vt  0.936472 -0.515202 0.000000
vt  0.917301 -0.517037 0.000000
vt  0.954067 -0.639347 0.000000
vt  0.942757 -0.658775 0.000000
vt  0.978817 -0.762765 0.000000
vt  0.958608 -0.753025 0.000000
vt  0.951183 -0.879136 0.000000
vt  0.933415 -0.851187 0.000000
vt  0.896311 -0.976143 0.000000
vt  0.870944 -0.914442 0.000000
vt  0.933415 -0.851187 0.000000
vt  0.951183 -0.879136 0.000000
vt  0.958608 -0.753025 0.000000
vt  0.978817 -0.762765 0.000000
vt  0.942757 -0.658775 0.000000
vt  0.954067 -0.639347 0.000000
vt  0.917301 -0.517037 0.000000
vt  0.936472 -0.515202 0.000000
vt  0.944385 -0.383272 0.000000
vt  0.068232 -0.251944 0.000000
vt  0.136487 -0.302110 0.000000
vt  0.030923 -0.480510 0.000000
vt  0.203701 -0.363709 0.000000
vt  0.254549 -0.456362 0.000000
vt  0.242913 -0.564137 0.000000
vt  0.208877 -0.657636 0.000000
vt  0.173190 -0.710631 0.000000
vt  0.061253 -0.643570 0.000000
vt  0.108468 -0.769564 0.000000
vt  0.173190 -0.710631 0.000000
vt  0.208877 -0.657636 0.000000
vt  0.242913 -0.564137 0.000000
vt  0.254549 -0.456362 0.000000
vt  0.203701 -0.363709 0.000000
vt  0.136487 -0.302110 0.000000

vn  0.153288 -0.043659 -0.987217
vn  0.064981 -0.197103 -0.978227
vn  -0.035185 -0.140987 -0.989386
vn  0.480387 -0.444058 -0.756334
vn  0.249969 -0.309376 -0.917497
vn  0.354192 -0.148120 -0.923368
vn  0.207498 -0.084414 -0.974586
vn  0.437286 0.134012 -0.889281
vn  0.413116 0.225864 -0.882225
vn  0.451260 0.111086 -0.885452
vn  0.477201 0.236236 -0.846447
vn  0.397719 -0.298926 -0.867446
vn  0.562198 -0.488227 -0.667509
vn  0.553247 -0.520083 -0.650716
vn  0.506161 -0.645802 -0.571613
vn  0.386276 0.922383 -0.000003
vn  0.413116 0.225871 0.882223
vn  0.477201 0.236243 0.846445
vn  0.451260 0.111093 0.885451
vn  0.437286 0.134019 0.889280
vn  0.354192 -0.148113 0.923369
vn  0.397719 -0.298919 0.867449
vn  0.480386 -0.444052 0.756338
vn  0.562198 -0.488222 0.667513
vn  0.553247 -0.520078 0.650720
vn  0.506161 -0.645798 0.571618
vn  0.249969 -0.309369 0.917500
vn  -0.035186 -0.140979 0.989387
vn  0.064981 -0.197096 0.978228
vn  0.153288 -0.043651 0.987217
vn  0.207498 -0.084406 0.974587
vn  0.682375 -0.731003 0.000003
vn  0.209602 -0.728107 -0.652631
vn  0.984831 0.173515 -0.000001
vn  0.826709 -0.562630 0.000002
vn  0.209603 -0.728102 0.652636
vn  0.700413 -0.590481 0.400940
vn  0.330662 -0.943749 0.000004
vn  0.412845 -0.718558 0.559673
vn  0.490874 -0.871231 0.000003
vn  0.463738 -0.658857 0.592330
vn  0.708425 -0.386303 0.590681
vn  0.850247 -0.526384 0.000002
vn  0.792155 0.010422 0.610231
vn  0.442913 -0.266311 0.856100
vn  0.273948 -0.207157 0.939169
vn  0.669632 -0.494461 0.554167
vn  0.700413 -0.590484 -0.400936
vn  0.669633 -0.494465 -0.554163
vn  0.412845 -0.718562 -0.559668
vn  0.273948 -0.207164 -0.939167
vn  0.463738 -0.658862 -0.592324
vn  0.442913 -0.266318 -0.856097
vn  0.708425 -0.386308 -0.590678
vn  0.792155 0.010417 -0.610231
vn  0.950346 -0.212096 0.227722
vn  0.890196 -0.053104 0.452472
vn  0.268731 0.286351 0.919667
vn  0.466580 0.128797 0.875051
vn  0.210505 -0.918313 0.335245
vn  0.008351 -0.852898 0.522011
vn  0.081265 -0.705816 0.703719
vn  0.289126 -0.763851 0.577008
vn  -0.092440 -0.601322 0.793642
vn  0.875820 0.318974 0.362209
vn  0.223460 0.607413 0.762309
vn  0.293775 0.807881 0.510906
vn  0.305053 0.824122 0.477249
vn  0.645567 0.513888 0.564944
vn  0.330201 -0.787593 0.520254
vn  0.500358 -0.865819 0.000003
vn  0.998193 -0.060091 0.000000
vn  0.210505 -0.918315 -0.335238
vn  0.330202 -0.787597 -0.520248
vn  0.081265 -0.705821 -0.703713
vn  0.645567 0.513884 -0.564948
vn  0.223461 0.607407 -0.762314
vn  0.305053 0.824118 -0.477255
vn  0.883750 -0.467959 0.000002
vn  0.714450 0.699687 -0.000003
vn  0.389354 0.921088 -0.000004
vn  0.695627 0.718403 -0.000003
vn  0.293776 0.807877 -0.510912
vn  0.875820 0.318971 -0.362211
vn  0.268731 0.286344 -0.919669
vn  0.890196 -0.053107 -0.452471
vn  0.289126 -0.763855 -0.577002
vn  -0.092440 -0.601328 -0.793637
vn  0.466581 0.128790 -0.875052
vn  0.008351 -0.852902 -0.522004
vn  0.950346 -0.212098 -0.227720
vn  -0.650688 -0.081700 -0.754937
vn  -0.247349 0.171000 -0.953718
vn  -0.399963 -0.144683 -0.905039
vn  -0.394418 -0.164736 -0.904044
vn  -0.195164 0.075442 -0.977865
vn  -0.135739 0.027268 -0.990369
vn  -0.584651 0.216387 -0.781895
vn  -0.975857 0.209491 -0.061774
vn  -0.537160 0.453148 -0.711419
vn  -0.991652 0.064792 -0.111480
vn  -0.972338 -0.070877 -0.222564
vn  -0.530501 0.600781 -0.598023
vn  -0.783794 0.621021 0.000470
vn  0.386276 0.922383 -0.000003
vn  -0.426008 0.687892 -0.587641
vn  -0.248679 0.495565 -0.832210
vn  -0.211155 0.329078 -0.920392
vn  -0.046548 0.205963 -0.977452
vn  0.035186 0.140979 -0.989387
vn  -0.464261 -0.286204 -0.838182
vn  -0.639685 -0.335494 -0.691554
vn  -0.967174 0.209516 -0.143797
vn  -0.881346 -0.472361 0.010246
vn  -0.969290 -0.048567 0.241079
vn  -0.519220 0.610911 0.597661
vn  -0.426008 0.687897 0.587635
vn  -0.536041 0.452636 0.712588
vn  -0.248680 0.495572 0.832206
vn  -0.584651 0.216394 0.781893
vn  -0.975857 0.209491 0.061772
vn  -0.992176 0.062563 0.108039
vn  -0.960517 0.152791 -0.232513
vn  -0.979740 -0.000252 -0.200274
vn  0.209602 -0.728107 -0.652631
vn  -0.999102 0.042373 -0.000000
vn  -0.596685 -0.802476 0.000003
vn  0.682375 -0.731003 0.000003
vn  0.209603 -0.728102 0.652636
vn  -0.979740 -0.000251 0.200274
vn  -0.639685 -0.335488 0.691557
vn  -0.960517 0.152793 0.232512
vn  -0.967174 0.209517 0.143795
vn  -0.650689 -0.081694 0.754937
vn  -0.247349 0.171007 0.953716
vn  -0.211155 0.329085 0.920389
vn  -0.464261 -0.286197 0.838185
vn  -0.394418 -0.164728 0.904046
vn  -0.399963 -0.144676 0.905040
vn  0.035185 0.140987 0.989386
vn  -0.046548 0.205971 0.977450
vn  -0.135739 0.027276 0.990369
vn  -0.195164 0.075449 0.977864
vn  0.669633 -0.494465 -0.554163
vn  0.646681 -0.012545 0.762657
vn  0.950346 -0.212098 -0.227720
vn  0.910801 -0.235771 0.338900
vn  0.890196 -0.053107 -0.452471
vn  0.858632 -0.241984 0.451879
vn  0.875820 0.318971 -0.362211
vn  0.568419 0.731228 -0.377102
vn  0.293776 0.807877 -0.510912
vn  0.386276 0.922383 -0.000003
vn  0.695627 0.718403 -0.000003
vn  0.293775 0.807881 0.510906
vn  0.568418 0.731231 0.377097
vn  0.875820 0.318974 0.362209
vn  0.858633 -0.241987 -0.451877
vn  0.890196 -0.053104 0.452472
vn  0.910801 -0.235774 -0.338897
vn  0.950346 -0.212096 0.227722
vn  0.646681 -0.012551 -0.762657
vn  0.669632 -0.494461 0.554167
vn  -0.881346 -0.472361 0.010246
vn  -0.972338 -0.070877 -0.222564
vn  -0.995276 0.097085 0.000424
vn  -0.991652 0.064792 -0.111480
vn  -0.975857 0.209491 -0.061774
vn  -0.967174 0.209516 -0.143797
vn  -0.960517 0.152791 -0.232513
vn  -0.979740 -0.000252 -0.200274
vn  -0.783478 0.621420 -0.000002
vn  -0.999102 0.042373 -0.000000
vn  -0.979740 -0.000251 0.200274
vn  -0.960517 0.152793 0.232512
vn  -0.967174 0.209517 0.143795
vn  -0.975857 0.209491 0.061772
vn  -0.992176 0.062563 0.108039
vn  -0.969290 -0.048567 0.241079

g C1146
usemtl C1142_3
f  1/1/1 2/2/2 3/3/3
f  4/4/4 5/5/5 6/6/6
f  7/7/7 6/6/6 5/5/5
f  6/6/6 7/7/7 8/8/8
f  8/8/8 7/7/7 1/1/1
f  1/1/1 7/7/7 2/2/2
f  5/5/5 2/2/2 7/7/7
f  9/9/9 10/10/10 11/11/11
f  11/11/11 10/10/10 8/8/8
f  8/8/8 10/10/10 6/6/6
f  12/12/12 6/6/6 10/10/10
f  6/6/6 12/12/12 4/4/4
f  13/13/13 4/4/4 12/12/12
f  4/4/4 13/13/13 14/14/14
f  15/15/15 14/14/14 13/13/13
f  14/14/14 15/15/15 16/16/16
f  17/17/17 18/18/18 19/19/19
f  20/20/20 19/19/19 18/18/18
f  21/21/21 19/19/19 20/20/20
f  19/19/19 21/21/21 22/22/22
f  23/23/23 22/22/22 21/21/21
f  22/22/22 23/23/23 24/24/24
f  25/25/25 24/24/24 23/23/23
f  24/24/24 25/25/25 26/26/26
f  16/16/16 26/26/26 25/25/25
f  23/23/23 21/21/21 27/27/27
f  28/28/28 29/29/29 30/30/30
f  31/31/31 30/30/30 29/29/29
f  30/30/30 31/31/31 20/20/20
f  20/20/20 31/31/31 21/21/21
f  21/21/21 31/31/31 27/27/27
f  29/29/29 27/27/27 31/31/31
f  32/32/32 33/33/33 34/34/34
f  35/35/35 34/34/34 33/33/33
f  36/36/36 34/34/34 35/35/35
f  34/34/34 36/36/36 32/32/32
f  36/36/36 35/35/35 37/37/37
f  38/38/38 37/37/37 35/35/35
f  37/37/37 38/38/38 39/39/39
f  40/40/40 39/39/39 38/38/38
f  39/39/39 40/40/40 41/41/41
f  41/41/41 40/40/40 42/42/42
f  43/43/43 42/42/42 40/40/40
f  44/44/44 42/42/42 43/43/43
f  45/45/45 42/42/42 44/44/44
f  42/42/42 45/45/45 41/41/41
f  46/46/46 41/41/41 45/45/45
f  41/41/41 46/46/46 39/39/39
f  47/47/47 39/39/39 46/46/46
f  39/39/39 47/47/47 37/37/37
f  36/36/36 37/37/37 47/47/47
f  35/35/35 33/33/33 48/48/48
f  49/49/49 48/48/48 33/33/33
f  48/48/48 49/49/49 50/50/50
f  51/51/51 50/50/50 49/49/49
f  50/50/50 51/51/51 52/52/52
f  53/53/53 52/52/52 51/51/51
f  52/52/52 53/53/53 54/54/54
f  55/55/55 54/54/54 53/53/53
f  43/43/43 54/54/54 55/55/55
f  40/40/40 54/54/54 43/43/43
f  54/54/54 40/40/40 52/52/52
f  52/52/52 40/40/40 50/50/50
f  38/38/38 50/50/50 40/40/40
f  50/50/50 38/38/38 48/48/48
f  35/35/35 48/48/48 38/38/38
f  47/47/47 46/46/46 56/56/56
f  56/56/56 46/46/46 57/57/57
f  57/57/57 46/46/46 58/58/58
f  45/45/45 58/58/58 46/46/46
f  58/58/58 45/45/45 59/59/59
f  44/44/44 59/59/59 45/45/45
f  60/60/60 59/59/59 44/44/44
f  59/59/59 60/60/60 61/61/61
f  62/62/62 61/61/61 60/60/60
f  63/63/63 61/61/61 62/62/62
f  58/58/58 61/61/61 63/63/63
f  61/61/61 58/58/58 59/59/59
f  58/58/58 63/63/63 57/57/57
f  64/64/64 57/57/57 63/63/63
f  57/57/57 64/64/64 65/65/65
f  65/65/65 64/64/64 66/66/66
f  66/66/66 64/64/64 62/62/62
f  63/63/63 62/62/62 64/64/64
f  67/67/67 65/65/65 68/68/68
f  66/66/66 68/68/68 65/65/65
f  68/68/68 66/66/66 69/69/69
f  62/62/62 69/69/69 66/66/66
f  69/69/69 62/62/62 70/70/70
f  60/60/60 70/70/70 62/62/62
f  70/70/70 60/60/60 71/71/71
f  44/44/44 71/71/71 60/60/60
f  71/71/71 44/44/44 72/72/72
f  43/43/43 72/72/72 44/44/44
f  55/55/55 72/72/72 43/43/43
f  72/72/72 55/55/55 71/71/71
f  73/73/73 71/71/71 55/55/55
f  71/71/71 73/73/73 74/74/74
f  75/75/75 74/74/74 73/73/73
f  74/74/74 75/75/75 76/76/76
f  77/77/77 76/76/76 75/75/75
f  76/76/76 77/77/77 78/78/78
f  71/71/71 74/74/74 79/79/79
f  76/76/76 79/79/79 74/74/74
f  79/79/79 76/76/76 80/80/80
f  78/78/78 80/80/80 76/76/76
f  81/81/81 80/80/80 78/78/78
f  68/68/68 80/80/80 81/81/81
f  69/69/69 80/80/80 68/68/68
f  80/80/80 69/69/69 79/79/79
f  70/70/70 79/79/79 69/69/69
f  79/79/79 70/70/70 71/71/71
f  67/67/67 68/68/68 82/82/82
f  81/81/81 82/82/82 68/68/68
f  78/78/78 82/82/82 81/81/81
f  82/82/82 78/78/78 83/83/83
f  83/83/83 78/78/78 84/84/84
f  77/77/77 84/84/84 78/78/78
f  85/85/85 86/86/86 87/87/87
f  88/88/88 87/87/87 86/86/86
f  87/87/87 88/88/88 75/75/75
f  75/75/75 88/88/88 77/77/77
f  77/77/77 88/88/88 84/84/84
f  86/86/86 84/84/84 88/88/88
f  89/89/89 85/85/85 90/90/90
f  87/87/87 90/90/90 85/85/85
f  75/75/75 90/90/90 87/87/87
f  73/73/73 90/90/90 75/75/75
f  90/90/90 73/73/73 89/89/89
f  55/55/55 89/89/89 73/73/73
f  53/53/53 89/89/89 55/55/55
f  89/89/89 53/53/53 85/85/85
f  51/51/51 85/85/85 53/53/53
f  85/85/85 51/51/51 86/86/86
f  86/86/86 51/51/51 91/91/91
f  49/49/49 91/91/91 51/51/51
f  92/92/92 93/93/93 94/94/94
f  94/94/94 93/93/93 95/95/95
f  96/96/96 95/95/95 93/93/93
f  95/95/95 96/96/96 97/97/97
f  93/93/93 92/92/92 98/98/98
f  99/99/99 98/98/98 92/92/92
f  98/98/98 99/99/99 100/100/100
f  101/101/101 100/100/100 99/99/99
f  102/102/102 100/100/100 101/101/101
f  100/100/100 102/102/102 103/103/103
f  104/104/104 103/103/103 102/102/102
f  105/105/105 103/103/103 104/104/104
f  106/106/106 103/103/103 105/105/105
f  103/103/103 106/106/106 100/100/100
f  107/107/107 100/100/100 106/106/106
f  100/100/100 107/107/107 98/98/98
f  98/98/98 107/107/107 93/93/93
f  108/108/108 93/93/93 107/107/107
f  93/93/93 108/108/108 96/96/96
f  109/109/109 96/96/96 108/108/108
f  96/96/96 109/109/109 97/97/97
f  110/110/110 97/97/97 109/109/109
f  95/95/95 111/111/111 94/94/94
f  112/112/112 94/94/94 111/111/111
f  94/94/94 112/112/112 92/92/92
f  113/113/113 92/92/92 112/112/112
f  92/92/92 113/113/113 99/99/99
f  102/102/102 114/114/114 104/104/104
f  115/115/115 104/104/104 114/114/114
f  116/116/116 104/104/104 115/115/115
f  104/104/104 116/116/116 105/105/105
f  105/105/105 116/116/116 117/117/117
f  118/118/118 117/117/117 116/116/116
f  117/117/117 118/118/118 119/119/119
f  119/119/119 118/118/118 120/120/120
f  120/120/120 118/118/118 121/121/121
f  121/121/121 118/118/118 122/122/122
f  122/122/122 118/118/118 115/115/115
f  116/116/116 115/115/115 118/118/118
f  112/112/112 123/123/123 113/113/113
f  123/123/123 112/112/112 124/124/124
f  125/125/125 124/124/124 112/112/112
f  124/124/124 125/125/125 126/126/126
f  126/126/126 125/125/125 127/127/127
f  128/128/128 127/127/127 125/125/125
f  129/129/129 127/127/127 128/128/128
f  127/127/127 129/129/129 126/126/126
f  126/126/126 129/129/129 130/130/130
f  131/131/131 130/130/130 129/129/129
f  130/130/130 131/131/131 132/132/132
f  132/132/132 131/131/131 133/133/133
f  134/134/134 133/133/133 131/131/131
f  133/133/133 134/134/134 121/121/121
f  121/121/121 134/134/134 120/120/120
f  135/135/135 120/120/120 134/134/134
f  120/120/120 135/135/135 119/119/119
f  136/136/136 119/119/119 135/135/135
f  137/137/137 138/138/138 139/139/139
f  135/135/135 139/139/139 138/138/138
f  134/134/134 139/139/139 135/135/135
f  131/131/131 139/139/139 134/134/134
f  139/139/139 131/131/131 137/137/137
f  140/140/140 141/141/141 142/142/142
f  143/143/143 142/142/142 141/141/141
f  142/142/142 143/143/143 138/138/138
f  138/138/138 143/143/143 135/135/135
f  135/135/135 143/143/143 136/136/136
f  141/141/141 136/136/136 143/143/143
f  144/144/144 145/145/145 146/146/146
f  147/147/147 146/146/146 145/145/145
f  146/146/146 147/147/147 148/148/148
f  149/149/149 148/148/148 147/147/147
f  148/148/148 149/149/149 150/150/150
f  151/151/151 150/150/150 149/149/149
f  150/150/150 151/151/151 152/152/152
f  153/153/153 152/152/152 151/151/151
f  152/152/152 153/153/153 154/154/154
f  154/154/154 153/153/153 155/155/155
f  156/156/156 155/155/155 153/153/153
f  155/155/155 156/156/156 157/157/157
f  158/158/158 157/157/157 156/156/156
f  157/157/157 158/158/158 159/159/159
f  160/160/160 159/159/159 158/158/158
f  159/159/159 160/160/160 161/161/161
f  162/162/162 161/161/161 160/160/160
f  161/161/161 162/162/162 163/163/163
f  164/164/164 165/165/165 166/166/166
f  167/167/167 166/166/166 165/165/165
f  168/168/168 166/166/166 167/167/167
f  169/169/169 166/166/166 168/168/168
f  170/170/170 166/166/166 169/169/169
f  171/171/171 166/166/166 170/170/170
f  166/166/166 171/171/171 172/172/172
f  173/173/173 172/172/172 171/171/171
f  174/174/174 172/172/172 173/173/173
f  172/172/172 174/174/174 166/166/166
f  175/175/175 166/166/166 174/174/174
f  176/176/176 166/166/166 175/175/175
f  177/177/177 166/166/166 176/176/176
f  178/178/178 166/166/166 177/177/177
f  179/179/179 166/166/166 178/178/178
f  166/166/166 179/179/179 164/164/164

g
