# Noesis .obj export.
#
mtllib c1153.mtl
g
v  0.035126 0.000691 0.159261
v  -0.030746 0.000698 0.159261
v  0.035126 0.000691 0.165472
v  -0.030746 0.000698 0.165472
v  -0.030746 0.000698 0.165472
v  -0.030746 0.000698 0.159261
v  0.035126 0.000691 0.165472
v  0.035126 0.000691 0.159261
v  0.038738 0.001989 0.157776
v  0.042008 0.000255 0.159391
v  0.038738 0.000255 0.157776
v  0.042008 0.000255 0.165533
v  0.043348 0.000255 0.162462
v  0.043348 0.001989 0.162462
v  0.042008 0.001989 0.159391
v  0.038738 0.002962 0.162443
v  0.042008 0.001989 0.165533
v  0.038738 0.001989 0.167148
v  0.038738 0.000255 0.167148
v  0.035468 0.001989 0.165533
v  0.035468 0.000255 0.165533
v  0.034129 0.000255 0.162443
v  0.034129 0.001989 0.162443
v  0.035468 0.000255 0.159391
v  0.035468 0.001989 0.159391
v  0.043348 0.000255 0.162462
v  0.038738 -0.000732 0.162443
v  0.042008 0.000255 0.159391
v  0.038738 0.000255 0.157776
v  0.035468 0.000255 0.159391
v  0.034129 0.000255 0.162443
v  0.035468 0.000255 0.165533
v  0.038738 0.000255 0.167148
v  0.042008 0.000255 0.165533
v  -0.081541 0.002885 0.144247
v  -0.096399 0.008344 0.162424
v  -0.081535 0.006768 0.151379
v  -0.081535 0.006768 0.173456
v  -0.041580 0.003934 0.162425
v  -0.081541 -0.000618 0.144247
v  -0.081543 0.001133 0.142022
v  -0.040132 0.001133 0.158530
v  -0.040132 0.002884 0.160382
v  -0.040132 0.002884 0.164453
v  -0.081541 0.002885 0.180925
v  -0.105651 0.002885 0.162424
v  -0.108582 0.001133 0.162424
v  -0.081543 0.001133 0.183151
v  -0.040132 0.001133 0.166304
v  -0.037909 0.002884 0.162424
v  -0.037919 0.001133 0.160406
v  -0.040132 -0.000618 0.160382
v  -0.041580 -0.001667 0.162425
v  -0.081535 -0.004502 0.151379
v  -0.081535 -0.004502 0.173457
v  -0.096399 -0.006077 0.162424
v  -0.105651 -0.000618 0.162424
v  -0.081541 -0.000618 0.180925
v  -0.040132 -0.000618 0.164453
v  -0.037909 -0.000618 0.162425
v  -0.032022 0.001133 0.156506
v  -0.032022 0.002891 0.158096
v  -0.032022 0.004522 0.162423
v  -0.026536 0.002891 0.162424
v  -0.024704 0.001133 0.162424
v  -0.026536 -0.000624 0.162424
v  -0.032022 0.001133 0.168330
v  -0.032022 0.002891 0.166740
v  -0.037919 0.001133 0.164429
v  -0.032022 -0.000624 0.166740
v  -0.032022 -0.002256 0.162423
v  -0.032022 -0.000625 0.158096
v  0.041940 0.000687 0.161819
v  0.041940 0.001615 0.161819
v  0.058513 -0.000993 0.161819
v  0.059455 -0.000289 0.161819
v  0.041940 0.001615 0.163062
v  0.059455 -0.000289 0.163062
v  0.041940 0.000687 0.163062
v  0.058513 -0.000993 0.163062
v  0.041940 0.000687 0.161819
v  0.058513 -0.000993 0.161819
v  0.061908 -0.003046 0.161819
v  0.061908 -0.003046 0.163062
v  0.063727 -0.009056 0.161819
v  0.063727 -0.009056 0.163062
v  0.061060 -0.013668 0.163062
v  0.061060 -0.013668 0.161819
v  0.046873 -0.019917 0.162441
v  0.061949 -0.014366 0.163062
v  0.064844 -0.009061 0.163062
v  0.063307 -0.002716 0.163062
v  0.063307 -0.002716 0.161819
v  0.061908 -0.003046 0.161819
v  0.064844 -0.009061 0.161819
v  0.063727 -0.009056 0.161819
v  0.061060 -0.013668 0.161819
v  0.061949 -0.014366 0.161819

vt  0.013555 -0.020218 0.000000
vt  0.013555 -0.987965 0.000000
vt  0.104802 -0.020218 0.000000
vt  0.104802 -0.987965 0.000000
vt  0.104802 -0.987965 0.000000
vt  0.013555 -0.987965 0.000000
vt  0.104802 -0.020218 0.000000
vt  0.013555 -0.020218 0.000000
vt  0.309766 -0.171277 0.000000
vt  0.324297 -0.065446 0.000000
vt  0.273423 -0.170866 0.000000
vt  0.524288 -0.066382 0.000000
vt  0.424463 -0.022191 0.000000
vt  0.424294 -0.059325 0.000000
vt  0.351643 -0.094135 0.000000
vt  0.422950 -0.171527 0.000000
vt  0.496635 -0.094658 0.000000
vt  0.537756 -0.172306 0.000000
vt  0.573736 -0.172773 0.000000
vt  0.494822 -0.249438 0.000000
vt  0.522121 -0.278163 0.000000
vt  0.421415 -0.321652 0.000000
vt  0.421513 -0.284625 0.000000
vt  0.322231 -0.277227 0.000000
vt  0.350037 -0.249003 0.000000
vt  0.901839 -0.097275 0.000000
vt  0.902450 -0.163378 0.000000
vt  0.945606 -0.116182 0.000000
vt  0.968777 -0.162752 0.000000
vt  0.945602 -0.209600 0.000000
vt  0.901929 -0.228939 0.000000
vt  0.857902 -0.209866 0.000000
vt  0.835078 -0.163515 0.000000
vt  0.858180 -0.116959 0.000000
vt  0.923946 -0.670823 0.000000
vt  0.715966 -0.851183 0.000000
vt  0.855340 -0.670823 0.000000
vt  0.577497 -0.670823 0.000000
vt  0.717434 -0.221625 0.000000
vt  0.923946 -0.670823 0.000000
vt  0.963010 -0.670823 0.000000
vt  0.763298 -0.198423 0.000000
vt  0.746683 -0.198423 0.000000
vt  0.689435 -0.198423 0.000000
vt  0.510083 -0.670823 0.000000
vt  0.715966 -0.950220 0.000000
vt  0.715966 -0.995227 0.000000
vt  0.473654 -0.670823 0.000000
vt  0.666311 -0.198423 0.000000
vt  0.717436 -0.176740 0.000000
vt  0.739246 -0.176740 0.000000
vt  0.746683 -0.198423 0.000000
vt  0.717434 -0.221625 0.000000
vt  0.855340 -0.670823 0.000000
vt  0.577497 -0.670823 0.000000
vt  0.715966 -0.851183 0.000000
vt  0.715966 -0.950220 0.000000
vt  0.510083 -0.670823 0.000000
vt  0.689435 -0.198423 0.000000
vt  0.717436 -0.176740 0.000000
vt  0.787581 -0.099128 0.000000
vt  0.770669 -0.099128 0.000000
vt  0.717434 -0.099128 0.000000
vt  0.717434 -0.029827 0.000000
vt  0.717434 -0.006894 0.000000
vt  0.717434 -0.029827 0.000000
vt  0.644612 -0.099128 0.000000
vt  0.665239 -0.099128 0.000000
vt  0.695884 -0.176740 0.000000
vt  0.665239 -0.099128 0.000000
vt  0.717434 -0.099128 0.000000
vt  0.770669 -0.099128 0.000000
vt  0.230534 -0.020558 0.000000
vt  0.216823 -0.018646 0.000000
vt  0.229024 -0.268396 0.000000
vt  0.214651 -0.277323 0.000000
vt  0.198247 -0.019158 0.000000
vt  0.195532 -0.277523 0.000000
vt  0.184440 -0.022685 0.000000
vt  0.181124 -0.269814 0.000000
vt  0.166056 -0.023628 0.000000
vt  0.162667 -0.270455 0.000000
vt  0.160744 -0.331723 0.000000
vt  0.179052 -0.332116 0.000000
vt  0.155061 -0.427528 0.000000
vt  0.173440 -0.429488 0.000000
vt  0.162591 -0.511556 0.000000
vt  0.144541 -0.508590 0.000000
vt  0.128327 -0.740558 0.000000
vt  0.178028 -0.512551 0.000000
vt  0.189089 -0.429726 0.000000
vt  0.196694 -0.339962 0.000000
vt  0.214026 -0.340619 0.000000
vt  0.231527 -0.333930 0.000000
vt  0.207359 -0.431871 0.000000
vt  0.221967 -0.435242 0.000000
vt  0.209337 -0.521282 0.000000
vt  0.195577 -0.515936 0.000000

vn  0.000100 1.000000 -0.000004
vn  0.000100 1.000000 -0.000004
vn  0.000100 1.000000 -0.000004
vn  0.000100 1.000000 -0.000004
vn  -0.000100 -1.000000 0.000004
vn  -0.000100 -1.000000 0.000004
vn  -0.000100 -1.000000 0.000004
vn  -0.000100 -1.000000 0.000004
vn  0.012790 0.564762 -0.825155
vn  0.596397 -0.566706 -0.568467
vn  -0.012885 -0.563948 -0.825710
vn  0.557618 -0.637387 0.531790
vn  0.821268 -0.570356 0.014603
vn  0.820779 0.571069 -0.014242
vn  0.557618 0.637386 -0.531790
vn  0.000142 1.000000 -0.000987
vn  0.595628 0.568073 0.567908
vn  -0.012757 0.565274 0.824804
vn  0.012851 -0.564458 0.825362
vn  -0.558337 0.637197 0.531262
vn  -0.596815 -0.566950 0.567784
vn  -0.821276 -0.570297 -0.016319
vn  -0.820769 0.571122 0.012516
vn  -0.556891 -0.637588 -0.532310
vn  -0.595201 0.567826 -0.568604
vn  0.821268 -0.570356 0.014603
vn  -0.000142 -1.000000 -0.000990
vn  0.596397 -0.566706 -0.568467
vn  -0.012885 -0.563948 -0.825710
vn  -0.556891 -0.637588 -0.532310
vn  -0.821276 -0.570297 -0.016319
vn  -0.596815 -0.566950 0.567784
vn  0.012851 -0.564458 0.825362
vn  0.557618 -0.637387 0.531790
vn  -0.085904 0.815396 -0.572494
vn  -0.344785 0.938675 -0.003533
vn  -0.003418 0.950244 -0.311487
vn  -0.000037 0.953870 0.300221
vn  0.284881 0.958563 -0.000191
vn  -0.085905 -0.815401 -0.572487
vn  -0.109103 -0.000004 -0.994030
vn  0.480416 -0.000003 -0.877041
vn  0.342927 0.831255 -0.437512
vn  0.353328 0.826263 0.438690
vn  -0.086287 0.818797 0.567561
vn  -0.511671 0.859174 -0.003716
vn  -0.999996 -0.000001 -0.002790
vn  -0.109449 0.000005 0.993992
vn  0.490155 0.000007 0.871635
vn  -0.041553 0.999136 -0.000588
vn  0.112764 -0.000004 -0.993622
vn  0.342926 -0.831258 -0.437507
vn  0.284879 -0.958563 -0.000185
vn  -0.003419 -0.950247 -0.311480
vn  -0.000038 -0.953867 0.300228
vn  -0.344787 -0.938675 -0.003526
vn  -0.511670 -0.859174 -0.003709
vn  -0.086288 -0.818792 0.567569
vn  0.353330 -0.826257 0.438700
vn  -0.041558 -0.999136 -0.000581
vn  0.020312 -0.000005 -0.999794
vn  0.013289 0.783660 -0.621048
vn  0.008379 0.999965 0.000340
vn  0.584274 0.811556 0.000465
vn  1.000000 0.000003 0.000359
vn  0.584277 -0.811554 0.000471
vn  0.034969 0.000005 0.999388
vn  0.027686 0.787224 0.616045
vn  0.060669 0.000005 0.998158
vn  0.027684 -0.787219 0.616053
vn  0.008376 -0.999965 0.000347
vn  0.013286 -0.783665 -0.621041
vn  -0.069024 -0.681271 -0.728770
vn  0.079094 0.727593 -0.681434
vn  -0.205948 -0.616358 -0.760058
vn  0.247203 0.709615 -0.659801
vn  0.079094 0.727598 0.681428
vn  0.247203 0.709620 0.659796
vn  -0.069024 -0.681265 0.728775
vn  -0.205948 -0.616352 0.760062
vn  -0.069024 -0.681271 -0.728770
vn  -0.205948 -0.616358 -0.760058
vn  -0.476678 -0.370237 -0.797310
vn  -0.476677 -0.370230 0.797313
vn  -0.584589 0.067653 -0.808504
vn  -0.584590 0.067659 0.808503
vn  -0.425870 0.442437 0.789230
vn  -0.425869 0.442430 -0.789234
vn  -0.927173 -0.374634 0.000020
vn  0.496059 -0.587566 0.639290
vn  0.766473 -0.100918 0.634299
vn  0.629678 0.452522 0.631451
vn  0.629678 0.452516 -0.631455
vn  -0.476678 -0.370237 -0.797310
vn  0.766473 -0.100922 -0.634298
vn  -0.584589 0.067653 -0.808504
vn  -0.425869 0.442430 -0.789234
vn  0.496059 -0.587572 -0.639284

g C1246
usemtl mesh1material
f  1/1/1 2/2/2 3/3/3
f  4/4/4 3/3/3 2/2/2
f  5/5/5 6/6/6 7/7/7
f  8/8/8 7/7/7 6/6/6
f  9/9/9 10/10/10 11/11/11
f  12/12/12 13/13/13 14/14/14
f  10/10/10 14/14/14 13/13/13
f  14/14/14 10/10/10 15/15/15
f  9/9/9 15/15/15 10/10/10
f  15/15/15 9/9/9 14/14/14
f  16/16/16 14/14/14 9/9/9
f  17/17/17 14/14/14 16/16/16
f  14/14/14 17/17/17 12/12/12
f  18/18/18 12/12/12 17/17/17
f  12/12/12 18/18/18 19/19/19
f  20/20/20 19/19/19 18/18/18
f  19/19/19 20/20/20 21/21/21
f  21/21/21 20/20/20 22/22/22
f  23/23/23 22/22/22 20/20/20
f  22/22/22 23/23/23 24/24/24
f  25/25/25 24/24/24 23/23/23
f  24/24/24 25/25/25 11/11/11
f  9/9/9 11/11/11 25/25/25
f  17/17/17 16/16/16 18/18/18
f  23/23/23 18/18/18 16/16/16
f  18/18/18 23/23/23 20/20/20
f  23/23/23 16/16/16 25/25/25
f  9/9/9 25/25/25 16/16/16
f  26/26/26 27/27/27 28/28/28
f  29/29/29 28/28/28 27/27/27
f  30/30/30 29/29/29 31/31/31
f  27/27/27 31/31/31 29/29/29
f  31/31/31 27/27/27 32/32/32
f  32/32/32 27/27/27 33/33/33
f  26/26/26 33/33/33 27/27/27
f  33/33/33 26/26/26 34/34/34
f  35/35/35 36/36/36 37/37/37
f  38/38/38 37/37/37 36/36/36
f  39/39/39 37/37/37 38/38/38
f  37/37/37 39/39/39 35/35/35
f  40/40/40 41/41/41 42/42/42
f  35/35/35 42/42/42 41/41/41
f  42/42/42 35/35/35 43/43/43
f  39/39/39 43/43/43 35/35/35
f  43/43/43 39/39/39 44/44/44
f  44/44/44 39/39/39 45/45/45
f  38/38/38 45/45/45 39/39/39
f  36/36/36 45/45/45 38/38/38
f  45/45/45 36/36/36 46/46/46
f  35/35/35 46/46/46 36/36/36
f  46/46/46 35/35/35 41/41/41
f  41/41/41 47/47/47 46/46/46
f  48/48/48 46/46/46 47/47/47
f  46/46/46 48/48/48 45/45/45
f  49/49/49 45/45/45 48/48/48
f  45/45/45 49/49/49 44/44/44
f  50/50/50 44/44/44 49/49/49
f  44/44/44 50/50/50 43/43/43
f  51/51/51 43/43/43 50/50/50
f  43/43/43 51/51/51 42/42/42
f  52/52/52 42/42/42 51/51/51
f  42/42/42 52/52/52 40/40/40
f  53/53/53 40/40/40 52/52/52
f  40/40/40 53/53/53 54/54/54
f  55/55/55 54/54/54 53/53/53
f  56/56/56 54/54/54 55/55/55
f  54/54/54 56/56/56 40/40/40
f  57/57/57 40/40/40 56/56/56
f  40/40/40 57/57/57 41/41/41
f  41/41/41 57/57/57 47/47/47
f  47/47/47 57/57/57 48/48/48
f  48/48/48 57/57/57 58/58/58
f  56/56/56 58/58/58 57/57/57
f  55/55/55 58/58/58 56/56/56
f  53/53/53 58/58/58 55/55/55
f  58/58/58 53/53/53 59/59/59
f  52/52/52 59/59/59 53/53/53
f  59/59/59 52/52/52 60/60/60
f  51/51/51 60/60/60 52/52/52
f  60/60/60 51/51/51 61/61/61
f  50/50/50 61/61/61 51/51/51
f  61/61/61 50/50/50 62/62/62
f  63/63/63 62/62/62 50/50/50
f  64/64/64 62/62/62 63/63/63
f  62/62/62 64/64/64 61/61/61
f  65/65/65 61/61/61 64/64/64
f  61/61/61 65/65/65 66/66/66
f  66/66/66 65/65/65 67/67/67
f  64/64/64 67/67/67 65/65/65
f  67/67/67 64/64/64 68/68/68
f  63/63/63 68/68/68 64/64/64
f  50/50/50 68/68/68 63/63/63
f  68/68/68 50/50/50 69/69/69
f  49/49/49 69/69/69 50/50/50
f  69/69/69 49/49/49 60/60/60
f  60/60/60 49/49/49 59/59/59
f  59/59/59 49/49/49 58/58/58
f  48/48/48 58/58/58 49/49/49
f  68/68/68 69/69/69 67/67/67
f  70/70/70 67/67/67 69/69/69
f  67/67/67 70/70/70 66/66/66
f  71/71/71 66/66/66 70/70/70
f  72/72/72 66/66/66 71/71/71
f  66/66/66 72/72/72 61/61/61
f  61/61/61 72/72/72 60/60/60
f  71/71/71 60/60/60 72/72/72
f  70/70/70 60/60/60 71/71/71
f  60/60/60 70/70/70 69/69/69
f  73/73/73 74/74/74 75/75/75
f  75/75/75 74/74/74 76/76/76
f  77/77/77 76/76/76 74/74/74
f  76/76/76 77/77/77 78/78/78
f  79/79/79 78/78/78 77/77/77
f  78/78/78 79/79/79 80/80/80
f  81/81/81 80/80/80 79/79/79
f  82/82/82 80/80/80 81/81/81
f  83/83/83 80/80/80 82/82/82
f  80/80/80 83/83/83 84/84/84
f  85/85/85 84/84/84 83/83/83
f  84/84/84 85/85/85 86/86/86
f  86/86/86 85/85/85 87/87/87
f  88/88/88 87/87/87 85/85/85
f  89/89/89 87/87/87 88/88/88
f  90/90/90 87/87/87 89/89/89
f  87/87/87 90/90/90 86/86/86
f  91/91/91 86/86/86 90/90/90
f  86/86/86 91/91/91 84/84/84
f  92/92/92 84/84/84 91/91/91
f  84/84/84 92/92/92 80/80/80
f  80/80/80 92/92/92 78/78/78
f  78/78/78 92/92/92 76/76/76
f  93/93/93 76/76/76 92/92/92
f  76/76/76 93/93/93 75/75/75
f  75/75/75 93/93/93 94/94/94
f  95/95/95 94/94/94 93/93/93
f  94/94/94 95/95/95 96/96/96
f  96/96/96 95/95/95 97/97/97
f  98/98/98 97/97/97 95/95/95
f  97/97/97 98/98/98 89/89/89
f  89/89/89 98/98/98 90/90/90
f  90/90/90 98/98/98 91/91/91
f  95/95/95 91/91/91 98/98/98
f  93/93/93 91/91/91 95/95/95
f  91/91/91 93/93/93 92/92/92

g
v  -0.010907 0.000211 0.095888
v  -0.142881 0.000343 0.095888
v  -0.010907 0.000211 0.227862
v  -0.142881 0.000344 0.227862

vt  0.000000 -0.000000 0.000000
vt  0.000000 -1.000000 0.000000
vt  1.000000 -0.000000 0.000000
vt  1.000000 -1.000000 0.000000

vn  0.001002 1.000000 -0.000004
vn  0.001002 1.000000 -0.000004
vn  0.001002 1.000000 -0.000004
vn  0.001002 1.000000 -0.000004

g Plane
usemtl 2_8
f  99/99/99 100/100/100 101/101/101
f  102/102/102 101/101/101 100/100/100

g
