# Noesis .obj export.
#
mtllib c1205.mtl
g
v  0.264359 -0.009542 0.205961
v  0.264359 0.114566 0.174377
v  0.178244 0.122945 0.188206
v  0.178244 0.194427 0.098668
v  0.264359 0.181490 0.091697
v  0.193457 0.211240 0.000060
v  0.249146 0.200402 0.000060
v  0.264359 0.181490 -0.091577
v  0.178244 -0.009587 0.213492
v  0.264358 -0.118770 0.178473
v  0.178244 -0.126418 0.184898
v  0.264359 -0.198730 0.099233
v  0.178244 -0.211945 0.106777
v  0.264359 -0.227998 0.000062
v  0.178244 -0.243250 0.000062
v  0.178244 -0.211946 -0.106654
v  0.264359 -0.198731 -0.099110
v  0.178244 -0.126419 -0.184775
v  0.264358 -0.118771 -0.178350
v  0.178244 -0.009588 -0.213370
v  0.264359 -0.009543 -0.205839
v  0.178244 0.122943 -0.188084
v  0.264359 0.114565 -0.174256
v  0.178244 0.194426 -0.098548
v  0.203489 0.227085 -0.023015
v  0.226310 0.226954 -0.032140
v  0.221334 0.205381 0.000060
v  0.251571 0.219038 -0.021649
v  0.261678 0.218461 0.000060
v  0.251571 0.219038 0.021769
v  0.226310 0.226954 0.032261
v  0.203489 0.227085 0.023135
v  0.192085 0.230253 0.000060
v  0.226387 0.224830 0.053851
v  0.251820 0.214704 0.043898
v  0.278079 0.229651 0.057225
v  0.287974 0.207449 0.000173
v  0.251820 0.214704 0.043898
v  0.226387 0.224830 0.053851
v  0.226387 0.246918 0.076652
v  0.200886 0.222348 0.045080
v  0.176212 0.246210 0.059792
v  0.200886 0.222348 0.045080
v  0.226387 0.227113 0.027266
v  0.256758 0.208138 0.000060
v  0.226387 0.213178 0.025029
v  0.226387 0.205757 0.000060
v  0.191600 0.213173 0.000060
v  0.226387 0.213178 -0.024909
v  0.200886 0.222348 -0.044959
v  0.226387 0.224830 -0.053731
v  0.176212 0.246210 -0.059672
v  0.226387 0.246917 -0.076532
v  0.226387 0.224830 -0.053731
v  0.278079 0.229650 -0.057105
v  0.251820 0.214703 -0.043778
v  0.191600 0.213173 0.000060
v  0.157658 0.222866 0.000060
v  0.226387 0.220609 0.000060
v  0.226387 0.227113 -0.027145
v  0.200886 0.222348 -0.044959
v  0.251820 0.214703 -0.043778
v  0.287974 0.207449 -0.000052
v  0.212176 0.235403 -0.016444
v  0.202611 0.237354 0.000060
v  0.228902 0.240067 0.000060
v  0.212176 0.235403 0.016565
v  0.228471 0.233187 0.022141
v  0.245825 0.228644 0.016055
v  0.253736 0.228241 0.000060
v  0.245825 0.228644 -0.015935
v  0.228471 0.233187 -0.022021
v  0.251571 0.219038 -0.021649
v  0.261678 0.218461 0.000060
v  0.251571 0.219038 0.021769
v  0.226310 0.226954 0.032261
v  0.203489 0.227085 0.023135
v  0.192085 0.230253 0.000060
v  0.203489 0.227085 -0.023015
v  0.226310 0.226954 -0.032140
v  0.264359 -0.009542 0.205961
v  0.264358 -0.118770 0.178473
v  0.226164 -0.007914 0.000061
v  0.264359 -0.198730 0.099233
v  0.264359 -0.227998 0.000062
v  0.264359 -0.198731 -0.099110
v  0.264358 -0.118771 -0.178350
v  0.264359 -0.009543 -0.205839
v  0.264359 0.114565 -0.174256
v  0.264359 0.181490 -0.091577
v  0.249146 0.200402 0.000060
v  0.264359 0.181490 0.091697
v  0.264359 0.114566 0.174377
v  0.178244 -0.126418 0.184898
v  0.178244 -0.009587 0.213492
v  0.213511 -0.007892 0.000061
v  0.178244 0.122945 0.188206
v  0.178244 0.194427 0.098668
v  0.193457 0.211240 0.000060
v  0.178244 0.194426 -0.098548
v  0.178244 0.122943 -0.188084
v  0.178244 -0.009588 -0.213370
v  0.178244 -0.126419 -0.184775
v  0.178244 -0.211946 -0.106654
v  0.178244 -0.243250 0.000062
v  0.178244 -0.211945 0.106777
v  0.221330 0.185637 0.115864
v  0.274318 0.187016 0.082256
v  0.221329 0.212118 0.057962
v  0.263086 0.202604 0.041158
v  0.221329 0.208101 0.000060
v  0.251856 0.202043 0.000060
v  0.263086 0.202603 -0.041037
v  0.221329 0.212117 -0.057842
v  0.274318 0.187015 -0.082135
v  0.221330 0.185637 -0.115743
v  0.168342 0.199952 -0.090371
v  0.179573 0.216423 -0.045155
v  0.190804 0.211682 0.000060
v  0.179573 0.216424 0.045276
v  0.168342 0.199952 0.090491

vt  0.171095 -0.520776 0.000000
vt  0.172507 -0.358200 0.000000
vt  0.024814 -0.346117 0.000000
vt  0.096056 -0.154176 0.000000
vt  0.238100 -0.179924 0.000000
vt  0.210797 -0.016410 0.000000
vt  0.298831 -0.041450 0.000000
vt  0.238100 -0.179924 0.000000
vt  0.022053 -0.522286 0.000000
vt  0.178521 -0.665343 0.000000
vt  0.030000 -0.676862 0.000000
vt  0.228084 -0.818928 0.000000
vt  0.083924 -0.842138 0.000000
vt  0.311761 -0.946996 0.000000
vt  0.174012 -0.979762 0.000000
vt  0.083924 -0.842138 0.000000
vt  0.228084 -0.818928 0.000000
vt  0.030000 -0.676862 0.000000
vt  0.178521 -0.665343 0.000000
vt  0.022053 -0.522286 0.000000
vt  0.171095 -0.520776 0.000000
vt  0.024814 -0.346117 0.000000
vt  0.172507 -0.358200 0.000000
vt  0.096056 -0.154176 0.000000
vt  0.967369 -0.721585 0.000000
vt  0.896809 -0.652153 0.000000
vt  0.876080 -0.785734 0.000000
vt  0.793999 -0.656332 0.000000
vt  0.731984 -0.726472 0.000000
vt  0.793999 -0.656332 0.000000
vt  0.896809 -0.652153 0.000000
vt  0.967369 -0.721585 0.000000
vt  0.980549 -0.828699 0.000000
vt  0.705466 -0.305233 0.000000
vt  0.756620 -0.187598 0.000000
vt  0.688125 -0.066142 0.000000
vt  0.981350 -0.020373 0.000000
vt  0.756620 -0.187598 0.000000
vt  0.705466 -0.305233 0.000000
vt  0.588281 -0.305233 0.000000
vt  0.750548 -0.423179 0.000000
vt  0.674934 -0.537304 0.000000
vt  0.750548 -0.423179 0.000000
vt  0.829670 -0.305233 0.000000
vt  0.981350 -0.164758 0.000000
vt  0.830389 -0.305233 0.000000
vt  0.981350 -0.305233 0.000000
vt  0.981350 -0.466132 0.000000
vt  0.830389 -0.305233 0.000000
vt  0.750548 -0.423179 0.000000
vt  0.705466 -0.305233 0.000000
vt  0.674934 -0.537304 0.000000
vt  0.588281 -0.305233 0.000000
vt  0.705466 -0.305233 0.000000
vt  0.688125 -0.066142 0.000000
vt  0.756620 -0.187598 0.000000
vt  0.981350 -0.466132 0.000000
vt  0.981350 -0.623120 0.000000
vt  0.981350 -0.305233 0.000000
vt  0.829670 -0.305233 0.000000
vt  0.750548 -0.423179 0.000000
vt  0.756620 -0.187598 0.000000
vt  0.981350 -0.020373 0.000000
vt  0.672678 -0.888467 0.000000
vt  0.620172 -0.981701 0.000000
vt  0.764494 -0.981702 0.000000
vt  0.672678 -0.888467 0.000000
vt  0.762122 -0.856750 0.000000
vt  0.857377 -0.891366 0.000000
vt  0.900802 -0.981702 0.000000
vt  0.857377 -0.891366 0.000000
vt  0.762122 -0.856750 0.000000
vt  0.918418 -0.837352 0.000000
vt  0.983331 -0.981071 0.000000
vt  0.918418 -0.837352 0.000000
vt  0.756192 -0.767535 0.000000
vt  0.609631 -0.828261 0.000000
vt  0.536392 -0.981069 0.000000
vt  0.609631 -0.828261 0.000000
vt  0.756192 -0.767535 0.000000
vt  0.374196 -0.133431 0.000000
vt  0.292899 -0.176280 0.000000
vt  0.415597 -0.316197 0.000000
vt  0.243784 -0.256574 0.000000
vt  0.240128 -0.353335 0.000000
vt  0.243784 -0.256574 0.000000
vt  0.292899 -0.176280 0.000000
vt  0.374196 -0.133431 0.000000
vt  0.477075 -0.134173 0.000000
vt  0.546365 -0.199557 0.000000
vt  0.576506 -0.281994 0.000000
vt  0.546365 -0.199557 0.000000
vt  0.477075 -0.134173 0.000000
vt  0.292899 -0.176280 0.000000
vt  0.374196 -0.133431 0.000000
vt  0.415597 -0.316197 0.000000
vt  0.477075 -0.134173 0.000000
vt  0.546365 -0.199557 0.000000
vt  0.576506 -0.281994 0.000000
vt  0.546365 -0.199557 0.000000
vt  0.477075 -0.134173 0.000000
vt  0.374196 -0.133431 0.000000
vt  0.292899 -0.176280 0.000000
vt  0.243784 -0.256574 0.000000
vt  0.240128 -0.353335 0.000000
vt  0.243784 -0.256574 0.000000
vt  0.515117 -0.888156 0.000000
vt  0.713863 -0.685239 0.000000
vt  0.458822 -0.623306 0.000000
vt  0.624855 -0.507679 0.000000
vt  0.402637 -0.358970 0.000000
vt  0.535957 -0.330633 0.000000
vt  0.624855 -0.507679 0.000000
vt  0.458822 -0.623306 0.000000
vt  0.713863 -0.685239 0.000000
vt  0.515117 -0.888156 0.000000
vt  0.259027 -0.821288 0.000000
vt  0.264118 -0.604041 0.000000
vt  0.269317 -0.387307 0.000000
vt  0.264118 -0.604041 0.000000
vt  0.259027 -0.821288 0.000000

vn  0.747865 -0.014422 0.663694
vn  0.759098 0.352517 0.547268
vn  -0.621304 0.417353 0.663173
vn  -0.660453 0.699762 0.272278
vn  0.783094 0.582334 0.218288
vn  -0.588787 0.808288 -0.000003
vn  0.734641 0.678456 -0.000002
vn  0.783095 0.582333 -0.218292
vn  -0.683108 -0.020451 0.730031
vn  0.744279 -0.321370 0.585466
vn  -0.663716 -0.365078 0.652840
vn  0.765446 -0.546835 0.339211
vn  -0.636057 -0.654260 0.409115
vn  0.761239 -0.648471 0.000002
vn  -0.631980 -0.774984 0.000003
vn  -0.636057 -0.654263 -0.409110
vn  0.765446 -0.546837 -0.339208
vn  -0.663716 -0.365082 -0.652837
vn  0.744279 -0.321374 -0.585464
vn  -0.683107 -0.020456 -0.730031
vn  0.747865 -0.014427 -0.663694
vn  -0.621304 0.417348 -0.663176
vn  0.759098 0.352513 -0.547271
vn  -0.660453 0.699760 -0.272283
vn  -0.666180 -0.022679 -0.745446
vn  -0.019097 0.067899 -0.997510
vn  -0.195356 -0.980732 0.000003
vn  0.660129 -0.255576 -0.706336
vn  0.970175 -0.242407 0.000001
vn  0.660129 -0.255571 0.706338
vn  -0.019097 0.067906 0.997509
vn  -0.666180 -0.022674 0.745446
vn  -0.995170 0.098167 -0.000000
vn  -0.103854 -0.797485 0.594334
vn  0.028256 -0.890383 0.454335
vn  -0.101368 -0.590893 0.800356
vn  -0.018438 -0.996539 0.081055
vn  0.087651 0.917999 -0.386776
vn  0.118934 0.887549 -0.445098
vn  0.001726 -0.665222 -0.746644
vn  -0.240272 -0.837496 0.490785
vn  -0.345182 -0.588781 0.730881
vn  0.134517 0.897736 -0.419494
vn  0.109724 0.990435 -0.083656
vn  0.961079 -0.276274 0.000001
vn  -0.103709 -0.957448 0.269327
vn  -0.064215 -0.997936 0.000003
vn  -0.972676 -0.126134 -0.194914
vn  -0.103709 -0.957450 -0.269321
vn  -0.240272 -0.837500 -0.490779
vn  -0.103854 -0.797489 -0.594328
vn  -0.461569 0.139395 0.876084
vn  0.446574 0.653958 0.610665
vn  0.118934 0.887552 0.445092
vn  0.937219 -0.305814 0.167628
vn  0.028256 -0.890386 -0.454329
vn  -0.972676 -0.126132 0.194915
vn  -0.020571 -0.970728 -0.239297
vn  0.093573 0.995612 -0.000003
vn  0.109724 0.990436 0.083649
vn  0.134517 0.897739 0.419488
vn  0.087651 0.918001 0.386770
vn  0.573639 -0.779195 -0.252573
vn  -0.213040 0.873520 -0.437696
vn  -0.401505 0.915857 -0.000003
vn  0.174126 0.984723 -0.000003
vn  -0.213040 0.873523 0.437690
vn  0.150774 0.874873 0.460288
vn  0.515910 0.760931 0.393472
vn  0.656182 0.754603 -0.000003
vn  0.515910 0.760929 -0.393477
vn  0.150774 0.874869 -0.460294
vn  0.660129 -0.255576 -0.706336
vn  0.970175 -0.242407 0.000001
vn  0.660129 -0.255571 0.706338
vn  -0.019097 0.067906 0.997509
vn  -0.666180 -0.022674 0.745446
vn  -0.995170 0.098167 -0.000000
vn  -0.666180 -0.022679 -0.745446
vn  -0.019097 0.067899 -0.997510
vn  0.747865 -0.014422 0.663694
vn  0.744279 -0.321370 0.585466
vn  0.999966 0.008267 -0.000000
vn  0.765446 -0.546835 0.339211
vn  0.761239 -0.648471 0.000002
vn  0.765446 -0.546837 -0.339208
vn  0.744279 -0.321374 -0.585464
vn  0.747865 -0.014427 -0.663694
vn  0.759098 0.352513 -0.547271
vn  0.783095 0.582333 -0.218292
vn  0.734641 0.678456 -0.000002
vn  0.783094 0.582334 0.218288
vn  0.759098 0.352517 0.547268
vn  -0.663716 -0.365078 0.652840
vn  -0.683108 -0.020451 0.730031
vn  -0.999964 0.008492 -0.000000
vn  -0.621304 0.417353 0.663173
vn  -0.660453 0.699762 0.272278
vn  -0.588787 0.808288 -0.000003
vn  -0.660453 0.699760 -0.272283
vn  -0.621304 0.417348 -0.663176
vn  -0.683107 -0.020456 -0.730031
vn  -0.663716 -0.365082 -0.652837
vn  -0.636057 -0.654263 -0.409110
vn  -0.631980 -0.774984 0.000003
vn  -0.636057 -0.654260 0.409115
vn  0.139802 0.900478 0.411820
vn  0.268924 0.899908 0.343287
vn  0.153401 0.968624 0.195541
vn  0.255379 0.962602 0.090440
vn  0.157927 0.987451 -0.000003
vn  0.194657 0.980871 -0.000004
vn  0.255379 0.962601 -0.090446
vn  0.153401 0.968622 -0.195548
vn  0.268924 0.899905 -0.343294
vn  0.139802 0.900475 -0.411826
vn  0.024550 0.922578 -0.385030
vn  0.061087 0.989619 -0.130089
vn  0.116513 0.993189 -0.000003
vn  0.061087 0.989620 0.130082
vn  0.024550 0.922580 0.385023

g C1205
usemtl mesh1material
f  1/1/1 2/2/2 3/3/3
f  3/3/3 2/2/2 4/4/4
f  5/5/5 4/4/4 2/2/2
f  4/4/4 5/5/5 6/6/6
f  7/7/7 6/6/6 5/5/5
f  6/6/6 7/7/7 8/8/8
f  9/9/9 1/1/1 3/3/3
f  1/1/1 9/9/9 10/10/10
f  11/11/11 10/10/10 9/9/9
f  10/10/10 11/11/11 12/12/12
f  13/13/13 12/12/12 11/11/11
f  12/12/12 13/13/13 14/14/14
f  15/15/15 14/14/14 13/13/13
f  16/16/16 14/14/14 15/15/15
f  14/14/14 16/16/16 17/17/17
f  18/18/18 17/17/17 16/16/16
f  17/17/17 18/18/18 19/19/19
f  20/20/20 19/19/19 18/18/18
f  19/19/19 20/20/20 21/21/21
f  22/22/22 21/21/21 20/20/20
f  21/21/21 22/22/22 23/23/23
f  24/24/24 23/23/23 22/22/22
f  23/23/23 24/24/24 8/8/8
f  6/6/6 8/8/8 24/24/24
f  25/25/25 26/26/26 27/27/27
f  28/28/28 27/27/27 26/26/26
f  29/29/29 27/27/27 28/28/28
f  30/30/30 27/27/27 29/29/29
f  31/31/31 27/27/27 30/30/30
f  32/32/32 27/27/27 31/31/31
f  33/33/33 27/27/27 32/32/32
f  27/27/27 33/33/33 25/25/25
f  34/34/34 35/35/35 36/36/36
f  37/37/37 36/36/36 35/35/35
f  38/38/38 36/36/36 37/37/37
f  39/39/39 36/36/36 38/38/38
f  40/40/40 36/36/36 39/39/39
f  36/36/36 40/40/40 34/34/34
f  41/41/41 34/34/34 42/42/42
f  40/40/40 42/42/42 34/34/34
f  39/39/39 42/42/42 40/40/40
f  42/42/42 39/39/39 43/43/43
f  43/43/43 39/39/39 44/44/44
f  38/38/38 44/44/44 39/39/39
f  44/44/44 38/38/38 45/45/45
f  37/37/37 45/45/45 38/38/38
f  35/35/35 45/45/45 37/37/37
f  45/45/45 35/35/35 46/46/46
f  34/34/34 46/46/46 35/35/35
f  46/46/46 34/34/34 41/41/41
f  47/47/47 48/48/48 49/49/49
f  50/50/50 49/49/49 48/48/48
f  49/49/49 50/50/50 51/51/51
f  52/52/52 51/51/51 50/50/50
f  51/51/51 52/52/52 53/53/53
f  54/54/54 53/53/53 52/52/52
f  55/55/55 53/53/53 54/54/54
f  53/53/53 55/55/55 51/51/51
f  56/56/56 51/51/51 55/55/55
f  51/51/51 56/56/56 49/49/49
f  45/45/45 49/49/49 56/56/56
f  49/49/49 45/45/45 47/47/47
f  46/46/46 47/47/47 45/45/45
f  47/47/47 46/46/46 57/57/57
f  41/41/41 57/57/57 46/46/46
f  57/57/57 41/41/41 58/58/58
f  42/42/42 58/58/58 41/41/41
f  58/58/58 42/42/42 43/43/43
f  58/58/58 43/43/43 57/57/57
f  44/44/44 57/57/57 43/43/43
f  57/57/57 44/44/44 59/59/59
f  45/45/45 59/59/59 44/44/44
f  60/60/60 59/59/59 45/45/45
f  59/59/59 60/60/60 48/48/48
f  48/48/48 60/60/60 61/61/61
f  54/54/54 61/61/61 60/60/60
f  52/52/52 61/61/61 54/54/54
f  61/61/61 52/52/52 58/58/58
f  50/50/50 58/58/58 52/52/52
f  48/48/48 58/58/58 50/50/50
f  58/58/58 48/48/48 61/61/61
f  54/54/54 60/60/60 62/62/62
f  45/45/45 62/62/62 60/60/60
f  62/62/62 45/45/45 63/63/63
f  56/56/56 63/63/63 45/45/45
f  55/55/55 63/63/63 56/56/56
f  63/63/63 55/55/55 62/62/62
f  54/54/54 62/62/62 55/55/55
f  64/64/64 65/65/65 66/66/66
f  67/67/67 66/66/66 65/65/65
f  68/68/68 66/66/66 67/67/67
f  69/69/69 66/66/66 68/68/68
f  70/70/70 66/66/66 69/69/69
f  71/71/71 66/66/66 70/70/70
f  72/72/72 66/66/66 71/71/71
f  66/66/66 72/72/72 64/64/64
f  73/73/73 71/71/71 74/74/74
f  70/70/70 74/74/74 71/71/71
f  69/69/69 74/74/74 70/70/70
f  74/74/74 69/69/69 75/75/75
f  75/75/75 69/69/69 76/76/76
f  68/68/68 76/76/76 69/69/69
f  76/76/76 68/68/68 77/77/77
f  67/67/67 77/77/77 68/68/68
f  77/77/77 67/67/67 78/78/78
f  65/65/65 78/78/78 67/67/67
f  64/64/64 78/78/78 65/65/65
f  78/78/78 64/64/64 79/79/79
f  72/72/72 79/79/79 64/64/64
f  79/79/79 72/72/72 80/80/80
f  71/71/71 80/80/80 72/72/72
f  80/80/80 71/71/71 73/73/73
f  81/81/81 82/82/82 83/83/83
f  84/84/84 83/83/83 82/82/82
f  85/85/85 83/83/83 84/84/84
f  86/86/86 83/83/83 85/85/85
f  87/87/87 83/83/83 86/86/86
f  88/88/88 83/83/83 87/87/87
f  89/89/89 83/83/83 88/88/88
f  90/90/90 83/83/83 89/89/89
f  91/91/91 83/83/83 90/90/90
f  92/92/92 83/83/83 91/91/91
f  93/93/93 83/83/83 92/92/92
f  83/83/83 93/93/93 81/81/81
f  94/94/94 95/95/95 96/96/96
f  97/97/97 96/96/96 95/95/95
f  98/98/98 96/96/96 97/97/97
f  99/99/99 96/96/96 98/98/98
f  100/100/100 96/96/96 99/99/99
f  101/101/101 96/96/96 100/100/100
f  102/102/102 96/96/96 101/101/101
f  103/103/103 96/96/96 102/102/102
f  104/104/104 96/96/96 103/103/103
f  105/105/105 96/96/96 104/104/104
f  106/106/106 96/96/96 105/105/105
f  96/96/96 106/106/106 94/94/94
f  107/107/107 108/108/108 109/109/109
f  110/110/110 109/109/109 108/108/108
f  109/109/109 110/110/110 111/111/111
f  112/112/112 111/111/111 110/110/110
f  113/113/113 111/111/111 112/112/112
f  111/111/111 113/113/113 114/114/114
f  115/115/115 114/114/114 113/113/113
f  116/116/116 114/114/114 115/115/115
f  117/117/117 114/114/114 116/116/116
f  118/118/118 114/114/114 117/117/117
f  114/114/114 118/118/118 111/111/111
f  119/119/119 111/111/111 118/118/118
f  120/120/120 111/111/111 119/119/119
f  111/111/111 120/120/120 109/109/109
f  121/121/121 109/109/109 120/120/120
f  109/109/109 121/121/121 107/107/107

g
