# Noesis .obj export.
#
mtllib c1225.mtl
g
v  0.423087 0.139048 -0.278556
v  0.428419 0.137621 -0.261133
v  0.380392 0.109741 -0.283441
v  0.484120 0.150691 -0.307744
v  0.449508 0.170378 -0.278151
v  0.455748 0.157718 -0.274153
v  0.422755 0.157582 -0.250319
v  0.393992 0.110663 -0.255706
v  0.344422 0.070835 -0.305438
v  0.305927 0.097551 -0.329798
v  0.359334 0.137365 -0.295121
v  0.410615 0.153292 -0.283510
v  0.446398 0.144902 -0.286847
v  0.445410 0.155809 -0.293625
v  0.453029 0.145335 -0.276256
v  0.360119 0.173408 -0.252543
v  0.384963 0.139238 -0.239614
v  0.359769 0.075313 -0.260445
v  0.335432 0.043496 -0.261010
v  0.298100 0.014457 -0.315664
v  0.253201 0.068200 -0.331999
v  0.190101 0.029334 -0.307720
v  0.261724 -0.022175 -0.296891
v  0.316010 0.018584 -0.246367
v  0.315746 0.094163 -0.237647
v  0.299506 0.079409 -0.227790
v  0.251443 0.125422 -0.249514
v  0.278918 0.135627 -0.258917
v  0.315572 0.153211 -0.252438
v  0.344801 0.115504 -0.234273
v  0.239304 0.118767 -0.226125
v  0.293601 0.072738 -0.210484
v  0.300548 0.005938 -0.219875
v  0.227124 -0.038684 -0.258022
v  0.155832 0.010845 -0.259858
v  0.139363 -0.000883 -0.185828
v  0.222839 -0.051505 -0.184007
v  0.130117 0.000783 -0.083281
v  0.217239 -0.052331 -0.119010
v  0.226974 -0.039822 -0.056710
v  0.298796 0.004779 -0.119037
v  0.314251 0.017335 -0.057038
v  0.297695 0.077038 -0.135547
v  0.304262 0.088738 -0.080991
v  0.223097 0.133767 -0.092541
v  0.234228 0.121755 -0.179217
v  0.293964 0.071093 -0.172940
v  0.296623 -0.001927 -0.181765
v  0.141562 0.094332 -0.088120
v  0.156304 0.089530 -0.187750
v  0.165676 0.086716 -0.250500
v  0.194829 0.094501 -0.286666
v  0.239637 0.113435 -0.304185
v  0.294491 0.148154 -0.301271
v  0.350982 0.172782 -0.284302
v  0.411890 0.177818 -0.261995
v  0.407210 0.175479 -0.278361
v  0.445913 0.168180 -0.289839
v  0.130117 0.000783 -0.083281
v  0.139363 -0.000883 -0.185828
v  0.155832 0.010845 -0.259858
v  0.190101 0.029334 -0.307720
v  0.253201 0.068200 -0.331999
v  0.305927 0.097551 -0.329798
v  0.359334 0.137365 -0.295121
v  0.410615 0.153292 -0.283510
v  0.445410 0.155809 -0.293625
v  0.410615 0.153294 0.283509
v  0.445410 0.155811 0.293624
v  0.407210 0.175482 0.278359
v  0.445914 0.168183 0.289837
v  0.411890 0.177820 0.261993
v  0.449508 0.170380 0.278149
v  0.484120 0.150693 0.307743
v  0.253201 0.068202 0.331998
v  0.305927 0.097554 0.329796
v  0.239637 0.113438 0.304184
v  0.294491 0.148156 0.301270
v  0.278918 0.135629 0.258916
v  0.315572 0.153213 0.252436
v  0.350982 0.172785 0.284300
v  0.360119 0.173411 0.252542
v  0.359334 0.137368 0.295119
v  0.455748 0.157721 0.274151
v  0.422756 0.157584 0.250317
v  0.384963 0.139240 0.239613
v  0.344801 0.115506 0.234271
v  0.315746 0.094165 0.237646
v  0.251443 0.125424 0.249512
v  0.194829 0.094503 0.286665
v  0.190101 0.029337 0.307719
v  0.155832 0.010847 0.259858
v  0.165676 0.086718 0.250498
v  0.239304 0.118769 0.226124
v  0.299506 0.079411 0.227788
v  0.316010 0.018586 0.246367
v  0.335432 0.043498 0.261009
v  0.359769 0.075316 0.260444
v  0.393993 0.110665 0.255705
v  0.428420 0.137623 0.261131
v  0.453029 0.145337 0.276254
v  0.190101 0.029337 0.307719
v  0.298101 0.014460 0.315664
v  0.253201 0.068202 0.331998
v  0.305927 0.097554 0.329796
v  0.344422 0.070838 0.305437
v  0.380392 0.109743 0.283440
v  0.359334 0.137368 0.295119
v  0.423087 0.139051 0.278555
v  0.410615 0.153294 0.283509
v  0.446398 0.144904 0.286846
v  0.445410 0.155811 0.293624
v  0.261724 -0.022172 0.296891
v  0.227124 -0.038682 0.258021
v  0.300548 0.005940 0.219874
v  0.222839 -0.051503 0.184007
v  0.296624 -0.001926 0.181765
v  0.217239 -0.052330 0.119009
v  0.298796 0.004780 0.119037
v  0.293964 0.071094 0.172939
v  0.297695 0.077039 0.135546
v  0.234229 0.121757 0.179215
v  0.156304 0.089531 0.187749
v  0.139363 -0.000881 0.185827
v  0.155832 0.010847 0.259858
v  0.139363 -0.000881 0.185827
v  0.130117 0.000783 0.083281
v  0.226974 -0.039822 0.056710
v  0.314251 0.017336 0.057037
v  0.304263 0.088739 0.080989
v  0.223097 0.133768 0.092540
v  0.141562 0.094333 0.088118
v  0.130117 0.000783 0.083281
v  0.293601 0.072740 0.210483

vt  0.212335 -0.115510 0.000000
vt  0.196782 -0.147289 0.000000
vt  0.308997 -0.145638 0.000000
vt  0.089807 -0.050895 0.000000
vt  0.116598 -0.136846 0.000000
vt  0.135204 -0.120464 0.000000
vt  0.173779 -0.177140 0.000000
vt  0.269486 -0.192258 0.000000
vt  0.414360 -0.157218 0.000000
vt  0.450287 -0.062325 0.000000
vt  0.322990 -0.078920 0.000000
vt  0.231512 -0.084950 0.000000
vt  0.166304 -0.091008 0.000000
vt  0.169309 -0.066654 0.000000
vt  0.153800 -0.109610 0.000000
vt  0.174676 -0.281538 0.000000
vt  0.224899 -0.232498 0.000000
vt  0.356973 -0.234441 0.000000
vt  0.432674 -0.269946 0.000000
vt  0.537022 -0.176046 0.000000
vt  0.561234 -0.050662 0.000000
vt  0.708851 -0.075384 0.000000
vt  0.616465 -0.207439 0.000000
vt  0.493679 -0.313877 0.000000
vt  0.334183 -0.362226 0.000000
vt  0.373755 -0.409359 0.000000
vt  0.245396 -0.504255 0.000000
vt  0.220975 -0.437704 0.000000
vt  0.207703 -0.357071 0.000000
vt  0.282832 -0.300805 0.000000
vt  0.287875 -0.554299 0.000000
vt  0.414650 -0.445275 0.000000
vt  0.549701 -0.364796 0.000000
vt  0.693255 -0.258573 0.000000
vt  0.817276 -0.141154 0.000000
vt  0.907351 -0.241166 0.000000
vt  0.745778 -0.348881 0.000000
vt  0.982636 -0.356352 0.000000
vt  0.790447 -0.431476 0.000000
vt  0.811075 -0.506405 0.000000
vt  0.622588 -0.510267 0.000000
vt  0.631599 -0.590805 0.000000
vt  0.487470 -0.536682 0.000000
vt  0.508730 -0.585747 0.000000
vt  0.397145 -0.662322 0.000000
vt  0.343713 -0.607930 0.000000
vt  0.455796 -0.490621 0.000000
vt  0.588683 -0.409901 0.000000
vt  0.331292 -0.801796 0.000000
vt  0.250764 -0.740991 0.000000
vt  0.178895 -0.681129 0.000000
vt  0.134152 -0.611681 0.000000
vt  0.120852 -0.521507 0.000000
vt  0.127320 -0.410895 0.000000
vt  0.130184 -0.305885 0.000000
vt  0.141220 -0.200976 0.000000
vt  0.113371 -0.209474 0.000000
vt  0.094056 -0.137015 0.000000
vt  0.230883 -0.962549 0.000000
vt  0.130736 -0.877741 0.000000
vt  0.060914 -0.774076 0.000000
vt  0.020195 -0.666956 0.000000
vt  0.019755 -0.531836 0.000000
vt  0.023784 -0.434564 0.000000
vt  0.063935 -0.311405 0.000000
vt  0.070705 -0.207926 0.000000
vt  0.070353 -0.133132 0.000000
vt  0.070705 -0.207926 0.000000
vt  0.070353 -0.133132 0.000000
vt  0.113371 -0.209474 0.000000
vt  0.094056 -0.137015 0.000000
vt  0.141220 -0.200976 0.000000
vt  0.116598 -0.136846 0.000000
vt  0.089807 -0.050895 0.000000
vt  0.019755 -0.531836 0.000000
vt  0.023784 -0.434564 0.000000
vt  0.120852 -0.521507 0.000000
vt  0.127320 -0.410895 0.000000
vt  0.220975 -0.437704 0.000000
vt  0.207703 -0.357071 0.000000
vt  0.130184 -0.305885 0.000000
vt  0.174676 -0.281538 0.000000
vt  0.063935 -0.311405 0.000000
vt  0.135204 -0.120464 0.000000
vt  0.173779 -0.177140 0.000000
vt  0.224899 -0.232498 0.000000
vt  0.282832 -0.300805 0.000000
vt  0.334183 -0.362226 0.000000
vt  0.245396 -0.504255 0.000000
vt  0.134152 -0.611681 0.000000
vt  0.020195 -0.666956 0.000000
vt  0.060914 -0.774076 0.000000
vt  0.178895 -0.681129 0.000000
vt  0.287875 -0.554299 0.000000
vt  0.373755 -0.409359 0.000000
vt  0.493679 -0.313877 0.000000
vt  0.432674 -0.269946 0.000000
vt  0.356973 -0.234441 0.000000
vt  0.269486 -0.192258 0.000000
vt  0.196782 -0.147289 0.000000
vt  0.153800 -0.109610 0.000000
vt  0.708851 -0.075384 0.000000
vt  0.537022 -0.176046 0.000000
vt  0.561234 -0.050662 0.000000
vt  0.450287 -0.062325 0.000000
vt  0.414360 -0.157218 0.000000
vt  0.308997 -0.145638 0.000000
vt  0.322990 -0.078920 0.000000
vt  0.212335 -0.115510 0.000000
vt  0.231512 -0.084950 0.000000
vt  0.166304 -0.091008 0.000000
vt  0.169309 -0.066654 0.000000
vt  0.616465 -0.207439 0.000000
vt  0.693255 -0.258573 0.000000
vt  0.549701 -0.364796 0.000000
vt  0.745778 -0.348881 0.000000
vt  0.588683 -0.409901 0.000000
vt  0.790447 -0.431476 0.000000
vt  0.622588 -0.510267 0.000000
vt  0.455796 -0.490621 0.000000
vt  0.487470 -0.536682 0.000000
vt  0.343713 -0.607930 0.000000
vt  0.250764 -0.740991 0.000000
vt  0.130736 -0.877741 0.000000
vt  0.817276 -0.141154 0.000000
vt  0.907351 -0.241166 0.000000
vt  0.982636 -0.356352 0.000000
vt  0.811075 -0.506405 0.000000
vt  0.631599 -0.590805 0.000000
vt  0.508730 -0.585747 0.000000
vt  0.397145 -0.662322 0.000000
vt  0.331292 -0.801796 0.000000
vt  0.230883 -0.962549 0.000000
vt  0.414650 -0.445275 0.000000

vn  0.245103 -0.725863 -0.642687
vn  0.559113 -0.686124 0.465431
vn  0.617031 -0.394397 -0.680973
vn  0.811327 -0.134274 -0.568964
vn  0.447672 0.856299 0.257568
vn  0.686818 0.142100 0.712804
vn  0.400021 0.176792 0.899293
vn  0.605623 -0.673987 0.423039
vn  0.686514 -0.366542 -0.627970
vn  0.161887 0.167991 -0.972405
vn  0.325997 0.163603 -0.931107
vn  -0.001244 0.003604 -0.999993
vn  -0.043465 -0.867073 -0.496281
vn  -0.300607 -0.113598 -0.946959
vn  0.514598 -0.737129 0.437984
vn  -0.158696 0.804288 0.572657
vn  0.200953 0.001134 0.979600
vn  0.693738 -0.612905 0.378254
vn  0.796312 -0.525408 0.299724
vn  0.439376 -0.578080 -0.687584
vn  -0.200082 0.053745 -0.978304
vn  -0.562249 -0.195127 -0.803618
vn  0.200144 -0.825577 -0.527602
vn  0.828922 -0.512651 0.223779
vn  0.139936 0.076924 0.987168
vn  0.599437 0.363956 0.712889
vn  -0.151086 0.949859 0.273754
vn  -0.331396 0.801508 0.497756
vn  -0.380217 0.683724 0.622862
vn  0.061729 -0.049126 0.996883
vn  0.047039 0.994377 0.094879
vn  0.854199 0.465081 0.232471
vn  0.853366 -0.514483 0.084107
vn  -0.056166 -0.947116 -0.315938
vn  -0.836022 -0.340667 -0.430133
vn  -0.891516 -0.422720 -0.162810
vn  0.027852 -0.996032 -0.084522
vn  -0.872993 -0.487500 -0.015042
vn  -0.000889 -0.997387 0.072234
vn  0.176996 -0.971818 0.155703
vn  0.867378 -0.495348 -0.047812
vn  0.891138 -0.442409 -0.100733
vn  0.878765 0.447254 -0.166542
vn  0.850044 0.484642 -0.206269
vn  0.062535 0.987725 -0.143137
vn  0.155975 0.983168 -0.095147
vn  0.906222 0.418716 -0.058641
vn  0.867111 -0.498113 0.001194
vn  -0.818654 0.559703 -0.128599
vn  -0.771690 0.615791 -0.159048
vn  -0.769341 0.573330 -0.281792
vn  -0.598066 0.626884 -0.499332
vn  -0.438123 0.700558 -0.563265
vn  -0.318718 0.806927 -0.497280
vn  -0.115097 0.858689 -0.499405
vn  0.158251 0.906451 0.391540
vn  -0.005253 0.786089 -0.618091
vn  -0.005200 0.754956 -0.655755
vn  -0.872993 -0.487500 -0.015042
vn  -0.891516 -0.422720 -0.162810
vn  -0.836022 -0.340667 -0.430133
vn  -0.562249 -0.195127 -0.803618
vn  -0.200082 0.053745 -0.978304
vn  0.161887 0.167991 -0.972405
vn  0.325997 0.163603 -0.931107
vn  -0.001244 0.003604 -0.999993
vn  -0.300607 -0.113598 -0.946959
vn  -0.001243 0.003612 0.999993
vn  -0.300606 -0.113590 0.946960
vn  -0.005253 0.786095 0.618084
vn  -0.005200 0.754962 0.655748
vn  0.158251 0.906447 -0.391548
vn  0.447672 0.856297 -0.257575
vn  0.811327 -0.134269 0.568964
vn  -0.200082 0.053752 0.978304
vn  0.161887 0.167999 0.972404
vn  -0.438123 0.700562 0.563260
vn  -0.318718 0.806931 0.497273
vn  -0.331396 0.801504 -0.497763
vn  -0.380216 0.683719 -0.622868
vn  -0.115097 0.858693 0.499398
vn  -0.158696 0.804283 -0.572664
vn  0.325998 0.163610 0.931106
vn  0.686818 0.142094 -0.712805
vn  0.400020 0.176786 -0.899294
vn  0.200952 0.001127 -0.979600
vn  0.061728 -0.049134 -0.996883
vn  0.139937 0.076916 -0.987169
vn  -0.151086 0.949857 -0.273762
vn  -0.598066 0.626888 0.499327
vn  -0.562250 -0.195120 0.803619
vn  -0.836022 -0.340663 0.430135
vn  -0.769341 0.573332 0.281787
vn  0.047039 0.994376 -0.094887
vn  0.599438 0.363951 -0.712892
vn  0.828922 -0.512653 -0.223775
vn  0.796312 -0.525410 -0.299720
vn  0.693737 -0.612908 -0.378249
vn  0.605623 -0.673990 -0.423033
vn  0.559113 -0.686127 -0.465426
vn  0.514599 -0.737132 -0.437978
vn  -0.562250 -0.195120 0.803619
vn  0.439376 -0.578075 0.687589
vn  -0.200082 0.053752 0.978304
vn  0.161887 0.167999 0.972404
vn  0.686514 -0.366536 0.627973
vn  0.617030 -0.394391 0.680977
vn  0.325998 0.163610 0.931106
vn  0.245103 -0.725859 0.642693
vn  -0.001243 0.003612 0.999993
vn  -0.043465 -0.867070 0.496287
vn  -0.300606 -0.113590 0.946960
vn  0.200144 -0.825573 0.527610
vn  -0.056166 -0.947114 0.315945
vn  0.853366 -0.514484 -0.084102
vn  0.027852 -0.996032 0.084530
vn  0.867111 -0.498113 -0.001190
vn  -0.000889 -0.997388 -0.072226
vn  0.867378 -0.495348 0.047816
vn  0.906222 0.418716 0.058638
vn  0.878765 0.447256 0.166538
vn  0.155975 0.983169 0.095139
vn  -0.771690 0.615792 0.159044
vn  -0.891516 -0.422719 0.162814
vn  -0.836022 -0.340663 0.430135
vn  -0.891516 -0.422719 0.162814
vn  -0.872993 -0.487500 0.015046
vn  0.176996 -0.971819 -0.155695
vn  0.891138 -0.442408 0.100737
vn  0.850044 0.484644 0.206266
vn  0.062535 0.987726 0.143129
vn  -0.818654 0.559704 0.128595
vn  -0.872993 -0.487500 0.015046
vn  0.854199 0.465080 -0.232474

g C1225
usemtl C1225_3
f  1/1/1 2/2/2 3/3/3
f  4/4/4 5/5/5 6/6/6
f  7/7/7 6/6/6 5/5/5
f  6/6/6 7/7/7 2/2/2
f  8/8/8 2/2/2 7/7/7
f  2/2/2 8/8/8 3/3/3
f  9/9/9 3/3/3 8/8/8
f  10/10/10 3/3/3 9/9/9
f  11/11/11 3/3/3 10/10/10
f  3/3/3 11/11/11 1/1/1
f  12/12/12 1/1/1 11/11/11
f  1/1/1 12/12/12 13/13/13
f  14/14/14 13/13/13 12/12/12
f  4/4/4 13/13/13 14/14/14
f  13/13/13 4/4/4 15/15/15
f  6/6/6 15/15/15 4/4/4
f  2/2/2 15/15/15 6/6/6
f  1/1/1 15/15/15 2/2/2
f  15/15/15 1/1/1 13/13/13
f  16/16/16 17/17/17 7/7/7
f  7/7/7 17/17/17 8/8/8
f  18/18/18 8/8/8 17/17/17
f  8/8/8 18/18/18 9/9/9
f  19/19/19 9/9/9 18/18/18
f  20/20/20 9/9/9 19/19/19
f  9/9/9 20/20/20 10/10/10
f  10/10/10 20/20/20 21/21/21
f  21/21/21 20/20/20 22/22/22
f  22/22/22 20/20/20 23/23/23
f  19/19/19 23/23/23 20/20/20
f  23/23/23 19/19/19 24/24/24
f  25/25/25 24/24/24 19/19/19
f  24/24/24 25/25/25 26/26/26
f  26/26/26 25/25/25 27/27/27
f  27/27/27 25/25/25 28/28/28
f  28/28/28 25/25/25 29/29/29
f  30/30/30 29/29/29 25/25/25
f  29/29/29 30/30/30 16/16/16
f  16/16/16 30/30/30 17/17/17
f  17/17/17 30/30/30 18/18/18
f  18/18/18 30/30/30 19/19/19
f  25/25/25 19/19/19 30/30/30
f  27/27/27 31/31/31 26/26/26
f  32/32/32 26/26/26 31/31/31
f  26/26/26 32/32/32 24/24/24
f  33/33/33 24/24/24 32/32/32
f  34/34/34 24/24/24 33/33/33
f  24/24/24 34/34/34 23/23/23
f  23/23/23 34/34/34 22/22/22
f  22/22/22 34/34/34 35/35/35
f  35/35/35 34/34/34 36/36/36
f  37/37/37 36/36/36 34/34/34
f  36/36/36 37/37/37 38/38/38
f  39/39/39 38/38/38 37/37/37
f  38/38/38 39/39/39 40/40/40
f  41/41/41 40/40/40 39/39/39
f  40/40/40 41/41/41 42/42/42
f  43/43/43 42/42/42 41/41/41
f  42/42/42 43/43/43 44/44/44
f  45/45/45 44/44/44 43/43/43
f  45/45/45 43/43/43 46/46/46
f  47/47/47 46/46/46 43/43/43
f  46/46/46 47/47/47 31/31/31
f  31/31/31 47/47/47 32/32/32
f  32/32/32 47/47/47 33/33/33
f  48/48/48 33/33/33 47/47/47
f  37/37/37 33/33/33 48/48/48
f  33/33/33 37/37/37 34/34/34
f  43/43/43 41/41/41 47/47/47
f  47/47/47 41/41/41 48/48/48
f  39/39/39 48/48/48 41/41/41
f  48/48/48 39/39/39 37/37/37
f  49/49/49 45/45/45 50/50/50
f  46/46/46 50/50/50 45/45/45
f  50/50/50 46/46/46 51/51/51
f  31/31/31 51/51/51 46/46/46
f  51/51/51 31/31/31 52/52/52
f  27/27/27 52/52/52 31/31/31
f  52/52/52 27/27/27 53/53/53
f  28/28/28 53/53/53 27/27/27
f  53/53/53 28/28/28 54/54/54
f  29/29/29 54/54/54 28/28/28
f  54/54/54 29/29/29 55/55/55
f  16/16/16 55/55/55 29/29/29
f  56/56/56 55/55/55 16/16/16
f  55/55/55 56/56/56 57/57/57
f  57/57/57 56/56/56 58/58/58
f  58/58/58 56/56/56 5/5/5
f  5/5/5 56/56/56 7/7/7
f  16/16/16 7/7/7 56/56/56
f  59/59/59 49/49/49 60/60/60
f  50/50/50 60/60/60 49/49/49
f  60/60/60 50/50/50 61/61/61
f  51/51/51 61/61/61 50/50/50
f  61/61/61 51/51/51 62/62/62
f  52/52/52 62/62/62 51/51/51
f  62/62/62 52/52/52 63/63/63
f  53/53/53 63/63/63 52/52/52
f  63/63/63 53/53/53 64/64/64
f  54/54/54 64/64/64 53/53/53
f  55/55/55 64/64/64 54/54/54
f  64/64/64 55/55/55 65/65/65
f  65/65/65 55/55/55 66/66/66
f  57/57/57 66/66/66 55/55/55
f  66/66/66 57/57/57 67/67/67
f  58/58/58 67/67/67 57/57/57
f  67/67/67 58/58/58 4/4/4
f  5/5/5 4/4/4 58/58/58
f  68/68/68 69/69/69 70/70/70
f  71/71/71 70/70/70 69/69/69
f  70/70/70 71/71/71 72/72/72
f  72/72/72 71/71/71 73/73/73
f  73/73/73 71/71/71 74/74/74
f  69/69/69 74/74/74 71/71/71
f  75/75/75 76/76/76 77/77/77
f  78/78/78 77/77/77 76/76/76
f  77/77/77 78/78/78 79/79/79
f  79/79/79 78/78/78 80/80/80
f  81/81/81 80/80/80 78/78/78
f  80/80/80 81/81/81 82/82/82
f  82/82/82 81/81/81 72/72/72
f  72/72/72 81/81/81 70/70/70
f  70/70/70 81/81/81 68/68/68
f  68/68/68 81/81/81 83/83/83
f  83/83/83 81/81/81 76/76/76
f  78/78/78 76/76/76 81/81/81
f  84/84/84 85/85/85 73/73/73
f  73/73/73 85/85/85 72/72/72
f  72/72/72 85/85/85 82/82/82
f  86/86/86 82/82/82 85/85/85
f  87/87/87 82/82/82 86/86/86
f  82/82/82 87/87/87 80/80/80
f  88/88/88 80/80/80 87/87/87
f  80/80/80 88/88/88 79/79/79
f  89/89/89 79/79/79 88/88/88
f  79/79/79 89/89/89 77/77/77
f  90/90/90 77/77/77 89/89/89
f  77/77/77 90/90/90 75/75/75
f  91/91/91 75/75/75 90/90/90
f  92/92/92 91/91/91 93/93/93
f  90/90/90 93/93/93 91/91/91
f  93/93/93 90/90/90 94/94/94
f  89/89/89 94/94/94 90/90/90
f  94/94/94 89/89/89 95/95/95
f  88/88/88 95/95/95 89/89/89
f  95/95/95 88/88/88 96/96/96
f  96/96/96 88/88/88 97/97/97
f  87/87/87 97/97/97 88/88/88
f  97/97/97 87/87/87 98/98/98
f  86/86/86 98/98/98 87/87/87
f  98/98/98 86/86/86 99/99/99
f  85/85/85 99/99/99 86/86/86
f  99/99/99 85/85/85 100/100/100
f  84/84/84 100/100/100 85/85/85
f  100/100/100 84/84/84 101/101/101
f  101/101/101 84/84/84 74/74/74
f  73/73/73 74/74/74 84/84/84
f  102/102/102 103/103/103 104/104/104
f  104/104/104 103/103/103 105/105/105
f  106/106/106 105/105/105 103/103/103
f  107/107/107 105/105/105 106/106/106
f  105/105/105 107/107/107 108/108/108
f  109/109/109 108/108/108 107/107/107
f  108/108/108 109/109/109 110/110/110
f  111/111/111 110/110/110 109/109/109
f  110/110/110 111/111/111 112/112/112
f  112/112/112 111/111/111 74/74/74
f  74/74/74 111/111/111 101/101/101
f  109/109/109 101/101/101 111/111/111
f  101/101/101 109/109/109 100/100/100
f  107/107/107 100/100/100 109/109/109
f  100/100/100 107/107/107 99/99/99
f  106/106/106 99/99/99 107/107/107
f  99/99/99 106/106/106 98/98/98
f  97/97/97 98/98/98 106/106/106
f  106/106/106 103/103/103 97/97/97
f  113/113/113 97/97/97 103/103/103
f  97/97/97 113/113/113 96/96/96
f  114/114/114 96/96/96 113/113/113
f  96/96/96 114/114/114 115/115/115
f  116/116/116 115/115/115 114/114/114
f  115/115/115 116/116/116 117/117/117
f  118/118/118 117/117/117 116/116/116
f  119/119/119 117/117/117 118/118/118
f  117/117/117 119/119/119 120/120/120
f  121/121/121 120/120/120 119/119/119
f  122/122/122 120/120/120 121/121/121
f  120/120/120 122/122/122 94/94/94
f  94/94/94 122/122/122 93/93/93
f  123/123/123 93/93/93 122/122/122
f  93/93/93 123/123/123 92/92/92
f  124/124/124 92/92/92 123/123/123
f  102/102/102 113/113/113 103/103/103
f  113/113/113 102/102/102 114/114/114
f  125/125/125 114/114/114 102/102/102
f  126/126/126 114/114/114 125/125/125
f  114/114/114 126/126/126 116/116/116
f  127/127/127 116/116/116 126/126/126
f  116/116/116 127/127/127 118/118/118
f  128/128/128 118/118/118 127/127/127
f  118/118/118 128/128/128 119/119/119
f  129/129/129 119/119/119 128/128/128
f  119/119/119 129/129/129 121/121/121
f  130/130/130 121/121/121 129/129/129
f  131/131/131 121/121/121 130/130/130
f  121/121/121 131/131/131 122/122/122
f  122/122/122 131/131/131 123/123/123
f  132/132/132 123/123/123 131/131/131
f  123/123/123 132/132/132 124/124/124
f  133/133/133 124/124/124 132/132/132
f  120/120/120 94/94/94 134/134/134
f  95/95/95 134/134/134 94/94/94
f  96/96/96 134/134/134 95/95/95
f  115/115/115 134/134/134 96/96/96
f  134/134/134 115/115/115 120/120/120
f  117/117/117 120/120/120 115/115/115

g
