# Noesis .obj export.
#
mtllib c1234.mtl
g
v  0.058052 0.160948 0.067178
v  0.045330 0.154790 0.087758
v  0.052349 0.153414 0.090986
v  0.036146 0.148552 0.100470
v  0.044643 0.143992 0.108130
v  0.035501 0.131536 0.119289
v  0.027788 0.140092 0.108881
v  0.018553 0.127177 0.115140
v  0.018825 0.146137 0.097031
v  0.010144 0.134837 0.102261
v  0.008746 0.150611 0.082379
v  0.001141 0.141862 0.086411
v  -0.006286 0.146364 0.068489
v  -0.000685 0.152414 0.066603
v  -0.012676 0.150738 0.043875
v  -0.001155 0.085447 0.118498
v  0.009927 0.098041 0.124936
v  0.004783 0.102070 0.120021
v  0.011185 0.114640 0.118601
v  0.019411 0.109692 0.127941
v  0.026428 0.119414 0.125368
v  0.034449 0.111092 0.134080
v  0.045524 0.118908 0.129855
v  0.046282 0.100677 0.141658
v  0.054999 0.106611 0.138950
v  0.063330 0.095762 0.145768
v  0.057819 0.090786 0.146388
v  0.076351 0.077777 0.148960

vt  0.015882 -0.058020 0.000000
vt  0.114802 -0.187456 0.000000
vt  0.160819 -0.125545 0.000000
vt  0.214470 -0.301126 0.000000
vt  0.306649 -0.205173 0.000000
vt  0.489477 -0.303049 0.000000
vt  0.331744 -0.453863 0.000000
vt  0.528531 -0.609931 0.000000
vt  0.241264 -0.616637 0.000000
vt  0.377935 -0.718674 0.000000
vt  0.156289 -0.748226 0.000000
vt  0.255535 -0.822000 0.000000
vt  0.147220 -0.903600 0.000000
vt  0.090269 -0.856373 0.000000
vt  0.024933 -0.977198 0.000000
vt  0.885537 -0.787278 0.000000
vt  0.835300 -0.695889 0.000000
vt  0.791322 -0.746384 0.000000
vt  0.687042 -0.689490 0.000000
vt  0.761909 -0.596076 0.000000
vt  0.666809 -0.464458 0.000000
vt  0.760234 -0.320417 0.000000
vt  0.659108 -0.202302 0.000000
vt  0.849871 -0.204895 0.000000
vt  0.782125 -0.120312 0.000000
vt  0.871266 -0.064375 0.000000
vt  0.914049 -0.117833 0.000000
vt  0.984236 -0.014897 0.000000

vn  0.043233 0.949485 0.310819
vn  0.009756 0.927310 0.374168
vn  0.017564 0.920562 0.390202
vn  -0.056322 0.825043 0.562256
vn  -0.113812 0.793131 0.598322
vn  -0.241671 0.634143 0.734478
vn  -0.272173 0.674525 0.686249
vn  -0.402105 0.577872 0.710194
vn  -0.479145 0.642780 0.597708
vn  -0.456414 0.642684 0.615340
vn  -0.542265 0.682468 0.490088
vn  -0.522278 0.686831 0.505459
vn  -0.619648 0.693799 0.366986
vn  -0.621952 0.690746 0.368843
vn  -0.654090 0.697074 0.293692
vn  -0.618876 0.150412 0.770953
vn  -0.586342 0.254691 0.768984
vn  -0.552388 0.260704 0.791771
vn  -0.527568 0.426478 0.734703
vn  -0.549324 0.434211 0.713936
vn  -0.355455 0.562137 0.746762
vn  -0.115381 0.563186 0.818235
vn  -0.093649 0.565032 0.819737
vn  -0.089151 0.491724 0.866176
vn  -0.087156 0.516766 0.851679
vn  -0.076982 0.268863 0.960097
vn  -0.094461 0.225368 0.969684
vn  -0.028547 0.154580 0.987568

g C1234
usemtl C1234_3
f  1/1/1 2/2/2 3/3/3
f  4/4/4 3/3/3 2/2/2
f  3/3/3 4/4/4 5/5/5
f  5/5/5 4/4/4 6/6/6
f  7/7/7 6/6/6 4/4/4
f  6/6/6 7/7/7 8/8/8
f  9/9/9 8/8/8 7/7/7
f  8/8/8 9/9/9 10/10/10
f  11/11/11 10/10/10 9/9/9
f  10/10/10 11/11/11 12/12/12
f  12/12/12 11/11/11 13/13/13
f  14/14/14 13/13/13 11/11/11
f  13/13/13 14/14/14 15/15/15
f  16/16/16 17/17/17 18/18/18
f  18/18/18 17/17/17 19/19/19
f  20/20/20 19/19/19 17/17/17
f  21/21/21 19/19/19 20/20/20
f  19/19/19 21/21/21 8/8/8
f  8/8/8 21/21/21 6/6/6
f  22/22/22 6/6/6 21/21/21
f  6/6/6 22/22/22 23/23/23
f  24/24/24 23/23/23 22/22/22
f  23/23/23 24/24/24 25/25/25
f  25/25/25 24/24/24 26/26/26
f  27/27/27 26/26/26 24/24/24
f  26/26/26 27/27/27 28/28/28

g
