# Noesis .obj export.
#
mtllib c1239.mtl
g
v  -0.017639 -0.058484 0.000091
v  -0.036232 -0.044774 -0.043893
v  -0.036128 -0.058484 0.000059
v  -0.036232 -0.044774 -0.043893
v  -0.017639 -0.058484 0.000091
v  -0.017744 -0.044774 -0.043861
v  -0.004312 0.180543 0.000114
v  -0.006047 0.161157 -0.043841
v  0.014223 0.179632 0.000146
v  -0.017639 -0.058484 0.000091
v  -0.036386 -0.044774 0.044010
v  -0.017897 -0.044774 0.044043
v  -0.036386 -0.044774 0.044010
v  -0.017639 -0.058484 0.000091
v  -0.036128 -0.058484 0.000059
v  -0.006200 0.161157 0.044063
v  -0.004312 0.180543 0.000114
v  0.014223 0.179632 0.000146
v  0.005496 0.181762 -0.010222
v  0.017746 0.177949 0.000238
v  0.018762 0.173690 0.000243
v  -0.035659 0.206965 -0.005640
v  -0.033834 0.209540 -0.004343
v  -0.021529 0.198278 -0.009332
v  -0.019792 0.200893 -0.007203
v  -0.010695 0.191635 -0.004683
v  -0.009023 0.194282 -0.003297
v  -0.004685 0.187963 -0.005107
v  -0.003010 0.190603 -0.003597
v  0.007284 0.184325 -0.007883
v  0.009300 0.187804 0.000224
v  -0.002184 0.192021 0.000202
v  -0.008193 0.195701 0.000191
v  -0.017948 0.204014 0.000176
v  -0.032988 0.210959 0.000150
v  -0.061927 0.223220 0.009254
v  -0.063601 0.228003 0.009134
v  -0.065050 0.225162 0.011742
v  -0.032988 0.210959 0.000150
v  -0.042354 0.216756 0.000133
v  -0.033850 0.209540 0.004640
v  -0.043221 0.215336 0.003981
v  -0.035680 0.206965 0.005935
v  -0.045057 0.212758 0.005091
v  -0.055064 0.222687 0.005896
v  -0.056695 0.219969 0.007564
v  -0.060245 0.225912 0.007205
v  -0.060993 0.232461 0.000101
v  -0.081338 0.239124 0.000065
v  -0.086066 0.238324 0.000060
v  -0.054065 0.224300 0.000113
v  -0.058445 0.228948 0.000105
v  -0.054065 0.224300 0.000113
v  -0.060221 0.225912 -0.007001
v  -0.058445 0.228948 0.000105
v  -0.060993 0.232461 0.000101
v  -0.063570 0.228003 -0.008941
v  -0.081338 0.239124 0.000065
v  -0.086066 0.238324 0.000060
v  -0.065009 0.225162 -0.011549
v  -0.061895 0.223220 -0.009051
v  -0.055044 0.222687 -0.005673
v  -0.043208 0.215336 -0.003717
v  -0.042354 0.216756 0.000133
v  -0.033834 0.209540 -0.004343
v  -0.032988 0.210959 0.000150
v  -0.035659 0.206965 -0.005640
v  -0.045040 0.212758 -0.004828
v  -0.056669 0.219969 -0.007343
v  -0.017238 0.195927 0.003131
v  -0.017125 0.198810 0.007790
v  0.000139 0.183191 0.020928
v  -0.004660 0.189170 0.023589
v  -0.015061 0.187959 0.056727
v  -0.016435 0.192421 0.051807
v  -0.024040 0.202760 0.034881
v  -0.047279 0.099158 -0.082732
v  -0.028790 0.099158 -0.082699
v  -0.037958 0.139124 -0.067385
v  -0.019469 0.139124 -0.067352
v  -0.024536 0.161157 -0.043873
v  -0.006047 0.161157 -0.043841
v  -0.004312 0.180543 0.000114
v  -0.029675 0.061888 -0.088025
v  -0.048164 0.061888 -0.088057
v  -0.029675 0.061888 -0.088025
v  -0.028790 0.099158 -0.082699
v  -0.019469 0.139124 -0.067352
v  -0.006047 0.161157 -0.043841
v  0.014223 0.179632 0.000146
v  -0.006200 0.161157 0.044063
v  -0.024689 0.161158 0.044030
v  -0.019705 0.139124 0.067527
v  -0.038193 0.139124 0.067495
v  -0.029079 0.099159 0.082842
v  -0.047568 0.099159 0.082810
v  -0.029983 0.061888 0.088165
v  -0.048471 0.061888 0.088132
v  -0.006200 0.161157 0.044063
v  -0.019705 0.139124 0.067527
v  -0.029079 0.099159 0.082842
v  -0.029983 0.061888 0.088165
v  -0.017238 0.195927 0.003131
v  0.000139 0.183191 0.020928
v  -0.017125 0.198810 0.007790
v  -0.004660 0.189170 0.023589
v  -0.024040 0.202760 0.034881
v  -0.016435 0.192421 0.051807
v  -0.015061 0.187959 0.056727
v  -0.017229 0.195927 -0.002253
v  -0.017100 0.198810 -0.006911
v  0.000210 0.183191 -0.019989
v  -0.004579 0.189170 -0.022667
v  -0.014864 0.187959 -0.055840
v  -0.016256 0.192421 -0.050925
v  -0.023920 0.202760 -0.034025
v  -0.017229 0.195927 -0.002253
v  0.000210 0.183191 -0.019989
v  -0.017100 0.198810 -0.006911
v  -0.004579 0.189170 -0.022667
v  -0.023920 0.202760 -0.034025
v  -0.016256 0.192421 -0.050925
v  -0.014864 0.187959 -0.055840
v  -0.029675 0.061888 -0.088025
v  -0.048164 0.061888 -0.088057
v  -0.025901 0.021268 -0.082694
v  -0.044390 0.021268 -0.082726
v  -0.020624 -0.015898 -0.067354
v  -0.039113 -0.015898 -0.067386
v  -0.017744 -0.044774 -0.043861
v  -0.036232 -0.044774 -0.043893
v  -0.025901 0.021268 -0.082694
v  -0.029675 0.061888 -0.088025
v  -0.020624 -0.015898 -0.067354
v  -0.017744 -0.044774 -0.043861
v  -0.017639 -0.058484 0.000091
v  -0.036128 -0.058484 0.000059
v  -0.036386 -0.044774 0.044010
v  -0.017897 -0.044774 0.044043
v  -0.039348 -0.015897 0.067493
v  -0.020860 -0.015897 0.067526
v  -0.044679 0.021268 0.082815
v  -0.026190 0.021268 0.082847
v  -0.048471 0.061888 0.088132
v  -0.029983 0.061888 0.088165
v  -0.017897 -0.044774 0.044043
v  -0.020860 -0.015897 0.067526
v  -0.026190 0.021268 0.082847
v  -0.029983 0.061888 0.088165
v  0.007256 0.184325 0.008323
v  -0.003023 0.190603 0.004002
v  0.005459 0.181762 0.010661
v  -0.004704 0.187963 0.005511
v  -0.009035 0.194282 0.003680
v  -0.010712 0.191635 0.005066
v  -0.019818 0.200893 0.007549
v  -0.021563 0.198278 0.009677
v  -0.035680 0.206965 0.005935
v  -0.033850 0.209540 0.004640
v  -0.032988 0.210959 0.000150
v  -0.017948 0.204014 0.000176
v  -0.008193 0.195701 0.000191
v  -0.002184 0.192021 0.000202
v  0.009300 0.187804 0.000224
v  0.017746 0.177949 0.000238
v  0.018762 0.173690 0.000243
v  0.005459 0.181762 0.010661
v  -0.004704 0.187963 0.005511
v  0.018762 0.173690 0.000243
v  -0.007707 0.189803 0.000199
v  -0.010712 0.191635 0.005066
v  -0.021563 0.198278 0.009677
v  -0.021430 0.198206 0.000175
v  -0.035680 0.206965 0.005935
v  -0.040458 0.209921 0.000142
v  -0.045057 0.212758 0.005091
v  -0.056695 0.219969 0.007564
v  -0.056720 0.219992 0.000113
v  0.005496 0.181762 -0.010222
v  -0.004685 0.187963 -0.005107
v  -0.010695 0.191635 -0.004683
v  -0.021529 0.198278 -0.009332
v  -0.035659 0.206965 -0.005640
v  -0.045040 0.212758 -0.004828
v  -0.056669 0.219969 -0.007343
v  -0.063420 0.224159 0.000102
v  -0.061927 0.223220 0.009254
v  -0.065050 0.225162 0.011742
v  -0.086066 0.238324 0.000060
v  -0.065009 0.225162 -0.011549
v  -0.061895 0.223220 -0.009051

vt  0.964851 -0.660775 0.000000
vt  0.873757 -0.777039 0.000000
vt  0.980338 -0.688510 0.000000
vt  0.873757 -0.777039 0.000000
vt  0.964851 -0.660775 0.000000
vt  0.858437 -0.749241 0.000000
vt  0.635577 -0.966398 0.000000
vt  0.757689 -0.898397 0.000000
vt  0.622603 -0.936961 0.000000
vt  0.964851 -0.660775 0.000000
vt  0.873757 -0.777039 0.000000
vt  0.858437 -0.749241 0.000000
vt  0.873757 -0.777039 0.000000
vt  0.964851 -0.660775 0.000000
vt  0.980338 -0.688510 0.000000
vt  0.757689 -0.898397 0.000000
vt  0.635577 -0.966398 0.000000
vt  0.622603 -0.936961 0.000000
vt  0.796889 -0.147769 0.000000
vt  0.668730 -0.044167 0.000000
vt  0.701114 -0.018056 0.000000
vt  0.768853 -0.630552 0.000000
vt  0.733886 -0.628697 0.000000
vt  0.811739 -0.485993 0.000000
vt  0.741966 -0.479245 0.000000
vt  0.813796 -0.352799 0.000000
vt  0.730078 -0.353561 0.000000
vt  0.810528 -0.272385 0.000000
vt  0.727873 -0.276984 0.000000
vt  0.732008 -0.157688 0.000000
vt  0.628598 -0.151835 0.000000
vt  0.639013 -0.274314 0.000000
vt  0.642090 -0.356830 0.000000
vt  0.643175 -0.484995 0.000000
vt  0.686793 -0.626058 0.000000
vt  0.270139 -0.788604 0.000000
vt  0.220993 -0.711595 0.000000
vt  0.217040 -0.787962 0.000000
vt  0.571399 -0.658303 0.000000
vt  0.475460 -0.633996 0.000000
vt  0.571278 -0.703584 0.000000
vt  0.470907 -0.700796 0.000000
vt  0.572790 -0.737423 0.000000
vt  0.476156 -0.760098 0.000000
vt  0.340229 -0.705263 0.000000
vt  0.343016 -0.783005 0.000000
vt  0.271809 -0.709084 0.000000
vt  0.214882 -0.587070 0.000000
vt  0.031861 -0.641584 0.000000
vt  0.003701 -0.679201 0.000000
vt  0.342288 -0.606245 0.000000
vt  0.268549 -0.595105 0.000000
vt  0.335742 -0.803273 0.000000
vt  0.274495 -0.911865 0.000000
vt  0.261313 -0.798603 0.000000
vt  0.207150 -0.795276 0.000000
vt  0.224091 -0.918795 0.000000
vt  0.029577 -0.865534 0.000000
vt  0.004803 -0.905462 0.000000
vt  0.226809 -0.995215 0.000000
vt  0.279762 -0.991227 0.000000
vt  0.342321 -0.902095 0.000000
vt  0.472113 -0.886255 0.000000
vt  0.470827 -0.819312 0.000000
vt  0.572345 -0.880285 0.000000
vt  0.568519 -0.835165 0.000000
vt  0.576800 -0.913863 0.000000
vt  0.482510 -0.944873 0.000000
vt  0.351873 -0.979298 0.000000
vt  0.032306 -0.403831 0.000000
vt  0.088994 -0.404371 0.000000
vt  0.139928 -0.102789 0.000000
vt  0.176987 -0.187931 0.000000
vt  0.593960 -0.130416 0.000000
vt  0.559516 -0.188961 0.000000
vt  0.424064 -0.391005 0.000000
vt  0.926201 -0.836390 0.000000
vt  0.912575 -0.807788 0.000000
vt  0.848463 -0.889460 0.000000
vt  0.834874 -0.860771 0.000000
vt  0.771177 -0.927269 0.000000
vt  0.757689 -0.898397 0.000000
vt  0.635577 -0.966398 0.000000
vt  0.983196 -0.739923 0.000000
vt  0.996820 -0.768531 0.000000
vt  0.983196 -0.739923 0.000000
vt  0.912575 -0.807788 0.000000
vt  0.834874 -0.860771 0.000000
vt  0.757689 -0.898397 0.000000
vt  0.622603 -0.936961 0.000000
vt  0.757689 -0.898397 0.000000
vt  0.771177 -0.927269 0.000000
vt  0.834874 -0.860771 0.000000
vt  0.848463 -0.889460 0.000000
vt  0.912575 -0.807788 0.000000
vt  0.926201 -0.836390 0.000000
vt  0.983196 -0.739923 0.000000
vt  0.996820 -0.768531 0.000000
vt  0.757689 -0.898397 0.000000
vt  0.834874 -0.860771 0.000000
vt  0.912575 -0.807788 0.000000
vt  0.983196 -0.739923 0.000000
vt  0.032306 -0.403831 0.000000
vt  0.139928 -0.102789 0.000000
vt  0.088994 -0.404371 0.000000
vt  0.176987 -0.187931 0.000000
vt  0.424064 -0.391005 0.000000
vt  0.559516 -0.188961 0.000000
vt  0.593960 -0.130416 0.000000
vt  0.032306 -0.403831 0.000000
vt  0.088994 -0.404371 0.000000
vt  0.139928 -0.102789 0.000000
vt  0.176987 -0.187931 0.000000
vt  0.593960 -0.130416 0.000000
vt  0.559516 -0.188961 0.000000
vt  0.424064 -0.391005 0.000000
vt  0.032306 -0.403831 0.000000
vt  0.139928 -0.102789 0.000000
vt  0.088994 -0.404371 0.000000
vt  0.176987 -0.187931 0.000000
vt  0.424064 -0.391005 0.000000
vt  0.559516 -0.188961 0.000000
vt  0.593960 -0.130416 0.000000
vt  0.597929 -0.849133 0.000000
vt  0.613152 -0.876986 0.000000
vt  0.692869 -0.830765 0.000000
vt  0.707974 -0.858616 0.000000
vt  0.778548 -0.794953 0.000000
vt  0.793618 -0.822807 0.000000
vt  0.858437 -0.749241 0.000000
vt  0.873757 -0.777039 0.000000
vt  0.692869 -0.830765 0.000000
vt  0.597929 -0.849133 0.000000
vt  0.778548 -0.794953 0.000000
vt  0.858437 -0.749241 0.000000
vt  0.964851 -0.660775 0.000000
vt  0.980338 -0.688510 0.000000
vt  0.873757 -0.777039 0.000000
vt  0.858437 -0.749241 0.000000
vt  0.793618 -0.822807 0.000000
vt  0.778548 -0.794953 0.000000
vt  0.707974 -0.858616 0.000000
vt  0.692869 -0.830765 0.000000
vt  0.613152 -0.876986 0.000000
vt  0.597929 -0.849133 0.000000
vt  0.858437 -0.749241 0.000000
vt  0.778548 -0.794953 0.000000
vt  0.692869 -0.830765 0.000000
vt  0.597929 -0.849133 0.000000
vt  0.909862 -0.164243 0.000000
vt  0.905726 -0.283539 0.000000
vt  0.974742 -0.154324 0.000000
vt  0.988380 -0.278939 0.000000
vt  0.907931 -0.360116 0.000000
vt  0.991649 -0.359353 0.000000
vt  0.919819 -0.485800 0.000000
vt  0.989592 -0.492548 0.000000
vt  0.946706 -0.637107 0.000000
vt  0.911739 -0.635251 0.000000
vt  0.864646 -0.632613 0.000000
vt  0.821028 -0.491550 0.000000
vt  0.819943 -0.363385 0.000000
vt  0.816866 -0.280869 0.000000
vt  0.806451 -0.158390 0.000000
vt  0.846582 -0.050722 0.000000
vt  0.878967 -0.024610 0.000000
vt  0.053632 -0.568758 0.000000
vt  0.118577 -0.516234 0.000000
vt  0.025380 -0.423264 0.000000
vt  0.146543 -0.451139 0.000000
vt  0.154138 -0.515439 0.000000
vt  0.208913 -0.579189 0.000000
vt  0.215616 -0.456846 0.000000
vt  0.287298 -0.534202 0.000000
vt  0.312568 -0.458723 0.000000
vt  0.341183 -0.521557 0.000000
vt  0.407300 -0.545037 0.000000
vt  0.396130 -0.449605 0.000000
vt  0.053632 -0.568758 0.000000
vt  0.118577 -0.516234 0.000000
vt  0.154138 -0.515439 0.000000
vt  0.208913 -0.579189 0.000000
vt  0.287298 -0.534202 0.000000
vt  0.341183 -0.521557 0.000000
vt  0.407300 -0.545037 0.000000
vt  0.433541 -0.441676 0.000000
vt  0.439024 -0.560805 0.000000
vt  0.459696 -0.588862 0.000000
vt  0.543574 -0.427498 0.000000
vt  0.459696 -0.588862 0.000000
vt  0.439024 -0.560805 0.000000

vn  -0.000513 0.954633 0.297785
vn  -0.000513 0.954633 0.297785
vn  -0.000513 0.954633 0.297785
vn  -0.000516 0.954633 0.297786
vn  -0.000516 0.954633 0.297786
vn  -0.000516 0.954633 0.297786
vn  -0.045588 -0.913347 0.404621
vn  -0.045588 -0.913347 0.404621
vn  -0.045588 -0.913347 0.404621
vn  0.000523 0.954631 -0.297791
vn  0.000523 0.954631 -0.297791
vn  0.000523 0.954631 -0.297791
vn  0.000527 0.954631 -0.297790
vn  0.000527 0.954631 -0.297790
vn  0.000527 0.954631 -0.297790
vn  -0.044176 -0.913349 -0.404774
vn  -0.044176 -0.913349 -0.404774
vn  -0.044176 -0.913349 -0.404774
vn  -0.123878 -0.360788 -0.924384
vn  0.932702 0.360646 0.001280
vn  0.676327 -0.736600 0.001365
vn  -0.398212 -0.430593 -0.809949
vn  0.312077 0.666826 -0.676720
vn  -0.161267 -0.392033 -0.905706
vn  0.430374 0.595706 -0.678168
vn  -0.221930 -0.563509 -0.795741
vn  0.450475 0.563770 -0.692269
vn  -0.465804 -0.399368 -0.789640
vn  0.267321 0.701865 -0.660246
vn  0.466923 0.573882 -0.672787
vn  0.566272 0.824218 0.001006
vn  0.445767 0.895149 0.000614
vn  0.583205 0.812325 0.000795
vn  0.536168 0.844111 0.000934
vn  0.490760 0.871294 0.000853
vn  -0.001876 -0.619131 0.785285
vn  0.412088 0.602770 0.683265
vn  -0.110425 -0.341127 0.933509
vn  0.490760 0.871294 0.000853
vn  0.526021 0.850471 0.000913
vn  0.309997 0.667161 0.677346
vn  0.379884 0.588345 0.713820
vn  -0.400808 -0.430102 0.808928
vn  -0.294535 -0.532755 0.793361
vn  0.512655 0.582368 0.630898
vn  -0.119290 -0.551950 0.825300
vn  0.599814 0.492150 0.630881
vn  0.569711 0.821845 0.000990
vn  -0.043143 0.999069 -0.000509
vn  -0.953411 0.301670 -0.001489
vn  0.618044 0.786143 0.001074
vn  0.774247 0.632882 0.001353
vn  0.618044 0.786143 0.001074
vn  0.601942 0.491791 -0.629133
vn  0.774247 0.632882 0.001353
vn  0.569711 0.821845 0.000990
vn  0.414284 0.602453 -0.682216
vn  -0.043143 0.999069 -0.000509
vn  -0.953411 0.301670 -0.001489
vn  -0.107347 -0.341439 -0.933754
vn  0.000491 -0.619437 -0.785046
vn  0.514741 0.581997 -0.629541
vn  0.382133 0.587932 -0.712959
vn  0.526021 0.850471 0.000913
vn  0.312077 0.666826 -0.676720
vn  0.490760 0.871294 0.000853
vn  -0.398212 -0.430593 -0.809949
vn  -0.292072 -0.533217 -0.793961
vn  -0.116739 -0.552341 -0.825404
vn  0.761153 0.543078 -0.354559
vn  0.716513 0.665861 -0.207938
vn  0.794213 0.607452 0.015087
vn  0.736558 0.672574 0.071592
vn  0.797561 0.539424 0.270033
vn  0.749903 0.615699 0.241990
vn  0.616705 0.777589 0.122596
vn  -0.001740 0.076855 0.997041
vn  -0.001687 -0.259169 0.965830
vn  0.001538 0.474642 -0.880178
vn  -0.001408 -0.592356 0.805675
vn  0.001672 -0.284736 -0.958604
vn  -0.000928 -0.848398 0.529358
vn  0.049081 0.998795 0.000083
vn  -0.001745 -0.002905 0.999994
vn  -0.001743 -0.047836 0.998854
vn  0.001745 0.002905 -0.999994
vn  0.001687 0.259169 -0.965830
vn  0.001408 0.592356 -0.805675
vn  0.006190 0.857010 -0.515262
vn  0.049081 0.998795 0.000083
vn  0.004392 0.857012 0.515278
vn  -0.001273 0.681087 0.732201
vn  -0.001401 0.592359 0.805673
vn  0.000511 0.956473 -0.291820
vn  -0.001685 0.259173 0.965829
vn  -0.001684 -0.268551 0.963264
vn  -0.001745 0.002909 0.999994
vn  -0.001611 -0.386554 0.922265
vn  0.000919 -0.848400 -0.529355
vn  0.001401 -0.592359 -0.805673
vn  0.001685 -0.259173 -0.965829
vn  0.001745 -0.002909 -0.999994
vn  -0.761153 -0.543078 0.354559
vn  -0.794213 -0.607452 -0.015087
vn  -0.716513 -0.665861 0.207938
vn  -0.736558 -0.672574 -0.071592
vn  -0.616705 -0.777589 -0.122596
vn  -0.749903 -0.615699 -0.241990
vn  -0.797561 -0.539424 -0.270033
vn  -0.759911 -0.543081 -0.357209
vn  -0.715783 -0.665862 -0.210434
vn  -0.794263 -0.607449 0.012317
vn  -0.736805 -0.672572 0.069023
vn  -0.798501 -0.539420 0.267251
vn  -0.750745 -0.615697 0.239374
vn  -0.617129 -0.777589 0.120445
vn  0.759911 0.543081 0.357209
vn  0.794263 0.607449 -0.012317
vn  0.715783 0.665862 0.210434
vn  0.736805 0.672572 -0.069023
vn  0.617129 0.777589 -0.120445
vn  0.750745 0.615697 -0.239374
vn  0.798501 0.539420 -0.267251
vn  -0.001745 -0.002905 0.999994
vn  -0.001743 -0.047836 0.998854
vn  -0.001681 0.266729 0.963770
vn  0.001739 -0.078504 -0.996912
vn  -0.001488 0.520140 0.854080
vn  -0.001745 -0.030931 0.999520
vn  -0.001351 0.631020 0.775766
vn  0.000515 -0.954633 -0.297786
vn  0.001681 -0.266729 -0.963770
vn  0.001745 0.002905 -0.999994
vn  0.001488 -0.520140 -0.854080
vn  0.000963 -0.832570 -0.553919
vn  -0.000006 -1.000000 0.000003
vn  -0.000007 -1.000000 0.000003
vn  -0.000524 -0.954631 0.297791
vn  -0.000970 -0.832567 0.553923
vn  0.000348 -0.978672 -0.205430
vn  -0.001495 -0.520138 0.854081
vn  -0.001387 0.606156 0.795345
vn  -0.001683 -0.266725 0.963771
vn  -0.001611 -0.386554 0.922265
vn  -0.001745 0.002909 0.999994
vn  0.001357 0.631017 -0.775768
vn  0.001495 0.520138 -0.854081
vn  0.001683 0.266725 -0.963771
vn  0.001745 -0.002909 -0.999994
vn  0.464730 0.574254 0.673987
vn  0.265400 0.702248 0.660614
vn  -0.126895 -0.360452 0.924106
vn  -0.468384 -0.398861 0.788369
vn  0.448331 0.564250 0.693269
vn  -0.224364 -0.563082 0.795361
vn  0.428181 0.596057 0.679248
vn  -0.164194 -0.391661 0.905341
vn  -0.400808 -0.430102 0.808928
vn  0.309997 0.667161 0.677346
vn  0.490760 0.871294 0.000853
vn  0.536168 0.844111 0.000934
vn  0.583205 0.812325 0.000795
vn  0.445767 0.895149 0.000614
vn  0.566272 0.824218 0.001006
vn  0.932702 0.360646 0.001280
vn  0.676327 -0.736600 0.001365
vn  -0.126895 -0.360452 0.924106
vn  -0.468384 -0.398861 0.788369
vn  0.676327 -0.736600 0.001365
vn  -0.521280 -0.853385 -0.000908
vn  -0.224364 -0.563082 0.795361
vn  -0.164194 -0.391661 0.905341
vn  -0.523108 -0.852266 -0.000911
vn  -0.400808 -0.430102 0.808928
vn  -0.525475 -0.850808 -0.000914
vn  -0.294535 -0.532755 0.793361
vn  -0.119290 -0.551950 0.825300
vn  -0.527341 -0.849653 -0.000918
vn  -0.123878 -0.360788 -0.924384
vn  -0.465804 -0.399368 -0.789640
vn  -0.221930 -0.563509 -0.795741
vn  -0.161267 -0.392033 -0.905706
vn  -0.398212 -0.430593 -0.809949
vn  -0.292072 -0.533217 -0.793961
vn  -0.116739 -0.552341 -0.825404
vn  -0.529137 -0.848536 -0.000921
vn  -0.001876 -0.619131 0.785285
vn  -0.110425 -0.341127 0.933509
vn  -0.953411 0.301670 -0.001489
vn  -0.107347 -0.341439 -0.933754
vn  0.000491 -0.619437 -0.785046

g C1239
usemtl mesh1material
f  1/1/1 2/2/2 3/3/3
f  4/4/4 5/5/5 6/6/6
f  7/7/7 8/8/8 9/9/9
f  10/10/10 11/11/11 12/12/12
f  13/13/13 14/14/14 15/15/15
f  16/16/16 17/17/17 18/18/18
f  19/19/19 20/20/20 21/21/21
f  22/22/22 23/23/23 24/24/24
f  25/25/25 24/24/24 23/23/23
f  24/24/24 25/25/25 26/26/26
f  27/27/27 26/26/26 25/25/25
f  26/26/26 27/27/27 28/28/28
f  29/29/29 28/28/28 27/27/27
f  28/28/28 29/29/29 19/19/19
f  30/30/30 19/19/19 29/29/29
f  19/19/19 30/30/30 20/20/20
f  20/20/20 30/30/30 31/31/31
f  31/31/31 30/30/30 32/32/32
f  29/29/29 32/32/32 30/30/30
f  32/32/32 29/29/29 33/33/33
f  27/27/27 33/33/33 29/29/29
f  33/33/33 27/27/27 34/34/34
f  25/25/25 34/34/34 27/27/27
f  34/34/34 25/25/25 35/35/35
f  23/23/23 35/35/35 25/25/25
f  36/36/36 37/37/37 38/38/38
f  39/39/39 40/40/40 41/41/41
f  42/42/42 41/41/41 40/40/40
f  41/41/41 42/42/42 43/43/43
f  43/43/43 42/42/42 44/44/44
f  45/45/45 44/44/44 42/42/42
f  44/44/44 45/45/45 46/46/46
f  46/46/46 45/45/45 36/36/36
f  47/47/47 36/36/36 45/45/45
f  36/36/36 47/47/47 37/37/37
f  48/48/48 37/37/37 47/47/47
f  49/49/49 37/37/37 48/48/48
f  37/37/37 49/49/49 38/38/38
f  50/50/50 38/38/38 49/49/49
f  40/40/40 51/51/51 42/42/42
f  42/42/42 51/51/51 45/45/45
f  45/45/45 51/51/51 47/47/47
f  52/52/52 47/47/47 51/51/51
f  47/47/47 52/52/52 48/48/48
f  53/53/53 54/54/54 55/55/55
f  55/55/55 54/54/54 56/56/56
f  57/57/57 56/56/56 54/54/54
f  56/56/56 57/57/57 58/58/58
f  59/59/59 58/58/58 60/60/60
f  57/57/57 60/60/60 58/58/58
f  60/60/60 57/57/57 61/61/61
f  54/54/54 61/61/61 57/57/57
f  61/61/61 54/54/54 62/62/62
f  53/53/53 62/62/62 54/54/54
f  62/62/62 53/53/53 63/63/63
f  64/64/64 63/63/63 53/53/53
f  63/63/63 64/64/64 65/65/65
f  66/66/66 65/65/65 64/64/64
f  65/65/65 67/67/67 63/63/63
f  68/68/68 63/63/63 67/67/67
f  63/63/63 68/68/68 62/62/62
f  69/69/69 62/62/62 68/68/68
f  62/62/62 69/69/69 61/61/61
f  70/70/70 71/71/71 72/72/72
f  73/73/73 72/72/72 71/71/71
f  72/72/72 73/73/73 74/74/74
f  74/74/74 73/73/73 75/75/75
f  75/75/75 73/73/73 76/76/76
f  71/71/71 76/76/76 73/73/73
f  77/77/77 78/78/78 79/79/79
f  80/80/80 79/79/79 78/78/78
f  79/79/79 80/80/80 81/81/81
f  82/82/82 81/81/81 80/80/80
f  81/81/81 82/82/82 83/83/83
f  77/77/77 84/84/84 78/78/78
f  84/84/84 77/77/77 85/85/85
f  85/85/85 77/77/77 86/86/86
f  86/86/86 77/77/77 87/87/87
f  79/79/79 87/87/87 77/77/77
f  87/87/87 79/79/79 88/88/88
f  81/81/81 88/88/88 79/79/79
f  88/88/88 81/81/81 89/89/89
f  83/83/83 89/89/89 81/81/81
f  89/89/89 83/83/83 90/90/90
f  90/90/90 83/83/83 91/91/91
f  92/92/92 91/91/91 83/83/83
f  91/91/91 92/92/92 93/93/93
f  94/94/94 93/93/93 92/92/92
f  93/93/93 94/94/94 95/95/95
f  96/96/96 95/95/95 94/94/94
f  95/95/95 96/96/96 97/97/97
f  98/98/98 97/97/97 96/96/96
f  83/83/83 99/99/99 92/92/92
f  100/100/100 92/92/92 99/99/99
f  92/92/92 100/100/100 94/94/94
f  101/101/101 94/94/94 100/100/100
f  94/94/94 101/101/101 96/96/96
f  102/102/102 96/96/96 101/101/101
f  96/96/96 102/102/102 98/98/98
f  103/103/103 104/104/104 105/105/105
f  106/106/106 105/105/105 104/104/104
f  105/105/105 106/106/106 107/107/107
f  107/107/107 106/106/106 108/108/108
f  108/108/108 106/106/106 109/109/109
f  104/104/104 109/109/109 106/106/106
f  110/110/110 111/111/111 112/112/112
f  113/113/113 112/112/112 111/111/111
f  112/112/112 113/113/113 114/114/114
f  114/114/114 113/113/113 115/115/115
f  115/115/115 113/113/113 116/116/116
f  111/111/111 116/116/116 113/113/113
f  117/117/117 118/118/118 119/119/119
f  120/120/120 119/119/119 118/118/118
f  119/119/119 120/120/120 121/121/121
f  121/121/121 120/120/120 122/122/122
f  122/122/122 120/120/120 123/123/123
f  118/118/118 123/123/123 120/120/120
f  124/124/124 125/125/125 126/126/126
f  127/127/127 126/126/126 125/125/125
f  126/126/126 127/127/127 128/128/128
f  129/129/129 128/128/128 127/127/127
f  128/128/128 129/129/129 130/130/130
f  131/131/131 130/130/130 129/129/129
f  132/132/132 125/125/125 133/133/133
f  125/125/125 132/132/132 127/127/127
f  134/134/134 127/127/127 132/132/132
f  127/127/127 134/134/134 129/129/129
f  135/135/135 129/129/129 134/134/134
f  129/129/129 135/135/135 131/131/131
f  136/136/136 131/131/131 135/135/135
f  131/131/131 136/136/136 137/137/137
f  137/137/137 136/136/136 138/138/138
f  139/139/139 138/138/138 136/136/136
f  138/138/138 139/139/139 140/140/140
f  141/141/141 140/140/140 139/139/139
f  140/140/140 141/141/141 142/142/142
f  143/143/143 142/142/142 141/141/141
f  142/142/142 143/143/143 144/144/144
f  145/145/145 144/144/144 143/143/143
f  138/138/138 140/140/140 146/146/146
f  146/146/146 140/140/140 147/147/147
f  142/142/142 147/147/147 140/140/140
f  147/147/147 142/142/142 148/148/148
f  144/144/144 148/148/148 142/142/142
f  148/148/148 144/144/144 149/149/149
f  150/150/150 151/151/151 152/152/152
f  152/152/152 151/151/151 153/153/153
f  154/154/154 153/153/153 151/151/151
f  153/153/153 154/154/154 155/155/155
f  156/156/156 155/155/155 154/154/154
f  155/155/155 156/156/156 157/157/157
f  158/158/158 157/157/157 159/159/159
f  156/156/156 159/159/159 157/157/157
f  159/159/159 156/156/156 160/160/160
f  160/160/160 156/156/156 161/161/161
f  154/154/154 161/161/161 156/156/156
f  161/161/161 154/154/154 162/162/162
f  151/151/151 162/162/162 154/154/154
f  162/162/162 151/151/151 163/163/163
f  150/150/150 163/163/163 151/151/151
f  163/163/163 150/150/150 164/164/164
f  164/164/164 150/150/150 165/165/165
f  152/152/152 165/165/165 150/150/150
f  165/165/165 152/152/152 166/166/166
f  167/167/167 168/168/168 169/169/169
f  169/169/169 168/168/168 170/170/170
f  171/171/171 170/170/170 168/168/168
f  172/172/172 170/170/170 171/171/171
f  170/170/170 172/172/172 173/173/173
f  174/174/174 173/173/173 172/172/172
f  173/173/173 174/174/174 175/175/175
f  176/176/176 175/175/175 174/174/174
f  177/177/177 175/175/175 176/176/176
f  175/175/175 177/177/177 178/178/178
f  179/179/179 169/169/169 180/180/180
f  170/170/170 180/180/180 169/169/169
f  180/180/180 170/170/170 181/181/181
f  181/181/181 170/170/170 182/182/182
f  173/173/173 182/182/182 170/170/170
f  182/182/182 173/173/173 183/183/183
f  175/175/175 183/183/183 173/173/173
f  183/183/183 175/175/175 184/184/184
f  184/184/184 175/175/175 185/185/185
f  178/178/178 185/185/185 175/175/175
f  185/185/185 178/178/178 186/186/186
f  177/177/177 186/186/186 178/178/178
f  187/187/187 186/186/186 177/177/177
f  188/188/188 186/186/186 187/187/187
f  189/189/189 186/186/186 188/188/188
f  190/190/190 186/186/186 189/189/189
f  191/191/191 186/186/186 190/190/190
f  186/186/186 191/191/191 185/185/185

g
