# Noesis .obj export.
#
mtllib c1253.mtl
g
v  0.267851 0.166182 0.226548
v  0.267851 0.166182 -0.077849
v  -0.036547 0.166181 0.226548
v  -0.036547 0.166181 -0.077849

vt  0.000000 -0.000000 0.000000
vt  0.000000 -1.000000 0.000000
vt  1.000000 -0.000000 0.000000
vt  1.000000 -1.000000 0.000000

vn  -0.000000 1.000000 0.000000
vn  -0.000000 1.000000 0.000000
vn  -0.000000 1.000000 0.000000
vn  -0.000000 1.000000 0.000000

g Plane
usemtl StCandard_9_31
f  1/1/1 2/2/2 3/3/3
f  4/4/4 3/3/3 2/2/2

g
