# Noesis .obj export.
#
mtllib c1250.mtl
g
v  0.013687 0.143848 0.013860
v  0.021265 0.146270 0.009359
v  0.014017 0.142295 0.022862
v  0.029173 0.147140 0.013860
v  0.029503 0.145587 0.022862
v  0.021925 0.143165 0.027363
v  0.013687 0.143848 0.013860
v  -0.012725 0.268109 0.036260
v  0.021265 0.146270 0.009359
v  -0.005147 0.270531 0.031759
v  0.029173 0.147140 0.013860
v  0.002761 0.271401 0.036260
v  0.029503 0.145587 0.022862
v  0.003091 0.269848 0.045262
v  0.021925 0.143165 0.027363
v  -0.004487 0.267426 0.049763
v  0.014017 0.142295 0.022862
v  -0.012395 0.266557 0.045262
v  0.013687 0.143848 0.013860
v  -0.012725 0.268109 0.036260
v  -0.004487 0.267426 0.049763
v  -0.007261 0.280477 0.052115
v  -0.012395 0.266557 0.045262
v  -0.015169 0.279608 0.047614
v  -0.012725 0.268109 0.036260
v  -0.015499 0.281161 0.038613
v  -0.005147 0.270531 0.031759
v  -0.007921 0.283583 0.034112
v  0.002761 0.271401 0.036260
v  -0.000013 0.284452 0.038613
v  0.003091 0.269848 0.045262
v  0.000317 0.282900 0.047614
v  -0.008123 0.284536 0.043565

vt  0.889032 -0.139046 0.000000
vt  0.857845 -0.085027 0.000000
vt  0.951407 -0.139046 0.000000
vt  0.889032 -0.031009 0.000000
vt  0.951407 -0.031009 0.000000
vt  0.982595 -0.085027 0.000000
vt  0.841996 -0.976540 0.000000
vt  0.841996 -0.017248 0.000000
vt  0.704216 -0.976540 0.000000
vt  0.704216 -0.017248 0.000000
vt  0.566438 -0.976540 0.000000
vt  0.566438 -0.017248 0.000000
vt  0.428650 -0.976540 0.000000
vt  0.428650 -0.017248 0.000000
vt  0.290846 -0.976540 0.000000
vt  0.290846 -0.017248 0.000000
vt  0.153032 -0.976540 0.000000
vt  0.153032 -0.017248 0.000000
vt  0.015218 -0.976540 0.000000
vt  0.015218 -0.017248 0.000000
vt  0.888737 -0.912427 0.000000
vt  0.929531 -0.885677 0.000000
vt  0.888737 -0.775795 0.000000
vt  0.929531 -0.808994 0.000000
vt  0.980984 -0.731679 0.000000
vt  0.980984 -0.785134 0.000000
vt  0.888737 -0.775795 0.000000
vt  0.929531 -0.808994 0.000000
vt  0.888737 -0.912427 0.000000
vt  0.929531 -0.885677 0.000000
vt  0.980984 -0.962099 0.000000
vt  0.980984 -0.914931 0.000000
vt  0.980984 -0.850098 0.000000

vn  -0.560657 -0.662980 -0.496106
vn  0.096287 -0.453010 -0.886291
vn  -0.532048 -0.797571 0.284262
vn  0.781839 -0.377630 -0.496107
vn  0.810448 -0.512221 0.284260
vn  0.153504 -0.722192 0.674445
vn  -0.560657 -0.662980 -0.496106
vn  -0.865153 -0.095128 -0.492403
vn  0.096287 -0.453010 -0.886291
vn  -0.036103 0.169851 -0.984808
vn  0.781839 -0.377630 -0.496107
vn  0.829050 0.264979 -0.492405
vn  0.810448 -0.512221 0.284260
vn  0.865153 0.095128 0.492403
vn  0.153504 -0.722192 0.674445
vn  0.036103 -0.169851 0.984808
vn  -0.532048 -0.797571 0.284262
vn  -0.829050 -0.264979 0.492405
vn  -0.560657 -0.662980 -0.496106
vn  -0.865153 -0.095128 -0.492403
vn  0.036103 -0.169851 0.984808
vn  -0.076617 0.360469 0.929619
vn  -0.829050 -0.264979 0.492405
vn  -0.813299 0.279467 0.510336
vn  -0.865153 -0.095128 -0.492403
vn  -0.844041 0.424096 -0.328233
vn  -0.036103 0.169851 -0.984808
vn  -0.138102 0.649727 -0.747518
vn  0.829050 0.264979 -0.492405
vn  0.598580 0.730728 -0.328235
vn  0.865153 0.095128 0.492403
vn  0.629323 0.586099 0.510334
vn  -0.204749 0.963289 0.173646

g object0003_C1250
usemtl object0004_C1250_3
f  1/1/1 2/2/2 3/3/3
f  4/4/4 3/3/3 2/2/2
f  5/5/5 3/3/3 4/4/4
f  3/3/3 5/5/5 6/6/6
f  7/7/7 8/8/8 9/9/9
f  10/10/10 9/9/9 8/8/8
f  9/9/9 10/10/10 11/11/11
f  12/12/12 11/11/11 10/10/10
f  11/11/11 12/12/12 13/13/13
f  14/14/14 13/13/13 12/12/12
f  13/13/13 14/14/14 15/15/15
f  16/16/16 15/15/15 14/14/14
f  15/15/15 16/16/16 17/17/17
f  18/18/18 17/17/17 16/16/16
f  17/17/17 18/18/18 19/19/19
f  20/20/20 19/19/19 18/18/18
f  21/21/21 22/22/22 23/23/23
f  24/24/24 23/23/23 22/22/22
f  23/23/23 24/24/24 25/25/25
f  26/26/26 25/25/25 24/24/24
f  25/25/25 26/26/26 27/27/27
f  28/28/28 27/27/27 26/26/26
f  27/27/27 28/28/28 29/29/29
f  30/30/30 29/29/29 28/28/28
f  29/29/29 30/30/30 31/31/31
f  32/32/32 31/31/31 30/30/30
f  31/31/31 32/32/32 21/21/21
f  21/21/21 32/32/32 22/22/22
f  33/33/33 22/22/22 32/32/32
f  22/22/22 33/33/33 24/24/24
f  24/24/24 33/33/33 26/26/26
f  26/26/26 33/33/33 28/28/28
f  28/28/28 33/33/33 30/30/30
f  32/32/32 30/30/30 33/33/33

g
v  -0.037264 0.271722 0.073055
v  0.023323 0.284530 0.073001
v  -0.039540 0.282232 0.012071
v  0.021046 0.295041 0.012017

vt  1.000000 -1.000000 0.000000
vt  1.000000 -0.000000 0.000000
vt  0.000000 -1.000000 0.000000
vt  0.000000 -0.000000 0.000000

vn  -0.203551 0.963541 0.173653
vn  -0.203551 0.963541 0.173653
vn  -0.203551 0.963541 0.173653
vn  -0.203551 0.963541 0.173653

g "object0035_Editable Poly"
usemtl object0036_3_35
f  34/34/34 35/35/35 36/36/36
f  37/37/37 36/36/36 35/35/35

g
v  -0.010032 0.286010 0.037931
v  -0.010032 0.290662 0.044575
v  -0.010032 0.279366 0.042584
v  -0.010032 0.284018 0.049228

vt  0.000000 -0.000000 0.000000
vt  0.000000 -0.000000 0.000000
vt  0.000000 -0.000000 0.000000
vt  0.000000 -0.000000 0.000000

vn  1.000000 -0.000005 -0.000001
vn  1.000000 -0.000005 -0.000001
vn  1.000000 -0.000005 -0.000001
vn  1.000000 -0.000005 -0.000001

g "object0044_Editable Poly"
usemtl object0046_44
f  38/38/38 39/39/39 40/40/40
f  41/41/41 40/40/40 39/39/39

g
