# Noesis .obj export.
#
mtllib c1266.mtl
g
v  -0.014016 0.054271 0.098090
v  0.005821 0.064698 0.123598
v  -0.013288 0.088679 0.094628
v  0.005821 0.106971 0.121627
v  -0.015921 0.117320 0.079449
v  0.005821 0.133897 0.105423
v  -0.017649 0.137046 0.062599
v  0.005821 0.148492 0.082456
v  0.041125 0.076023 0.146932
v  0.041125 0.115354 0.138962
v  0.041125 0.139362 0.117956
v  0.041125 0.151152 0.092444
v  0.074425 0.148640 0.097451
v  0.076428 0.139494 0.119986
v  0.076428 0.112983 0.142360
v  0.076428 0.081658 0.150876
v  -0.014016 0.054270 -0.098090
v  -0.013288 0.088678 -0.094629
v  0.005821 0.064697 -0.123598
v  0.005821 0.106971 -0.121628
v  0.041125 0.076022 -0.146933
v  0.041125 0.115353 -0.138963
v  0.076428 0.081657 -0.150876
v  0.076428 0.112982 -0.142361
v  -0.015921 0.117319 -0.079450
v  0.005821 0.133896 -0.105424
v  0.041125 0.139361 -0.117957
v  0.076428 0.139493 -0.119986
v  -0.017649 0.137046 -0.062600
v  0.005821 0.148491 -0.082457
v  0.041125 0.151151 -0.092445
v  0.074425 0.148639 -0.097452

vt  1.000000 -1.000000 0.000000
vt  1.000000 -0.666667 0.000000
vt  0.666667 -1.000000 0.000000
vt  0.666667 -0.666667 0.000000
vt  0.333333 -1.000000 0.000000
vt  0.333333 -0.666667 0.000000
vt  0.000000 -1.000000 0.000000
vt  0.000000 -0.666667 0.000000
vt  1.000000 -0.333333 0.000000
vt  0.666667 -0.333333 0.000000
vt  0.333333 -0.333333 0.000000
vt  0.000000 -0.333333 0.000000
vt  0.000000 -0.000000 0.000000
vt  0.333333 -0.000000 0.000000
vt  0.666667 -0.000000 0.000000
vt  1.000000 -0.000000 0.000000
vt  1.000000 -1.000000 0.000000
vt  0.666667 -1.000000 0.000000
vt  1.000000 -0.666667 0.000000
vt  0.666667 -0.666667 0.000000
vt  1.000000 -0.333333 0.000000
vt  0.666667 -0.333333 0.000000
vt  1.000000 -0.000000 0.000000
vt  0.666667 -0.000000 0.000000
vt  0.333333 -1.000000 0.000000
vt  0.333333 -0.666667 0.000000
vt  0.333333 -0.333333 0.000000
vt  0.333333 -0.000000 0.000000
vt  0.000000 -1.000000 0.000000
vt  0.000000 -0.666667 0.000000
vt  0.000000 -0.333333 0.000000
vt  0.000000 -0.000000 0.000000

vn  -0.801997 0.076550 0.592403
vn  -0.718131 0.046734 0.694337
vn  -0.835323 0.104998 0.539640
vn  -0.672419 0.228285 0.704088
vn  -0.829289 0.283895 0.481335
vn  -0.581082 0.573345 0.577598
vn  -0.764863 0.458115 0.452897
vn  -0.499656 0.743297 0.444808
vn  -0.352069 0.150417 0.923809
vn  -0.254748 0.430112 0.866087
vn  -0.166381 0.776989 0.607128
vn  -0.108626 0.905777 0.409597
vn  0.013553 0.926927 0.374997
vn  -0.027552 0.795172 0.605757
vn  -0.059104 0.454732 0.888665
vn  -0.110052 0.226840 0.967694
vn  -0.801997 0.076546 -0.592403
vn  -0.835323 0.104994 -0.539641
vn  -0.718131 0.046730 -0.694337
vn  -0.672419 0.228280 -0.704089
vn  -0.352069 0.150411 -0.923810
vn  -0.254748 0.430106 -0.866090
vn  -0.110052 0.226834 -0.967696
vn  -0.059104 0.454726 -0.888668
vn  -0.829289 0.283891 -0.481337
vn  -0.581082 0.573341 -0.577602
vn  -0.166381 0.776985 -0.607134
vn  -0.027552 0.795168 -0.605762
vn  -0.764863 0.458112 -0.452900
vn  -0.499656 0.743294 -0.444813
vn  -0.108626 0.905774 -0.409603
vn  0.013553 0.926925 -0.375003

g C1266
usemtl C1266_3
f  1/1/1 2/2/2 3/3/3
f  4/4/4 3/3/3 2/2/2
f  3/3/3 4/4/4 5/5/5
f  6/6/6 5/5/5 4/4/4
f  5/5/5 6/6/6 7/7/7
f  8/8/8 7/7/7 6/6/6
f  2/2/2 9/9/9 4/4/4
f  10/10/10 4/4/4 9/9/9
f  4/4/4 10/10/10 6/6/6
f  11/11/11 6/6/6 10/10/10
f  6/6/6 11/11/11 8/8/8
f  12/12/12 8/8/8 11/11/11
f  13/13/13 12/12/12 14/14/14
f  11/11/11 14/14/14 12/12/12
f  14/14/14 11/11/11 15/15/15
f  10/10/10 15/15/15 11/11/11
f  15/15/15 10/10/10 16/16/16
f  9/9/9 16/16/16 10/10/10
f  17/17/17 18/18/18 19/19/19
f  20/20/20 19/19/19 18/18/18
f  19/19/19 20/20/20 21/21/21
f  22/22/22 21/21/21 20/20/20
f  21/21/21 22/22/22 23/23/23
f  24/24/24 23/23/23 22/22/22
f  18/18/18 25/25/25 20/20/20
f  26/26/26 20/20/20 25/25/25
f  20/20/20 26/26/26 22/22/22
f  27/27/27 22/22/22 26/26/26
f  22/22/22 27/27/27 24/24/24
f  28/28/28 24/24/24 27/27/27
f  25/25/25 29/29/29 26/26/26
f  30/30/30 26/26/26 29/29/29
f  26/26/26 30/30/30 27/27/27
f  31/31/31 27/27/27 30/30/30
f  27/27/27 31/31/31 28/28/28
f  32/32/32 28/28/28 31/31/31

g
