# Noesis .obj export.
#
mtllib f1102.mtl
g
v  0.665080 0.132525 0.028002
v  0.672900 0.136899 -0.018359
v  0.703496 0.094159 -0.022268
v  0.659347 0.131538 -0.068731
v  0.688884 0.109987 -0.089039
v  0.636101 0.178635 -0.149052
v  0.699812 0.083811 0.067268
v  0.631529 0.148702 0.072221
v  0.663417 0.099144 0.140235
v  0.623185 0.116007 0.191481
v  0.598956 0.163377 0.091268
v  0.565404 0.157299 0.213448
v  0.568039 0.182592 0.099991
v  0.530692 0.202977 0.099249
v  0.494274 0.209949 0.202740
v  0.484725 0.240132 0.085506
v  0.434040 0.258196 0.160916
v  0.393303 0.304302 0.094382
v  0.449092 0.279463 0.047052
v  0.380290 0.338957 0.007272
v  0.432850 0.310982 -0.011012
v  0.398237 0.350345 -0.076621
v  0.435482 0.330569 -0.072897
v  0.456884 0.355231 -0.159286
v  0.410442 0.379925 0.011401
v  0.432850 0.310982 -0.011012
v  0.423475 0.378747 -0.073089
v  0.435482 0.330569 -0.072897
v  0.456884 0.355231 -0.159286
v  0.398237 0.350345 -0.076621
v  0.380290 0.338957 0.007272
v  0.393303 0.304302 0.094382
v  0.423681 0.344674 0.098399
v  0.434040 0.258196 0.160916
v  0.463824 0.297725 0.164615
v  0.494274 0.209949 0.202740
v  0.522657 0.248529 0.205968
v  0.565404 0.157299 0.213448
v  0.591954 0.202128 0.216198
v  0.530692 0.202977 0.099249
v  0.484725 0.240132 0.085506
v  0.449092 0.279463 0.047052
v  0.568039 0.182592 0.099991
v  0.598956 0.163377 0.091268
v  0.654427 0.154802 0.195918
v  0.623185 0.116007 0.191481
v  0.697303 0.127849 0.142177
v  0.631529 0.148702 0.072221
v  0.665080 0.132525 0.028002
v  0.732343 0.112351 0.068938
v  0.663417 0.099144 0.140235
v  0.699812 0.083811 0.067268
v  0.731889 0.128325 -0.020619
v  0.672900 0.136899 -0.018359
v  0.704571 0.131414 -0.085715
v  0.659347 0.131538 -0.068731
v  0.636101 0.178635 -0.149052
v  0.688884 0.109987 -0.089039
v  0.703496 0.094159 -0.022268
v  0.441667 -0.445814 -0.029930
v  0.459334 -0.452423 0.000028
v  0.299840 -0.579071 0.000029
v  0.441667 -0.445814 0.029987
v  0.426013 -0.422655 0.000028
v  0.625718 -0.414373 0.000028
v  0.592182 -0.401681 -0.054474
v  0.563409 -0.356142 0.000028
v  0.592182 -0.401681 0.054531
v  0.694226 -0.080652 -0.136359
v  0.742327 -0.003401 -0.089084
v  0.773777 -0.245870 -0.047895
v  0.781328 -0.241429 0.000028
v  0.773777 -0.245870 0.047951
v  0.729564 -0.252130 0.086110
v  0.650810 -0.251826 0.073847
v  0.589673 -0.246776 0.000028
v  0.650810 -0.251827 -0.073790
v  0.729564 -0.252130 -0.086054
v  0.536485 -0.096916 -0.134032
v  0.590585 0.026688 -0.192362
v  0.622558 0.134232 -0.119764
v  0.757056 0.023112 0.000027
v  0.742327 -0.003401 0.089139
v  0.694226 -0.080652 0.136415
v  0.605949 -0.149583 0.103790
v  0.543000 -0.173715 0.000028
v  0.605949 -0.149584 -0.103734
v  0.499414 -0.136227 0.000028
v  0.536485 -0.096916 0.134087
v  0.590585 0.026689 0.192417
v  0.622558 0.134233 0.119819
v  0.639387 0.170769 0.000027
v  0.466377 0.234410 -0.122790
v  0.463323 0.189024 -0.205074
v  0.452019 0.090145 -0.244418
v  0.433148 0.017575 -0.253208
v  0.398907 -0.061853 -0.228129
v  0.474234 0.260138 0.000027
v  0.466377 0.234410 0.122844
v  0.463323 0.189024 0.205129
v  0.452019 0.090146 0.244473
v  0.433148 0.017576 0.253263
v  0.398907 -0.061852 0.228184
v  0.374615 -0.112683 0.181395
v  0.348880 -0.162277 0.090661
v  0.341735 -0.184686 0.000028
v  0.348880 -0.162278 -0.090605
v  0.374615 -0.112683 -0.181339
v  0.386850 0.299391 0.124308
v  0.388051 0.319003 0.000027
v  0.379850 0.262642 0.227789
v  0.365322 0.153559 0.277962
v  0.349740 0.039792 0.289532
v  0.315144 -0.048604 0.275070
v  0.289662 -0.116806 0.218368
v  0.269642 -0.180413 0.115333
v  0.136578 -0.340470 0.179884
v  0.185561 -0.213982 0.329943
v  0.259971 -0.053221 0.426230
v  0.299700 0.064757 0.438353
v  0.328375 0.236325 0.409272
v  0.328453 0.401139 0.314164
v  0.334067 0.515674 0.178227
v  0.337399 0.559455 0.000026
v  0.118753 -0.411129 0.000028
v  0.265876 -0.227200 0.000028
v  0.269642 -0.180413 -0.115277
v  0.136578 -0.340471 -0.179827
v  0.289662 -0.116807 -0.218313
v  0.185561 -0.213983 -0.329887
v  0.315144 -0.048605 -0.275015
v  0.259971 -0.053223 -0.426175
v  0.349740 0.039791 -0.289477
v  0.299700 0.064755 -0.438299
v  0.365322 0.153558 -0.277908
v  0.328375 0.236323 -0.409217
v  0.379850 0.262641 -0.227735
v  0.328453 0.401138 -0.314111
v  0.386850 0.299391 -0.124255
v  0.334067 0.515673 -0.178174
v  0.334067 0.515674 0.178227
v  0.337399 0.559455 0.000026
v  0.325947 0.042593 0.000027
v  0.334067 0.515673 -0.178174
v  0.328453 0.401138 -0.314111
v  0.328375 0.236323 -0.409217
v  0.299700 0.064755 -0.438299
v  0.259971 -0.053223 -0.426175
v  0.185561 -0.213983 -0.329887
v  0.136578 -0.340471 -0.179827
v  0.118753 -0.411129 0.000028
v  0.136578 -0.340470 0.179884
v  0.185561 -0.213982 0.329943
v  0.259971 -0.053221 0.426230
v  0.299700 0.064757 0.438353
v  0.328375 0.236325 0.409272
v  0.328453 0.401139 0.314164
v  0.438757 0.288241 -0.055168
v  0.420687 0.253980 -0.137533
v  0.540502 0.263712 -0.160086
v  0.401238 0.233017 -0.219898
v  0.491189 0.130830 -0.215940
v  0.540503 0.263712 -0.160086
v  0.532474 0.201136 -0.037454
v  0.605727 0.128911 -0.130130

vt  0.264212 -0.389713 0.000000
vt  0.298850 -0.382386 0.000000
vt  0.306538 -0.415612 0.000000
vt  0.334554 -0.371617 0.000000
vt  0.343272 -0.393989 0.000000
vt  0.380453 -0.358229 0.000000
vt  0.266271 -0.430742 0.000000
vt  0.230991 -0.388282 0.000000
vt  0.228653 -0.437581 0.000000
vt  0.191081 -0.436277 0.000000
vt  0.200209 -0.379074 0.000000
vt  0.154929 -0.426936 0.000000
vt  0.175525 -0.369918 0.000000
vt  0.150963 -0.359739 0.000000
vt  0.120205 -0.409539 0.000000
vt  0.118889 -0.345557 0.000000
vt  0.087453 -0.385125 0.000000
vt  0.057262 -0.354932 0.000000
vt  0.088756 -0.324401 0.000000
vt  0.031983 -0.318866 0.000000
vt  0.062447 -0.297030 0.000000
vt  0.017004 -0.281789 0.000000
vt  0.039193 -0.270152 0.000000
vt  0.005779 -0.235975 0.000000
vt  0.944228 -0.518782 0.000000
vt  0.868586 -0.520937 0.000000
vt  0.927439 -0.597749 0.000000
vt  0.877163 -0.592176 0.000000
vt  0.894507 -0.687100 0.000000
vt  0.964749 -0.608167 0.000000
vt  0.994400 -0.520058 0.000000
vt  0.993612 -0.419787 0.000000
vt  0.942632 -0.429878 0.000000
vt  0.974768 -0.329811 0.000000
vt  0.926188 -0.345260 0.000000
vt  0.943860 -0.247884 0.000000
vt  0.898931 -0.267423 0.000000
vt  0.901547 -0.174367 0.000000
vt  0.860454 -0.199106 0.000000
vt  0.791231 -0.316051 0.000000
vt  0.828903 -0.375998 0.000000
vt  0.855452 -0.445425 0.000000
vt  0.761612 -0.271285 0.000000
vt  0.730636 -0.228095 0.000000
vt  0.810491 -0.142658 0.000000
vt  0.846295 -0.113096 0.000000
vt  0.749078 -0.098058 0.000000
vt  0.689510 -0.177932 0.000000
vt  0.635523 -0.138032 0.000000
vt  0.678396 -0.067036 0.000000
vt  0.777888 -0.063614 0.000000
vt  0.699463 -0.027970 0.000000
vt  0.593918 -0.046901 0.000000
vt  0.569278 -0.111192 0.000000
vt  0.508026 -0.041622 0.000000
vt  0.497361 -0.088908 0.000000
vt  0.405425 -0.059498 0.000000
vt  0.505000 -0.010780 0.000000
vt  0.605365 -0.005278 0.000000
vt  0.339866 -0.103035 0.000000
vt  0.355786 -0.081197 0.000000
vt  0.213985 -0.020907 0.000000
vt  0.339866 -0.103035 0.000000
vt  0.322229 -0.128859 0.000000
vt  0.482936 -0.098913 0.000000
vt  0.454912 -0.141722 0.000000
vt  0.423066 -0.190078 0.000000
vt  0.454912 -0.141722 0.000000
vt  0.639125 -0.344164 0.000000
vt  0.715166 -0.350090 0.000000
vt  0.626181 -0.191955 0.000000
vt  0.651019 -0.166086 0.000000
vt  0.626181 -0.191955 0.000000
vt  0.589239 -0.217075 0.000000
vt  0.534019 -0.243195 0.000000
vt  0.464568 -0.266831 0.000000
vt  0.534019 -0.243195 0.000000
vt  0.589239 -0.217075 0.000000
vt  0.520715 -0.426034 0.000000
vt  0.636127 -0.486159 0.000000
vt  0.734797 -0.512490 0.000000
vt  0.782224 -0.329293 0.000000
vt  0.715166 -0.350090 0.000000
vt  0.639125 -0.344164 0.000000
vt  0.551007 -0.338934 0.000000
vt  0.460479 -0.308417 0.000000
vt  0.551007 -0.338934 0.000000
vt  0.433536 -0.350756 0.000000
vt  0.520715 -0.426034 0.000000
vt  0.636127 -0.486159 0.000000
vt  0.734797 -0.512490 0.000000
vt  0.829489 -0.507754 0.000000
vt  0.735557 -0.733089 0.000000
vt  0.655198 -0.719162 0.000000
vt  0.577517 -0.673354 0.000000
vt  0.519523 -0.640760 0.000000
vt  0.454996 -0.599216 0.000000
vt  0.833232 -0.725793 0.000000
vt  0.735557 -0.733089 0.000000
vt  0.655198 -0.719162 0.000000
vt  0.577517 -0.673354 0.000000
vt  0.519523 -0.640760 0.000000
vt  0.454996 -0.599216 0.000000
vt  0.397994 -0.564905 0.000000
vt  0.345870 -0.501165 0.000000
vt  0.306916 -0.440726 0.000000
vt  0.345870 -0.501165 0.000000
vt  0.397994 -0.564905 0.000000
vt  0.763234 -0.812704 0.000000
vt  0.858337 -0.791797 0.000000
vt  0.660708 -0.795698 0.000000
vt  0.574354 -0.749521 0.000000
vt  0.488840 -0.698267 0.000000
vt  0.417630 -0.672112 0.000000
vt  0.348864 -0.617241 0.000000
vt  0.276086 -0.536528 0.000000
vt  0.113574 -0.602154 0.000000
vt  0.218490 -0.704641 0.000000
vt  0.345735 -0.786093 0.000000
vt  0.426106 -0.827949 0.000000
vt  0.538098 -0.888349 0.000000
vt  0.672331 -0.947308 0.000000
vt  0.806621 -0.968773 0.000000
vt  0.937896 -0.936906 0.000000
vt  0.020982 -0.468806 0.000000
vt  0.222330 -0.459452 0.000000
vt  0.276086 -0.536528 0.000000
vt  0.113574 -0.602154 0.000000
vt  0.348864 -0.617241 0.000000
vt  0.218490 -0.704641 0.000000
vt  0.417630 -0.672112 0.000000
vt  0.345735 -0.786093 0.000000
vt  0.488840 -0.698267 0.000000
vt  0.426106 -0.827949 0.000000
vt  0.574354 -0.749521 0.000000
vt  0.538098 -0.888349 0.000000
vt  0.660708 -0.795698 0.000000
vt  0.672331 -0.947308 0.000000
vt  0.763234 -0.812704 0.000000
vt  0.806621 -0.968773 0.000000
vt  0.013634 -0.087101 0.000000
vt  0.048515 -0.014112 0.000000
vt  0.241249 -0.169366 0.000000
vt  0.013634 -0.087101 0.000000
vt  0.012824 -0.170902 0.000000
vt  0.044152 -0.259338 0.000000
vt  0.102425 -0.321878 0.000000
vt  0.161645 -0.345598 0.000000
vt  0.256208 -0.357956 0.000000
vt  0.344644 -0.347100 0.000000
vt  0.434322 -0.314686 0.000000
vt  0.344644 -0.347100 0.000000
vt  0.256208 -0.357956 0.000000
vt  0.161645 -0.345598 0.000000
vt  0.102425 -0.321878 0.000000
vt  0.044152 -0.259338 0.000000
vt  0.012824 -0.170902 0.000000
vt  0.005374 -0.780656 0.000000
vt  0.115883 -0.629231 0.000000
vt  0.272427 -0.766132 0.000000
vt  0.005374 -0.780656 0.000000
vt  0.170501 -0.994384 0.000000
vt  0.272427 -0.766132 0.000000
vt  0.170501 -0.994384 0.000000
vt  0.472080 -0.944545 0.000000

vn  -0.827014 0.511407 -0.233475
vn  -0.789175 0.608318 0.084563
vn  0.062501 -0.984955 -0.161115
vn  -0.969121 0.199517 0.144907
vn  0.098364 -0.847546 -0.521528
vn  -0.477466 0.544926 -0.689261
vn  0.044100 -0.998563 0.030441
vn  -0.561058 0.434114 -0.704811
vn  -0.044601 -0.971420 0.233138
vn  -0.135355 -0.848595 0.511434
vn  -0.274698 0.148509 -0.949993
vn  -0.380643 -0.641133 0.666378
vn  -0.096926 0.052527 -0.993904
vn  0.053955 -0.182762 -0.981676
vn  -0.618733 -0.466111 0.632384
vn  0.268028 -0.366353 -0.891037
vn  -0.812622 -0.332008 0.478973
vn  -0.951296 -0.188398 0.244012
vn  0.510431 -0.598813 -0.617158
vn  -0.992217 -0.105045 -0.066867
vn  0.582400 -0.736821 -0.343374
vn  -0.910167 -0.112145 -0.398772
vn  0.617568 -0.770293 -0.158929
vn  0.399555 0.023922 -0.916397
vn  0.069822 0.985620 0.153875
vn  0.582400 -0.736821 -0.343374
vn  0.186701 0.979385 -0.077128
vn  0.617568 -0.770293 -0.158929
vn  0.399555 0.023922 -0.916397
vn  -0.910167 -0.112145 -0.398772
vn  -0.992217 -0.105045 -0.066867
vn  -0.951296 -0.188398 0.244012
vn  0.095416 0.898742 0.427970
vn  -0.812622 -0.332008 0.478973
vn  0.149509 0.820827 0.551263
vn  -0.618733 -0.466111 0.632384
vn  0.262386 0.703230 0.660774
vn  -0.380643 -0.641133 0.666378
vn  0.445643 0.588378 0.674695
vn  0.053955 -0.182762 -0.981676
vn  0.268028 -0.366353 -0.891037
vn  0.510431 -0.598813 -0.617158
vn  -0.096926 0.052527 -0.993904
vn  -0.274698 0.148509 -0.949993
vn  0.707794 0.323471 0.628008
vn  -0.135355 -0.848595 0.511434
vn  0.880817 0.202079 0.428165
vn  -0.561058 0.434114 -0.704811
vn  -0.827014 0.511407 -0.233475
vn  0.977232 0.114299 0.178757
vn  -0.044601 -0.971420 0.233138
vn  0.044100 -0.998563 0.030441
vn  0.928185 0.351992 -0.120726
vn  -0.789175 0.608318 0.084563
vn  0.824261 0.376958 -0.422488
vn  -0.969121 0.199517 0.144907
vn  -0.477466 0.544926 -0.689261
vn  0.098364 -0.847546 -0.521528
vn  0.062501 -0.984955 -0.161115
vn  -0.088191 -0.097022 -0.991367
vn  0.383024 -0.923738 0.000002
vn  -0.716139 -0.697958 0.000001
vn  -0.088191 -0.097018 0.991368
vn  -0.617059 0.786917 -0.000002
vn  0.515571 -0.856847 0.000002
vn  -0.034681 -0.434675 -0.899920
vn  -0.827004 0.562196 -0.000001
vn  -0.034681 -0.434671 0.899921
vn  0.404859 -0.156367 -0.900910
vn  0.819154 0.264777 -0.508803
vn  0.856835 -0.327236 -0.398436
vn  0.960040 -0.279862 0.000001
vn  0.856835 -0.327234 0.398438
vn  0.375612 -0.367667 0.850727
vn  -0.427801 -0.196055 0.882354
vn  -0.979766 -0.200147 0.000000
vn  -0.427801 -0.196059 -0.882353
vn  0.375612 -0.367671 -0.850726
vn  0.091774 -0.739191 -0.667214
vn  0.446345 -0.016234 -0.894714
vn  0.617691 0.582606 -0.528231
vn  0.915525 0.402261 -0.000001
vn  0.819154 0.264779 0.508802
vn  0.404859 -0.156364 0.900910
vn  -0.318569 -0.542431 0.777356
vn  -0.740208 -0.672378 0.000001
vn  -0.318569 -0.542434 -0.777354
vn  -0.095108 -0.995467 0.000002
vn  0.091774 -0.739188 0.667217
vn  0.446345 -0.016230 0.894714
vn  0.617691 0.582609 0.528228
vn  0.652932 0.757416 -0.000002
vn  0.569028 0.763087 -0.306440
vn  0.559113 0.492949 -0.666628
vn  0.428190 0.144223 -0.892106
vn  0.374091 -0.210049 -0.903291
vn  0.333912 -0.580009 -0.743029
vn  0.539211 0.842171 -0.000002
vn  0.569028 0.763088 0.306437
vn  0.559113 0.492952 0.666626
vn  0.428190 0.144227 0.892105
vn  0.374091 -0.210045 0.903292
vn  0.333912 -0.580005 0.743032
vn  0.265119 -0.803614 0.532838
vn  0.309170 -0.899379 0.309081
vn  0.403978 -0.914769 0.000002
vn  0.309170 -0.899380 -0.309078
vn  0.265119 -0.803617 -0.532834
vn  0.839330 0.513252 0.179157
vn  0.844190 0.536043 -0.000001
vn  0.860105 0.339209 0.380994
vn  0.787132 0.065312 0.613317
vn  0.699986 -0.199957 0.685592
vn  0.651598 -0.526837 0.545768
vn  0.586951 -0.691583 0.420954
vn  0.582480 -0.755157 0.300758
vn  -0.490171 -0.721521 0.489020
vn  -0.417002 -0.491759 0.764383
vn  -0.246032 -0.226254 0.942485
vn  -0.133474 0.083862 0.987498
vn  -0.093146 0.284590 0.954113
vn  -0.143211 0.681765 0.717417
vn  -0.093506 0.906446 0.411841
vn  -0.071803 0.997419 -0.000002
vn  -0.472511 -0.881325 0.000002
vn  0.646681 -0.762761 0.000002
vn  0.582480 -0.755158 -0.300755
vn  -0.490171 -0.721523 -0.489016
vn  0.586951 -0.691585 -0.420951
vn  -0.417002 -0.491763 -0.764381
vn  0.651598 -0.526839 -0.545766
vn  -0.246032 -0.226258 -0.942484
vn  0.699986 -0.199960 -0.685592
vn  -0.133474 0.083858 -0.987498
vn  0.787132 0.065310 -0.613317
vn  -0.093146 0.284586 -0.954114
vn  0.860105 0.339208 -0.380995
vn  -0.143211 0.681762 -0.717420
vn  0.839330 0.513251 -0.179159
vn  -0.093506 0.906444 -0.411845
vn  -0.093506 0.906446 0.411841
vn  -0.071803 0.997419 -0.000002
vn  -0.971252 0.238054 -0.000000
vn  -0.093506 0.906444 -0.411845
vn  -0.143211 0.681762 -0.717420
vn  -0.093146 0.284586 -0.954114
vn  -0.133474 0.083858 -0.987498
vn  -0.246032 -0.226258 -0.942484
vn  -0.417002 -0.491763 -0.764381
vn  -0.490171 -0.721523 -0.489016
vn  -0.472511 -0.881325 0.000002
vn  -0.490171 -0.721521 0.489020
vn  -0.417002 -0.491759 0.764383
vn  -0.246032 -0.226254 0.942485
vn  -0.133474 0.083862 0.987498
vn  -0.093146 0.284590 0.954113
vn  -0.143211 0.681765 0.717417
vn  -0.919989 0.304532 -0.246740
vn  0.942537 0.195170 -0.271170
vn  -0.576417 -0.733071 0.361042
vn  -0.653224 0.606180 0.453702
vn  -0.432241 -0.788108 -0.438239
vn  0.576418 0.733070 -0.361041
vn  -0.091582 -0.363416 0.927115
vn  0.586827 -0.801873 0.112399

g F1102
usemtl F1102_3
f  1/1/1 2/2/2 3/3/3
f  4/4/4 3/3/3 2/2/2
f  3/3/3 4/4/4 5/5/5
f  6/6/6 5/5/5 4/4/4
f  7/7/7 1/1/1 3/3/3
f  1/1/1 7/7/7 8/8/8
f  9/9/9 8/8/8 7/7/7
f  10/10/10 8/8/8 9/9/9
f  8/8/8 10/10/10 11/11/11
f  12/12/12 11/11/11 10/10/10
f  11/11/11 12/12/12 13/13/13
f  13/13/13 12/12/12 14/14/14
f  15/15/15 14/14/14 12/12/12
f  14/14/14 15/15/15 16/16/16
f  17/17/17 16/16/16 15/15/15
f  18/18/18 16/16/16 17/17/17
f  16/16/16 18/18/18 19/19/19
f  20/20/20 19/19/19 18/18/18
f  19/19/19 20/20/20 21/21/21
f  22/22/22 21/21/21 20/20/20
f  21/21/21 22/22/22 23/23/23
f  24/24/24 23/23/23 22/22/22
f  25/25/25 26/26/26 27/27/27
f  28/28/28 27/27/27 26/26/26
f  27/27/27 28/28/28 29/29/29
f  29/29/29 30/30/30 27/27/27
f  31/31/31 27/27/27 30/30/30
f  27/27/27 31/31/31 25/25/25
f  32/32/32 25/25/25 31/31/31
f  25/25/25 32/32/32 33/33/33
f  34/34/34 33/33/33 32/32/32
f  33/33/33 34/34/34 35/35/35
f  36/36/36 35/35/35 34/34/34
f  35/35/35 36/36/36 37/37/37
f  38/38/38 37/37/37 36/36/36
f  39/39/39 37/37/37 38/38/38
f  40/40/40 37/37/37 39/39/39
f  37/37/37 40/40/40 35/35/35
f  41/41/41 35/35/35 40/40/40
f  42/42/42 35/35/35 41/41/41
f  35/35/35 42/42/42 33/33/33
f  33/33/33 42/42/42 25/25/25
f  26/26/26 25/25/25 42/42/42
f  40/40/40 39/39/39 43/43/43
f  43/43/43 39/39/39 44/44/44
f  44/44/44 39/39/39 45/45/45
f  38/38/38 45/45/45 39/39/39
f  46/46/46 45/45/45 38/38/38
f  47/47/47 45/45/45 46/46/46
f  45/45/45 47/47/47 44/44/44
f  44/44/44 47/47/47 48/48/48
f  48/48/48 47/47/47 49/49/49
f  49/49/49 47/47/47 50/50/50
f  50/50/50 47/47/47 51/51/51
f  46/46/46 51/51/51 47/47/47
f  51/51/51 52/52/52 50/50/50
f  53/53/53 50/50/50 52/52/52
f  50/50/50 53/53/53 49/49/49
f  49/49/49 53/53/53 54/54/54
f  55/55/55 54/54/54 53/53/53
f  54/54/54 55/55/55 56/56/56
f  56/56/56 55/55/55 57/57/57
f  57/57/57 55/55/55 58/58/58
f  58/58/58 55/55/55 59/59/59
f  53/53/53 59/59/59 55/55/55
f  59/59/59 53/53/53 52/52/52
f  60/60/60 61/61/61 62/62/62
f  63/63/63 62/62/62 61/61/61
f  64/64/64 62/62/62 63/63/63
f  62/62/62 64/64/64 60/60/60
f  65/65/65 61/61/61 66/66/66
f  60/60/60 66/66/66 61/61/61
f  66/66/66 60/60/60 67/67/67
f  64/64/64 67/67/67 60/60/60
f  63/63/63 67/67/67 64/64/64
f  67/67/67 63/63/63 68/68/68
f  61/61/61 68/68/68 63/63/63
f  68/68/68 61/61/61 65/65/65
f  69/69/69 70/70/70 71/71/71
f  72/72/72 71/71/71 70/70/70
f  71/71/71 72/72/72 65/65/65
f  73/73/73 65/65/65 72/72/72
f  74/74/74 65/65/65 73/73/73
f  65/65/65 74/74/74 68/68/68
f  75/75/75 68/68/68 74/74/74
f  76/76/76 68/68/68 75/75/75
f  68/68/68 76/76/76 67/67/67
f  67/67/67 76/76/76 66/66/66
f  77/77/77 66/66/66 76/76/76
f  78/78/78 66/66/66 77/77/77
f  66/66/66 78/78/78 65/65/65
f  71/71/71 65/65/65 78/78/78
f  79/79/79 80/80/80 69/69/69
f  69/69/69 80/80/80 70/70/70
f  81/81/81 70/70/70 80/80/80
f  82/82/82 70/70/70 81/81/81
f  70/70/70 82/82/82 72/72/72
f  83/83/83 72/72/72 82/82/82
f  72/72/72 83/83/83 73/73/73
f  84/84/84 73/73/73 83/83/83
f  73/73/73 84/84/84 74/74/74
f  85/85/85 74/74/74 84/84/84
f  74/74/74 85/85/85 75/75/75
f  86/86/86 75/75/75 85/85/85
f  75/75/75 86/86/86 76/76/76
f  76/76/76 86/86/86 77/77/77
f  87/87/87 77/77/77 86/86/86
f  77/77/77 87/87/87 78/78/78
f  69/69/69 78/78/78 87/87/87
f  78/78/78 69/69/69 71/71/71
f  87/87/87 79/79/79 69/69/69
f  79/79/79 87/87/87 88/88/88
f  86/86/86 88/88/88 87/87/87
f  85/85/85 88/88/88 86/86/86
f  88/88/88 85/85/85 89/89/89
f  84/84/84 89/89/89 85/85/85
f  89/89/89 84/84/84 90/90/90
f  83/83/83 90/90/90 84/84/84
f  90/90/90 83/83/83 91/91/91
f  82/82/82 91/91/91 83/83/83
f  91/91/91 82/82/82 92/92/92
f  81/81/81 92/92/92 82/82/82
f  92/92/92 81/81/81 93/93/93
f  93/93/93 81/81/81 94/94/94
f  80/80/80 94/94/94 81/81/81
f  94/94/94 80/80/80 95/95/95
f  95/95/95 80/80/80 96/96/96
f  97/97/97 96/96/96 80/80/80
f  93/93/93 98/98/98 92/92/92
f  99/99/99 92/92/92 98/98/98
f  92/92/92 99/99/99 91/91/91
f  100/100/100 91/91/91 99/99/99
f  91/91/91 100/100/100 90/90/90
f  101/101/101 90/90/90 100/100/100
f  102/102/102 90/90/90 101/101/101
f  103/103/103 90/90/90 102/102/102
f  90/90/90 103/103/103 89/89/89
f  104/104/104 89/89/89 103/103/103
f  105/105/105 89/89/89 104/104/104
f  89/89/89 105/105/105 88/88/88
f  106/106/106 88/88/88 105/105/105
f  107/107/107 88/88/88 106/106/106
f  88/88/88 107/107/107 79/79/79
f  108/108/108 79/79/79 107/107/107
f  97/97/97 79/79/79 108/108/108
f  79/79/79 97/97/97 80/80/80
f  109/109/109 98/98/98 110/110/110
f  98/98/98 109/109/109 99/99/99
f  111/111/111 99/99/99 109/109/109
f  99/99/99 111/111/111 100/100/100
f  112/112/112 100/100/100 111/111/111
f  100/100/100 112/112/112 101/101/101
f  113/113/113 101/101/101 112/112/112
f  101/101/101 113/113/113 102/102/102
f  114/114/114 102/102/102 113/113/113
f  102/102/102 114/114/114 103/103/103
f  115/115/115 103/103/103 114/114/114
f  103/103/103 115/115/115 104/104/104
f  116/116/116 104/104/104 115/115/115
f  105/105/105 104/104/104 116/116/116
f  116/116/116 115/115/115 117/117/117
f  117/117/117 115/115/115 118/118/118
f  114/114/114 118/118/118 115/115/115
f  118/118/118 114/114/114 119/119/119
f  113/113/113 119/119/119 114/114/114
f  119/119/119 113/113/113 120/120/120
f  112/112/112 120/120/120 113/113/113
f  120/120/120 112/112/112 121/121/121
f  111/111/111 121/121/121 112/112/112
f  121/121/121 111/111/111 122/122/122
f  109/109/109 122/122/122 111/111/111
f  122/122/122 109/109/109 123/123/123
f  110/110/110 123/123/123 109/109/109
f  123/123/123 110/110/110 124/124/124
f  125/125/125 116/116/116 117/117/117
f  116/116/116 125/125/125 126/126/126
f  126/126/126 125/125/125 127/127/127
f  128/128/128 127/127/127 125/125/125
f  127/127/127 128/128/128 129/129/129
f  130/130/130 129/129/129 128/128/128
f  129/129/129 130/130/130 131/131/131
f  132/132/132 131/131/131 130/130/130
f  131/131/131 132/132/132 133/133/133
f  134/134/134 133/133/133 132/132/132
f  133/133/133 134/134/134 135/135/135
f  136/136/136 135/135/135 134/134/134
f  135/135/135 136/136/136 137/137/137
f  138/138/138 137/137/137 136/136/136
f  137/137/137 138/138/138 139/139/139
f  140/140/140 139/139/139 138/138/138
f  139/139/139 140/140/140 110/110/110
f  124/124/124 110/110/110 140/140/140
f  110/110/110 98/98/98 139/139/139
f  93/93/93 139/139/139 98/98/98
f  139/139/139 93/93/93 137/137/137
f  94/94/94 137/137/137 93/93/93
f  137/137/137 94/94/94 135/135/135
f  95/95/95 135/135/135 94/94/94
f  135/135/135 95/95/95 133/133/133
f  96/96/96 133/133/133 95/95/95
f  133/133/133 96/96/96 131/131/131
f  97/97/97 131/131/131 96/96/96
f  131/131/131 97/97/97 129/129/129
f  108/108/108 129/129/129 97/97/97
f  129/129/129 108/108/108 127/127/127
f  107/107/107 127/127/127 108/108/108
f  127/127/127 107/107/107 126/126/126
f  106/106/106 126/126/126 107/107/107
f  105/105/105 126/126/126 106/106/106
f  126/126/126 105/105/105 116/116/116
f  141/141/141 142/142/142 143/143/143
f  144/144/144 143/143/143 142/142/142
f  145/145/145 143/143/143 144/144/144
f  146/146/146 143/143/143 145/145/145
f  147/147/147 143/143/143 146/146/146
f  148/148/148 143/143/143 147/147/147
f  149/149/149 143/143/143 148/148/148
f  150/150/150 143/143/143 149/149/149
f  151/151/151 143/143/143 150/150/150
f  152/152/152 143/143/143 151/151/151
f  153/153/153 143/143/143 152/152/152
f  154/154/154 143/143/143 153/153/153
f  155/155/155 143/143/143 154/154/154
f  156/156/156 143/143/143 155/155/155
f  157/157/157 143/143/143 156/156/156
f  143/143/143 157/157/157 141/141/141
f  158/158/158 159/159/159 160/160/160
f  161/161/161 160/160/160 159/159/159
f  160/160/160 161/161/161 162/162/162
f  162/162/162 161/161/161 163/163/163
f  159/159/159 163/163/163 161/161/161
f  158/158/158 163/163/163 159/159/159
f  163/163/163 158/158/158 164/164/164
f  160/160/160 164/164/164 158/158/158
f  164/164/164 160/160/160 165/165/165
f  162/162/162 165/165/165 160/160/160
f  163/163/163 165/165/165 162/162/162
f  165/165/165 163/163/163 164/164/164

g
