# Noesis .obj export.
#
mtllib f1104.mtl
g
v  0.572341 -0.299453 -0.256437
v  0.626241 -0.142319 -0.003746
v  0.495162 -0.466522 -0.188233
v  0.498326 -0.439316 -0.003745
v  0.657859 -0.157861 -0.377567
v  0.626241 -0.142319 -0.003746
v  0.725224 -0.007575 -0.260220
v  0.824130 0.159417 -0.192077
v  0.626241 -0.142319 -0.003746
v  0.803304 0.139107 -0.003746
v  0.824130 0.159418 0.184585
v  0.626241 -0.142319 -0.003746
v  0.725224 -0.007574 0.252728
v  0.657859 -0.157860 0.370077
v  0.572341 -0.299452 0.248947
v  0.495162 -0.466521 0.180744
v  0.404768 0.092457 -0.175618
v  0.412070 0.166131 -0.110735
v  0.397403 0.064862 -0.149784
v  0.487704 0.037100 -0.154260
v  0.352251 -0.013283 -0.219938
v  0.281249 0.012622 -0.209197
v  0.354031 0.062353 -0.209254
v  0.379846 0.108575 -0.191675
v  0.344390 0.152700 -0.140532
v  0.340551 0.200351 -0.110720
v  0.588106 0.013227 -0.189070
v  0.535700 0.142739 -0.112712
v  0.414909 0.170544 -0.003746
v  0.533437 0.126494 -0.003746
v  0.535700 0.142739 0.105220
v  0.412070 0.166132 0.103243
v  0.352251 -0.013282 0.212446
v  0.397850 -0.142576 0.147448
v  0.438334 -0.050210 0.219919
v  0.475560 -0.210996 0.179173
v  0.533403 -0.096350 0.270126
v  0.588106 0.013228 0.181578
v  0.487704 0.037101 0.146768
v  0.397403 0.064862 0.142292
v  0.404768 0.092458 0.168126
v  0.654138 0.139591 0.130522
v  0.645076 0.122633 -0.003746
v  0.654138 0.139590 -0.138015
v  0.318601 -0.104096 0.142899
v  0.302398 -0.116443 0.172347
v  0.264325 -0.199157 0.104617
v  0.342112 -0.244242 0.106639
v  0.414429 -0.331376 0.130942
v  0.422114 -0.314813 -0.003745
v  0.498326 -0.439316 -0.003745
v  0.495162 -0.466521 0.180744
v  0.572341 -0.299452 0.248947
v  0.657859 -0.157860 0.370077
v  0.725224 -0.007574 0.252728
v  0.824130 0.159418 0.184585
v  0.803304 0.139107 -0.003746
v  0.824130 0.159417 -0.192077
v  0.725224 -0.007575 -0.260220
v  0.533403 -0.096351 -0.277618
v  0.657859 -0.157861 -0.377567
v  0.572341 -0.299453 -0.256437
v  0.475560 -0.210997 -0.186664
v  0.414429 -0.331377 -0.138432
v  0.495162 -0.466522 -0.188233
v  0.342112 -0.244243 -0.114130
v  0.397850 -0.142576 -0.154939
v  0.264325 -0.199157 -0.112108
v  0.438334 -0.050211 -0.227410
v  0.302398 -0.116444 -0.179838
v  0.318601 -0.104096 -0.150390
v  0.231055 -0.088208 -0.165283
v  0.199244 -0.161273 -0.102869
v  0.200661 -0.182208 -0.003745
v  0.255893 -0.215945 -0.003745
v  0.199244 -0.161272 0.095378
v  0.231055 -0.088207 0.157792
v  0.281249 0.012623 0.201705
v  0.354031 0.062354 0.201761
v  0.379846 0.108576 0.184183
v  0.344390 0.152701 0.133040
v  0.340551 0.200351 0.103227
v  0.281745 -0.191734 -0.003745
v  0.353292 -0.233351 -0.003745
v  0.350283 0.216866 -0.108863
v  0.348619 0.238394 -0.003746
v  0.420767 0.205464 -0.003746
v  0.350283 0.216866 0.101370
v  0.422535 0.181596 0.101291
v  0.340551 0.200351 0.103227
v  0.412070 0.166132 0.103243
v  0.414909 0.170544 -0.003746
v  0.422535 0.181596 -0.108784
v  0.340551 0.200351 -0.110720
v  0.412070 0.166131 -0.110735
v  0.340551 0.200351 -0.110720
v  0.344390 0.152700 -0.140532
v  0.327190 0.035934 -0.003746
v  0.379846 0.108575 -0.191675
v  0.354031 0.062353 -0.209254
v  0.281249 0.012622 -0.209197
v  0.231055 -0.088208 -0.165283
v  0.199244 -0.161273 -0.102869
v  0.200661 -0.182208 -0.003745
v  0.199244 -0.161272 0.095378
v  0.231055 -0.088207 0.157792
v  0.281249 0.012623 0.201705
v  0.354031 0.062354 0.201761
v  0.379846 0.108576 0.184183
v  0.344390 0.152701 0.133040
v  0.340551 0.200351 0.103227
v  0.350283 0.216866 0.101370
v  0.348619 0.238394 -0.003746
v  0.350283 0.216866 -0.108863

vt  0.494562 -0.739826 0.000000
vt  0.648381 -0.986269 0.000000
vt  0.321076 -0.805530 0.000000
vt  0.344490 -0.983029 0.000000
vt  0.650037 -0.621140 0.000000
vt  0.648545 -0.986271 0.000000
vt  0.804439 -0.736579 0.000000
vt  0.987158 -0.802680 0.000000
vt  0.648710 -0.986271 0.000000
vt  0.961260 -0.985865 0.000000
vt  0.987158 -0.802680 0.000000
vt  0.648578 -0.986270 0.000000
vt  0.804439 -0.736579 0.000000
vt  0.650037 -0.621140 0.000000
vt  0.494562 -0.739826 0.000000
vt  0.321076 -0.805530 0.000000
vt  0.496635 -0.163186 0.000000
vt  0.597300 -0.107569 0.000000
vt  0.510345 -0.195956 0.000000
vt  0.567067 -0.258612 0.000000
vt  0.391218 -0.250041 0.000000
vt  0.344951 -0.157647 0.000000
vt  0.405441 -0.112312 0.000000
vt  0.449209 -0.079509 0.000000
vt  0.504518 -0.047368 0.000000
vt  0.554593 -0.018268 0.000000
vt  0.643121 -0.342021 0.000000
vt  0.674868 -0.169415 0.000000
vt  0.654301 -0.011361 0.000000
vt  0.735559 -0.059194 0.000000
vt  0.674868 -0.169415 0.000000
vt  0.597300 -0.107569 0.000000
vt  0.391218 -0.250041 0.000000
vt  0.318637 -0.402594 0.000000
vt  0.451013 -0.343901 0.000000
vt  0.352364 -0.510026 0.000000
vt  0.521274 -0.459642 0.000000
vt  0.643121 -0.342021 0.000000
vt  0.567067 -0.258612 0.000000
vt  0.510345 -0.195956 0.000000
vt  0.496635 -0.163186 0.000000
vt  0.782776 -0.249379 0.000000
vt  0.834120 -0.106865 0.000000
vt  0.782776 -0.249379 0.000000
vt  0.281648 -0.322268 0.000000
vt  0.267015 -0.293565 0.000000
vt  0.158034 -0.350353 0.000000
vt  0.187282 -0.451272 0.000000
vt  0.211019 -0.581166 0.000000
vt  0.062454 -0.566754 0.000000
vt  0.046063 -0.716471 0.000000
vt  0.238934 -0.758964 0.000000
vt  0.412012 -0.657104 0.000000
vt  0.617239 -0.621905 0.000000
vt  0.752998 -0.467216 0.000000
vt  0.939953 -0.364224 0.000000
vt  0.989321 -0.164539 0.000000
vt  0.939953 -0.364224 0.000000
vt  0.752998 -0.467216 0.000000
vt  0.521274 -0.459642 0.000000
vt  0.617239 -0.621905 0.000000
vt  0.412012 -0.657104 0.000000
vt  0.352364 -0.510026 0.000000
vt  0.211019 -0.581166 0.000000
vt  0.238934 -0.758964 0.000000
vt  0.187282 -0.451272 0.000000
vt  0.318637 -0.402594 0.000000
vt  0.158034 -0.350353 0.000000
vt  0.451013 -0.343901 0.000000
vt  0.267015 -0.293565 0.000000
vt  0.281648 -0.322268 0.000000
vt  0.231746 -0.205558 0.000000
vt  0.124105 -0.253993 0.000000
vt  0.011328 -0.279642 0.000000
vt  0.035350 -0.369865 0.000000
vt  0.124105 -0.253993 0.000000
vt  0.231746 -0.205558 0.000000
vt  0.344951 -0.157647 0.000000
vt  0.405441 -0.112312 0.000000
vt  0.449209 -0.079509 0.000000
vt  0.504518 -0.047368 0.000000
vt  0.554593 -0.018268 0.000000
vt  0.045938 -0.395088 0.000000
vt  0.063133 -0.467030 0.000000
vt  0.232716 -0.978289 0.000000
vt  0.027658 -0.979093 0.000000
vt  0.025643 -0.837930 0.000000
vt  0.232716 -0.978289 0.000000
vt  0.226810 -0.812569 0.000000
vt  0.268640 -0.972102 0.000000
vt  0.246144 -0.796145 0.000000
vt  0.034227 -0.771914 0.000000
vt  0.226810 -0.812569 0.000000
vt  0.268640 -0.972102 0.000000
vt  0.246144 -0.796145 0.000000
vt  0.348018 -0.102903 0.000000
vt  0.315632 -0.127233 0.000000
vt  0.210401 -0.018484 0.000000
vt  0.279859 -0.154106 0.000000
vt  0.242003 -0.168819 0.000000
vt  0.189684 -0.189153 0.000000
vt  0.101935 -0.157843 0.000000
vt  0.031319 -0.105161 0.000000
vt  0.015825 -0.021660 0.000000
vt  0.031319 -0.105161 0.000000
vt  0.101935 -0.157843 0.000000
vt  0.189684 -0.189153 0.000000
vt  0.242003 -0.168819 0.000000
vt  0.279859 -0.154106 0.000000
vt  0.315632 -0.127233 0.000000
vt  0.348018 -0.102903 0.000000
vt  0.362258 -0.100979 0.000000
vt  0.376631 -0.018542 0.000000
vt  0.362258 -0.100979 0.000000

vn  0.302958 -0.603693 -0.737408
vn  0.885696 -0.464265 0.000001
vn  -0.008253 -0.882518 -0.470206
vn  0.094533 -0.995522 0.000002
vn  0.362155 -0.189519 -0.912648
vn  0.885696 -0.464265 0.000001
vn  0.654206 0.089957 -0.750948
vn  0.708917 0.523411 -0.472734
vn  0.885696 -0.464265 0.000001
vn  0.863341 0.504621 -0.000001
vn  0.708917 0.523414 0.472732
vn  0.885696 -0.464265 0.000001
vn  0.654206 0.089961 0.750947
vn  0.362155 -0.189514 0.912649
vn  0.302958 -0.603690 0.737411
vn  -0.008253 -0.882516 0.470210
vn  0.897655 0.011713 -0.440542
vn  0.433163 0.448578 -0.781759
vn  0.683555 0.180506 -0.707227
vn  -0.021723 0.519779 -0.854025
vn  0.012819 -0.057756 -0.998248
vn  -0.672852 0.389024 -0.629230
vn  -0.189499 0.560236 -0.806366
vn  -0.095520 0.471279 -0.876796
vn  -0.664311 0.326003 -0.672617
vn  -0.771477 0.493153 -0.402024
vn  -0.216640 0.576049 -0.788184
vn  0.044729 0.871609 -0.488156
vn  0.858508 0.512800 -0.000001
vn  0.193135 0.981172 -0.000002
vn  0.044729 0.871612 0.488152
vn  0.433163 0.448582 0.781757
vn  0.012819 -0.057752 0.998249
vn  -0.393029 -0.315299 0.863779
vn  -0.246156 0.136492 0.959571
vn  -0.580949 -0.167006 0.796622
vn  -0.472905 0.240891 0.847545
vn  -0.216641 0.576053 0.788181
vn  -0.021723 0.519783 0.854022
vn  0.683555 0.180509 0.707226
vn  0.897655 0.011716 0.440543
vn  -0.180627 0.886931 0.425120
vn  -0.026175 0.999657 -0.000002
vn  -0.180627 0.886929 -0.425124
vn  0.324499 -0.582276 0.745423
vn  0.299302 -0.581050 0.756835
vn  -0.358064 -0.765576 0.534494
vn  -0.618672 -0.602904 0.503738
vn  -0.809097 -0.394731 0.435374
vn  -0.806164 -0.591692 0.000001
vn  0.094533 -0.995522 0.000002
vn  -0.008253 -0.882516 0.470210
vn  0.302958 -0.603690 0.737411
vn  0.362155 -0.189514 0.912649
vn  0.654206 0.089961 0.750947
vn  0.708917 0.523414 0.472732
vn  0.863341 0.504621 -0.000001
vn  0.708917 0.523411 -0.472734
vn  0.654206 0.089957 -0.750948
vn  -0.472905 0.240887 -0.847546
vn  0.362155 -0.189519 -0.912648
vn  0.302958 -0.603693 -0.737408
vn  -0.580949 -0.167010 -0.796621
vn  -0.809096 -0.394733 -0.435372
vn  -0.008253 -0.882518 -0.470206
vn  -0.618672 -0.602906 -0.503735
vn  -0.393030 -0.315303 -0.863778
vn  -0.358064 -0.765578 -0.534490
vn  -0.246156 0.136487 -0.959572
vn  0.299302 -0.581053 -0.756833
vn  0.324499 -0.582280 -0.745420
vn  -0.833900 0.040616 -0.550419
vn  -0.917301 -0.236864 -0.320085
vn  -0.943753 -0.330652 0.000001
vn  0.069342 -0.997593 0.000002
vn  -0.917301 -0.236862 0.320087
vn  -0.833900 0.040619 0.550419
vn  -0.672853 0.389027 0.629228
vn  -0.189500 0.560240 0.806363
vn  -0.095520 0.471284 0.876794
vn  -0.664311 0.326006 0.672615
vn  -0.771477 0.493155 0.402022
vn  0.052781 -0.998606 0.000002
vn  -0.643885 -0.765123 0.000002
vn  -0.364184 0.728785 -0.579864
vn  -0.461363 0.887211 -0.000002
vn  0.848224 0.529637 -0.000001
vn  -0.364184 0.728788 0.579861
vn  0.794900 0.172022 0.581844
vn  -0.771477 0.493155 0.402022
vn  0.433163 0.448582 0.781757
vn  0.858508 0.512800 -0.000001
vn  0.794900 0.172018 -0.581845
vn  -0.771477 0.493153 -0.402024
vn  0.433163 0.448578 -0.781759
vn  -0.771477 0.493153 -0.402024
vn  -0.664311 0.326003 -0.672617
vn  -0.928907 0.370313 -0.000001
vn  -0.095520 0.471279 -0.876796
vn  -0.189499 0.560236 -0.806366
vn  -0.672852 0.389024 -0.629230
vn  -0.833900 0.040616 -0.550419
vn  -0.917301 -0.236864 -0.320085
vn  -0.943753 -0.330652 0.000001
vn  -0.917301 -0.236862 0.320087
vn  -0.833900 0.040619 0.550419
vn  -0.672853 0.389027 0.629228
vn  -0.189500 0.560240 0.806363
vn  -0.095520 0.471284 0.876794
vn  -0.664311 0.326006 0.672615
vn  -0.771477 0.493155 0.402022
vn  -0.364184 0.728788 0.579861
vn  -0.461363 0.887211 -0.000002
vn  -0.364184 0.728785 -0.579864

g F1104
usemtl F1104_3
f  1/1/1 2/2/2 3/3/3
f  4/4/4 3/3/3 2/2/2
f  1/1/1 5/5/5 6/6/6
f  7/7/7 6/6/6 5/5/5
f  7/7/7 8/8/8 9/9/9
f  10/10/10 9/9/9 8/8/8
f  10/10/10 11/11/11 12/12/12
f  13/13/13 12/12/12 11/11/11
f  14/14/14 12/12/12 13/13/13
f  15/15/15 12/12/12 14/14/14
f  16/16/16 12/12/12 15/15/15
f  12/12/12 16/16/16 4/4/4
f  17/17/17 18/18/18 19/19/19
f  20/20/20 19/19/19 18/18/18
f  21/21/21 19/19/19 20/20/20
f  19/19/19 21/21/21 17/17/17
f  22/22/22 23/23/23 21/21/21
f  21/21/21 23/23/23 17/17/17
f  24/24/24 17/17/17 23/23/23
f  17/17/17 24/24/24 18/18/18
f  25/25/25 18/18/18 24/24/24
f  18/18/18 25/25/25 26/26/26
f  27/27/27 20/20/20 28/28/28
f  18/18/18 28/28/28 20/20/20
f  29/29/29 28/28/28 18/18/18
f  28/28/28 29/29/29 30/30/30
f  30/30/30 29/29/29 31/31/31
f  32/32/32 31/31/31 29/29/29
f  33/33/33 34/34/34 35/35/35
f  36/36/36 35/35/35 34/34/34
f  37/37/37 35/35/35 36/36/36
f  38/38/38 35/35/35 37/37/37
f  39/39/39 35/35/35 38/38/38
f  35/35/35 39/39/39 33/33/33
f  40/40/40 33/33/33 39/39/39
f  33/33/33 40/40/40 41/41/41
f  41/41/41 40/40/40 32/32/32
f  39/39/39 32/32/32 40/40/40
f  32/32/32 39/39/39 31/31/31
f  38/38/38 31/31/31 39/39/39
f  42/42/42 31/31/31 38/38/38
f  43/43/43 31/31/31 42/42/42
f  31/31/31 43/43/43 30/30/30
f  30/30/30 43/43/43 28/28/28
f  44/44/44 28/28/28 43/43/43
f  28/28/28 44/44/44 27/27/27
f  34/34/34 33/33/33 45/45/45
f  46/46/46 45/45/45 33/33/33
f  47/47/47 45/45/45 46/46/46
f  45/45/45 47/47/47 34/34/34
f  48/48/48 34/34/34 47/47/47
f  34/34/34 48/48/48 36/36/36
f  36/36/36 48/48/48 49/49/49
f  50/50/50 49/49/49 48/48/48
f  51/51/51 49/49/49 50/50/50
f  52/52/52 49/49/49 51/51/51
f  53/53/53 49/49/49 52/52/52
f  49/49/49 53/53/53 36/36/36
f  36/36/36 53/53/53 37/37/37
f  54/54/54 37/37/37 53/53/53
f  55/55/55 37/37/37 54/54/54
f  37/37/37 55/55/55 38/38/38
f  38/38/38 55/55/55 42/42/42
f  56/56/56 42/42/42 55/55/55
f  57/57/57 42/42/42 56/56/56
f  42/42/42 57/57/57 43/43/43
f  43/43/43 57/57/57 44/44/44
f  58/58/58 44/44/44 57/57/57
f  59/59/59 44/44/44 58/58/58
f  44/44/44 59/59/59 27/27/27
f  27/27/27 59/59/59 60/60/60
f  61/61/61 60/60/60 59/59/59
f  62/62/62 60/60/60 61/61/61
f  60/60/60 62/62/62 63/63/63
f  63/63/63 62/62/62 64/64/64
f  65/65/65 64/64/64 62/62/62
f  51/51/51 64/64/64 65/65/65
f  50/50/50 64/64/64 51/51/51
f  66/66/66 64/64/64 50/50/50
f  64/64/64 66/66/66 63/63/63
f  63/63/63 66/66/66 67/67/67
f  68/68/68 67/67/67 66/66/66
f  67/67/67 21/21/21 69/69/69
f  20/20/20 69/69/69 21/21/21
f  27/27/27 69/69/69 20/20/20
f  60/60/60 69/69/69 27/27/27
f  63/63/63 69/69/69 60/60/60
f  69/69/69 63/63/63 67/67/67
f  70/70/70 21/21/21 71/71/71
f  67/67/67 71/71/71 21/21/21
f  68/68/68 71/71/71 67/67/67
f  71/71/71 68/68/68 70/70/70
f  22/22/22 21/21/21 72/72/72
f  70/70/70 72/72/72 21/21/21
f  72/72/72 70/70/70 73/73/73
f  68/68/68 73/73/73 70/70/70
f  73/73/73 68/68/68 74/74/74
f  75/75/75 74/74/74 68/68/68
f  47/47/47 74/74/74 75/75/75
f  74/74/74 47/47/47 76/76/76
f  46/46/46 76/76/76 47/47/47
f  76/76/76 46/46/46 77/77/77
f  33/33/33 77/77/77 46/46/46
f  77/77/77 33/33/33 78/78/78
f  78/78/78 33/33/33 79/79/79
f  41/41/41 79/79/79 33/33/33
f  79/79/79 41/41/41 80/80/80
f  32/32/32 80/80/80 41/41/41
f  80/80/80 32/32/32 81/81/81
f  82/82/82 81/81/81 32/32/32
f  75/75/75 68/68/68 83/83/83
f  66/66/66 83/83/83 68/68/68
f  83/83/83 66/66/66 84/84/84
f  50/50/50 84/84/84 66/66/66
f  48/48/48 84/84/84 50/50/50
f  84/84/84 48/48/48 83/83/83
f  47/47/47 83/83/83 48/48/48
f  83/83/83 47/47/47 75/75/75
f  85/85/85 86/86/86 87/87/87
f  88/88/88 87/87/87 86/86/86
f  87/87/87 88/88/88 89/89/89
f  90/90/90 89/89/89 88/88/88
f  91/91/91 89/89/89 90/90/90
f  92/92/92 89/89/89 91/91/91
f  89/89/89 92/92/92 87/87/87
f  93/93/93 87/87/87 92/92/92
f  87/87/87 93/93/93 85/85/85
f  85/85/85 93/93/93 94/94/94
f  94/94/94 93/93/93 95/95/95
f  92/92/92 95/95/95 93/93/93
f  96/96/96 97/97/97 98/98/98
f  99/99/99 98/98/98 97/97/97
f  100/100/100 98/98/98 99/99/99
f  101/101/101 98/98/98 100/100/100
f  102/102/102 98/98/98 101/101/101
f  103/103/103 98/98/98 102/102/102
f  104/104/104 98/98/98 103/103/103
f  105/105/105 98/98/98 104/104/104
f  106/106/106 98/98/98 105/105/105
f  107/107/107 98/98/98 106/106/106
f  108/108/108 98/98/98 107/107/107
f  109/109/109 98/98/98 108/108/108
f  110/110/110 98/98/98 109/109/109
f  111/111/111 98/98/98 110/110/110
f  112/112/112 98/98/98 111/111/111
f  113/113/113 98/98/98 112/112/112
f  114/114/114 98/98/98 113/113/113
f  98/98/98 114/114/114 96/96/96

g
