# Noesis .obj export.
#
mtllib f1112.mtl
g
v  0.410245 -0.125085 -0.159424
v  0.437559 -0.184972 0.000028
v  0.276100 -0.140799 -0.155952
v  0.279382 -0.177170 0.000028
v  0.306578 -0.058736 -0.294246
v  0.413841 -0.046625 -0.245737
v  0.328847 0.090920 -0.278935
v  0.423854 0.081705 -0.222083
v  0.372633 0.203715 -0.218327
v  0.464144 0.180949 -0.173549
v  0.467925 0.205884 0.000027
v  0.377860 0.262022 0.000027
v  0.372633 0.203716 0.218381
v  0.464144 0.180950 0.173603
v  0.423854 0.081706 0.222138
v  0.328848 0.090921 0.278990
v  0.413841 -0.046624 0.245792
v  0.306578 -0.058734 0.294302
v  0.410245 -0.125085 0.159479
v  0.276100 -0.140798 0.156008
v  0.492144 -0.104563 -0.153255
v  0.478310 -0.036752 -0.191767
v  0.506145 0.033560 -0.175931
v  0.562467 0.073876 -0.122983
v  0.587909 0.133089 0.000027
v  0.562467 0.073876 0.123038
v  0.506145 0.033560 0.175986
v  0.478310 -0.036752 0.191822
v  0.492144 -0.104562 0.153310
v  0.556052 -0.138757 0.000028
v  0.612153 -0.015244 0.127414
v  0.548512 -0.052840 0.162338
v  0.568617 -0.033463 0.000027
v  0.676622 0.009551 0.000027
v  0.612153 -0.015245 -0.127359
v  0.548512 -0.052840 -0.162283
v  0.308571 0.083620 -0.277115
v  0.278943 -0.031770 -0.271926
v  0.407022 0.049429 0.000027
v  0.250798 -0.132613 -0.158355
v  0.257894 -0.082649 -0.349555
v  0.340105 0.081262 -0.393387
v  0.321658 -0.090768 -0.424179
v  0.244293 -0.169057 -0.308392
v  0.236096 -0.205274 -0.178017
v  0.262533 -0.268715 -0.186349
v  0.243150 -0.228948 0.000028
v  0.262188 -0.278316 0.000028
v  0.262533 -0.268714 0.186405
v  0.236096 -0.205273 0.178073
v  0.244293 -0.169056 0.308448
v  0.250798 -0.132612 0.158411
v  0.257894 -0.082648 0.349611
v  0.321658 -0.090767 0.424234
v  0.340105 0.081264 0.393442
v  0.423657 0.076401 0.466615
v  0.425956 0.196884 0.462246
v  0.319801 -0.353210 -0.227551
v  0.320595 -0.347417 0.000028
v  0.319801 -0.353209 0.227608
v  0.304828 -0.269461 0.374738
v  0.293252 -0.189169 0.413058
v  0.359152 -0.101540 0.496339
v  0.472328 0.070217 0.548321
v  0.473016 0.177196 0.582867
v  0.505837 0.230857 0.536484
v  0.381344 0.192919 0.372917
v  0.308571 0.083621 0.277169
v  0.278943 -0.031769 0.271981
v  0.328516 0.182566 0.199021
v  0.459628 0.272580 0.400405
v  0.559156 0.298334 0.449849
v  0.437061 0.296505 0.197795
v  0.349589 0.267844 0.000027
v  0.608417 0.373450 0.333260
v  0.520746 0.337858 0.130345
v  0.532491 0.323623 0.292074
v  0.415332 0.329765 0.000027
v  0.492795 0.375364 0.000027
v  0.520746 0.337857 -0.130292
v  0.437061 0.296504 -0.197742
v  0.328516 0.182565 -0.198967
v  0.459628 0.272579 -0.400351
v  0.381344 0.192917 -0.372863
v  0.505837 0.230855 -0.536430
v  0.559156 0.298332 -0.449796
v  0.425955 0.196882 -0.462192
v  0.473015 0.177193 -0.582813
v  0.472328 0.070214 -0.548266
v  0.423657 0.076399 -0.466560
v  0.359152 -0.101542 -0.496284
v  0.293252 -0.189171 -0.413002
v  0.304827 -0.269463 -0.374682
v  0.608417 0.373449 -0.333207
v  0.532491 0.323622 -0.292021
v  0.608417 0.373449 -0.333207
v  0.520746 0.337857 -0.130292
v  0.532491 0.323622 -0.292021
v  0.441318 0.298405 -0.197671
v  0.559156 0.298332 -0.449796
v  0.372633 0.203716 0.218381
v  0.377860 0.262022 0.000027
v  0.441318 0.298406 0.197725
v  0.414034 0.320295 0.000027
v  0.520746 0.337858 0.130345
v  0.492795 0.375364 0.000027
v  0.372633 0.203715 -0.218327
v  0.459628 0.272579 -0.400351
v  0.505837 0.230855 -0.536430
v  0.385846 0.192378 -0.372863
v  0.328847 0.090920 -0.278935
v  0.356722 0.086987 -0.397434
v  0.312468 -0.078691 -0.385938
v  0.306578 -0.058736 -0.294246
v  0.276100 -0.140799 -0.155952
v  0.304827 -0.269463 -0.374682
v  0.293252 -0.189171 -0.413002
v  0.269813 -0.172707 -0.350047
v  0.334672 -0.092076 -0.433175
v  0.423743 0.076406 -0.466560
v  0.425955 0.196882 -0.462192
v  0.473015 0.177193 -0.582813
v  0.472328 0.070214 -0.548266
v  0.359152 -0.101542 -0.496284
v  0.245164 -0.212372 -0.176568
v  0.279382 -0.177170 0.000028
v  0.253405 -0.238254 0.000028
v  0.245164 -0.212371 0.176623
v  0.276100 -0.140798 0.156008
v  0.269813 -0.172706 0.350102
v  0.312468 -0.078689 0.385994
v  0.306578 -0.058734 0.294302
v  0.328848 0.090921 0.278990
v  0.356722 0.086989 0.397489
v  0.334672 -0.092075 0.433231
v  0.423743 0.076408 0.466615
v  0.472328 0.070217 0.548321
v  0.359152 -0.101540 0.496339
v  0.293252 -0.189169 0.413058
v  0.304828 -0.269461 0.374738
v  0.262739 -0.269051 0.186369
v  0.264393 -0.280704 0.000028
v  0.319801 -0.353209 0.227608
v  0.473016 0.177196 0.582867
v  0.425956 0.196884 0.462246
v  0.385846 0.192380 0.372917
v  0.459628 0.272580 0.400405
v  0.559156 0.298334 0.449849
v  0.505837 0.230857 0.536484
v  0.608417 0.373450 0.333260
v  0.532491 0.323624 0.292074
v  0.320595 -0.347417 0.000028
v  0.319801 -0.353210 -0.227551
v  0.262739 -0.269052 -0.186313
v  0.261782 -0.167406 0.000028

vt  0.657909 -0.477388 0.000000
vt  0.495315 -0.520778 0.000000
vt  0.704087 -0.604491 0.000000
vt  0.564702 -0.650838 0.000000
vt  0.845931 -0.489937 0.000000
vt  0.768251 -0.398548 0.000000
vt  0.931522 -0.368811 0.000000
vt  0.843993 -0.306623 0.000000
vt  0.977478 -0.209463 0.000000
vt  0.878701 -0.184426 0.000000
vt  0.873528 -0.021933 0.000000
vt  0.984663 -0.013819 0.000000
vt  0.977478 -0.209463 0.000000
vt  0.878701 -0.184426 0.000000
vt  0.843993 -0.306623 0.000000
vt  0.931522 -0.368811 0.000000
vt  0.768251 -0.398548 0.000000
vt  0.845931 -0.489937 0.000000
vt  0.657909 -0.477388 0.000000
vt  0.704087 -0.604491 0.000000
vt  0.609921 -0.351576 0.000000
vt  0.700566 -0.329387 0.000000
vt  0.738682 -0.245819 0.000000
vt  0.733829 -0.169098 0.000000
vt  0.737319 -0.031873 0.000000
vt  0.733829 -0.169098 0.000000
vt  0.738682 -0.245819 0.000000
vt  0.700566 -0.329387 0.000000
vt  0.609921 -0.351576 0.000000
vt  0.470530 -0.332978 0.000000
vt  0.638113 -0.211466 0.000000
vt  0.645188 -0.286605 0.000000
vt  0.513324 -0.204364 0.000000
vt  0.577962 -0.093291 0.000000
vt  0.638113 -0.211466 0.000000
vt  0.645188 -0.286605 0.000000
vt  0.274366 -0.341981 0.000000
vt  0.322155 -0.427390 0.000000
vt  0.105155 -0.444317 0.000000
vt  0.302743 -0.548163 0.000000
vt  0.346737 -0.426346 0.000000
vt  0.306132 -0.325604 0.000000
vt  0.390668 -0.391829 0.000000
vt  0.392610 -0.514616 0.000000
vt  0.330615 -0.583065 0.000000
vt  0.373413 -0.637820 0.000000
vt  0.259776 -0.657566 0.000000
vt  0.288928 -0.709260 0.000000
vt  0.373413 -0.637820 0.000000
vt  0.330615 -0.583065 0.000000
vt  0.392610 -0.514616 0.000000
vt  0.302743 -0.548163 0.000000
vt  0.346737 -0.426346 0.000000
vt  0.390668 -0.391829 0.000000
vt  0.306132 -0.325604 0.000000
vt  0.375070 -0.270994 0.000000
vt  0.318700 -0.206275 0.000000
vt  0.444001 -0.694240 0.000000
vt  0.332886 -0.773310 0.000000
vt  0.444001 -0.694240 0.000000
vt  0.465807 -0.601194 0.000000
vt  0.475953 -0.499594 0.000000
vt  0.430932 -0.363210 0.000000
vt  0.423804 -0.238707 0.000000
vt  0.387697 -0.165276 0.000000
vt  0.329813 -0.098184 0.000000
vt  0.243479 -0.236509 0.000000
vt  0.274366 -0.341981 0.000000
vt  0.322155 -0.427390 0.000000
vt  0.192132 -0.267871 0.000000
vt  0.243100 -0.139870 0.000000
vt  0.262157 -0.050296 0.000000
vt  0.150606 -0.172244 0.000000
vt  0.058338 -0.269596 0.000000
vt  0.175031 -0.005681 0.000000
vt  0.086874 -0.093432 0.000000
vt  0.166762 -0.074381 0.000000
vt  0.034107 -0.200853 0.000000
vt  0.011457 -0.124122 0.000000
vt  0.086874 -0.093432 0.000000
vt  0.150606 -0.172244 0.000000
vt  0.192132 -0.267871 0.000000
vt  0.243100 -0.139870 0.000000
vt  0.243479 -0.236509 0.000000
vt  0.329813 -0.098184 0.000000
vt  0.262157 -0.050296 0.000000
vt  0.318700 -0.206275 0.000000
vt  0.387697 -0.165276 0.000000
vt  0.423804 -0.238707 0.000000
vt  0.375070 -0.270994 0.000000
vt  0.430932 -0.363210 0.000000
vt  0.475953 -0.499594 0.000000
vt  0.465807 -0.601194 0.000000
vt  0.175031 -0.005681 0.000000
vt  0.166762 -0.074381 0.000000
vt  0.988454 -0.804776 0.000000
vt  0.923181 -0.677711 0.000000
vt  0.916126 -0.771611 0.000000
vt  0.818094 -0.720598 0.000000
vt  0.909423 -0.884186 0.000000
vt  0.716976 -0.734520 0.000000
vt  0.766761 -0.577982 0.000000
vt  0.818094 -0.720598 0.000000
vt  0.836465 -0.579907 0.000000
vt  0.923181 -0.677711 0.000000
vt  0.915413 -0.584393 0.000000
vt  0.716976 -0.734520 0.000000
vt  0.817315 -0.831697 0.000000
vt  0.835700 -0.941886 0.000000
vt  0.721701 -0.802777 0.000000
vt  0.596179 -0.804143 0.000000
vt  0.604379 -0.849031 0.000000
vt  0.470287 -0.866522 0.000000
vt  0.476935 -0.837939 0.000000
vt  0.329019 -0.791670 0.000000
vt  0.245228 -0.969272 0.000000
vt  0.357190 -0.994829 0.000000
vt  0.355150 -0.898695 0.000000
vt  0.497119 -0.919854 0.000000
vt  0.630344 -0.930946 0.000000
vt  0.721094 -0.892013 0.000000
vt  0.743296 -0.981695 0.000000
vt  0.651639 -0.995106 0.000000
vt  0.515642 -0.966542 0.000000
vt  0.281526 -0.821460 0.000000
vt  0.243585 -0.700213 0.000000
vt  0.203336 -0.725576 0.000000
vt  0.281526 -0.821460 0.000000
vt  0.329019 -0.791670 0.000000
vt  0.355150 -0.898695 0.000000
vt  0.470287 -0.866522 0.000000
vt  0.476935 -0.837939 0.000000
vt  0.596179 -0.804143 0.000000
vt  0.604379 -0.849031 0.000000
vt  0.497119 -0.919854 0.000000
vt  0.630344 -0.930946 0.000000
vt  0.651639 -0.995106 0.000000
vt  0.515642 -0.966542 0.000000
vt  0.357190 -0.994829 0.000000
vt  0.245228 -0.969272 0.000000
vt  0.217963 -0.859778 0.000000
vt  0.147379 -0.752319 0.000000
vt  0.142649 -0.929738 0.000000
vt  0.743296 -0.981695 0.000000
vt  0.721094 -0.892013 0.000000
vt  0.721701 -0.802777 0.000000
vt  0.817315 -0.831697 0.000000
vt  0.909423 -0.884186 0.000000
vt  0.835700 -0.941886 0.000000
vt  0.988454 -0.804776 0.000000
vt  0.916126 -0.771611 0.000000
vt  0.070857 -0.791309 0.000000
vt  0.142649 -0.929738 0.000000
vt  0.217963 -0.859778 0.000000
vt  0.236665 -0.623933 0.000000

vn  0.203074 -0.852154 -0.482280
vn  0.202518 -0.979279 0.000002
vn  0.635007 -0.738805 -0.225686
vn  0.569053 -0.822301 0.000002
vn  0.900133 -0.333640 -0.280079
vn  0.500324 -0.294981 -0.814041
vn  0.923354 -0.128635 -0.361761
vn  0.531688 0.154474 -0.832734
vn  0.954359 -0.148660 -0.259033
vn  0.547860 0.640918 -0.537656
vn  0.496542 0.868013 -0.000002
vn  0.995328 0.096547 -0.000000
vn  0.954360 -0.148659 0.259033
vn  0.547860 0.640920 0.537653
vn  0.531688 0.154477 0.832733
vn  0.923354 -0.128634 0.361761
vn  0.500324 -0.294978 0.814042
vn  0.900133 -0.333639 0.280080
vn  0.203074 -0.852152 0.482284
vn  0.635007 -0.738804 0.225689
vn  0.396026 -0.730396 -0.556494
vn  0.529426 -0.125285 -0.839054
vn  0.514708 0.119526 -0.848993
vn  0.706035 0.400577 -0.583998
vn  0.746200 0.665722 -0.000002
vn  0.706035 0.400579 0.583996
vn  0.514709 0.119530 0.848992
vn  0.529426 -0.125282 0.839054
vn  0.396026 -0.730393 0.556497
vn  0.742165 -0.670217 0.000001
vn  0.801411 -0.293649 0.521067
vn  0.598712 -0.365810 0.712549
vn  0.771923 -0.635716 0.000001
vn  0.985409 -0.170203 -0.000000
vn  0.801411 -0.293651 -0.521066
vn  0.598712 -0.365813 -0.712548
vn  -0.959074 0.283052 0.007693
vn  -0.933661 0.319683 0.161495
vn  -0.987057 0.160369 -0.000000
vn  -0.933498 0.337657 0.120700
vn  -0.922626 0.123840 -0.365274
vn  -0.813402 0.286274 -0.506384
vn  -0.804068 0.199344 -0.560122
vn  -0.970071 -0.093437 -0.224125
vn  -0.994413 -0.102209 -0.026372
vn  -0.886137 -0.453413 -0.095804
vn  -0.997698 -0.067813 0.000000
vn  -0.866238 -0.499632 0.000001
vn  -0.886137 -0.453413 0.095806
vn  -0.994413 -0.102208 0.026373
vn  -0.970071 -0.093436 0.224126
vn  -0.933498 0.337657 -0.120701
vn  -0.922626 0.123841 0.365274
vn  -0.804067 0.199346 0.560122
vn  -0.813402 0.286276 0.506383
vn  -0.766203 0.170215 0.619644
vn  -0.761974 0.495820 0.416602
vn  0.373311 -0.552175 -0.745480
vn  0.654283 -0.756249 0.000001
vn  0.373361 -0.552187 0.745447
vn  0.385032 -0.763904 0.517880
vn  0.075223 -0.620690 0.780440
vn  0.167915 -0.515372 0.840355
vn  0.606754 0.500415 0.617603
vn  -0.042420 0.245065 -0.968578
vn  0.541415 0.072989 0.837581
vn  -0.804845 0.516832 0.291734
vn  -0.959074 0.283052 -0.007694
vn  -0.933661 0.319682 -0.161496
vn  -0.949522 0.313688 -0.002741
vn  -0.557115 0.782431 0.278253
vn  -0.727952 -0.150080 -0.669001
vn  -0.544515 0.820776 0.172715
vn  -0.920959 0.389660 -0.000001
vn  -0.771526 -0.609665 -0.181814
vn  0.842562 0.184909 0.505864
vn  -0.519500 0.836838 0.172690
vn  -0.566174 0.824286 -0.000002
vn  0.706053 0.708159 -0.000002
vn  0.842563 0.184913 -0.505860
vn  -0.544515 0.820775 -0.172718
vn  -0.949522 0.313688 0.002740
vn  -0.557116 0.782429 -0.278256
vn  -0.804846 0.516831 -0.291736
vn  0.541382 0.072959 -0.837605
vn  -0.727815 -0.150493 0.669057
vn  -0.761975 0.495818 -0.416603
vn  -0.099856 0.370218 0.923562
vn  0.606748 0.500420 -0.617606
vn  -0.766204 0.170212 -0.619645
vn  0.167915 -0.515375 -0.840353
vn  0.075222 -0.620691 -0.780438
vn  0.385031 -0.763907 -0.517877
vn  -0.785848 -0.592921 0.175749
vn  -0.519501 0.836837 -0.172693
vn  -0.785848 -0.592921 0.175749
vn  0.842563 0.184913 -0.505860
vn  0.520891 -0.835869 0.173194
vn  0.596390 -0.788819 0.148607
vn  -0.727815 -0.150493 0.669057
vn  0.954360 -0.148659 0.259033
vn  0.995328 0.096547 -0.000000
vn  0.596390 -0.788820 -0.148604
vn  0.693184 -0.720760 0.000002
vn  0.842562 0.184909 0.505864
vn  0.706053 0.708159 -0.000002
vn  0.954359 -0.148660 -0.259033
vn  0.578084 -0.769995 0.270048
vn  0.541382 0.072959 -0.837605
vn  0.838152 -0.489843 0.239907
vn  0.923354 -0.128635 -0.361761
vn  0.861778 -0.235479 0.449320
vn  0.921607 -0.235204 0.308740
vn  0.900133 -0.333640 -0.280079
vn  0.635007 -0.738805 -0.225686
vn  0.385031 -0.763907 -0.517877
vn  0.075222 -0.620691 -0.780438
vn  0.972167 -0.087395 0.217380
vn  0.848447 -0.282186 0.447782
vn  0.785108 -0.163380 0.597421
vn  0.769590 -0.509667 0.384670
vn  -0.099856 0.370218 0.923562
vn  0.606748 0.500420 -0.617606
vn  0.167915 -0.515375 -0.840353
vn  0.998036 -0.050408 0.037201
vn  0.569053 -0.822301 0.000002
vn  0.999200 -0.040000 0.000000
vn  0.998036 -0.050408 -0.037201
vn  0.635007 -0.738804 0.225689
vn  0.972166 -0.087395 -0.217381
vn  0.921606 -0.235205 -0.308739
vn  0.900133 -0.333639 0.280080
vn  0.923354 -0.128634 0.361761
vn  0.861778 -0.235481 -0.449319
vn  0.848447 -0.282187 -0.447781
vn  0.785107 -0.163383 -0.597421
vn  0.606754 0.500415 0.617603
vn  0.167915 -0.515372 0.840355
vn  0.075223 -0.620690 0.780440
vn  0.385032 -0.763904 0.517880
vn  0.910115 0.402275 -0.099327
vn  0.891988 0.452058 -0.000001
vn  0.373361 -0.552187 0.745447
vn  -0.042420 0.245065 -0.968578
vn  0.769589 -0.509669 -0.384668
vn  0.838152 -0.489844 -0.239905
vn  0.578084 -0.769996 -0.270045
vn  -0.727952 -0.150080 -0.669001
vn  0.541415 0.072989 0.837581
vn  -0.771526 -0.609665 -0.181814
vn  0.520890 -0.835870 -0.173191
vn  0.654283 -0.756249 0.000001
vn  0.373311 -0.552175 -0.745480
vn  0.910115 0.402276 0.099324
vn  -0.917412 0.397939 -0.000001

g F1112
usemtl F1112_3
f  1/1/1 2/2/2 3/3/3
f  4/4/4 3/3/3 2/2/2
f  5/5/5 1/1/1 3/3/3
f  1/1/1 5/5/5 6/6/6
f  7/7/7 6/6/6 5/5/5
f  6/6/6 7/7/7 8/8/8
f  9/9/9 8/8/8 7/7/7
f  8/8/8 9/9/9 10/10/10
f  10/10/10 9/9/9 11/11/11
f  12/12/12 11/11/11 9/9/9
f  13/13/13 11/11/11 12/12/12
f  11/11/11 13/13/13 14/14/14
f  14/14/14 13/13/13 15/15/15
f  16/16/16 15/15/15 13/13/13
f  15/15/15 16/16/16 17/17/17
f  18/18/18 17/17/17 16/16/16
f  17/17/17 18/18/18 19/19/19
f  20/20/20 19/19/19 18/18/18
f  19/19/19 20/20/20 2/2/2
f  4/4/4 2/2/2 20/20/20
f  6/6/6 21/21/21 1/1/1
f  21/21/21 6/6/6 22/22/22
f  8/8/8 22/22/22 6/6/6
f  22/22/22 8/8/8 23/23/23
f  10/10/10 23/23/23 8/8/8
f  23/23/23 10/10/10 24/24/24
f  24/24/24 10/10/10 25/25/25
f  11/11/11 25/25/25 10/10/10
f  14/14/14 25/25/25 11/11/11
f  25/25/25 14/14/14 26/26/26
f  26/26/26 14/14/14 27/27/27
f  15/15/15 27/27/27 14/14/14
f  27/27/27 15/15/15 28/28/28
f  17/17/17 28/28/28 15/15/15
f  28/28/28 17/17/17 29/29/29
f  19/19/19 29/29/29 17/17/17
f  29/29/29 19/19/19 30/30/30
f  2/2/2 30/30/30 19/19/19
f  26/26/26 27/27/27 31/31/31
f  28/28/28 31/31/31 27/27/27
f  31/31/31 28/28/28 32/32/32
f  29/29/29 32/32/32 28/28/28
f  30/30/30 32/32/32 29/29/29
f  33/33/33 32/32/32 30/30/30
f  32/32/32 33/33/33 31/31/31
f  34/34/34 31/31/31 33/33/33
f  25/25/25 31/31/31 34/34/34
f  31/31/31 25/25/25 26/26/26
f  24/24/24 25/25/25 35/35/35
f  34/34/34 35/35/35 25/25/25
f  33/33/33 35/35/35 34/34/34
f  35/35/35 33/33/33 36/36/36
f  30/30/30 36/36/36 33/33/33
f  21/21/21 36/36/36 30/30/30
f  22/22/22 36/36/36 21/21/21
f  36/36/36 22/22/22 35/35/35
f  23/23/23 35/35/35 22/22/22
f  35/35/35 23/23/23 24/24/24
f  21/21/21 30/30/30 1/1/1
f  2/2/2 1/1/1 30/30/30
f  37/37/37 38/38/38 39/39/39
f  39/39/39 38/38/38 40/40/40
f  41/41/41 40/40/40 38/38/38
f  38/38/38 37/37/37 41/41/41
f  42/42/42 41/41/41 37/37/37
f  43/43/43 41/41/41 42/42/42
f  44/44/44 41/41/41 43/43/43
f  41/41/41 44/44/44 40/40/40
f  40/40/40 44/44/44 45/45/45
f  46/46/46 45/45/45 44/44/44
f  45/45/45 46/46/46 47/47/47
f  48/48/48 47/47/47 46/46/46
f  49/49/49 47/47/47 48/48/48
f  47/47/47 49/49/49 50/50/50
f  51/51/51 50/50/50 49/49/49
f  50/50/50 51/51/51 52/52/52
f  52/52/52 51/51/51 53/53/53
f  54/54/54 53/53/53 51/51/51
f  53/53/53 54/54/54 55/55/55
f  56/56/56 55/55/55 54/54/54
f  57/57/57 55/55/55 56/56/56
f  46/46/46 58/58/58 48/48/48
f  59/59/59 48/48/48 58/58/58
f  60/60/60 48/48/48 59/59/59
f  48/48/48 60/60/60 49/49/49
f  61/61/61 49/49/49 60/60/60
f  49/49/49 61/61/61 51/51/51
f  62/62/62 51/51/51 61/61/61
f  51/51/51 62/62/62 54/54/54
f  63/63/63 54/54/54 62/62/62
f  64/64/64 54/54/54 63/63/63
f  54/54/54 64/64/64 56/56/56
f  56/56/56 64/64/64 57/57/57
f  65/65/65 57/57/57 64/64/64
f  65/65/65 66/66/66 57/57/57
f  67/67/67 57/57/57 66/66/66
f  57/57/57 67/67/67 55/55/55
f  68/68/68 55/55/55 67/67/67
f  55/55/55 68/68/68 53/53/53
f  69/69/69 53/53/53 68/68/68
f  53/53/53 69/69/69 52/52/52
f  52/52/52 69/69/69 39/39/39
f  68/68/68 39/39/39 69/69/69
f  39/39/39 68/68/68 70/70/70
f  67/67/67 70/70/70 68/68/68
f  70/70/70 67/67/67 71/71/71
f  66/66/66 71/71/71 67/67/67
f  72/72/72 71/71/71 66/66/66
f  73/73/73 71/71/71 72/72/72
f  71/71/71 73/73/73 70/70/70
f  74/74/74 70/70/70 73/73/73
f  70/70/70 74/74/74 39/39/39
f  75/75/75 76/76/76 77/77/77
f  73/73/73 77/77/77 76/76/76
f  72/72/72 77/77/77 73/73/73
f  77/77/77 72/72/72 75/75/75
f  73/73/73 76/76/76 78/78/78
f  79/79/79 78/78/78 76/76/76
f  80/80/80 78/78/78 79/79/79
f  78/78/78 80/80/80 81/81/81
f  73/73/73 78/78/78 74/74/74
f  81/81/81 74/74/74 78/78/78
f  74/74/74 81/81/81 82/82/82
f  83/83/83 82/82/82 81/81/81
f  82/82/82 83/83/83 84/84/84
f  84/84/84 83/83/83 85/85/85
f  85/85/85 83/83/83 86/86/86
f  81/81/81 86/86/86 83/83/83
f  74/74/74 82/82/82 39/39/39
f  39/39/39 82/82/82 37/37/37
f  84/84/84 37/37/37 82/82/82
f  37/37/37 84/84/84 42/42/42
f  42/42/42 84/84/84 87/87/87
f  85/85/85 87/87/87 84/84/84
f  88/88/88 87/87/87 85/85/85
f  89/89/89 87/87/87 88/88/88
f  90/90/90 87/87/87 89/89/89
f  87/87/87 90/90/90 42/42/42
f  42/42/42 90/90/90 43/43/43
f  89/89/89 43/43/43 90/90/90
f  91/91/91 43/43/43 89/89/89
f  92/92/92 43/43/43 91/91/91
f  43/43/43 92/92/92 44/44/44
f  93/93/93 44/44/44 92/92/92
f  44/44/44 93/93/93 46/46/46
f  58/58/58 46/46/46 93/93/93
f  94/94/94 86/86/86 95/95/95
f  81/81/81 95/95/95 86/86/86
f  80/80/80 95/95/95 81/81/81
f  95/95/95 80/80/80 94/94/94
f  96/96/96 97/97/97 98/98/98
f  99/99/99 98/98/98 97/97/97
f  100/100/100 98/98/98 99/99/99
f  98/98/98 100/100/100 96/96/96
f  101/101/101 102/102/102 103/103/103
f  104/104/104 103/103/103 102/102/102
f  103/103/103 104/104/104 105/105/105
f  105/105/105 104/104/104 106/106/106
f  106/106/106 104/104/104 97/97/97
f  97/97/97 104/104/104 99/99/99
f  102/102/102 99/99/99 104/104/104
f  107/107/107 99/99/99 102/102/102
f  108/108/108 99/99/99 107/107/107
f  99/99/99 108/108/108 100/100/100
f  100/100/100 108/108/108 109/109/109
f  109/109/109 108/108/108 110/110/110
f  107/107/107 110/110/110 108/108/108
f  111/111/111 110/110/110 107/107/107
f  110/110/110 111/111/111 112/112/112
f  112/112/112 111/111/111 113/113/113
f  114/114/114 113/113/113 111/111/111
f  113/113/113 114/114/114 115/115/115
f  116/116/116 117/117/117 118/118/118
f  119/119/119 118/118/118 117/117/117
f  118/118/118 119/119/119 113/113/113
f  113/113/113 119/119/119 112/112/112
f  120/120/120 112/112/112 119/119/119
f  121/121/121 112/112/112 120/120/120
f  112/112/112 121/121/121 110/110/110
f  110/110/110 121/121/121 109/109/109
f  109/109/109 121/121/121 122/122/122
f  122/122/122 121/121/121 123/123/123
f  120/120/120 123/123/123 121/121/121
f  119/119/119 123/123/123 120/120/120
f  123/123/123 119/119/119 124/124/124
f  117/117/117 124/124/124 119/119/119
f  113/113/113 115/115/115 118/118/118
f  118/118/118 115/115/115 125/125/125
f  126/126/126 125/125/125 115/115/115
f  125/125/125 126/126/126 127/127/127
f  127/127/127 126/126/126 128/128/128
f  129/129/129 128/128/128 126/126/126
f  128/128/128 129/129/129 130/130/130
f  130/130/130 129/129/129 131/131/131
f  132/132/132 131/131/131 129/129/129
f  133/133/133 131/131/131 132/132/132
f  134/134/134 131/131/131 133/133/133
f  131/131/131 134/134/134 135/135/135
f  136/136/136 135/135/135 134/134/134
f  137/137/137 135/135/135 136/136/136
f  138/138/138 135/135/135 137/137/137
f  139/139/139 135/135/135 138/138/138
f  130/130/130 135/135/135 139/139/139
f  135/135/135 130/130/130 131/131/131
f  139/139/139 140/140/140 130/130/130
f  141/141/141 130/130/130 140/140/140
f  130/130/130 141/141/141 128/128/128
f  128/128/128 141/141/141 127/127/127
f  127/127/127 141/141/141 142/142/142
f  142/142/142 141/141/141 143/143/143
f  140/140/140 143/143/143 141/141/141
f  144/144/144 137/137/137 145/145/145
f  136/136/136 145/145/145 137/137/137
f  134/134/134 145/145/145 136/136/136
f  145/145/145 134/134/134 146/146/146
f  133/133/133 146/146/146 134/134/134
f  101/101/101 146/146/146 133/133/133
f  146/146/146 101/101/101 147/147/147
f  103/103/103 147/147/147 101/101/101
f  148/148/148 147/147/147 103/103/103
f  149/149/149 147/147/147 148/148/148
f  147/147/147 149/149/149 146/146/146
f  146/146/146 149/149/149 145/145/145
f  144/144/144 145/145/145 149/149/149
f  150/150/150 148/148/148 151/151/151
f  103/103/103 151/151/151 148/148/148
f  105/105/105 151/151/151 103/103/103
f  151/151/151 105/105/105 150/150/150
f  143/143/143 152/152/152 142/142/142
f  153/153/153 142/142/142 152/152/152
f  154/154/154 142/142/142 153/153/153
f  142/142/142 154/154/154 127/127/127
f  127/127/127 154/154/154 125/125/125
f  125/125/125 154/154/154 118/118/118
f  118/118/118 154/154/154 116/116/116
f  153/153/153 116/116/116 154/154/154
f  39/39/39 40/40/40 155/155/155
f  45/45/45 155/155/155 40/40/40
f  47/47/47 155/155/155 45/45/45
f  50/50/50 155/155/155 47/47/47
f  52/52/52 155/155/155 50/50/50
f  155/155/155 52/52/52 39/39/39

g
