# Noesis .obj export.
#
mtllib f1132.mtl
g
v  0.582493 -0.296106 -0.130889
v  0.662049 -0.238747 -0.000100
v  0.672883 -0.351460 -0.000100
v  0.662049 -0.238747 -0.000100
v  0.582493 -0.296106 0.130688
v  0.672883 -0.351460 -0.000100
v  0.582493 -0.296106 0.130688
v  0.672883 -0.351460 -0.000100
v  0.658607 -0.299495 0.130688
v  0.748997 -0.354848 -0.000100
v  0.582493 -0.296106 -0.130889
v  0.658607 -0.299494 -0.130889
v  0.672883 -0.351460 -0.000100
v  0.748997 -0.354848 -0.000100
v  0.582493 -0.296106 0.130688
v  0.582493 -0.296106 0.130688
v  0.658607 -0.299495 0.130688
v  0.672883 -0.351460 -0.000100
v  0.748997 -0.354848 -0.000100
v  0.672883 -0.351460 -0.000100
v  0.748997 -0.354848 -0.000100
v  0.658607 -0.299494 -0.130889
v  0.582493 -0.296106 -0.130889
v  0.582493 -0.296106 -0.130889
v  0.672883 -0.351460 -0.000100
v  0.545401 -0.334163 -0.000100
v  0.582493 -0.296106 0.130688
v  0.425090 -0.204588 -0.229846
v  0.420378 -0.263396 -0.131722
v  0.417379 -0.306931 -0.000100
v  0.420378 -0.263397 0.131521
v  0.425090 -0.204589 0.229645
v  0.603570 -0.189073 0.146443
v  0.662049 -0.238747 -0.000100
v  0.634581 -0.102292 0.166026
v  0.530793 -0.069194 0.240925
v  0.604440 0.017135 0.211581
v  0.546133 0.075108 0.273969
v  0.479724 -0.030591 0.303229
v  0.441539 -0.139628 0.289534
v  0.388226 -0.111677 -0.211524
v  0.441539 -0.139627 -0.289734
v  0.358816 -0.173760 -0.175172
v  0.352335 -0.186308 -0.120144
v  0.343909 -0.258226 -0.000100
v  0.352335 -0.186309 0.119944
v  0.358816 -0.173761 0.174972
v  0.388226 -0.111677 0.211324
v  0.431097 -0.012564 0.237894
v  0.470498 0.088359 0.220984
v  0.488075 0.151866 0.103075
v  0.416033 0.165177 0.091069
v  0.431097 -0.012563 -0.238094
v  0.358462 0.016107 -0.209576
v  0.318775 -0.082522 -0.196109
v  0.284170 -0.163652 -0.117876
v  0.271732 -0.191726 -0.000100
v  0.284170 -0.163652 0.117676
v  0.318775 -0.082523 0.195909
v  0.358462 0.016106 0.209377
v  0.396786 0.110971 0.168226
v  0.270195 -0.007179 0.196980
v  0.250080 -0.054949 0.180055
v  0.220134 -0.128960 0.107172
v  0.208061 -0.157181 -0.000100
v  0.220134 -0.128960 -0.107372
v  0.250080 -0.054948 -0.180254
v  0.270195 -0.007178 -0.197179
v  0.287674 0.042047 -0.187306
v  0.287674 0.042047 0.187106
v  0.318624 0.129210 0.153240
v  0.335912 0.177897 0.084650
v  0.424445 0.188867 -0.000099
v  0.343345 0.198832 -0.000099
v  0.335912 0.177897 -0.084849
v  0.416033 0.165178 -0.091268
v  0.318624 0.129210 -0.153439
v  0.396786 0.110972 -0.168425
v  0.470498 0.088359 -0.221183
v  0.488075 0.151867 -0.103274
v  0.546133 0.075109 -0.274168
v  0.564102 0.145268 -0.116490
v  0.493204 0.182706 -0.000099
v  0.569981 0.191166 -0.000099
v  0.564101 0.145268 0.116291
v  0.479724 -0.030590 -0.303429
v  0.530793 -0.069194 -0.241125
v  0.604440 0.017136 -0.211781
v  0.634581 -0.102292 -0.166226
v  0.694922 -0.010418 -0.131848
v  0.678328 -0.142845 -0.000100
v  0.755067 -0.028180 -0.000100
v  0.694922 -0.010418 0.131648
v  0.789434 0.082434 0.133779
v  0.700693 0.079579 0.200484
v  0.706127 0.128771 0.129661
v  0.603570 -0.189073 -0.146644
v  0.883196 0.072459 -0.000100
v  0.789434 0.082434 -0.133979
v  0.700693 0.079579 -0.200683
v  0.706127 0.128772 -0.129861
v  0.708868 0.185267 -0.000099
v  0.812091 0.149285 -0.000100
v  0.488931 0.171110 -0.103274
v  0.565128 0.168321 -0.116490
v  0.494538 0.212685 -0.000099
v  0.570627 0.205653 -0.000099
v  0.565128 0.168320 0.116291
v  0.488931 0.171109 0.103075
v  0.416033 0.165177 0.091069
v  0.424445 0.188867 -0.000099
v  0.416033 0.165178 -0.091268
v  0.961658 0.065282 0.030846
v  0.863637 0.075447 0.129638
v  0.884661 0.105350 -0.000100
v  0.790898 0.115325 0.133779
v  0.813229 0.174847 -0.000099
v  0.709396 0.197124 -0.000099
v  0.707610 0.162095 0.129661
v  0.702214 0.113734 0.200484
v  0.589152 0.107416 0.273969
v  0.709777 0.096261 0.239895
v  0.624625 0.088701 0.356905
v  0.624625 0.088702 -0.357104
v  0.709777 0.096262 -0.240095
v  0.589152 0.107417 -0.274168
v  0.702214 0.113735 -0.200683
v  0.707610 0.162095 -0.129860
v  0.790898 0.115326 -0.133978
v  0.863638 0.075447 -0.129837
v  0.961658 0.065282 -0.031045
v  0.570627 0.205653 -0.000099
v  0.565128 0.168321 -0.116490
v  0.494538 0.212685 -0.000099
v  0.488931 0.171110 -0.103274
v  0.416033 0.165178 -0.091268
v  0.424445 0.188867 -0.000099
v  0.416033 0.165177 0.091069
v  0.488931 0.171109 0.103075
v  0.565128 0.168320 0.116291
v  0.624625 0.088701 0.356905
v  0.709777 0.096261 0.239895
v  0.589152 0.107416 0.273969
v  0.702214 0.113734 0.200484
v  0.707610 0.162095 0.129661
v  0.709396 0.197124 -0.000099
v  0.790898 0.115325 0.133779
v  0.813229 0.174847 -0.000099
v  0.884661 0.105350 -0.000100
v  0.863637 0.075447 0.129638
v  0.961658 0.065282 0.030846
v  0.961658 0.065282 -0.031045
v  0.863638 0.075447 -0.129837
v  0.790898 0.115326 -0.133978
v  0.707610 0.162095 -0.129860
v  0.702214 0.113735 -0.200683
v  0.589152 0.107417 -0.274168
v  0.709777 0.096262 -0.240095
v  0.624625 0.088702 -0.357104
v  0.270195 -0.007178 -0.197179
v  0.250080 -0.054948 -0.180254
v  0.354732 0.005600 -0.000100
v  0.220134 -0.128960 -0.107372
v  0.208061 -0.157181 -0.000100
v  0.220134 -0.128960 0.107172
v  0.250080 -0.054949 0.180055
v  0.270195 -0.007179 0.196980
v  0.287674 0.042047 0.187106
v  0.318624 0.129210 0.153240
v  0.335912 0.177897 0.084650
v  0.343345 0.198832 -0.000099
v  0.335912 0.177897 -0.084849
v  0.318624 0.129210 -0.153439
v  0.287674 0.042047 -0.187306

vt  0.527974 -0.170484 0.000000
vt  0.341877 -0.214394 0.000000
vt  0.377732 -0.067008 0.000000
vt  0.341877 -0.214394 0.000000
vt  0.527974 -0.170484 0.000000
vt  0.377732 -0.067008 0.000000
vt  0.047699 -0.376465 0.000000
vt  0.191082 -0.516670 0.000000
vt  0.139463 -0.354381 0.000000
vt  0.282847 -0.494586 0.000000
vt  0.047699 -0.376465 0.000000
vt  0.139463 -0.354381 0.000000
vt  0.191082 -0.516670 0.000000
vt  0.282847 -0.494586 0.000000
vt  0.047699 -0.376465 0.000000
vt  0.047699 -0.376465 0.000000
vt  0.139463 -0.354381 0.000000
vt  0.191082 -0.516670 0.000000
vt  0.282847 -0.494586 0.000000
vt  0.191082 -0.516670 0.000000
vt  0.282847 -0.494586 0.000000
vt  0.139463 -0.354381 0.000000
vt  0.047699 -0.376465 0.000000
vt  0.527974 -0.170484 0.000000
vt  0.377732 -0.067008 0.000000
vt  0.539603 -0.012957 0.000000
vt  0.527974 -0.170484 0.000000
vt  0.725127 -0.277865 0.000000
vt  0.712600 -0.158719 0.000000
vt  0.704480 -0.006529 0.000000
vt  0.712600 -0.158719 0.000000
vt  0.725127 -0.277865 0.000000
vt  0.501853 -0.292993 0.000000
vt  0.341877 -0.214394 0.000000
vt  0.504069 -0.403501 0.000000
vt  0.641913 -0.417774 0.000000
vt  0.600759 -0.528440 0.000000
vt  0.705600 -0.568066 0.000000
vt  0.730976 -0.453372 0.000000
vt  0.732871 -0.341317 0.000000
vt  0.826057 -0.340969 0.000000
vt  0.732871 -0.341317 0.000000
vt  0.819354 -0.255621 0.000000
vt  0.826137 -0.189981 0.000000
vt  0.811831 -0.032271 0.000000
vt  0.826137 -0.189981 0.000000
vt  0.819354 -0.255621 0.000000
vt  0.826057 -0.340969 0.000000
vt  0.815037 -0.469211 0.000000
vt  0.791650 -0.595106 0.000000
vt  0.797500 -0.754443 0.000000
vt  0.886192 -0.746706 0.000000
vt  0.815037 -0.469211 0.000000
vt  0.901414 -0.483362 0.000000
vt  0.903608 -0.345848 0.000000
vt  0.905211 -0.210795 0.000000
vt  0.918253 -0.067838 0.000000
vt  0.905211 -0.210795 0.000000
vt  0.903608 -0.345848 0.000000
vt  0.901414 -0.483362 0.000000
vt  0.890398 -0.620918 0.000000
vt  0.984339 -0.414179 0.000000
vt  0.982368 -0.341156 0.000000
vt  0.979021 -0.212785 0.000000
vt  0.986928 -0.080796 0.000000
vt  0.979021 -0.212785 0.000000
vt  0.982368 -0.341156 0.000000
vt  0.984339 -0.414179 0.000000
vt  0.986310 -0.487202 0.000000
vt  0.986310 -0.487202 0.000000
vt  0.981278 -0.623496 0.000000
vt  0.976828 -0.741659 0.000000
vt  0.886826 -0.859489 0.000000
vt  0.978231 -0.848159 0.000000
vt  0.976828 -0.741659 0.000000
vt  0.886192 -0.746706 0.000000
vt  0.981278 -0.623496 0.000000
vt  0.890398 -0.620918 0.000000
vt  0.791650 -0.595106 0.000000
vt  0.797500 -0.754443 0.000000
vt  0.705600 -0.568066 0.000000
vt  0.706385 -0.754508 0.000000
vt  0.803634 -0.877699 0.000000
vt  0.701730 -0.895383 0.000000
vt  0.706385 -0.754508 0.000000
vt  0.730976 -0.453372 0.000000
vt  0.641913 -0.417774 0.000000
vt  0.600759 -0.528440 0.000000
vt  0.504069 -0.403501 0.000000
vt  0.465247 -0.530581 0.000000
vt  0.320738 -0.353035 0.000000
vt  0.300863 -0.534873 0.000000
vt  0.465247 -0.530581 0.000000
vt  0.450866 -0.681112 0.000000
vt  0.550075 -0.639021 0.000000
vt  0.546276 -0.730691 0.000000
vt  0.501853 -0.292993 0.000000
vt  0.283720 -0.740064 0.000000
vt  0.450866 -0.681112 0.000000
vt  0.550075 -0.639021 0.000000
vt  0.546276 -0.730691 0.000000
vt  0.523265 -0.885939 0.000000
vt  0.387921 -0.834607 0.000000
vt  0.116447 -0.927084 0.000000
vt  0.129470 -0.856734 0.000000
vt  0.012040 -0.915851 0.000000
vt  0.012094 -0.846001 0.000000
vt  0.129470 -0.856734 0.000000
vt  0.116447 -0.927084 0.000000
vt  0.099125 -0.992979 0.000000
vt  0.011769 -0.978978 0.000000
vt  0.099125 -0.992979 0.000000
vt  0.063821 -0.460187 0.000000
vt  0.157734 -0.550077 0.000000
vt  0.032442 -0.537482 0.000000
vt  0.157241 -0.628297 0.000000
vt  0.018242 -0.626080 0.000000
vt  0.015111 -0.721444 0.000000
vt  0.147776 -0.724094 0.000000
vt  0.228985 -0.741781 0.000000
vt  0.282412 -0.854129 0.000000
vt  0.270975 -0.741724 0.000000
vt  0.364214 -0.840249 0.000000
vt  0.364214 -0.840249 0.000000
vt  0.270975 -0.741724 0.000000
vt  0.282412 -0.854129 0.000000
vt  0.228985 -0.741781 0.000000
vt  0.147776 -0.724094 0.000000
vt  0.157241 -0.628297 0.000000
vt  0.157734 -0.550077 0.000000
vt  0.063821 -0.460187 0.000000
vt  0.012094 -0.846001 0.000000
vt  0.129470 -0.856734 0.000000
vt  0.012040 -0.915851 0.000000
vt  0.116447 -0.927084 0.000000
vt  0.099125 -0.992979 0.000000
vt  0.011769 -0.978978 0.000000
vt  0.099125 -0.992979 0.000000
vt  0.116447 -0.927084 0.000000
vt  0.129470 -0.856734 0.000000
vt  0.364214 -0.840249 0.000000
vt  0.270975 -0.741724 0.000000
vt  0.282412 -0.854129 0.000000
vt  0.228985 -0.741781 0.000000
vt  0.147776 -0.724094 0.000000
vt  0.015111 -0.721444 0.000000
vt  0.157241 -0.628297 0.000000
vt  0.018242 -0.626080 0.000000
vt  0.032442 -0.537482 0.000000
vt  0.157734 -0.550077 0.000000
vt  0.063821 -0.460187 0.000000
vt  0.063821 -0.460187 0.000000
vt  0.157734 -0.550077 0.000000
vt  0.157241 -0.628297 0.000000
vt  0.147776 -0.724094 0.000000
vt  0.228985 -0.741781 0.000000
vt  0.282412 -0.854129 0.000000
vt  0.270975 -0.741724 0.000000
vt  0.364214 -0.840249 0.000000
vt  0.174521 -0.216320 0.000000
vt  0.167543 -0.260342 0.000000
vt  0.018521 -0.163089 0.000000
vt  0.110527 -0.319971 0.000000
vt  0.022837 -0.334912 0.000000
vt  0.110527 -0.319971 0.000000
vt  0.167543 -0.260342 0.000000
vt  0.174521 -0.216320 0.000000
vt  0.181498 -0.172297 0.000000
vt  0.152130 -0.089866 0.000000
vt  0.092374 -0.037397 0.000000
vt  0.022576 -0.011254 0.000000
vt  0.092374 -0.037397 0.000000
vt  0.152130 -0.089866 0.000000
vt  0.181498 -0.172297 0.000000

vn  0.835569 0.080314 -0.543483
vn  0.835569 0.080314 -0.543483
vn  0.835569 0.080314 -0.543483
vn  0.835569 0.080312 0.543483
vn  0.835569 0.080312 0.543483
vn  0.835569 0.080312 0.543483
vn  -0.041405 -0.930079 0.365019
vn  -0.041404 -0.930079 0.365019
vn  -0.041405 -0.930079 0.365019
vn  -0.041404 -0.930079 0.365019
vn  0.216068 -0.786573 -0.578461
vn  -0.041404 -0.930078 -0.365022
vn  -0.072605 -0.997361 -0.000002
vn  -0.044473 -0.999011 -0.000002
vn  0.216068 -0.786575 0.578459
vn  0.041405 0.930079 -0.365019
vn  0.041405 0.930079 -0.365019
vn  0.041404 0.930079 -0.365019
vn  0.041404 0.930079 -0.365019
vn  0.044473 0.999011 0.000002
vn  0.044473 0.999011 0.000002
vn  0.041404 0.930078 0.365022
vn  0.041404 0.930078 0.365022
vn  0.216068 -0.786573 -0.578461
vn  -0.072605 -0.997361 -0.000002
vn  -0.172604 -0.984991 -0.000002
vn  0.216068 -0.786575 0.578459
vn  -0.321092 -0.626414 -0.710285
vn  -0.476579 -0.793303 -0.378869
vn  -0.426892 -0.904303 -0.000002
vn  -0.476579 -0.793305 0.378867
vn  -0.321091 -0.626417 0.710283
vn  0.672169 -0.336872 0.659322
vn  0.967550 -0.252679 -0.000000
vn  0.697822 -0.310916 0.645271
vn  0.596768 -0.250629 0.762268
vn  0.516852 -0.332347 0.788929
vn  0.168769 0.448725 0.877589
vn  -0.059274 0.051034 0.996936
vn  -0.213096 -0.316314 0.924411
vn  -0.585982 -0.112086 -0.802535
vn  -0.213096 -0.316311 -0.924412
vn  -0.577332 -0.591654 -0.562702
vn  -0.484769 -0.795333 -0.363929
vn  -0.562635 -0.826705 -0.000002
vn  -0.484769 -0.795334 0.363926
vn  -0.577332 -0.591656 0.562700
vn  -0.585982 -0.112089 0.802534
vn  -0.583804 0.236033 0.776827
vn  -0.342074 0.665600 0.663296
vn  0.049418 0.926183 0.373821
vn  0.082974 0.907956 0.410768
vn  -0.583804 0.236037 -0.776826
vn  -0.198111 0.220045 -0.955161
vn  -0.333173 -0.282636 -0.899507
vn  -0.469255 -0.723668 -0.506068
vn  -0.585032 -0.811010 -0.000001
vn  -0.469255 -0.723670 0.506065
vn  -0.333174 -0.282639 0.899506
vn  -0.198111 0.220042 0.955162
vn  -0.128233 0.659277 0.740885
vn  -0.775931 0.244152 0.581653
vn  -0.873288 0.043981 0.485215
vn  -0.937579 -0.166963 0.305071
vn  -0.964160 -0.265323 -0.000001
vn  -0.937579 -0.166962 -0.305072
vn  -0.873288 0.043982 -0.485215
vn  -0.775931 0.244153 -0.581652
vn  -0.788845 0.418298 -0.450278
vn  -0.788845 0.418297 0.450279
vn  -0.665952 0.603411 0.438636
vn  -0.636986 0.734287 0.234672
vn  0.108128 0.994137 0.000002
vn  -0.606769 0.794878 0.000001
vn  -0.636986 0.734288 -0.234670
vn  0.082974 0.907958 -0.410765
vn  -0.665952 0.603413 -0.438635
vn  -0.128232 0.659279 -0.740883
vn  -0.342074 0.665603 -0.663294
vn  0.049418 0.926185 -0.373818
vn  0.168769 0.448728 -0.877588
vn  0.048444 0.917817 -0.394037
vn  0.022606 0.999744 0.000002
vn  -0.021677 0.999765 0.000002
vn  0.048444 0.917816 0.394040
vn  -0.059275 0.051038 -0.996936
vn  0.596768 -0.250627 -0.762269
vn  0.516852 -0.332344 -0.788931
vn  0.697823 -0.310914 -0.645272
vn  0.669086 -0.491989 -0.557019
vn  0.943754 -0.330647 -0.000001
vn  0.739022 -0.673682 -0.000001
vn  0.669086 -0.491991 0.557017
vn  0.727233 0.099912 0.679080
vn  0.470685 0.199247 0.859509
vn  0.237348 0.847530 0.474720
vn  0.672169 -0.336870 -0.659323
vn  0.996446 -0.084230 -0.000000
vn  0.727233 0.099915 -0.679080
vn  0.470685 0.199251 -0.859508
vn  0.237349 0.847531 -0.474717
vn  0.208044 0.978119 0.000002
vn  0.534057 0.845448 0.000001
vn  0.079723 -0.926069 0.368837
vn  -0.038443 -0.933075 0.357620
vn  0.093452 -0.995624 -0.000002
vn  -0.063885 -0.997957 -0.000002
vn  -0.038443 -0.933074 -0.357624
vn  0.079723 -0.926068 -0.368840
vn  0.202193 -0.928992 -0.309987
vn  0.321736 -0.946829 -0.000002
vn  0.202193 -0.928993 0.309983
vn  -0.359391 -0.894915 -0.264509
vn  -0.441607 -0.855978 -0.268857
vn  -0.522125 -0.852869 -0.000002
vn  -0.455598 -0.828559 -0.325455
vn  -0.464000 -0.885835 -0.000002
vn  -0.186144 -0.982522 -0.000002
vn  -0.180168 -0.910062 -0.373265
vn  -0.120280 -0.900476 -0.417942
vn  -0.154163 -0.954660 -0.254672
vn  -0.173591 -0.935304 -0.308338
vn  -0.136216 -0.977298 -0.162276
vn  -0.136216 -0.977299 0.162273
vn  -0.173592 -0.935305 0.308336
vn  -0.154163 -0.954661 0.254669
vn  -0.120280 -0.900477 0.417939
vn  -0.180168 -0.910063 0.373262
vn  -0.455597 -0.828560 0.325452
vn  -0.441607 -0.855980 0.268853
vn  -0.359391 -0.894916 0.264505
vn  0.063885 0.997957 0.000002
vn  0.038443 0.933075 -0.357620
vn  -0.093452 0.995624 0.000002
vn  -0.079723 0.926069 -0.368837
vn  -0.202193 0.928993 -0.309983
vn  -0.321736 0.946829 0.000002
vn  -0.202193 0.928992 0.309987
vn  -0.079723 0.926068 0.368840
vn  0.038443 0.933074 0.357624
vn  0.136216 0.977298 0.162276
vn  0.173591 0.935304 0.308338
vn  0.154163 0.954660 0.254672
vn  0.120280 0.900476 0.417942
vn  0.180168 0.910062 0.373265
vn  0.186144 0.982522 0.000002
vn  0.455598 0.828559 0.325455
vn  0.464000 0.885835 0.000002
vn  0.522125 0.852869 0.000002
vn  0.441607 0.855978 0.268857
vn  0.359391 0.894915 0.264509
vn  0.359391 0.894916 -0.264505
vn  0.441607 0.855980 -0.268853
vn  0.455597 0.828560 -0.325452
vn  0.180168 0.910063 -0.373262
vn  0.120280 0.900477 -0.417939
vn  0.154163 0.954661 -0.254669
vn  0.173592 0.935305 -0.308336
vn  0.136216 0.977299 -0.162273
vn  -0.775931 0.244153 -0.581652
vn  -0.873288 0.043982 -0.485215
vn  -0.945123 0.326714 0.000001
vn  -0.937579 -0.166962 -0.305072
vn  -0.964160 -0.265323 -0.000001
vn  -0.937579 -0.166963 0.305071
vn  -0.873288 0.043981 0.485215
vn  -0.775931 0.244152 0.581653
vn  -0.788845 0.418297 0.450279
vn  -0.665952 0.603411 0.438636
vn  -0.636986 0.734287 0.234672
vn  -0.606769 0.794878 0.000001
vn  -0.636986 0.734288 -0.234670
vn  -0.665952 0.603413 -0.438635
vn  -0.788845 0.418298 -0.450278

g F1132
usemtl F1132_3
f  1/1/1 2/2/2 3/3/3
f  4/4/4 5/5/5 6/6/6
f  7/7/7 8/8/8 9/9/9
f  10/10/10 9/9/9 8/8/8
f  11/11/11 12/12/12 13/13/13
f  14/14/14 13/13/13 12/12/12
f  9/9/9 13/13/13 14/14/14
f  13/13/13 9/9/9 15/15/15
f  16/16/16 17/17/17 18/18/18
f  19/19/19 18/18/18 17/17/17
f  16/16/16 17/17/17 20/20/20
f  21/21/21 20/20/20 17/17/17
f  22/22/22 20/20/20 21/21/21
f  20/20/20 22/22/22 23/23/23
f  24/24/24 25/25/25 26/26/26
f  27/27/27 26/26/26 25/25/25
f  28/28/28 24/24/24 29/29/29
f  26/26/26 29/29/29 24/24/24
f  29/29/29 26/26/26 30/30/30
f  30/30/30 26/26/26 31/31/31
f  27/27/27 31/31/31 26/26/26
f  31/31/31 27/27/27 32/32/32
f  32/32/32 27/27/27 33/33/33
f  34/34/34 33/33/33 27/27/27
f  35/35/35 33/33/33 34/34/34
f  33/33/33 35/35/35 36/36/36
f  37/37/37 36/36/36 35/35/35
f  38/38/38 36/36/36 37/37/37
f  39/39/39 36/36/36 38/38/38
f  40/40/40 36/36/36 39/39/39
f  36/36/36 40/40/40 33/33/33
f  32/32/32 33/33/33 40/40/40
f  28/28/28 41/41/41 42/42/42
f  41/41/41 28/28/28 43/43/43
f  43/43/43 28/28/28 44/44/44
f  29/29/29 44/44/44 28/28/28
f  30/30/30 44/44/44 29/29/29
f  44/44/44 30/30/30 45/45/45
f  45/45/45 30/30/30 46/46/46
f  31/31/31 46/46/46 30/30/30
f  32/32/32 46/46/46 31/31/31
f  46/46/46 32/32/32 47/47/47
f  47/47/47 32/32/32 48/48/48
f  40/40/40 48/48/48 32/32/32
f  48/48/48 40/40/40 49/49/49
f  39/39/39 49/49/49 40/40/40
f  49/49/49 39/39/39 50/50/50
f  38/38/38 50/50/50 39/39/39
f  51/51/51 50/50/50 38/38/38
f  52/52/52 50/50/50 51/51/51
f  42/42/42 41/41/41 53/53/53
f  53/53/53 41/41/41 54/54/54
f  54/54/54 41/41/41 55/55/55
f  43/43/43 55/55/55 41/41/41
f  55/55/55 43/43/43 56/56/56
f  44/44/44 56/56/56 43/43/43
f  45/45/45 56/56/56 44/44/44
f  56/56/56 45/45/45 57/57/57
f  57/57/57 45/45/45 58/58/58
f  46/46/46 58/58/58 45/45/45
f  47/47/47 58/58/58 46/46/46
f  58/58/58 47/47/47 59/59/59
f  48/48/48 59/59/59 47/47/47
f  59/59/59 48/48/48 60/60/60
f  49/49/49 60/60/60 48/48/48
f  60/60/60 49/49/49 61/61/61
f  50/50/50 61/61/61 49/49/49
f  61/61/61 50/50/50 52/52/52
f  60/60/60 62/62/62 59/59/59
f  63/63/63 59/59/59 62/62/62
f  59/59/59 63/63/63 58/58/58
f  64/64/64 58/58/58 63/63/63
f  65/65/65 58/58/58 64/64/64
f  58/58/58 65/65/65 57/57/57
f  57/57/57 65/65/65 56/56/56
f  66/66/66 56/56/56 65/65/65
f  67/67/67 56/56/56 66/66/66
f  56/56/56 67/67/67 55/55/55
f  68/68/68 55/55/55 67/67/67
f  55/55/55 68/68/68 54/54/54
f  69/69/69 54/54/54 68/68/68
f  60/60/60 70/70/70 62/62/62
f  70/70/70 60/60/60 71/71/71
f  61/61/61 71/71/71 60/60/60
f  52/52/52 71/71/71 61/61/61
f  71/71/71 52/52/52 72/72/72
f  73/73/73 72/72/72 52/52/52
f  72/72/72 73/73/73 74/74/74
f  74/74/74 73/73/73 75/75/75
f  76/76/76 75/75/75 73/73/73
f  75/75/75 76/76/76 77/77/77
f  77/77/77 76/76/76 78/78/78
f  78/78/78 76/76/76 79/79/79
f  80/80/80 79/79/79 76/76/76
f  79/79/79 80/80/80 81/81/81
f  81/81/81 80/80/80 82/82/82
f  83/83/83 82/82/82 80/80/80
f  82/82/82 83/83/83 84/84/84
f  85/85/85 84/84/84 83/83/83
f  69/69/69 77/77/77 54/54/54
f  78/78/78 54/54/54 77/77/77
f  54/54/54 78/78/78 53/53/53
f  79/79/79 53/53/53 78/78/78
f  53/53/53 79/79/79 86/86/86
f  81/81/81 86/86/86 79/79/79
f  86/86/86 81/81/81 87/87/87
f  88/88/88 87/87/87 81/81/81
f  87/87/87 88/88/88 89/89/89
f  90/90/90 89/89/89 88/88/88
f  89/89/89 90/90/90 91/91/91
f  92/92/92 91/91/91 90/90/90
f  91/91/91 92/92/92 93/93/93
f  94/94/94 93/93/93 92/92/92
f  93/93/93 94/94/94 95/95/95
f  96/96/96 95/95/95 94/94/94
f  95/95/95 96/96/96 85/85/85
f  84/84/84 85/85/85 96/96/96
f  53/53/53 86/86/86 42/42/42
f  87/87/87 42/42/42 86/86/86
f  42/42/42 87/87/87 97/97/97
f  89/89/89 97/97/97 87/87/87
f  97/97/97 89/89/89 34/34/34
f  91/91/91 34/34/34 89/89/89
f  34/34/34 91/91/91 35/35/35
f  93/93/93 35/35/35 91/91/91
f  35/35/35 93/93/93 37/37/37
f  95/95/95 37/37/37 93/93/93
f  37/37/37 95/95/95 38/38/38
f  85/85/85 38/38/38 95/95/95
f  38/38/38 85/85/85 51/51/51
f  83/83/83 51/51/51 85/85/85
f  51/51/51 83/83/83 52/52/52
f  52/52/52 83/83/83 73/73/73
f  73/73/73 83/83/83 76/76/76
f  80/80/80 76/76/76 83/83/83
f  42/42/42 97/97/97 28/28/28
f  28/28/28 97/97/97 24/24/24
f  34/34/34 24/24/24 97/97/97
f  94/94/94 92/92/92 98/98/98
f  98/98/98 92/92/92 99/99/99
f  90/90/90 99/99/99 92/92/92
f  99/99/99 90/90/90 100/100/100
f  88/88/88 100/100/100 90/90/90
f  81/81/81 100/100/100 88/88/88
f  82/82/82 100/100/100 81/81/81
f  100/100/100 82/82/82 101/101/101
f  84/84/84 101/101/101 82/82/82
f  101/101/101 84/84/84 102/102/102
f  96/96/96 102/102/102 84/84/84
f  94/94/94 102/102/102 96/96/96
f  102/102/102 94/94/94 103/103/103
f  98/98/98 103/103/103 94/94/94
f  99/99/99 103/103/103 98/98/98
f  103/103/103 99/99/99 102/102/102
f  102/102/102 99/99/99 101/101/101
f  100/100/100 101/101/101 99/99/99
f  104/104/104 105/105/105 106/106/106
f  107/107/107 106/106/106 105/105/105
f  108/108/108 106/106/106 107/107/107
f  109/109/109 106/106/106 108/108/108
f  110/110/110 106/106/106 109/109/109
f  111/111/111 106/106/106 110/110/110
f  112/112/112 106/106/106 111/111/111
f  106/106/106 112/112/112 104/104/104
f  113/113/113 114/114/114 115/115/115
f  116/116/116 115/115/115 114/114/114
f  115/115/115 116/116/116 117/117/117
f  117/117/117 116/116/116 118/118/118
f  119/119/119 118/118/118 116/116/116
f  118/118/118 119/119/119 107/107/107
f  107/107/107 119/119/119 108/108/108
f  120/120/120 108/108/108 119/119/119
f  108/108/108 120/120/120 121/121/121
f  122/122/122 121/121/121 120/120/120
f  121/121/121 122/122/122 123/123/123
f  124/124/124 125/125/125 126/126/126
f  127/127/127 126/126/126 125/125/125
f  126/126/126 127/127/127 105/105/105
f  128/128/128 105/105/105 127/127/127
f  105/105/105 128/128/128 107/107/107
f  107/107/107 128/128/128 118/118/118
f  129/129/129 118/118/118 128/128/128
f  118/118/118 129/129/129 117/117/117
f  117/117/117 129/129/129 115/115/115
f  130/130/130 115/115/115 129/129/129
f  115/115/115 130/130/130 131/131/131
f  132/132/132 133/133/133 134/134/134
f  135/135/135 134/134/134 133/133/133
f  136/136/136 134/134/134 135/135/135
f  137/137/137 134/134/134 136/136/136
f  138/138/138 134/134/134 137/137/137
f  139/139/139 134/134/134 138/138/138
f  140/140/140 134/134/134 139/139/139
f  134/134/134 140/140/140 132/132/132
f  141/141/141 142/142/142 143/143/143
f  144/144/144 143/143/143 142/142/142
f  143/143/143 144/144/144 140/140/140
f  145/145/145 140/140/140 144/144/144
f  140/140/140 145/145/145 132/132/132
f  132/132/132 145/145/145 146/146/146
f  147/147/147 146/146/146 145/145/145
f  146/146/146 147/147/147 148/148/148
f  148/148/148 147/147/147 149/149/149
f  150/150/150 149/149/149 147/147/147
f  149/149/149 150/150/150 151/151/151
f  152/152/152 153/153/153 149/149/149
f  154/154/154 149/149/149 153/153/153
f  149/149/149 154/154/154 148/148/148
f  148/148/148 154/154/154 146/146/146
f  155/155/155 146/146/146 154/154/154
f  146/146/146 155/155/155 132/132/132
f  132/132/132 155/155/155 133/133/133
f  156/156/156 133/133/133 155/155/155
f  133/133/133 156/156/156 157/157/157
f  158/158/158 157/157/157 156/156/156
f  157/157/157 158/158/158 159/159/159
f  160/160/160 161/161/161 162/162/162
f  163/163/163 162/162/162 161/161/161
f  164/164/164 162/162/162 163/163/163
f  165/165/165 162/162/162 164/164/164
f  166/166/166 162/162/162 165/165/165
f  167/167/167 162/162/162 166/166/166
f  168/168/168 162/162/162 167/167/167
f  169/169/169 162/162/162 168/168/168
f  170/170/170 162/162/162 169/169/169
f  171/171/171 162/162/162 170/170/170
f  172/172/172 162/162/162 171/171/171
f  173/173/173 162/162/162 172/172/172
f  174/174/174 162/162/162 173/173/173
f  162/162/162 174/174/174 160/160/160

g
