# Noesis .obj export.
#
mtllib f1234.mtl
g
v  0.244709 0.243994 0.177524
v  0.225278 0.240204 0.192425
v  0.231078 0.229373 0.192994
v  0.210871 0.235317 0.202741
v  0.214477 0.216985 0.207565
v  0.199420 0.210410 0.221903
v  0.196819 0.232197 0.213154
v  0.176716 0.225557 0.227837
v  0.191848 0.247187 0.206915
v  0.173990 0.242956 0.218096
v  0.185146 0.266342 0.199080
v  0.171514 0.265150 0.208285
v  0.170319 0.286383 0.197969
v  0.178028 0.287086 0.191841
v  0.168551 0.312800 0.184729
v  0.116966 0.201210 0.259578
v  0.142823 0.200026 0.255818
v  0.140468 0.210756 0.249777
v  0.158791 0.218644 0.242020
v  0.167093 0.201744 0.249058
v  0.183196 0.203955 0.236917
v  0.186025 0.186829 0.241406
v  0.201316 0.186817 0.229122
v  0.190046 0.164385 0.241930
v  0.201854 0.163237 0.234869
v  0.201026 0.141742 0.239233
v  0.193834 0.142463 0.243624
v  0.199831 0.114837 0.244855

vt  0.015882 -0.058020 0.000000
vt  0.114802 -0.187456 0.000000
vt  0.160819 -0.125545 0.000000
vt  0.214470 -0.301126 0.000000
vt  0.306649 -0.205173 0.000000
vt  0.489477 -0.303049 0.000000
vt  0.331744 -0.453863 0.000000
vt  0.528531 -0.609931 0.000000
vt  0.241264 -0.616637 0.000000
vt  0.377935 -0.718674 0.000000
vt  0.156289 -0.748226 0.000000
vt  0.255535 -0.822000 0.000000
vt  0.147220 -0.903600 0.000000
vt  0.090269 -0.856373 0.000000
vt  0.024933 -0.977198 0.000000
vt  0.885537 -0.787278 0.000000
vt  0.835300 -0.695889 0.000000
vt  0.791322 -0.746384 0.000000
vt  0.687042 -0.689490 0.000000
vt  0.761909 -0.596076 0.000000
vt  0.666809 -0.464458 0.000000
vt  0.760234 -0.320417 0.000000
vt  0.659108 -0.202302 0.000000
vt  0.849871 -0.204895 0.000000
vt  0.782125 -0.120312 0.000000
vt  0.871266 -0.064375 0.000000
vt  0.914049 -0.117833 0.000000
vt  0.984236 -0.014897 0.000000

vn  0.534113 0.326963 0.779628
vn  0.507183 0.313755 0.802698
vn  0.506351 0.315376 0.802588
vn  0.508312 0.324533 0.797682
vn  0.546984 0.312031 0.776817
vn  0.528038 0.363304 0.767585
vn  0.459869 0.408364 0.788517
vn  0.443849 0.448104 0.776016
vn  0.393903 0.469428 0.790239
vn  0.396792 0.473027 0.786640
vn  0.472182 0.420617 0.774678
vn  0.488591 0.400188 0.775325
vn  0.529588 0.416315 0.739065
vn  0.540876 0.420362 0.728525
vn  0.546344 0.404237 0.733554
vn  0.146623 0.509512 0.847879
vn  0.160721 0.497292 0.852567
vn  0.142918 0.509170 0.848717
vn  0.331806 0.487337 0.807717
vn  0.352595 0.502097 0.789668
vn  0.517879 0.407138 0.752356
vn  0.608689 0.210479 0.764981
vn  0.595502 0.223800 0.771551
vn  0.544182 0.167090 0.822160
vn  0.517626 0.183247 0.835754
vn  0.524653 0.152741 0.837502
vn  0.526110 0.153785 0.836396
vn  0.526129 0.151500 0.836801

g F1234
usemtl F1234_3
f  1/1/1 2/2/2 3/3/3
f  4/4/4 3/3/3 2/2/2
f  3/3/3 4/4/4 5/5/5
f  5/5/5 4/4/4 6/6/6
f  7/7/7 6/6/6 4/4/4
f  6/6/6 7/7/7 8/8/8
f  9/9/9 8/8/8 7/7/7
f  8/8/8 9/9/9 10/10/10
f  11/11/11 10/10/10 9/9/9
f  10/10/10 11/11/11 12/12/12
f  12/12/12 11/11/11 13/13/13
f  14/14/14 13/13/13 11/11/11
f  13/13/13 14/14/14 15/15/15
f  16/16/16 17/17/17 18/18/18
f  18/18/18 17/17/17 19/19/19
f  20/20/20 19/19/19 17/17/17
f  21/21/21 19/19/19 20/20/20
f  19/19/19 21/21/21 8/8/8
f  8/8/8 21/21/21 6/6/6
f  22/22/22 6/6/6 21/21/21
f  6/6/6 22/22/22 23/23/23
f  24/24/24 23/23/23 22/22/22
f  23/23/23 24/24/24 25/25/25
f  25/25/25 24/24/24 26/26/26
f  27/27/27 26/26/26 24/24/24
f  26/26/26 27/27/27 28/28/28

g
