# Noesis .obj export.
#
mtllib f1239.mtl
g
v  0.145461 0.439743 0.000003
v  0.133800 0.415781 -0.059596
v  0.169002 0.431032 0.000003
v  0.133800 0.415781 0.059602
v  0.145461 0.439743 0.000003
v  0.169002 0.431032 0.000003
v  0.284119 -0.107031 0.000067
v  0.241861 -0.119061 -0.120211
v  0.259049 -0.130369 0.000067
v  0.241861 -0.119061 -0.120211
v  0.284119 -0.107031 0.000067
v  0.266932 -0.098401 -0.120211
v  0.284119 -0.107031 0.000067
v  0.241861 -0.119061 0.120344
v  0.266932 -0.098401 0.120344
v  0.241861 -0.119061 0.120344
v  0.284119 -0.107031 0.000067
v  0.259049 -0.130369 0.000067
v  0.152241 0.439401 -0.022880
v  0.177394 0.427925 -0.000097
v  0.177975 0.418468 -0.000092
v  0.071968 0.504699 -0.012724
v  0.076773 0.509775 -0.009900
v  0.099627 0.482200 -0.020836
v  0.104297 0.487386 -0.016196
v  0.120783 0.464991 -0.010730
v  0.125349 0.470261 -0.007711
v  0.132481 0.455475 -0.011679
v  0.137068 0.460728 -0.008390
v  0.157072 0.444456 -0.017783
v  0.162742 0.451426 -0.000097
v  0.139378 0.463568 -0.000101
v  0.127659 0.473101 -0.000101
v  0.109377 0.493631 -0.000097
v  0.079083 0.512615 -0.000097
v  0.020241 0.546777 0.019884
v  0.018021 0.557566 0.019628
v  0.014062 0.551803 0.025325
v  0.079083 0.512615 -0.000097
v  0.060634 0.527622 -0.000097
v  0.076773 0.509775 0.009706
v  0.058324 0.524782 0.008303
v  0.071968 0.504699 0.012541
v  0.053533 0.519696 0.010733
v  0.034936 0.543807 0.012527
v  0.030586 0.538362 0.016176
v  0.024675 0.552154 0.015405
v  0.024906 0.566528 -0.000097
v  -0.017356 0.586344 -0.000097
v  -0.027810 0.585864 -0.000092
v  0.037561 0.547035 -0.000097
v  0.029429 0.558249 -0.000097
v  0.037561 0.547035 -0.000097
v  0.024675 0.552154 -0.015600
v  0.029429 0.558249 -0.000097
v  0.024906 0.566528 -0.000097
v  0.018021 0.557566 -0.019822
v  -0.017356 0.586344 -0.000097
v  -0.027810 0.585864 -0.000092
v  0.014062 0.551803 -0.025508
v  0.020241 0.546777 -0.020068
v  0.034936 0.543807 -0.012722
v  0.058324 0.524782 -0.008497
v  0.060634 0.527622 -0.000097
v  0.076773 0.509775 -0.009900
v  0.079083 0.512615 -0.000097
v  0.071968 0.504699 -0.012724
v  0.053533 0.519695 -0.010916
v  0.030586 0.538362 -0.016360
v  0.108153 0.475984 0.006350
v  0.109417 0.482175 0.016518
v  0.141284 0.443889 0.045126
v  0.133081 0.458059 0.050952
v  0.110236 0.458187 0.123315
v  0.108842 0.468181 0.112583
v  0.095887 0.492522 0.075670
v  0.034009 0.233253 -0.281032
v  0.067023 0.231373 -0.281032
v  0.054207 0.342740 -0.218017
v  0.087222 0.333892 -0.218017
v  0.098606 0.421996 -0.126710
v  0.127795 0.414275 -0.126710
v  0.138025 0.447848 0.000067
v  0.097351 0.107741 -0.304946
v  0.070710 0.099861 -0.304946
v  0.097351 0.107741 -0.304946
v  0.067023 0.231373 -0.281032
v  0.087222 0.333892 -0.218017
v  0.127795 0.414275 -0.126710
v  0.162258 0.435612 0.000067
v  0.127795 0.414274 0.126844
v  0.098606 0.421995 0.126844
v  0.087222 0.333892 0.218151
v  0.054207 0.342739 0.218151
v  0.067023 0.231373 0.281166
v  0.034009 0.233252 0.281166
v  0.097351 0.107741 0.305080
v  0.070710 0.099861 0.305080
v  0.127795 0.414274 0.126844
v  0.087222 0.333892 0.218151
v  0.067023 0.231373 0.281166
v  0.097351 0.107741 0.305080
v  0.108153 0.475984 0.006350
v  0.141284 0.443889 0.045126
v  0.109417 0.482175 0.016518
v  0.133081 0.458059 0.050952
v  0.095887 0.492522 0.075670
v  0.108842 0.468181 0.112583
v  0.110236 0.458187 0.123315
v  0.108153 0.475984 -0.005400
v  0.109417 0.482175 -0.015568
v  0.141284 0.443889 -0.044177
v  0.133081 0.458059 -0.050003
v  0.110236 0.458188 -0.122366
v  0.108842 0.468181 -0.111634
v  0.095887 0.492522 -0.074720
v  0.108153 0.475984 -0.005400
v  0.141284 0.443889 -0.044177
v  0.109417 0.482175 -0.015568
v  0.133081 0.458059 -0.050003
v  0.095887 0.492522 -0.074720
v  0.108842 0.468181 -0.111634
v  0.110236 0.458188 -0.122366
v  0.097351 0.107741 -0.304946
v  0.070710 0.099861 -0.304946
v  0.165501 -0.002188 -0.296847
v  0.140430 -0.018856 -0.296847
v  0.224089 -0.065840 -0.225572
v  0.199018 -0.088730 -0.225572
v  0.266932 -0.098401 -0.120211
v  0.241861 -0.119061 -0.120211
v  0.165501 -0.002188 -0.296847
v  0.097351 0.107741 -0.304946
v  0.224089 -0.065840 -0.225572
v  0.266932 -0.098401 -0.120211
v  0.284119 -0.107031 0.000067
v  0.259049 -0.130369 0.000067
v  0.241861 -0.119061 0.120344
v  0.266932 -0.098401 0.120344
v  0.199018 -0.088731 0.225705
v  0.224089 -0.065840 0.225705
v  0.140430 -0.018857 0.296980
v  0.165501 -0.002188 0.296980
v  0.070710 0.099861 0.305080
v  0.097351 0.107741 0.305080
v  0.266932 -0.098401 0.120344
v  0.224089 -0.065840 0.225705
v  0.165501 -0.002188 0.296980
v  0.097351 0.107741 0.305080
v  0.157072 0.444456 0.017588
v  0.137068 0.460728 0.008195
v  0.152241 0.439401 0.022697
v  0.132481 0.455475 0.011495
v  0.125349 0.470261 0.007516
v  0.120783 0.464991 0.010547
v  0.104297 0.487386 0.016001
v  0.099627 0.482200 0.020652
v  0.071968 0.504699 0.012541
v  0.076773 0.509775 0.009706
v  0.079083 0.512615 -0.000097
v  0.109377 0.493631 -0.000097
v  0.127659 0.473101 -0.000101
v  0.139378 0.463568 -0.000101
v  0.162742 0.451426 -0.000097
v  0.177394 0.427925 -0.000097
v  0.177975 0.418468 -0.000092
v  0.152241 0.439401 0.022697
v  0.132481 0.455475 0.011495
v  0.177975 0.418468 -0.000092
v  0.126619 0.460244 -0.000087
v  0.120783 0.464991 0.010547
v  0.099627 0.482200 0.020652
v  0.099854 0.482016 -0.000087
v  0.071968 0.504699 0.012541
v  0.062562 0.512351 -0.000087
v  0.053533 0.519696 0.010733
v  0.030586 0.538362 0.016176
v  0.030511 0.538423 -0.000086
v  0.152241 0.439401 -0.022880
v  0.132481 0.455475 -0.011679
v  0.120783 0.464991 -0.010730
v  0.099627 0.482200 -0.020836
v  0.071968 0.504699 -0.012724
v  0.053533 0.519695 -0.010916
v  0.030586 0.538362 -0.016360
v  0.017253 0.549207 -0.000086
v  0.020241 0.546777 0.019884
v  0.014062 0.551803 0.025325
v  -0.027810 0.585864 -0.000092
v  0.014062 0.551803 -0.025508
v  0.020241 0.546777 -0.020068

vt  0.635577 -0.966398 0.000000
vt  0.757689 -0.898397 0.000000
vt  0.622603 -0.936961 0.000000
vt  0.757689 -0.898397 0.000000
vt  0.635577 -0.966398 0.000000
vt  0.622603 -0.936961 0.000000
vt  0.964851 -0.660775 0.000000
vt  0.873757 -0.777039 0.000000
vt  0.980338 -0.688510 0.000000
vt  0.873757 -0.777039 0.000000
vt  0.964851 -0.660775 0.000000
vt  0.858437 -0.749241 0.000000
vt  0.964851 -0.660775 0.000000
vt  0.873757 -0.777039 0.000000
vt  0.858437 -0.749241 0.000000
vt  0.873757 -0.777039 0.000000
vt  0.964851 -0.660775 0.000000
vt  0.980338 -0.688510 0.000000
vt  0.796889 -0.147769 0.000000
vt  0.668730 -0.044167 0.000000
vt  0.701114 -0.018056 0.000000
vt  0.768853 -0.630552 0.000000
vt  0.733886 -0.628697 0.000000
vt  0.811739 -0.485993 0.000000
vt  0.741966 -0.479245 0.000000
vt  0.813796 -0.352799 0.000000
vt  0.730078 -0.353561 0.000000
vt  0.810528 -0.272385 0.000000
vt  0.727873 -0.276984 0.000000
vt  0.732008 -0.157688 0.000000
vt  0.628598 -0.151835 0.000000
vt  0.639013 -0.274314 0.000000
vt  0.642090 -0.356830 0.000000
vt  0.643175 -0.484995 0.000000
vt  0.686793 -0.626058 0.000000
vt  0.270139 -0.788604 0.000000
vt  0.220993 -0.711595 0.000000
vt  0.217040 -0.787962 0.000000
vt  0.571399 -0.658303 0.000000
vt  0.475460 -0.633996 0.000000
vt  0.571278 -0.703584 0.000000
vt  0.470907 -0.700796 0.000000
vt  0.572790 -0.737423 0.000000
vt  0.476156 -0.760098 0.000000
vt  0.340229 -0.705263 0.000000
vt  0.343016 -0.783005 0.000000
vt  0.271809 -0.709084 0.000000
vt  0.214882 -0.587070 0.000000
vt  0.031861 -0.641584 0.000000
vt  0.003701 -0.679201 0.000000
vt  0.342288 -0.606245 0.000000
vt  0.268549 -0.595105 0.000000
vt  0.335742 -0.803273 0.000000
vt  0.274495 -0.911865 0.000000
vt  0.261313 -0.798603 0.000000
vt  0.207150 -0.795276 0.000000
vt  0.224091 -0.918795 0.000000
vt  0.029577 -0.865534 0.000000
vt  0.004803 -0.905462 0.000000
vt  0.226809 -0.995215 0.000000
vt  0.279762 -0.991227 0.000000
vt  0.342321 -0.902095 0.000000
vt  0.472113 -0.886255 0.000000
vt  0.470827 -0.819312 0.000000
vt  0.572345 -0.880285 0.000000
vt  0.568519 -0.835165 0.000000
vt  0.576800 -0.913863 0.000000
vt  0.482510 -0.944873 0.000000
vt  0.351873 -0.979298 0.000000
vt  0.032306 -0.403831 0.000000
vt  0.088994 -0.404371 0.000000
vt  0.139928 -0.102789 0.000000
vt  0.176987 -0.187931 0.000000
vt  0.593960 -0.130416 0.000000
vt  0.559516 -0.188961 0.000000
vt  0.424064 -0.391005 0.000000
vt  0.926201 -0.836390 0.000000
vt  0.912575 -0.807788 0.000000
vt  0.848463 -0.889460 0.000000
vt  0.834874 -0.860771 0.000000
vt  0.771177 -0.927269 0.000000
vt  0.757689 -0.898397 0.000000
vt  0.635577 -0.966398 0.000000
vt  0.983196 -0.739923 0.000000
vt  0.996820 -0.768531 0.000000
vt  0.983196 -0.739923 0.000000
vt  0.912575 -0.807788 0.000000
vt  0.834874 -0.860771 0.000000
vt  0.757689 -0.898397 0.000000
vt  0.622603 -0.936961 0.000000
vt  0.757689 -0.898397 0.000000
vt  0.771177 -0.927269 0.000000
vt  0.834874 -0.860771 0.000000
vt  0.848463 -0.889460 0.000000
vt  0.912575 -0.807788 0.000000
vt  0.926201 -0.836390 0.000000
vt  0.983196 -0.739923 0.000000
vt  0.996820 -0.768531 0.000000
vt  0.757689 -0.898397 0.000000
vt  0.834874 -0.860771 0.000000
vt  0.912575 -0.807788 0.000000
vt  0.983196 -0.739923 0.000000
vt  0.032306 -0.403831 0.000000
vt  0.139928 -0.102789 0.000000
vt  0.088994 -0.404371 0.000000
vt  0.176987 -0.187931 0.000000
vt  0.424064 -0.391005 0.000000
vt  0.559516 -0.188961 0.000000
vt  0.593960 -0.130416 0.000000
vt  0.032306 -0.403831 0.000000
vt  0.088994 -0.404371 0.000000
vt  0.139928 -0.102789 0.000000
vt  0.176987 -0.187931 0.000000
vt  0.593960 -0.130416 0.000000
vt  0.559516 -0.188961 0.000000
vt  0.424064 -0.391005 0.000000
vt  0.032306 -0.403831 0.000000
vt  0.139928 -0.102789 0.000000
vt  0.088994 -0.404371 0.000000
vt  0.176987 -0.187931 0.000000
vt  0.424064 -0.391005 0.000000
vt  0.559516 -0.188961 0.000000
vt  0.593960 -0.130416 0.000000
vt  0.597929 -0.849133 0.000000
vt  0.613152 -0.876986 0.000000
vt  0.692869 -0.830765 0.000000
vt  0.707974 -0.858616 0.000000
vt  0.778548 -0.794953 0.000000
vt  0.793618 -0.822807 0.000000
vt  0.858437 -0.749241 0.000000
vt  0.873757 -0.777039 0.000000
vt  0.692869 -0.830765 0.000000
vt  0.597929 -0.849133 0.000000
vt  0.778548 -0.794953 0.000000
vt  0.858437 -0.749241 0.000000
vt  0.964851 -0.660775 0.000000
vt  0.980338 -0.688510 0.000000
vt  0.873757 -0.777039 0.000000
vt  0.858437 -0.749241 0.000000
vt  0.793618 -0.822807 0.000000
vt  0.778548 -0.794953 0.000000
vt  0.707974 -0.858616 0.000000
vt  0.692869 -0.830765 0.000000
vt  0.613152 -0.876986 0.000000
vt  0.597929 -0.849133 0.000000
vt  0.858437 -0.749241 0.000000
vt  0.778548 -0.794953 0.000000
vt  0.692869 -0.830765 0.000000
vt  0.597929 -0.849133 0.000000
vt  0.909862 -0.164243 0.000000
vt  0.905726 -0.283539 0.000000
vt  0.974742 -0.154324 0.000000
vt  0.988380 -0.278939 0.000000
vt  0.907931 -0.360116 0.000000
vt  0.991649 -0.359353 0.000000
vt  0.919819 -0.485800 0.000000
vt  0.989592 -0.492548 0.000000
vt  0.946706 -0.637107 0.000000
vt  0.911739 -0.635251 0.000000
vt  0.864646 -0.632613 0.000000
vt  0.821028 -0.491550 0.000000
vt  0.819943 -0.363385 0.000000
vt  0.816866 -0.280869 0.000000
vt  0.806451 -0.158390 0.000000
vt  0.846582 -0.050722 0.000000
vt  0.878967 -0.024610 0.000000
vt  0.053632 -0.568758 0.000000
vt  0.118577 -0.516234 0.000000
vt  0.025380 -0.423264 0.000000
vt  0.146543 -0.451139 0.000000
vt  0.154138 -0.515439 0.000000
vt  0.208913 -0.579189 0.000000
vt  0.215616 -0.456846 0.000000
vt  0.287298 -0.534202 0.000000
vt  0.312568 -0.458723 0.000000
vt  0.341183 -0.521557 0.000000
vt  0.407300 -0.545037 0.000000
vt  0.396130 -0.449605 0.000000
vt  0.053632 -0.568758 0.000000
vt  0.118577 -0.516234 0.000000
vt  0.154138 -0.515439 0.000000
vt  0.208913 -0.579189 0.000000
vt  0.287298 -0.534202 0.000000
vt  0.341183 -0.521557 0.000000
vt  0.407300 -0.545037 0.000000
vt  0.433541 -0.441676 0.000000
vt  0.439024 -0.560805 0.000000
vt  0.459696 -0.588862 0.000000
vt  0.543574 -0.427498 0.000000
vt  0.459696 -0.588862 0.000000
vt  0.439024 -0.560805 0.000000

vn  -0.317092 -0.856841 0.406541
vn  -0.317092 -0.856841 0.406542
vn  -0.317092 -0.856841 0.406541
vn  -0.317093 -0.856840 -0.406543
vn  -0.317093 -0.856840 -0.406543
vn  -0.317093 -0.856840 -0.406543
vn  -0.672143 0.722046 0.163933
vn  -0.672143 0.722046 0.163933
vn  -0.672143 0.722046 0.163933
vn  -0.629263 0.763601 0.144711
vn  -0.629263 0.763601 0.144711
vn  -0.629263 0.763601 0.144711
vn  -0.629264 0.763600 -0.144710
vn  -0.629264 0.763600 -0.144710
vn  -0.629264 0.763600 -0.144710
vn  -0.672143 0.722046 -0.163931
vn  -0.672143 0.722046 -0.163931
vn  -0.672143 0.722046 -0.163931
vn  -0.176912 -0.341316 -0.923150
vn  0.978745 0.205081 -0.000337
vn  0.558340 -0.829612 0.000184
vn  -0.454063 -0.374955 -0.808229
vn  0.391979 0.620155 -0.679529
vn  -0.215209 -0.368622 -0.904325
vn  0.502039 0.528447 -0.684617
vn  -0.296756 -0.533761 -0.791856
vn  0.517887 0.493880 -0.698481
vn  -0.519871 -0.333344 -0.786521
vn  0.352307 0.659373 -0.664159
vn  0.537732 0.496163 -0.681665
vn  0.675731 0.737148 0.000021
vn  0.558268 0.829661 -0.000164
vn  0.687308 0.726366 -0.000228
vn  0.643301 0.765613 0.000000
vn  0.598275 0.801291 -0.000001
vn  -0.078578 -0.616795 0.783192
vn  0.484827 0.544460 0.684475
vn  -0.151024 -0.325221 0.933500
vn  0.598275 0.801291 -0.000001
vn  0.630150 0.776474 -0.000001
vn  0.392303 0.620445 0.679077
vn  0.451560 0.533138 0.715442
vn  -0.453774 -0.374502 0.808602
vn  -0.358917 -0.492137 0.793082
vn  0.582927 0.510206 0.632365
vn  -0.186944 -0.534754 0.824070
vn  0.657680 0.409985 0.631956
vn  0.667776 0.744362 0.000000
vn  0.078812 0.996889 -0.000427
vn  -0.909177 0.416409 0.000175
vn  0.713321 0.700837 -0.000001
vn  0.848597 0.529040 -0.000000
vn  0.713321 0.700837 -0.000001
vn  0.657563 0.409637 -0.632304
vn  0.848597 0.529040 -0.000000
vn  0.667776 0.744362 0.000000
vn  0.484606 0.544171 -0.684861
vn  0.078812 0.996889 -0.000427
vn  -0.909177 0.416409 0.000175
vn  -0.151238 -0.325503 -0.933367
vn  -0.078988 -0.617051 -0.782949
vn  0.582766 0.509854 -0.632797
vn  0.451268 0.532765 -0.715904
vn  0.630150 0.776474 -0.000001
vn  0.391979 0.620155 -0.679529
vn  0.598275 0.801291 -0.000001
vn  -0.454063 -0.374955 -0.808229
vn  -0.359280 -0.492550 -0.792661
vn  -0.187322 -0.535093 -0.823763
vn  0.831476 0.422582 -0.360655
vn  0.804539 0.553931 -0.214190
vn  0.876492 0.481280 0.011475
vn  0.826650 0.558156 0.071494
vn  0.869571 0.410956 0.273792
vn  0.832458 0.496561 0.245848
vn  0.717590 0.685276 0.124345
vn  -0.032726 0.135050 0.990298
vn  -0.027512 -0.341301 0.939552
vn  -0.392748 0.472592 0.788927
vn  -0.161994 -0.605135 0.779467
vn  0.349449 0.341044 -0.872683
vn  -0.223740 -0.845849 0.484231
vn  0.450704 0.892674 0.000001
vn  0.009069 -0.045649 0.998916
vn  0.024065 0.032296 -0.999189
vn  -0.009069 0.045649 -0.998916
vn  0.027512 0.341301 -0.939552
vn  0.161994 0.605135 -0.779467
vn  0.238316 0.849309 -0.471042
vn  0.450704 0.892674 0.000001
vn  0.238318 0.849307 0.471043
vn  0.220260 -0.508833 0.832211
vn  0.161995 0.605133 0.779469
vn  0.173746 -0.740921 0.648728
vn  0.027514 0.341298 0.939552
vn  -0.021350 -0.120287 -0.992510
vn  -0.009071 0.045645 0.998917
vn  0.030445 -0.050538 -0.998258
vn  -0.223743 -0.845848 -0.484232
vn  -0.161995 -0.605133 -0.779469
vn  -0.027514 -0.341298 -0.939552
vn  0.009071 -0.045645 -0.998917
vn  -0.831476 -0.422582 0.360655
vn  -0.876492 -0.481280 -0.011475
vn  -0.804539 -0.553931 0.214190
vn  -0.826650 -0.558156 -0.071494
vn  -0.717590 -0.685276 -0.124345
vn  -0.832458 -0.496561 -0.245848
vn  -0.869571 -0.410956 -0.273792
vn  -0.831476 -0.422581 -0.360656
vn  -0.804539 -0.553930 -0.214191
vn  -0.876492 -0.481280 0.011474
vn  -0.826650 -0.558156 0.071493
vn  -0.869570 -0.410957 0.273792
vn  -0.832457 -0.496562 0.245848
vn  -0.717590 -0.685276 0.124345
vn  0.831476 0.422581 0.360656
vn  0.876492 0.481280 -0.011474
vn  0.804539 0.553930 0.214191
vn  0.826650 0.558156 -0.071493
vn  0.717590 0.685276 -0.124345
vn  0.832457 0.496562 -0.245848
vn  0.869570 0.410957 -0.273792
vn  0.009069 -0.045649 0.998916
vn  0.024065 0.032296 -0.999189
vn  -0.207547 0.314295 0.926360
vn  -0.179470 0.014234 -0.983660
vn  -0.519184 0.580289 0.627466
vn  -0.243704 -0.390967 0.887555
vn  -0.578718 0.689025 0.436268
vn  0.637072 -0.756429 -0.148172
vn  0.207547 -0.314295 -0.926360
vn  -0.009069 0.045649 -0.998916
vn  0.519184 -0.580289 -0.627466
vn  0.612514 -0.736942 -0.285907
vn  0.673849 -0.738869 -0.000001
vn  0.681360 -0.731948 -0.000001
vn  0.637072 -0.756429 0.148171
vn  0.612514 -0.736942 0.285906
vn  0.764247 0.298891 0.571482
vn  0.519183 -0.580290 0.627465
vn  0.267172 -0.004625 0.963638
vn  0.207546 -0.314297 0.926360
vn  0.030445 -0.050538 -0.998258
vn  -0.009071 0.045645 0.998917
vn  -0.578718 0.689026 -0.436268
vn  -0.519183 0.580290 -0.627465
vn  -0.207546 0.314297 -0.926360
vn  0.009071 -0.045645 -0.998917
vn  0.537940 0.496513 0.681246
vn  0.352740 0.659697 0.663607
vn  -0.176660 -0.341018 0.923308
vn  -0.519638 -0.332873 0.786875
vn  0.518225 0.494316 0.697922
vn  -0.296366 -0.533395 0.792248
vn  0.502260 0.528771 0.684205
vn  -0.214927 -0.368290 0.904527
vn  -0.453774 -0.374502 0.808602
vn  0.392303 0.620445 0.679077
vn  0.598275 0.801291 -0.000001
vn  0.643301 0.765613 0.000000
vn  0.687308 0.726366 -0.000228
vn  0.558268 0.829661 -0.000164
vn  0.675731 0.737148 0.000021
vn  0.978745 0.205081 -0.000337
vn  0.558340 -0.829612 0.000184
vn  -0.176660 -0.341018 0.923308
vn  -0.519638 -0.332873 0.786875
vn  0.558340 -0.829612 0.000184
vn  -0.631035 -0.775754 0.000001
vn  -0.296366 -0.533395 0.792248
vn  -0.214927 -0.368290 0.904527
vn  -0.631035 -0.775754 0.000000
vn  -0.453774 -0.374502 0.808602
vn  -0.631036 -0.775754 0.000001
vn  -0.358917 -0.492137 0.793082
vn  -0.186944 -0.534754 0.824070
vn  -0.631035 -0.775754 0.000001
vn  -0.176912 -0.341316 -0.923150
vn  -0.519871 -0.333344 -0.786521
vn  -0.296756 -0.533761 -0.791856
vn  -0.215209 -0.368622 -0.904325
vn  -0.454063 -0.374955 -0.808229
vn  -0.359280 -0.492550 -0.792661
vn  -0.187322 -0.535093 -0.823763
vn  -0.631036 -0.775754 0.000000
vn  -0.078578 -0.616795 0.783192
vn  -0.151024 -0.325221 0.933500
vn  -0.909177 0.416409 0.000175
vn  -0.151238 -0.325503 -0.933367
vn  -0.078988 -0.617051 -0.782949

g F1239
usemtl F1239_3
f  1/1/1 2/2/2 3/3/3
f  4/4/4 5/5/5 6/6/6
f  7/7/7 8/8/8 9/9/9
f  10/10/10 11/11/11 12/12/12
f  13/13/13 14/14/14 15/15/15
f  16/16/16 17/17/17 18/18/18
f  19/19/19 20/20/20 21/21/21
f  22/22/22 23/23/23 24/24/24
f  25/25/25 24/24/24 23/23/23
f  24/24/24 25/25/25 26/26/26
f  27/27/27 26/26/26 25/25/25
f  26/26/26 27/27/27 28/28/28
f  29/29/29 28/28/28 27/27/27
f  28/28/28 29/29/29 19/19/19
f  30/30/30 19/19/19 29/29/29
f  19/19/19 30/30/30 20/20/20
f  20/20/20 30/30/30 31/31/31
f  31/31/31 30/30/30 32/32/32
f  29/29/29 32/32/32 30/30/30
f  32/32/32 29/29/29 33/33/33
f  27/27/27 33/33/33 29/29/29
f  33/33/33 27/27/27 34/34/34
f  25/25/25 34/34/34 27/27/27
f  34/34/34 25/25/25 35/35/35
f  23/23/23 35/35/35 25/25/25
f  36/36/36 37/37/37 38/38/38
f  39/39/39 40/40/40 41/41/41
f  42/42/42 41/41/41 40/40/40
f  41/41/41 42/42/42 43/43/43
f  43/43/43 42/42/42 44/44/44
f  45/45/45 44/44/44 42/42/42
f  44/44/44 45/45/45 46/46/46
f  46/46/46 45/45/45 36/36/36
f  47/47/47 36/36/36 45/45/45
f  36/36/36 47/47/47 37/37/37
f  48/48/48 37/37/37 47/47/47
f  49/49/49 37/37/37 48/48/48
f  37/37/37 49/49/49 38/38/38
f  50/50/50 38/38/38 49/49/49
f  40/40/40 51/51/51 42/42/42
f  42/42/42 51/51/51 45/45/45
f  45/45/45 51/51/51 47/47/47
f  52/52/52 47/47/47 51/51/51
f  47/47/47 52/52/52 48/48/48
f  53/53/53 54/54/54 55/55/55
f  55/55/55 54/54/54 56/56/56
f  57/57/57 56/56/56 54/54/54
f  56/56/56 57/57/57 58/58/58
f  59/59/59 58/58/58 60/60/60
f  57/57/57 60/60/60 58/58/58
f  60/60/60 57/57/57 61/61/61
f  54/54/54 61/61/61 57/57/57
f  61/61/61 54/54/54 62/62/62
f  53/53/53 62/62/62 54/54/54
f  62/62/62 53/53/53 63/63/63
f  64/64/64 63/63/63 53/53/53
f  63/63/63 64/64/64 65/65/65
f  66/66/66 65/65/65 64/64/64
f  65/65/65 67/67/67 63/63/63
f  68/68/68 63/63/63 67/67/67
f  63/63/63 68/68/68 62/62/62
f  69/69/69 62/62/62 68/68/68
f  62/62/62 69/69/69 61/61/61
f  70/70/70 71/71/71 72/72/72
f  73/73/73 72/72/72 71/71/71
f  72/72/72 73/73/73 74/74/74
f  74/74/74 73/73/73 75/75/75
f  75/75/75 73/73/73 76/76/76
f  71/71/71 76/76/76 73/73/73
f  77/77/77 78/78/78 79/79/79
f  80/80/80 79/79/79 78/78/78
f  79/79/79 80/80/80 81/81/81
f  82/82/82 81/81/81 80/80/80
f  81/81/81 82/82/82 83/83/83
f  77/77/77 84/84/84 78/78/78
f  84/84/84 77/77/77 85/85/85
f  85/85/85 77/77/77 86/86/86
f  86/86/86 77/77/77 87/87/87
f  79/79/79 87/87/87 77/77/77
f  87/87/87 79/79/79 88/88/88
f  81/81/81 88/88/88 79/79/79
f  88/88/88 81/81/81 89/89/89
f  83/83/83 89/89/89 81/81/81
f  89/89/89 83/83/83 90/90/90
f  90/90/90 83/83/83 91/91/91
f  92/92/92 91/91/91 83/83/83
f  91/91/91 92/92/92 93/93/93
f  94/94/94 93/93/93 92/92/92
f  93/93/93 94/94/94 95/95/95
f  96/96/96 95/95/95 94/94/94
f  95/95/95 96/96/96 97/97/97
f  98/98/98 97/97/97 96/96/96
f  83/83/83 99/99/99 92/92/92
f  100/100/100 92/92/92 99/99/99
f  92/92/92 100/100/100 94/94/94
f  101/101/101 94/94/94 100/100/100
f  94/94/94 101/101/101 96/96/96
f  102/102/102 96/96/96 101/101/101
f  96/96/96 102/102/102 98/98/98
f  103/103/103 104/104/104 105/105/105
f  106/106/106 105/105/105 104/104/104
f  105/105/105 106/106/106 107/107/107
f  107/107/107 106/106/106 108/108/108
f  108/108/108 106/106/106 109/109/109
f  104/104/104 109/109/109 106/106/106
f  110/110/110 111/111/111 112/112/112
f  113/113/113 112/112/112 111/111/111
f  112/112/112 113/113/113 114/114/114
f  114/114/114 113/113/113 115/115/115
f  115/115/115 113/113/113 116/116/116
f  111/111/111 116/116/116 113/113/113
f  117/117/117 118/118/118 119/119/119
f  120/120/120 119/119/119 118/118/118
f  119/119/119 120/120/120 121/121/121
f  121/121/121 120/120/120 122/122/122
f  122/122/122 120/120/120 123/123/123
f  118/118/118 123/123/123 120/120/120
f  124/124/124 125/125/125 126/126/126
f  127/127/127 126/126/126 125/125/125
f  126/126/126 127/127/127 128/128/128
f  129/129/129 128/128/128 127/127/127
f  128/128/128 129/129/129 130/130/130
f  131/131/131 130/130/130 129/129/129
f  132/132/132 125/125/125 133/133/133
f  125/125/125 132/132/132 127/127/127
f  134/134/134 127/127/127 132/132/132
f  127/127/127 134/134/134 129/129/129
f  135/135/135 129/129/129 134/134/134
f  129/129/129 135/135/135 131/131/131
f  136/136/136 131/131/131 135/135/135
f  131/131/131 136/136/136 137/137/137
f  137/137/137 136/136/136 138/138/138
f  139/139/139 138/138/138 136/136/136
f  138/138/138 139/139/139 140/140/140
f  141/141/141 140/140/140 139/139/139
f  140/140/140 141/141/141 142/142/142
f  143/143/143 142/142/142 141/141/141
f  142/142/142 143/143/143 144/144/144
f  145/145/145 144/144/144 143/143/143
f  138/138/138 140/140/140 146/146/146
f  146/146/146 140/140/140 147/147/147
f  142/142/142 147/147/147 140/140/140
f  147/147/147 142/142/142 148/148/148
f  144/144/144 148/148/148 142/142/142
f  148/148/148 144/144/144 149/149/149
f  150/150/150 151/151/151 152/152/152
f  152/152/152 151/151/151 153/153/153
f  154/154/154 153/153/153 151/151/151
f  153/153/153 154/154/154 155/155/155
f  156/156/156 155/155/155 154/154/154
f  155/155/155 156/156/156 157/157/157
f  158/158/158 157/157/157 159/159/159
f  156/156/156 159/159/159 157/157/157
f  159/159/159 156/156/156 160/160/160
f  160/160/160 156/156/156 161/161/161
f  154/154/154 161/161/161 156/156/156
f  161/161/161 154/154/154 162/162/162
f  151/151/151 162/162/162 154/154/154
f  162/162/162 151/151/151 163/163/163
f  150/150/150 163/163/163 151/151/151
f  163/163/163 150/150/150 164/164/164
f  164/164/164 150/150/150 165/165/165
f  152/152/152 165/165/165 150/150/150
f  165/165/165 152/152/152 166/166/166
f  167/167/167 168/168/168 169/169/169
f  169/169/169 168/168/168 170/170/170
f  171/171/171 170/170/170 168/168/168
f  172/172/172 170/170/170 171/171/171
f  170/170/170 172/172/172 173/173/173
f  174/174/174 173/173/173 172/172/172
f  173/173/173 174/174/174 175/175/175
f  176/176/176 175/175/175 174/174/174
f  177/177/177 175/175/175 176/176/176
f  175/175/175 177/177/177 178/178/178
f  179/179/179 169/169/169 180/180/180
f  170/170/170 180/180/180 169/169/169
f  180/180/180 170/170/170 181/181/181
f  181/181/181 170/170/170 182/182/182
f  173/173/173 182/182/182 170/170/170
f  182/182/182 173/173/173 183/183/183
f  175/175/175 183/183/183 173/173/173
f  183/183/183 175/175/175 184/184/184
f  184/184/184 175/175/175 185/185/185
f  178/178/178 185/185/185 175/175/175
f  185/185/185 178/178/178 186/186/186
f  177/177/177 186/186/186 178/178/178
f  187/187/187 186/186/186 177/177/177
f  188/188/188 186/186/186 187/187/187
f  189/189/189 186/186/186 188/188/188
f  190/190/190 186/186/186 189/189/189
f  191/191/191 186/186/186 190/190/190
f  186/186/186 191/191/191 185/185/185

g
