# Noesis .obj export.
#
mtllib f1231.mtl
g
v  0.292917 0.196299 0.195319
v  0.325365 0.231359 0.119319
v  0.274359 0.071470 0.000047
v  0.340607 0.263007 0.000048
v  0.270090 0.141253 0.240244
v  0.250614 0.074128 0.261172
v  0.243426 0.018929 0.267305
v  0.236237 -0.042089 0.246163
v  0.236491 -0.089248 0.207168
v  0.236745 -0.127743 0.144428
v  0.237161 -0.145442 0.077839
v  0.237577 -0.148657 0.000047
v  0.237161 -0.145442 -0.077745
v  0.236745 -0.127742 -0.144334
v  0.236491 -0.089247 -0.207074
v  0.236237 -0.042088 -0.246069
v  0.243426 0.018930 -0.267210
v  0.250615 0.074129 -0.261078
v  0.270090 0.141254 -0.240149
v  0.292917 0.196300 -0.195223
v  0.325365 0.231359 -0.119224
v  0.297549 0.020413 -0.246391
v  0.305374 0.067135 -0.242747
v  0.301241 0.067091 0.000047
v  0.320586 0.125445 -0.219000
v  0.289723 -0.032128 -0.231010
v  0.287610 -0.068301 -0.190829
v  0.285498 -0.095810 -0.134742
v  0.283970 -0.113990 -0.072577
v  0.282443 -0.117686 0.000047
v  0.283970 -0.113990 0.072671
v  0.285498 -0.095810 0.134836
v  0.287610 -0.068302 0.190923
v  0.289723 -0.032129 0.231105
v  0.297549 0.020412 0.246486
v  0.305374 0.067134 0.242841
v  0.320586 0.125445 0.219096
v  0.337306 0.173839 0.178229
v  0.343875 0.200618 0.110888
v  0.351027 0.215003 0.000048
v  0.343875 0.200619 -0.110792
v  0.337306 0.173840 -0.178134
v  0.250615 0.074129 -0.261078
v  0.297549 0.020413 -0.246391
v  0.243426 0.018930 -0.267210
v  0.289723 -0.032128 -0.231010
v  0.236237 -0.042088 -0.246069
v  0.236491 -0.089247 -0.207074
v  0.287610 -0.068301 -0.190829
v  0.285498 -0.095810 -0.134742
v  0.236745 -0.127742 -0.144334
v  0.237161 -0.145442 -0.077745
v  0.283970 -0.113990 -0.072577
v  0.282443 -0.117686 0.000047
v  0.237577 -0.148657 0.000047
v  0.237161 -0.145442 0.077839
v  0.283970 -0.113990 0.072671
v  0.285498 -0.095810 0.134836
v  0.236745 -0.127743 0.144428
v  0.236491 -0.089248 0.207168
v  0.287610 -0.068302 0.190923
v  0.289723 -0.032129 0.231105
v  0.236237 -0.042089 0.246163
v  0.243426 0.018929 0.267305
v  0.297549 0.020412 0.246486
v  0.250614 0.074128 0.261172
v  0.305374 0.067134 0.242841
v  0.270090 0.141253 0.240244
v  0.320586 0.125445 0.219096
v  0.292917 0.196299 0.195319
v  0.337306 0.173839 0.178229
v  0.325365 0.231359 0.119319
v  0.343875 0.200618 0.110888
v  0.340607 0.263007 0.000048
v  0.351027 0.215003 0.000048
v  0.343875 0.200619 -0.110792
v  0.325365 0.231359 -0.119224
v  0.337306 0.173840 -0.178134
v  0.292917 0.196300 -0.195223
v  0.320586 0.125445 -0.219000
v  0.270090 0.141254 -0.240149
v  0.305374 0.067135 -0.242747
v  0.345915 0.270712 -0.022397
v  0.355309 0.248986 -0.031720
v  0.337387 0.243300 0.000048
v  0.366008 0.225136 -0.021001
v  0.371184 0.216180 0.000048
v  0.366008 0.225136 0.021097
v  0.355309 0.248986 0.031816
v  0.345915 0.270712 0.022492
v  0.342226 0.282229 0.000048
v  0.357892 0.267959 -0.015684
v  0.354193 0.277222 0.000048
v  0.371255 0.256289 0.000048
v  0.357892 0.267959 0.015779
v  0.365137 0.252799 0.021477
v  0.370990 0.235430 0.015259
v  0.375082 0.228448 0.000048
v  0.370990 0.235430 -0.015163
v  0.365137 0.252799 -0.021381
v  0.366008 0.225136 -0.021001
v  0.371184 0.216180 0.000048
v  0.366008 0.225136 0.021097
v  0.355309 0.248986 0.031816
v  0.345915 0.270712 0.022492
v  0.342226 0.282229 0.000048
v  0.345915 0.270712 -0.022397
v  0.355309 0.248986 -0.031720
v  0.375356 0.111189 -0.147643
v  0.351760 0.170016 -0.147658
v  0.375371 0.185363 -0.083828
v  0.325893 0.230733 -0.147643
v  0.348952 0.244476 -0.083805
v  0.308778 0.262839 -0.141971
v  0.329554 0.275370 -0.083824
v  0.299262 0.306770 -0.083828
v  0.307584 0.314977 0.000048
v  0.339234 0.281437 0.000048
v  0.355087 0.247869 0.000048
v  0.381245 0.188590 0.000048
v  0.397448 0.125692 -0.083828
v  0.375356 0.111189 0.147738
v  0.397448 0.125692 0.083923
v  0.375371 0.185363 0.083923
v  0.348951 0.244476 0.083901
v  0.329554 0.275370 0.083920
v  0.299262 0.306770 0.083924
v  0.308778 0.262839 0.142067
v  0.325893 0.230732 0.147738
v  0.351760 0.170016 0.147753
v  0.375356 0.111189 0.147738
v  0.351760 0.170016 0.147753
v  0.375371 0.185363 0.083923
v  0.325893 0.230732 0.147738
v  0.348951 0.244476 0.083901
v  0.308778 0.262839 0.142067
v  0.329554 0.275370 0.083920
v  0.299262 0.306770 0.083924
v  0.307584 0.314977 0.000048
v  0.339234 0.281437 0.000048
v  0.355087 0.247869 0.000048
v  0.381245 0.188590 0.000048
v  0.397448 0.125692 0.083923
v  0.375356 0.111189 -0.147643
v  0.397448 0.125692 -0.083828
v  0.375371 0.185363 -0.083828
v  0.348952 0.244476 -0.083805
v  0.329554 0.275370 -0.083824
v  0.299262 0.306770 -0.083828
v  0.308778 0.262839 -0.141971
v  0.325893 0.230733 -0.147643
v  0.351760 0.170016 -0.147658

vt  0.502388 -0.023120 0.000000
vt  0.574790 -0.053612 0.000000
vt  0.507469 -0.181469 0.000000
vt  0.621878 -0.108582 0.000000
vt  0.462550 -0.037689 0.000000
vt  0.422711 -0.052257 0.000000
vt  0.397501 -0.080544 0.000000
vt  0.372291 -0.108831 0.000000
vt  0.364917 -0.146933 0.000000
vt  0.357543 -0.185034 0.000000
vt  0.370102 -0.222931 0.000000
vt  0.382662 -0.260828 0.000000
vt  0.370102 -0.222931 0.000000
vt  0.357543 -0.185034 0.000000
vt  0.364917 -0.146933 0.000000
vt  0.372291 -0.108831 0.000000
vt  0.397501 -0.080544 0.000000
vt  0.422711 -0.052257 0.000000
vt  0.462550 -0.037689 0.000000
vt  0.502388 -0.023120 0.000000
vt  0.574790 -0.053612 0.000000
vt  0.397501 -0.080544 0.000000
vt  0.422711 -0.052257 0.000000
vt  0.507469 -0.181469 0.000000
vt  0.462550 -0.037689 0.000000
vt  0.372291 -0.108831 0.000000
vt  0.364917 -0.146933 0.000000
vt  0.357543 -0.185034 0.000000
vt  0.370102 -0.222931 0.000000
vt  0.382662 -0.260828 0.000000
vt  0.370102 -0.222931 0.000000
vt  0.357543 -0.185034 0.000000
vt  0.364917 -0.146933 0.000000
vt  0.372291 -0.108831 0.000000
vt  0.397501 -0.080544 0.000000
vt  0.422711 -0.052257 0.000000
vt  0.462550 -0.037689 0.000000
vt  0.502388 -0.023120 0.000000
vt  0.574790 -0.053612 0.000000
vt  0.621878 -0.108582 0.000000
vt  0.574790 -0.053612 0.000000
vt  0.502388 -0.023120 0.000000
vt  0.022053 -0.522286 0.000000
vt  0.174808 -0.593059 0.000000
vt  0.026027 -0.599573 0.000000
vt  0.178521 -0.665343 0.000000
vt  0.030000 -0.676862 0.000000
vt  0.056962 -0.759500 0.000000
vt  0.203302 -0.742136 0.000000
vt  0.228084 -0.818928 0.000000
vt  0.083924 -0.842138 0.000000
vt  0.128968 -0.910950 0.000000
vt  0.269922 -0.882962 0.000000
vt  0.311761 -0.946996 0.000000
vt  0.174012 -0.979762 0.000000
vt  0.128968 -0.910950 0.000000
vt  0.269922 -0.882962 0.000000
vt  0.228084 -0.818928 0.000000
vt  0.083924 -0.842138 0.000000
vt  0.056962 -0.759500 0.000000
vt  0.203302 -0.742136 0.000000
vt  0.178521 -0.665343 0.000000
vt  0.030000 -0.676862 0.000000
vt  0.026027 -0.599573 0.000000
vt  0.174808 -0.593059 0.000000
vt  0.022053 -0.522286 0.000000
vt  0.171095 -0.520776 0.000000
vt  0.023433 -0.434201 0.000000
vt  0.171801 -0.439488 0.000000
vt  0.024814 -0.346117 0.000000
vt  0.172507 -0.358200 0.000000
vt  0.096056 -0.154176 0.000000
vt  0.238100 -0.179924 0.000000
vt  0.210797 -0.016410 0.000000
vt  0.298831 -0.041450 0.000000
vt  0.238100 -0.179924 0.000000
vt  0.096056 -0.154176 0.000000
vt  0.172507 -0.358200 0.000000
vt  0.024814 -0.346117 0.000000
vt  0.171801 -0.439488 0.000000
vt  0.023433 -0.434201 0.000000
vt  0.171095 -0.520776 0.000000
vt  0.288083 -0.279900 0.000000
vt  0.208984 -0.339422 0.000000
vt  0.338034 -0.379668 0.000000
vt  0.197921 -0.441721 0.000000
vt  0.258123 -0.513422 0.000000
vt  0.197921 -0.441721 0.000000
vt  0.208984 -0.339422 0.000000
vt  0.288083 -0.279900 0.000000
vt  0.395968 -0.282698 0.000000
vt  0.699559 -0.530685 0.000000
vt  0.683896 -0.625439 0.000000
vt  0.805621 -0.581135 0.000000
vt  0.699559 -0.530685 0.000000
vt  0.765263 -0.476475 0.000000
vt  0.856230 -0.476430 0.000000
vt  0.920588 -0.539291 0.000000
vt  0.856230 -0.476430 0.000000
vt  0.765263 -0.476475 0.000000
vt  0.891133 -0.412134 0.000000
vt  0.990002 -0.513424 0.000000
vt  0.891133 -0.412134 0.000000
vt  0.732873 -0.403049 0.000000
vt  0.627901 -0.499259 0.000000
vt  0.613039 -0.650626 0.000000
vt  0.627901 -0.499259 0.000000
vt  0.732873 -0.403049 0.000000
vt  0.984104 -0.637262 0.000000
vt  0.978159 -0.739335 0.000000
vt  0.798305 -0.746818 0.000000
vt  0.972058 -0.845972 0.000000
vt  0.793543 -0.848468 0.000000
vt  0.955876 -0.904610 0.000000
vt  0.793414 -0.904180 0.000000
vt  0.798027 -0.973199 0.000000
vt  0.572484 -0.977110 0.000000
vt  0.570267 -0.903082 0.000000
vt  0.572472 -0.844201 0.000000
vt  0.577910 -0.737876 0.000000
vt  0.804858 -0.644696 0.000000
vt  0.984104 -0.637262 0.000000
vt  0.804858 -0.644696 0.000000
vt  0.798305 -0.746818 0.000000
vt  0.793543 -0.848468 0.000000
vt  0.793414 -0.904180 0.000000
vt  0.798027 -0.973199 0.000000
vt  0.955876 -0.904610 0.000000
vt  0.972058 -0.845972 0.000000
vt  0.978159 -0.739335 0.000000
vt  0.984104 -0.637262 0.000000
vt  0.978159 -0.739335 0.000000
vt  0.798305 -0.746818 0.000000
vt  0.972058 -0.845972 0.000000
vt  0.793543 -0.848468 0.000000
vt  0.955876 -0.904610 0.000000
vt  0.793414 -0.904180 0.000000
vt  0.798027 -0.973199 0.000000
vt  0.572484 -0.977110 0.000000
vt  0.570267 -0.903082 0.000000
vt  0.572472 -0.844201 0.000000
vt  0.577910 -0.737876 0.000000
vt  0.804858 -0.644696 0.000000
vt  0.984104 -0.637262 0.000000
vt  0.804858 -0.644696 0.000000
vt  0.798305 -0.746818 0.000000
vt  0.793543 -0.848468 0.000000
vt  0.793414 -0.904180 0.000000
vt  0.798027 -0.973199 0.000000
vt  0.955876 -0.904610 0.000000
vt  0.972058 -0.845972 0.000000
vt  0.978159 -0.739335 0.000000

vn  -0.347970 0.798318 0.491533
vn  -0.043230 0.974769 0.218991
vn  -0.971295 0.237876 0.000000
vn  0.094142 0.995559 0.000002
vn  -0.455880 0.540931 0.706801
vn  -0.585331 0.260086 0.767947
vn  -0.557435 -0.026716 0.829790
vn  -0.613661 -0.362542 0.701415
vn  -0.543837 -0.678359 0.494035
vn  -0.499907 -0.800248 0.331204
vn  -0.509029 -0.851861 0.123379
vn  -0.523431 -0.852068 -0.000002
vn  -0.509030 -0.851860 -0.123382
vn  -0.499908 -0.800246 -0.331207
vn  -0.543837 -0.678357 -0.494038
vn  -0.613660 -0.362540 -0.701417
vn  -0.557435 -0.026713 -0.829791
vn  -0.585331 0.260088 -0.767946
vn  -0.455881 0.540933 -0.706799
vn  -0.347969 0.798321 -0.491530
vn  -0.043230 0.974770 -0.218987
vn  0.782488 -0.168004 -0.599573
vn  0.794777 -0.034622 -0.605914
vn  0.978419 -0.206632 -0.000000
vn  0.847171 0.069217 -0.526792
vn  0.755433 -0.383008 -0.531625
vn  0.813701 -0.497193 -0.301147
vn  0.844279 -0.501221 -0.189662
vn  0.846747 -0.527183 -0.071399
vn  0.852279 -0.523087 -0.000001
vn  0.846747 -0.527183 0.071397
vn  0.844279 -0.501221 0.189660
vn  0.813702 -0.497194 0.301145
vn  0.755433 -0.383011 0.531624
vn  0.782488 -0.168006 0.599572
vn  0.794777 -0.034624 0.605913
vn  0.847171 0.069215 0.526793
vn  0.898561 0.193964 0.393657
vn  0.986938 0.095251 0.129926
vn  0.999442 -0.033401 0.000000
vn  0.986938 0.095252 -0.129925
vn  0.898561 0.193965 -0.393656
vn  -0.585331 0.260088 -0.767946
vn  0.782488 -0.168004 -0.599573
vn  -0.557435 -0.026713 -0.829791
vn  0.755433 -0.383008 -0.531625
vn  -0.613660 -0.362540 -0.701417
vn  -0.543837 -0.678357 -0.494038
vn  0.813701 -0.497193 -0.301147
vn  0.844279 -0.501221 -0.189662
vn  -0.499908 -0.800246 -0.331207
vn  -0.509030 -0.851860 -0.123382
vn  0.846747 -0.527183 -0.071399
vn  0.852279 -0.523087 -0.000001
vn  -0.523431 -0.852068 -0.000002
vn  -0.509029 -0.851861 0.123379
vn  0.846747 -0.527183 0.071397
vn  0.844279 -0.501221 0.189660
vn  -0.499907 -0.800248 0.331204
vn  -0.543837 -0.678359 0.494035
vn  0.813702 -0.497194 0.301145
vn  0.755433 -0.383011 0.531624
vn  -0.613661 -0.362542 0.701415
vn  -0.557435 -0.026716 0.829790
vn  0.782488 -0.168006 0.599572
vn  -0.585331 0.260086 0.767947
vn  0.794777 -0.034624 0.605913
vn  -0.455880 0.540931 0.706801
vn  0.847171 0.069215 0.526793
vn  -0.347970 0.798318 0.491533
vn  0.898561 0.193964 0.393657
vn  -0.043230 0.974769 0.218991
vn  0.986938 0.095251 0.129926
vn  0.094142 0.995559 0.000002
vn  0.999442 -0.033401 0.000000
vn  0.986938 0.095252 -0.129925
vn  -0.043230 0.974770 -0.218987
vn  0.898561 0.193965 -0.393656
vn  -0.347969 0.798321 -0.491530
vn  0.847171 0.069217 -0.526792
vn  -0.455881 0.540933 -0.706799
vn  0.794777 -0.034622 -0.605914
vn  -0.370815 0.566726 -0.735743
vn  -0.099426 -0.054310 -0.993562
vn  -0.928046 -0.372466 -0.000001
vn  0.172592 -0.685990 -0.706845
vn  0.332368 -0.943150 -0.000000
vn  0.172586 -0.685992 0.706844
vn  -0.099426 -0.054313 0.993562
vn  -0.370815 0.566724 0.735745
vn  -0.461848 0.886959 0.000001
vn  0.612228 0.653488 -0.445118
vn  0.542354 0.840150 0.000001
vn  0.918784 0.394762 0.000001
vn  0.612227 0.653487 0.445121
vn  0.769035 0.311817 0.557993
vn  0.901773 -0.004156 0.432190
vn  0.990556 -0.137107 -0.000000
vn  0.901774 -0.004152 -0.432188
vn  0.769035 0.311818 -0.557992
vn  0.172592 -0.685990 -0.706845
vn  0.332368 -0.943150 -0.000000
vn  0.172586 -0.685992 0.706844
vn  -0.099426 -0.054313 0.993562
vn  -0.370815 0.566724 0.735745
vn  -0.461848 0.886959 0.000001
vn  -0.370815 0.566726 -0.735743
vn  -0.099426 -0.054310 -0.993562
vn  0.860381 0.332293 -0.386427
vn  0.847998 0.350153 -0.397860
vn  0.899185 0.368341 -0.236200
vn  0.817120 0.423643 -0.390950
vn  0.859255 0.449065 -0.244992
vn  0.754564 0.531013 -0.385562
vn  0.761650 0.593710 -0.259609
vn  0.699733 0.675027 -0.233905
vn  0.725006 0.688743 0.000001
vn  0.817620 0.575759 0.000001
vn  0.909614 0.415456 0.000002
vn  0.921352 0.388728 0.000001
vn  0.902527 0.333917 -0.271926
vn  0.860381 0.332292 0.386429
vn  0.902527 0.333917 0.271928
vn  0.899185 0.368341 0.236202
vn  0.859255 0.449065 0.244993
vn  0.761651 0.593709 0.259611
vn  0.699734 0.675026 0.233907
vn  0.754565 0.531011 0.385563
vn  0.817120 0.423642 0.390951
vn  0.847997 0.350152 0.397862
vn  -0.860381 -0.332292 -0.386429
vn  -0.847997 -0.350152 -0.397862
vn  -0.899185 -0.368341 -0.236202
vn  -0.817120 -0.423642 -0.390951
vn  -0.859255 -0.449065 -0.244993
vn  -0.754565 -0.531011 -0.385563
vn  -0.761651 -0.593709 -0.259611
vn  -0.699734 -0.675026 -0.233907
vn  -0.725006 -0.688743 -0.000001
vn  -0.817620 -0.575759 -0.000001
vn  -0.909614 -0.415456 -0.000002
vn  -0.921352 -0.388728 -0.000001
vn  -0.902527 -0.333917 -0.271928
vn  -0.860381 -0.332293 0.386427
vn  -0.902527 -0.333917 0.271926
vn  -0.899185 -0.368341 0.236200
vn  -0.859255 -0.449065 0.244992
vn  -0.761650 -0.593710 0.259609
vn  -0.699733 -0.675027 0.233905
vn  -0.754564 -0.531013 0.385562
vn  -0.817120 -0.423643 0.390950
vn  -0.847998 -0.350153 0.397860

g F1231
usemtl F1231_3
f  1/1/1 2/2/2 3/3/3
f  4/4/4 3/3/3 2/2/2
f  3/3/3 5/5/5 1/1/1
f  5/5/5 3/3/3 6/6/6
f  6/6/6 3/3/3 7/7/7
f  7/7/7 3/3/3 8/8/8
f  8/8/8 3/3/3 9/9/9
f  9/9/9 3/3/3 10/10/10
f  10/10/10 3/3/3 11/11/11
f  11/11/11 3/3/3 12/12/12
f  12/12/12 3/3/3 13/13/13
f  13/13/13 3/3/3 14/14/14
f  14/14/14 3/3/3 15/15/15
f  15/15/15 3/3/3 16/16/16
f  16/16/16 3/3/3 17/17/17
f  17/17/17 3/3/3 18/18/18
f  18/18/18 3/3/3 19/19/19
f  19/19/19 3/3/3 20/20/20
f  20/20/20 3/3/3 21/21/21
f  4/4/4 21/21/21 3/3/3
f  22/22/22 23/23/23 24/24/24
f  25/25/25 24/24/24 23/23/23
f  24/24/24 26/26/26 22/22/22
f  26/26/26 24/24/24 27/27/27
f  27/27/27 24/24/24 28/28/28
f  28/28/28 24/24/24 29/29/29
f  29/29/29 24/24/24 30/30/30
f  30/30/30 24/24/24 31/31/31
f  31/31/31 24/24/24 32/32/32
f  32/32/32 24/24/24 33/33/33
f  33/33/33 24/24/24 34/34/34
f  34/34/34 24/24/24 35/35/35
f  35/35/35 24/24/24 36/36/36
f  36/36/36 24/24/24 37/37/37
f  37/37/37 24/24/24 38/38/38
f  38/38/38 24/24/24 39/39/39
f  39/39/39 24/24/24 40/40/40
f  40/40/40 24/24/24 41/41/41
f  41/41/41 24/24/24 42/42/42
f  25/25/25 42/42/42 24/24/24
f  43/43/43 44/44/44 45/45/45
f  46/46/46 45/45/45 44/44/44
f  45/45/45 46/46/46 47/47/47
f  48/48/48 47/47/47 46/46/46
f  46/46/46 49/49/49 48/48/48
f  50/50/50 48/48/48 49/49/49
f  48/48/48 50/50/50 51/51/51
f  51/51/51 50/50/50 52/52/52
f  53/53/53 52/52/52 50/50/50
f  54/54/54 52/52/52 53/53/53
f  52/52/52 54/54/54 55/55/55
f  55/55/55 54/54/54 56/56/56
f  57/57/57 56/56/56 54/54/54
f  58/58/58 56/56/56 57/57/57
f  56/56/56 58/58/58 59/59/59
f  59/59/59 58/58/58 60/60/60
f  61/61/61 60/60/60 58/58/58
f  62/62/62 60/60/60 61/61/61
f  60/60/60 62/62/62 63/63/63
f  63/63/63 62/62/62 64/64/64
f  65/65/65 64/64/64 62/62/62
f  64/64/64 65/65/65 66/66/66
f  65/65/65 67/67/67 66/66/66
f  66/66/66 67/67/67 68/68/68
f  69/69/69 68/68/68 67/67/67
f  68/68/68 69/69/69 70/70/70
f  71/71/71 70/70/70 69/69/69
f  70/70/70 71/71/71 72/72/72
f  73/73/73 72/72/72 71/71/71
f  72/72/72 73/73/73 74/74/74
f  75/75/75 74/74/74 73/73/73
f  76/76/76 74/74/74 75/75/75
f  74/74/74 76/76/76 77/77/77
f  78/78/78 77/77/77 76/76/76
f  77/77/77 78/78/78 79/79/79
f  80/80/80 79/79/79 78/78/78
f  79/79/79 80/80/80 81/81/81
f  82/82/82 81/81/81 80/80/80
f  81/81/81 82/82/82 43/43/43
f  44/44/44 43/43/43 82/82/82
f  83/83/83 84/84/84 85/85/85
f  86/86/86 85/85/85 84/84/84
f  87/87/87 85/85/85 86/86/86
f  88/88/88 85/85/85 87/87/87
f  89/89/89 85/85/85 88/88/88
f  90/90/90 85/85/85 89/89/89
f  91/91/91 85/85/85 90/90/90
f  85/85/85 91/91/91 83/83/83
f  92/92/92 93/93/93 94/94/94
f  95/95/95 94/94/94 93/93/93
f  96/96/96 94/94/94 95/95/95
f  97/97/97 94/94/94 96/96/96
f  98/98/98 94/94/94 97/97/97
f  99/99/99 94/94/94 98/98/98
f  100/100/100 94/94/94 99/99/99
f  94/94/94 100/100/100 92/92/92
f  101/101/101 99/99/99 102/102/102
f  98/98/98 102/102/102 99/99/99
f  97/97/97 102/102/102 98/98/98
f  102/102/102 97/97/97 103/103/103
f  103/103/103 97/97/97 104/104/104
f  96/96/96 104/104/104 97/97/97
f  104/104/104 96/96/96 105/105/105
f  95/95/95 105/105/105 96/96/96
f  105/105/105 95/95/95 106/106/106
f  93/93/93 106/106/106 95/95/95
f  92/92/92 106/106/106 93/93/93
f  106/106/106 92/92/92 107/107/107
f  100/100/100 107/107/107 92/92/92
f  107/107/107 100/100/100 108/108/108
f  99/99/99 108/108/108 100/100/100
f  108/108/108 99/99/99 101/101/101
f  109/109/109 110/110/110 111/111/111
f  112/112/112 111/111/111 110/110/110
f  111/111/111 112/112/112 113/113/113
f  114/114/114 113/113/113 112/112/112
f  113/113/113 114/114/114 115/115/115
f  116/116/116 115/115/115 114/114/114
f  117/117/117 115/115/115 116/116/116
f  118/118/118 115/115/115 117/117/117
f  115/115/115 118/118/118 113/113/113
f  119/119/119 113/113/113 118/118/118
f  120/120/120 113/113/113 119/119/119
f  113/113/113 120/120/120 111/111/111
f  121/121/121 111/111/111 120/120/120
f  111/111/111 121/121/121 109/109/109
f  122/122/122 123/123/123 124/124/124
f  120/120/120 124/124/124 123/123/123
f  124/124/124 120/120/120 125/125/125
f  119/119/119 125/125/125 120/120/120
f  118/118/118 125/125/125 119/119/119
f  125/125/125 118/118/118 126/126/126
f  117/117/117 126/126/126 118/118/118
f  127/127/127 126/126/126 117/117/117
f  128/128/128 126/126/126 127/127/127
f  126/126/126 128/128/128 125/125/125
f  129/129/129 125/125/125 128/128/128
f  125/125/125 129/129/129 124/124/124
f  130/130/130 124/124/124 129/129/129
f  124/124/124 130/130/130 122/122/122
f  131/131/131 132/132/132 133/133/133
f  134/134/134 133/133/133 132/132/132
f  133/133/133 134/134/134 135/135/135
f  136/136/136 135/135/135 134/134/134
f  135/135/135 136/136/136 137/137/137
f  138/138/138 137/137/137 136/136/136
f  139/139/139 137/137/137 138/138/138
f  140/140/140 137/137/137 139/139/139
f  137/137/137 140/140/140 135/135/135
f  141/141/141 135/135/135 140/140/140
f  142/142/142 135/135/135 141/141/141
f  135/135/135 142/142/142 133/133/133
f  143/143/143 133/133/133 142/142/142
f  133/133/133 143/143/143 131/131/131
f  144/144/144 145/145/145 146/146/146
f  142/142/142 146/146/146 145/145/145
f  146/146/146 142/142/142 147/147/147
f  141/141/141 147/147/147 142/142/142
f  140/140/140 147/147/147 141/141/141
f  147/147/147 140/140/140 148/148/148
f  139/139/139 148/148/148 140/140/140
f  149/149/149 148/148/148 139/139/139
f  150/150/150 148/148/148 149/149/149
f  148/148/148 150/150/150 147/147/147
f  151/151/151 147/147/147 150/150/150
f  147/147/147 151/151/151 146/146/146
f  152/152/152 146/146/146 151/151/151
f  146/146/146 152/152/152 144/144/144

g
