# Noesis .obj export.
#
mtllib f1266.mtl
g
v  0.087791 0.111565 0.283089
v  0.121479 0.100581 0.294912
v  0.088045 0.145902 0.273231
v  0.124346 0.138213 0.290371
v  0.088299 0.182293 0.259931
v  0.126467 0.175698 0.278209
v  0.088553 0.220733 0.242312
v  0.127841 0.213028 0.257471
v  0.088807 0.261219 0.219437
v  0.128469 0.250201 0.227393
v  0.151693 0.089595 0.297180
v  0.157326 0.128837 0.294253
v  0.161422 0.166850 0.281814
v  0.163982 0.203634 0.259279
v  0.165004 0.239184 0.226229
v  0.178432 0.078602 0.288500
v  0.186983 0.117763 0.282867
v  0.193164 0.155744 0.268794
v  0.196974 0.192546 0.246182
v  0.198414 0.228167 0.215017
v  0.228697 0.217150 0.193732
v  0.226819 0.179762 0.217701
v  0.221693 0.142374 0.238091
v  0.213319 0.104985 0.254947
v  0.201697 0.067597 0.268197
v  0.087791 0.111566 -0.283088
v  0.088045 0.145903 -0.273230
v  0.121479 0.100581 -0.294912
v  0.124346 0.138214 -0.290371
v  0.151693 0.089596 -0.297179
v  0.157326 0.128837 -0.294253
v  0.178432 0.078603 -0.288500
v  0.186983 0.117763 -0.282867
v  0.201697 0.067597 -0.268197
v  0.213319 0.104986 -0.254947
v  0.088299 0.182293 -0.259931
v  0.126467 0.175698 -0.278209
v  0.161422 0.166851 -0.281814
v  0.193164 0.155745 -0.268793
v  0.221693 0.142374 -0.238091
v  0.088553 0.220734 -0.242311
v  0.127841 0.213029 -0.257471
v  0.163982 0.203634 -0.259278
v  0.196974 0.192546 -0.246181
v  0.226819 0.179762 -0.217700
v  0.088807 0.261219 -0.219436
v  0.128469 0.250202 -0.227392
v  0.165004 0.239184 -0.226228
v  0.198414 0.228167 -0.215017
v  0.228697 0.217150 -0.193732

vt  1.000000 -1.000000 0.000000
vt  1.000000 -0.750000 0.000000
vt  0.750000 -1.000000 0.000000
vt  0.750000 -0.750000 0.000000
vt  0.500000 -1.000000 0.000000
vt  0.500000 -0.750000 0.000000
vt  0.250000 -1.000000 0.000000
vt  0.250000 -0.750000 0.000000
vt  0.000000 -1.000000 0.000000
vt  0.000000 -0.750000 0.000000
vt  1.000000 -0.500000 0.000000
vt  0.750000 -0.500000 0.000000
vt  0.500000 -0.500000 0.000000
vt  0.250000 -0.500000 0.000000
vt  0.000000 -0.500000 0.000000
vt  1.000000 -0.250000 0.000000
vt  0.750000 -0.250000 0.000000
vt  0.500000 -0.250000 0.000000
vt  0.250000 -0.250000 0.000000
vt  0.000000 -0.250000 0.000000
vt  0.000000 -0.000000 0.000000
vt  0.250000 -0.000000 0.000000
vt  0.500000 -0.000000 0.000000
vt  0.750000 -0.000000 0.000000
vt  1.000000 -0.000000 0.000000
vt  1.000000 -1.000000 0.000000
vt  0.750000 -1.000000 0.000000
vt  1.000000 -0.750000 0.000000
vt  0.750000 -0.750000 0.000000
vt  1.000000 -0.500000 0.000000
vt  0.750000 -0.500000 0.000000
vt  1.000000 -0.250000 0.000000
vt  0.750000 -0.250000 0.000000
vt  1.000000 -0.000000 0.000000
vt  0.750000 -0.000000 0.000000
vt  0.500000 -1.000000 0.000000
vt  0.500000 -0.750000 0.000000
vt  0.500000 -0.500000 0.000000
vt  0.500000 -0.250000 0.000000
vt  0.500000 -0.000000 0.000000
vt  0.250000 -1.000000 0.000000
vt  0.250000 -0.750000 0.000000
vt  0.250000 -0.500000 0.000000
vt  0.250000 -0.250000 0.000000
vt  0.250000 -0.000000 0.000000
vt  0.000000 -1.000000 0.000000
vt  0.000000 -0.750000 0.000000
vt  0.000000 -0.500000 0.000000
vt  0.000000 -0.250000 0.000000
vt  0.000000 -0.000000 0.000000

vn  -0.239464 0.269560 0.932735
vn  -0.156059 0.155584 0.975418
vn  -0.338416 0.275809 0.899669
vn  -0.212260 0.222284 0.951596
vn  -0.347796 0.362125 0.864814
vn  -0.162784 0.393005 0.905013
vn  -0.254507 0.462974 0.849048
vn  -0.043542 0.547701 0.835541
vn  -0.099581 0.565506 0.818711
vn  0.087421 0.638107 0.764968
vn  0.157499 0.060921 0.985638
vn  0.171119 0.174196 0.969729
vn  0.240296 0.381989 0.892380
vn  0.297489 0.554166 0.777432
vn  0.328028 0.631733 0.702361
vn  0.515051 0.000032 0.857159
vn  0.572615 0.103942 0.813209
vn  0.614771 0.276251 0.738744
vn  0.599371 0.439871 0.668781
vn  0.558062 0.506887 0.656988
vn  0.619926 0.401170 0.674354
vn  0.698508 0.349477 0.624461
vn  0.749217 0.201690 0.630868
vn  0.742914 0.072240 0.665478
vn  0.690809 -0.008816 0.722983
vn  -0.239463 0.269563 -0.932734
vn  -0.338416 0.275812 -0.899668
vn  -0.156058 0.155586 -0.975417
vn  -0.212260 0.222286 -0.951596
vn  0.157499 0.060923 -0.985638
vn  0.171118 0.174198 -0.969729
vn  0.515051 0.000034 -0.857160
vn  0.572615 0.103944 -0.813209
vn  0.690809 -0.008814 -0.722983
vn  0.742914 0.072242 -0.665477
vn  -0.347796 0.362127 -0.864813
vn  -0.162784 0.393007 -0.905012
vn  0.240296 0.381991 -0.892379
vn  0.614771 0.276253 -0.738743
vn  0.749217 0.201692 -0.630868
vn  -0.254506 0.462976 -0.849046
vn  -0.043541 0.547703 -0.835539
vn  0.297489 0.554168 -0.777430
vn  0.599371 0.439873 -0.668780
vn  0.698508 0.349478 -0.624460
vn  -0.099581 0.565508 -0.818709
vn  0.087421 0.638109 -0.764967
vn  0.328028 0.631735 -0.702360
vn  0.558062 0.506889 -0.656986
vn  0.619926 0.401172 -0.674354

g F1266
usemtl F1266_3
f  1/1/1 2/2/2 3/3/3
f  4/4/4 3/3/3 2/2/2
f  3/3/3 4/4/4 5/5/5
f  6/6/6 5/5/5 4/4/4
f  5/5/5 6/6/6 7/7/7
f  8/8/8 7/7/7 6/6/6
f  7/7/7 8/8/8 9/9/9
f  10/10/10 9/9/9 8/8/8
f  2/2/2 11/11/11 4/4/4
f  12/12/12 4/4/4 11/11/11
f  4/4/4 12/12/12 6/6/6
f  13/13/13 6/6/6 12/12/12
f  6/6/6 13/13/13 8/8/8
f  14/14/14 8/8/8 13/13/13
f  8/8/8 14/14/14 10/10/10
f  15/15/15 10/10/10 14/14/14
f  11/11/11 16/16/16 12/12/12
f  17/17/17 12/12/12 16/16/16
f  12/12/12 17/17/17 13/13/13
f  18/18/18 13/13/13 17/17/17
f  13/13/13 18/18/18 14/14/14
f  19/19/19 14/14/14 18/18/18
f  14/14/14 19/19/19 15/15/15
f  20/20/20 15/15/15 19/19/19
f  21/21/21 20/20/20 22/22/22
f  19/19/19 22/22/22 20/20/20
f  22/22/22 19/19/19 23/23/23
f  18/18/18 23/23/23 19/19/19
f  23/23/23 18/18/18 24/24/24
f  17/17/17 24/24/24 18/18/18
f  24/24/24 17/17/17 25/25/25
f  16/16/16 25/25/25 17/17/17
f  26/26/26 27/27/27 28/28/28
f  29/29/29 28/28/28 27/27/27
f  28/28/28 29/29/29 30/30/30
f  31/31/31 30/30/30 29/29/29
f  30/30/30 31/31/31 32/32/32
f  33/33/33 32/32/32 31/31/31
f  32/32/32 33/33/33 34/34/34
f  35/35/35 34/34/34 33/33/33
f  27/27/27 36/36/36 29/29/29
f  37/37/37 29/29/29 36/36/36
f  29/29/29 37/37/37 31/31/31
f  38/38/38 31/31/31 37/37/37
f  31/31/31 38/38/38 33/33/33
f  39/39/39 33/33/33 38/38/38
f  33/33/33 39/39/39 35/35/35
f  40/40/40 35/35/35 39/39/39
f  36/36/36 41/41/41 37/37/37
f  42/42/42 37/37/37 41/41/41
f  37/37/37 42/42/42 38/38/38
f  43/43/43 38/38/38 42/42/42
f  38/38/38 43/43/43 39/39/39
f  44/44/44 39/39/39 43/43/43
f  39/39/39 44/44/44 40/40/40
f  45/45/45 40/40/40 44/44/44
f  41/41/41 46/46/46 42/42/42
f  47/47/47 42/42/42 46/46/46
f  42/42/42 47/47/47 43/43/43
f  48/48/48 43/43/43 47/47/47
f  43/43/43 48/48/48 44/44/44
f  49/49/49 44/44/44 48/48/48
f  44/44/44 49/49/49 45/45/45
f  50/50/50 45/45/45 49/49/49

g
