# Noesis .obj export.
#
mtllib G1103.mtl
g
v  0.062523 -0.080641 -0.220332
v  0.211729 -0.032793 0.000000
v  0.076075 0.002290 -0.226742
v  0.062523 -0.080641 0.220332
v  0.211705 -0.032734 0.000000
v  0.057444 -0.152018 0.188229
v  0.211689 -0.032936 0.000000
v  0.054038 -0.219380 0.118612
v  0.211705 -0.032734 0.000000
v  0.065743 -0.249864 0.000000
v  0.054038 -0.219380 -0.118611
v  0.211689 -0.032936 0.000000
v  0.057444 -0.152018 -0.188229
v  0.211729 -0.032793 0.000000
v  0.076075 0.002290 0.226742
v  0.211705 -0.032734 0.000000
v  0.103339 0.089670 -0.208387
v  0.211782 -0.032587 0.000000
v  0.161391 0.180240 -0.164590
v  0.211705 -0.032734 0.000000
v  0.179883 0.216586 -0.079665
v  0.204068 0.101420 0.000000
v  0.196471 0.232672 0.000000
v  0.179883 0.216586 0.079666
v  0.161391 0.180240 0.164590
v  0.211782 -0.032587 0.000000
v  0.103339 0.089670 0.208388
v  0.076075 0.002290 -0.226742
v  0.103339 0.089670 -0.208387
v  0.170413 0.071214 -0.224494
v  0.161391 0.180240 -0.164590
v  0.224946 0.187082 -0.103158
v  0.241936 0.195141 -0.120083
v  0.179883 0.216586 -0.079665
v  0.256468 0.151594 -0.227022
v  0.283681 0.046065 -0.301326
v  0.158688 -0.018391 -0.245784
v  0.062523 -0.080641 -0.220332
v  0.145541 -0.091735 -0.231512
v  0.121945 -0.163894 -0.187500
v  0.057444 -0.152018 -0.188229
v  0.107333 -0.225037 -0.116040
v  0.054038 -0.219380 -0.118611
v  0.065743 -0.249864 0.000000
v  0.234003 0.141062 -0.196893
v  0.259409 0.043201 -0.261902
v  0.258115 -0.042170 -0.271135
v  0.286537 -0.066290 -0.326737
v  0.261163 -0.138352 -0.267313
v  0.285865 -0.168177 -0.306257
v  0.252661 -0.253113 -0.233570
v  0.150891 -0.271733 -0.128810
v  0.117587 -0.266241 0.000000
v  0.107333 -0.225037 0.116040
v  0.054038 -0.219380 0.118612
v  0.057444 -0.152018 0.188229
v  0.401472 0.008435 -0.291183
v  0.355497 -0.066332 -0.284986
v  0.345455 -0.158436 -0.274450
v  0.303083 -0.236467 -0.221725
v  0.229350 -0.210993 -0.206785
v  0.275236 -0.298468 -0.139657
v  0.144343 -0.234905 -0.115574
v  0.163564 -0.270672 0.000000
v  0.160101 -0.300879 0.000000
v  0.150891 -0.271733 0.128810
v  0.121945 -0.163894 0.187501
v  0.062523 -0.080641 0.220332
v  0.285865 -0.168177 0.306257
v  0.252661 -0.253113 0.233571
v  0.229350 -0.210993 0.206785
v  0.144343 -0.234905 0.115574
v  0.145541 -0.091735 0.231512
v  0.158688 -0.018391 0.245785
v  0.076075 0.002290 0.226742
v  0.170413 0.071214 0.224495
v  0.103339 0.089670 0.208388
v  0.161391 0.180240 0.164590
v  0.283681 0.046065 0.301326
v  0.256468 0.151594 0.227023
v  0.241936 0.195141 0.120084
v  0.179883 0.216586 0.079666
v  0.286537 -0.066291 0.326738
v  0.261163 -0.138352 0.267313
v  0.258115 -0.042170 0.271135
v  0.259409 0.043201 0.261903
v  0.234003 0.141062 0.196893
v  0.224946 0.187082 0.103159
v  0.279536 0.194876 0.000000
v  0.196471 0.232672 0.000000
v  0.512228 0.161755 -0.140527
v  0.465042 0.096440 -0.247321
v  0.539401 0.190414 0.000000
v  0.512228 0.161755 0.140528
v  0.465042 0.096440 0.247321
v  0.401472 0.008435 0.291183
v  0.355497 -0.066332 0.284986
v  0.345455 -0.158436 0.274451
v  0.303083 -0.236467 0.221726
v  0.275236 -0.298468 0.139657
v  0.277093 -0.351681 0.000000
v  0.219147 -0.007184 0.248048
v  0.426352 -0.187356 0.303441
v  0.319553 -0.234557 0.311388
v  0.465264 -0.338691 0.277531
v  0.395048 -0.379238 0.273395
v  0.543607 -0.430606 0.195794
v  0.509501 -0.464838 0.188896
v  0.723535 -0.520578 0.021579
v  0.496005 -0.463625 0.105529
v  0.367896 -0.393684 0.178985
v  0.267804 -0.276750 0.221149
v  0.426352 -0.187356 0.303441
v  0.219147 -0.007184 0.248048
v  0.319553 -0.234557 0.311388
v  0.267804 -0.276750 0.221149
v  0.395048 -0.379238 0.273395
v  0.367896 -0.393684 0.178985
v  0.509501 -0.464838 0.188896
v  0.496005 -0.463625 0.105529
v  0.723535 -0.520578 0.021580
v  0.543607 -0.430606 0.195794
v  0.465264 -0.338691 0.277531
v  0.371947 -0.108643 0.000000
v  0.277093 -0.351681 0.000000
v  0.382672 -0.081098 0.000000
v  0.275236 -0.298468 -0.139657
v  0.303083 -0.236467 -0.221725
v  0.345455 -0.158436 -0.274450
v  0.355497 -0.066332 -0.284986
v  0.401472 0.008435 -0.291183
v  0.465042 0.096440 -0.247321
v  0.512228 0.161755 -0.140527
v  0.539401 0.190414 0.000000
v  0.512228 0.161755 0.140528
v  0.465042 0.096440 0.247321
v  0.401472 0.008435 0.291183
v  0.355497 -0.066332 0.284986
v  0.345455 -0.158436 0.274451
v  0.303083 -0.236467 0.221726
v  0.275236 -0.298468 0.139657

vt  0.883290 -0.079999 0.000000
vt  0.723586 -0.240137 0.000000
vt  0.820603 -0.033311 0.000000
vt  0.883290 -0.079999 0.000000
vt  0.723640 -0.240170 0.000000
vt  0.932333 -0.146796 0.000000
vt  0.723709 -0.240212 0.000000
vt  0.959396 -0.228865 0.000000
vt  0.723868 -0.240284 0.000000
vt  0.949510 -0.315062 0.000000
vt  0.959396 -0.228865 0.000000
vt  0.723709 -0.240212 0.000000
vt  0.932333 -0.146796 0.000000
vt  0.723586 -0.240137 0.000000
vt  0.820603 -0.033311 0.000000
vt  0.723530 -0.240103 0.000000
vt  0.747663 -0.011309 0.000000
vt  0.723408 -0.240058 0.000000
vt  0.631802 -0.018262 0.000000
vt  0.723181 -0.239915 0.000000
vt  0.578817 -0.069657 0.000000
vt  0.626223 -0.179406 0.000000
vt  0.531104 -0.119867 0.000000
vt  0.578817 -0.069657 0.000000
vt  0.631802 -0.018262 0.000000
vt  0.723408 -0.240058 0.000000
vt  0.747663 -0.011309 0.000000
vt  0.320849 -0.685998 0.000000
vt  0.242144 -0.604390 0.000000
vt  0.290682 -0.557755 0.000000
vt  0.142314 -0.468017 0.000000
vt  0.145688 -0.348257 0.000000
vt  0.157887 -0.369678 0.000000
vt  0.079486 -0.382087 0.000000
vt  0.268857 -0.432877 0.000000
vt  0.405983 -0.474064 0.000000
vt  0.375232 -0.624660 0.000000
vt  0.399961 -0.774336 0.000000
vt  0.455281 -0.692633 0.000000
vt  0.540247 -0.785132 0.000000
vt  0.497133 -0.852543 0.000000
vt  0.626834 -0.878632 0.000000
vt  0.596943 -0.924817 0.000000
vt  0.699151 -0.989784 0.000000
vt  0.265078 -0.390899 0.000000
vt  0.412074 -0.423828 0.000000
vt  0.511958 -0.463622 0.000000
vt  0.504685 -0.529703 0.000000
vt  0.613322 -0.534109 0.000000
vt  0.584066 -0.581182 0.000000
vt  0.649451 -0.662409 0.000000
vt  0.692666 -0.822928 0.000000
vt  0.723868 -0.959722 0.000000
vt  0.626834 -0.878632 0.000000
vt  0.596943 -0.924817 0.000000
vt  0.497133 -0.852543 0.000000
vt  0.515115 -0.304938 0.000000
vt  0.588548 -0.380843 0.000000
vt  0.686469 -0.458832 0.000000
vt  0.779480 -0.546077 0.000000
vt  0.694897 -0.636859 0.000000
vt  0.867166 -0.625577 0.000000
vt  0.732846 -0.796776 0.000000
vt  0.821379 -0.878745 0.000000
vt  0.786458 -0.926900 0.000000
vt  0.692666 -0.822928 0.000000
vt  0.540247 -0.785132 0.000000
vt  0.399961 -0.774336 0.000000
vt  0.584066 -0.581182 0.000000
vt  0.649451 -0.662409 0.000000
vt  0.694897 -0.636859 0.000000
vt  0.732846 -0.796776 0.000000
vt  0.455281 -0.692633 0.000000
vt  0.375232 -0.624660 0.000000
vt  0.320849 -0.685998 0.000000
vt  0.290682 -0.557755 0.000000
vt  0.242144 -0.604390 0.000000
vt  0.142314 -0.468017 0.000000
vt  0.405983 -0.474064 0.000000
vt  0.268857 -0.432877 0.000000
vt  0.157887 -0.369678 0.000000
vt  0.079486 -0.382087 0.000000
vt  0.504685 -0.529703 0.000000
vt  0.613322 -0.534109 0.000000
vt  0.511958 -0.463622 0.000000
vt  0.412074 -0.423828 0.000000
vt  0.265078 -0.390899 0.000000
vt  0.145688 -0.348257 0.000000
vt  0.066673 -0.242927 0.000000
vt  0.006560 -0.320417 0.000000
vt  0.316902 -0.100196 0.000000
vt  0.428640 -0.200840 0.000000
vt  0.184976 -0.005343 0.000000
vt  0.316902 -0.100196 0.000000
vt  0.428640 -0.200840 0.000000
vt  0.515115 -0.304938 0.000000
vt  0.588548 -0.380843 0.000000
vt  0.686469 -0.458832 0.000000
vt  0.779480 -0.546077 0.000000
vt  0.867166 -0.625577 0.000000
vt  0.993151 -0.737754 0.000000
vt  0.993341 -0.707318 0.000000
vt  0.921797 -0.351034 0.000000
vt  0.778757 -0.479017 0.000000
vt  0.711650 -0.272089 0.000000
vt  0.616141 -0.368001 0.000000
vt  0.550075 -0.173308 0.000000
vt  0.489038 -0.233993 0.000000
vt  0.273114 -0.007015 0.000000
vt  0.550075 -0.173308 0.000000
vt  0.711650 -0.272089 0.000000
vt  0.921797 -0.351034 0.000000
vt  0.921797 -0.351034 0.000000
vt  0.993341 -0.707318 0.000000
vt  0.778757 -0.479017 0.000000
vt  0.921797 -0.351034 0.000000
vt  0.616141 -0.368001 0.000000
vt  0.711650 -0.272089 0.000000
vt  0.489038 -0.233993 0.000000
vt  0.550075 -0.173308 0.000000
vt  0.273114 -0.007015 0.000000
vt  0.550075 -0.173308 0.000000
vt  0.711650 -0.272089 0.000000
vt  0.334778 -0.739636 0.000000
vt  0.505823 -0.926100 0.000000
vt  0.315283 -0.718609 0.000000
vt  0.371195 -0.980552 0.000000
vt  0.274599 -0.992535 0.000000
vt  0.177927 -0.961775 0.000000
vt  0.105032 -0.898439 0.000000
vt  0.045050 -0.840033 0.000000
vt  0.007167 -0.732192 0.000000
vt  0.032479 -0.604974 0.000000
vt  0.109011 -0.487811 0.000000
vt  0.032479 -0.604974 0.000000
vt  0.007167 -0.732192 0.000000
vt  0.045050 -0.840033 0.000000
vt  0.105032 -0.898439 0.000000
vt  0.177927 -0.961775 0.000000
vt  0.274599 -0.992535 0.000000
vt  0.371195 -0.980552 0.000000

vn  -0.886952 -0.061572 -0.457739
vn  -0.610306 0.423629 -0.669377
vn  -0.871652 0.234480 -0.430396
vn  -0.886952 -0.061572 0.457739
vn  -0.987297 0.158885 0.000000
vn  -0.865295 -0.252900 0.432790
vn  -0.659098 0.269958 0.701935
vn  -0.856931 -0.453701 0.244592
vn  -0.987297 0.158885 0.000000
vn  -0.880459 -0.474122 -0.000000
vn  -0.856931 -0.453701 -0.244592
vn  -0.659098 0.269958 -0.701934
vn  -0.865295 -0.252899 -0.432790
vn  -0.610306 0.423628 0.669377
vn  -0.871654 0.234479 0.430395
vn  -0.987297 0.158885 0.000000
vn  -0.803262 0.481768 -0.350242
vn  -0.672889 -0.005968 -0.739719
vn  -0.662127 0.698130 -0.272401
vn  -0.987297 0.158885 0.000000
vn  -0.579992 0.813616 -0.040476
vn  -0.998373 -0.057021 -0.000000
vn  -0.441332 0.897344 0.000000
vn  -0.579992 0.813616 0.040476
vn  -0.662127 0.698130 0.272401
vn  -0.672889 -0.005968 0.739719
vn  -0.803262 0.481768 0.350243
vn  -0.871652 0.234480 -0.430396
vn  -0.803262 0.481768 -0.350242
vn  -0.320959 0.349894 -0.880090
vn  -0.662127 0.698130 -0.272401
vn  0.581836 0.791693 0.186247
vn  0.884711 0.433103 0.172360
vn  -0.579992 0.813616 -0.040476
vn  0.707655 0.557832 -0.433645
vn  0.689041 0.344206 -0.637765
vn  -0.369076 0.084862 -0.925517
vn  -0.886952 -0.061572 -0.457739
vn  -0.377478 -0.264440 -0.887458
vn  -0.355351 -0.517810 -0.778202
vn  -0.865295 -0.252899 -0.432790
vn  -0.441709 -0.770247 -0.460014
vn  -0.856931 -0.453701 -0.244592
vn  -0.880459 -0.474122 -0.000000
vn  0.953707 0.271695 -0.128934
vn  0.892532 0.262813 -0.366491
vn  0.848935 -0.002224 -0.528492
vn  0.631387 -0.011737 -0.775379
vn  0.869267 -0.221509 -0.441937
vn  0.634592 -0.449699 -0.628541
vn  0.539390 -0.805629 -0.244990
vn  0.142268 -0.968247 -0.205569
vn  -0.524685 -0.851296 -0.000000
vn  -0.441709 -0.770248 0.460013
vn  -0.856931 -0.453701 0.244592
vn  -0.865295 -0.252900 0.432790
vn  0.509297 -0.124243 -0.851575
vn  0.481407 -0.237209 -0.843788
vn  0.568203 -0.406007 -0.715755
vn  0.360217 -0.740604 -0.567230
vn  0.575906 -0.813060 -0.085239
vn  0.256132 -0.876977 -0.406581
vn  0.667203 -0.744868 -0.003496
vn  0.469881 -0.882730 -0.000000
vn  0.368857 -0.929486 -0.000000
vn  0.142268 -0.968247 0.205569
vn  -0.355351 -0.517811 0.778202
vn  -0.886952 -0.061572 0.457739
vn  0.634592 -0.449699 0.628541
vn  0.539390 -0.805629 0.244989
vn  0.575906 -0.813060 0.085239
vn  0.667203 -0.744868 0.003496
vn  -0.377478 -0.264440 0.887458
vn  -0.369076 0.084862 0.925517
vn  -0.871654 0.234479 0.430395
vn  -0.320959 0.349894 0.880091
vn  -0.803262 0.481768 0.350243
vn  -0.662127 0.698130 0.272401
vn  0.689041 0.344206 0.637765
vn  0.707655 0.557832 0.433645
vn  0.884711 0.433103 -0.172360
vn  -0.579992 0.813616 0.040476
vn  0.631387 -0.011737 0.775379
vn  0.869267 -0.221509 0.441937
vn  0.848935 -0.002224 0.528492
vn  0.892532 0.262813 0.366491
vn  0.953707 0.271695 0.128934
vn  0.581836 0.791694 -0.186247
vn  0.190482 0.981691 0.000000
vn  -0.441332 0.897344 0.000000
vn  0.808399 0.446761 -0.383270
vn  0.683199 0.207500 -0.700131
vn  0.851985 0.523567 0.000000
vn  0.808399 0.446761 0.383270
vn  0.683199 0.207500 0.700131
vn  0.509297 -0.124243 0.851575
vn  0.481407 -0.237209 0.843788
vn  0.568203 -0.406007 0.715754
vn  0.360217 -0.740604 0.567230
vn  0.256132 -0.876977 0.406581
vn  0.250797 -0.968040 -0.000000
vn  0.479284 -0.032678 -0.877051
vn  -0.056515 -0.040103 -0.997596
vn  0.384620 0.154321 -0.910084
vn  -0.171213 0.351670 -0.920334
vn  0.267169 0.631948 -0.727504
vn  -0.346997 0.517592 -0.782107
vn  0.033267 0.857056 -0.514148
vn  -0.003558 0.947358 -0.320158
vn  0.327087 0.944180 -0.039215
vn  0.550813 0.797451 -0.246328
vn  0.731412 0.424332 -0.533834
vn  0.056515 0.040103 0.997596
vn  -0.479284 0.032678 0.877051
vn  -0.384620 -0.154321 0.910084
vn  -0.731412 -0.424332 0.533834
vn  -0.267169 -0.631948 0.727504
vn  -0.550813 -0.797451 0.246328
vn  -0.033267 -0.857056 0.514148
vn  -0.327087 -0.944180 0.039215
vn  0.003558 -0.947358 0.320157
vn  0.346997 -0.517592 0.782107
vn  0.171213 -0.351670 0.920334
vn  0.000000 -0.000000 1.000000
vn  0.250797 -0.968040 -0.000000
vn  0.898273 -0.439437 -0.000000
vn  0.256132 -0.876977 -0.406581
vn  0.360217 -0.740604 -0.567230
vn  0.568203 -0.406007 -0.715755
vn  0.481407 -0.237209 -0.843788
vn  0.509297 -0.124243 -0.851575
vn  0.683199 0.207500 -0.700131
vn  0.808399 0.446761 -0.383270
vn  0.851985 0.523567 0.000000
vn  0.808399 0.446761 0.383270
vn  0.683199 0.207500 0.700131
vn  0.509297 -0.124243 0.851575
vn  0.481407 -0.237209 0.843788
vn  0.568203 -0.406007 0.715754
vn  0.360217 -0.740604 0.567230
vn  0.256132 -0.876977 0.406581

g G1103
usemtl mesh1material
f  1/1/1 2/2/2 3/3/3
f  4/4/4 5/5/5 6/6/6
f  7/7/7 6/6/6 5/5/5
f  6/6/6 7/7/7 8/8/8
f  9/9/9 8/8/8 7/7/7
f  8/8/8 9/9/9 10/10/10
f  10/10/10 9/9/9 11/11/11
f  12/12/12 11/11/11 9/9/9
f  11/11/11 12/12/12 13/13/13
f  5/5/5 13/13/13 12/12/12
f  13/13/13 5/5/5 1/1/1
f  14/14/14 4/4/4 15/15/15
f  3/3/3 16/16/16 17/17/17
f  18/18/18 17/17/17 16/16/16
f  17/17/17 18/18/18 19/19/19
f  20/20/20 19/19/19 18/18/18
f  19/19/19 20/20/20 21/21/21
f  22/22/22 21/21/21 20/20/20
f  21/21/21 22/22/22 23/23/23
f  23/23/23 22/22/22 24/24/24
f  20/20/20 24/24/24 22/22/22
f  24/24/24 20/20/20 25/25/25
f  26/26/26 25/25/25 20/20/20
f  25/25/25 26/26/26 27/27/27
f  16/16/16 27/27/27 26/26/26
f  27/27/27 16/16/16 15/15/15
f  28/28/28 29/29/29 30/30/30
f  31/31/31 30/30/30 29/29/29
f  32/32/32 33/33/33 34/34/34
f  34/34/34 33/33/33 31/31/31
f  35/35/35 31/31/31 33/33/33
f  36/36/36 31/31/31 35/35/35
f  31/31/31 36/36/36 30/30/30
f  37/37/37 30/30/30 36/36/36
f  30/30/30 37/37/37 28/28/28
f  28/28/28 37/37/37 38/38/38
f  39/39/39 38/38/38 37/37/37
f  40/40/40 38/38/38 39/39/39
f  38/38/38 40/40/40 41/41/41
f  42/42/42 41/41/41 40/40/40
f  41/41/41 42/42/42 43/43/43
f  44/44/44 43/43/43 42/42/42
f  45/45/45 33/33/33 32/32/32
f  33/33/33 45/45/45 35/35/35
f  46/46/46 35/35/35 45/45/45
f  35/35/35 46/46/46 36/36/36
f  47/47/47 36/36/36 46/46/46
f  36/36/36 47/47/47 48/48/48
f  49/49/49 48/48/48 47/47/47
f  50/50/50 48/48/48 49/49/49
f  48/48/48 50/50/50 39/39/39
f  51/51/51 39/39/39 50/50/50
f  39/39/39 51/51/51 40/40/40
f  52/52/52 40/40/40 51/51/51
f  40/40/40 52/52/52 42/42/42
f  53/53/53 42/42/42 52/52/52
f  42/42/42 53/53/53 44/44/44
f  54/54/54 44/44/44 53/53/53
f  44/44/44 54/54/54 55/55/55
f  56/56/56 55/55/55 54/54/54
f  45/45/45 57/57/57 46/46/46
f  58/58/58 46/46/46 57/57/57
f  46/46/46 58/58/58 47/47/47
f  59/59/59 47/47/47 58/58/58
f  47/47/47 59/59/59 49/49/49
f  60/60/60 49/49/49 59/59/59
f  49/49/49 60/60/60 61/61/61
f  62/62/62 61/61/61 60/60/60
f  61/61/61 62/62/62 63/63/63
f  64/64/64 63/63/63 62/62/62
f  63/63/63 64/64/64 52/52/52
f  65/65/65 52/52/52 64/64/64
f  52/52/52 65/65/65 53/53/53
f  66/66/66 53/53/53 65/65/65
f  53/53/53 66/66/66 54/54/54
f  67/67/67 54/54/54 66/66/66
f  54/54/54 67/67/67 56/56/56
f  68/68/68 56/56/56 67/67/67
f  51/51/51 63/63/63 52/52/52
f  63/63/63 51/51/51 61/61/61
f  50/50/50 61/61/61 51/51/51
f  49/49/49 61/61/61 50/50/50
f  69/69/69 70/70/70 71/71/71
f  71/71/71 70/70/70 72/72/72
f  66/66/66 72/72/72 70/70/70
f  72/72/72 66/66/66 64/64/64
f  65/65/65 64/64/64 66/66/66
f  66/66/66 70/70/70 67/67/67
f  73/73/73 67/67/67 70/70/70
f  67/67/67 73/73/73 68/68/68
f  74/74/74 68/68/68 73/73/73
f  68/68/68 74/74/74 75/75/75
f  76/76/76 75/75/75 74/74/74
f  75/75/75 76/76/76 77/77/77
f  77/77/77 76/76/76 78/78/78
f  79/79/79 78/78/78 76/76/76
f  80/80/80 78/78/78 79/79/79
f  81/81/81 78/78/78 80/80/80
f  78/78/78 81/81/81 82/82/82
f  70/70/70 69/69/69 73/73/73
f  83/83/83 73/73/73 69/69/69
f  73/73/73 83/83/83 74/74/74
f  79/79/79 74/74/74 83/83/83
f  74/74/74 79/79/79 76/76/76
f  84/84/84 69/69/69 71/71/71
f  69/69/69 84/84/84 83/83/83
f  85/85/85 83/83/83 84/84/84
f  83/83/83 85/85/85 79/79/79
f  86/86/86 79/79/79 85/85/85
f  79/79/79 86/86/86 80/80/80
f  87/87/87 80/80/80 86/86/86
f  80/80/80 87/87/87 81/81/81
f  88/88/88 81/81/81 87/87/87
f  81/81/81 88/88/88 82/82/82
f  89/89/89 82/82/82 88/88/88
f  82/82/82 89/89/89 90/90/90
f  90/90/90 89/89/89 34/34/34
f  34/34/34 89/89/89 32/32/32
f  91/91/91 32/32/32 89/89/89
f  32/32/32 91/91/91 45/45/45
f  92/92/92 45/45/45 91/91/91
f  57/57/57 45/45/45 92/92/92
f  89/89/89 93/93/93 91/91/91
f  93/93/93 89/89/89 94/94/94
f  88/88/88 94/94/94 89/89/89
f  87/87/87 94/94/94 88/88/88
f  94/94/94 87/87/87 95/95/95
f  95/95/95 87/87/87 96/96/96
f  86/86/86 96/96/96 87/87/87
f  96/96/96 86/86/86 97/97/97
f  85/85/85 97/97/97 86/86/86
f  97/97/97 85/85/85 98/98/98
f  84/84/84 98/98/98 85/85/85
f  98/98/98 84/84/84 99/99/99
f  71/71/71 99/99/99 84/84/84
f  99/99/99 71/71/71 100/100/100
f  72/72/72 100/100/100 71/71/71
f  64/64/64 100/100/100 72/72/72
f  100/100/100 64/64/64 101/101/101
f  62/62/62 101/101/101 64/64/64
f  39/39/39 37/37/37 48/48/48
f  36/36/36 48/48/48 37/37/37
f  102/102/102 103/103/103 104/104/104
f  105/105/105 104/104/104 103/103/103
f  104/104/104 105/105/105 106/106/106
f  107/107/107 106/106/106 105/105/105
f  106/106/106 107/107/107 108/108/108
f  109/109/109 108/108/108 107/107/107
f  110/110/110 108/108/108 109/109/109
f  111/111/111 108/108/108 110/110/110
f  108/108/108 111/111/111 106/106/106
f  112/112/112 106/106/106 111/111/111
f  106/106/106 112/112/112 104/104/104
f  102/102/102 104/104/104 112/112/112
f  113/113/113 114/114/114 115/115/115
f  116/116/116 115/115/115 114/114/114
f  115/115/115 116/116/116 117/117/117
f  118/118/118 117/117/117 116/116/116
f  117/117/117 118/118/118 119/119/119
f  120/120/120 119/119/119 118/118/118
f  121/121/121 119/119/119 120/120/120
f  122/122/122 119/119/119 121/121/121
f  119/119/119 122/122/122 117/117/117
f  123/123/123 117/117/117 122/122/122
f  117/117/117 123/123/123 115/115/115
f  113/113/113 115/115/115 123/123/123
f  124/124/124 125/125/125 126/126/126
f  127/127/127 126/126/126 125/125/125
f  128/128/128 126/126/126 127/127/127
f  129/129/129 126/126/126 128/128/128
f  130/130/130 126/126/126 129/129/129
f  131/131/131 126/126/126 130/130/130
f  132/132/132 126/126/126 131/131/131
f  133/133/133 126/126/126 132/132/132
f  134/134/134 126/126/126 133/133/133
f  135/135/135 126/126/126 134/134/134
f  136/136/136 126/126/126 135/135/135
f  137/137/137 126/126/126 136/136/136
f  138/138/138 126/126/126 137/137/137
f  139/139/139 126/126/126 138/138/138
f  140/140/140 126/126/126 139/139/139
f  141/141/141 126/126/126 140/140/140
f  126/126/126 141/141/141 125/125/125

g
