# Noesis .obj export.
#
mtllib G1117.mtl
g
v  0.525356 -0.302807 -0.093934
v  0.580604 -0.143266 -0.214962
v  0.663642 -0.184785 -0.088444
v  0.754619 -0.059643 -0.083258
v  0.674522 -0.008951 -0.209632
v  0.542714 0.041414 -0.280671
v  0.445641 -0.439887 -0.094706
v  0.395620 -0.344131 -0.217044
v  0.451226 -0.245314 -0.217577
v  0.475883 -0.102848 -0.279972
v  0.448352 0.074240 -0.354283
v  0.585892 0.137810 -0.280884
v  0.717807 0.133722 -0.209676
v  0.809192 0.089331 -0.082185
v  0.315716 -0.273970 -0.333118
v  0.348764 -0.193731 -0.343509
v  0.397055 -0.069649 -0.359419
v  0.395620 -0.344131 0.217044
v  0.315716 -0.273970 0.333119
v  0.313158 -0.285682 0.160924
v  0.225858 -0.255598 0.146770
v  0.445641 -0.439887 0.094706
v  0.388068 -0.348102 0.047302
v  0.311863 -0.291077 0.000000
v  0.219477 -0.269605 0.000000
v  0.141368 -0.233192 0.143997
v  0.127702 -0.268158 0.000000
v  0.057733 -0.242029 0.000000
v  0.141368 -0.233192 -0.143996
v  0.068426 -0.207052 -0.140139
v  0.097118 -0.102346 -0.209265
v  0.179223 -0.130657 -0.227682
v  0.222336 -0.008031 -0.243326
v  0.265638 -0.162490 -0.245588
v  0.312612 -0.039100 -0.276452
v  0.348764 -0.193731 -0.343509
v  0.397055 -0.069649 -0.359419
v  0.355250 0.086312 -0.270303
v  0.225858 -0.255598 -0.146769
v  0.313158 -0.285682 -0.160924
v  0.388068 -0.348102 -0.047302
v  0.395620 -0.344131 -0.217044
v  0.445641 -0.439887 -0.094706
v  0.315716 -0.273970 -0.333118
v  0.233092 -0.239920 -0.214048
v  0.263987 0.109923 -0.205800
v  0.134463 0.019804 -0.217389
v  0.167527 0.129005 -0.179837
v  0.284548 0.177178 -0.111465
v  0.373265 0.145037 -0.134233
v  0.377853 0.159774 0.000000
v  0.471171 0.142413 0.000000
v  0.373265 0.145036 0.134234
v  0.284548 0.177178 0.111466
v  0.355250 0.086312 0.270304
v  0.263987 0.109923 0.205801
v  0.312612 -0.039100 0.276452
v  0.222336 -0.008031 0.243326
v  0.167526 0.129005 0.179837
v  0.134463 0.019804 0.217390
v  0.097118 -0.102346 0.209266
v  0.809192 0.089331 0.082186
v  0.718165 0.132794 0.061227
v  0.717807 0.133722 0.209676
v  0.590130 0.148571 0.031387
v  0.589853 0.148485 0.181715
v  0.466485 0.127477 0.157214
v  0.448352 0.074240 0.354284
v  0.397055 -0.069650 0.359420
v  0.348764 -0.193731 0.343510
v  0.265638 -0.162490 0.245589
v  0.179223 -0.130657 0.227683
v  0.068426 -0.207052 0.140140
v  0.585892 0.137810 0.280885
v  0.233092 -0.239920 0.214049
v  0.293535 0.206570 0.000000
v  0.185995 0.188357 0.103617
v  0.193936 0.214332 0.000000
v  0.185995 0.188357 -0.103617
v  0.448352 0.074240 -0.354283
v  0.466485 0.127477 -0.157213
v  0.585892 0.137810 -0.280884
v  0.589853 0.148485 -0.181715
v  0.717807 0.133722 -0.209676
v  0.590130 0.148571 -0.031387
v  0.718165 0.132794 -0.061227
v  0.809192 0.089331 -0.082185
v  0.754619 -0.059643 0.083258
v  0.674522 -0.008951 0.209632
v  0.663642 -0.184785 0.088444
v  0.580604 -0.143267 0.214962
v  0.525356 -0.302807 0.093934
v  0.451226 -0.245314 0.217577
v  0.475883 -0.102848 0.279972
v  0.542714 0.041413 0.280671
v  0.445641 -0.439887 0.094706
v  0.395620 -0.344131 0.217044
v  0.315716 -0.273970 0.333119
v  0.348764 -0.193731 0.343510
v  0.397055 -0.069650 0.359420
v  0.448352 0.074240 0.354284
v  0.585892 0.137810 0.280885
v  0.717807 0.133722 0.209676
v  0.809192 0.089331 0.082186
v  0.134463 0.019804 -0.217389
v  0.097118 -0.102346 -0.209265
v  0.218350 -0.021067 0.000000
v  0.068426 -0.207052 -0.140139
v  0.057733 -0.242029 0.000000
v  0.068426 -0.207052 0.140140
v  0.097118 -0.102346 0.209266
v  0.134463 0.019804 0.217390
v  0.167526 0.129005 0.179837
v  0.185995 0.188357 0.103617
v  0.193936 0.214332 0.000000
v  0.185995 0.188357 -0.103617
v  0.167527 0.129005 -0.179837
v  0.718165 0.132794 0.061227
v  0.809192 0.089331 0.082186
v  0.470538 -0.095500 0.000000
v  0.754619 -0.059643 0.083258
v  0.663642 -0.184785 0.088444
v  0.525356 -0.302807 0.093934
v  0.445641 -0.439887 0.094706
v  0.388068 -0.348102 0.047302
v  0.311863 -0.291077 0.000000
v  0.388068 -0.348102 -0.047302
v  0.445641 -0.439887 -0.094706
v  0.525356 -0.302807 -0.093934
v  0.663642 -0.184785 -0.088444
v  0.754619 -0.059643 -0.083258
v  0.809192 0.089331 -0.082185
v  0.718165 0.132794 -0.061227
v  0.590130 0.148571 -0.031387
v  0.471171 0.142413 0.000000
v  0.590130 0.148571 0.031387

vt  0.511875 -0.236917 0.000000
vt  0.697428 -0.257240 0.000000
vt  0.627672 -0.119356 0.000000
vt  0.756035 -0.050274 0.000000
vt  0.822364 -0.183450 0.000000
vt  0.875193 -0.314345 0.000000
vt  0.419298 -0.336431 0.000000
vt  0.515051 -0.440110 0.000000
vt  0.603484 -0.365307 0.000000
vt  0.742984 -0.376273 0.000000
vt  0.925069 -0.415607 0.000000
vt  0.974439 -0.283900 0.000000
vt  0.954645 -0.150642 0.000000
vt  0.892360 -0.023638 0.000000
vt  0.603331 -0.544646 0.000000
vt  0.679192 -0.504327 0.000000
vt  0.800806 -0.479682 0.000000
vt  0.152672 -0.587281 0.000000
vt  0.284030 -0.610609 0.000000
vt  0.165765 -0.691945 0.000000
vt  0.191083 -0.789448 0.000000
vt  0.032169 -0.579002 0.000000
vt  0.050646 -0.667631 0.000000
vt  0.053088 -0.759789 0.000000
vt  0.082436 -0.845809 0.000000
vt  0.230151 -0.861443 0.000000
vt  0.113967 -0.917397 0.000000
vt  0.143616 -0.971944 0.000000
vt  0.230151 -0.861443 0.000000
vt  0.248746 -0.942711 0.000000
vt  0.346206 -0.916146 0.000000
vt  0.343528 -0.835119 0.000000
vt  0.465264 -0.838455 0.000000
vt  0.354932 -0.738428 0.000000
vt  0.475865 -0.737732 0.000000
vt  0.365309 -0.606275 0.000000
vt  0.489054 -0.619425 0.000000
vt  0.595619 -0.744011 0.000000
vt  0.191083 -0.789448 0.000000
vt  0.165765 -0.691945 0.000000
vt  0.050646 -0.667631 0.000000
vt  0.152672 -0.587281 0.000000
vt  0.032169 -0.579002 0.000000
vt  0.284030 -0.610609 0.000000
vt  0.260957 -0.760280 0.000000
vt  0.581472 -0.846786 0.000000
vt  0.469298 -0.922660 0.000000
vt  0.570338 -0.927575 0.000000
vt  0.686381 -0.867544 0.000000
vt  0.732050 -0.791894 0.000000
vt  0.842468 -0.842910 0.000000
vt  0.897292 -0.763994 0.000000
vt  0.732050 -0.791894 0.000000
vt  0.686381 -0.867544 0.000000
vt  0.595619 -0.744011 0.000000
vt  0.581472 -0.846786 0.000000
vt  0.475865 -0.737732 0.000000
vt  0.465264 -0.838455 0.000000
vt  0.570338 -0.927575 0.000000
vt  0.469298 -0.922660 0.000000
vt  0.346206 -0.916146 0.000000
vt  0.960424 -0.456031 0.000000
vt  0.946517 -0.543292 0.000000
vt  0.832383 -0.497084 0.000000
vt  0.929207 -0.654335 0.000000
vt  0.805052 -0.601809 0.000000
vt  0.772430 -0.709614 0.000000
vt  0.616069 -0.643439 0.000000
vt  0.489054 -0.619425 0.000000
vt  0.365309 -0.606275 0.000000
vt  0.354932 -0.738428 0.000000
vt  0.343528 -0.835119 0.000000
vt  0.248746 -0.942711 0.000000
vt  0.721268 -0.569741 0.000000
vt  0.260957 -0.760280 0.000000
vt  0.794545 -0.913715 0.000000
vt  0.653229 -0.947387 0.000000
vt  0.749526 -0.982777 0.000000
vt  0.653229 -0.947387 0.000000
vt  0.616069 -0.643439 0.000000
vt  0.772430 -0.709614 0.000000
vt  0.721268 -0.569741 0.000000
vt  0.805052 -0.601809 0.000000
vt  0.832383 -0.497084 0.000000
vt  0.929207 -0.654335 0.000000
vt  0.946517 -0.543292 0.000000
vt  0.960424 -0.456031 0.000000
vt  0.756035 -0.050274 0.000000
vt  0.822364 -0.183450 0.000000
vt  0.627672 -0.119356 0.000000
vt  0.697428 -0.257240 0.000000
vt  0.511875 -0.236917 0.000000
vt  0.603484 -0.365307 0.000000
vt  0.742984 -0.376273 0.000000
vt  0.875193 -0.314345 0.000000
vt  0.419298 -0.336431 0.000000
vt  0.515051 -0.440110 0.000000
vt  0.603331 -0.544646 0.000000
vt  0.679192 -0.504327 0.000000
vt  0.800806 -0.479682 0.000000
vt  0.925069 -0.415607 0.000000
vt  0.974439 -0.283900 0.000000
vt  0.954645 -0.150642 0.000000
vt  0.892360 -0.023638 0.000000
vt  0.305644 -0.357932 0.000000
vt  0.198267 -0.367605 0.000000
vt  0.281470 -0.546832 0.000000
vt  0.114779 -0.429714 0.000000
vt  0.078636 -0.531654 0.000000
vt  0.114779 -0.429714 0.000000
vt  0.198267 -0.367605 0.000000
vt  0.305644 -0.357932 0.000000
vt  0.397490 -0.397865 0.000000
vt  0.447536 -0.472157 0.000000
vt  0.462696 -0.556898 0.000000
vt  0.447536 -0.472157 0.000000
vt  0.397490 -0.397865 0.000000
vt  0.032704 -0.207213 0.000000
vt  0.021314 -0.124889 0.000000
vt  0.283669 -0.203406 0.000000
vt  0.119204 -0.047893 0.000000
vt  0.234410 -0.021136 0.000000
vt  0.367918 -0.029615 0.000000
vt  0.487216 -0.055370 0.000000
vt  0.487322 -0.147011 0.000000
vt  0.480365 -0.224768 0.000000
vt  0.487322 -0.147011 0.000000
vt  0.487216 -0.055370 0.000000
vt  0.367918 -0.029615 0.000000
vt  0.234410 -0.021136 0.000000
vt  0.119204 -0.047893 0.000000
vt  0.021314 -0.124889 0.000000
vt  0.032704 -0.207213 0.000000
vt  0.089765 -0.291806 0.000000
vt  0.159839 -0.348777 0.000000
vt  0.089765 -0.291806 0.000000

vn  0.757719 -0.612781 0.224414
vn  0.515420 -0.443370 -0.733325
vn  0.717932 -0.650717 0.247267
vn  0.856631 -0.437550 0.273374
vn  0.600937 -0.282099 -0.747860
vn  0.478571 -0.228697 -0.847742
vn  0.127963 -0.981285 0.143890
vn  0.051831 -0.840717 -0.538989
vn  0.592862 -0.450180 -0.667722
vn  0.528784 -0.310364 -0.789976
vn  0.010755 0.422714 -0.906200
vn  0.212707 0.648165 -0.731190
vn  0.601700 0.560551 -0.568982
vn  0.938651 0.217305 0.267793
vn  -0.249353 -0.515230 -0.819976
vn  -0.052376 -0.140363 -0.988714
vn  -0.007427 -0.040377 -0.999157
vn  0.051831 -0.840717 0.538988
vn  -0.249352 -0.515230 0.819976
vn  -0.474343 -0.878839 0.051393
vn  -0.311047 -0.940980 0.133442
vn  0.127963 -0.981285 -0.143890
vn  -0.244851 -0.703841 -0.666826
vn  -0.197185 -0.980366 -0.000000
vn  -0.162434 -0.986719 -0.000000
vn  -0.337008 -0.808725 0.482068
vn  -0.190273 -0.981731 -0.000000
vn  -0.925375 -0.379052 -0.000000
vn  -0.337008 -0.808725 -0.482068
vn  -0.873841 -0.297588 -0.384504
vn  -0.855324 0.039529 -0.516583
vn  -0.323611 -0.232445 -0.917194
vn  -0.242710 0.165961 -0.955798
vn  -0.558661 -0.011354 -0.829318
vn  -0.538265 0.158832 -0.827674
vn  -0.052376 -0.140363 -0.988714
vn  -0.007427 -0.040377 -0.999157
vn  -0.402806 0.631859 -0.662194
vn  -0.311047 -0.940980 -0.133443
vn  -0.474343 -0.878839 -0.051394
vn  -0.244851 -0.703841 0.666825
vn  0.051831 -0.840717 -0.538989
vn  0.127963 -0.981285 0.143890
vn  -0.249353 -0.515230 -0.819976
vn  -0.643460 -0.533759 -0.548690
vn  -0.198312 0.620240 -0.758930
vn  -0.806387 0.318389 -0.498366
vn  -0.711556 0.551588 -0.435245
vn  0.154247 0.914088 -0.375036
vn  0.180050 0.953678 -0.240999
vn  0.299048 0.954238 0.000000
vn  0.182782 0.983153 0.000000
vn  0.180050 0.953678 0.241000
vn  0.154247 0.914087 0.375036
vn  -0.402806 0.631859 0.662195
vn  -0.198312 0.620240 0.758930
vn  -0.538265 0.158832 0.827674
vn  -0.242710 0.165960 0.955798
vn  -0.711557 0.551587 0.435245
vn  -0.806387 0.318388 0.498366
vn  -0.855324 0.039529 0.516583
vn  0.938651 0.217305 -0.267792
vn  0.334413 0.698228 -0.632965
vn  0.601700 0.560550 0.568982
vn  0.176954 0.728932 -0.661321
vn  -0.026857 0.997638 0.063223
vn  -0.047381 0.985396 0.163554
vn  0.010755 0.422713 0.906200
vn  -0.007427 -0.040378 0.999157
vn  -0.052376 -0.140363 0.988714
vn  -0.558661 -0.011355 0.829318
vn  -0.323611 -0.232446 0.917194
vn  -0.873841 -0.297588 0.384503
vn  0.212707 0.648165 0.731190
vn  -0.643460 -0.533759 0.548690
vn  0.291206 0.956660 0.000000
vn  -0.664576 0.705314 0.246719
vn  -0.641520 0.767106 0.000000
vn  -0.664576 0.705314 -0.246720
vn  0.010755 0.422714 -0.906200
vn  -0.047381 0.985396 -0.163553
vn  0.212707 0.648165 -0.731190
vn  -0.026857 0.997638 -0.063222
vn  0.601700 0.560551 -0.568982
vn  0.176953 0.728932 0.661321
vn  0.334413 0.698228 0.632965
vn  0.938651 0.217305 0.267793
vn  0.856631 -0.437550 -0.273374
vn  0.600937 -0.282099 0.747860
vn  0.717932 -0.650717 -0.247267
vn  0.515420 -0.443370 0.733325
vn  0.757719 -0.612781 -0.224414
vn  0.592862 -0.450180 0.667721
vn  0.528784 -0.310365 0.789976
vn  0.478571 -0.228697 0.847742
vn  0.127963 -0.981285 -0.143890
vn  0.051831 -0.840717 0.538988
vn  -0.249352 -0.515230 0.819976
vn  -0.052376 -0.140363 0.988714
vn  -0.007427 -0.040378 0.999157
vn  0.010755 0.422713 0.906200
vn  0.212707 0.648165 0.731190
vn  0.601700 0.560550 0.568982
vn  0.938651 0.217305 -0.267792
vn  -0.806387 0.318389 -0.498366
vn  -0.855324 0.039529 -0.516583
vn  -0.966444 0.256878 -0.000000
vn  -0.873841 -0.297588 -0.384504
vn  -0.925375 -0.379052 -0.000000
vn  -0.873841 -0.297588 0.384503
vn  -0.855324 0.039529 0.516583
vn  -0.806387 0.318388 0.498366
vn  -0.711557 0.551587 0.435245
vn  -0.664576 0.705314 0.246719
vn  -0.641520 0.767106 0.000000
vn  -0.664576 0.705314 -0.246720
vn  -0.711556 0.551588 -0.435245
vn  0.334413 0.698228 -0.632965
vn  0.938651 0.217305 -0.267792
vn  0.838139 -0.545457 0.000000
vn  0.856631 -0.437550 -0.273374
vn  0.717932 -0.650717 -0.247267
vn  0.757719 -0.612781 -0.224414
vn  0.127963 -0.981285 -0.143890
vn  -0.244851 -0.703841 -0.666826
vn  -0.197185 -0.980366 -0.000000
vn  -0.244851 -0.703841 0.666825
vn  0.127963 -0.981285 0.143890
vn  0.757719 -0.612781 0.224414
vn  0.717932 -0.650717 0.247267
vn  0.856631 -0.437550 0.273374
vn  0.938651 0.217305 0.267793
vn  0.334413 0.698228 0.632965
vn  0.176953 0.728932 0.661321
vn  0.182782 0.983153 0.000000
vn  0.176954 0.728932 -0.661321

g G1117
usemtl mesh1material
f  1/1/1 2/2/2 3/3/3
f  4/4/4 3/3/3 5/5/5
f  2/2/2 5/5/5 3/3/3
f  5/5/5 2/2/2 6/6/6
f  7/7/7 8/8/8 1/1/1
f  9/9/9 1/1/1 8/8/8
f  1/1/1 9/9/9 2/2/2
f  10/10/10 2/2/2 9/9/9
f  2/2/2 10/10/10 6/6/6
f  11/11/11 6/6/6 10/10/10
f  12/12/12 6/6/6 11/11/11
f  6/6/6 12/12/12 5/5/5
f  13/13/13 5/5/5 12/12/12
f  5/5/5 13/13/13 4/4/4
f  14/14/14 4/4/4 13/13/13
f  8/8/8 15/15/15 9/9/9
f  16/16/16 9/9/9 15/15/15
f  9/9/9 16/16/16 10/10/10
f  17/17/17 10/10/10 16/16/16
f  10/10/10 17/17/17 11/11/11
f  18/18/18 19/19/19 20/20/20
f  21/21/21 20/20/20 19/19/19
f  22/22/22 18/18/18 23/23/23
f  20/20/20 23/23/23 18/18/18
f  23/23/23 20/20/20 24/24/24
f  21/21/21 24/24/24 20/20/20
f  24/24/24 21/21/21 25/25/25
f  26/26/26 25/25/25 21/21/21
f  25/25/25 26/26/26 27/27/27
f  28/28/28 27/27/27 26/26/26
f  27/27/27 28/28/28 29/29/29
f  30/30/30 29/29/29 28/28/28
f  31/31/31 29/29/29 30/30/30
f  29/29/29 31/31/31 32/32/32
f  33/33/33 32/32/32 31/31/31
f  32/32/32 33/33/33 34/34/34
f  35/35/35 34/34/34 33/33/33
f  34/34/34 35/35/35 36/36/36
f  36/36/36 35/35/35 37/37/37
f  38/38/38 37/37/37 35/35/35
f  27/27/27 29/29/29 25/25/25
f  39/39/39 25/25/25 29/29/29
f  25/25/25 39/39/39 24/24/24
f  40/40/40 24/24/24 39/39/39
f  24/24/24 40/40/40 41/41/41
f  42/42/42 41/41/41 40/40/40
f  41/41/41 42/42/42 43/43/43
f  36/36/36 44/44/44 34/34/34
f  45/45/45 34/34/34 44/44/44
f  34/34/34 45/45/45 32/32/32
f  32/32/32 45/45/45 29/29/29
f  29/29/29 45/45/45 39/39/39
f  44/44/44 39/39/39 45/45/45
f  39/39/39 44/44/44 40/40/40
f  42/42/42 40/40/40 44/44/44
f  33/33/33 46/46/46 35/35/35
f  38/38/38 35/35/35 46/46/46
f  31/31/31 47/47/47 33/33/33
f  48/48/48 33/33/33 47/47/47
f  33/33/33 48/48/48 46/46/46
f  49/49/49 46/46/46 48/48/48
f  46/46/46 49/49/49 38/38/38
f  38/38/38 49/49/49 50/50/50
f  51/51/51 50/50/50 49/49/49
f  50/50/50 51/51/51 52/52/52
f  52/52/52 51/51/51 53/53/53
f  54/54/54 53/53/53 51/51/51
f  53/53/53 54/54/54 55/55/55
f  56/56/56 55/55/55 54/54/54
f  55/55/55 56/56/56 57/57/57
f  57/57/57 56/56/56 58/58/58
f  59/59/59 58/58/58 56/56/56
f  60/60/60 58/58/58 59/59/59
f  58/58/58 60/60/60 61/61/61
f  62/62/62 63/63/63 64/64/64
f  65/65/65 64/64/64 63/63/63
f  64/64/64 65/65/65 66/66/66
f  52/52/52 66/66/66 65/65/65
f  66/66/66 52/52/52 67/67/67
f  53/53/53 67/67/67 52/52/52
f  67/67/67 53/53/53 68/68/68
f  55/55/55 68/68/68 53/53/53
f  68/68/68 55/55/55 69/69/69
f  57/57/57 69/69/69 55/55/55
f  69/69/69 57/57/57 70/70/70
f  70/70/70 57/57/57 71/71/71
f  58/58/58 71/71/71 57/57/57
f  71/71/71 58/58/58 72/72/72
f  61/61/61 72/72/72 58/58/58
f  72/72/72 61/61/61 26/26/26
f  73/73/73 26/26/26 61/61/61
f  28/28/28 26/26/26 73/73/73
f  64/64/64 66/66/66 74/74/74
f  67/67/67 74/74/74 66/66/66
f  74/74/74 67/67/67 68/68/68
f  70/70/70 71/71/71 19/19/19
f  75/75/75 19/19/19 71/71/71
f  19/19/19 75/75/75 21/21/21
f  21/21/21 75/75/75 26/26/26
f  26/26/26 75/75/75 72/72/72
f  71/71/71 72/72/72 75/75/75
f  49/49/49 76/76/76 51/51/51
f  54/54/54 51/51/51 76/76/76
f  56/56/56 54/54/54 59/59/59
f  59/59/59 54/54/54 77/77/77
f  76/76/76 77/77/77 54/54/54
f  77/77/77 76/76/76 78/78/78
f  78/78/78 76/76/76 79/79/79
f  49/49/49 79/79/79 76/76/76
f  79/79/79 49/49/49 48/48/48
f  80/80/80 81/81/81 82/82/82
f  83/83/83 82/82/82 81/81/81
f  82/82/82 83/83/83 84/84/84
f  37/37/37 38/38/38 80/80/80
f  50/50/50 80/80/80 38/38/38
f  80/80/80 50/50/50 81/81/81
f  52/52/52 81/81/81 50/50/50
f  81/81/81 52/52/52 83/83/83
f  85/85/85 83/83/83 52/52/52
f  83/83/83 85/85/85 84/84/84
f  86/86/86 84/84/84 85/85/85
f  84/84/84 86/86/86 87/87/87
f  88/88/88 89/89/89 90/90/90
f  91/91/91 90/90/90 89/89/89
f  90/90/90 91/91/91 92/92/92
f  92/92/92 91/91/91 93/93/93
f  93/93/93 91/91/91 94/94/94
f  94/94/94 91/91/91 95/95/95
f  89/89/89 95/95/95 91/91/91
f  96/96/96 92/92/92 97/97/97
f  93/93/93 97/97/97 92/92/92
f  97/97/97 93/93/93 98/98/98
f  98/98/98 93/93/93 99/99/99
f  94/94/94 99/99/99 93/93/93
f  99/99/99 94/94/94 100/100/100
f  100/100/100 94/94/94 101/101/101
f  95/95/95 101/101/101 94/94/94
f  101/101/101 95/95/95 102/102/102
f  89/89/89 102/102/102 95/95/95
f  102/102/102 89/89/89 103/103/103
f  88/88/88 103/103/103 89/89/89
f  103/103/103 88/88/88 104/104/104
f  105/105/105 106/106/106 107/107/107
f  108/108/108 107/107/107 106/106/106
f  109/109/109 107/107/107 108/108/108
f  110/110/110 107/107/107 109/109/109
f  111/111/111 107/107/107 110/110/110
f  112/112/112 107/107/107 111/111/111
f  113/113/113 107/107/107 112/112/112
f  114/114/114 107/107/107 113/113/113
f  115/115/115 107/107/107 114/114/114
f  116/116/116 107/107/107 115/115/115
f  117/117/117 107/107/107 116/116/116
f  107/107/107 117/117/117 105/105/105
f  118/118/118 119/119/119 120/120/120
f  121/121/121 120/120/120 119/119/119
f  122/122/122 120/120/120 121/121/121
f  123/123/123 120/120/120 122/122/122
f  124/124/124 120/120/120 123/123/123
f  125/125/125 120/120/120 124/124/124
f  126/126/126 120/120/120 125/125/125
f  127/127/127 120/120/120 126/126/126
f  128/128/128 120/120/120 127/127/127
f  129/129/129 120/120/120 128/128/128
f  130/130/130 120/120/120 129/129/129
f  131/131/131 120/120/120 130/130/130
f  132/132/132 120/120/120 131/131/131
f  133/133/133 120/120/120 132/132/132
f  134/134/134 120/120/120 133/133/133
f  135/135/135 120/120/120 134/134/134
f  136/136/136 120/120/120 135/135/135
f  120/120/120 136/136/136 118/118/118

g
