# Noesis .obj export.
#
mtllib g1132.mtl
g
v  0.491940 -0.368949 0.155298
v  0.582560 -0.368949 0.155298
v  0.602271 -0.429939 -0.000261
v  0.692891 -0.429939 -0.000261
v  0.582560 -0.368948 -0.155819
v  0.491940 -0.368949 -0.155819
v  0.491940 -0.368949 -0.155819
v  0.582560 -0.368948 -0.155819
v  0.602271 -0.429939 -0.000261
v  0.692891 -0.429939 -0.000261
v  0.582560 -0.368949 0.155298
v  0.491940 -0.368949 0.155298
v  0.356054 0.158346 -0.122976
v  0.338529 0.081956 -0.263216
v  0.277653 0.181662 -0.111843
v  0.257070 0.114336 -0.206277
v  0.356054 0.158346 0.122455
v  0.360517 0.195261 -0.000260
v  0.277653 0.181662 0.111323
v  0.286649 0.211085 -0.000260
v  0.446740 0.154527 -0.138695
v  0.429100 0.070213 -0.326236
v  0.355783 -0.058894 -0.343026
v  0.297050 -0.040047 -0.269197
v  0.215375 -0.003742 -0.243842
v  0.338529 0.081956 0.262695
v  0.429100 0.070212 0.325715
v  0.446740 0.154527 0.138175
v  0.451299 0.209376 -0.000260
v  0.616369 0.142439 -0.154597
v  0.612516 0.083700 -0.238833
v  0.501448 0.004412 -0.252033
v  0.418506 -0.102062 -0.272622
v  0.316179 -0.190474 -0.327551
v  0.251353 -0.160082 -0.239173
v  0.172217 -0.126497 -0.228182
v  0.090025 -0.098156 -0.209746
v  0.616369 0.142439 0.154077
v  0.616638 0.209713 -0.000260
v  0.717808 0.091786 -0.159495
v  0.610419 -0.023541 -0.156961
v  0.543580 -0.135900 -0.187986
v  0.511322 -0.240655 -0.165857
v  0.300070 -0.268531 -0.273519
v  0.219692 -0.235407 -0.208490
v  0.134322 -0.227578 -0.144408
v  0.061303 -0.192103 -0.131552
v  0.491940 -0.368949 -0.155819
v  0.297581 -0.338658 -0.156810
v  0.212654 -0.250660 -0.143040
v  0.206447 -0.336558 -0.000261
v  0.120642 -0.262581 -0.000260
v  0.134322 -0.227578 0.143887
v  0.050599 -0.227116 -0.000260
v  0.741193 0.172418 -0.000260
v  0.829745 0.084893 -0.000260
v  0.682824 -0.041466 -0.000260
v  0.597706 -0.181771 -0.000260
v  0.583436 -0.296585 -0.000260
v  0.602271 -0.429939 -0.000261
v  0.491940 -0.368949 0.155298
v  0.511322 -0.240655 0.165336
v  0.543580 -0.135900 0.187465
v  0.418506 -0.102062 0.272101
v  0.501448 0.004411 0.251512
v  0.612516 0.083700 0.238313
v  0.717808 0.091786 0.158975
v  0.610419 -0.023541 0.156440
v  0.297581 -0.338658 0.156289
v  0.300070 -0.268532 0.272997
v  0.316179 -0.190474 0.327030
v  0.355783 -0.058894 0.342505
v  0.297050 -0.040047 0.268677
v  0.251353 -0.160083 0.238652
v  0.219692 -0.235407 0.207969
v  0.212654 -0.250660 0.142519
v  0.296322 -0.390545 -0.000261
v  0.449880 -0.416130 -0.000261
v  0.602271 -0.429939 -0.000261
v  0.172217 -0.126497 0.227662
v  0.215375 -0.003742 0.243322
v  0.257070 0.114336 0.205757
v  0.061303 -0.192103 0.131032
v  0.090025 -0.098157 0.209225
v  0.127410 0.024122 0.226134
v  0.160508 0.132382 0.189474
v  0.178996 0.192853 0.103466
v  0.186945 0.218855 -0.000260
v  0.178996 0.192853 -0.103986
v  0.160508 0.132382 -0.189994
v  0.127410 0.024123 -0.226655
v  0.356054 0.164372 -0.122976
v  0.446740 0.156862 -0.138695
v  0.360518 0.214070 -0.000260
v  0.451299 0.217161 -0.000260
v  0.446740 0.156862 0.138174
v  0.356054 0.164372 0.122455
v  0.277653 0.181662 0.111323
v  0.286649 0.211085 -0.000260
v  0.277653 0.181662 -0.111843
v  0.521648 0.090516 -0.424880
v  0.622427 0.104003 -0.285709
v  0.478508 0.110877 -0.326236
v  0.612516 0.124365 -0.238833
v  0.616369 0.182113 -0.154597
v  0.616638 0.223829 -0.000260
v  0.717808 0.130946 -0.159495
v  0.741193 0.202851 -0.000260
v  0.829746 0.124053 -0.000260
v  0.806347 0.087409 -0.154570
v  0.923355 0.080516 -0.037067
v  0.923355 0.080516 0.036547
v  0.806347 0.087409 0.154049
v  0.717808 0.130946 0.158975
v  0.616369 0.182113 0.154077
v  0.612516 0.124365 0.238313
v  0.478508 0.110877 0.325715
v  0.622427 0.104003 0.285189
v  0.521648 0.090515 0.424359
v  0.451299 0.217161 -0.000260
v  0.446740 0.156862 -0.138695
v  0.360518 0.214070 -0.000260
v  0.356054 0.164372 -0.122976
v  0.277653 0.181662 -0.111843
v  0.286649 0.211085 -0.000260
v  0.277653 0.181662 0.111323
v  0.356054 0.164372 0.122455
v  0.446740 0.156862 0.138174
v  0.521648 0.090515 0.424359
v  0.622427 0.104003 0.285189
v  0.478508 0.110877 0.325715
v  0.612516 0.124365 0.238313
v  0.616369 0.182113 0.154077
v  0.616638 0.223829 -0.000260
v  0.717808 0.130946 0.158975
v  0.741193 0.202851 -0.000260
v  0.829746 0.124053 -0.000260
v  0.806347 0.087409 0.154049
v  0.923355 0.080516 0.036547
v  0.923355 0.080516 -0.037067
v  0.806347 0.087409 -0.154570
v  0.717808 0.130946 -0.159495
v  0.616369 0.182113 -0.154597
v  0.612516 0.124365 -0.238833
v  0.478508 0.110877 -0.326236
v  0.622427 0.104003 -0.285709
v  0.521648 0.090516 -0.424880
v  0.090025 -0.098157 0.209225
v  0.127410 0.024122 0.226134
v  0.211385 -0.016791 -0.000260
v  0.160508 0.132382 0.189474
v  0.178996 0.192853 0.103466
v  0.186945 0.218855 -0.000260
v  0.178996 0.192853 -0.103986
v  0.160508 0.132382 -0.189994
v  0.127410 0.024123 -0.226655
v  0.090025 -0.098156 -0.209746
v  0.061303 -0.192103 -0.131552
v  0.050599 -0.227116 -0.000260
v  0.061303 -0.192103 0.131032

vt  0.047699 -0.376465 0.000000
vt  0.139463 -0.354381 0.000000
vt  0.191082 -0.516670 0.000000
vt  0.282847 -0.494586 0.000000
vt  0.139463 -0.354381 0.000000
vt  0.047699 -0.376465 0.000000
vt  0.047699 -0.376465 0.000000
vt  0.139463 -0.354381 0.000000
vt  0.191082 -0.516670 0.000000
vt  0.282847 -0.494586 0.000000
vt  0.139463 -0.354381 0.000000
vt  0.047699 -0.376465 0.000000
vt  0.797500 -0.754443 0.000000
vt  0.791650 -0.595106 0.000000
vt  0.886192 -0.746706 0.000000
vt  0.890398 -0.620918 0.000000
vt  0.797500 -0.754443 0.000000
vt  0.803634 -0.877699 0.000000
vt  0.886192 -0.746706 0.000000
vt  0.886826 -0.859489 0.000000
vt  0.706385 -0.754508 0.000000
vt  0.705600 -0.568066 0.000000
vt  0.730976 -0.453372 0.000000
vt  0.815037 -0.469211 0.000000
vt  0.901414 -0.483362 0.000000
vt  0.791650 -0.595106 0.000000
vt  0.705600 -0.568066 0.000000
vt  0.706385 -0.754508 0.000000
vt  0.701730 -0.895383 0.000000
vt  0.546276 -0.730691 0.000000
vt  0.550075 -0.639021 0.000000
vt  0.600759 -0.528440 0.000000
vt  0.641913 -0.417774 0.000000
vt  0.732871 -0.341317 0.000000
vt  0.826057 -0.340969 0.000000
vt  0.903608 -0.345848 0.000000
vt  0.982368 -0.341156 0.000000
vt  0.546276 -0.730691 0.000000
vt  0.523265 -0.885939 0.000000
vt  0.450866 -0.681112 0.000000
vt  0.465247 -0.530581 0.000000
vt  0.504069 -0.403501 0.000000
vt  0.501853 -0.292993 0.000000
vt  0.725127 -0.277865 0.000000
vt  0.819354 -0.255621 0.000000
vt  0.905211 -0.210795 0.000000
vt  0.979021 -0.212785 0.000000
vt  0.527974 -0.170484 0.000000
vt  0.712600 -0.158719 0.000000
vt  0.826137 -0.189981 0.000000
vt  0.811831 -0.032271 0.000000
vt  0.918253 -0.067838 0.000000
vt  0.905211 -0.210795 0.000000
vt  0.986928 -0.080796 0.000000
vt  0.387921 -0.834607 0.000000
vt  0.283720 -0.740064 0.000000
vt  0.300863 -0.534873 0.000000
vt  0.320738 -0.353035 0.000000
vt  0.341877 -0.214394 0.000000
vt  0.377732 -0.067008 0.000000
vt  0.527974 -0.170484 0.000000
vt  0.501853 -0.292993 0.000000
vt  0.504069 -0.403501 0.000000
vt  0.641913 -0.417774 0.000000
vt  0.600759 -0.528440 0.000000
vt  0.550075 -0.639021 0.000000
vt  0.450866 -0.681112 0.000000
vt  0.465247 -0.530581 0.000000
vt  0.712600 -0.158719 0.000000
vt  0.725127 -0.277865 0.000000
vt  0.732871 -0.341317 0.000000
vt  0.730976 -0.453372 0.000000
vt  0.815037 -0.469211 0.000000
vt  0.826057 -0.340969 0.000000
vt  0.819354 -0.255621 0.000000
vt  0.826137 -0.189981 0.000000
vt  0.704480 -0.006529 0.000000
vt  0.539603 -0.012957 0.000000
vt  0.377732 -0.067008 0.000000
vt  0.903608 -0.345848 0.000000
vt  0.901414 -0.483362 0.000000
vt  0.890398 -0.620918 0.000000
vt  0.979021 -0.212785 0.000000
vt  0.982368 -0.341156 0.000000
vt  0.986310 -0.487202 0.000000
vt  0.981278 -0.623496 0.000000
vt  0.976828 -0.741659 0.000000
vt  0.978231 -0.848159 0.000000
vt  0.976828 -0.741659 0.000000
vt  0.981278 -0.623496 0.000000
vt  0.986310 -0.487202 0.000000
vt  0.116447 -0.927084 0.000000
vt  0.129470 -0.856734 0.000000
vt  0.012040 -0.915851 0.000000
vt  0.012094 -0.846001 0.000000
vt  0.129470 -0.856734 0.000000
vt  0.116447 -0.927084 0.000000
vt  0.099125 -0.992979 0.000000
vt  0.011769 -0.978978 0.000000
vt  0.099125 -0.992979 0.000000
vt  0.364214 -0.840249 0.000000
vt  0.270975 -0.741724 0.000000
vt  0.282412 -0.854129 0.000000
vt  0.228985 -0.741781 0.000000
vt  0.147776 -0.724094 0.000000
vt  0.015111 -0.721444 0.000000
vt  0.157241 -0.628297 0.000000
vt  0.018242 -0.626080 0.000000
vt  0.032442 -0.537482 0.000000
vt  0.157734 -0.550077 0.000000
vt  0.063821 -0.460187 0.000000
vt  0.063821 -0.460187 0.000000
vt  0.157734 -0.550077 0.000000
vt  0.157241 -0.628297 0.000000
vt  0.147776 -0.724094 0.000000
vt  0.228985 -0.741781 0.000000
vt  0.282412 -0.854129 0.000000
vt  0.270975 -0.741724 0.000000
vt  0.364214 -0.840249 0.000000
vt  0.012094 -0.846001 0.000000
vt  0.129470 -0.856734 0.000000
vt  0.012040 -0.915851 0.000000
vt  0.116447 -0.927084 0.000000
vt  0.099125 -0.992979 0.000000
vt  0.011769 -0.978978 0.000000
vt  0.099125 -0.992979 0.000000
vt  0.116447 -0.927084 0.000000
vt  0.129470 -0.856734 0.000000
vt  0.364214 -0.840249 0.000000
vt  0.270975 -0.741724 0.000000
vt  0.282412 -0.854129 0.000000
vt  0.228985 -0.741781 0.000000
vt  0.147776 -0.724094 0.000000
vt  0.015111 -0.721444 0.000000
vt  0.157241 -0.628297 0.000000
vt  0.018242 -0.626080 0.000000
vt  0.032442 -0.537482 0.000000
vt  0.157734 -0.550077 0.000000
vt  0.063821 -0.460187 0.000000
vt  0.063821 -0.460187 0.000000
vt  0.157734 -0.550077 0.000000
vt  0.157241 -0.628297 0.000000
vt  0.147776 -0.724094 0.000000
vt  0.228985 -0.741781 0.000000
vt  0.282412 -0.854129 0.000000
vt  0.270975 -0.741724 0.000000
vt  0.364214 -0.840249 0.000000
vt  0.167543 -0.260342 0.000000
vt  0.181498 -0.172297 0.000000
vt  0.018521 -0.163089 0.000000
vt  0.152130 -0.089866 0.000000
vt  0.092374 -0.037397 0.000000
vt  0.022576 -0.011254 0.000000
vt  0.092374 -0.037397 0.000000
vt  0.152130 -0.089866 0.000000
vt  0.181498 -0.172297 0.000000
vt  0.167543 -0.260342 0.000000
vt  0.110527 -0.319971 0.000000
vt  0.022837 -0.334912 0.000000
vt  0.110527 -0.319971 0.000000

vn  -0.000000 0.931000 -0.365020
vn  -0.000000 0.931000 -0.365020
vn  -0.000000 1.000000 0.000001
vn  -0.000000 1.000000 0.000001
vn  -0.000001 0.930999 0.365021
vn  -0.000001 0.930999 0.365021
vn  0.344821 -0.702535 -0.622529
vn  0.000001 -0.930999 -0.365021
vn  -0.028177 -0.999603 -0.000001
vn  0.000000 -1.000000 -0.000001
vn  0.000000 -0.931000 0.365020
vn  0.344821 -0.702536 0.622528
vn  0.081006 0.921959 -0.378721
vn  -0.373377 0.609230 -0.699592
vn  0.119798 0.903301 -0.411942
vn  -0.118032 0.623513 -0.772852
vn  0.081006 0.921959 0.378722
vn  0.059944 0.998202 0.000001
vn  0.119798 0.903300 0.411943
vn  0.148684 0.988885 0.000001
vn  0.007578 0.919063 -0.394038
vn  0.123358 0.417443 -0.900291
vn  -0.085750 -0.001553 -0.996316
vn  -0.567599 0.158220 -0.807959
vn  -0.181569 0.143394 -0.972867
vn  -0.373377 0.609229 0.699592
vn  0.123358 0.417441 0.900292
vn  0.007577 0.919062 0.394039
vn  -0.066119 0.997812 0.000001
vn  0.199421 0.857248 -0.474718
vn  0.461358 0.219986 -0.859509
vn  0.507246 -0.345823 -0.789372
vn  0.574238 -0.251150 -0.779214
vn  -0.188688 -0.275318 -0.942654
vn  -0.531960 -0.093080 -0.841638
vn  -0.300550 -0.239141 -0.923299
vn  -0.851420 0.035734 -0.523266
vn  0.199421 0.857247 0.474719
vn  0.164338 0.986404 0.000001
vn  0.722070 0.132158 -0.679080
vn  0.679723 -0.471913 -0.561493
vn  0.695230 -0.302321 -0.652118
vn  0.689758 -0.275645 -0.669518
vn  -0.277415 -0.590333 -0.757989
vn  -0.553628 -0.579624 -0.597939
vn  -0.439820 -0.727638 -0.526404
vn  -0.921773 -0.227030 -0.314311
vn  0.344821 -0.702535 -0.622529
vn  -0.440826 -0.813714 -0.378868
vn  -0.444428 -0.817274 -0.366807
vn  -0.529184 -0.848507 -0.000001
vn  -0.560032 -0.828471 -0.000001
vn  -0.439821 -0.727638 0.526403
vn  -0.947591 -0.319486 0.000000
vn  0.495929 0.868363 0.000001
vn  0.999206 -0.039831 -0.000000
vn  0.768251 -0.640148 -0.000000
vn  0.956427 -0.291972 -0.000000
vn  0.996924 -0.078376 -0.000000
vn  0.990172 0.139852 0.000000
vn  0.344821 -0.702536 0.622528
vn  0.689758 -0.275646 0.669518
vn  0.695230 -0.302322 0.652117
vn  0.574238 -0.251151 0.779214
vn  0.507246 -0.345824 0.789371
vn  0.461358 0.219985 0.859509
vn  0.722070 0.132157 0.679080
vn  0.679723 -0.471914 0.561493
vn  -0.440826 -0.813715 0.378867
vn  -0.277415 -0.590334 0.757989
vn  -0.188688 -0.275319 0.942654
vn  -0.085750 -0.001554 0.996316
vn  -0.567599 0.158219 0.807960
vn  -0.531961 -0.093081 0.841638
vn  -0.553628 -0.579625 0.597939
vn  -0.444428 -0.817275 0.366806
vn  -0.386252 -0.922394 -0.000001
vn  -0.128627 -0.991693 -0.000001
vn  -0.028177 -0.999603 -0.000001
vn  -0.300550 -0.239142 0.923299
vn  -0.181569 0.143393 0.972867
vn  -0.118031 0.623512 0.772853
vn  -0.921773 -0.227031 0.314311
vn  -0.851420 0.035733 0.523266
vn  -0.778906 0.295065 0.553391
vn  -0.683142 0.559296 0.469580
vn  -0.670238 0.705341 0.230812
vn  -0.641520 0.767107 0.000001
vn  -0.670238 0.705341 -0.230811
vn  -0.683142 0.559297 -0.469579
vn  -0.778906 0.295066 -0.553391
vn  -0.072901 -0.923485 0.376645
vn  0.075453 -0.921618 0.380694
vn  -0.008366 -0.999965 -0.000001
vn  0.076452 -0.997073 -0.000001
vn  0.075453 -0.921617 -0.380695
vn  -0.072901 -0.923484 -0.376646
vn  -0.088923 -0.936884 -0.338144
vn  0.040372 -0.999185 -0.000001
vn  -0.088923 -0.936884 0.338143
vn  -0.092617 -0.982390 0.162274
vn  -0.131824 -0.942099 0.308337
vn  -0.082910 -0.973577 0.212778
vn  -0.015266 -0.922212 0.386383
vn  -0.070681 -0.920961 0.383192
vn  -0.113773 -0.993507 -0.000001
vn  -0.418298 -0.848002 0.325453
vn  -0.424145 -0.905594 -0.000001
vn  -0.483678 -0.875246 -0.000001
vn  -0.403101 -0.874773 0.268853
vn  -0.319235 -0.910014 0.264505
vn  -0.319235 -0.910014 -0.264507
vn  -0.403101 -0.874773 -0.268854
vn  -0.418297 -0.848002 -0.325454
vn  -0.070682 -0.920960 -0.383193
vn  -0.015266 -0.922212 -0.386384
vn  -0.082910 -0.973576 -0.212779
vn  -0.131823 -0.942099 -0.308338
vn  -0.092617 -0.982389 -0.162275
vn  -0.076452 0.997073 0.000001
vn  -0.075453 0.921618 -0.380694
vn  0.008366 0.999965 0.000001
vn  0.072901 0.923485 -0.376645
vn  0.088923 0.936884 -0.338143
vn  -0.040372 0.999185 0.000001
vn  0.088923 0.936884 0.338144
vn  0.072901 0.923484 0.376646
vn  -0.075453 0.921617 0.380695
vn  0.092617 0.982389 0.162275
vn  0.131823 0.942099 0.308338
vn  0.082910 0.973576 0.212779
vn  0.015266 0.922212 0.386384
vn  0.070682 0.920960 0.383193
vn  0.113773 0.993507 0.000001
vn  0.418297 0.848002 0.325454
vn  0.424145 0.905594 0.000001
vn  0.483678 0.875246 0.000001
vn  0.403101 0.874773 0.268854
vn  0.319235 0.910014 0.264507
vn  0.319235 0.910014 -0.264505
vn  0.403101 0.874773 -0.268853
vn  0.418298 0.848002 -0.325453
vn  0.070681 0.920961 -0.383192
vn  0.015266 0.922212 -0.386383
vn  0.082910 0.973577 -0.212778
vn  0.131824 0.942099 -0.308337
vn  0.092617 0.982390 -0.162274
vn  -0.851420 0.035733 0.523266
vn  -0.778906 0.295065 0.553391
vn  -0.962493 0.271308 0.000000
vn  -0.683142 0.559296 0.469580
vn  -0.670238 0.705341 0.230812
vn  -0.641520 0.767107 0.000001
vn  -0.670238 0.705341 -0.230811
vn  -0.683142 0.559297 -0.469579
vn  -0.778906 0.295066 -0.553391
vn  -0.851420 0.035734 -0.523266
vn  -0.921773 -0.227030 -0.314311
vn  -0.947591 -0.319486 0.000000
vn  -0.921773 -0.227031 0.314311

g G1132
usemtl G1132_3
f  1/1/1 2/2/2 3/3/3
f  4/4/4 3/3/3 2/2/2
f  5/5/5 3/3/3 4/4/4
f  3/3/3 5/5/5 6/6/6
f  7/7/7 8/8/8 9/9/9
f  10/10/10 9/9/9 8/8/8
f  11/11/11 9/9/9 10/10/10
f  9/9/9 11/11/11 12/12/12
f  13/13/13 14/14/14 15/15/15
f  16/16/16 15/15/15 14/14/14
f  17/17/17 18/18/18 19/19/19
f  19/19/19 18/18/18 20/20/20
f  20/20/20 18/18/18 15/15/15
f  15/15/15 18/18/18 13/13/13
f  21/21/21 13/13/13 18/18/18
f  22/22/22 13/13/13 21/21/21
f  13/13/13 22/22/22 14/14/14
f  23/23/23 14/14/14 22/22/22
f  24/24/24 14/14/14 23/23/23
f  14/14/14 24/24/24 16/16/16
f  25/25/25 16/16/16 24/24/24
f  19/19/19 26/26/26 17/17/17
f  27/27/27 17/17/17 26/26/26
f  28/28/28 17/17/17 27/27/27
f  17/17/17 28/28/28 18/18/18
f  29/29/29 18/18/18 28/28/28
f  18/18/18 29/29/29 21/21/21
f  30/30/30 21/21/21 29/29/29
f  31/31/31 21/21/21 30/30/30
f  21/21/21 31/31/31 22/22/22
f  32/32/32 22/22/22 31/31/31
f  33/33/33 22/22/22 32/32/32
f  22/22/22 33/33/33 23/23/23
f  34/34/34 23/23/23 33/33/33
f  23/23/23 34/34/34 24/24/24
f  35/35/35 24/24/24 34/34/34
f  24/24/24 35/35/35 25/25/25
f  36/36/36 25/25/25 35/35/35
f  37/37/37 25/25/25 36/36/36
f  28/28/28 38/38/38 29/29/29
f  39/39/39 29/29/29 38/38/38
f  29/29/29 39/39/39 30/30/30
f  40/40/40 30/30/30 39/39/39
f  30/30/30 40/40/40 31/31/31
f  41/41/41 31/31/31 40/40/40
f  31/31/31 41/41/41 32/32/32
f  42/42/42 32/32/32 41/41/41
f  32/32/32 42/42/42 33/33/33
f  43/43/43 33/33/33 42/42/42
f  33/33/33 43/43/43 34/34/34
f  44/44/44 34/34/34 43/43/43
f  34/34/34 44/44/44 35/35/35
f  45/45/45 35/35/35 44/44/44
f  35/35/35 45/45/45 36/36/36
f  46/46/46 36/36/36 45/45/45
f  36/36/36 46/46/46 37/37/37
f  47/47/47 37/37/37 46/46/46
f  43/43/43 48/48/48 44/44/44
f  49/49/49 44/44/44 48/48/48
f  50/50/50 44/44/44 49/49/49
f  44/44/44 50/50/50 45/45/45
f  45/45/45 50/50/50 46/46/46
f  51/51/51 46/46/46 50/50/50
f  46/46/46 51/51/51 52/52/52
f  53/53/53 52/52/52 51/51/51
f  54/54/54 52/52/52 53/53/53
f  52/52/52 54/54/54 46/46/46
f  47/47/47 46/46/46 54/54/54
f  55/55/55 56/56/56 40/40/40
f  57/57/57 40/40/40 56/56/56
f  40/40/40 57/57/57 41/41/41
f  58/58/58 41/41/41 57/57/57
f  41/41/41 58/58/58 42/42/42
f  59/59/59 42/42/42 58/58/58
f  42/42/42 59/59/59 43/43/43
f  43/43/43 59/59/59 48/48/48
f  48/48/48 59/59/59 60/60/60
f  60/60/60 59/59/59 61/61/61
f  61/61/61 59/59/59 62/62/62
f  63/63/63 62/62/62 59/59/59
f  62/62/62 63/63/63 64/64/64
f  65/65/65 64/64/64 63/63/63
f  64/64/64 65/65/65 27/27/27
f  66/66/66 27/27/27 65/65/65
f  27/27/27 66/66/66 28/28/28
f  38/38/38 28/28/28 66/66/66
f  40/40/40 39/39/39 55/55/55
f  55/55/55 39/39/39 67/67/67
f  38/38/38 67/67/67 39/39/39
f  66/66/66 67/67/67 38/38/38
f  67/67/67 66/66/66 68/68/68
f  65/65/65 68/68/68 66/66/66
f  63/63/63 68/68/68 65/65/65
f  68/68/68 63/63/63 58/58/58
f  59/59/59 58/58/58 63/63/63
f  57/57/57 68/68/68 58/58/58
f  68/68/68 57/57/57 67/67/67
f  56/56/56 67/67/67 57/57/57
f  55/55/55 67/67/67 56/56/56
f  69/69/69 61/61/61 70/70/70
f  62/62/62 70/70/70 61/61/61
f  70/70/70 62/62/62 71/71/71
f  64/64/64 71/71/71 62/62/62
f  71/71/71 64/64/64 72/72/72
f  27/27/27 72/72/72 64/64/64
f  26/26/26 72/72/72 27/27/27
f  73/73/73 72/72/72 26/26/26
f  72/72/72 73/73/73 71/71/71
f  74/74/74 71/71/71 73/73/73
f  71/71/71 74/74/74 70/70/70
f  75/75/75 70/70/70 74/74/74
f  76/76/76 70/70/70 75/75/75
f  70/70/70 76/76/76 69/69/69
f  77/77/77 69/69/69 76/76/76
f  78/78/78 69/69/69 77/77/77
f  69/69/69 78/78/78 61/61/61
f  61/61/61 78/78/78 79/79/79
f  79/79/79 78/78/78 48/48/48
f  48/48/48 78/78/78 49/49/49
f  77/77/77 49/49/49 78/78/78
f  49/49/49 77/77/77 50/50/50
f  50/50/50 77/77/77 51/51/51
f  76/76/76 51/51/51 77/77/77
f  51/51/51 76/76/76 53/53/53
f  75/75/75 53/53/53 76/76/76
f  53/53/53 75/75/75 80/80/80
f  74/74/74 80/80/80 75/75/75
f  80/80/80 74/74/74 81/81/81
f  73/73/73 81/81/81 74/74/74
f  81/81/81 73/73/73 82/82/82
f  26/26/26 82/82/82 73/73/73
f  19/19/19 82/82/82 26/26/26
f  54/54/54 53/53/53 83/83/83
f  83/83/83 53/53/53 84/84/84
f  80/80/80 84/84/84 53/53/53
f  81/81/81 84/84/84 80/80/80
f  84/84/84 81/81/81 85/85/85
f  85/85/85 81/81/81 86/86/86
f  82/82/82 86/86/86 81/81/81
f  19/19/19 86/86/86 82/82/82
f  86/86/86 19/19/19 87/87/87
f  20/20/20 87/87/87 19/19/19
f  87/87/87 20/20/20 88/88/88
f  88/88/88 20/20/20 89/89/89
f  15/15/15 89/89/89 20/20/20
f  89/89/89 15/15/15 90/90/90
f  16/16/16 90/90/90 15/15/15
f  25/25/25 90/90/90 16/16/16
f  90/90/90 25/25/25 91/91/91
f  37/37/37 91/91/91 25/25/25
f  92/92/92 93/93/93 94/94/94
f  95/95/95 94/94/94 93/93/93
f  96/96/96 94/94/94 95/95/95
f  97/97/97 94/94/94 96/96/96
f  98/98/98 94/94/94 97/97/97
f  99/99/99 94/94/94 98/98/98
f  100/100/100 94/94/94 99/99/99
f  94/94/94 100/100/100 92/92/92
f  101/101/101 102/102/102 103/103/103
f  104/104/104 103/103/103 102/102/102
f  103/103/103 104/104/104 93/93/93
f  105/105/105 93/93/93 104/104/104
f  93/93/93 105/105/105 95/95/95
f  95/95/95 105/105/105 106/106/106
f  107/107/107 106/106/106 105/105/105
f  106/106/106 107/107/107 108/108/108
f  108/108/108 107/107/107 109/109/109
f  110/110/110 109/109/109 107/107/107
f  109/109/109 110/110/110 111/111/111
f  112/112/112 113/113/113 109/109/109
f  114/114/114 109/109/109 113/113/113
f  109/109/109 114/114/114 108/108/108
f  108/108/108 114/114/114 106/106/106
f  115/115/115 106/106/106 114/114/114
f  106/106/106 115/115/115 95/95/95
f  95/95/95 115/115/115 96/96/96
f  116/116/116 96/96/96 115/115/115
f  96/96/96 116/116/116 117/117/117
f  118/118/118 117/117/117 116/116/116
f  117/117/117 118/118/118 119/119/119
f  120/120/120 121/121/121 122/122/122
f  123/123/123 122/122/122 121/121/121
f  124/124/124 122/122/122 123/123/123
f  125/125/125 122/122/122 124/124/124
f  126/126/126 122/122/122 125/125/125
f  127/127/127 122/122/122 126/126/126
f  128/128/128 122/122/122 127/127/127
f  122/122/122 128/128/128 120/120/120
f  129/129/129 130/130/130 131/131/131
f  132/132/132 131/131/131 130/130/130
f  131/131/131 132/132/132 128/128/128
f  133/133/133 128/128/128 132/132/132
f  128/128/128 133/133/133 120/120/120
f  120/120/120 133/133/133 134/134/134
f  135/135/135 134/134/134 133/133/133
f  134/134/134 135/135/135 136/136/136
f  136/136/136 135/135/135 137/137/137
f  138/138/138 137/137/137 135/135/135
f  137/137/137 138/138/138 139/139/139
f  140/140/140 141/141/141 137/137/137
f  142/142/142 137/137/137 141/141/141
f  137/137/137 142/142/142 136/136/136
f  136/136/136 142/142/142 134/134/134
f  143/143/143 134/134/134 142/142/142
f  134/134/134 143/143/143 120/120/120
f  120/120/120 143/143/143 121/121/121
f  144/144/144 121/121/121 143/143/143
f  121/121/121 144/144/144 145/145/145
f  146/146/146 145/145/145 144/144/144
f  145/145/145 146/146/146 147/147/147
f  148/148/148 149/149/149 150/150/150
f  151/151/151 150/150/150 149/149/149
f  152/152/152 150/150/150 151/151/151
f  153/153/153 150/150/150 152/152/152
f  154/154/154 150/150/150 153/153/153
f  155/155/155 150/150/150 154/154/154
f  156/156/156 150/150/150 155/155/155
f  157/157/157 150/150/150 156/156/156
f  158/158/158 150/150/150 157/157/157
f  159/159/159 150/150/150 158/158/158
f  160/160/160 150/150/150 159/159/159
f  150/150/150 160/160/160 148/148/148

g
