# Noesis .obj export.
#
mtllib g1234.mtl
g
v  0.021648 0.193509 0.059806
v  0.008926 0.177305 0.077562
v  0.015944 0.177780 0.080790
v  -0.000258 0.163860 0.088486
v  0.008239 0.159622 0.095418
v  -0.000904 0.144147 0.104325
v  -0.008616 0.153090 0.095152
v  -0.017851 0.140242 0.099213
v  -0.017579 0.159729 0.084420
v  -0.026261 0.149267 0.087533
v  -0.027659 0.164969 0.071002
v  -0.035263 0.157777 0.073383
v  -0.042691 0.164700 0.057298
v  -0.037090 0.169308 0.056367
v  -0.049081 0.173501 0.034545
v  -0.037559 0.106504 0.097401
v  -0.026478 0.114210 0.105581
v  -0.031622 0.119289 0.100709
v  -0.025220 0.129315 0.100845
v  -0.016994 0.122846 0.110106
v  -0.009977 0.131431 0.108698
v  -0.002034 0.119932 0.117017
v  0.009119 0.131212 0.114312
v  0.008454 0.110885 0.124825
v  0.018595 0.119278 0.123188
v  0.028253 0.107741 0.130739
v  0.022741 0.103591 0.131524
v  0.039946 0.093886 0.137116

vt  0.015882 -0.058020 0.000000
vt  0.114802 -0.187456 0.000000
vt  0.160819 -0.125545 0.000000
vt  0.214470 -0.301126 0.000000
vt  0.306649 -0.205173 0.000000
vt  0.489477 -0.303049 0.000000
vt  0.331744 -0.453863 0.000000
vt  0.528531 -0.609931 0.000000
vt  0.241264 -0.616637 0.000000
vt  0.377935 -0.718674 0.000000
vt  0.156289 -0.748226 0.000000
vt  0.255535 -0.822000 0.000000
vt  0.147220 -0.903600 0.000000
vt  0.090269 -0.856373 0.000000
vt  0.024933 -0.977198 0.000000
vt  0.885537 -0.787278 0.000000
vt  0.835300 -0.695889 0.000000
vt  0.791322 -0.746384 0.000000
vt  0.687042 -0.689490 0.000000
vt  0.761909 -0.596076 0.000000
vt  0.666809 -0.464458 0.000000
vt  0.760234 -0.320417 0.000000
vt  0.659108 -0.202302 0.000000
vt  0.849871 -0.204895 0.000000
vt  0.782125 -0.120312 0.000000
vt  0.871266 -0.064375 0.000000
vt  0.914049 -0.117833 0.000000
vt  0.984236 -0.014897 0.000000

vn  -0.293867 0.801456 0.520874
vn  -0.314617 0.757127 0.572516
vn  -0.298070 0.755201 0.583803
vn  -0.257936 0.649307 0.715451
vn  -0.277648 0.629839 0.725407
vn  -0.295306 0.524076 0.798836
vn  -0.323072 0.568791 0.756374
vn  -0.407381 0.499223 0.764733
vn  -0.470098 0.579604 0.665633
vn  -0.437077 0.583761 0.684242
vn  -0.470279 0.662877 0.582608
vn  -0.446986 0.669137 0.593682
vn  -0.509050 0.714003 0.480695
vn  -0.507704 0.714340 0.481618
vn  -0.529420 0.730564 0.431266
vn  -0.633279 0.095360 0.768026
vn  -0.587885 0.216255 0.779503
vn  -0.556106 0.208534 0.804524
vn  -0.509782 0.378465 0.772584
vn  -0.527672 0.401007 0.748836
vn  -0.343337 0.478158 0.808384
vn  -0.247500 0.454815 0.855504
vn  -0.250745 0.455362 0.854267
vn  -0.223296 0.437363 0.871121
vn  -0.218407 0.434377 0.873851
vn  -0.157335 0.377525 0.912535
vn  -0.165797 0.391424 0.905151
vn  -0.116806 0.332186 0.935953

g G1234
usemtl G1234_3
f  1/1/1 2/2/2 3/3/3
f  4/4/4 3/3/3 2/2/2
f  3/3/3 4/4/4 5/5/5
f  5/5/5 4/4/4 6/6/6
f  7/7/7 6/6/6 4/4/4
f  6/6/6 7/7/7 8/8/8
f  9/9/9 8/8/8 7/7/7
f  8/8/8 9/9/9 10/10/10
f  11/11/11 10/10/10 9/9/9
f  10/10/10 11/11/11 12/12/12
f  12/12/12 11/11/11 13/13/13
f  14/14/14 13/13/13 11/11/11
f  13/13/13 14/14/14 15/15/15
f  16/16/16 17/17/17 18/18/18
f  18/18/18 17/17/17 19/19/19
f  20/20/20 19/19/19 17/17/17
f  21/21/21 19/19/19 20/20/20
f  19/19/19 21/21/21 8/8/8
f  8/8/8 21/21/21 6/6/6
f  22/22/22 6/6/6 21/21/21
f  6/6/6 22/22/22 23/23/23
f  24/24/24 23/23/23 22/22/22
f  23/23/23 24/24/24 25/25/25
f  25/25/25 24/24/24 26/26/26
f  27/27/27 26/26/26 24/24/24
f  26/26/26 27/27/27 28/28/28

g
