# Noesis .obj export.
#
mtllib g1249.mtl
g
v  0.128503 0.166234 0.120884
v  0.129173 0.173879 0.108786
v  0.119915 0.170892 0.109944
v  0.130449 0.168512 0.105181
v  0.121186 0.165529 0.106333
v  0.130449 0.168512 0.105181
v  0.129778 0.160878 0.117251
v  0.127386 0.153913 0.126897
v  0.126116 0.159246 0.130553
v  0.121760 0.147478 0.134604
v  0.120553 0.152742 0.138237
v  0.112918 0.141224 0.140062
v  0.111652 0.146562 0.143753
v  0.102958 0.135506 0.143738
v  0.101703 0.140812 0.147439
v  0.106484 0.150163 0.136381
v  0.099238 0.145933 0.138915
v  0.100491 0.140615 0.135232
v  0.102958 0.135506 0.143738
v  0.100491 0.140615 0.135232
v  0.107841 0.144560 0.133125
v  0.113781 0.148572 0.129484
v  0.112476 0.154358 0.132941
v  0.117611 0.159893 0.126522
v  0.118905 0.154572 0.122873
v  0.119455 0.165078 0.119379
v  0.120725 0.159723 0.115747
v  0.121186 0.165529 0.106333
v  0.114803 0.195384 0.056661
v  0.122724 0.199096 0.041050
v  0.082471 0.200776 0.040251
v  0.091593 0.205551 0.025099
v  0.119567 0.195969 0.038271
v  0.095847 0.200284 0.026873
v  0.081830 0.199089 0.043879
v  0.050245 0.190505 0.046428
v  0.051153 0.189491 0.050041
v  0.036053 0.184916 0.055694
v  0.037761 0.184612 0.057925
v  0.025516 0.178915 0.068034
v  0.028233 0.178571 0.070145
v  0.022058 0.171416 0.081522
v  0.024508 0.171406 0.082929
v  0.023279 0.157477 0.103302
v  0.020960 0.156979 0.102590
v  0.026365 0.136291 0.129243
v  0.023922 0.134892 0.130636
v  0.058095 0.129064 0.143891
v  0.053179 0.111591 0.146484
v  0.019186 0.116800 0.132333
v  0.047603 0.109929 0.142933
v  0.025139 0.113087 0.132970
v  0.027050 0.170388 0.083184
v  0.025689 0.156969 0.102850
v  0.028901 0.136695 0.126675
v  0.059446 0.131208 0.142500
v  0.091159 0.137259 0.145019
v  0.091299 0.135364 0.146956
v  0.111225 0.145228 0.141225
v  0.109823 0.146781 0.139589
v  0.121035 0.154547 0.131028
v  0.123513 0.153588 0.132312
v  0.124552 0.165469 0.115931
v  0.127627 0.165220 0.116130
v  0.122995 0.174865 0.099771
v  0.126661 0.175047 0.099199
v  0.112448 0.194216 0.059632
v  0.075108 0.171444 0.101730
v  0.060882 0.132359 0.139928
v  0.091105 0.138158 0.141900
v  0.108508 0.147334 0.136775
v  0.118648 0.154502 0.128570
v  0.121570 0.164710 0.114566
v  0.119423 0.173675 0.099183
v  0.110184 0.192037 0.061468
v  0.081276 0.196389 0.046383
v  0.052144 0.187465 0.052525
v  0.039554 0.183297 0.059018
v  0.031046 0.177217 0.071110
v  0.153672 0.084683 -0.162100
v  0.134668 0.082049 -0.162100
v  0.158291 0.153590 -0.128202
v  0.137632 0.150603 -0.128202
v  0.148457 0.195379 -0.064762
v  0.127410 0.192301 -0.064763
v  0.131768 0.204315 0.000749
v  0.108545 0.205414 0.000749
v  0.119567 0.195969 0.038271
v  0.095847 0.200284 0.026873
v  -0.004277 -0.116371 0.052839
v  0.012655 -0.114628 0.052695
v  -0.014189 -0.077608 0.098223
v  0.002158 -0.075494 0.098157
v  -0.015034 -0.005870 0.126999
v  0.002568 -0.006399 0.132463
v  0.002601 0.059802 0.135775
v  0.022833 0.059298 0.144407
v  0.025139 0.113087 0.132970
v  0.047603 0.109929 0.142933
v  0.047361 0.191776 0.046852
v  0.048125 0.186045 0.043796
v  0.035781 0.187462 0.054016
v  0.036528 0.181734 0.050944
v  0.027065 0.176910 0.060323
v  0.026334 0.182634 0.063417
v  0.022469 0.171315 0.072015
v  0.021747 0.177033 0.075134
v  0.019812 0.171401 0.085669
v  0.020531 0.165691 0.082526
v  0.019723 0.157753 0.095278
v  0.019006 0.163450 0.098451
v  0.027742 0.164328 0.097253
v  0.028520 0.171400 0.086684
v  0.030537 0.176634 0.077639
v  0.034268 0.181240 0.067233
v  0.040940 0.184640 0.061403
v  0.049061 0.187351 0.056587
v  0.019006 0.163450 0.098451
v  0.019723 0.157753 0.095278
v  0.028475 0.158629 0.094084
v  0.029255 0.165690 0.083539
v  0.031275 0.170917 0.074516
v  0.035012 0.175518 0.064132
v  0.041695 0.178914 0.058316
v  0.049828 0.181623 0.053510
v  0.047361 0.191776 0.046852
v  0.048125 0.186045 0.043796
v  0.012655 -0.114628 0.052695
v  -0.004277 -0.116371 0.052839
v  0.041126 -0.131407 -0.008467
v  0.022873 -0.132864 -0.008417
v  0.068972 -0.123496 -0.065190
v  0.049634 -0.125050 -0.065177
v  0.099288 -0.096296 -0.123784
v  0.080593 -0.098092 -0.123784
v  0.102989 -0.051593 -0.159711
v  0.121629 -0.049543 -0.159711
v  0.121307 0.012457 -0.169899
v  0.140950 0.014958 -0.169899
v  0.134668 0.082049 -0.162100
v  0.153672 0.084683 -0.162100

vt  0.938909 -0.110967 0.000000
vt  0.938909 -0.047921 0.000000
vt  0.892490 -0.047921 0.000000
vt  0.938909 -0.021772 0.000000
vt  0.892490 -0.021772 0.000000
vt  0.981049 -0.047921 0.000000
vt  0.981049 -0.110967 0.000000
vt  0.981049 -0.165239 0.000000
vt  0.938909 -0.165239 0.000000
vt  0.981049 -0.222522 0.000000
vt  0.938909 -0.222522 0.000000
vt  0.981049 -0.276063 0.000000
vt  0.938909 -0.276063 0.000000
vt  0.981049 -0.330326 0.000000
vt  0.938909 -0.330326 0.000000
vt  0.892490 -0.276063 0.000000
vt  0.892490 -0.330326 0.000000
vt  0.892490 -0.359213 0.000000
vt  0.938909 -0.359213 0.000000
vt  0.866697 -0.330326 0.000000
vt  0.866697 -0.276063 0.000000
vt  0.866697 -0.222522 0.000000
vt  0.892490 -0.222522 0.000000
vt  0.892490 -0.165239 0.000000
vt  0.866697 -0.165239 0.000000
vt  0.892490 -0.110967 0.000000
vt  0.866697 -0.110967 0.000000
vt  0.866697 -0.047921 0.000000
vt  0.644057 -0.133558 0.000000
vt  0.644057 -0.039705 0.000000
vt  0.452772 -0.133558 0.000000
vt  0.452772 -0.034948 0.000000
vt  0.630949 -0.018737 0.000000
vt  0.474046 -0.018737 0.000000
vt  0.459413 -0.150727 0.000000
vt  0.314952 -0.263517 0.000000
vt  0.327783 -0.277765 0.000000
vt  0.269332 -0.352621 0.000000
vt  0.282937 -0.356572 0.000000
vt  0.249230 -0.447234 0.000000
vt  0.268082 -0.447679 0.000000
vt  0.253219 -0.540211 0.000000
vt  0.268807 -0.537714 0.000000
vt  0.310693 -0.678465 0.000000
vt  0.298171 -0.683896 0.000000
vt  0.435122 -0.800643 0.000000
vt  0.427525 -0.816946 0.000000
vt  0.639245 -0.816946 0.000000
vt  0.639245 -0.907041 0.000000
vt  0.427525 -0.907041 0.000000
vt  0.607326 -0.924060 0.000000
vt  0.451983 -0.924060 0.000000
vt  0.284395 -0.535218 0.000000
vt  0.323214 -0.673034 0.000000
vt  0.442719 -0.784340 0.000000
vt  0.638598 -0.800643 0.000000
vt  0.775964 -0.709743 0.000000
vt  0.783846 -0.723185 0.000000
vt  0.868844 -0.604285 0.000000
vt  0.856106 -0.596225 0.000000
vt  0.880508 -0.514783 0.000000
vt  0.896618 -0.517096 0.000000
vt  0.859375 -0.405708 0.000000
vt  0.874960 -0.400696 0.000000
vt  0.809480 -0.312770 0.000000
vt  0.822949 -0.306237 0.000000
vt  0.640979 -0.150727 0.000000
vt  0.582191 -0.469854 0.000000
vt  0.637951 -0.784340 0.000000
vt  0.768082 -0.696300 0.000000
vt  0.843368 -0.588165 0.000000
vt  0.864398 -0.512470 0.000000
vt  0.843790 -0.410720 0.000000
vt  0.796011 -0.319304 0.000000
vt  0.637901 -0.167897 0.000000
vt  0.466055 -0.167897 0.000000
vt  0.340614 -0.292013 0.000000
vt  0.296542 -0.360522 0.000000
vt  0.286935 -0.448124 0.000000
vt  0.115963 -0.984033 0.000000
vt  0.206196 -0.984033 0.000000
vt  0.115963 -0.674615 0.000000
vt  0.206196 -0.674615 0.000000
vt  0.115963 -0.374617 0.000000
vt  0.206196 -0.374617 0.000000
vt  0.115963 -0.118198 0.000000
vt  0.206196 -0.118198 0.000000
vt  0.115963 -0.031432 0.000000
vt  0.206196 -0.031432 0.000000
vt  0.206196 -0.984033 0.000000
vt  0.115963 -0.984033 0.000000
vt  0.206196 -0.674615 0.000000
vt  0.115963 -0.674615 0.000000
vt  0.206196 -0.374617 0.000000
vt  0.115963 -0.374617 0.000000
vt  0.206196 -0.118198 0.000000
vt  0.115963 -0.118198 0.000000
vt  0.206196 -0.031432 0.000000
vt  0.115963 -0.031432 0.000000
vt  0.893049 -0.945133 0.000000
vt  0.862144 -0.945133 0.000000
vt  0.893049 -0.885076 0.000000
vt  0.862144 -0.885076 0.000000
vt  0.862144 -0.825022 0.000000
vt  0.893049 -0.825022 0.000000
vt  0.862144 -0.761385 0.000000
vt  0.893049 -0.761385 0.000000
vt  0.893049 -0.702928 0.000000
vt  0.862144 -0.702928 0.000000
vt  0.862144 -0.641077 0.000000
vt  0.893049 -0.641077 0.000000
vt  0.944048 -0.641077 0.000000
vt  0.944048 -0.702928 0.000000
vt  0.944048 -0.761385 0.000000
vt  0.944048 -0.825022 0.000000
vt  0.944048 -0.885076 0.000000
vt  0.944048 -0.945133 0.000000
vt  0.944048 -0.608195 0.000000
vt  0.974799 -0.608195 0.000000
vt  0.974799 -0.641077 0.000000
vt  0.974799 -0.702928 0.000000
vt  0.974799 -0.761385 0.000000
vt  0.974799 -0.825022 0.000000
vt  0.974799 -0.885076 0.000000
vt  0.974799 -0.945133 0.000000
vt  0.944048 -0.976537 0.000000
vt  0.974799 -0.976537 0.000000
vt  0.011762 -0.984033 0.000000
vt  0.101258 -0.984033 0.000000
vt  0.011762 -0.640849 0.000000
vt  0.101258 -0.640849 0.000000
vt  0.011762 -0.340850 0.000000
vt  0.101258 -0.340850 0.000000
vt  0.011762 -0.031432 0.000000
vt  0.101258 -0.031432 0.000000
vt  0.101258 -0.340850 0.000000
vt  0.011762 -0.340850 0.000000
vt  0.101258 -0.640849 0.000000
vt  0.011762 -0.640849 0.000000
vt  0.101258 -0.984033 0.000000
vt  0.011762 -0.984033 0.000000

vn  0.567914 0.641053 0.516260
vn  0.397619 0.898338 -0.186782
vn  -0.735435 0.655035 -0.173392
vn  0.596763 0.540632 -0.592952
vn  -0.764574 0.225489 -0.603806
vn  0.596763 0.540632 -0.592952
vn  0.974212 0.092400 0.205849
vn  0.919256 -0.048599 0.390650
vn  0.548992 0.514694 0.658557
vn  0.763228 -0.237965 0.600712
vn  0.431618 0.372552 0.821529
vn  0.581618 -0.365270 0.726841
vn  0.261392 0.291105 0.920289
vn  -0.396402 -0.585657 0.707016
vn  -0.419373 -0.047582 0.906566
vn  -0.576009 0.808287 -0.122007
vn  -0.858191 0.512129 -0.035093
vn  -0.902438 0.080219 -0.423286
vn  -0.396402 -0.585657 0.707016
vn  -0.902438 0.080219 -0.423286
vn  -0.550516 0.331207 -0.766312
vn  -0.734602 0.218588 -0.642323
vn  -0.655261 0.755334 -0.010179
vn  -0.751008 0.646212 0.135636
vn  -0.913722 0.054758 -0.402633
vn  -0.803657 0.543235 0.242964
vn  -0.974497 -0.092428 -0.204480
vn  -0.764574 0.225489 -0.603806
vn  0.019421 0.945397 0.325342
vn  0.252540 0.955586 -0.151915
vn  -0.066902 0.930357 0.360500
vn  0.220860 0.973633 -0.057099
vn  0.426680 0.693717 -0.580259
vn  0.430749 0.609245 -0.665789
vn  -0.150959 0.840768 0.519924
vn  -0.201079 0.927871 0.314043
vn  -0.117520 0.875629 0.468468
vn  -0.192062 0.940931 0.278857
vn  -0.030561 0.893629 0.447764
vn  -0.183897 0.907777 0.376992
vn  -0.013247 0.883607 0.468042
vn  -0.262984 0.845711 0.464341
vn  -0.024582 0.845844 0.532864
vn  -0.047636 0.796827 0.602327
vn  -0.329344 0.754425 0.567780
vn  0.010138 0.833634 0.552224
vn  -0.220377 0.556747 0.800916
vn  -0.244958 0.493176 0.834729
vn  -0.356229 0.088646 0.930184
vn  -0.385217 0.011935 0.922749
vn  -0.411407 -0.218875 0.884781
vn  -0.422312 -0.243245 0.873203
vn  0.046828 0.844569 0.533395
vn  0.045337 0.795476 0.604286
vn  0.115739 0.850149 0.513664
vn  -0.156026 0.779238 0.606996
vn  -0.222814 0.818669 0.529277
vn  -0.175459 0.697355 0.694917
vn  -0.063754 0.701050 0.710256
vn  -0.195076 0.806072 0.558742
vn  -0.178681 0.825228 0.535791
vn  -0.018054 0.782998 0.621762
vn  -0.179086 0.829946 0.528316
vn  0.032231 0.837657 0.545246
vn  -0.155081 0.858981 0.487957
vn  0.029834 0.885049 0.464540
vn  -0.088558 0.882508 0.461885
vn  -0.130823 0.836599 0.531965
vn  -0.155323 0.855776 0.493480
vn  -0.254060 0.852104 0.457571
vn  -0.256926 0.837851 0.481659
vn  -0.275143 0.828274 0.488118
vn  -0.244877 0.815265 0.524764
vn  -0.190459 0.850073 0.491021
vn  -0.213500 0.834745 0.507561
vn  -0.147700 0.787017 0.598990
vn  -0.075112 0.850425 0.520706
vn  0.042450 0.848723 0.527131
vn  0.044085 0.873981 0.483957
vn  -0.043096 0.310941 -0.949452
vn  -0.035925 0.258529 -0.965335
vn  -0.095660 0.663162 -0.742338
vn  -0.093700 0.647339 -0.756420
vn  -0.133051 0.910888 -0.390615
vn  -0.115699 0.927269 -0.356069
vn  0.027663 0.999545 -0.011989
vn  0.052307 0.996231 0.069191
vn  0.426680 0.693717 -0.580259
vn  0.430749 0.609245 -0.665789
vn  0.089927 -0.848647 0.521260
vn  0.095811 -0.879875 0.465446
vn  0.076056 -0.574440 0.815006
vn  0.052991 -0.575806 0.815867
vn  -0.269745 -0.260397 0.927055
vn  -0.304802 -0.216874 0.927395
vn  -0.382261 0.057063 0.922291
vn  -0.386707 0.109711 0.915653
vn  -0.422312 -0.243245 0.873203
vn  -0.411407 -0.218875 0.884781
vn  0.262232 0.863185 -0.431448
vn  0.388131 0.474141 -0.790281
vn  -0.536401 0.813269 -0.225537
vn  -0.661554 0.285621 -0.693373
vn  -0.851868 0.160048 -0.498704
vn  -0.685763 0.723477 -0.079431
vn  -0.963211 0.024034 -0.267670
vn  -0.752341 0.648508 0.115844
vn  -0.760699 0.595787 0.257634
vn  -0.988101 -0.043105 -0.147641
vn  -0.624995 -0.438120 0.646090
vn  -0.592017 0.151165 0.791622
vn  0.560492 0.258551 0.786766
vn  0.609139 0.633048 0.477703
vn  0.589760 0.637295 0.496022
vn  0.511053 0.575322 0.638616
vn  0.388685 0.466259 0.794686
vn  0.679936 0.452229 0.577214
vn  -0.592017 0.151165 0.791622
vn  -0.624995 -0.438120 0.646090
vn  0.738412 -0.252565 0.625267
vn  0.985296 0.034948 0.167244
vn  0.962151 -0.023695 0.271485
vn  0.843297 -0.166586 0.510978
vn  0.632712 -0.300855 0.713556
vn  0.923470 -0.078343 0.375588
vn  0.262232 0.863185 -0.431448
vn  0.388131 0.474141 -0.790281
vn  0.095811 -0.879875 0.465446
vn  0.089927 -0.848647 0.521260
vn  0.081114 -0.995706 0.044603
vn  0.079106 -0.985317 0.151305
vn  0.076387 -0.954090 -0.289615
vn  0.079255 -0.976207 -0.201837
vn  0.072137 -0.752807 -0.654276
vn  0.080848 -0.841683 -0.533885
vn  0.050891 -0.470540 -0.880910
vn  0.037896 -0.342173 -0.938872
vn  0.006758 -0.055028 -0.998462
vn  -0.001236 0.008788 -0.999961
vn  -0.035925 0.258529 -0.965335
vn  -0.043096 0.310941 -0.949452

g G1249
usemtl G1249_3
f  1/1/1 2/2/2 3/3/3
f  4/4/4 3/3/3 2/2/2
f  3/3/3 4/4/4 5/5/5
f  6/6/6 2/2/2 7/7/7
f  1/1/1 7/7/7 2/2/2
f  7/7/7 1/1/1 8/8/8
f  9/9/9 8/8/8 1/1/1
f  8/8/8 9/9/9 10/10/10
f  11/11/11 10/10/10 9/9/9
f  10/10/10 11/11/11 12/12/12
f  13/13/13 12/12/12 11/11/11
f  12/12/12 13/13/13 14/14/14
f  14/14/14 13/13/13 15/15/15
f  16/16/16 15/15/15 13/13/13
f  17/17/17 15/15/15 16/16/16
f  18/18/18 15/15/15 17/17/17
f  15/15/15 18/18/18 19/19/19
f  20/20/20 17/17/17 21/21/21
f  16/16/16 21/21/21 17/17/17
f  21/21/21 16/16/16 22/22/22
f  22/22/22 16/16/16 23/23/23
f  13/13/13 23/23/23 16/16/16
f  11/11/11 23/23/23 13/13/13
f  9/9/9 23/23/23 11/11/11
f  24/24/24 23/23/23 9/9/9
f  23/23/23 24/24/24 22/22/22
f  22/22/22 24/24/24 25/25/25
f  26/26/26 25/25/25 24/24/24
f  25/25/25 26/26/26 27/27/27
f  27/27/27 26/26/26 28/28/28
f  28/28/28 26/26/26 3/3/3
f  3/3/3 26/26/26 1/1/1
f  24/24/24 1/1/1 26/26/26
f  1/1/1 24/24/24 9/9/9
f  29/29/29 30/30/30 31/31/31
f  31/31/31 30/30/30 32/32/32
f  33/33/33 32/32/32 30/30/30
f  32/32/32 33/33/33 34/34/34
f  29/29/29 31/31/31 35/35/35
f  36/36/36 35/35/35 31/31/31
f  35/35/35 36/36/36 37/37/37
f  38/38/38 37/37/37 36/36/36
f  37/37/37 38/38/38 39/39/39
f  40/40/40 39/39/39 38/38/38
f  39/39/39 40/40/40 41/41/41
f  42/42/42 41/41/41 40/40/40
f  41/41/41 42/42/42 43/43/43
f  43/43/43 42/42/42 44/44/44
f  45/45/45 44/44/44 42/42/42
f  44/44/44 45/45/45 46/46/46
f  47/47/47 46/46/46 45/45/45
f  46/46/46 47/47/47 48/48/48
f  48/48/48 47/47/47 49/49/49
f  50/50/50 49/49/49 47/47/47
f  49/49/49 50/50/50 51/51/51
f  52/52/52 51/51/51 50/50/50
f  44/44/44 53/53/53 43/43/43
f  53/53/53 44/44/44 54/54/54
f  46/46/46 54/54/54 44/44/44
f  54/54/54 46/46/46 55/55/55
f  55/55/55 46/46/46 56/56/56
f  48/48/48 56/56/56 46/46/46
f  56/56/56 48/48/48 57/57/57
f  58/58/58 57/57/57 48/48/48
f  59/59/59 57/57/57 58/58/58
f  57/57/57 59/59/59 60/60/60
f  60/60/60 59/59/59 61/61/61
f  62/62/62 61/61/61 59/59/59
f  61/61/61 62/62/62 63/63/63
f  64/64/64 63/63/63 62/62/62
f  63/63/63 64/64/64 65/65/65
f  66/66/66 65/65/65 64/64/64
f  65/65/65 66/66/66 67/67/67
f  29/29/29 67/67/67 66/66/66
f  53/53/53 54/54/54 68/68/68
f  55/55/55 68/68/68 54/54/54
f  68/68/68 55/55/55 69/69/69
f  56/56/56 69/69/69 55/55/55
f  69/69/69 56/56/56 70/70/70
f  57/57/57 70/70/70 56/56/56
f  60/60/60 70/70/70 57/57/57
f  70/70/70 60/60/60 71/71/71
f  61/61/61 71/71/71 60/60/60
f  71/71/71 61/61/61 72/72/72
f  63/63/63 72/72/72 61/61/61
f  72/72/72 63/63/63 73/73/73
f  65/65/65 73/73/73 63/63/63
f  73/73/73 65/65/65 74/74/74
f  74/74/74 65/65/65 75/75/75
f  67/67/67 75/75/75 65/65/65
f  76/76/76 75/75/75 67/67/67
f  75/75/75 76/76/76 68/68/68
f  69/69/69 70/70/70 68/68/68
f  71/71/71 68/68/68 70/70/70
f  72/72/72 68/68/68 71/71/71
f  73/73/73 68/68/68 72/72/72
f  74/74/74 68/68/68 73/73/73
f  68/68/68 74/74/74 75/75/75
f  35/35/35 67/67/67 29/29/29
f  67/67/67 35/35/35 76/76/76
f  37/37/37 76/76/76 35/35/35
f  76/76/76 37/37/37 77/77/77
f  39/39/39 77/77/77 37/37/37
f  77/77/77 39/39/39 78/78/78
f  41/41/41 78/78/78 39/39/39
f  78/78/78 41/41/41 79/79/79
f  43/43/43 79/79/79 41/41/41
f  53/53/53 79/79/79 43/43/43
f  76/76/76 77/77/77 68/68/68
f  78/78/78 68/68/68 77/77/77
f  79/79/79 68/68/68 78/78/78
f  68/68/68 79/79/79 53/53/53
f  80/80/80 81/81/81 82/82/82
f  83/83/83 82/82/82 81/81/81
f  82/82/82 83/83/83 84/84/84
f  85/85/85 84/84/84 83/83/83
f  84/84/84 85/85/85 86/86/86
f  87/87/87 86/86/86 85/85/85
f  86/86/86 87/87/87 88/88/88
f  89/89/89 88/88/88 87/87/87
f  90/90/90 91/91/91 92/92/92
f  93/93/93 92/92/92 91/91/91
f  92/92/92 93/93/93 94/94/94
f  95/95/95 94/94/94 93/93/93
f  94/94/94 95/95/95 96/96/96
f  97/97/97 96/96/96 95/95/95
f  96/96/96 97/97/97 98/98/98
f  99/99/99 98/98/98 97/97/97
f  100/100/100 101/101/101 102/102/102
f  103/103/103 102/102/102 101/101/101
f  104/104/104 102/102/102 103/103/103
f  102/102/102 104/104/104 105/105/105
f  106/106/106 105/105/105 104/104/104
f  105/105/105 106/106/106 107/107/107
f  107/107/107 106/106/106 108/108/108
f  109/109/109 108/108/108 106/106/106
f  110/110/110 111/111/111 109/109/109
f  109/109/109 111/111/111 108/108/108
f  112/112/112 108/108/108 111/111/111
f  113/113/113 108/108/108 112/112/112
f  108/108/108 113/113/113 107/107/107
f  114/114/114 107/107/107 113/113/113
f  115/115/115 107/107/107 114/114/114
f  107/107/107 115/115/115 105/105/105
f  116/116/116 105/105/105 115/115/115
f  105/105/105 116/116/116 102/102/102
f  102/102/102 116/116/116 100/100/100
f  117/117/117 100/100/100 116/116/116
f  118/118/118 119/119/119 112/112/112
f  120/120/120 112/112/112 119/119/119
f  112/112/112 120/120/120 113/113/113
f  121/121/121 113/113/113 120/120/120
f  113/113/113 121/121/121 114/114/114
f  122/122/122 114/114/114 121/121/121
f  114/114/114 122/122/122 115/115/115
f  123/123/123 115/115/115 122/122/122
f  115/115/115 123/123/123 116/116/116
f  124/124/124 116/116/116 123/123/123
f  116/116/116 124/124/124 117/117/117
f  125/125/125 117/117/117 124/124/124
f  117/117/117 125/125/125 126/126/126
f  127/127/127 126/126/126 125/125/125
f  128/128/128 129/129/129 130/130/130
f  131/131/131 130/130/130 129/129/129
f  130/130/130 131/131/131 132/132/132
f  133/133/133 132/132/132 131/131/131
f  132/132/132 133/133/133 134/134/134
f  135/135/135 134/134/134 133/133/133
f  136/136/136 134/134/134 135/135/135
f  134/134/134 136/136/136 137/137/137
f  138/138/138 137/137/137 136/136/136
f  137/137/137 138/138/138 139/139/139
f  140/140/140 139/139/139 138/138/138
f  139/139/139 140/140/140 141/141/141

g
