# Noesis .obj export.
#
mtllib g1266.mtl
g
v  0.017056 0.127279 0.122481
v  0.017056 0.104693 0.131746
v  0.042327 0.128209 0.122896
v  0.042327 0.106064 0.134706
v  0.017056 0.150312 0.109431
v  -0.007691 0.144632 0.100730
v  -0.007691 0.122016 0.114250
v  -0.007691 0.099292 0.122483
v  0.017056 0.168590 0.093942
v  -0.007691 0.164838 0.086854
v  -0.031175 0.156316 0.074105
v  -0.031175 0.137399 0.089425
v  -0.031175 0.114907 0.100651
v  -0.031175 0.092616 0.109664
v  0.042327 0.149349 0.109351
v  0.041299 0.165950 0.093850
v  0.039139 0.176871 0.075198
v  0.015414 0.180780 0.076917
v  -0.007691 0.177674 0.071432
v  -0.031175 0.169567 0.059604
v  -0.053727 0.159767 0.045136
v  -0.053727 0.147173 0.060700
v  -0.053727 0.128703 0.073742
v  -0.053727 0.107566 0.084119
v  -0.053727 0.083990 0.090368
v  -0.053727 0.147173 -0.060700
v  -0.053727 0.159767 -0.045136
v  -0.031175 0.156316 -0.074105
v  -0.031175 0.169567 -0.059604
v  -0.007691 0.164838 -0.086854
v  -0.007691 0.177674 -0.071432
v  0.042327 0.149349 -0.109351
v  0.017056 0.150312 -0.109431
v  0.041299 0.165950 -0.093850
v  0.017056 0.168590 -0.093942
v  0.039139 0.176871 -0.075197
v  0.015414 0.180780 -0.076917
v  -0.007691 0.144632 -0.100730
v  -0.031175 0.137399 -0.089424
v  -0.053727 0.128703 -0.073742
v  -0.053727 0.107566 -0.084119
v  -0.031175 0.114907 -0.100651
v  -0.007691 0.122016 -0.114250
v  0.017056 0.127279 -0.122481
v  0.042327 0.128209 -0.122896
v  -0.053727 0.083990 -0.090368
v  -0.031175 0.092616 -0.109664
v  -0.007691 0.099292 -0.122483
v  0.017056 0.104693 -0.131746
v  0.042327 0.106064 -0.134706

vt  0.750000 -0.250000 0.000000
vt  1.000000 -0.250000 0.000000
vt  0.750000 -0.000000 0.000000
vt  1.000000 -0.000000 0.000000
vt  0.500000 -0.250000 0.000000
vt  0.500000 -0.500000 0.000000
vt  0.750000 -0.500000 0.000000
vt  1.000000 -0.500000 0.000000
vt  0.250000 -0.250000 0.000000
vt  0.250000 -0.500000 0.000000
vt  0.250000 -0.750000 0.000000
vt  0.500000 -0.750000 0.000000
vt  0.750000 -0.750000 0.000000
vt  1.000000 -0.750000 0.000000
vt  0.500000 -0.000000 0.000000
vt  0.250000 -0.000000 0.000000
vt  0.000000 -0.000000 0.000000
vt  0.000000 -0.250000 0.000000
vt  0.000000 -0.500000 0.000000
vt  0.000000 -0.750000 0.000000
vt  0.000000 -1.000000 0.000000
vt  0.250000 -1.000000 0.000000
vt  0.500000 -1.000000 0.000000
vt  0.750000 -1.000000 0.000000
vt  1.000000 -1.000000 0.000000
vt  0.250000 -1.000000 0.000000
vt  0.000000 -1.000000 0.000000
vt  0.250000 -0.750000 0.000000
vt  0.000000 -0.750000 0.000000
vt  0.250000 -0.500000 0.000000
vt  0.000000 -0.500000 0.000000
vt  0.500000 -0.000000 0.000000
vt  0.500000 -0.250000 0.000000
vt  0.250000 -0.000000 0.000000
vt  0.250000 -0.250000 0.000000
vt  0.000000 -0.000000 0.000000
vt  0.000000 -0.250000 0.000000
vt  0.500000 -0.500000 0.000000
vt  0.500000 -0.750000 0.000000
vt  0.500000 -1.000000 0.000000
vt  0.750000 -1.000000 0.000000
vt  0.750000 -0.750000 0.000000
vt  0.750000 -0.500000 0.000000
vt  0.750000 -0.250000 0.000000
vt  0.750000 -0.000000 0.000000
vt  1.000000 -1.000000 0.000000
vt  1.000000 -0.750000 0.000000
vt  1.000000 -0.500000 0.000000
vt  1.000000 -0.250000 0.000000
vt  1.000000 -0.000000 0.000000

vn  -0.195998 0.437421 0.877637
vn  -0.233029 0.383303 0.893743
vn  -0.056647 0.484208 0.873118
vn  -0.127822 0.466703 0.875128
vn  -0.166159 0.560877 0.811054
vn  -0.446742 0.487075 0.750453
vn  -0.453269 0.379548 0.806530
vn  -0.467833 0.307979 0.828421
vn  -0.084019 0.736073 0.671668
vn  -0.426553 0.615997 0.662269
vn  -0.557808 0.566723 0.606362
vn  -0.560576 0.450481 0.694853
vn  -0.582491 0.329875 0.742891
vn  -0.589926 0.283168 0.756177
vn  0.011059 0.600098 0.799850
vn  0.071866 0.765679 0.639196
vn  0.131427 0.840235 0.526054
vn  -0.054796 0.809336 0.584784
vn  -0.399445 0.711220 0.578454
vn  -0.566823 0.613084 0.550309
vn  -0.581409 0.620290 0.526501
vn  -0.587644 0.566924 0.577297
vn  -0.623115 0.400862 0.671593
vn  -0.643026 0.287274 0.709924
vn  -0.679067 0.188065 0.709577
vn  -0.587644 0.566924 -0.577297
vn  -0.581409 0.620290 -0.526501
vn  -0.557808 0.566724 -0.606362
vn  -0.566823 0.613084 -0.550309
vn  -0.426553 0.615997 -0.662269
vn  -0.399445 0.711221 -0.578454
vn  0.011059 0.600098 -0.799850
vn  -0.166159 0.560877 -0.811054
vn  0.071866 0.765679 -0.639195
vn  -0.084018 0.736073 -0.671668
vn  0.131428 0.840235 -0.526053
vn  -0.054795 0.809336 -0.584784
vn  -0.446742 0.487076 -0.750452
vn  -0.560576 0.450481 -0.694853
vn  -0.623115 0.400862 -0.671593
vn  -0.643026 0.287274 -0.709924
vn  -0.582491 0.329875 -0.742891
vn  -0.453269 0.379548 -0.806530
vn  -0.195998 0.437422 -0.877637
vn  -0.056647 0.484208 -0.873117
vn  -0.679067 0.188066 -0.709577
vn  -0.589926 0.283168 -0.756177
vn  -0.467834 0.307979 -0.828421
vn  -0.233029 0.383303 -0.893743
vn  -0.127822 0.466704 -0.875128

g G1266
usemtl G1266_3
f  1/1/1 2/2/2 3/3/3
f  4/4/4 3/3/3 2/2/2
f  5/5/5 6/6/6 1/1/1
f  7/7/7 1/1/1 6/6/6
f  1/1/1 7/7/7 2/2/2
f  8/8/8 2/2/2 7/7/7
f  9/9/9 10/10/10 5/5/5
f  5/5/5 10/10/10 6/6/6
f  11/11/11 6/6/6 10/10/10
f  12/12/12 6/6/6 11/11/11
f  6/6/6 12/12/12 7/7/7
f  13/13/13 7/7/7 12/12/12
f  7/7/7 13/13/13 8/8/8
f  14/14/14 8/8/8 13/13/13
f  15/15/15 1/1/1 3/3/3
f  1/1/1 15/15/15 5/5/5
f  16/16/16 5/5/5 15/15/15
f  5/5/5 16/16/16 9/9/9
f  17/17/17 9/9/9 16/16/16
f  18/18/18 9/9/9 17/17/17
f  19/19/19 9/9/9 18/18/18
f  9/9/9 19/19/19 10/10/10
f  20/20/20 10/10/10 19/19/19
f  10/10/10 20/20/20 11/11/11
f  21/21/21 11/11/11 20/20/20
f  22/22/22 11/11/11 21/21/21
f  11/11/11 22/22/22 12/12/12
f  23/23/23 12/12/12 22/22/22
f  12/12/12 23/23/23 13/13/13
f  24/24/24 13/13/13 23/23/23
f  13/13/13 24/24/24 14/14/14
f  25/25/25 14/14/14 24/24/24
f  26/26/26 27/27/27 28/28/28
f  29/29/29 28/28/28 27/27/27
f  28/28/28 29/29/29 30/30/30
f  31/31/31 30/30/30 29/29/29
f  32/32/32 33/33/33 34/34/34
f  35/35/35 34/34/34 33/33/33
f  34/34/34 35/35/35 36/36/36
f  36/36/36 35/35/35 37/37/37
f  37/37/37 35/35/35 31/31/31
f  31/31/31 35/35/35 30/30/30
f  33/33/33 30/30/30 35/35/35
f  38/38/38 30/30/30 33/33/33
f  30/30/30 38/38/38 28/28/28
f  39/39/39 28/28/28 38/38/38
f  28/28/28 39/39/39 26/26/26
f  40/40/40 26/26/26 39/39/39
f  41/41/41 40/40/40 42/42/42
f  39/39/39 42/42/42 40/40/40
f  42/42/42 39/39/39 43/43/43
f  38/38/38 43/43/43 39/39/39
f  43/43/43 38/38/38 44/44/44
f  33/33/33 44/44/44 38/38/38
f  32/32/32 44/44/44 33/33/33
f  44/44/44 32/32/32 45/45/45
f  46/46/46 41/41/41 47/47/47
f  42/42/42 47/47/47 41/41/41
f  47/47/47 42/42/42 48/48/48
f  43/43/43 48/48/48 42/42/42
f  48/48/48 43/43/43 49/49/49
f  44/44/44 49/49/49 43/43/43
f  45/45/45 49/49/49 44/44/44
f  49/49/49 45/45/45 50/50/50

g
