# Noesis .obj export.
#
mtllib g1283.mtl
g
v  -0.023621 0.145136 0.098872
v  -0.005773 0.152004 0.106188
v  -0.023925 0.158787 0.088804
v  -0.005773 0.165520 0.095672
v  -0.024330 0.167786 0.077294
v  -0.006178 0.176178 0.084048
v  0.012778 0.178255 0.085810
v  0.012836 0.166688 0.098210
v  0.013183 0.153052 0.110107
v  0.013183 0.135960 0.120548
v  -0.005773 0.133815 0.116638
v  -0.022430 0.127546 0.106497
v  -0.037574 0.117834 0.093305
v  -0.038765 0.135507 0.088476
v  -0.039068 0.148168 0.079254
v  -0.039473 0.157166 0.068640
v  -0.041347 0.164719 0.053985
v  -0.025502 0.174119 0.062901
v  -0.005403 0.182741 0.067915
v  0.012699 0.184414 0.069529
v  0.032067 0.178876 0.066800
v  0.032135 0.172411 0.083527
v  0.032540 0.162842 0.094871
v  0.032540 0.150816 0.108024
v  0.032540 0.135789 0.118216
v  0.032540 0.119245 0.125148
v  0.013183 0.117638 0.125821
v  -0.005773 0.116291 0.122216
v  -0.022430 0.110190 0.113960
v  -0.037574 0.099969 0.098643

vt  0.557351 -0.648883 0.000000
vt  0.570655 -0.461295 0.000000
vt  0.387490 -0.653014 0.000000
vt  0.396965 -0.467066 0.000000
vt  0.254681 -0.668848 0.000000
vt  0.259566 -0.479309 0.000000
vt  0.254947 -0.297695 0.000000
vt  0.394765 -0.283612 0.000000
vt  0.579166 -0.278005 0.000000
vt  0.782525 -0.282523 0.000000
vt  0.761891 -0.467072 0.000000
vt  0.739650 -0.670684 0.000000
vt  0.723738 -0.902076 0.000000
vt  0.542086 -0.868365 0.000000
vt  0.369728 -0.857169 0.000000
vt  0.242749 -0.867691 0.000000
vt  0.084611 -0.903197 0.000000
vt  0.089258 -0.705184 0.000000
vt  0.087974 -0.488959 0.000000
vt  0.080382 -0.305981 0.000000
vt  0.046531 -0.104403 0.000000
vt  0.237155 -0.097870 0.000000
vt  0.381153 -0.089900 0.000000
vt  0.587376 -0.090539 0.000000
vt  0.791670 -0.098606 0.000000
vt  0.967208 -0.109112 0.000000
vt  0.971256 -0.302496 0.000000
vt  0.948105 -0.498681 0.000000
vt  0.916579 -0.708257 0.000000
vt  0.900922 -0.937214 0.000000

vn  -0.591040 0.397880 0.701686
vn  -0.342736 0.526135 0.778277
vn  -0.585503 0.553481 0.592321
vn  -0.311719 0.646686 0.696152
vn  -0.584324 0.676275 0.448574
vn  -0.313209 0.802417 0.507964
vn  0.079077 0.849638 0.521404
vn  0.042306 0.703129 0.709802
vn  -0.020482 0.590275 0.806943
vn  -0.069010 0.410623 0.909190
vn  -0.387228 0.355704 0.850605
vn  -0.630468 0.267724 0.728583
vn  -0.727361 0.189554 0.659557
vn  -0.685802 0.300373 0.662911
vn  -0.680385 0.490218 0.544760
vn  -0.670639 0.591152 0.448088
vn  -0.647933 0.656231 0.386708
vn  -0.556393 0.749684 0.358331
vn  -0.288387 0.893296 0.344754
vn  0.094436 0.930695 0.353396
vn  0.302588 0.889435 0.342557
vn  0.303101 0.819759 0.485926
vn  0.262339 0.719400 0.643150
vn  0.179939 0.623115 0.761150
vn  0.122208 0.464387 0.877160
vn  0.063207 0.332141 0.941110
vn  -0.105065 0.281622 0.953756
vn  -0.388057 0.299813 0.871507
vn  -0.643720 0.285713 0.709925
vn  -0.758078 0.186681 0.624874

g G1283
usemtl G1283_3
f  1/1/1 2/2/2 3/3/3
f  4/4/4 3/3/3 2/2/2
f  5/5/5 3/3/3 6/6/6
f  4/4/4 6/6/6 3/3/3
f  6/6/6 4/4/4 7/7/7
f  7/7/7 4/4/4 8/8/8
f  8/8/8 4/4/4 9/9/9
f  2/2/2 9/9/9 4/4/4
f  9/9/9 2/2/2 10/10/10
f  10/10/10 2/2/2 11/11/11
f  1/1/1 11/11/11 2/2/2
f  11/11/11 1/1/1 12/12/12
f  13/13/13 12/12/12 14/14/14
f  1/1/1 14/14/14 12/12/12
f  14/14/14 1/1/1 15/15/15
f  3/3/3 15/15/15 1/1/1
f  5/5/5 15/15/15 3/3/3
f  15/15/15 5/5/5 16/16/16
f  16/16/16 5/5/5 17/17/17
f  17/17/17 5/5/5 18/18/18
f  6/6/6 18/18/18 5/5/5
f  18/18/18 6/6/6 19/19/19
f  7/7/7 19/19/19 6/6/6
f  19/19/19 7/7/7 20/20/20
f  21/21/21 20/20/20 22/22/22
f  7/7/7 22/22/22 20/20/20
f  22/22/22 7/7/7 23/23/23
f  8/8/8 23/23/23 7/7/7
f  23/23/23 8/8/8 24/24/24
f  9/9/9 24/24/24 8/8/8
f  24/24/24 9/9/9 25/25/25
f  10/10/10 25/25/25 9/9/9
f  25/25/25 10/10/10 26/26/26
f  26/26/26 10/10/10 27/27/27
f  11/11/11 27/27/27 10/10/10
f  27/27/27 11/11/11 28/28/28
f  12/12/12 28/28/28 11/11/11
f  28/28/28 12/12/12 29/29/29
f  13/13/13 29/29/29 12/12/12
f  29/29/29 13/13/13 30/30/30

g
