# Noesis .obj export.
#
mtllib g1706.mtl
g
v  0.201011 0.224671 0.071776
v  0.164212 0.231810 0.073785
v  0.206744 0.202532 0.104832
v  0.174232 0.208109 0.109418
v  0.145088 0.206625 0.107222
v  0.137019 0.221151 0.076357
v  0.142476 0.239413 0.035059
v  0.113091 0.220607 0.038188
v  0.113091 0.220607 -0.038188
v  0.104249 0.216452 0.000000
v  0.138750 0.240029 -0.024158
v  0.136151 0.250577 0.000000
v  0.182213 0.237725 0.000000
v  0.138750 0.240029 0.024158
v  0.185377 0.232773 0.031925
v  0.234125 0.219734 0.067970
v  0.218190 0.227795 0.029535
v  0.137019 0.221151 -0.076356
v  0.142476 0.239413 -0.035059
v  0.185377 0.232773 -0.031925
v  0.164212 0.231810 -0.073785
v  0.145088 0.206625 -0.107221
v  0.174232 0.208109 -0.109417
v  0.206744 0.202532 -0.104831
v  0.201011 0.224671 -0.071775
v  0.234125 0.219734 -0.067970
v  0.218190 0.227795 -0.029534
v  0.201011 0.224671 -0.071775
v  0.164212 0.231810 -0.073785
v  0.206744 0.202532 -0.104831
v  0.174232 0.208109 -0.109417
v  0.145088 0.206625 -0.107221
v  0.137019 0.221151 -0.076356
v  0.142476 0.239413 -0.035059
v  0.113091 0.220607 -0.038188
v  0.113091 0.220607 0.038188
v  0.104249 0.216452 0.000000
v  0.138750 0.240029 0.024158
v  0.136151 0.250577 0.000000
v  0.182213 0.237725 0.000000
v  0.138750 0.240029 -0.024158
v  0.185377 0.232773 -0.031925
v  0.234125 0.219734 -0.067970
v  0.218190 0.227795 -0.029534
v  0.137019 0.221151 0.076357
v  0.142476 0.239413 0.035059
v  0.185377 0.232773 0.031925
v  0.164212 0.231810 0.073785
v  0.145088 0.206625 0.107222
v  0.174232 0.208109 0.109418
v  0.206744 0.202532 0.104832
v  0.201011 0.224671 0.071776
v  0.234125 0.219734 0.067970
v  0.218190 0.227795 0.029535
v  0.204621 0.188523 -0.137062
v  0.267845 0.168070 -0.143494
v  0.187444 0.224183 -0.100451
v  0.220284 0.216299 -0.100779
v  0.201011 0.224672 -0.071775
v  0.164212 0.231811 -0.073785
v  0.157768 0.219465 -0.100957
v  0.169656 0.202963 -0.126368
v  0.267845 0.168070 0.143495
v  0.204621 0.188523 0.137062
v  0.187444 0.224183 0.100452
v  0.169656 0.202963 0.126368
v  0.157768 0.219465 0.100958
v  0.164212 0.231811 0.073785
v  0.201011 0.224672 0.071776
v  0.220284 0.216299 0.100780
v  0.267845 0.168070 -0.143494
v  0.204621 0.188523 -0.137062
v  0.187444 0.224183 -0.100451
v  0.169656 0.202963 -0.126368
v  0.157768 0.219465 -0.100957
v  0.164212 0.231811 -0.073785
v  0.201011 0.224672 -0.071775
v  0.220284 0.216299 -0.100779
v  0.204621 0.188523 0.137062
v  0.267845 0.168070 0.143495
v  0.187444 0.224183 0.100452
v  0.220284 0.216299 0.100780
v  0.201011 0.224672 0.071776
v  0.164212 0.231811 0.073785
v  0.157768 0.219465 0.100958
v  0.169656 0.202963 0.126368
v  0.206744 0.202532 0.104832
v  0.212147 0.152607 0.150685
v  0.174232 0.208109 0.109418
v  0.176629 0.165594 0.149937
v  0.149980 0.178025 0.149397
v  0.145088 0.206625 0.107222
v  0.118987 0.185435 0.109653
v  0.121830 0.156678 0.140758
v  0.136475 0.128717 0.170339
v  0.159493 0.140253 0.179789
v  0.184000 0.141762 0.170783
v  0.212351 0.094018 0.200445
v  0.194436 0.093562 0.208885
v  0.242692 0.036946 0.215840
v  0.181197 0.083318 0.201164
v  0.206744 0.202532 -0.104831
v  0.212147 0.152607 -0.150685
v  0.174232 0.208109 -0.109417
v  0.176629 0.165594 -0.149936
v  0.149980 0.178025 -0.149397
v  0.145088 0.206625 -0.107221
v  0.118987 0.185435 -0.109653
v  0.121830 0.156678 -0.140758
v  0.136475 0.128717 -0.170338
v  0.159493 0.140253 -0.179789
v  0.184000 0.141762 -0.170783
v  0.212351 0.094018 -0.200445
v  0.194436 0.093562 -0.208885
v  0.242692 0.036946 -0.215839
v  0.181197 0.083317 -0.201164
v  0.206744 0.202532 -0.104831
v  0.174232 0.208109 -0.109417
v  0.212147 0.152607 -0.150685
v  0.176629 0.165594 -0.149936
v  0.149980 0.178025 -0.149397
v  0.145088 0.206625 -0.107221
v  0.118987 0.185435 -0.109653
v  0.121830 0.156678 -0.140758
v  0.136475 0.128717 -0.170338
v  0.159493 0.140253 -0.179789
v  0.184000 0.141762 -0.170783
v  0.212351 0.094018 -0.200445
v  0.194436 0.093562 -0.208885
v  0.242692 0.036946 -0.215839
v  0.181197 0.083317 -0.201164
v  0.206744 0.202532 0.104832
v  0.174232 0.208109 0.109418
v  0.212147 0.152607 0.150685
v  0.176629 0.165594 0.149937
v  0.149980 0.178025 0.149397
v  0.145088 0.206625 0.107222
v  0.118987 0.185435 0.109653
v  0.121830 0.156678 0.140758
v  0.136475 0.128717 0.170339
v  0.159493 0.140253 0.179789
v  0.184000 0.141762 0.170783
v  0.212351 0.094018 0.200445
v  0.194436 0.093562 0.208885
v  0.242692 0.036946 0.215840
v  0.181197 0.083318 0.201164

vt  0.532837 -0.182241 0.000000
vt  0.443238 -0.305659 0.000000
vt  0.720084 -0.410236 0.000000
vt  0.580833 -0.447222 0.000000
vt  0.465770 -0.486918 0.000000
vt  0.372709 -0.400876 0.000000
vt  0.258099 -0.275425 0.000000
vt  0.209972 -0.423160 0.000000
vt  0.209972 -0.423160 0.000000
vt  0.065960 -0.431350 0.000000
vt  0.206118 -0.266841 0.000000
vt  0.085224 -0.197058 0.000000
vt  0.236462 -0.061912 0.000000
vt  0.206118 -0.266840 0.000000
vt  0.355533 -0.129329 0.000000
vt  0.605867 -0.057573 0.000000
vt  0.438721 -0.017923 0.000000
vt  0.372709 -0.400876 0.000000
vt  0.258099 -0.275426 0.000000
vt  0.355533 -0.129330 0.000000
vt  0.443238 -0.305659 0.000000
vt  0.465770 -0.486918 0.000000
vt  0.580833 -0.447222 0.000000
vt  0.720084 -0.410236 0.000000
vt  0.532837 -0.182241 0.000000
vt  0.605867 -0.057573 0.000000
vt  0.438721 -0.017923 0.000000
vt  0.532837 -0.182241 0.000000
vt  0.443238 -0.305659 0.000000
vt  0.720084 -0.410236 0.000000
vt  0.580833 -0.447222 0.000000
vt  0.465770 -0.486918 0.000000
vt  0.372709 -0.400876 0.000000
vt  0.258099 -0.275426 0.000000
vt  0.209972 -0.423160 0.000000
vt  0.209972 -0.423160 0.000000
vt  0.065960 -0.431350 0.000000
vt  0.206118 -0.266840 0.000000
vt  0.085224 -0.197058 0.000000
vt  0.236462 -0.061912 0.000000
vt  0.206118 -0.266841 0.000000
vt  0.355533 -0.129330 0.000000
vt  0.605867 -0.057573 0.000000
vt  0.438721 -0.017923 0.000000
vt  0.372709 -0.400876 0.000000
vt  0.258099 -0.275425 0.000000
vt  0.355533 -0.129329 0.000000
vt  0.443238 -0.305659 0.000000
vt  0.465770 -0.486918 0.000000
vt  0.580833 -0.447222 0.000000
vt  0.720084 -0.410236 0.000000
vt  0.532837 -0.182241 0.000000
vt  0.605867 -0.057573 0.000000
vt  0.438721 -0.017923 0.000000
vt  0.900372 -0.762812 0.000000
vt  0.937567 -0.502391 0.000000
vt  0.712479 -0.855550 0.000000
vt  0.713424 -0.724214 0.000000
vt  0.602223 -0.806704 0.000000
vt  0.616642 -0.952980 0.000000
vt  0.732469 -0.970351 0.000000
vt  0.848215 -0.911919 0.000000
vt  0.937567 -0.502391 0.000000
vt  0.900372 -0.762812 0.000000
vt  0.712479 -0.855550 0.000000
vt  0.848215 -0.911919 0.000000
vt  0.732469 -0.970351 0.000000
vt  0.616642 -0.952980 0.000000
vt  0.602223 -0.806704 0.000000
vt  0.713424 -0.724214 0.000000
vt  0.937567 -0.502391 0.000000
vt  0.900372 -0.762812 0.000000
vt  0.712479 -0.855550 0.000000
vt  0.848215 -0.911919 0.000000
vt  0.732469 -0.970351 0.000000
vt  0.616642 -0.952980 0.000000
vt  0.602223 -0.806704 0.000000
vt  0.713424 -0.724214 0.000000
vt  0.900372 -0.762812 0.000000
vt  0.937567 -0.502391 0.000000
vt  0.712479 -0.855550 0.000000
vt  0.713424 -0.724214 0.000000
vt  0.602223 -0.806704 0.000000
vt  0.616642 -0.952980 0.000000
vt  0.732469 -0.970351 0.000000
vt  0.848215 -0.911919 0.000000
vt  0.019214 -0.609012 0.000000
vt  0.293914 -0.489326 0.000000
vt  0.059795 -0.747259 0.000000
vt  0.303225 -0.642240 0.000000
vt  0.293264 -0.764292 0.000000
vt  0.102459 -0.861254 0.000000
vt  0.205202 -0.962792 0.000000
vt  0.369379 -0.894716 0.000000
vt  0.518607 -0.798504 0.000000
vt  0.483168 -0.691684 0.000000
vt  0.449884 -0.584623 0.000000
vt  0.706746 -0.498790 0.000000
vt  0.708332 -0.564334 0.000000
vt  0.980934 -0.413198 0.000000
vt  0.738454 -0.625455 0.000000
vt  0.019214 -0.609012 0.000000
vt  0.293914 -0.489326 0.000000
vt  0.059795 -0.747259 0.000000
vt  0.303225 -0.642240 0.000000
vt  0.293265 -0.764292 0.000000
vt  0.102459 -0.861254 0.000000
vt  0.205202 -0.962792 0.000000
vt  0.369379 -0.894716 0.000000
vt  0.518607 -0.798504 0.000000
vt  0.483168 -0.691684 0.000000
vt  0.449884 -0.584623 0.000000
vt  0.706746 -0.498790 0.000000
vt  0.708332 -0.564334 0.000000
vt  0.980934 -0.413198 0.000000
vt  0.738454 -0.625455 0.000000
vt  0.019214 -0.609012 0.000000
vt  0.059795 -0.747259 0.000000
vt  0.293914 -0.489326 0.000000
vt  0.303225 -0.642240 0.000000
vt  0.293265 -0.764292 0.000000
vt  0.102459 -0.861254 0.000000
vt  0.205202 -0.962792 0.000000
vt  0.369379 -0.894716 0.000000
vt  0.518607 -0.798504 0.000000
vt  0.483168 -0.691684 0.000000
vt  0.449884 -0.584623 0.000000
vt  0.706746 -0.498790 0.000000
vt  0.708332 -0.564334 0.000000
vt  0.980934 -0.413198 0.000000
vt  0.738454 -0.625455 0.000000
vt  0.019214 -0.609012 0.000000
vt  0.059795 -0.747259 0.000000
vt  0.293914 -0.489326 0.000000
vt  0.303225 -0.642240 0.000000
vt  0.293264 -0.764292 0.000000
vt  0.102459 -0.861254 0.000000
vt  0.205202 -0.962792 0.000000
vt  0.369379 -0.894716 0.000000
vt  0.518607 -0.798504 0.000000
vt  0.483168 -0.691684 0.000000
vt  0.449884 -0.584623 0.000000
vt  0.706746 -0.498790 0.000000
vt  0.708332 -0.564334 0.000000
vt  0.980934 -0.413198 0.000000
vt  0.738454 -0.625455 0.000000

vn  0.184147 0.942329 0.279474
vn  -0.012296 0.932579 0.360757
vn  0.211439 0.754826 0.620912
vn  0.107299 0.791999 0.601020
vn  -0.233841 0.801231 0.550770
vn  -0.341826 0.853937 0.392360
vn  -0.193240 0.961936 0.193230
vn  -0.543641 0.821971 0.169759
vn  -0.543641 0.821971 -0.169759
vn  -0.646820 0.762643 -0.000000
vn  -0.281784 0.934506 -0.217478
vn  -0.266614 0.963803 -0.000001
vn  0.183516 0.983017 -0.000000
vn  -0.281784 0.934506 0.217477
vn  0.166704 0.977882 0.126322
vn  0.160121 0.977534 0.137070
vn  0.158446 0.977489 0.139318
vn  -0.341824 0.853937 -0.392361
vn  -0.193240 0.961936 -0.193230
vn  0.166704 0.977882 -0.126323
vn  -0.012296 0.932579 -0.360758
vn  -0.233840 0.801231 -0.550770
vn  0.107298 0.791998 -0.601021
vn  0.211438 0.754825 -0.620913
vn  0.184146 0.942329 -0.279474
vn  0.160121 0.977534 -0.137070
vn  0.158447 0.977489 -0.139318
vn  -0.184146 -0.942329 0.279474
vn  0.012296 -0.932579 0.360758
vn  -0.211438 -0.754825 0.620913
vn  -0.107298 -0.791998 0.601021
vn  0.233840 -0.801231 0.550770
vn  0.341824 -0.853937 0.392361
vn  0.193240 -0.961936 0.193230
vn  0.543641 -0.821971 0.169759
vn  0.543641 -0.821971 -0.169759
vn  0.646820 -0.762643 0.000000
vn  0.281784 -0.934506 -0.217477
vn  0.266614 -0.963803 0.000001
vn  -0.183516 -0.983017 0.000000
vn  0.281784 -0.934506 0.217478
vn  -0.166704 -0.977882 0.126323
vn  -0.160121 -0.977534 0.137070
vn  -0.158447 -0.977489 0.139318
vn  0.341826 -0.853937 -0.392360
vn  0.193240 -0.961936 -0.193230
vn  -0.166704 -0.977882 -0.126322
vn  0.012296 -0.932579 -0.360757
vn  0.233840 -0.801231 -0.550770
vn  -0.107299 -0.791999 -0.601020
vn  -0.211439 -0.754826 -0.620912
vn  -0.184147 -0.942329 -0.279474
vn  -0.160121 -0.977534 -0.137070
vn  -0.158446 -0.977489 -0.139318
vn  -0.155447 -0.743106 0.650869
vn  -0.174310 -0.744299 0.644697
vn  -0.088092 -0.904837 0.416545
vn  -0.195037 -0.833929 0.516259
vn  -0.212378 -0.970155 0.117023
vn  -0.025912 -0.966859 0.253992
vn  0.129284 -0.865178 0.484512
vn  -0.020820 -0.766513 0.641891
vn  -0.174308 -0.744299 -0.644698
vn  -0.155446 -0.743106 -0.650869
vn  -0.088092 -0.904838 -0.416543
vn  -0.020820 -0.766514 -0.641890
vn  0.129284 -0.865179 -0.484511
vn  -0.025912 -0.966859 -0.253992
vn  -0.212378 -0.970155 -0.117022
vn  -0.195036 -0.833929 -0.516260
vn  0.174310 0.744299 -0.644697
vn  0.155447 0.743106 -0.650869
vn  0.088092 0.904837 -0.416545
vn  0.020820 0.766513 -0.641891
vn  -0.129284 0.865178 -0.484512
vn  0.025912 0.966859 -0.253992
vn  0.212378 0.970155 -0.117023
vn  0.195037 0.833929 -0.516259
vn  0.155446 0.743106 0.650869
vn  0.174308 0.744299 0.644698
vn  0.088092 0.904838 0.416543
vn  0.195036 0.833929 0.516260
vn  0.212378 0.970155 0.117022
vn  0.025912 0.966859 0.253992
vn  -0.129284 0.865179 0.484511
vn  0.020820 0.766514 0.641890
vn  -0.211439 -0.754826 -0.620912
vn  -0.226817 -0.676142 -0.700989
vn  -0.107299 -0.791999 -0.601020
vn  -0.260877 -0.666366 -0.698498
vn  0.185476 -0.674374 -0.714715
vn  0.233840 -0.801231 -0.550770
vn  0.544664 -0.638463 -0.543788
vn  0.578856 -0.503898 -0.641103
vn  0.517701 -0.346178 -0.782398
vn  0.172510 -0.507518 -0.844195
vn  -0.228504 -0.644403 -0.729747
vn  -0.343281 -0.522553 -0.780446
vn  0.075374 -0.285178 -0.955506
vn  -0.021114 -0.139601 -0.989983
vn  0.472122 0.053093 -0.879933
vn  0.211438 0.754825 -0.620913
vn  0.226816 0.676142 -0.700990
vn  0.107298 0.791998 -0.601021
vn  0.260878 0.666366 -0.698498
vn  -0.185475 0.674374 -0.714716
vn  -0.233840 0.801231 -0.550770
vn  -0.544663 0.638464 -0.543788
vn  -0.578856 0.503896 -0.641104
vn  -0.517703 0.346175 -0.782398
vn  -0.172512 0.507517 -0.844196
vn  0.228503 0.644403 -0.729747
vn  0.343280 0.522551 -0.780448
vn  -0.075374 0.285176 -0.955507
vn  0.021114 0.139597 -0.989983
vn  -0.472121 -0.053093 -0.879933
vn  -0.211438 -0.754825 0.620913
vn  -0.107298 -0.791998 0.601021
vn  -0.226816 -0.676142 0.700990
vn  -0.260878 -0.666366 0.698498
vn  0.185475 -0.674374 0.714716
vn  0.233840 -0.801231 0.550770
vn  0.544663 -0.638464 0.543788
vn  0.578857 -0.503896 0.641104
vn  0.517703 -0.346175 0.782398
vn  0.172512 -0.507517 0.844196
vn  -0.228504 -0.644403 0.729747
vn  -0.343280 -0.522550 0.780448
vn  0.075374 -0.285176 0.955507
vn  -0.021114 -0.139597 0.989983
vn  0.472121 0.053093 0.879933
vn  0.211439 0.754826 0.620912
vn  0.107299 0.791999 0.601020
vn  0.226817 0.676142 0.700989
vn  0.260877 0.666366 0.698498
vn  -0.185476 0.674374 0.714715
vn  -0.233841 0.801231 0.550770
vn  -0.544664 0.638463 0.543788
vn  -0.578856 0.503897 0.641103
vn  -0.517701 0.346177 0.782398
vn  -0.172510 0.507518 0.844195
vn  0.228505 0.644403 0.729747
vn  0.343282 0.522553 0.780446
vn  -0.075375 0.285178 0.955506
vn  0.021114 0.139600 0.989983
vn  -0.472123 -0.053093 0.879933

g G1706
usemtl G1706_3
f  1/1/1 2/2/2 3/3/3
f  3/3/3 2/2/2 4/4/4
f  4/4/4 2/2/2 5/5/5
f  5/5/5 2/2/2 6/6/6
f  7/7/7 6/6/6 2/2/2
f  6/6/6 7/7/7 8/8/8
f  9/9/9 10/10/10 11/11/11
f  12/12/12 11/11/11 10/10/10
f  11/11/11 12/12/12 13/13/13
f  13/13/13 12/12/12 14/14/14
f  10/10/10 14/14/14 12/12/12
f  8/8/8 14/14/14 10/10/10
f  7/7/7 14/14/14 8/8/8
f  14/14/14 7/7/7 13/13/13
f  13/13/13 7/7/7 15/15/15
f  2/2/2 15/15/15 7/7/7
f  1/1/1 15/15/15 2/2/2
f  16/16/16 15/15/15 1/1/1
f  15/15/15 16/16/16 17/17/17
f  18/18/18 9/9/9 19/19/19
f  11/11/11 19/19/19 9/9/9
f  13/13/13 19/19/19 11/11/11
f  20/20/20 19/19/19 13/13/13
f  21/21/21 19/19/19 20/20/20
f  19/19/19 21/21/21 18/18/18
f  18/18/18 21/21/21 22/22/22
f  22/22/22 21/21/21 23/23/23
f  23/23/23 21/21/21 24/24/24
f  24/24/24 21/21/21 25/25/25
f  20/20/20 25/25/25 21/21/21
f  25/25/25 20/20/20 26/26/26
f  27/27/27 26/26/26 20/20/20
f  28/28/28 29/29/29 30/30/30
f  30/30/30 29/29/29 31/31/31
f  31/31/31 29/29/29 32/32/32
f  32/32/32 29/29/29 33/33/33
f  34/34/34 33/33/33 29/29/29
f  33/33/33 34/34/34 35/35/35
f  36/36/36 37/37/37 38/38/38
f  39/39/39 38/38/38 37/37/37
f  38/38/38 39/39/39 40/40/40
f  40/40/40 39/39/39 41/41/41
f  37/37/37 41/41/41 39/39/39
f  35/35/35 41/41/41 37/37/37
f  34/34/34 41/41/41 35/35/35
f  41/41/41 34/34/34 40/40/40
f  40/40/40 34/34/34 42/42/42
f  29/29/29 42/42/42 34/34/34
f  28/28/28 42/42/42 29/29/29
f  43/43/43 42/42/42 28/28/28
f  42/42/42 43/43/43 44/44/44
f  45/45/45 36/36/36 46/46/46
f  38/38/38 46/46/46 36/36/36
f  40/40/40 46/46/46 38/38/38
f  47/47/47 46/46/46 40/40/40
f  48/48/48 46/46/46 47/47/47
f  46/46/46 48/48/48 45/45/45
f  45/45/45 48/48/48 49/49/49
f  49/49/49 48/48/48 50/50/50
f  50/50/50 48/48/48 51/51/51
f  51/51/51 48/48/48 52/52/52
f  47/47/47 52/52/52 48/48/48
f  52/52/52 47/47/47 53/53/53
f  54/54/54 53/53/53 47/47/47
f  55/55/55 56/56/56 57/57/57
f  58/58/58 57/57/57 56/56/56
f  59/59/59 57/57/57 58/58/58
f  60/60/60 57/57/57 59/59/59
f  61/61/61 57/57/57 60/60/60
f  62/62/62 57/57/57 61/61/61
f  57/57/57 62/62/62 55/55/55
f  63/63/63 64/64/64 65/65/65
f  66/66/66 65/65/65 64/64/64
f  67/67/67 65/65/65 66/66/66
f  68/68/68 65/65/65 67/67/67
f  69/69/69 65/65/65 68/68/68
f  70/70/70 65/65/65 69/69/69
f  65/65/65 70/70/70 63/63/63
f  71/71/71 72/72/72 73/73/73
f  74/74/74 73/73/73 72/72/72
f  75/75/75 73/73/73 74/74/74
f  76/76/76 73/73/73 75/75/75
f  77/77/77 73/73/73 76/76/76
f  78/78/78 73/73/73 77/77/77
f  73/73/73 78/78/78 71/71/71
f  79/79/79 80/80/80 81/81/81
f  82/82/82 81/81/81 80/80/80
f  83/83/83 81/81/81 82/82/82
f  84/84/84 81/81/81 83/83/83
f  85/85/85 81/81/81 84/84/84
f  86/86/86 81/81/81 85/85/85
f  81/81/81 86/86/86 79/79/79
f  87/87/87 88/88/88 89/89/89
f  90/90/90 89/89/89 88/88/88
f  91/91/91 89/89/89 90/90/90
f  89/89/89 91/91/91 92/92/92
f  92/92/92 91/91/91 93/93/93
f  93/93/93 91/91/91 94/94/94
f  94/94/94 91/91/91 95/95/95
f  95/95/95 91/91/91 96/96/96
f  90/90/90 96/96/96 91/91/91
f  97/97/97 96/96/96 90/90/90
f  98/98/98 96/96/96 97/97/97
f  96/96/96 98/98/98 99/99/99
f  100/100/100 99/99/99 98/98/98
f  101/101/101 99/99/99 100/100/100
f  95/95/95 99/99/99 101/101/101
f  99/99/99 95/95/95 96/96/96
f  102/102/102 103/103/103 104/104/104
f  105/105/105 104/104/104 103/103/103
f  106/106/106 104/104/104 105/105/105
f  104/104/104 106/106/106 107/107/107
f  107/107/107 106/106/106 108/108/108
f  108/108/108 106/106/106 109/109/109
f  109/109/109 106/106/106 110/110/110
f  110/110/110 106/106/106 111/111/111
f  105/105/105 111/111/111 106/106/106
f  112/112/112 111/111/111 105/105/105
f  113/113/113 111/111/111 112/112/112
f  111/111/111 113/113/113 114/114/114
f  115/115/115 114/114/114 113/113/113
f  116/116/116 114/114/114 115/115/115
f  110/110/110 114/114/114 116/116/116
f  114/114/114 110/110/110 111/111/111
f  117/117/117 118/118/118 119/119/119
f  119/119/119 118/118/118 120/120/120
f  120/120/120 118/118/118 121/121/121
f  122/122/122 121/121/121 118/118/118
f  123/123/123 121/121/121 122/122/122
f  124/124/124 121/121/121 123/123/123
f  125/125/125 121/121/121 124/124/124
f  126/126/126 121/121/121 125/125/125
f  121/121/121 126/126/126 120/120/120
f  120/120/120 126/126/126 127/127/127
f  127/127/127 126/126/126 128/128/128
f  129/129/129 128/128/128 126/126/126
f  128/128/128 129/129/129 130/130/130
f  130/130/130 129/129/129 131/131/131
f  131/131/131 129/129/129 125/125/125
f  126/126/126 125/125/125 129/129/129
f  132/132/132 133/133/133 134/134/134
f  134/134/134 133/133/133 135/135/135
f  135/135/135 133/133/133 136/136/136
f  137/137/137 136/136/136 133/133/133
f  138/138/138 136/136/136 137/137/137
f  139/139/139 136/136/136 138/138/138
f  140/140/140 136/136/136 139/139/139
f  141/141/141 136/136/136 140/140/140
f  136/136/136 141/141/141 135/135/135
f  135/135/135 141/141/141 142/142/142
f  142/142/142 141/141/141 143/143/143
f  144/144/144 143/143/143 141/141/141
f  143/143/143 144/144/144 145/145/145
f  145/145/145 144/144/144 146/146/146
f  146/146/146 144/144/144 140/140/140
f  141/141/141 140/140/140 144/144/144

g
