# Noesis .obj export.
#
mtllib k1112.mtl
g
v  0.476059 0.101751 -0.216260
v  0.572433 0.041642 0.000647
v  0.339686 -0.043771 -0.196711
v  0.403916 -0.082202 -0.002102
v  0.249529 0.120763 -0.364675
v  0.368713 0.238708 -0.317695
v  0.139908 0.290366 -0.352812
v  0.260047 0.374858 -0.301786
v  0.073802 0.482480 -0.266748
v  0.188121 0.535348 -0.235671
v  0.161398 0.568500 -0.000353
v  0.028005 0.549300 -0.001987
v  0.067841 0.478835 0.262793
v  0.182822 0.532108 0.235028
v  0.253266 0.370712 0.300530
v  0.132022 0.285544 0.347671
v  0.361568 0.234339 0.317006
v  0.241374 0.115777 0.359663
v  0.471192 0.098774 0.216138
v  0.335315 -0.046443 0.191522
v  0.568273 0.277632 -0.184624
v  0.460166 0.327411 -0.252571
v  0.395922 0.435870 -0.203246
v  0.392164 0.540368 -0.164767
v  0.338296 0.632944 0.002082
v  0.388409 0.538072 0.168811
v  0.391316 0.433053 0.205923
v  0.454449 0.323915 0.255184
v  0.564067 0.275060 0.189009
v  0.646821 0.291838 0.003207
v  0.538925 0.489332 0.176105
v  0.532358 0.379643 0.222636
v  0.569901 0.405092 0.002775
v  0.563344 0.586267 0.004294
v  0.542814 0.491710 -0.169340
v  0.537313 0.382673 -0.217514
v  0.128782 0.263416 -0.346477
v  0.231449 0.104571 -0.357587
v  0.311748 0.340353 -0.000231
v  0.315888 -0.049527 -0.200277
v  0.238768 0.083549 -0.400987
v  0.155878 0.280165 -0.416150
v  0.307970 0.144574 -0.460824
v  0.353199 -0.070802 -0.377876
v  0.344525 -0.133785 -0.210303
v  0.443418 -0.228136 -0.219535
v  0.379258 -0.163637 -0.002940
v  0.451586 -0.250685 -0.002725
v  0.438536 -0.231121 0.214135
v  0.339861 -0.136637 0.203979
v  0.344751 -0.075968 0.372556
v  0.311444 -0.052244 0.194472
v  0.229804 0.078068 0.395208
v  0.297632 0.138253 0.457421
v  0.146564 0.274470 0.411206
v  0.255885 0.362647 0.510926
v  0.144170 0.486244 0.505435
v  0.585603 -0.321635 -0.266521
v  0.582622 -0.323458 -0.001751
v  0.579641 -0.325280 0.263019
v  0.497609 -0.230524 0.402652
v  0.411058 -0.094807 0.520384
v  0.329000 0.170093 0.541909
v  0.306938 0.400724 0.606837
v  0.201310 0.515371 0.646636
v  0.160838 0.676398 0.593317
v  0.057725 0.465621 0.372984
v  0.121046 0.258685 0.340716
v  0.223462 0.099686 0.351948
v  0.039710 0.439043 0.260978
v  0.101837 0.645809 0.415783
v  0.144172 0.800860 0.493176
v  0.070911 0.634965 0.229214
v  0.000615 0.536215 -0.002577
v  0.115875 0.930819 0.358086
v  0.068533 0.815305 0.151942
v  0.093318 0.808055 0.309063
v  0.005742 0.646339 -0.001570
v  0.028894 0.799530 -0.000254
v  0.071946 0.817392 -0.151288
v  0.076092 0.638133 -0.230962
v  0.045644 0.442672 -0.266115
v  0.111208 0.651539 -0.416621
v  0.066171 0.470786 -0.377310
v  0.174186 0.684560 -0.592344
v  0.155251 0.807634 -0.490900
v  0.155573 0.493217 -0.507485
v  0.215873 0.524276 -0.646950
v  0.320596 0.409075 -0.606365
v  0.267403 0.369689 -0.512160
v  0.341226 0.177569 -0.544138
v  0.422820 -0.087615 -0.524419
v  0.506720 -0.224953 -0.406648
v  0.123900 0.935726 -0.354705
v  0.100263 0.812302 -0.307896
v  0.123900 0.935726 -0.354705
v  0.071946 0.817392 -0.151288
v  0.100263 0.812303 -0.307896
v  0.078321 0.644008 -0.230814
v  0.155251 0.807634 -0.490900
v  0.335315 -0.046443 0.191522
v  0.241374 0.115777 0.359663
v  0.245760 0.090807 0.404434
v  0.132022 0.285544 0.347671
v  0.156100 0.294845 0.419541
v  0.061387 0.484752 0.377120
v  0.067841 0.478835 0.262793
v  0.101837 0.645809 0.415783
v  0.073143 0.640842 0.229197
v  0.028005 0.549300 -0.001987
v  0.008477 0.667953 -0.001390
v  0.068533 0.815305 0.151942
v  0.018579 0.733699 -0.000824
v  0.028894 0.799530 -0.000254
v  0.073802 0.482480 -0.266748
v  0.111208 0.651539 -0.416621
v  0.306964 0.146201 0.462616
v  0.255963 0.362730 0.510927
v  0.144170 0.486244 0.505435
v  0.160838 0.676398 0.593317
v  0.144172 0.800860 0.493176
v  0.201310 0.515371 0.646636
v  0.306938 0.400724 0.606837
v  0.329000 0.170093 0.541909
v  0.411058 -0.094807 0.520384
v  0.347163 -0.075479 0.373360
v  0.497609 -0.230524 0.402652
v  0.439055 -0.231465 0.214096
v  0.356303 -0.136917 0.202475
v  0.399170 -0.165436 -0.002729
v  0.456189 -0.252744 -0.002688
v  0.579641 -0.325280 0.263019
v  0.403916 -0.082202 -0.002102
v  0.360929 -0.134088 -0.208434
v  0.339686 -0.043771 -0.196711
v  0.355629 -0.070302 -0.378619
v  0.254925 0.096412 -0.409675
v  0.249529 0.120763 -0.364675
v  0.139908 0.290366 -0.352812
v  0.165596 0.300652 -0.423987
v  0.069923 0.489972 -0.381099
v  0.174186 0.684560 -0.592344
v  0.506720 -0.224953 -0.406648
v  0.422820 -0.087615 -0.524419
v  0.317414 0.152591 -0.465698
v  0.267480 0.369772 -0.512159
v  0.155573 0.493217 -0.507485
v  0.215873 0.524276 -0.646950
v  0.320596 0.409075 -0.606365
v  0.341226 0.177569 -0.544138
v  0.582622 -0.323458 -0.001751
v  0.585603 -0.321635 -0.266521
v  0.443937 -0.228480 -0.219489
v  0.115875 0.930819 0.358086
v  0.093318 0.808056 0.309063
v  0.375870 -0.085627 -0.002442

vt  0.657909 -0.477388 0.000000
vt  0.495315 -0.520778 0.000000
vt  0.704087 -0.604491 0.000000
vt  0.564702 -0.650838 0.000000
vt  0.845931 -0.489937 0.000000
vt  0.768251 -0.398548 0.000000
vt  0.931522 -0.368811 0.000000
vt  0.843993 -0.306623 0.000000
vt  0.977478 -0.209463 0.000000
vt  0.878701 -0.184426 0.000000
vt  0.873528 -0.021933 0.000000
vt  0.984663 -0.013819 0.000000
vt  0.977478 -0.209463 0.000000
vt  0.878701 -0.184426 0.000000
vt  0.843993 -0.306623 0.000000
vt  0.931522 -0.368811 0.000000
vt  0.768251 -0.398548 0.000000
vt  0.845931 -0.489937 0.000000
vt  0.657909 -0.477388 0.000000
vt  0.704087 -0.604491 0.000000
vt  0.609921 -0.351576 0.000000
vt  0.700566 -0.329387 0.000000
vt  0.738682 -0.245819 0.000000
vt  0.733829 -0.169098 0.000000
vt  0.737319 -0.031873 0.000000
vt  0.733829 -0.169098 0.000000
vt  0.738682 -0.245819 0.000000
vt  0.700566 -0.329387 0.000000
vt  0.609921 -0.351576 0.000000
vt  0.470530 -0.332978 0.000000
vt  0.638113 -0.211466 0.000000
vt  0.645188 -0.286605 0.000000
vt  0.513324 -0.204364 0.000000
vt  0.577962 -0.093291 0.000000
vt  0.638113 -0.211466 0.000000
vt  0.645188 -0.286605 0.000000
vt  0.274366 -0.341981 0.000000
vt  0.322155 -0.427390 0.000000
vt  0.105155 -0.444317 0.000000
vt  0.302743 -0.548163 0.000000
vt  0.346737 -0.426346 0.000000
vt  0.306132 -0.325604 0.000000
vt  0.390668 -0.391829 0.000000
vt  0.392610 -0.514616 0.000000
vt  0.330615 -0.583065 0.000000
vt  0.373413 -0.637820 0.000000
vt  0.259776 -0.657566 0.000000
vt  0.288928 -0.709260 0.000000
vt  0.373413 -0.637820 0.000000
vt  0.330615 -0.583065 0.000000
vt  0.392610 -0.514616 0.000000
vt  0.302743 -0.548163 0.000000
vt  0.346737 -0.426346 0.000000
vt  0.390668 -0.391829 0.000000
vt  0.306132 -0.325604 0.000000
vt  0.375070 -0.270994 0.000000
vt  0.318700 -0.206275 0.000000
vt  0.444001 -0.694240 0.000000
vt  0.332886 -0.773310 0.000000
vt  0.444001 -0.694240 0.000000
vt  0.465807 -0.601194 0.000000
vt  0.475953 -0.499594 0.000000
vt  0.430932 -0.363210 0.000000
vt  0.423804 -0.238707 0.000000
vt  0.387697 -0.165276 0.000000
vt  0.329813 -0.098184 0.000000
vt  0.243479 -0.236509 0.000000
vt  0.274366 -0.341981 0.000000
vt  0.322155 -0.427390 0.000000
vt  0.192132 -0.267871 0.000000
vt  0.243100 -0.139870 0.000000
vt  0.262157 -0.050296 0.000000
vt  0.150606 -0.172244 0.000000
vt  0.058338 -0.269596 0.000000
vt  0.175031 -0.005681 0.000000
vt  0.086874 -0.093432 0.000000
vt  0.166762 -0.074381 0.000000
vt  0.034107 -0.200853 0.000000
vt  0.011457 -0.124122 0.000000
vt  0.086874 -0.093432 0.000000
vt  0.150606 -0.172244 0.000000
vt  0.192132 -0.267871 0.000000
vt  0.243100 -0.139870 0.000000
vt  0.243479 -0.236509 0.000000
vt  0.329813 -0.098184 0.000000
vt  0.262157 -0.050296 0.000000
vt  0.318700 -0.206275 0.000000
vt  0.387697 -0.165276 0.000000
vt  0.423804 -0.238707 0.000000
vt  0.375070 -0.270994 0.000000
vt  0.430932 -0.363210 0.000000
vt  0.475953 -0.499594 0.000000
vt  0.465807 -0.601194 0.000000
vt  0.175031 -0.005681 0.000000
vt  0.166762 -0.074381 0.000000
vt  0.988454 -0.804776 0.000000
vt  0.923181 -0.677711 0.000000
vt  0.916126 -0.771611 0.000000
vt  0.818094 -0.720598 0.000000
vt  0.909423 -0.884186 0.000000
vt  0.329019 -0.791670 0.000000
vt  0.476935 -0.837939 0.000000
vt  0.470287 -0.866522 0.000000
vt  0.596179 -0.804143 0.000000
vt  0.604379 -0.849031 0.000000
vt  0.721701 -0.802777 0.000000
vt  0.716976 -0.734520 0.000000
vt  0.817315 -0.831697 0.000000
vt  0.818094 -0.720598 0.000000
vt  0.766761 -0.577982 0.000000
vt  0.836465 -0.579907 0.000000
vt  0.923181 -0.677711 0.000000
vt  0.875919 -0.581909 0.000000
vt  0.915413 -0.584393 0.000000
vt  0.716976 -0.734520 0.000000
vt  0.817315 -0.831697 0.000000
vt  0.497119 -0.919854 0.000000
vt  0.630344 -0.930946 0.000000
vt  0.721094 -0.892013 0.000000
vt  0.835700 -0.941886 0.000000
vt  0.909423 -0.884186 0.000000
vt  0.743296 -0.981695 0.000000
vt  0.651639 -0.995106 0.000000
vt  0.515642 -0.966542 0.000000
vt  0.357190 -0.994829 0.000000
vt  0.355150 -0.898695 0.000000
vt  0.245228 -0.969272 0.000000
vt  0.217963 -0.859778 0.000000
vt  0.281526 -0.821460 0.000000
vt  0.203336 -0.725576 0.000000
vt  0.147379 -0.752319 0.000000
vt  0.142649 -0.929738 0.000000
vt  0.243585 -0.700213 0.000000
vt  0.281526 -0.821460 0.000000
vt  0.329019 -0.791670 0.000000
vt  0.355150 -0.898695 0.000000
vt  0.470287 -0.866522 0.000000
vt  0.476935 -0.837939 0.000000
vt  0.596179 -0.804143 0.000000
vt  0.604379 -0.849031 0.000000
vt  0.721701 -0.802777 0.000000
vt  0.835700 -0.941886 0.000000
vt  0.245228 -0.969272 0.000000
vt  0.357190 -0.994829 0.000000
vt  0.497119 -0.919854 0.000000
vt  0.630344 -0.930946 0.000000
vt  0.721094 -0.892013 0.000000
vt  0.743296 -0.981695 0.000000
vt  0.651639 -0.995106 0.000000
vt  0.515642 -0.966542 0.000000
vt  0.070857 -0.791309 0.000000
vt  0.142649 -0.929738 0.000000
vt  0.217963 -0.859778 0.000000
vt  0.988454 -0.804776 0.000000
vt  0.916126 -0.771611 0.000000
vt  0.236665 -0.623933 0.000000

vn  0.654562 -0.403793 -0.639140
vn  0.836351 -0.548165 0.005642
vn  0.928349 -0.112901 -0.354150
vn  0.901954 -0.431773 0.007181
vn  0.781017 0.273047 -0.561657
vn  0.407023 0.074108 -0.910407
vn  0.776526 0.499533 -0.384023
vn  0.226417 0.407728 -0.884587
vn  0.816338 0.462934 -0.345377
vn  -0.047890 0.783965 -0.618954
vn  -0.274538 0.961570 0.003529
vn  0.719677 0.694190 0.012881
vn  0.808284 0.458009 0.370006
vn  -0.061934 0.775378 0.628452
vn  0.206383 0.395478 0.894988
vn  0.767607 0.494079 0.408247
vn  0.386414 0.061506 0.920272
vn  0.768133 0.265169 0.582802
vn  0.640071 -0.412654 0.648094
vn  0.920159 -0.117907 0.373371
vn  0.808548 -0.125186 -0.574960
vn  0.380749 0.234374 -0.894483
vn  0.213270 0.438907 -0.872855
vn  0.222488 0.699935 -0.678667
vn  0.018555 0.999803 0.007091
vn  0.207046 0.690493 0.693074
vn  0.193498 0.426816 0.883395
vn  0.360479 0.221981 0.905969
vn  0.795419 -0.133213 0.591238
vn  0.996796 0.079103 0.011839
vn  0.638588 0.452623 0.622365
vn  0.604962 0.217719 0.765911
vn  0.954485 0.298007 0.012293
vn  0.699533 0.714485 0.012854
vn  0.652190 0.461157 -0.601650
vn  0.621933 0.228083 -0.749118
vn  -0.878327 -0.477334 0.026357
vn  -0.871216 -0.439830 0.218020
vn  -0.843667 -0.536705 -0.013202
vn  -0.943201 -0.306460 0.128278
vn  -0.732049 -0.487528 -0.475837
vn  -0.703414 -0.328890 -0.630111
vn  -0.685075 -0.305437 -0.661348
vn  -0.782858 -0.547090 -0.296353
vn  -0.850044 -0.523042 -0.062066
vn  -0.651395 -0.746545 -0.135482
vn  -0.908482 -0.417719 -0.013103
vn  -0.643003 -0.765761 -0.012510
vn  -0.654164 -0.748238 0.110494
vn  -0.851145 -0.523715 0.035708
vn  -0.789246 -0.550996 0.271096
vn  -0.940026 -0.304519 -0.153685
vn  -0.742501 -0.493918 0.452479
vn  -0.699742 -0.314406 0.641491
vn  -0.717370 -0.337423 0.609530
vn  -0.636112 -0.381592 0.670633
vn  -0.760278 -0.321918 0.564221
vn  0.589210 -0.358953 -0.723868
vn  0.873477 -0.486823 0.006482
vn  0.573020 -0.369156 0.731691
vn  0.691497 -0.637638 0.339485
vn  0.433887 -0.566836 0.700313
vn  0.364898 -0.117165 0.923646
vn  0.143235 0.774713 0.615876
vn  -0.046861 0.351778 0.934910
vn  0.212554 0.815021 0.539038
vn  -0.945074 -0.073895 0.318395
vn  -0.877437 -0.476790 -0.052691
vn  -0.866018 -0.436650 -0.243616
vn  -0.957049 -0.287356 -0.038517
vn  -0.962149 0.170691 0.212448
vn  0.249357 0.441305 0.862016
vn  -0.970277 0.126265 0.206448
vn  -0.946436 -0.322627 -0.013040
vn  -0.079148 -0.979316 -0.186217
vn  -0.000132 0.900271 -0.435329
vn  -0.974911 0.059886 0.214388
vn  -0.996024 0.088470 -0.010452
vn  0.024021 -0.999690 -0.006614
vn  -0.010070 0.894153 0.447648
vn  -0.965377 0.129309 -0.226553
vn  -0.957619 -0.287744 0.013017
vn  -0.957149 0.173749 -0.231684
vn  -0.937655 -0.069359 -0.340576
vn  0.224533 0.822303 -0.522880
vn  0.268562 0.452975 -0.850111
vn  -0.747334 -0.314004 -0.585572
vn  -0.056670 0.474478 -0.878441
vn  0.156925 0.783103 -0.601767
vn  -0.620794 -0.372227 -0.689973
vn  0.385618 -0.104495 -0.916722
vn  0.449630 -0.557206 -0.698108
vn  0.699069 -0.633043 -0.332504
vn  0.808330 -0.580446 0.098412
vn  -0.969847 0.062984 -0.235436
vn  0.808330 -0.580446 0.098412
vn  -0.010070 0.894153 0.447648
vn  0.970195 -0.056870 0.235556
vn  0.974697 -0.056788 0.216195
vn  0.268562 0.452975 -0.850111
vn  0.920159 -0.117907 0.373371
vn  0.768133 0.265169 0.582802
vn  0.767310 0.477248 -0.428333
vn  0.767607 0.494079 0.408247
vn  0.731499 0.361178 -0.578326
vn  0.977181 0.081817 -0.196018
vn  0.808284 0.458009 0.370006
vn  0.966849 -0.163560 -0.196091
vn  0.979326 -0.053958 -0.194959
vn  0.719677 0.694190 0.012881
vn  0.999909 0.007394 0.011307
vn  -0.000132 0.900271 -0.435329
vn  0.988186 -0.152930 0.010071
vn  0.024021 -0.999690 -0.006614
vn  0.816338 0.462934 -0.345377
vn  0.962215 -0.166393 0.215536
vn  0.734014 0.313474 -0.602460
vn  0.635230 0.395532 -0.663353
vn  0.771824 0.326672 -0.545503
vn  0.212554 0.815021 0.539038
vn  0.249357 0.441305 0.862016
vn  -0.046861 0.351778 0.934910
vn  0.143235 0.774713 0.615876
vn  0.364898 -0.117165 0.923646
vn  0.433887 -0.566836 0.700313
vn  0.829754 0.512898 -0.220101
vn  0.691497 -0.637638 0.339485
vn  0.682320 0.725198 -0.092340
vn  0.891960 0.451297 0.027170
vn  0.947021 0.320913 0.012870
vn  0.681638 0.731579 0.012710
vn  0.573020 -0.369156 0.731691
vn  0.901954 -0.431773 0.007181
vn  0.892277 0.451489 -0.000868
vn  0.928349 -0.112901 -0.354150
vn  0.824509 0.509691 0.245763
vn  0.757399 0.471188 0.452027
vn  0.781017 0.273047 -0.561657
vn  0.776526 0.499533 -0.384023
vn  0.718238 0.353069 0.599564
vn  0.972508 0.078960 0.219075
vn  0.224533 0.822303 -0.522880
vn  0.699069 -0.633043 -0.332504
vn  0.449630 -0.557206 -0.698108
vn  0.720216 0.305037 0.623089
vn  0.620075 0.386265 0.682866
vn  0.759297 0.319012 0.567185
vn  -0.056670 0.474478 -0.878441
vn  0.156925 0.783103 -0.601767
vn  0.385618 -0.104495 -0.916722
vn  0.873477 -0.486823 0.006482
vn  0.589210 -0.358953 -0.723868
vn  0.679956 0.723753 0.117651
vn  -0.079148 -0.979316 -0.186217
vn  0.975261 -0.053771 -0.214416
vn  -0.991437 -0.130026 -0.012057

g K1112
usemtl mesh1material
f  1/1/1 2/2/2 3/3/3
f  4/4/4 3/3/3 2/2/2
f  5/5/5 1/1/1 3/3/3
f  1/1/1 5/5/5 6/6/6
f  7/7/7 6/6/6 5/5/5
f  6/6/6 7/7/7 8/8/8
f  9/9/9 8/8/8 7/7/7
f  8/8/8 9/9/9 10/10/10
f  10/10/10 9/9/9 11/11/11
f  12/12/12 11/11/11 9/9/9
f  13/13/13 11/11/11 12/12/12
f  11/11/11 13/13/13 14/14/14
f  14/14/14 13/13/13 15/15/15
f  16/16/16 15/15/15 13/13/13
f  15/15/15 16/16/16 17/17/17
f  18/18/18 17/17/17 16/16/16
f  17/17/17 18/18/18 19/19/19
f  20/20/20 19/19/19 18/18/18
f  19/19/19 20/20/20 2/2/2
f  4/4/4 2/2/2 20/20/20
f  6/6/6 21/21/21 1/1/1
f  21/21/21 6/6/6 22/22/22
f  8/8/8 22/22/22 6/6/6
f  22/22/22 8/8/8 23/23/23
f  10/10/10 23/23/23 8/8/8
f  23/23/23 10/10/10 24/24/24
f  24/24/24 10/10/10 25/25/25
f  11/11/11 25/25/25 10/10/10
f  14/14/14 25/25/25 11/11/11
f  25/25/25 14/14/14 26/26/26
f  26/26/26 14/14/14 27/27/27
f  15/15/15 27/27/27 14/14/14
f  27/27/27 15/15/15 28/28/28
f  17/17/17 28/28/28 15/15/15
f  28/28/28 17/17/17 29/29/29
f  19/19/19 29/29/29 17/17/17
f  29/29/29 19/19/19 30/30/30
f  2/2/2 30/30/30 19/19/19
f  26/26/26 27/27/27 31/31/31
f  28/28/28 31/31/31 27/27/27
f  31/31/31 28/28/28 32/32/32
f  29/29/29 32/32/32 28/28/28
f  30/30/30 32/32/32 29/29/29
f  33/33/33 32/32/32 30/30/30
f  32/32/32 33/33/33 31/31/31
f  34/34/34 31/31/31 33/33/33
f  25/25/25 31/31/31 34/34/34
f  31/31/31 25/25/25 26/26/26
f  24/24/24 25/25/25 35/35/35
f  34/34/34 35/35/35 25/25/25
f  33/33/33 35/35/35 34/34/34
f  35/35/35 33/33/33 36/36/36
f  30/30/30 36/36/36 33/33/33
f  21/21/21 36/36/36 30/30/30
f  22/22/22 36/36/36 21/21/21
f  36/36/36 22/22/22 35/35/35
f  23/23/23 35/35/35 22/22/22
f  35/35/35 23/23/23 24/24/24
f  21/21/21 30/30/30 1/1/1
f  2/2/2 1/1/1 30/30/30
f  37/37/37 38/38/38 39/39/39
f  39/39/39 38/38/38 40/40/40
f  41/41/41 40/40/40 38/38/38
f  38/38/38 37/37/37 41/41/41
f  42/42/42 41/41/41 37/37/37
f  43/43/43 41/41/41 42/42/42
f  44/44/44 41/41/41 43/43/43
f  41/41/41 44/44/44 40/40/40
f  40/40/40 44/44/44 45/45/45
f  46/46/46 45/45/45 44/44/44
f  45/45/45 46/46/46 47/47/47
f  48/48/48 47/47/47 46/46/46
f  49/49/49 47/47/47 48/48/48
f  47/47/47 49/49/49 50/50/50
f  51/51/51 50/50/50 49/49/49
f  50/50/50 51/51/51 52/52/52
f  52/52/52 51/51/51 53/53/53
f  54/54/54 53/53/53 51/51/51
f  53/53/53 54/54/54 55/55/55
f  56/56/56 55/55/55 54/54/54
f  57/57/57 55/55/55 56/56/56
f  46/46/46 58/58/58 48/48/48
f  59/59/59 48/48/48 58/58/58
f  60/60/60 48/48/48 59/59/59
f  48/48/48 60/60/60 49/49/49
f  61/61/61 49/49/49 60/60/60
f  49/49/49 61/61/61 51/51/51
f  62/62/62 51/51/51 61/61/61
f  51/51/51 62/62/62 54/54/54
f  63/63/63 54/54/54 62/62/62
f  64/64/64 54/54/54 63/63/63
f  54/54/54 64/64/64 56/56/56
f  56/56/56 64/64/64 57/57/57
f  65/65/65 57/57/57 64/64/64
f  65/65/65 66/66/66 57/57/57
f  67/67/67 57/57/57 66/66/66
f  57/57/57 67/67/67 55/55/55
f  68/68/68 55/55/55 67/67/67
f  55/55/55 68/68/68 53/53/53
f  69/69/69 53/53/53 68/68/68
f  53/53/53 69/69/69 52/52/52
f  52/52/52 69/69/69 39/39/39
f  68/68/68 39/39/39 69/69/69
f  39/39/39 68/68/68 70/70/70
f  67/67/67 70/70/70 68/68/68
f  70/70/70 67/67/67 71/71/71
f  66/66/66 71/71/71 67/67/67
f  72/72/72 71/71/71 66/66/66
f  73/73/73 71/71/71 72/72/72
f  71/71/71 73/73/73 70/70/70
f  74/74/74 70/70/70 73/73/73
f  70/70/70 74/74/74 39/39/39
f  75/75/75 76/76/76 77/77/77
f  73/73/73 77/77/77 76/76/76
f  72/72/72 77/77/77 73/73/73
f  77/77/77 72/72/72 75/75/75
f  73/73/73 76/76/76 78/78/78
f  79/79/79 78/78/78 76/76/76
f  80/80/80 78/78/78 79/79/79
f  78/78/78 80/80/80 81/81/81
f  73/73/73 78/78/78 74/74/74
f  81/81/81 74/74/74 78/78/78
f  74/74/74 81/81/81 82/82/82
f  83/83/83 82/82/82 81/81/81
f  82/82/82 83/83/83 84/84/84
f  84/84/84 83/83/83 85/85/85
f  85/85/85 83/83/83 86/86/86
f  81/81/81 86/86/86 83/83/83
f  74/74/74 82/82/82 39/39/39
f  39/39/39 82/82/82 37/37/37
f  84/84/84 37/37/37 82/82/82
f  37/37/37 84/84/84 42/42/42
f  42/42/42 84/84/84 87/87/87
f  85/85/85 87/87/87 84/84/84
f  88/88/88 87/87/87 85/85/85
f  89/89/89 87/87/87 88/88/88
f  90/90/90 87/87/87 89/89/89
f  87/87/87 90/90/90 42/42/42
f  42/42/42 90/90/90 43/43/43
f  89/89/89 43/43/43 90/90/90
f  91/91/91 43/43/43 89/89/89
f  92/92/92 43/43/43 91/91/91
f  43/43/43 92/92/92 44/44/44
f  93/93/93 44/44/44 92/92/92
f  44/44/44 93/93/93 46/46/46
f  58/58/58 46/46/46 93/93/93
f  94/94/94 86/86/86 95/95/95
f  81/81/81 95/95/95 86/86/86
f  80/80/80 95/95/95 81/81/81
f  95/95/95 80/80/80 94/94/94
f  96/96/96 97/97/97 98/98/98
f  99/99/99 98/98/98 97/97/97
f  100/100/100 98/98/98 99/99/99
f  98/98/98 100/100/100 96/96/96
f  101/101/101 102/102/102 103/103/103
f  104/104/104 103/103/103 102/102/102
f  103/103/103 104/104/104 105/105/105
f  105/105/105 104/104/104 106/106/106
f  107/107/107 106/106/106 104/104/104
f  106/106/106 107/107/107 108/108/108
f  108/108/108 107/107/107 109/109/109
f  110/110/110 109/109/109 107/107/107
f  111/111/111 109/109/109 110/110/110
f  109/109/109 111/111/111 112/112/112
f  113/113/113 112/112/112 111/111/111
f  112/112/112 113/113/113 114/114/114
f  114/114/114 113/113/113 97/97/97
f  111/111/111 97/97/97 113/113/113
f  97/97/97 111/111/111 99/99/99
f  110/110/110 99/99/99 111/111/111
f  115/115/115 99/99/99 110/110/110
f  99/99/99 115/115/115 116/116/116
f  103/103/103 105/105/105 117/117/117
f  117/117/117 105/105/105 118/118/118
f  118/118/118 105/105/105 119/119/119
f  106/106/106 119/119/119 105/105/105
f  119/119/119 106/106/106 120/120/120
f  108/108/108 120/120/120 106/106/106
f  120/120/120 108/108/108 121/121/121
f  109/109/109 121/121/121 108/108/108
f  120/120/120 122/122/122 119/119/119
f  123/123/123 119/119/119 122/122/122
f  119/119/119 123/123/123 118/118/118
f  118/118/118 123/123/123 117/117/117
f  124/124/124 117/117/117 123/123/123
f  125/125/125 117/117/117 124/124/124
f  117/117/117 125/125/125 126/126/126
f  127/127/127 126/126/126 125/125/125
f  128/128/128 126/126/126 127/127/127
f  126/126/126 128/128/128 129/129/129
f  129/129/129 128/128/128 130/130/130
f  130/130/130 128/128/128 131/131/131
f  131/131/131 128/128/128 132/132/132
f  127/127/127 132/132/132 128/128/128
f  126/126/126 103/103/103 117/117/117
f  103/103/103 126/126/126 101/101/101
f  129/129/129 101/101/101 126/126/126
f  101/101/101 129/129/129 133/133/133
f  130/130/130 133/133/133 129/129/129
f  134/134/134 133/133/133 130/130/130
f  133/133/133 134/134/134 135/135/135
f  136/136/136 135/135/135 134/134/134
f  137/137/137 135/135/135 136/136/136
f  135/135/135 137/137/137 138/138/138
f  138/138/138 137/137/137 139/139/139
f  140/140/140 139/139/139 137/137/137
f  141/141/141 139/139/139 140/140/140
f  139/139/139 141/141/141 115/115/115
f  115/115/115 141/141/141 116/116/116
f  142/142/142 116/116/116 141/141/141
f  100/100/100 116/116/116 142/142/142
f  99/99/99 116/116/116 100/100/100
f  143/143/143 144/144/144 136/136/136
f  145/145/145 136/136/136 144/144/144
f  136/136/136 145/145/145 137/137/137
f  137/137/137 145/145/145 140/140/140
f  146/146/146 140/140/140 145/145/145
f  147/147/147 140/140/140 146/146/146
f  140/140/140 147/147/147 141/141/141
f  141/141/141 147/147/147 142/142/142
f  142/142/142 147/147/147 148/148/148
f  148/148/148 147/147/147 149/149/149
f  146/146/146 149/149/149 147/147/147
f  145/145/145 149/149/149 146/146/146
f  149/149/149 145/145/145 150/150/150
f  144/144/144 150/150/150 145/145/145
f  132/132/132 151/151/151 131/131/131
f  152/152/152 131/131/131 151/151/151
f  153/153/153 131/131/131 152/152/152
f  131/131/131 153/153/153 130/130/130
f  130/130/130 153/153/153 134/134/134
f  134/134/134 153/153/153 136/136/136
f  136/136/136 153/153/153 143/143/143
f  152/152/152 143/143/143 153/153/153
f  154/154/154 121/121/121 155/155/155
f  109/109/109 155/155/155 121/121/121
f  112/112/112 155/155/155 109/109/109
f  155/155/155 112/112/112 154/154/154
f  39/39/39 40/40/40 156/156/156
f  45/45/45 156/156/156 40/40/40
f  47/47/47 156/156/156 45/45/45
f  50/50/50 156/156/156 47/47/47
f  52/52/52 156/156/156 50/50/50
f  156/156/156 52/52/52 39/39/39

g
