# Noesis .obj export.
#
mtllib k1132.mtl
g
v  0.740094 -0.052349 -0.220163
v  0.796464 0.033232 0.001086
v  0.861251 -0.179070 0.001086
v  0.796464 0.033232 0.001086
v  0.740093 -0.052349 0.222334
v  0.861251 -0.179070 0.001086
v  0.740094 -0.052349 0.222335
v  0.861251 -0.179070 0.001086
v  0.821393 -0.068912 0.222334
v  0.952350 -0.220277 0.001086
v  0.740094 -0.052349 0.222335
v  0.821393 -0.068912 0.222334
v  0.861251 -0.179070 0.001086
v  0.952350 -0.220277 0.001086
v  0.740094 -0.052349 0.222335
v  0.821393 -0.068912 0.222335
v  0.861251 -0.179070 0.001086
v  0.952350 -0.220277 0.001086
v  0.821393 -0.068913 -0.220162
v  0.740094 -0.052349 -0.220162
v  0.740093 -0.052349 -0.220162
v  0.821392 -0.068912 -0.220162
v  0.861251 -0.179069 0.001086
v  0.952350 -0.220277 0.001087
v  0.821393 -0.068912 0.222335
v  0.740093 -0.052348 0.222334
v  0.394827 -0.056132 -0.198150
v  0.513731 -0.078045 0.001086
v  0.406668 -0.094297 0.001086
v  0.394827 -0.056131 0.200322
v  0.275708 0.013482 0.290630
v  0.318370 -0.096050 0.182553
v  0.333943 -0.136785 0.001086
v  0.318370 -0.096051 -0.180381
v  0.275708 0.013480 -0.288458
v  0.359761 0.050090 -0.313940
v  0.465554 0.004428 -0.295076
v  0.469140 -0.010982 -0.201987
v  0.603474 -0.080653 0.001086
v  0.469139 -0.010981 0.204159
v  0.465554 0.004429 0.297248
v  0.359761 0.050091 0.316112
v  0.725447 -0.106591 0.001086
v  0.577475 -0.035337 -0.221572
v  0.543403 0.020798 -0.387564
v  0.446022 0.077399 -0.338715
v  0.312498 0.183208 -0.335585
v  0.216721 0.167596 -0.311829
v  0.160911 0.327130 -0.261159
v  0.262770 0.331554 -0.283664
v  0.229567 0.428337 -0.153141
v  0.128621 0.428730 -0.142281
v  0.214656 0.474060 0.001085
v  0.114581 0.475320 0.001085
v  0.128621 0.428730 0.144451
v  0.229567 0.428338 0.155311
v  0.160910 0.327132 0.263329
v  0.362390 0.332755 -0.372911
v  0.321301 0.432784 -0.173451
v  0.409514 0.195213 -0.381419
v  0.514901 0.085298 -0.464414
v  0.705921 0.093080 -0.234439
v  0.554153 0.191334 -0.386289
v  0.689539 0.203224 -0.265913
v  0.569958 0.320046 -0.357006
v  0.697269 0.345172 -0.221787
v  0.630362 0.470299 -0.338233
v  0.735307 0.559374 -0.225392
v  0.591919 0.549698 -0.218426
v  0.540244 0.647882 0.001085
v  0.697682 0.705214 0.001085
v  0.735307 0.559375 0.227562
v  0.412004 0.461515 -0.195808
v  0.296567 0.485597 0.001085
v  0.374076 0.538083 0.001085
v  0.456239 0.354676 -0.462544
v  0.472951 0.203237 -0.486424
v  0.591919 0.549699 0.220596
v  0.630362 0.470301 0.340403
v  0.784719 0.362598 0.001085
v  0.858764 0.636625 0.001085
v  0.765036 0.171046 0.001086
v  0.796464 0.033232 0.001086
v  0.740093 -0.052349 -0.220162
v  0.861251 -0.179069 0.001086
v  0.740093 -0.052348 0.222334
v  0.697269 0.345173 0.223958
v  0.689538 0.203225 0.268084
v  0.705921 0.093081 0.236610
v  0.543403 0.020799 0.389736
v  0.577475 -0.035336 0.223744
v  0.446022 0.077401 0.340887
v  0.312498 0.183210 0.337756
v  0.216721 0.167597 0.314000
v  0.569958 0.320047 0.359177
v  0.554153 0.191336 0.388460
v  0.514901 0.085300 0.466585
v  0.409514 0.195215 0.383589
v  0.262770 0.331555 0.285834
v  0.362389 0.332756 0.375082
v  0.321301 0.432784 0.175621
v  0.412004 0.461515 0.197978
v  0.456240 0.354678 0.464714
v  0.472951 0.203239 0.488595
v  0.303361 0.464320 -0.173451
v  0.390998 0.497773 -0.195808
v  0.267861 0.539384 0.001085
v  0.360389 0.563224 0.001085
v  0.390998 0.497774 0.197978
v  0.303361 0.464321 0.175621
v  0.229567 0.428338 0.155311
v  0.214656 0.474061 0.001085
v  0.229567 0.428338 -0.153141
v  0.532862 0.422122 -0.602844
v  0.626320 0.502980 -0.404904
v  0.475503 0.423045 -0.462544
v  0.601310 0.522423 -0.338233
v  0.561669 0.606071 -0.218426
v  0.528959 0.669926 0.001085
v  0.706093 0.617280 -0.225392
v  0.672730 0.757603 0.001085
v  0.827539 0.703783 0.001085
v  0.832256 0.622962 -0.218387
v  0.958253 0.690453 -0.051265
v  0.958253 0.690453 0.053434
v  0.832257 0.622963 0.220556
v  0.706093 0.617281 0.227562
v  0.561670 0.606072 0.220596
v  0.601310 0.522424 0.340403
v  0.475503 0.423046 0.464714
v  0.626319 0.502981 0.407074
v  0.532862 0.422125 0.605014
v  0.360389 0.563224 0.001085
v  0.390998 0.497773 -0.195808
v  0.267861 0.539384 0.001085
v  0.303361 0.464320 -0.173451
v  0.229567 0.428338 -0.153141
v  0.214656 0.474061 0.001085
v  0.229567 0.428338 0.155311
v  0.303361 0.464321 0.175621
v  0.390998 0.497774 0.197978
v  0.958253 0.690452 -0.051265
v  0.832257 0.622962 -0.218387
v  0.827538 0.703783 0.001084
v  0.706093 0.617280 -0.225392
v  0.672730 0.757603 0.001085
v  0.528959 0.669926 0.001085
v  0.561669 0.606071 -0.218426
v  0.601310 0.522423 -0.338233
v  0.475503 0.423045 -0.462544
v  0.626320 0.502980 -0.404904
v  0.532862 0.422122 -0.602844
v  0.532862 0.422125 0.605014
v  0.626319 0.502981 0.407074
v  0.475503 0.423047 0.464714
v  0.601310 0.522424 0.340403
v  0.561670 0.606072 0.220596
v  0.706093 0.617281 0.227562
v  0.832257 0.622963 0.220556
v  0.958253 0.690453 0.053434
v  0.216721 0.167596 -0.311829
v  0.275708 0.013480 -0.288458
v  0.318234 0.168577 0.001086
v  0.318370 -0.096051 -0.180381
v  0.333943 -0.136785 0.001086
v  0.318370 -0.096050 0.182553
v  0.275708 0.013482 0.290630
v  0.216721 0.167597 0.314000
v  0.160910 0.327132 0.263329
v  0.128621 0.428730 0.144451
v  0.114581 0.475320 0.001085
v  0.128621 0.428730 -0.142281
v  0.160911 0.327130 -0.261159

vt  0.527974 -0.170484 0.000000
vt  0.341877 -0.214394 0.000000
vt  0.377732 -0.067008 0.000000
vt  0.341877 -0.214394 0.000000
vt  0.527974 -0.170484 0.000000
vt  0.377732 -0.067008 0.000000
vt  0.047699 -0.376465 0.000000
vt  0.191082 -0.516670 0.000000
vt  0.139463 -0.354381 0.000000
vt  0.282847 -0.494586 0.000000
vt  0.047699 -0.376465 0.000000
vt  0.139463 -0.354381 0.000000
vt  0.191082 -0.516670 0.000000
vt  0.282847 -0.494586 0.000000
vt  0.047699 -0.376465 0.000000
vt  0.139463 -0.354381 0.000000
vt  0.191082 -0.516670 0.000000
vt  0.282847 -0.494586 0.000000
vt  0.139463 -0.354381 0.000000
vt  0.047699 -0.376465 0.000000
vt  0.047699 -0.376465 0.000000
vt  0.139463 -0.354381 0.000000
vt  0.191082 -0.516670 0.000000
vt  0.282847 -0.494586 0.000000
vt  0.139463 -0.354381 0.000000
vt  0.047699 -0.376465 0.000000
vt  0.905211 -0.210795 0.000000
vt  0.811831 -0.032271 0.000000
vt  0.918253 -0.067838 0.000000
vt  0.905211 -0.210795 0.000000
vt  0.982368 -0.341156 0.000000
vt  0.979021 -0.212785 0.000000
vt  0.986928 -0.080796 0.000000
vt  0.979021 -0.212785 0.000000
vt  0.982368 -0.341156 0.000000
vt  0.903608 -0.345848 0.000000
vt  0.819354 -0.255621 0.000000
vt  0.826137 -0.189981 0.000000
vt  0.704480 -0.006529 0.000000
vt  0.826137 -0.189981 0.000000
vt  0.819354 -0.255621 0.000000
vt  0.903608 -0.345848 0.000000
vt  0.539603 -0.012957 0.000000
vt  0.712600 -0.158719 0.000000
vt  0.725127 -0.277865 0.000000
vt  0.826057 -0.340969 0.000000
vt  0.901414 -0.483362 0.000000
vt  0.986310 -0.487202 0.000000
vt  0.981278 -0.623496 0.000000
vt  0.890398 -0.620918 0.000000
vt  0.886192 -0.746706 0.000000
vt  0.976828 -0.741659 0.000000
vt  0.886826 -0.859489 0.000000
vt  0.978231 -0.848159 0.000000
vt  0.976828 -0.741659 0.000000
vt  0.886192 -0.746706 0.000000
vt  0.981278 -0.623496 0.000000
vt  0.791650 -0.595106 0.000000
vt  0.797500 -0.754443 0.000000
vt  0.815037 -0.469211 0.000000
vt  0.732871 -0.341317 0.000000
vt  0.501853 -0.292993 0.000000
vt  0.641913 -0.417774 0.000000
vt  0.504069 -0.403501 0.000000
vt  0.600759 -0.528440 0.000000
vt  0.465247 -0.530581 0.000000
vt  0.550075 -0.639021 0.000000
vt  0.450866 -0.681112 0.000000
vt  0.546276 -0.730691 0.000000
vt  0.523265 -0.885939 0.000000
vt  0.387921 -0.834607 0.000000
vt  0.450866 -0.681112 0.000000
vt  0.706385 -0.754508 0.000000
vt  0.803634 -0.877699 0.000000
vt  0.701730 -0.895383 0.000000
vt  0.705600 -0.568066 0.000000
vt  0.730976 -0.453372 0.000000
vt  0.546276 -0.730691 0.000000
vt  0.550075 -0.639021 0.000000
vt  0.300863 -0.534873 0.000000
vt  0.283720 -0.740064 0.000000
vt  0.320738 -0.353035 0.000000
vt  0.341877 -0.214394 0.000000
vt  0.527974 -0.170484 0.000000
vt  0.377732 -0.067008 0.000000
vt  0.527974 -0.170484 0.000000
vt  0.465247 -0.530581 0.000000
vt  0.504069 -0.403501 0.000000
vt  0.501853 -0.292993 0.000000
vt  0.725127 -0.277865 0.000000
vt  0.712600 -0.158719 0.000000
vt  0.826057 -0.340969 0.000000
vt  0.901414 -0.483362 0.000000
vt  0.986310 -0.487202 0.000000
vt  0.600759 -0.528440 0.000000
vt  0.641913 -0.417774 0.000000
vt  0.732871 -0.341317 0.000000
vt  0.815037 -0.469211 0.000000
vt  0.890398 -0.620918 0.000000
vt  0.791650 -0.595106 0.000000
vt  0.797500 -0.754443 0.000000
vt  0.706385 -0.754508 0.000000
vt  0.705600 -0.568066 0.000000
vt  0.730976 -0.453372 0.000000
vt  0.116447 -0.927084 0.000000
vt  0.129470 -0.856734 0.000000
vt  0.012040 -0.915851 0.000000
vt  0.012094 -0.846001 0.000000
vt  0.129470 -0.856734 0.000000
vt  0.116447 -0.927084 0.000000
vt  0.099125 -0.992979 0.000000
vt  0.011769 -0.978978 0.000000
vt  0.099125 -0.992979 0.000000
vt  0.364214 -0.840249 0.000000
vt  0.270975 -0.741724 0.000000
vt  0.282412 -0.854129 0.000000
vt  0.228985 -0.741781 0.000000
vt  0.147776 -0.724094 0.000000
vt  0.015111 -0.721444 0.000000
vt  0.157241 -0.628297 0.000000
vt  0.018242 -0.626080 0.000000
vt  0.032442 -0.537482 0.000000
vt  0.157734 -0.550077 0.000000
vt  0.063821 -0.460187 0.000000
vt  0.063821 -0.460187 0.000000
vt  0.157734 -0.550077 0.000000
vt  0.157241 -0.628297 0.000000
vt  0.147776 -0.724094 0.000000
vt  0.228985 -0.741781 0.000000
vt  0.282412 -0.854129 0.000000
vt  0.270975 -0.741724 0.000000
vt  0.364214 -0.840249 0.000000
vt  0.012094 -0.846001 0.000000
vt  0.129470 -0.856734 0.000000
vt  0.012040 -0.915851 0.000000
vt  0.116447 -0.927084 0.000000
vt  0.099125 -0.992979 0.000000
vt  0.011769 -0.978978 0.000000
vt  0.099125 -0.992979 0.000000
vt  0.116447 -0.927084 0.000000
vt  0.129470 -0.856734 0.000000
vt  0.063821 -0.460187 0.000000
vt  0.157734 -0.550077 0.000000
vt  0.032442 -0.537482 0.000000
vt  0.157241 -0.628297 0.000000
vt  0.018242 -0.626080 0.000000
vt  0.015111 -0.721444 0.000000
vt  0.147776 -0.724094 0.000000
vt  0.228985 -0.741781 0.000000
vt  0.282412 -0.854129 0.000000
vt  0.270975 -0.741724 0.000000
vt  0.364214 -0.840249 0.000000
vt  0.364214 -0.840249 0.000000
vt  0.270975 -0.741724 0.000000
vt  0.282412 -0.854129 0.000000
vt  0.228985 -0.741781 0.000000
vt  0.147776 -0.724094 0.000000
vt  0.157241 -0.628297 0.000000
vt  0.157734 -0.550077 0.000000
vt  0.063821 -0.460187 0.000000
vt  0.181498 -0.172297 0.000000
vt  0.167543 -0.260342 0.000000
vt  0.018521 -0.163089 0.000000
vt  0.110527 -0.319971 0.000000
vt  0.022837 -0.334912 0.000000
vt  0.110527 -0.319971 0.000000
vt  0.167543 -0.260342 0.000000
vt  0.181498 -0.172297 0.000000
vt  0.152130 -0.089866 0.000000
vt  0.092374 -0.037397 0.000000
vt  0.022576 -0.011254 0.000000
vt  0.092374 -0.037397 0.000000
vt  0.152130 -0.089866 0.000000

vn  0.900893 0.274921 -0.335874
vn  0.900893 0.274921 -0.335874
vn  0.900893 0.274921 -0.335874
vn  0.900892 0.274921 0.335875
vn  0.900892 0.274921 0.335875
vn  0.900892 0.274921 0.335875
vn  -0.181918 -0.892927 0.411809
vn  -0.359467 -0.859569 0.363215
vn  -0.213196 -0.889382 0.404409
vn  -0.385331 -0.851875 0.354724
vn  0.181918 0.892927 -0.411809
vn  0.213196 0.889382 -0.404409
vn  0.359467 0.859569 -0.363215
vn  0.385331 0.851875 -0.354724
vn  0.181917 0.892927 -0.411809
vn  0.213196 0.889382 -0.404409
vn  0.385817 0.922575 -0.000003
vn  0.412133 0.911124 -0.000002
vn  0.213200 0.889384 0.404404
vn  0.181921 0.892929 0.411804
vn  0.310400 -0.766922 -0.561679
vn  -0.213199 -0.889384 -0.404404
vn  -0.412506 -0.910955 0.000001
vn  -0.412136 -0.911122 0.000002
vn  -0.213202 -0.889382 0.404406
vn  0.310398 -0.766920 0.561681
vn  0.283535 -0.842497 -0.458047
vn  0.093874 -0.995584 0.000001
vn  0.334092 -0.942540 0.000002
vn  0.283533 -0.842496 0.458050
vn  -0.640235 -0.563032 0.522584
vn  -0.469368 -0.828513 0.305386
vn  -0.406850 -0.913495 0.000002
vn  -0.469367 -0.828514 -0.305383
vn  -0.640234 -0.563034 -0.522582
vn  -0.127187 -0.467260 -0.874924
vn  -0.120518 -0.865786 -0.485685
vn  0.175978 -0.950263 -0.256967
vn  -0.159570 -0.987187 0.000002
vn  0.175979 -0.950262 0.256970
vn  -0.120520 -0.865784 0.485689
vn  -0.127188 -0.467256 0.874926
vn  -0.324093 -0.946025 0.000002
vn  -0.180190 -0.953683 -0.240874
vn  0.089395 -0.760787 -0.642816
vn  -0.471264 -0.499677 -0.726796
vn  -0.311384 -0.043076 -0.949307
vn  -0.795526 -0.223304 -0.563271
vn  -0.835858 0.171517 -0.521462
vn  -0.410803 0.456756 -0.789059
vn  -0.125208 0.884726 -0.448979
vn  -0.843282 0.418726 -0.336963
vn  -0.068032 0.997683 -0.000002
vn  -0.822249 0.569128 -0.000002
vn  -0.843282 0.418729 0.336960
vn  -0.125209 0.884728 0.448976
vn  -0.835859 0.171519 0.521461
vn  -0.695416 0.286181 -0.659164
vn  -0.260905 0.885447 -0.384594
vn  -0.668344 -0.286966 -0.686270
vn  0.044073 -0.423552 -0.904799
vn  0.842268 0.048886 -0.536838
vn  0.729018 0.124417 -0.673092
vn  0.821237 0.038866 -0.569263
vn  0.688343 -0.023767 -0.724996
vn  0.868431 -0.063612 -0.491713
vn  0.347993 0.433313 -0.831349
vn  0.569014 0.475068 -0.671218
vn  -0.266792 0.817727 -0.510044
vn  -0.415793 0.909459 -0.000002
vn  -0.003585 0.999994 -0.000002
vn  0.569014 0.475070 0.671217
vn  -0.391147 0.825538 -0.406808
vn  -0.324572 0.945861 -0.000003
vn  -0.540912 0.841079 -0.000002
vn  -0.093186 0.427949 -0.898986
vn  -0.059648 -0.078612 -0.995119
vn  -0.266792 0.817729 0.510040
vn  0.347992 0.433317 0.831347
vn  0.985689 -0.168576 0.000000
vn  0.891403 0.453212 -0.000001
vn  0.995177 0.098100 0.000000
vn  0.982426 0.186651 -0.000000
vn  0.310400 -0.766922 -0.561679
vn  -0.412506 -0.910955 0.000001
vn  0.310398 -0.766920 0.561681
vn  0.868430 -0.063611 0.491714
vn  0.821237 0.038870 0.569262
vn  0.842268 0.048889 0.536837
vn  0.089394 -0.760784 0.642819
vn  -0.180188 -0.953682 0.240878
vn  -0.471264 -0.499672 0.726800
vn  -0.311384 -0.043071 0.949308
vn  -0.795525 -0.223301 0.563273
vn  0.688343 -0.023765 0.724996
vn  0.729018 0.124420 0.673092
vn  0.044074 -0.423547 0.904801
vn  -0.668344 -0.286964 0.686271
vn  -0.410804 0.456758 0.789057
vn  -0.695415 0.286184 0.659163
vn  -0.260905 0.885448 0.384590
vn  -0.391147 0.825539 0.406805
vn  -0.093182 0.427953 0.898985
vn  -0.059650 -0.078609 0.995119
vn  0.447200 -0.785058 0.428597
vn  0.445485 -0.798842 0.404222
vn  0.519347 -0.854564 0.000002
vn  0.405195 -0.914230 0.000003
vn  0.445485 -0.798844 -0.404218
vn  0.447201 -0.785060 -0.428594
vn  0.559749 -0.732127 -0.388164
vn  0.775365 -0.631513 0.000001
vn  0.559750 -0.732125 0.388167
vn  0.408805 -0.896070 0.173022
vn  0.347126 -0.882918 0.316165
vn  0.375611 -0.888934 0.262131
vn  0.377982 -0.817743 0.434080
vn  0.367122 -0.829647 0.420604
vn  0.462993 -0.886362 0.000001
vn  0.063426 -0.913448 0.401982
vn  0.121485 -0.992593 0.000001
vn  -0.115348 -0.993325 0.000002
vn  0.028641 -0.937810 0.345967
vn  0.043011 -0.937226 0.346061
vn  0.043014 -0.937227 -0.346058
vn  0.028642 -0.937810 -0.345964
vn  0.063426 -0.913450 -0.401979
vn  0.367121 -0.829649 -0.420601
vn  0.377982 -0.817746 -0.434076
vn  0.375612 -0.888935 -0.262126
vn  0.347128 -0.882919 -0.316158
vn  0.408806 -0.896071 -0.173018
vn  -0.405195 0.914230 -0.000003
vn  -0.445485 0.798842 -0.404222
vn  -0.519347 0.854564 -0.000002
vn  -0.447200 0.785058 -0.428597
vn  -0.559750 0.732125 -0.388167
vn  -0.775365 0.631513 -0.000001
vn  -0.559749 0.732127 0.388164
vn  -0.447201 0.785060 0.428594
vn  -0.445485 0.798844 0.404218
vn  -0.043011 0.937226 -0.346060
vn  -0.028640 0.937810 -0.345966
vn  0.115348 0.993325 -0.000002
vn  -0.063426 0.913449 -0.401982
vn  -0.121485 0.992593 -0.000001
vn  -0.462993 0.886362 -0.000001
vn  -0.367122 0.829647 -0.420604
vn  -0.377982 0.817743 -0.434080
vn  -0.375612 0.888934 -0.262131
vn  -0.347126 0.882917 -0.316165
vn  -0.408805 0.896070 -0.173022
vn  -0.408806 0.896071 0.173018
vn  -0.347128 0.882919 0.316158
vn  -0.375612 0.888935 0.262126
vn  -0.377982 0.817746 0.434076
vn  -0.367121 0.829649 0.420601
vn  -0.063425 0.913450 0.401979
vn  -0.028641 0.937811 0.345964
vn  -0.043015 0.937227 0.346058
vn  -0.795526 -0.223304 -0.563271
vn  -0.640234 -0.563034 -0.522582
vn  -0.946414 -0.322957 0.000000
vn  -0.469367 -0.828514 -0.305383
vn  -0.406850 -0.913495 0.000002
vn  -0.469368 -0.828513 0.305386
vn  -0.640235 -0.563032 0.522584
vn  -0.795525 -0.223301 0.563273
vn  -0.835859 0.171519 0.521461
vn  -0.843282 0.418729 0.336960
vn  -0.822249 0.569128 -0.000002
vn  -0.843282 0.418726 -0.336963
vn  -0.835858 0.171517 -0.521462

g K1132
usemtl K1132_3
f  1/1/1 2/2/2 3/3/3
f  4/4/4 5/5/5 6/6/6
f  7/7/7 8/8/8 9/9/9
f  10/10/10 9/9/9 8/8/8
f  11/11/11 12/12/12 13/13/13
f  14/14/14 13/13/13 12/12/12
f  15/15/15 16/16/16 17/17/17
f  18/18/18 17/17/17 16/16/16
f  19/19/19 17/17/17 18/18/18
f  17/17/17 19/19/19 20/20/20
f  21/21/21 22/22/22 23/23/23
f  24/24/24 23/23/23 22/22/22
f  25/25/25 23/23/23 24/24/24
f  23/23/23 25/25/25 26/26/26
f  27/27/27 28/28/28 29/29/29
f  30/30/30 29/29/29 28/28/28
f  31/31/31 32/32/32 30/30/30
f  33/33/33 30/30/30 32/32/32
f  30/30/30 33/33/33 29/29/29
f  29/29/29 33/33/33 27/27/27
f  34/34/34 27/27/27 33/33/33
f  35/35/35 27/27/27 34/34/34
f  36/36/36 27/27/27 35/35/35
f  37/37/37 27/27/27 36/36/36
f  38/38/38 27/27/27 37/37/37
f  27/27/27 38/38/38 28/28/28
f  39/39/39 28/28/28 38/38/38
f  40/40/40 28/28/28 39/39/39
f  28/28/28 40/40/40 30/30/30
f  41/41/41 30/30/30 40/40/40
f  42/42/42 30/30/30 41/41/41
f  30/30/30 42/42/42 31/31/31
f  43/43/43 39/39/39 44/44/44
f  38/38/38 44/44/44 39/39/39
f  44/44/44 38/38/38 45/45/45
f  37/37/37 45/45/45 38/38/38
f  45/45/45 37/37/37 46/46/46
f  36/36/36 46/46/46 37/37/37
f  46/46/46 36/36/36 47/47/47
f  35/35/35 47/47/47 36/36/36
f  48/48/48 47/47/47 35/35/35
f  49/49/49 47/47/47 48/48/48
f  47/47/47 49/49/49 50/50/50
f  50/50/50 49/49/49 51/51/51
f  52/52/52 51/51/51 49/49/49
f  51/51/51 52/52/52 53/53/53
f  54/54/54 53/53/53 52/52/52
f  55/55/55 53/53/53 54/54/54
f  53/53/53 55/55/55 56/56/56
f  57/57/57 56/56/56 55/55/55
f  58/58/58 51/51/51 59/59/59
f  51/51/51 58/58/58 50/50/50
f  60/60/60 50/50/50 58/58/58
f  50/50/50 60/60/60 47/47/47
f  47/47/47 60/60/60 46/46/46
f  61/61/61 46/46/46 60/60/60
f  46/46/46 61/61/61 45/45/45
f  45/45/45 61/61/61 62/62/62
f  63/63/63 62/62/62 61/61/61
f  62/62/62 63/63/63 64/64/64
f  65/65/65 64/64/64 63/63/63
f  64/64/64 65/65/65 66/66/66
f  67/67/67 66/66/66 65/65/65
f  66/66/66 67/67/67 68/68/68
f  69/69/69 68/68/68 67/67/67
f  70/70/70 68/68/68 69/69/69
f  68/68/68 70/70/70 71/71/71
f  72/72/72 71/71/71 70/70/70
f  73/73/73 74/74/74 75/75/75
f  74/74/74 73/73/73 59/59/59
f  76/76/76 59/59/59 73/73/73
f  59/59/59 76/76/76 58/58/58
f  77/77/77 58/58/58 76/76/76
f  58/58/58 77/77/77 60/60/60
f  60/60/60 77/77/77 61/61/61
f  61/61/61 77/77/77 63/63/63
f  76/76/76 63/63/63 77/77/77
f  63/63/63 76/76/76 65/65/65
f  65/65/65 76/76/76 67/67/67
f  73/73/73 67/67/67 76/76/76
f  67/67/67 73/73/73 69/69/69
f  75/75/75 69/69/69 73/73/73
f  69/69/69 75/75/75 70/70/70
f  78/78/78 70/70/70 75/75/75
f  70/70/70 78/78/78 72/72/72
f  79/79/79 72/72/72 78/78/78
f  80/80/80 81/81/81 72/72/72
f  72/72/72 81/81/81 71/71/71
f  71/71/71 81/81/81 68/68/68
f  80/80/80 68/68/68 81/81/81
f  68/68/68 80/80/80 66/66/66
f  82/82/82 66/66/66 80/80/80
f  66/66/66 82/82/82 64/64/64
f  83/83/83 64/64/64 82/82/82
f  64/64/64 83/83/83 62/62/62
f  84/84/84 62/62/62 83/83/83
f  62/62/62 84/84/84 45/45/45
f  45/45/45 84/84/84 44/44/44
f  44/44/44 84/84/84 43/43/43
f  85/85/85 43/43/43 84/84/84
f  43/43/43 85/85/85 86/86/86
f  87/87/87 80/80/80 72/72/72
f  80/80/80 87/87/87 82/82/82
f  88/88/88 82/82/82 87/87/87
f  82/82/82 88/88/88 83/83/83
f  89/89/89 83/83/83 88/88/88
f  83/83/83 89/89/89 86/86/86
f  90/90/90 86/86/86 89/89/89
f  91/91/91 86/86/86 90/90/90
f  86/86/86 91/91/91 43/43/43
f  43/43/43 91/91/91 39/39/39
f  39/39/39 91/91/91 40/40/40
f  90/90/90 40/40/40 91/91/91
f  40/40/40 90/90/90 41/41/41
f  92/92/92 41/41/41 90/90/90
f  41/41/41 92/92/92 42/42/42
f  93/93/93 42/42/42 92/92/92
f  42/42/42 93/93/93 31/31/31
f  94/94/94 31/31/31 93/93/93
f  72/72/72 79/79/79 87/87/87
f  95/95/95 87/87/87 79/79/79
f  87/87/87 95/95/95 88/88/88
f  96/96/96 88/88/88 95/95/95
f  88/88/88 96/96/96 89/89/89
f  97/97/97 89/89/89 96/96/96
f  89/89/89 97/97/97 90/90/90
f  90/90/90 97/97/97 92/92/92
f  98/98/98 92/92/92 97/97/97
f  92/92/92 98/98/98 93/93/93
f  93/93/93 98/98/98 99/99/99
f  100/100/100 99/99/99 98/98/98
f  99/99/99 100/100/100 56/56/56
f  101/101/101 56/56/56 100/100/100
f  74/74/74 56/56/56 101/101/101
f  56/56/56 74/74/74 53/53/53
f  53/53/53 74/74/74 51/51/51
f  59/59/59 51/51/51 74/74/74
f  74/74/74 102/102/102 75/75/75
f  75/75/75 102/102/102 78/78/78
f  78/78/78 102/102/102 79/79/79
f  103/103/103 79/79/79 102/102/102
f  79/79/79 103/103/103 95/95/95
f  95/95/95 103/103/103 96/96/96
f  104/104/104 96/96/96 103/103/103
f  96/96/96 104/104/104 97/97/97
f  97/97/97 104/104/104 98/98/98
f  98/98/98 104/104/104 100/100/100
f  103/103/103 100/100/100 104/104/104
f  100/100/100 103/103/103 101/101/101
f  102/102/102 101/101/101 103/103/103
f  101/101/101 102/102/102 74/74/74
f  56/56/56 57/57/57 99/99/99
f  99/99/99 57/57/57 93/93/93
f  94/94/94 93/93/93 57/57/57
f  105/105/105 106/106/106 107/107/107
f  108/108/108 107/107/107 106/106/106
f  109/109/109 107/107/107 108/108/108
f  110/110/110 107/107/107 109/109/109
f  111/111/111 107/107/107 110/110/110
f  112/112/112 107/107/107 111/111/111
f  113/113/113 107/107/107 112/112/112
f  107/107/107 113/113/113 105/105/105
f  114/114/114 115/115/115 116/116/116
f  117/117/117 116/116/116 115/115/115
f  116/116/116 117/117/117 106/106/106
f  118/118/118 106/106/106 117/117/117
f  106/106/106 118/118/118 108/108/108
f  108/108/108 118/118/118 119/119/119
f  120/120/120 119/119/119 118/118/118
f  119/119/119 120/120/120 121/121/121
f  121/121/121 120/120/120 122/122/122
f  123/123/123 122/122/122 120/120/120
f  122/122/122 123/123/123 124/124/124
f  125/125/125 126/126/126 122/122/122
f  127/127/127 122/122/122 126/126/126
f  122/122/122 127/127/127 121/121/121
f  121/121/121 127/127/127 119/119/119
f  128/128/128 119/119/119 127/127/127
f  119/119/119 128/128/128 108/108/108
f  108/108/108 128/128/128 109/109/109
f  129/129/129 109/109/109 128/128/128
f  109/109/109 129/129/129 130/130/130
f  131/131/131 130/130/130 129/129/129
f  130/130/130 131/131/131 132/132/132
f  133/133/133 134/134/134 135/135/135
f  136/136/136 135/135/135 134/134/134
f  137/137/137 135/135/135 136/136/136
f  138/138/138 135/135/135 137/137/137
f  139/139/139 135/135/135 138/138/138
f  140/140/140 135/135/135 139/139/139
f  141/141/141 135/135/135 140/140/140
f  135/135/135 141/141/141 133/133/133
f  142/142/142 143/143/143 144/144/144
f  145/145/145 144/144/144 143/143/143
f  144/144/144 145/145/145 146/146/146
f  146/146/146 145/145/145 147/147/147
f  148/148/148 147/147/147 145/145/145
f  147/147/147 148/148/148 133/133/133
f  133/133/133 148/148/148 134/134/134
f  149/149/149 134/134/134 148/148/148
f  134/134/134 149/149/149 150/150/150
f  151/151/151 150/150/150 149/149/149
f  150/150/150 151/151/151 152/152/152
f  153/153/153 154/154/154 155/155/155
f  156/156/156 155/155/155 154/154/154
f  155/155/155 156/156/156 141/141/141
f  157/157/157 141/141/141 156/156/156
f  141/141/141 157/157/157 133/133/133
f  133/133/133 157/157/157 147/147/147
f  158/158/158 147/147/147 157/157/157
f  147/147/147 158/158/158 146/146/146
f  146/146/146 158/158/158 144/144/144
f  159/159/159 144/144/144 158/158/158
f  144/144/144 159/159/159 160/160/160
f  161/161/161 162/162/162 163/163/163
f  164/164/164 163/163/163 162/162/162
f  165/165/165 163/163/163 164/164/164
f  166/166/166 163/163/163 165/165/165
f  167/167/167 163/163/163 166/166/166
f  168/168/168 163/163/163 167/167/167
f  169/169/169 163/163/163 168/168/168
f  170/170/170 163/163/163 169/169/169
f  171/171/171 163/163/163 170/170/170
f  172/172/172 163/163/163 171/171/171
f  173/173/173 163/163/163 172/172/172
f  163/163/163 173/173/173 161/161/161

g
