# Noesis .obj export.
#
mtllib k1142.mtl
g
v  0.561721 0.264250 0.396341
v  0.393550 0.471139 0.355368
v  0.554130 0.496563 0.360217
v  0.171783 0.524821 0.272948
v  0.228303 0.492468 0.304619
v  0.284630 0.325214 0.343720
v  0.394730 0.308414 0.373729
v  0.506934 0.146298 0.349984
v  0.392337 0.040665 0.250336
v  0.375666 0.155747 0.310001
v  0.532037 0.043588 0.282210
v  0.195311 0.351749 0.299295
v  0.138490 0.456516 0.230011
v  0.082838 0.562622 0.169606
v  0.006020 0.520750 0.107000
v  -0.025023 0.552435 -0.000003
v  0.392337 0.040664 -0.250340
v  0.532037 0.043587 -0.282214
v  0.375666 0.155746 -0.310006
v  0.506934 0.146297 -0.349988
v  0.284630 0.325213 -0.343726
v  0.195311 0.351748 -0.299300
v  0.171783 0.524821 -0.272953
v  0.138490 0.456515 -0.230017
v  0.082837 0.562621 -0.169612
v  0.006020 0.520750 -0.107006
v  0.228303 0.492467 -0.304625
v  0.554130 0.496562 -0.360223
v  0.393550 0.471138 -0.355373
v  0.561721 0.264249 -0.396346
v  0.394730 0.308412 -0.373734
v  0.602901 -0.034984 -0.000002
v  0.475148 -0.009779 -0.170202
v  0.532038 -0.004386 -0.000002
v  0.501035 0.047122 -0.000002
v  0.475148 -0.009779 0.170198
v  0.469593 0.143410 -0.177474
v  0.444058 0.056106 -0.135788
v  0.392337 0.040664 -0.250340
v  0.528680 0.125917 -0.000002
v  0.444058 0.056107 0.135784
v  0.392337 0.040665 0.250336
v  0.469593 0.143411 0.177469
v  0.504894 0.243635 0.153349
v  0.562105 0.212433 -0.000002
v  0.501751 0.362285 0.157487
v  0.437133 0.319598 0.230798
v  0.375660 0.233290 0.276002
v  0.323246 0.170086 0.282092
v  0.191477 0.343936 0.276628
v  0.504894 0.243635 -0.153354
v  0.501751 0.362284 -0.157493
v  0.437133 0.319597 -0.230803
v  0.375660 0.233289 -0.276007
v  0.323246 0.170085 -0.282097
v  0.191477 0.343935 -0.276633
v  0.263592 0.393629 -0.262714
v  0.358886 0.427501 -0.217047
v  0.338625 0.455539 -0.205467
v  0.248785 0.407482 -0.250365
v  0.268899 0.408513 -0.265821
v  0.144439 0.431663 -0.218255
v  0.229876 0.500061 -0.208693
v  0.350414 0.438257 -0.244598
v  0.423203 0.473796 -0.145740
v  0.456853 0.442946 -0.159564
v  0.564259 0.330773 -0.000003
v  0.456853 0.442946 0.159558
v  0.358886 0.427502 0.217042
v  0.423203 0.473796 0.145735
v  0.338625 0.455540 0.205461
v  0.350414 0.438257 0.244592
v  0.342668 0.545085 -0.149885
v  0.193351 0.563415 -0.111981
v  0.457907 0.466317 -0.164112
v  0.447067 0.499282 -0.000003
v  0.473450 0.472794 -0.000003
v  0.457907 0.466317 0.164107
v  0.342668 0.545086 0.149879
v  0.229876 0.500061 0.208688
v  0.193351 0.563416 0.111975
v  0.144439 0.431664 0.218250
v  0.071564 0.493190 0.111508
v  0.165920 0.593126 -0.000003
v  0.332303 0.586726 -0.000003
v  0.529095 0.513635 -0.000003
v  0.071564 0.493190 -0.111514
v  0.020464 0.530648 -0.000003
v  0.268899 0.408514 0.265815
v  0.248785 0.407483 0.250360
v  0.263592 0.393630 0.262709
v  0.304134 0.141504 -0.295252
v  0.281179 0.329254 -0.349074
v  0.372803 0.153587 -0.320405
v  0.506934 0.146297 -0.349988
v  0.394643 0.308224 -0.379070
v  0.561721 0.264249 -0.396346
v  0.193634 0.304540 -0.311244
v  0.172052 0.289104 -0.265899
v  0.098016 0.444160 -0.261287
v  0.097317 0.398165 -0.217251
v  0.024550 0.450545 -0.109019
v  0.006020 0.520750 -0.107006
v  -0.058202 0.525176 -0.000003
v  -0.025023 0.552435 -0.000003
v  0.082837 0.562621 -0.169612
v  0.171783 0.524821 -0.272953
v  0.228303 0.492467 -0.304625
v  0.393550 0.471138 -0.355373
v  0.554130 0.496562 -0.360223
v  0.532037 0.043587 -0.282214
v  0.392337 0.040664 -0.250340
v  0.260224 0.146786 -0.252440
v  0.004469 0.489394 -0.000003
v  0.024550 0.450545 0.109013
v  0.006020 0.520750 0.107000
v  0.082838 0.562622 0.169606
v  0.098016 0.444160 0.261282
v  0.171783 0.524821 0.272948
v  0.193634 0.304541 0.311239
v  0.172052 0.289105 0.265894
v  0.097317 0.398166 0.217245
v  0.302077 0.045624 -0.207857
v  0.326481 -0.013644 -0.117992
v  0.475148 -0.009779 -0.170202
v  0.336593 -0.075859 -0.000002
v  0.442609 -0.076890 -0.000002
v  0.602901 -0.034984 -0.000002
v  0.475148 -0.009779 0.170198
v  0.326481 -0.013644 0.117988
v  0.392337 0.040665 0.250336
v  0.302077 0.045624 0.207853
v  0.260224 0.146787 0.252436
v  0.304134 0.141505 0.295248
v  0.281179 0.329255 0.349069
v  0.228303 0.492468 0.304619
v  0.532037 0.043588 0.282210
v  0.506934 0.146298 0.349984
v  0.372803 0.153588 0.320400
v  0.554130 0.496563 0.360217
v  0.393550 0.471139 0.355368
v  0.561721 0.264250 0.396341
v  0.394643 0.308226 0.379065
v  0.024550 0.450545 0.109013
v  0.004469 0.489394 -0.000003
v  0.317701 0.337054 -0.000003
v  0.024550 0.450545 -0.109019
v  0.097317 0.398165 -0.217251
v  0.172052 0.289104 -0.265899
v  0.260224 0.146786 -0.252440
v  0.302077 0.045624 -0.207857
v  0.326481 -0.013644 -0.117992
v  0.387709 0.111170 -0.000002
v  0.336593 -0.075859 -0.000002
v  0.326481 -0.013644 0.117988
v  0.302077 0.045624 0.207853
v  0.260224 0.146787 0.252436
v  0.172052 0.289105 0.265894
v  0.097317 0.398166 0.217245
v  0.392337 0.040664 -0.250340
v  0.375666 0.155746 -0.310006
v  0.323246 0.170085 -0.282097
v  0.195311 0.351748 -0.299300
v  0.191477 0.343935 -0.276633
v  0.138490 0.456515 -0.230017
v  0.144439 0.431663 -0.218255
v  0.006020 0.520750 -0.107006
v  0.071564 0.493190 -0.111514
v  -0.025023 0.552435 -0.000003
v  0.020464 0.530648 -0.000003
v  0.071564 0.493190 0.111508
v  0.006020 0.520750 0.107000
v  0.144439 0.431664 0.218250
v  0.138490 0.456516 0.230011
v  0.191477 0.343936 0.276628
v  0.195311 0.351749 0.299295
v  0.323246 0.170086 0.282092
v  0.375666 0.155747 0.310001
v  0.392337 0.040665 0.250336

vt  0.948639 -0.317913 0.000000
vt  0.871271 -0.144300 0.000000
vt  0.962447 -0.137684 0.000000
vt  0.677359 -0.109716 0.000000
vt  0.731257 -0.132433 0.000000
vt  0.750664 -0.290114 0.000000
vt  0.858561 -0.289020 0.000000
vt  0.888631 -0.435237 0.000000
vt  0.798772 -0.521894 0.000000
vt  0.781883 -0.421924 0.000000
vt  0.866071 -0.522044 0.000000
vt  0.690163 -0.301906 0.000000
vt  0.639382 -0.176919 0.000000
vt  0.583476 -0.048902 0.000000
vt  0.545330 -0.084485 0.000000
vt  0.456673 -0.018498 0.000000
vt  0.798772 -0.521894 0.000000
vt  0.866071 -0.522044 0.000000
vt  0.781883 -0.421924 0.000000
vt  0.888631 -0.435237 0.000000
vt  0.750664 -0.290114 0.000000
vt  0.690163 -0.301906 0.000000
vt  0.677359 -0.109716 0.000000
vt  0.639382 -0.176919 0.000000
vt  0.583476 -0.048902 0.000000
vt  0.545330 -0.084485 0.000000
vt  0.731257 -0.132433 0.000000
vt  0.962447 -0.137684 0.000000
vt  0.871271 -0.144300 0.000000
vt  0.948639 -0.317913 0.000000
vt  0.858561 -0.289020 0.000000
vt  0.784608 -0.548600 0.000000
vt  0.621302 -0.570671 0.000000
vt  0.743022 -0.506478 0.000000
vt  0.710016 -0.459179 0.000000
vt  0.621302 -0.570671 0.000000
vt  0.552385 -0.441337 0.000000
vt  0.605736 -0.494889 0.000000
vt  0.524582 -0.539180 0.000000
vt  0.688103 -0.393557 0.000000
vt  0.605736 -0.494889 0.000000
vt  0.524582 -0.539180 0.000000
vt  0.552385 -0.441337 0.000000
vt  0.550619 -0.350642 0.000000
vt  0.673032 -0.318274 0.000000
vt  0.499231 -0.266841 0.000000
vt  0.455049 -0.336569 0.000000
vt  0.423969 -0.413304 0.000000
vt  0.397602 -0.486877 0.000000
vt  0.277033 -0.406810 0.000000
vt  0.550619 -0.350642 0.000000
vt  0.499231 -0.266841 0.000000
vt  0.455049 -0.336569 0.000000
vt  0.423969 -0.413304 0.000000
vt  0.397602 -0.486877 0.000000
vt  0.277033 -0.406810 0.000000
vt  0.309533 -0.342740 0.000000
vt  0.370255 -0.274119 0.000000
vt  0.348301 -0.254199 0.000000
vt  0.293481 -0.333334 0.000000
vt  0.274780 -0.302106 0.000000
vt  0.171719 -0.288667 0.000000
vt  0.225113 -0.226413 0.000000
vt  0.328224 -0.248620 0.000000
vt  0.420199 -0.192637 0.000000
vt  0.445971 -0.217937 0.000000
vt  0.623127 -0.224851 0.000000
vt  0.445971 -0.217937 0.000000
vt  0.370255 -0.274119 0.000000
vt  0.420199 -0.192637 0.000000
vt  0.348301 -0.254199 0.000000
vt  0.328224 -0.248620 0.000000
vt  0.298981 -0.142098 0.000000
vt  0.185663 -0.153950 0.000000
vt  0.393738 -0.159602 0.000000
vt  0.481974 -0.079988 0.000000
vt  0.522621 -0.122737 0.000000
vt  0.393738 -0.159602 0.000000
vt  0.298981 -0.142098 0.000000
vt  0.225113 -0.226413 0.000000
vt  0.185663 -0.153950 0.000000
vt  0.171719 -0.288667 0.000000
vt  0.100160 -0.207342 0.000000
vt  0.141983 -0.073418 0.000000
vt  0.278391 -0.032997 0.000000
vt  0.426526 -0.026469 0.000000
vt  0.100160 -0.207342 0.000000
vt  0.035886 -0.138629 0.000000
vt  0.274780 -0.302106 0.000000
vt  0.293481 -0.333334 0.000000
vt  0.309533 -0.342740 0.000000
vt  0.507742 -0.813527 0.000000
vt  0.386096 -0.757707 0.000000
vt  0.519820 -0.779307 0.000000
vt  0.572970 -0.685779 0.000000
vt  0.426376 -0.657606 0.000000
vt  0.487541 -0.585441 0.000000
vt  0.373838 -0.818116 0.000000
vt  0.380542 -0.882871 0.000000
vt  0.238932 -0.817201 0.000000
vt  0.259228 -0.874275 0.000000
vt  0.161549 -0.910019 0.000000
vt  0.117542 -0.868721 0.000000
vt  0.024648 -0.950295 0.000000
vt  0.022650 -0.925377 0.000000
vt  0.099266 -0.819862 0.000000
vt  0.191378 -0.756397 0.000000
vt  0.232991 -0.715295 0.000000
vt  0.297537 -0.590481 0.000000
vt  0.323357 -0.508227 0.000000
vt  0.644536 -0.739842 0.000000
vt  0.618643 -0.801960 0.000000
vt  0.504287 -0.879776 0.000000
vt  0.094292 -0.974452 0.000000
vt  0.161549 -0.910019 0.000000
vt  0.117542 -0.868721 0.000000
vt  0.099266 -0.819862 0.000000
vt  0.238932 -0.817201 0.000000
vt  0.191378 -0.756397 0.000000
vt  0.373838 -0.818116 0.000000
vt  0.380542 -0.882871 0.000000
vt  0.259228 -0.874275 0.000000
vt  0.614298 -0.890037 0.000000
vt  0.679097 -0.916869 0.000000
vt  0.719599 -0.809968 0.000000
vt  0.750797 -0.980718 0.000000
vt  0.812696 -0.908293 0.000000
vt  0.884201 -0.809905 0.000000
vt  0.719599 -0.809968 0.000000
vt  0.679097 -0.916869 0.000000
vt  0.618643 -0.801960 0.000000
vt  0.614298 -0.890037 0.000000
vt  0.504287 -0.879776 0.000000
vt  0.507742 -0.813527 0.000000
vt  0.386096 -0.757707 0.000000
vt  0.232991 -0.715295 0.000000
vt  0.644536 -0.739842 0.000000
vt  0.572970 -0.685779 0.000000
vt  0.519820 -0.779307 0.000000
vt  0.323357 -0.508227 0.000000
vt  0.297537 -0.590481 0.000000
vt  0.487541 -0.585441 0.000000
vt  0.426376 -0.657606 0.000000
vt  0.136487 -0.302110 0.000000
vt  0.068232 -0.251944 0.000000
vt  0.030923 -0.480510 0.000000
vt  0.136487 -0.302110 0.000000
vt  0.203701 -0.363709 0.000000
vt  0.254549 -0.456362 0.000000
vt  0.242913 -0.564137 0.000000
vt  0.208877 -0.657636 0.000000
vt  0.173190 -0.710631 0.000000
vt  0.061253 -0.643570 0.000000
vt  0.108468 -0.769564 0.000000
vt  0.173190 -0.710631 0.000000
vt  0.208877 -0.657636 0.000000
vt  0.242913 -0.564137 0.000000
vt  0.254549 -0.456362 0.000000
vt  0.203701 -0.363709 0.000000
vt  0.944385 -0.383272 0.000000
vt  0.936472 -0.515202 0.000000
vt  0.917301 -0.517037 0.000000
vt  0.954067 -0.639347 0.000000
vt  0.942757 -0.658775 0.000000
vt  0.978817 -0.762765 0.000000
vt  0.958608 -0.753025 0.000000
vt  0.951183 -0.879136 0.000000
vt  0.933415 -0.851187 0.000000
vt  0.896311 -0.976143 0.000000
vt  0.870944 -0.914442 0.000000
vt  0.933415 -0.851187 0.000000
vt  0.951183 -0.879136 0.000000
vt  0.958608 -0.753025 0.000000
vt  0.978817 -0.762765 0.000000
vt  0.942757 -0.658775 0.000000
vt  0.954067 -0.639347 0.000000
vt  0.917301 -0.517037 0.000000
vt  0.936472 -0.515202 0.000000
vt  0.944385 -0.383272 0.000000

vn  0.145219 0.081803 -0.986012
vn  0.178027 -0.121328 -0.976517
vn  0.053824 -0.151710 -0.986959
vn  0.684280 -0.002953 -0.729214
vn  0.406601 -0.071450 -0.910808
vn  0.386685 0.149072 -0.910084
vn  0.225962 0.096421 -0.969352
vn  0.263411 0.433366 -0.861864
vn  0.186520 0.473357 -0.860897
vn  0.289195 0.419416 -0.860498
vn  0.233312 0.527664 -0.816784
vn  0.514780 0.039442 -0.856415
vn  0.757354 0.004544 -0.652989
vn  0.705245 -0.151928 -0.692494
vn  0.690837 -0.526466 -0.495558
vn  -0.196748 0.980454 -0.000002
vn  0.186520 0.473360 0.860895
vn  0.233312 0.527666 0.816783
vn  0.289195 0.419419 0.860497
vn  0.263411 0.433368 0.861862
vn  0.386685 0.149075 0.910083
vn  0.514780 0.039445 0.856414
vn  0.684280 -0.002950 0.729214
vn  0.757354 0.004546 0.652989
vn  0.705245 -0.151926 0.692495
vn  0.690837 -0.526464 0.495560
vn  0.406601 -0.071447 0.910808
vn  0.053824 -0.151707 0.986959
vn  0.178027 -0.121325 0.976518
vn  0.145219 0.081806 0.986012
vn  0.225962 0.096424 0.969352
vn  0.994556 -0.104205 0.000000
vn  0.642628 -0.351655 -0.680712
vn  0.622808 0.782375 -0.000001
vn  0.989957 0.141366 -0.000000
vn  0.642628 -0.351653 0.680713
vn  0.827877 -0.227674 -0.512626
vn  0.921727 0.057869 -0.383498
vn  0.852742 0.072199 -0.517318
vn  0.938744 -0.344615 0.000001
vn  0.921727 0.057870 0.383498
vn  0.852742 0.072200 0.517318
vn  0.827876 -0.227672 0.512627
vn  0.855959 -0.097109 0.507842
vn  0.979986 -0.199065 0.000000
vn  0.828141 0.245267 0.504011
vn  0.552677 0.165860 0.816724
vn  0.378830 0.040640 0.924573
vn  0.827838 0.499614 0.255086
vn  0.700928 0.574143 0.423154
vn  0.855960 -0.097110 -0.507842
vn  0.828140 0.245266 -0.504012
vn  0.552677 0.165857 -0.816725
vn  0.378830 0.040637 -0.924574
vn  0.827838 0.499614 -0.255088
vn  0.700928 0.574142 -0.423156
vn  0.057420 0.429347 -0.901313
vn  0.328266 0.466947 -0.821099
vn  0.539063 -0.644609 -0.542117
vn  0.698483 -0.417559 -0.581176
vn  0.290820 -0.502815 -0.814003
vn  0.450443 0.821152 -0.350445
vn  -0.174150 0.660557 -0.730299
vn  0.541271 -0.449454 -0.710646
vn  0.741883 -0.576161 -0.342999
vn  0.622948 0.578098 -0.527009
vn  0.975969 0.217912 -0.000000
vn  0.622949 0.578099 0.527007
vn  0.328265 0.466949 0.821097
vn  0.741883 -0.576160 0.343000
vn  0.539063 -0.644607 0.542119
vn  0.541271 -0.449451 0.710647
vn  0.219805 0.838365 -0.498829
vn  -0.205882 0.868920 -0.450101
vn  0.760408 -0.394716 -0.515733
vn  0.906060 -0.423149 0.000001
vn  0.776664 0.629915 -0.000001
vn  0.760407 -0.394714 0.515734
vn  0.219805 0.838366 0.498826
vn  -0.174149 0.660559 0.730297
vn  -0.205882 0.868922 0.450098
vn  0.450443 0.821152 0.350442
vn  -0.014278 0.905190 0.424767
vn  -0.206205 0.978509 -0.000002
vn  0.188835 0.982009 -0.000002
vn  0.999801 0.019959 -0.000000
vn  -0.014278 0.905189 -0.424770
vn  0.117103 0.993120 -0.000002
vn  0.290820 -0.502813 0.814004
vn  0.698484 -0.417558 0.581177
vn  0.057421 0.429349 0.901311
vn  -0.438720 -0.520008 -0.732882
vn  -0.305469 -0.043338 -0.951215
vn  -0.225440 -0.408046 -0.884689
vn  -0.210684 -0.428166 -0.878798
vn  -0.211905 -0.094568 -0.972704
vn  -0.121638 -0.081397 -0.989231
vn  -0.575523 -0.248518 -0.779110
vn  -0.831931 -0.548704 -0.082548
vn  -0.695260 0.015129 -0.718599
vn  -0.783057 -0.610718 -0.117669
vn  -0.741976 -0.658771 -0.124466
vn  -0.828900 0.253148 -0.498839
vn  -0.998834 0.048278 0.000000
vn  -0.196748 0.980454 -0.000002
vn  -0.672320 0.442676 -0.593317
vn  -0.472580 0.260129 -0.842022
vn  -0.385960 0.117630 -0.914986
vn  -0.168144 0.143326 -0.975287
vn  -0.053824 0.151707 -0.986959
vn  -0.191406 -0.557529 -0.807790
vn  -0.248237 -0.694268 -0.675552
vn  -0.843090 -0.511737 -0.165301
vn  -0.472660 -0.881245 0.000002
vn  -0.741976 -0.658771 0.124468
vn  -0.828900 0.253150 0.498838
vn  -0.672320 0.442677 0.593315
vn  -0.695260 0.015132 0.718599
vn  -0.472580 0.260131 0.842021
vn  -0.575523 -0.248516 0.779110
vn  -0.831931 -0.548704 0.082550
vn  -0.783057 -0.610717 0.117671
vn  -0.764974 -0.564883 -0.309390
vn  -0.767796 -0.626710 -0.133129
vn  0.642628 -0.351655 -0.680712
vn  -0.693572 -0.720388 0.000001
vn  0.105038 -0.994468 0.000002
vn  0.994556 -0.104205 0.000000
vn  0.642628 -0.351653 0.680713
vn  -0.767796 -0.626710 0.133131
vn  -0.248237 -0.694266 0.675554
vn  -0.764974 -0.564883 0.309391
vn  -0.843090 -0.511737 0.165303
vn  -0.438720 -0.520006 0.732884
vn  -0.305469 -0.043335 0.951216
vn  -0.385959 0.117633 0.914985
vn  -0.191406 -0.557526 0.807792
vn  -0.210684 -0.428163 0.878799
vn  -0.225440 -0.408043 0.884691
vn  -0.053824 0.151710 0.986959
vn  -0.168143 0.143329 0.975287
vn  -0.121638 -0.081394 0.989232
vn  -0.211904 -0.094565 0.972705
vn  -0.741976 -0.658771 0.124468
vn  -0.472660 -0.881245 0.000002
vn  -0.808385 -0.588654 0.000001
vn  -0.741976 -0.658771 -0.124466
vn  -0.783057 -0.610718 -0.117669
vn  -0.831931 -0.548704 -0.082548
vn  -0.843090 -0.511737 -0.165301
vn  -0.764974 -0.564883 -0.309390
vn  -0.767796 -0.626710 -0.133129
vn  -0.990906 -0.134557 0.000000
vn  -0.693572 -0.720388 0.000001
vn  -0.767796 -0.626710 0.133131
vn  -0.764974 -0.564883 0.309391
vn  -0.843090 -0.511737 0.165303
vn  -0.831931 -0.548704 0.082550
vn  -0.783057 -0.610717 0.117671
vn  0.852742 0.072199 -0.517318
vn  0.512604 0.446510 0.733393
vn  0.827838 0.499614 -0.255088
vn  0.829049 0.452323 0.328757
vn  0.700928 0.574142 -0.423156
vn  0.801226 0.400601 0.444472
vn  0.450443 0.821152 -0.350445
vn  0.396811 0.905329 -0.151397
vn  -0.014278 0.905189 -0.424770
vn  -0.196748 0.980454 -0.000002
vn  0.117103 0.993120 -0.000002
vn  -0.014278 0.905190 0.424767
vn  0.396811 0.905329 0.151394
vn  0.450443 0.821152 0.350442
vn  0.801226 0.400600 -0.444473
vn  0.700928 0.574143 0.423154
vn  0.829049 0.452322 -0.328759
vn  0.827838 0.499614 0.255086
vn  0.512604 0.446508 -0.733395
vn  0.852742 0.072200 0.517318

g K1146
usemtl K1142_3
f  1/1/1 2/2/2 3/3/3
f  4/4/4 5/5/5 6/6/6
f  7/7/7 6/6/6 5/5/5
f  6/6/6 7/7/7 8/8/8
f  8/8/8 7/7/7 1/1/1
f  1/1/1 7/7/7 2/2/2
f  5/5/5 2/2/2 7/7/7
f  9/9/9 10/10/10 11/11/11
f  11/11/11 10/10/10 8/8/8
f  8/8/8 10/10/10 6/6/6
f  12/12/12 6/6/6 10/10/10
f  6/6/6 12/12/12 4/4/4
f  13/13/13 4/4/4 12/12/12
f  4/4/4 13/13/13 14/14/14
f  15/15/15 14/14/14 13/13/13
f  14/14/14 15/15/15 16/16/16
f  17/17/17 18/18/18 19/19/19
f  20/20/20 19/19/19 18/18/18
f  21/21/21 19/19/19 20/20/20
f  19/19/19 21/21/21 22/22/22
f  23/23/23 22/22/22 21/21/21
f  22/22/22 23/23/23 24/24/24
f  25/25/25 24/24/24 23/23/23
f  24/24/24 25/25/25 26/26/26
f  16/16/16 26/26/26 25/25/25
f  23/23/23 21/21/21 27/27/27
f  28/28/28 29/29/29 30/30/30
f  31/31/31 30/30/30 29/29/29
f  30/30/30 31/31/31 20/20/20
f  20/20/20 31/31/31 21/21/21
f  21/21/21 31/31/31 27/27/27
f  29/29/29 27/27/27 31/31/31
f  32/32/32 33/33/33 34/34/34
f  35/35/35 34/34/34 33/33/33
f  36/36/36 34/34/34 35/35/35
f  34/34/34 36/36/36 32/32/32
f  37/37/37 38/38/38 39/39/39
f  39/39/39 38/38/38 33/33/33
f  33/33/33 38/38/38 35/35/35
f  40/40/40 35/35/35 38/38/38
f  41/41/41 35/35/35 40/40/40
f  35/35/35 41/41/41 36/36/36
f  36/36/36 41/41/41 42/42/42
f  42/42/42 41/41/41 43/43/43
f  40/40/40 43/43/43 41/41/41
f  43/43/43 40/40/40 44/44/44
f  45/45/45 44/44/44 40/40/40
f  46/46/46 44/44/44 45/45/45
f  47/47/47 44/44/44 46/46/46
f  44/44/44 47/47/47 43/43/43
f  48/48/48 43/43/43 47/47/47
f  43/43/43 48/48/48 42/42/42
f  42/42/42 48/48/48 49/49/49
f  50/50/50 49/49/49 48/48/48
f  38/38/38 37/37/37 40/40/40
f  51/51/51 40/40/40 37/37/37
f  40/40/40 51/51/51 45/45/45
f  45/45/45 51/51/51 52/52/52
f  52/52/52 51/51/51 53/53/53
f  37/37/37 53/53/53 51/51/51
f  53/53/53 37/37/37 54/54/54
f  39/39/39 54/54/54 37/37/37
f  55/55/55 54/54/54 39/39/39
f  56/56/56 54/54/54 55/55/55
f  57/57/57 54/54/54 56/56/56
f  54/54/54 57/57/57 53/53/53
f  53/53/53 57/57/57 58/58/58
f  58/58/58 57/57/57 59/59/59
f  59/59/59 57/57/57 60/60/60
f  56/56/56 60/60/60 57/57/57
f  60/60/60 56/56/56 61/61/61
f  62/62/62 61/61/61 56/56/56
f  62/62/62 63/63/63 61/61/61
f  64/64/64 61/61/61 63/63/63
f  61/61/61 64/64/64 60/60/60
f  60/60/60 64/64/64 59/59/59
f  65/65/65 59/59/59 64/64/64
f  59/59/59 65/65/65 58/58/58
f  66/66/66 58/58/58 65/65/65
f  58/58/58 66/66/66 53/53/53
f  53/53/53 66/66/66 52/52/52
f  67/67/67 52/52/52 66/66/66
f  52/52/52 67/67/67 45/45/45
f  45/45/45 67/67/67 46/46/46
f  68/68/68 46/46/46 67/67/67
f  46/46/46 68/68/68 47/47/47
f  47/47/47 68/68/68 69/69/69
f  70/70/70 69/69/69 68/68/68
f  69/69/69 70/70/70 71/71/71
f  72/72/72 71/71/71 70/70/70
f  73/73/73 63/63/63 74/74/74
f  63/63/63 73/73/73 64/64/64
f  75/75/75 64/64/64 73/73/73
f  64/64/64 75/75/75 65/65/65
f  76/76/76 65/65/65 75/75/75
f  65/65/65 76/76/76 66/66/66
f  77/77/77 66/66/66 76/76/76
f  66/66/66 77/77/77 67/67/67
f  67/67/67 77/77/77 68/68/68
f  76/76/76 68/68/68 77/77/77
f  68/68/68 76/76/76 70/70/70
f  78/78/78 70/70/70 76/76/76
f  70/70/70 78/78/78 72/72/72
f  79/79/79 72/72/72 78/78/78
f  72/72/72 79/79/79 80/80/80
f  81/81/81 80/80/80 79/79/79
f  80/80/80 81/81/81 82/82/82
f  83/83/83 82/82/82 81/81/81
f  84/84/84 81/81/81 85/85/85
f  79/79/79 85/85/85 81/81/81
f  85/85/85 79/79/79 86/86/86
f  78/78/78 86/86/86 79/79/79
f  76/76/76 86/86/86 78/78/78
f  75/75/75 86/86/86 76/76/76
f  73/73/73 86/86/86 75/75/75
f  86/86/86 73/73/73 85/85/85
f  74/74/74 85/85/85 73/73/73
f  85/85/85 74/74/74 84/84/84
f  63/63/63 62/62/62 74/74/74
f  87/87/87 74/74/74 62/62/62
f  88/88/88 74/74/74 87/87/87
f  74/74/74 88/88/88 84/84/84
f  84/84/84 88/88/88 81/81/81
f  83/83/83 81/81/81 88/88/88
f  80/80/80 82/82/82 89/89/89
f  50/50/50 89/89/89 82/82/82
f  89/89/89 50/50/50 90/90/90
f  91/91/91 90/90/90 50/50/50
f  71/71/71 90/90/90 91/91/91
f  72/72/72 90/90/90 71/71/71
f  90/90/90 72/72/72 89/89/89
f  80/80/80 89/89/89 72/72/72
f  50/50/50 48/48/48 91/91/91
f  47/47/47 91/91/91 48/48/48
f  69/69/69 91/91/91 47/47/47
f  91/91/91 69/69/69 71/71/71
f  92/92/92 93/93/93 94/94/94
f  94/94/94 93/93/93 95/95/95
f  96/96/96 95/95/95 93/93/93
f  95/95/95 96/96/96 97/97/97
f  93/93/93 92/92/92 98/98/98
f  99/99/99 98/98/98 92/92/92
f  98/98/98 99/99/99 100/100/100
f  101/101/101 100/100/100 99/99/99
f  102/102/102 100/100/100 101/101/101
f  100/100/100 102/102/102 103/103/103
f  104/104/104 103/103/103 102/102/102
f  105/105/105 103/103/103 104/104/104
f  106/106/106 103/103/103 105/105/105
f  103/103/103 106/106/106 100/100/100
f  107/107/107 100/100/100 106/106/106
f  100/100/100 107/107/107 98/98/98
f  98/98/98 107/107/107 93/93/93
f  108/108/108 93/93/93 107/107/107
f  93/93/93 108/108/108 96/96/96
f  109/109/109 96/96/96 108/108/108
f  96/96/96 109/109/109 97/97/97
f  110/110/110 97/97/97 109/109/109
f  95/95/95 111/111/111 94/94/94
f  112/112/112 94/94/94 111/111/111
f  94/94/94 112/112/112 92/92/92
f  113/113/113 92/92/92 112/112/112
f  92/92/92 113/113/113 99/99/99
f  102/102/102 114/114/114 104/104/104
f  115/115/115 104/104/104 114/114/114
f  116/116/116 104/104/104 115/115/115
f  104/104/104 116/116/116 105/105/105
f  105/105/105 116/116/116 117/117/117
f  118/118/118 117/117/117 116/116/116
f  117/117/117 118/118/118 119/119/119
f  119/119/119 118/118/118 120/120/120
f  120/120/120 118/118/118 121/121/121
f  121/121/121 118/118/118 122/122/122
f  122/122/122 118/118/118 115/115/115
f  116/116/116 115/115/115 118/118/118
f  112/112/112 123/123/123 113/113/113
f  123/123/123 112/112/112 124/124/124
f  125/125/125 124/124/124 112/112/112
f  124/124/124 125/125/125 126/126/126
f  126/126/126 125/125/125 127/127/127
f  128/128/128 127/127/127 125/125/125
f  129/129/129 127/127/127 128/128/128
f  127/127/127 129/129/129 126/126/126
f  126/126/126 129/129/129 130/130/130
f  131/131/131 130/130/130 129/129/129
f  130/130/130 131/131/131 132/132/132
f  132/132/132 131/131/131 133/133/133
f  134/134/134 133/133/133 131/131/131
f  133/133/133 134/134/134 121/121/121
f  121/121/121 134/134/134 120/120/120
f  135/135/135 120/120/120 134/134/134
f  120/120/120 135/135/135 119/119/119
f  136/136/136 119/119/119 135/135/135
f  137/137/137 138/138/138 139/139/139
f  135/135/135 139/139/139 138/138/138
f  134/134/134 139/139/139 135/135/135
f  131/131/131 139/139/139 134/134/134
f  139/139/139 131/131/131 137/137/137
f  140/140/140 141/141/141 142/142/142
f  143/143/143 142/142/142 141/141/141
f  142/142/142 143/143/143 138/138/138
f  138/138/138 143/143/143 135/135/135
f  135/135/135 143/143/143 136/136/136
f  141/141/141 136/136/136 143/143/143
f  144/144/144 145/145/145 146/146/146
f  147/147/147 146/146/146 145/145/145
f  148/148/148 146/146/146 147/147/147
f  149/149/149 146/146/146 148/148/148
f  150/150/150 146/146/146 149/149/149
f  151/151/151 146/146/146 150/150/150
f  152/152/152 146/146/146 151/151/151
f  146/146/146 152/152/152 153/153/153
f  154/154/154 153/153/153 152/152/152
f  155/155/155 153/153/153 154/154/154
f  153/153/153 155/155/155 146/146/146
f  156/156/156 146/146/146 155/155/155
f  157/157/157 146/146/146 156/156/156
f  158/158/158 146/146/146 157/157/157
f  159/159/159 146/146/146 158/158/158
f  146/146/146 159/159/159 144/144/144
f  160/160/160 161/161/161 162/162/162
f  163/163/163 162/162/162 161/161/161
f  162/162/162 163/163/163 164/164/164
f  165/165/165 164/164/164 163/163/163
f  164/164/164 165/165/165 166/166/166
f  167/167/167 166/166/166 165/165/165
f  166/166/166 167/167/167 168/168/168
f  169/169/169 168/168/168 167/167/167
f  168/168/168 169/169/169 170/170/170
f  170/170/170 169/169/169 171/171/171
f  172/172/172 171/171/171 169/169/169
f  171/171/171 172/172/172 173/173/173
f  174/174/174 173/173/173 172/172/172
f  173/173/173 174/174/174 175/175/175
f  176/176/176 175/175/175 174/174/174
f  175/175/175 176/176/176 177/177/177
f  178/178/178 177/177/177 176/176/176
f  177/177/177 178/178/178 179/179/179

g
