# Noesis .obj export.
#
mtllib k1234.mtl
g
v  -0.035041 0.373967 0.157385
v  -0.055583 0.350933 0.187647
v  -0.043195 0.350692 0.192588
v  -0.066899 0.330155 0.202247
v  -0.054085 0.324534 0.214681
v  -0.068575 0.296903 0.231034
v  -0.077678 0.309383 0.210988
v  -0.093082 0.288111 0.225247
v  -0.088904 0.320278 0.198370
v  -0.104113 0.301901 0.207049
v  -0.103377 0.334404 0.178636
v  -0.115647 0.318473 0.185854
v  -0.128104 0.334868 0.163852
v  -0.119824 0.347187 0.158526
v  -0.147227 0.361935 0.133626
v  -0.125708 0.259236 0.247488
v  -0.108324 0.264363 0.249974
v  -0.113777 0.268125 0.240784
v  -0.102186 0.276503 0.233409
v  -0.093972 0.270464 0.249185
v  -0.085645 0.275457 0.244288
v  -0.080197 0.270645 0.252798
v  -0.063063 0.288620 0.243469
v  -0.072797 0.264385 0.264000
v  -0.058903 0.277144 0.257488
v  -0.056805 0.268905 0.271624
v  -0.066374 0.259767 0.275451
v  -0.055537 0.257708 0.289881

vt  0.015882 -0.058020 0.000000
vt  0.114802 -0.187456 0.000000
vt  0.160819 -0.125545 0.000000
vt  0.214470 -0.301126 0.000000
vt  0.306649 -0.205173 0.000000
vt  0.489477 -0.303049 0.000000
vt  0.331744 -0.453863 0.000000
vt  0.528531 -0.609931 0.000000
vt  0.241264 -0.616637 0.000000
vt  0.377935 -0.718674 0.000000
vt  0.156289 -0.748226 0.000000
vt  0.255535 -0.822000 0.000000
vt  0.147220 -0.903600 0.000000
vt  0.090269 -0.856373 0.000000
vt  0.024933 -0.977198 0.000000
vt  0.885537 -0.787278 0.000000
vt  0.835300 -0.695889 0.000000
vt  0.791322 -0.746384 0.000000
vt  0.687042 -0.689490 0.000000
vt  0.761909 -0.596076 0.000000
vt  0.666809 -0.464458 0.000000
vt  0.760234 -0.320417 0.000000
vt  0.659108 -0.202302 0.000000
vt  0.849871 -0.204895 0.000000
vt  0.782125 -0.120312 0.000000
vt  0.871266 -0.064375 0.000000
vt  0.914049 -0.117833 0.000000
vt  0.984236 -0.014897 0.000000

vn  -0.187545 0.838786 0.511140
vn  -0.236471 0.740586 0.628979
vn  -0.243871 0.754485 0.609327
vn  -0.380320 0.644099 0.663696
vn  -0.370657 0.641248 0.671874
vn  -0.412142 0.665528 0.622263
vn  -0.402464 0.625422 0.668483
vn  -0.360013 0.681760 0.636863
vn  -0.320279 0.628015 0.709238
vn  -0.362357 0.622298 0.693860
vn  -0.388241 0.609028 0.691631
vn  -0.391239 0.612526 0.686836
vn  -0.392055 0.583561 0.711161
vn  -0.385412 0.572058 0.724022
vn  -0.366636 0.565738 0.738592
vn  -0.309547 0.801424 0.511762
vn  -0.303967 0.812587 0.497298
vn  -0.290693 0.812601 0.505151
vn  -0.317251 0.781562 0.537134
vn  -0.282775 0.837398 0.467765
vn  -0.345519 0.735652 0.582609
vn  -0.374350 0.683183 0.626995
vn  -0.367173 0.684101 0.630230
vn  -0.410046 0.708321 0.574582
vn  -0.364868 0.706716 0.606155
vn  -0.467359 0.726176 0.504227
vn  -0.478661 0.714813 0.509830
vn  -0.499075 0.722838 0.477943

g k1234
usemtl k1234_3
f  1/1/1 2/2/2 3/3/3
f  4/4/4 3/3/3 2/2/2
f  3/3/3 4/4/4 5/5/5
f  5/5/5 4/4/4 6/6/6
f  7/7/7 6/6/6 4/4/4
f  6/6/6 7/7/7 8/8/8
f  9/9/9 8/8/8 7/7/7
f  8/8/8 9/9/9 10/10/10
f  11/11/11 10/10/10 9/9/9
f  10/10/10 11/11/11 12/12/12
f  12/12/12 11/11/11 13/13/13
f  14/14/14 13/13/13 11/11/11
f  13/13/13 14/14/14 15/15/15
f  16/16/16 17/17/17 18/18/18
f  18/18/18 17/17/17 19/19/19
f  20/20/20 19/19/19 17/17/17
f  21/21/21 19/19/19 20/20/20
f  19/19/19 21/21/21 8/8/8
f  8/8/8 21/21/21 6/6/6
f  22/22/22 6/6/6 21/21/21
f  6/6/6 22/22/22 23/23/23
f  24/24/24 23/23/23 22/22/22
f  23/23/23 24/24/24 25/25/25
f  25/25/25 24/24/24 26/26/26
f  27/27/27 26/26/26 24/24/24
f  26/26/26 27/27/27 28/28/28

g
