# Noesis .obj export.
#
mtllib k1239.mtl
g
v  -0.236117 0.452848 0.000002
v  -0.212146 0.426160 -0.062341
v  -0.200548 0.450881 0.000001
v  -0.212146 0.426160 0.062341
v  -0.236117 0.452848 0.000002
v  -0.200548 0.450881 0.000001
v  0.375474 0.137600 0.000067
v  0.355444 0.113987 -0.083340
v  0.358272 0.113275 0.000066
v  0.355444 0.113987 -0.083340
v  0.375474 0.137600 0.000067
v  0.371256 0.136781 -0.082115
v  0.375474 0.137600 0.000067
v  0.355445 0.113987 0.083473
v  0.371256 0.136780 0.082248
v  0.355445 0.113987 0.083473
v  0.375474 0.137600 0.000067
v  0.358272 0.113275 0.000066
v  -0.247378 0.453712 -0.022881
v  -0.220615 0.446778 -0.000097
v  -0.218400 0.437566 -0.000092
v  -0.337771 0.504079 -0.012724
v  -0.333921 0.509912 -0.009900
v  -0.306625 0.486725 -0.020836
v  -0.302927 0.492642 -0.016196
v  -0.282803 0.473451 -0.010731
v  -0.279221 0.479433 -0.007711
v  -0.269629 0.466111 -0.011679
v  -0.266024 0.472080 -0.008390
v  -0.243498 0.459529 -0.017783
v  -0.239125 0.467378 -0.000097
v  -0.264242 0.475278 -0.000101
v  -0.277439 0.482631 -0.000101
v  -0.299008 0.499675 -0.000097
v  -0.332139 0.513110 -0.000097
v  -0.396019 0.536535 0.019884
v  -0.400078 0.546775 0.019628
v  -0.402976 0.540412 0.025325
v  -0.332139 0.513110 -0.000097
v  -0.352913 0.524686 -0.000097
v  -0.333921 0.509912 0.009706
v  -0.354695 0.521488 0.008303
v  -0.337771 0.504079 0.012540
v  -0.358530 0.515646 0.010732
v  -0.381031 0.536162 0.012527
v  -0.384370 0.530044 0.016176
v  -0.392586 0.542601 0.015405
v  -0.394855 0.556796 -0.000097
v  -0.439915 0.568973 -0.000097
v  -0.450127 0.566684 -0.000092
v  -0.379006 0.539797 -0.000097
v  -0.388962 0.549428 -0.000097
v  -0.379006 0.539797 -0.000097
v  -0.392586 0.542601 -0.015600
v  -0.388962 0.549428 -0.000097
v  -0.394855 0.556796 -0.000097
v  -0.400078 0.546775 -0.019822
v  -0.439915 0.568973 -0.000097
v  -0.450127 0.566684 -0.000092
v  -0.402976 0.540412 -0.025508
v  -0.396019 0.536535 -0.020068
v  -0.381031 0.536162 -0.012722
v  -0.354695 0.521488 -0.008497
v  -0.352913 0.524686 -0.000097
v  -0.333921 0.509912 -0.009900
v  -0.332139 0.513110 -0.000097
v  -0.337771 0.504079 -0.012724
v  -0.358530 0.515646 -0.010916
v  -0.384370 0.530044 -0.016360
v  -0.297149 0.482083 0.006350
v  -0.296979 0.488400 0.016518
v  -0.258948 0.456229 0.045126
v  -0.269487 0.468760 0.050952
v  -0.292007 0.464919 0.123315
v  -0.295116 0.474519 0.112583
v  -0.312101 0.496240 0.075670
v  -0.074562 0.207896 -0.328810
v  -0.044518 0.227881 -0.327145
v  -0.184404 0.320447 -0.241691
v  -0.144236 0.328276 -0.242840
v  -0.246657 0.394302 -0.131499
v  -0.207701 0.394213 -0.132798
v  -0.255652 0.459666 0.000067
v  0.102252 0.160038 -0.332282
v  0.085534 0.136677 -0.334634
v  0.102252 0.160038 -0.332282
v  -0.044518 0.227881 -0.327145
v  -0.144236 0.328276 -0.242840
v  -0.207701 0.394213 -0.132798
v  -0.213703 0.453057 0.000067
v  -0.207701 0.394213 0.132932
v  -0.246657 0.394302 0.131633
v  -0.144236 0.328276 0.242974
v  -0.184404 0.320447 0.241825
v  -0.044518 0.227881 0.327279
v  -0.074561 0.207896 0.328944
v  0.102252 0.160038 0.332415
v  0.085534 0.136677 0.334767
v  -0.207701 0.394213 0.132932
v  -0.144236 0.328276 0.242974
v  -0.044518 0.227881 0.327279
v  0.102252 0.160038 0.332415
v  -0.297149 0.482083 0.006350
v  -0.258948 0.456229 0.045126
v  -0.296979 0.488400 0.016518
v  -0.269487 0.468760 0.050952
v  -0.312101 0.496240 0.075670
v  -0.295116 0.474519 0.112583
v  -0.292007 0.464919 0.123315
v  -0.297149 0.482083 -0.005401
v  -0.296979 0.488400 -0.015569
v  -0.258948 0.456229 -0.044177
v  -0.269487 0.468760 -0.050003
v  -0.292007 0.464919 -0.122366
v  -0.295116 0.474519 -0.111634
v  -0.312101 0.496240 -0.074720
v  -0.297149 0.482083 -0.005401
v  -0.258948 0.456229 -0.044177
v  -0.296979 0.488400 -0.015569
v  -0.269487 0.468760 -0.050003
v  -0.312101 0.496240 -0.074720
v  -0.295116 0.474519 -0.111634
v  -0.292007 0.464919 -0.122366
v  0.102252 0.160038 -0.332282
v  0.085534 0.136677 -0.334634
v  0.278888 0.144683 -0.258199
v  0.269507 0.121823 -0.258763
v  0.344330 0.137376 -0.167647
v  0.335660 0.113752 -0.167191
v  0.371256 0.136781 -0.082115
v  0.355444 0.113987 -0.083340
v  0.278888 0.144683 -0.258199
v  0.102252 0.160038 -0.332282
v  0.344330 0.137376 -0.167647
v  0.371256 0.136781 -0.082115
v  0.375474 0.137600 0.000067
v  0.358272 0.113275 0.000066
v  0.355445 0.113987 0.083473
v  0.371256 0.136780 0.082248
v  0.335661 0.113752 0.167324
v  0.344330 0.137376 0.167780
v  0.269507 0.121823 0.258895
v  0.278889 0.144683 0.258332
v  0.085534 0.136677 0.334767
v  0.102252 0.160038 0.332415
v  0.371256 0.136780 0.082248
v  0.344330 0.137376 0.167780
v  0.278889 0.144683 0.258332
v  0.102252 0.160038 0.332415
v  -0.243498 0.459529 0.017588
v  -0.266024 0.472080 0.008195
v  -0.247378 0.453712 0.022696
v  -0.269629 0.466111 0.011495
v  -0.279221 0.479433 0.007516
v  -0.282803 0.473451 0.010547
v  -0.302927 0.492643 0.016001
v  -0.306625 0.486725 0.020652
v  -0.337771 0.504079 0.012540
v  -0.333921 0.509912 0.009706
v  -0.332139 0.513110 -0.000097
v  -0.299008 0.499675 -0.000097
v  -0.277439 0.482631 -0.000101
v  -0.264242 0.475278 -0.000101
v  -0.239125 0.467378 -0.000097
v  -0.220615 0.446778 -0.000097
v  -0.218400 0.437566 -0.000092
v  -0.247378 0.453712 0.022696
v  -0.269629 0.466111 0.011495
v  -0.218400 0.437566 -0.000092
v  -0.276230 0.469789 -0.000087
v  -0.282803 0.473451 0.010547
v  -0.306625 0.486725 0.020652
v  -0.306370 0.486582 -0.000087
v  -0.337771 0.504079 0.012540
v  -0.348363 0.509981 -0.000087
v  -0.358530 0.515646 0.010732
v  -0.384370 0.530044 0.016176
v  -0.384454 0.530091 -0.000087
v  -0.247378 0.453712 -0.022881
v  -0.269629 0.466111 -0.011679
v  -0.282803 0.473451 -0.010731
v  -0.306625 0.486725 -0.020836
v  -0.337771 0.504079 -0.012724
v  -0.358530 0.515646 -0.010916
v  -0.384370 0.530044 -0.016360
v  -0.399383 0.538410 -0.000087
v  -0.396019 0.536535 0.019884
v  -0.402976 0.540412 0.025325
v  -0.450127 0.566684 -0.000092
v  -0.402976 0.540412 -0.025508
v  -0.396019 0.536535 -0.020068

vt  0.635577 -0.966398 0.000000
vt  0.757689 -0.898397 0.000000
vt  0.622603 -0.936961 0.000000
vt  0.757689 -0.898397 0.000000
vt  0.635577 -0.966398 0.000000
vt  0.622603 -0.936961 0.000000
vt  0.964851 -0.660775 0.000000
vt  0.873757 -0.777039 0.000000
vt  0.980338 -0.688510 0.000000
vt  0.873757 -0.777039 0.000000
vt  0.964851 -0.660775 0.000000
vt  0.858437 -0.749241 0.000000
vt  0.964851 -0.660775 0.000000
vt  0.873757 -0.777039 0.000000
vt  0.858437 -0.749241 0.000000
vt  0.873757 -0.777039 0.000000
vt  0.964851 -0.660775 0.000000
vt  0.980338 -0.688510 0.000000
vt  0.796889 -0.147769 0.000000
vt  0.668730 -0.044167 0.000000
vt  0.701114 -0.018056 0.000000
vt  0.768853 -0.630552 0.000000
vt  0.733886 -0.628697 0.000000
vt  0.811739 -0.485993 0.000000
vt  0.741966 -0.479245 0.000000
vt  0.813796 -0.352799 0.000000
vt  0.730078 -0.353561 0.000000
vt  0.810528 -0.272385 0.000000
vt  0.727873 -0.276984 0.000000
vt  0.732008 -0.157688 0.000000
vt  0.628598 -0.151835 0.000000
vt  0.639013 -0.274314 0.000000
vt  0.642090 -0.356830 0.000000
vt  0.643175 -0.484995 0.000000
vt  0.686793 -0.626058 0.000000
vt  0.270139 -0.788604 0.000000
vt  0.220993 -0.711595 0.000000
vt  0.217040 -0.787962 0.000000
vt  0.571399 -0.658303 0.000000
vt  0.475460 -0.633996 0.000000
vt  0.571278 -0.703584 0.000000
vt  0.470907 -0.700796 0.000000
vt  0.572790 -0.737423 0.000000
vt  0.476156 -0.760098 0.000000
vt  0.340229 -0.705263 0.000000
vt  0.343016 -0.783005 0.000000
vt  0.271809 -0.709084 0.000000
vt  0.214882 -0.587070 0.000000
vt  0.031861 -0.641584 0.000000
vt  0.003701 -0.679201 0.000000
vt  0.342288 -0.606245 0.000000
vt  0.268549 -0.595105 0.000000
vt  0.335742 -0.803273 0.000000
vt  0.274495 -0.911865 0.000000
vt  0.261313 -0.798603 0.000000
vt  0.207150 -0.795276 0.000000
vt  0.224091 -0.918795 0.000000
vt  0.029577 -0.865534 0.000000
vt  0.004803 -0.905462 0.000000
vt  0.226809 -0.995215 0.000000
vt  0.279762 -0.991227 0.000000
vt  0.342321 -0.902095 0.000000
vt  0.472113 -0.886255 0.000000
vt  0.470827 -0.819312 0.000000
vt  0.572345 -0.880285 0.000000
vt  0.568519 -0.835165 0.000000
vt  0.576800 -0.913863 0.000000
vt  0.482510 -0.944873 0.000000
vt  0.351873 -0.979298 0.000000
vt  0.032306 -0.403831 0.000000
vt  0.088994 -0.404371 0.000000
vt  0.139928 -0.102789 0.000000
vt  0.176987 -0.187931 0.000000
vt  0.593960 -0.130416 0.000000
vt  0.559516 -0.188961 0.000000
vt  0.424064 -0.391005 0.000000
vt  0.926201 -0.836390 0.000000
vt  0.912575 -0.807788 0.000000
vt  0.848463 -0.889460 0.000000
vt  0.834874 -0.860771 0.000000
vt  0.771177 -0.927269 0.000000
vt  0.757689 -0.898397 0.000000
vt  0.635577 -0.966398 0.000000
vt  0.983196 -0.739923 0.000000
vt  0.996820 -0.768531 0.000000
vt  0.983196 -0.739923 0.000000
vt  0.912575 -0.807788 0.000000
vt  0.834874 -0.860771 0.000000
vt  0.757689 -0.898397 0.000000
vt  0.622603 -0.936961 0.000000
vt  0.757689 -0.898397 0.000000
vt  0.771177 -0.927269 0.000000
vt  0.834874 -0.860771 0.000000
vt  0.848463 -0.889460 0.000000
vt  0.912575 -0.807788 0.000000
vt  0.926201 -0.836390 0.000000
vt  0.983196 -0.739923 0.000000
vt  0.996820 -0.768531 0.000000
vt  0.757689 -0.898397 0.000000
vt  0.834874 -0.860771 0.000000
vt  0.912575 -0.807788 0.000000
vt  0.983196 -0.739923 0.000000
vt  0.032306 -0.403831 0.000000
vt  0.139928 -0.102789 0.000000
vt  0.088994 -0.404371 0.000000
vt  0.176987 -0.187931 0.000000
vt  0.424064 -0.391005 0.000000
vt  0.559516 -0.188961 0.000000
vt  0.593960 -0.130416 0.000000
vt  0.032306 -0.403831 0.000000
vt  0.088994 -0.404371 0.000000
vt  0.139928 -0.102789 0.000000
vt  0.176987 -0.187931 0.000000
vt  0.593960 -0.130416 0.000000
vt  0.559516 -0.188961 0.000000
vt  0.424064 -0.391005 0.000000
vt  0.032306 -0.403831 0.000000
vt  0.139928 -0.102789 0.000000
vt  0.088994 -0.404371 0.000000
vt  0.176987 -0.187931 0.000000
vt  0.424064 -0.391005 0.000000
vt  0.559516 -0.188961 0.000000
vt  0.593960 -0.130416 0.000000
vt  0.597929 -0.849133 0.000000
vt  0.613152 -0.876986 0.000000
vt  0.692869 -0.830765 0.000000
vt  0.707974 -0.858616 0.000000
vt  0.778548 -0.794953 0.000000
vt  0.793618 -0.822807 0.000000
vt  0.858437 -0.749241 0.000000
vt  0.873757 -0.777039 0.000000
vt  0.692869 -0.830765 0.000000
vt  0.597929 -0.849133 0.000000
vt  0.778548 -0.794953 0.000000
vt  0.858437 -0.749241 0.000000
vt  0.964851 -0.660775 0.000000
vt  0.980338 -0.688510 0.000000
vt  0.873757 -0.777039 0.000000
vt  0.858437 -0.749241 0.000000
vt  0.793618 -0.822807 0.000000
vt  0.778548 -0.794953 0.000000
vt  0.707974 -0.858616 0.000000
vt  0.692869 -0.830765 0.000000
vt  0.613152 -0.876986 0.000000
vt  0.597929 -0.849133 0.000000
vt  0.858437 -0.749241 0.000000
vt  0.778548 -0.794953 0.000000
vt  0.692869 -0.830765 0.000000
vt  0.597929 -0.849133 0.000000
vt  0.909862 -0.164243 0.000000
vt  0.905726 -0.283539 0.000000
vt  0.974742 -0.154324 0.000000
vt  0.988380 -0.278939 0.000000
vt  0.907931 -0.360116 0.000000
vt  0.991649 -0.359353 0.000000
vt  0.919819 -0.485800 0.000000
vt  0.989592 -0.492548 0.000000
vt  0.946706 -0.637107 0.000000
vt  0.911739 -0.635251 0.000000
vt  0.864646 -0.632613 0.000000
vt  0.821028 -0.491550 0.000000
vt  0.819943 -0.363385 0.000000
vt  0.816866 -0.280869 0.000000
vt  0.806451 -0.158390 0.000000
vt  0.846582 -0.050722 0.000000
vt  0.878967 -0.024610 0.000000
vt  0.053632 -0.568758 0.000000
vt  0.118577 -0.516234 0.000000
vt  0.025380 -0.423264 0.000000
vt  0.146543 -0.451139 0.000000
vt  0.154138 -0.515439 0.000000
vt  0.208913 -0.579189 0.000000
vt  0.215616 -0.456846 0.000000
vt  0.287298 -0.534202 0.000000
vt  0.312568 -0.458723 0.000000
vt  0.341183 -0.521557 0.000000
vt  0.407300 -0.545037 0.000000
vt  0.396130 -0.449605 0.000000
vt  0.053632 -0.568758 0.000000
vt  0.118577 -0.516234 0.000000
vt  0.154138 -0.515439 0.000000
vt  0.208913 -0.579189 0.000000
vt  0.287298 -0.534202 0.000000
vt  0.341183 -0.521557 0.000000
vt  0.407300 -0.545037 0.000000
vt  0.433541 -0.441676 0.000000
vt  0.439024 -0.560805 0.000000
vt  0.459696 -0.588862 0.000000
vt  0.543574 -0.427498 0.000000
vt  0.459696 -0.588862 0.000000
vt  0.439024 -0.560805 0.000000

vn  -0.051163 -0.925069 0.376337
vn  -0.051163 -0.925069 0.376337
vn  -0.051163 -0.925069 0.376337
vn  -0.051180 -0.925062 -0.376353
vn  -0.051180 -0.925062 -0.376353
vn  -0.051180 -0.925062 -0.376353
vn  -0.816038 0.577078 0.032596
vn  -0.816038 0.577078 0.032596
vn  -0.816038 0.577078 0.032596
vn  -0.822025 0.568280 0.036524
vn  -0.822025 0.568280 0.036524
vn  -0.822025 0.568280 0.036524
vn  -0.822028 0.568275 -0.036521
vn  -0.822028 0.568275 -0.036521
vn  -0.822028 0.568275 -0.036521
vn  -0.816038 0.577078 -0.032591
vn  -0.816038 0.577078 -0.032591
vn  -0.816038 0.577078 -0.032591
vn  -0.114955 -0.366851 -0.923150
vn  0.928264 0.371923 -0.000337
vn  0.693918 -0.720054 0.000184
vn  -0.382055 -0.448106 -0.808230
vn  0.278335 0.678800 -0.679530
vn  -0.147929 -0.400393 -0.904324
vn  0.402648 0.607597 -0.684617
vn  -0.199561 -0.577184 -0.791855
vn  0.424258 0.576306 -0.698481
vn  -0.454089 -0.418554 -0.786521
vn  0.232455 0.710533 -0.664159
vn  0.443404 0.582002 -0.681664
vn  0.537461 0.843288 0.000020
vn  0.405718 0.913998 -0.000164
vn  0.550735 0.834680 -0.000229
vn  0.500581 0.865690 -0.000000
vn  0.450043 0.893007 -0.000001
vn  0.029721 -0.621070 0.783192
vn  0.382918 0.620378 0.684474
vn  -0.092255 -0.346505 0.933500
vn  0.450043 0.893007 -0.000001
vn  0.485743 0.874102 -0.000001
vn  0.278604 0.679143 0.679077
vn  0.352122 0.603451 0.715442
vn  -0.381848 -0.447609 0.808602
vn  -0.268006 -0.546985 0.793083
vn  0.485475 0.603679 0.632365
vn  -0.091244 -0.559091 0.824070
vn  0.576496 0.517962 0.631956
vn  0.528373 0.849012 -0.000000
vn  -0.095493 0.995430 -0.000428
vn  -0.967673 0.252207 0.000175
vn  0.580785 0.814057 -0.000001
vn  0.743838 0.668361 -0.000000
vn  0.580785 0.814057 -0.000001
vn  0.576440 0.517598 -0.632305
vn  0.743838 0.668361 -0.000000
vn  0.528373 0.849012 -0.000000
vn  0.382749 0.620055 -0.684861
vn  -0.095493 0.995430 -0.000428
vn  -0.967673 0.252207 0.000175
vn  -0.092416 -0.346820 -0.933368
vn  0.029361 -0.621392 -0.782949
vn  0.485377 0.603305 -0.632797
vn  0.351899 0.603033 -0.715904
vn  0.485743 0.874102 -0.000001
vn  0.278335 0.678800 -0.679530
vn  0.450043 0.893007 -0.000001
vn  -0.382055 -0.448106 -0.808230
vn  -0.268291 -0.547455 -0.792662
vn  -0.091559 -0.559492 -0.823763
vn  0.745463 0.560546 -0.360656
vn  0.696127 0.685222 -0.214191
vn  0.779602 0.626170 0.011474
vn  0.717169 0.693222 0.071493
vn  0.784998 0.555712 0.273792
vn  0.733584 0.633572 0.245848
vn  0.587691 0.799473 0.124345
vn  0.316733 0.701883 0.637998
vn  0.092672 -0.235917 0.967344
vn  0.087372 -0.728257 -0.679712
vn  0.137193 -0.649327 0.748032
vn  0.012062 0.992676 0.120204
vn  0.014440 -0.869949 0.492931
vn  0.155625 0.987816 0.000001
vn  -0.229764 0.067642 0.970893
vn  0.353347 0.524661 0.774517
vn  0.229764 -0.067642 -0.970893
vn  -0.092672 0.235917 -0.967344
vn  -0.137193 0.649327 -0.748032
vn  -0.002292 0.873946 -0.486018
vn  0.155625 0.987816 -0.000000
vn  -0.002289 0.873946 0.486017
vn  -0.054549 -0.952250 0.300409
vn  -0.137190 0.649330 0.748031
vn  -0.125267 -0.945458 -0.300694
vn  -0.092669 0.235918 0.967344
vn  -0.105617 0.969778 0.219944
vn  0.229766 -0.067640 0.970893
vn  0.966796 -0.087656 0.240047
vn  0.014437 -0.869949 -0.492930
vn  0.137190 -0.649330 -0.748031
vn  0.092669 -0.235918 -0.967344
vn  -0.229766 0.067640 -0.970893
vn  -0.745463 -0.560546 0.360656
vn  -0.779602 -0.626170 -0.011474
vn  -0.696127 -0.685222 0.214191
vn  -0.717169 -0.693222 -0.071493
vn  -0.587691 -0.799473 -0.124345
vn  -0.733584 -0.633572 -0.245848
vn  -0.784998 -0.555712 -0.273792
vn  -0.745464 -0.560545 -0.360656
vn  -0.696128 -0.685221 -0.214191
vn  -0.779603 -0.626170 0.011475
vn  -0.717169 -0.693222 0.071494
vn  -0.784998 -0.555713 0.273793
vn  -0.733583 -0.633572 0.245848
vn  -0.587691 -0.799473 0.124345
vn  0.745464 0.560545 0.360656
vn  0.779602 0.626170 -0.011475
vn  0.696128 0.685221 0.214191
vn  0.717169 0.693222 -0.071494
vn  0.587691 0.799473 -0.124345
vn  0.733583 0.633572 -0.245848
vn  0.784998 0.555713 -0.273793
vn  -0.229764 0.067642 0.970893
vn  0.353347 0.524661 0.774517
vn  -0.619023 0.237343 0.748652
vn  0.103139 -0.345271 -0.932819
vn  -0.846128 0.319264 0.426776
vn  0.677095 0.283330 -0.679166
vn  -0.832531 0.512830 0.209517
vn  0.820684 -0.570270 -0.035639
vn  0.619023 -0.237343 -0.748652
vn  0.229764 -0.067642 -0.970893
vn  0.846128 -0.319264 -0.426776
vn  0.830184 -0.545461 -0.115179
vn  0.817739 -0.575590 -0.000002
vn  0.816472 -0.577385 -0.000003
vn  0.820687 -0.570266 0.035636
vn  0.830187 -0.545457 0.115178
vn  0.420731 -0.446124 -0.789911
vn  0.846128 -0.319267 0.426775
vn  0.926274 -0.148734 -0.346257
vn  0.619022 -0.237349 0.748650
vn  0.966796 -0.087656 0.240047
vn  0.229766 -0.067640 0.970893
vn  -0.832533 0.512828 -0.209516
vn  -0.846128 0.319267 -0.426775
vn  -0.619022 0.237349 -0.748650
vn  -0.229766 0.067640 -0.970893
vn  0.443549 0.582382 0.681246
vn  0.232827 0.710927 0.663607
vn  -0.114758 -0.366513 0.923309
vn  -0.453940 -0.418050 0.786875
vn  0.424515 0.576795 0.697922
vn  -0.199240 -0.576754 0.792249
vn  0.402810 0.607954 0.684204
vn  -0.147708 -0.400016 0.904527
vn  -0.381848 -0.447609 0.808602
vn  0.278604 0.679143 0.679077
vn  0.450043 0.893007 -0.000001
vn  0.500581 0.865690 -0.000000
vn  0.550735 0.834680 -0.000229
vn  0.405718 0.913998 -0.000164
vn  0.537461 0.843288 0.000020
vn  0.928264 0.371923 -0.000337
vn  0.693918 -0.720054 0.000184
vn  -0.114758 -0.366513 0.923309
vn  -0.453940 -0.418050 0.786875
vn  0.693918 -0.720054 0.000184
vn  -0.486740 -0.873547 0.000001
vn  -0.199240 -0.576754 0.792249
vn  -0.147708 -0.400016 0.904527
vn  -0.486740 -0.873547 0.000000
vn  -0.381848 -0.447609 0.808602
vn  -0.486740 -0.873547 0.000001
vn  -0.268006 -0.546985 0.793083
vn  -0.091244 -0.559091 0.824070
vn  -0.486740 -0.873547 0.000001
vn  -0.114955 -0.366851 -0.923150
vn  -0.454089 -0.418554 -0.786521
vn  -0.199561 -0.577184 -0.791855
vn  -0.147929 -0.400393 -0.904324
vn  -0.382055 -0.448106 -0.808230
vn  -0.268291 -0.547455 -0.792662
vn  -0.091559 -0.559492 -0.823763
vn  -0.486741 -0.873547 0.000000
vn  0.029721 -0.621070 0.783192
vn  -0.092255 -0.346505 0.933500
vn  -0.967673 0.252207 0.000175
vn  -0.092416 -0.346820 -0.933368
vn  0.029361 -0.621392 -0.782949

g K1239
usemtl mesh1material
f  1/1/1 2/2/2 3/3/3
f  4/4/4 5/5/5 6/6/6
f  7/7/7 8/8/8 9/9/9
f  10/10/10 11/11/11 12/12/12
f  13/13/13 14/14/14 15/15/15
f  16/16/16 17/17/17 18/18/18
f  19/19/19 20/20/20 21/21/21
f  22/22/22 23/23/23 24/24/24
f  25/25/25 24/24/24 23/23/23
f  24/24/24 25/25/25 26/26/26
f  27/27/27 26/26/26 25/25/25
f  26/26/26 27/27/27 28/28/28
f  29/29/29 28/28/28 27/27/27
f  28/28/28 29/29/29 19/19/19
f  30/30/30 19/19/19 29/29/29
f  19/19/19 30/30/30 20/20/20
f  20/20/20 30/30/30 31/31/31
f  31/31/31 30/30/30 32/32/32
f  29/29/29 32/32/32 30/30/30
f  32/32/32 29/29/29 33/33/33
f  27/27/27 33/33/33 29/29/29
f  33/33/33 27/27/27 34/34/34
f  25/25/25 34/34/34 27/27/27
f  34/34/34 25/25/25 35/35/35
f  23/23/23 35/35/35 25/25/25
f  36/36/36 37/37/37 38/38/38
f  39/39/39 40/40/40 41/41/41
f  42/42/42 41/41/41 40/40/40
f  41/41/41 42/42/42 43/43/43
f  43/43/43 42/42/42 44/44/44
f  45/45/45 44/44/44 42/42/42
f  44/44/44 45/45/45 46/46/46
f  46/46/46 45/45/45 36/36/36
f  47/47/47 36/36/36 45/45/45
f  36/36/36 47/47/47 37/37/37
f  48/48/48 37/37/37 47/47/47
f  49/49/49 37/37/37 48/48/48
f  37/37/37 49/49/49 38/38/38
f  50/50/50 38/38/38 49/49/49
f  40/40/40 51/51/51 42/42/42
f  42/42/42 51/51/51 45/45/45
f  45/45/45 51/51/51 47/47/47
f  52/52/52 47/47/47 51/51/51
f  47/47/47 52/52/52 48/48/48
f  53/53/53 54/54/54 55/55/55
f  55/55/55 54/54/54 56/56/56
f  57/57/57 56/56/56 54/54/54
f  56/56/56 57/57/57 58/58/58
f  59/59/59 58/58/58 60/60/60
f  57/57/57 60/60/60 58/58/58
f  60/60/60 57/57/57 61/61/61
f  54/54/54 61/61/61 57/57/57
f  61/61/61 54/54/54 62/62/62
f  53/53/53 62/62/62 54/54/54
f  62/62/62 53/53/53 63/63/63
f  64/64/64 63/63/63 53/53/53
f  63/63/63 64/64/64 65/65/65
f  66/66/66 65/65/65 64/64/64
f  65/65/65 67/67/67 63/63/63
f  68/68/68 63/63/63 67/67/67
f  63/63/63 68/68/68 62/62/62
f  69/69/69 62/62/62 68/68/68
f  62/62/62 69/69/69 61/61/61
f  70/70/70 71/71/71 72/72/72
f  73/73/73 72/72/72 71/71/71
f  72/72/72 73/73/73 74/74/74
f  74/74/74 73/73/73 75/75/75
f  75/75/75 73/73/73 76/76/76
f  71/71/71 76/76/76 73/73/73
f  77/77/77 78/78/78 79/79/79
f  80/80/80 79/79/79 78/78/78
f  79/79/79 80/80/80 81/81/81
f  82/82/82 81/81/81 80/80/80
f  81/81/81 82/82/82 83/83/83
f  77/77/77 84/84/84 78/78/78
f  84/84/84 77/77/77 85/85/85
f  85/85/85 77/77/77 86/86/86
f  86/86/86 77/77/77 87/87/87
f  79/79/79 87/87/87 77/77/77
f  87/87/87 79/79/79 88/88/88
f  81/81/81 88/88/88 79/79/79
f  88/88/88 81/81/81 89/89/89
f  83/83/83 89/89/89 81/81/81
f  89/89/89 83/83/83 90/90/90
f  90/90/90 83/83/83 91/91/91
f  92/92/92 91/91/91 83/83/83
f  91/91/91 92/92/92 93/93/93
f  94/94/94 93/93/93 92/92/92
f  93/93/93 94/94/94 95/95/95
f  96/96/96 95/95/95 94/94/94
f  95/95/95 96/96/96 97/97/97
f  98/98/98 97/97/97 96/96/96
f  83/83/83 99/99/99 92/92/92
f  100/100/100 92/92/92 99/99/99
f  92/92/92 100/100/100 94/94/94
f  101/101/101 94/94/94 100/100/100
f  94/94/94 101/101/101 96/96/96
f  102/102/102 96/96/96 101/101/101
f  96/96/96 102/102/102 98/98/98
f  103/103/103 104/104/104 105/105/105
f  106/106/106 105/105/105 104/104/104
f  105/105/105 106/106/106 107/107/107
f  107/107/107 106/106/106 108/108/108
f  108/108/108 106/106/106 109/109/109
f  104/104/104 109/109/109 106/106/106
f  110/110/110 111/111/111 112/112/112
f  113/113/113 112/112/112 111/111/111
f  112/112/112 113/113/113 114/114/114
f  114/114/114 113/113/113 115/115/115
f  115/115/115 113/113/113 116/116/116
f  111/111/111 116/116/116 113/113/113
f  117/117/117 118/118/118 119/119/119
f  120/120/120 119/119/119 118/118/118
f  119/119/119 120/120/120 121/121/121
f  121/121/121 120/120/120 122/122/122
f  122/122/122 120/120/120 123/123/123
f  118/118/118 123/123/123 120/120/120
f  124/124/124 125/125/125 126/126/126
f  127/127/127 126/126/126 125/125/125
f  126/126/126 127/127/127 128/128/128
f  129/129/129 128/128/128 127/127/127
f  128/128/128 129/129/129 130/130/130
f  131/131/131 130/130/130 129/129/129
f  132/132/132 125/125/125 133/133/133
f  125/125/125 132/132/132 127/127/127
f  134/134/134 127/127/127 132/132/132
f  127/127/127 134/134/134 129/129/129
f  135/135/135 129/129/129 134/134/134
f  129/129/129 135/135/135 131/131/131
f  136/136/136 131/131/131 135/135/135
f  131/131/131 136/136/136 137/137/137
f  137/137/137 136/136/136 138/138/138
f  139/139/139 138/138/138 136/136/136
f  138/138/138 139/139/139 140/140/140
f  141/141/141 140/140/140 139/139/139
f  140/140/140 141/141/141 142/142/142
f  143/143/143 142/142/142 141/141/141
f  142/142/142 143/143/143 144/144/144
f  145/145/145 144/144/144 143/143/143
f  138/138/138 140/140/140 146/146/146
f  146/146/146 140/140/140 147/147/147
f  142/142/142 147/147/147 140/140/140
f  147/147/147 142/142/142 148/148/148
f  144/144/144 148/148/148 142/142/142
f  148/148/148 144/144/144 149/149/149
f  150/150/150 151/151/151 152/152/152
f  152/152/152 151/151/151 153/153/153
f  154/154/154 153/153/153 151/151/151
f  153/153/153 154/154/154 155/155/155
f  156/156/156 155/155/155 154/154/154
f  155/155/155 156/156/156 157/157/157
f  158/158/158 157/157/157 159/159/159
f  156/156/156 159/159/159 157/157/157
f  159/159/159 156/156/156 160/160/160
f  160/160/160 156/156/156 161/161/161
f  154/154/154 161/161/161 156/156/156
f  161/161/161 154/154/154 162/162/162
f  151/151/151 162/162/162 154/154/154
f  162/162/162 151/151/151 163/163/163
f  150/150/150 163/163/163 151/151/151
f  163/163/163 150/150/150 164/164/164
f  164/164/164 150/150/150 165/165/165
f  152/152/152 165/165/165 150/150/150
f  165/165/165 152/152/152 166/166/166
f  167/167/167 168/168/168 169/169/169
f  169/169/169 168/168/168 170/170/170
f  171/171/171 170/170/170 168/168/168
f  172/172/172 170/170/170 171/171/171
f  170/170/170 172/172/172 173/173/173
f  174/174/174 173/173/173 172/172/172
f  173/173/173 174/174/174 175/175/175
f  176/176/176 175/175/175 174/174/174
f  177/177/177 175/175/175 176/176/176
f  175/175/175 177/177/177 178/178/178
f  179/179/179 169/169/169 180/180/180
f  170/170/170 180/180/180 169/169/169
f  180/180/180 170/170/170 181/181/181
f  181/181/181 170/170/170 182/182/182
f  173/173/173 182/182/182 170/170/170
f  182/182/182 173/173/173 183/183/183
f  175/175/175 183/183/183 173/173/173
f  183/183/183 175/175/175 184/184/184
f  184/184/184 175/175/175 185/185/185
f  178/178/178 185/185/185 175/175/175
f  185/185/185 178/178/178 186/186/186
f  177/177/177 186/186/186 178/178/178
f  187/187/187 186/186/186 177/177/177
f  188/188/188 186/186/186 187/187/187
f  189/189/189 186/186/186 188/188/188
f  190/190/190 186/186/186 189/189/189
f  191/191/191 186/186/186 190/190/190
f  186/186/186 191/191/191 185/185/185

g
