# Noesis .obj export.
#
mtllib k1249.mtl
g
v  0.062100 0.403153 0.178586
v  0.061431 0.416905 0.166110
v  0.053580 0.413967 0.167640
v  0.064927 0.412656 0.163670
v  0.057225 0.409667 0.165259
v  0.064927 0.412656 0.163670
v  0.065919 0.399026 0.176415
v  0.065181 0.387415 0.187432
v  0.061179 0.391444 0.189359
v  0.061706 0.377578 0.197063
v  0.057687 0.381519 0.198748
v  0.056208 0.369222 0.204965
v  0.051991 0.373242 0.206475
v  0.050260 0.362246 0.211281
v  0.045898 0.366269 0.212655
v  0.047337 0.380848 0.197846
v  0.042688 0.375725 0.201913
v  0.047255 0.371598 0.200313
v  0.050260 0.362246 0.211281
v  0.047255 0.371598 0.200313
v  0.051871 0.376251 0.196667
v  0.055582 0.381714 0.191644
v  0.051128 0.386398 0.193103
v  0.054126 0.394797 0.185379
v  0.058205 0.390679 0.183378
v  0.054497 0.403452 0.177446
v  0.058390 0.399247 0.175272
v  0.057225 0.409667 0.165259
v  0.047500 0.461012 0.102318
v  0.055811 0.471499 0.085426
v  0.013928 0.475355 0.084611
v  0.024278 0.486939 0.068243
v  0.052972 0.469084 0.082299
v  0.028734 0.479700 0.069923
v  0.013174 0.471910 0.088509
v  -0.021017 0.461371 0.091164
v  -0.020014 0.458777 0.095121
v  -0.037389 0.451426 0.101390
v  -0.035432 0.450207 0.103841
v  -0.050378 0.439844 0.115207
v  -0.047029 0.438621 0.117546
v  -0.054581 0.426087 0.130785
v  -0.051484 0.425518 0.132340
v  -0.051162 0.401862 0.157780
v  -0.054206 0.401597 0.157097
v  -0.040190 0.371892 0.200235
v  -0.043727 0.369821 0.202241
v  0.009987 0.357394 0.213149
v  0.010228 0.339655 0.225833
v  -0.044852 0.346455 0.212402
v  0.005956 0.338959 0.222666
v  -0.029592 0.343341 0.215052
v  -0.047585 0.424229 0.132758
v  -0.047012 0.401441 0.157396
v  -0.035305 0.373323 0.197439
v  0.009963 0.360257 0.210600
v  0.039358 0.364285 0.211796
v  0.040206 0.361403 0.214711
v  0.052802 0.373048 0.204493
v  0.051279 0.375548 0.202253
v  0.058752 0.386751 0.191207
v  0.060996 0.384917 0.192744
v  0.059447 0.405009 0.174167
v  0.062344 0.404375 0.174403
v  0.055944 0.418761 0.150318
v  0.059485 0.418917 0.149668
v  0.045125 0.458534 0.105529
v  0.009696 0.416950 0.160803
v  0.011045 0.362533 0.207328
v  0.039285 0.366621 0.208167
v  0.050423 0.377518 0.199259
v  0.057142 0.388044 0.188862
v  0.057140 0.405074 0.173059
v  0.052899 0.417996 0.149862
v  0.043044 0.455365 0.107528
v  0.012700 0.467721 0.091171
v  -0.018613 0.455416 0.097862
v  -0.032995 0.448226 0.105087
v  -0.043048 0.436654 0.118713
v  0.161491 0.369942 -0.187564
v  0.138272 0.365770 -0.206919
v  0.121989 0.459344 -0.116308
v  0.099379 0.464319 -0.127529
v  0.089209 0.494761 -0.030415
v  0.065146 0.490630 -0.040881
v  0.063875 0.490180 0.044152
v  0.037125 0.492211 0.038133
v  0.052972 0.469084 0.082299
v  0.028734 0.479700 0.069923
v  0.287032 0.029813 0.265570
v  0.287507 0.054200 0.251006
v  0.185522 0.097407 0.315618
v  0.201246 0.120761 0.306350
v  0.095759 0.164132 0.325050
v  0.113440 0.181560 0.316967
v  0.004875 0.270570 0.304881
v  0.030737 0.279308 0.295191
v  -0.029592 0.343341 0.215052
v  0.005956 0.338959 0.222666
v  -0.024623 0.462767 0.091630
v  -0.022388 0.457059 0.088297
v  -0.038184 0.455070 0.099492
v  -0.035525 0.449417 0.096271
v  -0.046639 0.440354 0.106857
v  -0.049842 0.445924 0.109929
v  -0.052102 0.429535 0.120275
v  -0.055979 0.434997 0.123142
v  -0.058771 0.424502 0.135364
v  -0.054198 0.419137 0.132712
v  -0.054236 0.405275 0.148589
v  -0.059799 0.410524 0.150929
v  -0.046813 0.411899 0.149410
v  -0.046747 0.424028 0.136483
v  -0.044494 0.433496 0.125926
v  -0.039790 0.442769 0.114178
v  -0.031893 0.448879 0.107642
v  -0.022461 0.453784 0.102302
v  -0.059799 0.410524 0.150929
v  -0.054236 0.405275 0.148589
v  -0.041724 0.406643 0.147037
v  -0.042415 0.418679 0.133844
v  -0.040740 0.428065 0.123092
v  -0.036570 0.437241 0.111163
v  -0.029043 0.443303 0.104522
v  -0.019903 0.448171 0.099103
v  -0.024623 0.462767 0.091630
v  -0.022388 0.457059 0.088297
v  0.287507 0.054200 0.251006
v  0.287032 0.029813 0.265570
v  0.313249 0.011084 0.170425
v  0.307641 -0.016005 0.178694
v  0.342806 -0.006803 0.069783
v  0.335774 -0.037497 0.069752
v  0.343800 -0.004533 -0.070492
v  0.337493 -0.039777 -0.070527
v  0.318998 0.043178 -0.169964
v  0.316727 0.012181 -0.187061
v  0.275981 0.077405 -0.263361
v  0.286992 0.097795 -0.244770
v  0.240683 0.175058 -0.250636
v  0.214999 0.171281 -0.272999
v  0.181336 0.249384 -0.269794
v  0.206743 0.258892 -0.250183
v  0.138272 0.365770 -0.206919
v  0.161491 0.369942 -0.187564

vt  0.938909 -0.110967 0.000000
vt  0.938909 -0.047921 0.000000
vt  0.892490 -0.047921 0.000000
vt  0.938909 -0.021772 0.000000
vt  0.892490 -0.021772 0.000000
vt  0.981049 -0.047921 0.000000
vt  0.981049 -0.110967 0.000000
vt  0.981049 -0.165239 0.000000
vt  0.938909 -0.165239 0.000000
vt  0.981049 -0.222522 0.000000
vt  0.938909 -0.222522 0.000000
vt  0.981049 -0.276063 0.000000
vt  0.938909 -0.276063 0.000000
vt  0.981049 -0.330326 0.000000
vt  0.938909 -0.330326 0.000000
vt  0.892490 -0.276063 0.000000
vt  0.892490 -0.330326 0.000000
vt  0.892490 -0.359213 0.000000
vt  0.938909 -0.359213 0.000000
vt  0.866697 -0.330326 0.000000
vt  0.866697 -0.276063 0.000000
vt  0.866697 -0.222522 0.000000
vt  0.892490 -0.222522 0.000000
vt  0.892490 -0.165239 0.000000
vt  0.866697 -0.165239 0.000000
vt  0.892490 -0.110967 0.000000
vt  0.866697 -0.110967 0.000000
vt  0.866697 -0.047921 0.000000
vt  0.644057 -0.133558 0.000000
vt  0.644057 -0.039705 0.000000
vt  0.452772 -0.133558 0.000000
vt  0.452772 -0.034948 0.000000
vt  0.630949 -0.018737 0.000000
vt  0.474046 -0.018737 0.000000
vt  0.459413 -0.150727 0.000000
vt  0.314952 -0.263517 0.000000
vt  0.327783 -0.277765 0.000000
vt  0.269332 -0.352621 0.000000
vt  0.282937 -0.356572 0.000000
vt  0.249230 -0.447234 0.000000
vt  0.268082 -0.447679 0.000000
vt  0.253219 -0.540211 0.000000
vt  0.268807 -0.537714 0.000000
vt  0.310693 -0.678465 0.000000
vt  0.298171 -0.683896 0.000000
vt  0.435122 -0.800643 0.000000
vt  0.427525 -0.816946 0.000000
vt  0.639245 -0.816946 0.000000
vt  0.639245 -0.907041 0.000000
vt  0.427525 -0.907041 0.000000
vt  0.607326 -0.924060 0.000000
vt  0.451983 -0.924060 0.000000
vt  0.284395 -0.535218 0.000000
vt  0.323214 -0.673034 0.000000
vt  0.442719 -0.784340 0.000000
vt  0.638598 -0.800643 0.000000
vt  0.775964 -0.709743 0.000000
vt  0.783846 -0.723185 0.000000
vt  0.868844 -0.604285 0.000000
vt  0.856106 -0.596225 0.000000
vt  0.880508 -0.514783 0.000000
vt  0.896618 -0.517096 0.000000
vt  0.859375 -0.405708 0.000000
vt  0.874960 -0.400696 0.000000
vt  0.809480 -0.312770 0.000000
vt  0.822949 -0.306237 0.000000
vt  0.640979 -0.150727 0.000000
vt  0.582191 -0.469854 0.000000
vt  0.637951 -0.784340 0.000000
vt  0.768082 -0.696300 0.000000
vt  0.843368 -0.588165 0.000000
vt  0.864398 -0.512470 0.000000
vt  0.843790 -0.410720 0.000000
vt  0.796011 -0.319304 0.000000
vt  0.637901 -0.167897 0.000000
vt  0.466055 -0.167897 0.000000
vt  0.340614 -0.292013 0.000000
vt  0.296542 -0.360522 0.000000
vt  0.286935 -0.448124 0.000000
vt  0.115963 -0.984033 0.000000
vt  0.206196 -0.984033 0.000000
vt  0.115963 -0.674615 0.000000
vt  0.206196 -0.674615 0.000000
vt  0.115963 -0.374617 0.000000
vt  0.206196 -0.374617 0.000000
vt  0.115963 -0.118198 0.000000
vt  0.206196 -0.118198 0.000000
vt  0.115963 -0.031432 0.000000
vt  0.206196 -0.031432 0.000000
vt  0.206196 -0.984033 0.000000
vt  0.115963 -0.984033 0.000000
vt  0.206196 -0.674615 0.000000
vt  0.115963 -0.674615 0.000000
vt  0.206196 -0.374617 0.000000
vt  0.115963 -0.374617 0.000000
vt  0.206196 -0.118198 0.000000
vt  0.115963 -0.118198 0.000000
vt  0.206196 -0.031432 0.000000
vt  0.115963 -0.031432 0.000000
vt  0.893049 -0.945133 0.000000
vt  0.862144 -0.945133 0.000000
vt  0.893049 -0.885076 0.000000
vt  0.862144 -0.885076 0.000000
vt  0.862144 -0.825022 0.000000
vt  0.893049 -0.825022 0.000000
vt  0.862144 -0.761385 0.000000
vt  0.893049 -0.761385 0.000000
vt  0.893049 -0.702928 0.000000
vt  0.862144 -0.702928 0.000000
vt  0.862144 -0.641077 0.000000
vt  0.893049 -0.641077 0.000000
vt  0.944048 -0.641077 0.000000
vt  0.944048 -0.702928 0.000000
vt  0.944048 -0.761385 0.000000
vt  0.944048 -0.825022 0.000000
vt  0.944048 -0.885076 0.000000
vt  0.944048 -0.945133 0.000000
vt  0.944048 -0.608195 0.000000
vt  0.974799 -0.608195 0.000000
vt  0.974799 -0.641077 0.000000
vt  0.974799 -0.702928 0.000000
vt  0.974799 -0.761385 0.000000
vt  0.974799 -0.825022 0.000000
vt  0.974799 -0.885076 0.000000
vt  0.974799 -0.945133 0.000000
vt  0.944048 -0.976537 0.000000
vt  0.974799 -0.976537 0.000000
vt  0.011762 -0.984033 0.000000
vt  0.101258 -0.984033 0.000000
vt  0.011762 -0.817520 0.000000
vt  0.101258 -0.832190 0.000000
vt  0.011762 -0.640849 0.000000
vt  0.101258 -0.640849 0.000000
vt  0.011762 -0.340850 0.000000
vt  0.101258 -0.340850 0.000000
vt  0.011762 -0.031432 0.000000
vt  0.101258 -0.031432 0.000000
vt  0.101258 -0.173183 0.000000
vt  0.011762 -0.177961 0.000000
vt  0.011762 -0.340850 0.000000
vt  0.101258 -0.340850 0.000000
vt  0.101258 -0.640849 0.000000
vt  0.011762 -0.640849 0.000000
vt  0.101258 -0.984033 0.000000
vt  0.011762 -0.984033 0.000000

vn  0.383768 0.625772 0.679067
vn  0.174090 0.970360 -0.167614
vn  -0.831940 0.542944 -0.114407
vn  0.691150 0.687928 -0.221511
vn  -0.619325 -0.103894 -0.778231
vn  0.691150 0.687928 -0.221511
vn  0.758420 0.439435 0.481348
vn  0.699750 0.405661 0.588038
vn  0.358953 0.599960 0.714983
vn  0.632900 0.342022 0.694592
vn  0.319304 0.561812 0.763159
vn  0.560829 0.288857 0.775908
vn  0.248725 0.538390 0.805154
vn  0.062598 -0.283250 0.957001
vn  -0.567312 -0.214357 0.795115
vn  -0.830528 0.540898 -0.132864
vn  -0.958294 0.282859 -0.040773
vn  -0.631600 -0.455796 -0.627161
vn  0.062598 -0.283250 0.957001
vn  -0.631600 -0.455796 -0.627161
vn  -0.510070 -0.283248 -0.812157
vn  -0.597692 -0.345401 -0.723507
vn  -0.880001 0.474955 0.003933
vn  -0.925995 0.324587 0.192813
vn  -0.705841 -0.409268 -0.578177
vn  -0.918876 0.236546 0.315774
vn  -0.757310 -0.463404 -0.460150
vn  -0.619325 -0.103894 -0.778231
vn  0.042467 0.799465 0.599210
vn  0.348938 0.926329 0.141977
vn  -0.030174 0.781520 0.623151
vn  0.292393 0.918713 0.265467
vn  0.537778 0.708934 -0.456299
vn  0.548136 0.673779 -0.495549
vn  -0.115239 0.689951 0.714624
vn  -0.176155 0.800177 0.573311
vn  -0.096393 0.733180 0.673168
vn  -0.157753 0.826304 0.540680
vn  -0.027230 0.759917 0.649450
vn  -0.136017 0.788203 0.600196
vn  -0.012250 0.756362 0.654038
vn  -0.184368 0.745139 0.640918
vn  -0.027280 0.738480 0.673723
vn  -0.046360 0.773308 0.632334
vn  -0.206123 0.741286 0.638756
vn  -0.013463 0.774495 0.632437
vn  -0.094689 0.640863 0.761793
vn  -0.051760 0.632207 0.773069
vn  -0.143328 0.220216 0.964864
vn  -0.179655 0.352025 0.918587
vn  -0.244039 -0.232692 0.941435
vn  -0.223898 -0.154138 0.962347
vn  -0.010655 0.744016 0.668077
vn  -0.040387 0.774687 0.631054
vn  0.012663 0.791875 0.610552
vn  -0.043280 0.740742 0.670394
vn  -0.133076 0.745243 0.653379
vn  -0.105520 0.691647 0.714486
vn  -0.002245 0.669863 0.742482
vn  -0.118607 0.728991 0.674169
vn  -0.104321 0.715164 0.691128
vn  0.058206 0.681399 0.729594
vn  -0.072082 0.776929 0.625449
vn  0.112963 0.768871 0.629347
vn  -0.102695 0.800519 0.590443
vn  0.070650 0.811869 0.579550
vn  -0.052591 0.723713 0.688094
vn  -0.064939 0.757888 0.649144
vn  -0.055655 0.754562 0.653865
vn  -0.195443 0.760237 0.619550
vn  -0.169312 0.732475 0.659404
vn  -0.225354 0.690857 0.686973
vn  -0.129313 0.773341 0.620663
vn  -0.079791 0.802292 0.591575
vn  -0.163637 0.710307 0.684607
vn  -0.117724 0.645373 0.754741
vn  -0.072264 0.723095 0.686958
vn  0.016110 0.729576 0.683710
vn  0.001802 0.757734 0.652561
vn  0.427823 0.629277 -0.648829
vn  0.432371 0.613526 -0.660788
vn  0.394844 0.801856 -0.448470
vn  0.362989 0.822212 -0.438414
vn  -0.077260 0.986993 -0.140984
vn  -0.074054 0.984603 -0.158346
vn  -0.004770 0.971037 0.238881
vn  0.057931 0.967663 0.245503
vn  0.537778 0.708934 -0.456299
vn  0.548136 0.673779 -0.495549
vn  0.842091 0.243131 0.481426
vn  0.815684 0.256733 0.518408
vn  0.401108 0.129050 0.906895
vn  0.401712 0.089731 0.911359
vn  0.192612 0.247104 0.949653
vn  0.198721 0.248067 0.948142
vn  0.086118 0.601438 0.794264
vn  0.097914 0.591596 0.800267
vn  -0.223898 -0.154138 0.962347
vn  -0.244039 -0.232692 0.941435
vn  0.142030 0.941457 -0.305754
vn  0.507259 0.565425 -0.650372
vn  -0.633334 0.763173 -0.128278
vn  -0.647211 0.124184 -0.752128
vn  -0.770708 -0.084422 -0.631571
vn  -0.787441 0.615506 -0.032999
vn  -0.802127 -0.301317 -0.515558
vn  -0.870392 0.481337 0.103596
vn  -0.905873 0.364486 0.215740
vn  -0.766192 -0.443025 -0.465488
vn  -0.293953 -0.635548 0.713912
vn  -0.778904 -0.088291 0.620897
vn  0.346391 0.329021 0.878498
vn  0.396110 0.660047 0.638306
vn  0.411604 0.634882 0.653840
vn  0.379955 0.551320 0.742752
vn  0.325894 0.422254 0.845869
vn  0.594638 0.436112 0.675435
vn  -0.778904 -0.088291 0.620897
vn  -0.293953 -0.635548 0.713912
vn  0.599606 0.204694 0.773675
vn  0.799745 0.422476 0.426524
vn  0.823881 0.307958 0.475795
vn  0.770022 0.093916 0.631067
vn  0.619546 -0.124129 0.775084
vn  0.852519 0.084098 0.515887
vn  0.142030 0.941457 -0.305754
vn  0.507259 0.565425 -0.650372
vn  0.815684 0.256733 0.518408
vn  0.842091 0.243131 0.481426
vn  0.953552 -0.088680 0.287878
vn  0.949764 -0.118600 0.289626
vn  0.965557 -0.212657 0.149924
vn  0.966122 -0.217340 0.139181
vn  0.969363 -0.176395 -0.170939
vn  0.981062 -0.155745 -0.115159
vn  0.955725 0.047704 -0.290369
vn  0.959949 0.078080 -0.269075
vn  0.797384 0.138202 -0.587434
vn  0.782832 0.131716 -0.608132
vn  0.595818 0.296652 -0.746323
vn  0.601120 0.299401 -0.740955
vn  0.481704 0.384328 -0.787562
vn  0.466637 0.403746 -0.786917
vn  0.432371 0.613526 -0.660788
vn  0.427823 0.629277 -0.648829

g K1249
usemtl K1249_3
f  1/1/1 2/2/2 3/3/3
f  4/4/4 3/3/3 2/2/2
f  3/3/3 4/4/4 5/5/5
f  6/6/6 2/2/2 7/7/7
f  1/1/1 7/7/7 2/2/2
f  7/7/7 1/1/1 8/8/8
f  9/9/9 8/8/8 1/1/1
f  8/8/8 9/9/9 10/10/10
f  11/11/11 10/10/10 9/9/9
f  10/10/10 11/11/11 12/12/12
f  13/13/13 12/12/12 11/11/11
f  12/12/12 13/13/13 14/14/14
f  14/14/14 13/13/13 15/15/15
f  16/16/16 15/15/15 13/13/13
f  17/17/17 15/15/15 16/16/16
f  18/18/18 15/15/15 17/17/17
f  15/15/15 18/18/18 19/19/19
f  20/20/20 17/17/17 21/21/21
f  16/16/16 21/21/21 17/17/17
f  21/21/21 16/16/16 22/22/22
f  22/22/22 16/16/16 23/23/23
f  13/13/13 23/23/23 16/16/16
f  11/11/11 23/23/23 13/13/13
f  9/9/9 23/23/23 11/11/11
f  24/24/24 23/23/23 9/9/9
f  23/23/23 24/24/24 22/22/22
f  22/22/22 24/24/24 25/25/25
f  26/26/26 25/25/25 24/24/24
f  25/25/25 26/26/26 27/27/27
f  27/27/27 26/26/26 28/28/28
f  28/28/28 26/26/26 3/3/3
f  3/3/3 26/26/26 1/1/1
f  24/24/24 1/1/1 26/26/26
f  1/1/1 24/24/24 9/9/9
f  29/29/29 30/30/30 31/31/31
f  31/31/31 30/30/30 32/32/32
f  33/33/33 32/32/32 30/30/30
f  32/32/32 33/33/33 34/34/34
f  29/29/29 31/31/31 35/35/35
f  36/36/36 35/35/35 31/31/31
f  35/35/35 36/36/36 37/37/37
f  38/38/38 37/37/37 36/36/36
f  37/37/37 38/38/38 39/39/39
f  40/40/40 39/39/39 38/38/38
f  39/39/39 40/40/40 41/41/41
f  42/42/42 41/41/41 40/40/40
f  41/41/41 42/42/42 43/43/43
f  43/43/43 42/42/42 44/44/44
f  45/45/45 44/44/44 42/42/42
f  44/44/44 45/45/45 46/46/46
f  47/47/47 46/46/46 45/45/45
f  46/46/46 47/47/47 48/48/48
f  48/48/48 47/47/47 49/49/49
f  50/50/50 49/49/49 47/47/47
f  49/49/49 50/50/50 51/51/51
f  52/52/52 51/51/51 50/50/50
f  44/44/44 53/53/53 43/43/43
f  53/53/53 44/44/44 54/54/54
f  46/46/46 54/54/54 44/44/44
f  54/54/54 46/46/46 55/55/55
f  55/55/55 46/46/46 56/56/56
f  48/48/48 56/56/56 46/46/46
f  56/56/56 48/48/48 57/57/57
f  58/58/58 57/57/57 48/48/48
f  59/59/59 57/57/57 58/58/58
f  57/57/57 59/59/59 60/60/60
f  60/60/60 59/59/59 61/61/61
f  62/62/62 61/61/61 59/59/59
f  61/61/61 62/62/62 63/63/63
f  64/64/64 63/63/63 62/62/62
f  63/63/63 64/64/64 65/65/65
f  66/66/66 65/65/65 64/64/64
f  65/65/65 66/66/66 67/67/67
f  29/29/29 67/67/67 66/66/66
f  53/53/53 54/54/54 68/68/68
f  55/55/55 68/68/68 54/54/54
f  68/68/68 55/55/55 69/69/69
f  56/56/56 69/69/69 55/55/55
f  69/69/69 56/56/56 70/70/70
f  57/57/57 70/70/70 56/56/56
f  60/60/60 70/70/70 57/57/57
f  70/70/70 60/60/60 71/71/71
f  61/61/61 71/71/71 60/60/60
f  71/71/71 61/61/61 72/72/72
f  63/63/63 72/72/72 61/61/61
f  72/72/72 63/63/63 73/73/73
f  65/65/65 73/73/73 63/63/63
f  73/73/73 65/65/65 74/74/74
f  74/74/74 65/65/65 75/75/75
f  67/67/67 75/75/75 65/65/65
f  76/76/76 75/75/75 67/67/67
f  75/75/75 76/76/76 68/68/68
f  69/69/69 70/70/70 68/68/68
f  71/71/71 68/68/68 70/70/70
f  72/72/72 68/68/68 71/71/71
f  73/73/73 68/68/68 72/72/72
f  74/74/74 68/68/68 73/73/73
f  68/68/68 74/74/74 75/75/75
f  35/35/35 67/67/67 29/29/29
f  67/67/67 35/35/35 76/76/76
f  37/37/37 76/76/76 35/35/35
f  76/76/76 37/37/37 77/77/77
f  39/39/39 77/77/77 37/37/37
f  77/77/77 39/39/39 78/78/78
f  41/41/41 78/78/78 39/39/39
f  78/78/78 41/41/41 79/79/79
f  43/43/43 79/79/79 41/41/41
f  53/53/53 79/79/79 43/43/43
f  76/76/76 77/77/77 68/68/68
f  78/78/78 68/68/68 77/77/77
f  79/79/79 68/68/68 78/78/78
f  68/68/68 79/79/79 53/53/53
f  80/80/80 81/81/81 82/82/82
f  83/83/83 82/82/82 81/81/81
f  82/82/82 83/83/83 84/84/84
f  85/85/85 84/84/84 83/83/83
f  84/84/84 85/85/85 86/86/86
f  87/87/87 86/86/86 85/85/85
f  86/86/86 87/87/87 88/88/88
f  89/89/89 88/88/88 87/87/87
f  90/90/90 91/91/91 92/92/92
f  93/93/93 92/92/92 91/91/91
f  92/92/92 93/93/93 94/94/94
f  95/95/95 94/94/94 93/93/93
f  94/94/94 95/95/95 96/96/96
f  97/97/97 96/96/96 95/95/95
f  96/96/96 97/97/97 98/98/98
f  99/99/99 98/98/98 97/97/97
f  100/100/100 101/101/101 102/102/102
f  103/103/103 102/102/102 101/101/101
f  104/104/104 102/102/102 103/103/103
f  102/102/102 104/104/104 105/105/105
f  106/106/106 105/105/105 104/104/104
f  105/105/105 106/106/106 107/107/107
f  107/107/107 106/106/106 108/108/108
f  109/109/109 108/108/108 106/106/106
f  110/110/110 111/111/111 109/109/109
f  109/109/109 111/111/111 108/108/108
f  112/112/112 108/108/108 111/111/111
f  113/113/113 108/108/108 112/112/112
f  108/108/108 113/113/113 107/107/107
f  114/114/114 107/107/107 113/113/113
f  115/115/115 107/107/107 114/114/114
f  107/107/107 115/115/115 105/105/105
f  116/116/116 105/105/105 115/115/115
f  105/105/105 116/116/116 102/102/102
f  102/102/102 116/116/116 100/100/100
f  117/117/117 100/100/100 116/116/116
f  118/118/118 119/119/119 112/112/112
f  120/120/120 112/112/112 119/119/119
f  112/112/112 120/120/120 113/113/113
f  121/121/121 113/113/113 120/120/120
f  113/113/113 121/121/121 114/114/114
f  122/122/122 114/114/114 121/121/121
f  114/114/114 122/122/122 115/115/115
f  123/123/123 115/115/115 122/122/122
f  115/115/115 123/123/123 116/116/116
f  124/124/124 116/116/116 123/123/123
f  116/116/116 124/124/124 117/117/117
f  125/125/125 117/117/117 124/124/124
f  117/117/117 125/125/125 126/126/126
f  127/127/127 126/126/126 125/125/125
f  128/128/128 129/129/129 130/130/130
f  131/131/131 130/130/130 129/129/129
f  130/130/130 131/131/131 132/132/132
f  133/133/133 132/132/132 131/131/131
f  132/132/132 133/133/133 134/134/134
f  135/135/135 134/134/134 133/133/133
f  134/134/134 135/135/135 136/136/136
f  137/137/137 136/136/136 135/135/135
f  138/138/138 136/136/136 137/137/137
f  136/136/136 138/138/138 139/139/139
f  139/139/139 138/138/138 140/140/140
f  141/141/141 140/140/140 138/138/138
f  142/142/142 140/140/140 141/141/141
f  140/140/140 142/142/142 143/143/143
f  144/144/144 143/143/143 142/142/142
f  143/143/143 144/144/144 145/145/145

g
