# Noesis .obj export.
#
mtllib k1283.mtl
g
v  -0.068656 0.312505 0.245358
v  -0.101318 0.283702 0.247516
v  -0.060606 0.286703 0.272848
v  -0.092705 0.258391 0.274332
v  -0.111237 0.295687 0.213302
v  -0.076935 0.326840 0.209678
v  -0.034278 0.355131 0.204571
v  -0.028223 0.332928 0.235386
v  -0.019799 0.306046 0.264753
v  -0.009945 0.283193 0.286148
v  -0.049112 0.260915 0.295635
v  -0.083972 0.235638 0.299373
v  -0.123561 0.205866 0.302467
v  -0.131070 0.235475 0.276822
v  -0.138025 0.264183 0.245456
v  -0.143113 0.279057 0.212881
v  -0.155096 0.287234 0.176444
v  -0.118407 0.314743 0.178726
v  -0.076915 0.344841 0.177919
v  -0.038347 0.371790 0.167488
v  0.003111 0.375016 0.153984
v  0.011474 0.353028 0.188665
v  0.020300 0.336323 0.219797
v  0.026104 0.314832 0.250749
v  0.031957 0.287417 0.275932
v  0.046056 0.254772 0.294769
v  0.003059 0.240674 0.306864
v  -0.033202 0.223253 0.312571
v  -0.071416 0.203530 0.321778
v  -0.112219 0.174572 0.321344

vt  0.479229 -0.526821 0.000000
vt  0.511812 -0.731450 0.000000
vt  0.676240 -0.506155 0.000000
vt  0.703370 -0.711881 0.000000
vt  0.294136 -0.791525 0.000000
vt  0.278571 -0.574239 0.000000
vt  0.236455 -0.319179 0.000000
vt  0.432024 -0.294225 0.000000
vt  0.637423 -0.291433 0.000000
vt  0.804346 -0.288596 0.000000
vt  0.829376 -0.491791 0.000000
vt  0.860386 -0.697191 0.000000
vt  0.888848 -0.945346 0.000000
vt  0.720657 -0.929508 0.000000
vt  0.530551 -0.931403 0.000000
vt  0.299130 -0.967855 0.000000
vt  0.141317 -1.027729 0.000000
vt  0.089586 -0.799613 0.000000
vt  0.079478 -0.590026 0.000000
vt  0.030145 -0.340167 0.000000
vt  0.011550 -0.154439 0.000000
vt  0.223308 -0.117124 0.000000
vt  0.425927 -0.080159 0.000000
vt  0.631704 -0.085344 0.000000
vt  0.824690 -0.091115 0.000000
vt  1.001525 -0.104614 0.000000
vt  0.995098 -0.309117 0.000000
vt  1.014801 -0.520045 0.000000
vt  1.020422 -0.713319 0.000000
vt  1.037664 -0.949687 0.000000

vn  -0.403639 0.705367 0.582694
vn  -0.474123 0.672843 0.567882
vn  -0.312236 0.602179 0.734772
vn  -0.383613 0.601833 0.700456
vn  -0.520198 0.735645 0.433844
vn  -0.516728 0.739282 0.431803
vn  -0.132152 0.867292 0.479939
vn  -0.059294 0.778800 0.624464
vn  -0.049988 0.699686 0.712700
vn  0.005061 0.584374 0.811468
vn  -0.193817 0.492176 0.848645
vn  -0.276877 0.540181 0.794697
vn  -0.322280 0.485764 0.812508
vn  -0.349062 0.616162 0.706046
vn  -0.398144 0.721905 0.565980
vn  -0.431853 0.818117 0.379720
vn  -0.498580 0.758706 0.419264
vn  -0.544857 0.692584 0.472714
vn  -0.482942 0.766723 0.422969
vn  -0.100345 0.887213 0.450316
vn  0.101551 0.851085 0.515113
vn  0.161846 0.883323 0.439938
vn  0.141845 0.844903 0.515771
vn  0.092799 0.747943 0.657244
vn  0.121789 0.617576 0.777025
vn  0.120522 0.497970 0.858778
vn  0.024226 0.435024 0.900093
vn  -0.085685 0.424416 0.901404
vn  -0.202733 0.493688 0.845678
vn  -0.300448 0.410458 0.860962

g K1283
usemtl K1283_3
f  1/1/1 2/2/2 3/3/3
f  4/4/4 3/3/3 2/2/2
f  5/5/5 2/2/2 6/6/6
f  1/1/1 6/6/6 2/2/2
f  6/6/6 1/1/1 7/7/7
f  7/7/7 1/1/1 8/8/8
f  8/8/8 1/1/1 9/9/9
f  3/3/3 9/9/9 1/1/1
f  9/9/9 3/3/3 10/10/10
f  10/10/10 3/3/3 11/11/11
f  4/4/4 11/11/11 3/3/3
f  11/11/11 4/4/4 12/12/12
f  13/13/13 12/12/12 14/14/14
f  4/4/4 14/14/14 12/12/12
f  14/14/14 4/4/4 15/15/15
f  2/2/2 15/15/15 4/4/4
f  5/5/5 15/15/15 2/2/2
f  15/15/15 5/5/5 16/16/16
f  16/16/16 5/5/5 17/17/17
f  17/17/17 5/5/5 18/18/18
f  6/6/6 18/18/18 5/5/5
f  18/18/18 6/6/6 19/19/19
f  7/7/7 19/19/19 6/6/6
f  19/19/19 7/7/7 20/20/20
f  21/21/21 20/20/20 22/22/22
f  7/7/7 22/22/22 20/20/20
f  22/22/22 7/7/7 23/23/23
f  8/8/8 23/23/23 7/7/7
f  23/23/23 8/8/8 24/24/24
f  9/9/9 24/24/24 8/8/8
f  24/24/24 9/9/9 25/25/25
f  10/10/10 25/25/25 9/9/9
f  25/25/25 10/10/10 26/26/26
f  26/26/26 10/10/10 27/27/27
f  11/11/11 27/27/27 10/10/10
f  27/27/27 11/11/11 28/28/28
f  12/12/12 28/28/28 11/11/11
f  28/28/28 12/12/12 29/29/29
f  13/13/13 29/29/29 12/12/12
f  29/29/29 13/13/13 30/30/30

g
