# Noesis .obj export.
#
mtllib l1003.mtl
g
v  -0.021214 -0.309143 0.115272
v  0.014029 -0.289003 0.034610
v  0.046580 -0.294452 0.075054
v  0.099607 -0.274644 0.012068
v  0.146008 -0.265374 -0.000000
v  0.152399 -0.265757 0.033335
v  0.102988 -0.267138 0.041237
v  0.059921 -0.281961 0.118332
v  0.033527 -0.266521 0.084415
v  0.014029 -0.289003 0.034610
v  0.099607 -0.274644 0.012068
v  0.103456 -0.256764 0.027731
v  0.146008 -0.265374 -0.000000
v  0.140216 -0.257345 0.018913
v  0.099607 -0.274644 -0.012068
v  0.152399 -0.265757 -0.033335
v  0.102988 -0.267138 -0.041237
v  0.103456 -0.256764 -0.027731
v  0.059921 -0.281961 -0.118332
v  0.033527 -0.266521 -0.084415
v  -0.021214 -0.309142 -0.115272
v  0.014029 -0.289003 -0.034610
v  0.099607 -0.274644 -0.012068
v  0.140216 -0.257345 -0.018913
v  0.014029 -0.289003 -0.034610
v  0.046580 -0.294451 -0.075054
v  0.203660 -0.249623 -0.095372
v  0.183310 -0.260900 -0.000000
v  0.160677 -0.270944 -0.000000
v  0.203660 -0.249624 0.095372
v  0.152399 -0.265757 0.033335
v  0.146008 -0.265374 -0.000000
v  0.152399 -0.265757 -0.033335
v  0.159782 -0.248925 -0.092600
v  0.226205 -0.197213 -0.169298
v  0.176187 -0.198578 -0.175602
v  0.264859 -0.107407 -0.210943
v  0.202995 -0.105529 -0.222681
v  0.298020 -0.019957 -0.216501
v  0.232280 -0.005384 -0.226046
v  0.324749 0.063422 -0.197972
v  0.252342 0.088578 -0.209431
v  0.345547 0.118409 -0.164689
v  0.267723 0.152813 -0.177106
v  0.362050 0.170498 -0.090939
v  0.275407 0.208107 -0.105827
v  0.372948 0.200123 0.000000
v  0.200227 0.167676 -0.173112
v  0.186915 0.099001 -0.204319
v  0.171380 0.001244 -0.215099
v  0.152804 -0.093939 -0.206890
v  0.131322 -0.188286 -0.162911
v  0.123457 -0.231088 -0.086344
v  0.140216 -0.257345 -0.018913
v  0.124112 -0.249087 -0.000000
v  0.146008 -0.265374 -0.000000
v  0.140216 -0.257345 0.018913
v  0.204081 0.213702 -0.100984
v  0.285572 0.234080 0.000000
v  0.275407 0.208107 0.105828
v  0.362050 0.170498 0.090940
v  0.267723 0.152812 0.177107
v  0.345547 0.118409 0.164690
v  0.252342 0.088578 0.209432
v  0.324749 0.063422 0.197972
v  0.232280 -0.005384 0.226047
v  0.298020 -0.019958 0.216501
v  0.202995 -0.105529 0.222681
v  0.264859 -0.107407 0.210943
v  0.176187 -0.198579 0.175602
v  0.226205 -0.197214 0.169298
v  0.159782 -0.248925 0.092600
v  0.209792 0.237800 0.000000
v  0.204081 0.213701 0.100985
v  0.200227 0.167676 0.173112
v  0.186915 0.099000 0.204320
v  0.171380 0.001244 0.215099
v  0.152804 -0.093939 0.206890
v  0.131322 -0.188286 0.162912
v  0.123457 -0.231088 0.086344
v  0.362050 0.170498 -0.090939
v  0.372948 0.200123 0.000000
v  0.278569 -0.011260 0.000000
v  0.362050 0.170498 0.090940
v  0.345547 0.118409 0.164690
v  0.324749 0.063422 0.197972
v  0.298020 -0.019958 0.216501
v  0.264859 -0.107407 0.210943
v  0.226205 -0.197214 0.169298
v  0.203660 -0.249624 0.095372
v  0.183310 -0.260900 -0.000000
v  0.203660 -0.249623 -0.095372
v  0.226205 -0.197213 -0.169298
v  0.264859 -0.107407 -0.210943
v  0.298020 -0.019957 -0.216501
v  0.324749 0.063422 -0.197972
v  0.345547 0.118409 -0.164689
v  0.209792 0.237800 0.000000
v  0.204081 0.213702 -0.100984
v  0.216390 0.006323 0.000000
v  0.200227 0.167676 -0.173112
v  0.186915 0.099001 -0.204319
v  0.171380 0.001244 -0.215099
v  0.152804 -0.093939 -0.206890
v  0.131322 -0.188286 -0.162911
v  0.123457 -0.231088 -0.086344
v  0.124112 -0.249087 -0.000000
v  0.123457 -0.231088 0.086344
v  0.131322 -0.188286 0.162912
v  0.152804 -0.093939 0.206890
v  0.171380 0.001244 0.215099
v  0.186915 0.099000 0.204320
v  0.200227 0.167676 0.173112
v  0.204081 0.213701 0.100985

vt  0.477146 -0.994133 0.000000
vt  0.561141 -0.724398 0.000000
vt  0.439984 -0.761755 0.000000
vt  0.300261 -0.505987 0.000000
vt  0.127876 -0.357525 0.000000
vt  0.072070 -0.394337 0.000000
vt  0.214423 -0.562680 0.000000
vt  0.364298 -0.806905 0.000000
vt  0.297725 -0.861582 0.000000
vt  0.195344 -0.959838 0.000000
vt  0.118293 -0.638136 0.000000
vt  0.161440 -0.612529 0.000000
vt  0.006525 -0.447949 0.000000
vt  0.030298 -0.396098 0.000000
vt  0.300261 -0.505987 0.000000
vt  0.072070 -0.394337 0.000000
vt  0.214423 -0.562680 0.000000
vt  0.161440 -0.612529 0.000000
vt  0.364298 -0.806905 0.000000
vt  0.297725 -0.861582 0.000000
vt  0.477146 -0.994133 0.000000
vt  0.195344 -0.959838 0.000000
vt  0.118293 -0.638136 0.000000
vt  0.030298 -0.396098 0.000000
vt  0.561141 -0.724398 0.000000
vt  0.439984 -0.761755 0.000000
vt  0.878025 -0.778774 0.000000
vt  0.994943 -0.918700 0.000000
vt  0.976568 -0.936340 0.000000
vt  0.878025 -0.778774 0.000000
vt  0.924508 -0.913638 0.000000
vt  0.969774 -0.961949 0.000000
vt  0.924508 -0.913638 0.000000
vt  0.836861 -0.834766 0.000000
vt  0.816615 -0.687230 0.000000
vt  0.752478 -0.746470 0.000000
vt  0.704392 -0.523999 0.000000
vt  0.639317 -0.623033 0.000000
vt  0.604141 -0.433687 0.000000
vt  0.533312 -0.538218 0.000000
vt  0.516483 -0.297236 0.000000
vt  0.428977 -0.426018 0.000000
vt  0.422017 -0.208187 0.000000
vt  0.319552 -0.325968 0.000000
vt  0.318319 -0.116710 0.000000
vt  0.227519 -0.238891 0.000000
vt  0.183829 -0.008584 0.000000
vt  0.254631 -0.445757 0.000000
vt  0.364034 -0.536098 0.000000
vt  0.491911 -0.635483 0.000000
vt  0.590106 -0.726679 0.000000
vt  0.708981 -0.813680 0.000000
vt  0.805608 -0.877360 0.000000
vt  0.915370 -0.947560 0.000000
vt  0.918310 -0.990434 0.000000
vt  0.966154 -0.968909 0.000000
vt  0.915370 -0.947560 0.000000
vt  0.164954 -0.369865 0.000000
vt  0.097159 -0.134654 0.000000
vt  0.227519 -0.238891 0.000000
vt  0.318319 -0.116710 0.000000
vt  0.319552 -0.325968 0.000000
vt  0.422017 -0.208187 0.000000
vt  0.428977 -0.426018 0.000000
vt  0.516483 -0.297236 0.000000
vt  0.533312 -0.538218 0.000000
vt  0.604141 -0.433687 0.000000
vt  0.639317 -0.623033 0.000000
vt  0.704392 -0.523999 0.000000
vt  0.752478 -0.746470 0.000000
vt  0.816615 -0.687230 0.000000
vt  0.836861 -0.834766 0.000000
vt  0.009829 -0.268664 0.000000
vt  0.164954 -0.369865 0.000000
vt  0.254631 -0.445757 0.000000
vt  0.364034 -0.536098 0.000000
vt  0.491911 -0.635483 0.000000
vt  0.590106 -0.726679 0.000000
vt  0.708981 -0.813680 0.000000
vt  0.805608 -0.877360 0.000000
vt  0.398186 -0.130535 0.000000
vt  0.360185 -0.007690 0.000000
vt  0.690846 -0.008669 0.000000
vt  0.398186 -0.130535 0.000000
vt  0.452181 -0.219483 0.000000
vt  0.538355 -0.266004 0.000000
vt  0.660163 -0.274235 0.000000
vt  0.761457 -0.274740 0.000000
vt  0.886003 -0.194328 0.000000
vt  0.942118 -0.133366 0.000000
vt  0.993186 -0.007209 0.000000
vt  0.942118 -0.133366 0.000000
vt  0.886003 -0.194328 0.000000
vt  0.761457 -0.274740 0.000000
vt  0.660163 -0.274235 0.000000
vt  0.538355 -0.266004 0.000000
vt  0.452181 -0.219483 0.000000
vt  0.992206 -0.705662 0.000000
vt  0.864681 -0.681038 0.000000
vt  0.995766 -0.427757 0.000000
vt  0.794023 -0.638441 0.000000
vt  0.752284 -0.547417 0.000000
vt  0.757231 -0.433712 0.000000
vt  0.776976 -0.342032 0.000000
vt  0.820242 -0.248310 0.000000
vt  0.886869 -0.201991 0.000000
vt  0.986962 -0.151748 0.000000
vt  0.886869 -0.201991 0.000000
vt  0.820242 -0.248310 0.000000
vt  0.776976 -0.342032 0.000000
vt  0.757231 -0.433712 0.000000
vt  0.752284 -0.547417 0.000000
vt  0.794023 -0.638441 0.000000
vt  0.864681 -0.681038 0.000000

vn  -0.791486 -0.361867 0.492546
vn  -0.589288 -0.122946 -0.798513
vn  0.280071 -0.959786 -0.019268
vn  -0.262789 -0.440614 -0.858371
vn  -0.371337 -0.928498 -0.000001
vn  -0.175273 -0.945856 0.273195
vn  0.719380 -0.225810 0.656888
vn  0.471960 -0.000593 0.881620
vn  -0.293816 0.945132 0.142823
vn  -0.589288 -0.122946 -0.798513
vn  -0.262789 -0.440614 -0.858371
vn  -0.178499 0.975963 -0.125036
vn  -0.371337 -0.928498 -0.000001
vn  -0.965931 0.092067 0.241868
vn  -0.262789 -0.440615 0.858371
vn  -0.175273 -0.945856 -0.273197
vn  0.719380 -0.225810 -0.656888
vn  -0.178499 0.975963 0.125037
vn  0.471960 -0.000592 -0.881620
vn  -0.293816 0.945132 -0.142822
vn  -0.791486 -0.361866 -0.492547
vn  -0.589288 -0.122947 0.798513
vn  -0.262789 -0.440615 0.858371
vn  -0.965931 0.092068 -0.241868
vn  -0.589288 -0.122947 0.798513
vn  0.280071 -0.959786 0.019267
vn  0.544759 -0.804326 -0.237272
vn  0.685179 -0.728375 -0.000001
vn  0.018603 -0.999827 -0.000001
vn  0.544759 -0.804326 0.237270
vn  -0.175273 -0.945856 0.273195
vn  -0.371337 -0.928498 -0.000001
vn  -0.175273 -0.945856 -0.273197
vn  -0.244130 -0.871563 -0.425180
vn  0.600129 -0.639858 -0.480028
vn  -0.127434 -0.654548 -0.745203
vn  0.691624 -0.408473 -0.595656
vn  -0.076109 -0.249112 -0.965480
vn  0.740986 -0.191573 -0.643615
vn  0.001072 0.077049 -0.997027
vn  0.780557 -0.022688 -0.624672
vn  0.102917 0.290536 -0.951313
vn  0.851275 0.163211 -0.498692
vn  0.225338 0.591458 -0.774210
vn  0.901234 0.312291 -0.300419
vn  0.233656 0.867141 -0.439854
vn  0.891948 0.452138 0.000000
vn  -0.624961 0.556270 -0.547712
vn  -0.722649 0.305130 -0.620221
vn  -0.785889 0.179918 -0.591615
vn  -0.831156 0.026026 -0.555430
vn  -0.843769 -0.284305 -0.455220
vn  -0.914105 -0.343938 -0.214752
vn  -0.965931 0.092068 -0.241868
vn  -0.934431 -0.356143 -0.000000
vn  -0.371337 -0.928498 -0.000001
vn  -0.965931 0.092067 0.241868
vn  -0.672938 0.694059 -0.255806
vn  0.214465 0.976732 0.000001
vn  0.233656 0.867140 0.439855
vn  0.901234 0.312290 0.300419
vn  0.225338 0.591456 0.774211
vn  0.851275 0.163210 0.498692
vn  0.102917 0.290535 0.951314
vn  0.780557 -0.022689 0.624672
vn  0.001072 0.077047 0.997027
vn  0.740986 -0.191574 0.643615
vn  -0.076109 -0.249113 0.965479
vn  0.691624 -0.408474 0.595655
vn  -0.127434 -0.654549 0.745202
vn  0.600129 -0.639859 0.480027
vn  -0.244130 -0.871564 0.425178
vn  -0.635395 0.772188 0.000001
vn  -0.672938 0.694059 0.255807
vn  -0.624961 0.556269 0.547713
vn  -0.722649 0.305129 0.620222
vn  -0.785889 0.179917 0.591615
vn  -0.831156 0.026025 0.555430
vn  -0.843769 -0.284305 0.455219
vn  -0.914105 -0.343938 0.214752
vn  0.901234 0.312291 -0.300419
vn  0.891948 0.452138 0.000000
vn  0.932164 -0.362035 -0.000000
vn  0.901234 0.312290 0.300419
vn  0.851275 0.163210 0.498692
vn  0.780557 -0.022689 0.624672
vn  0.740986 -0.191574 0.643615
vn  0.691624 -0.408474 0.595655
vn  0.600129 -0.639859 0.480027
vn  0.544759 -0.804326 0.237270
vn  0.685179 -0.728375 -0.000001
vn  0.544759 -0.804326 -0.237272
vn  0.600129 -0.639858 -0.480028
vn  0.691624 -0.408473 -0.595656
vn  0.740986 -0.191573 -0.643615
vn  0.780557 -0.022688 -0.624672
vn  0.851275 0.163211 -0.498692
vn  -0.635395 0.772188 0.000001
vn  -0.672938 0.694059 -0.255806
vn  -0.986494 0.163799 0.000000
vn  -0.624961 0.556270 -0.547712
vn  -0.722649 0.305130 -0.620221
vn  -0.785889 0.179918 -0.591615
vn  -0.831156 0.026026 -0.555430
vn  -0.843769 -0.284305 -0.455220
vn  -0.914105 -0.343938 -0.214752
vn  -0.934431 -0.356143 -0.000000
vn  -0.914105 -0.343938 0.214752
vn  -0.843769 -0.284305 0.455219
vn  -0.831156 0.026025 0.555430
vn  -0.785889 0.179917 0.591615
vn  -0.722649 0.305129 0.620222
vn  -0.624961 0.556269 0.547713
vn  -0.672938 0.694059 0.255807

g L1003
usemtl L1003_3
f  1/1/1 2/2/2 3/3/3
f  4/4/4 3/3/3 2/2/2
f  5/5/5 6/6/6 4/4/4
f  7/7/7 4/4/4 6/6/6
f  4/4/4 7/7/7 3/3/3
f  8/8/8 3/3/3 7/7/7
f  3/3/3 8/8/8 1/1/1
f  9/9/9 1/1/1 8/8/8
f  1/1/1 9/9/9 10/10/10
f  10/10/10 9/9/9 11/11/11
f  12/12/12 11/11/11 9/9/9
f  11/11/11 12/12/12 13/13/13
f  13/13/13 12/12/12 14/14/14
f  14/14/14 12/12/12 6/6/6
f  6/6/6 12/12/12 7/7/7
f  7/7/7 12/12/12 8/8/8
f  9/9/9 8/8/8 12/12/12
f  5/5/5 15/15/15 16/16/16
f  17/17/17 16/16/16 15/15/15
f  16/16/16 17/17/17 18/18/18
f  19/19/19 18/18/18 17/17/17
f  18/18/18 19/19/19 20/20/20
f  21/21/21 20/20/20 19/19/19
f  22/22/22 20/20/20 21/21/21
f  23/23/23 20/20/20 22/22/22
f  20/20/20 23/23/23 18/18/18
f  13/13/13 18/18/18 23/23/23
f  24/24/24 18/18/18 13/13/13
f  18/18/18 24/24/24 16/16/16
f  15/15/15 25/25/25 26/26/26
f  21/21/21 26/26/26 25/25/25
f  19/19/19 26/26/26 21/21/21
f  17/17/17 26/26/26 19/19/19
f  26/26/26 17/17/17 15/15/15
f  27/27/27 28/28/28 29/29/29
f  30/30/30 29/29/29 28/28/28
f  30/30/30 31/31/31 29/29/29
f  32/32/32 29/29/29 31/31/31
f  33/33/33 29/29/29 32/32/32
f  29/29/29 33/33/33 27/27/27
f  34/34/34 27/27/27 33/33/33
f  27/27/27 34/34/34 35/35/35
f  36/36/36 35/35/35 34/34/34
f  35/35/35 36/36/36 37/37/37
f  38/38/38 37/37/37 36/36/36
f  37/37/37 38/38/38 39/39/39
f  40/40/40 39/39/39 38/38/38
f  39/39/39 40/40/40 41/41/41
f  42/42/42 41/41/41 40/40/40
f  41/41/41 42/42/42 43/43/43
f  44/44/44 43/43/43 42/42/42
f  43/43/43 44/44/44 45/45/45
f  46/46/46 45/45/45 44/44/44
f  45/45/45 46/46/46 47/47/47
f  44/44/44 48/48/48 46/46/46
f  48/48/48 44/44/44 49/49/49
f  42/42/42 49/49/49 44/44/44
f  49/49/49 42/42/42 50/50/50
f  40/40/40 50/50/50 42/42/42
f  38/38/38 50/50/50 40/40/40
f  50/50/50 38/38/38 51/51/51
f  51/51/51 38/38/38 52/52/52
f  36/36/36 52/52/52 38/38/38
f  52/52/52 36/36/36 53/53/53
f  34/34/34 53/53/53 36/36/36
f  33/33/33 53/53/53 34/34/34
f  54/54/54 53/53/53 33/33/33
f  53/53/53 54/54/54 55/55/55
f  56/56/56 55/55/55 54/54/54
f  57/57/57 55/55/55 56/56/56
f  48/48/48 58/58/58 46/46/46
f  59/59/59 46/46/46 58/58/58
f  46/46/46 59/59/59 47/47/47
f  60/60/60 47/47/47 59/59/59
f  47/47/47 60/60/60 61/61/61
f  62/62/62 61/61/61 60/60/60
f  61/61/61 62/62/62 63/63/63
f  64/64/64 63/63/63 62/62/62
f  63/63/63 64/64/64 65/65/65
f  66/66/66 65/65/65 64/64/64
f  65/65/65 66/66/66 67/67/67
f  68/68/68 67/67/67 66/66/66
f  67/67/67 68/68/68 69/69/69
f  70/70/70 69/69/69 68/68/68
f  69/69/69 70/70/70 71/71/71
f  72/72/72 71/71/71 70/70/70
f  71/71/71 72/72/72 30/30/30
f  31/31/31 30/30/30 72/72/72
f  58/58/58 73/73/73 59/59/59
f  74/74/74 59/59/59 73/73/73
f  59/59/59 74/74/74 60/60/60
f  75/75/75 60/60/60 74/74/74
f  60/60/60 75/75/75 62/62/62
f  76/76/76 62/62/62 75/75/75
f  62/62/62 76/76/76 64/64/64
f  77/77/77 64/64/64 76/76/76
f  64/64/64 77/77/77 66/66/66
f  66/66/66 77/77/77 68/68/68
f  78/78/78 68/68/68 77/77/77
f  79/79/79 68/68/68 78/78/78
f  68/68/68 79/79/79 70/70/70
f  80/80/80 70/70/70 79/79/79
f  70/70/70 80/80/80 72/72/72
f  72/72/72 80/80/80 31/31/31
f  31/31/31 80/80/80 57/57/57
f  55/55/55 57/57/57 80/80/80
f  81/81/81 82/82/82 83/83/83
f  84/84/84 83/83/83 82/82/82
f  85/85/85 83/83/83 84/84/84
f  86/86/86 83/83/83 85/85/85
f  87/87/87 83/83/83 86/86/86
f  88/88/88 83/83/83 87/87/87
f  89/89/89 83/83/83 88/88/88
f  90/90/90 83/83/83 89/89/89
f  91/91/91 83/83/83 90/90/90
f  92/92/92 83/83/83 91/91/91
f  93/93/93 83/83/83 92/92/92
f  94/94/94 83/83/83 93/93/93
f  95/95/95 83/83/83 94/94/94
f  96/96/96 83/83/83 95/95/95
f  97/97/97 83/83/83 96/96/96
f  83/83/83 97/97/97 81/81/81
f  98/98/98 99/99/99 100/100/100
f  101/101/101 100/100/100 99/99/99
f  102/102/102 100/100/100 101/101/101
f  103/103/103 100/100/100 102/102/102
f  104/104/104 100/100/100 103/103/103
f  105/105/105 100/100/100 104/104/104
f  106/106/106 100/100/100 105/105/105
f  107/107/107 100/100/100 106/106/106
f  108/108/108 100/100/100 107/107/107
f  109/109/109 100/100/100 108/108/108
f  110/110/110 100/100/100 109/109/109
f  111/111/111 100/100/100 110/110/110
f  112/112/112 100/100/100 111/111/111
f  113/113/113 100/100/100 112/112/112
f  114/114/114 100/100/100 113/113/113
f  100/100/100 114/114/114 98/98/98

g
