# Noesis .obj export.
#
mtllib l1001.mtl
g
v  0.126893 -0.276599 0.040536
v  0.142399 -0.273519 0.015022
v  0.124242 -0.279011 0.026851
v  0.123673 -0.280508 0.019396
v  0.143163 -0.273892 0.014696
v  0.130910 -0.282853 0.052290
v  0.145750 -0.268689 0.040177
v  0.141075 -0.271374 0.024481
v  0.163179 -0.272998 0.000078
v  0.143163 -0.273892 0.014696
v  0.123673 -0.280508 0.019396
v  0.163179 -0.272998 0.000078
v  0.169518 -0.259384 0.030154
v  0.154066 -0.251740 0.025041
v  0.123673 -0.280507 -0.019240
v  0.130910 -0.282853 -0.052134
v  0.143163 -0.273892 -0.013116
v  0.145750 -0.268689 -0.039587
v  0.169518 -0.259383 -0.029995
v  0.140929 -0.271175 -0.026360
v  0.154066 -0.251740 -0.024885
v  0.142399 -0.273519 -0.013850
v  0.143163 -0.273892 -0.013116
v  0.124242 -0.279011 -0.026696
v  0.123673 -0.280507 -0.019240
v  0.126893 -0.276599 -0.040380
v  0.228968 -0.239452 0.104730
v  0.181837 -0.271516 0.000078
v  0.217573 -0.269089 0.000078
v  0.228968 -0.239452 -0.104571
v  0.169518 -0.259384 0.030154
v  0.163179 -0.272998 0.000078
v  0.169518 -0.259383 -0.029995
v  0.179164 -0.233926 -0.106650
v  0.247948 -0.169151 -0.179379
v  0.192177 -0.164074 -0.193617
v  0.272032 -0.074496 -0.224249
v  0.208064 -0.066186 -0.237937
v  0.294770 0.007955 -0.221707
v  0.226426 0.020627 -0.236628
v  0.314591 0.082585 -0.195371
v  0.242242 0.095186 -0.205962
v  0.333500 0.129926 -0.164871
v  0.259755 0.151775 -0.170141
v  0.349564 0.173425 -0.099886
v  0.272753 0.199989 -0.109284
v  0.357439 0.191374 0.000076
v  0.185881 0.160065 -0.162644
v  0.178672 0.107021 -0.197066
v  0.168048 0.027457 -0.220953
v  0.159331 -0.061388 -0.216694
v  0.154214 -0.161946 -0.171660
v  0.150792 -0.225506 -0.094843
v  0.154066 -0.251740 -0.024885
v  0.145723 -0.259149 0.000078
v  0.163179 -0.272998 0.000078
v  0.154066 -0.251740 0.025041
v  0.193392 0.215425 -0.097923
v  0.281165 0.220605 0.000076
v  0.272753 0.199989 0.109438
v  0.349564 0.173425 0.100040
v  0.259755 0.151774 0.170295
v  0.333500 0.129925 0.165025
v  0.242242 0.095185 0.206116
v  0.314591 0.082585 0.195524
v  0.226426 0.020626 0.236868
v  0.294770 0.007955 0.221947
v  0.208064 -0.066187 0.233023
v  0.272032 -0.074497 0.219334
v  0.192177 -0.164075 0.202523
v  0.247948 -0.169151 0.188285
v  0.179164 -0.233927 0.106809
v  0.195683 0.232436 0.000056
v  0.193392 0.215425 0.098037
v  0.185881 0.160064 0.162757
v  0.178672 0.107020 0.197179
v  0.168048 0.027457 0.221100
v  0.159331 -0.061388 0.212061
v  0.154214 -0.160870 0.181107
v  0.150792 -0.225507 0.095002
v  -0.005316 -0.283132 0.078153
v  0.045824 -0.267249 0.047228
v  0.054121 -0.275537 0.066334
v  0.089511 -0.280909 0.029075
v  0.123673 -0.280508 0.019396
v  0.130910 -0.282853 0.052290
v  0.097313 -0.283787 0.069413
v  0.126893 -0.276599 0.040536
v  0.090686 -0.275618 0.054004
v  0.124242 -0.279011 0.026851
v  0.123673 -0.280508 0.019396
v  0.089511 -0.280909 0.029075
v  0.054579 -0.258973 0.070300
v  0.045824 -0.267249 0.047228
v  0.057306 -0.270757 0.086673
v  -0.005316 -0.300049 -0.077998
v  0.054121 -0.292455 -0.066178
v  0.045824 -0.284166 -0.047073
v  0.089511 -0.280909 -0.028920
v  0.123673 -0.280507 -0.019240
v  0.097313 -0.283787 -0.069257
v  0.057306 -0.287674 -0.086518
v  0.054579 -0.275891 -0.070145
v  0.045824 -0.284166 -0.047073
v  0.089511 -0.280909 -0.028920
v  0.090686 -0.275618 -0.053848
v  0.123673 -0.280507 -0.019240
v  0.124242 -0.279011 -0.026696
v  0.126893 -0.276599 -0.040380
v  0.130910 -0.282853 -0.052134
v  0.193392 0.215425 0.098037
v  0.195683 0.232436 0.000056
v  0.189045 0.020586 0.000073
v  0.193392 0.215425 -0.097923
v  0.185881 0.160065 -0.162644
v  0.178672 0.107021 -0.197066
v  0.168048 0.027457 -0.220953
v  0.159331 -0.061388 -0.216694
v  0.154214 -0.161946 -0.171660
v  0.150792 -0.225506 -0.094843
v  0.145723 -0.259149 0.000078
v  0.150792 -0.225507 0.095002
v  0.154214 -0.160870 0.181107
v  0.159331 -0.061388 0.212061
v  0.168048 0.027457 0.221100
v  0.178672 0.107020 0.197179
v  0.185881 0.160064 0.162757
v  0.357439 0.191374 0.000076
v  0.349564 0.173425 0.100040
v  0.276582 0.011507 0.000119
v  0.333500 0.129925 0.165025
v  0.314591 0.082585 0.195524
v  0.294770 0.007955 0.221947
v  0.272032 -0.074497 0.219334
v  0.247948 -0.169151 0.188285
v  0.228968 -0.239452 0.104730
v  0.217573 -0.269089 0.000078
v  0.228968 -0.239452 -0.104571
v  0.247948 -0.169151 -0.179379
v  0.272032 -0.074496 -0.224249
v  0.294770 0.007955 -0.221707
v  0.314591 0.082585 -0.195371
v  0.333500 0.129926 -0.164871
v  0.349564 0.173425 -0.099886

vt  0.879800 -0.631862 0.000000
vt  0.704551 -0.478204 0.000000
vt  0.866022 -0.655811 0.000000
vt  0.983869 -0.533737 0.000000
vt  0.804164 -0.375429 0.000000
vt  0.909307 -0.591215 0.000000
vt  0.744430 -0.425463 0.000000
vt  0.723993 -0.453706 0.000000
vt  0.541439 -0.301111 0.000000
vt  0.687996 -0.490119 0.000000
vt  0.842159 -0.674674 0.000000
vt  0.620228 -0.223402 0.000000
vt  0.576650 -0.252089 0.000000
vt  0.548611 -0.257094 0.000000
vt  0.983869 -0.533737 0.000000
vt  0.909307 -0.591215 0.000000
vt  0.804164 -0.375429 0.000000
vt  0.744430 -0.425463 0.000000
vt  0.576650 -0.252089 0.000000
vt  0.723993 -0.453706 0.000000
vt  0.548611 -0.257094 0.000000
vt  0.704551 -0.478204 0.000000
vt  0.687996 -0.490119 0.000000
vt  0.866022 -0.655811 0.000000
vt  0.842159 -0.674674 0.000000
vt  0.879800 -0.631862 0.000000
vt  0.874595 -0.761333 0.000000
vt  0.972697 -0.919067 0.000000
vt  0.988486 -0.897659 0.000000
vt  0.874595 -0.761333 0.000000
vt  0.905957 -0.906098 0.000000
vt  0.956617 -0.946250 0.000000
vt  0.905957 -0.906098 0.000000
vt  0.831175 -0.825342 0.000000
vt  0.808743 -0.682921 0.000000
vt  0.734536 -0.749083 0.000000
vt  0.709103 -0.547169 0.000000
vt  0.613473 -0.640978 0.000000
vt  0.617654 -0.430018 0.000000
vt  0.517545 -0.542485 0.000000
vt  0.523961 -0.324751 0.000000
vt  0.427523 -0.438858 0.000000
vt  0.440057 -0.226476 0.000000
vt  0.329963 -0.339933 0.000000
vt  0.351823 -0.127266 0.000000
vt  0.246534 -0.252665 0.000000
vt  0.230547 -0.007193 0.000000
vt  0.243360 -0.440509 0.000000
vt  0.344665 -0.533881 0.000000
vt  0.459253 -0.636544 0.000000
vt  0.552516 -0.709785 0.000000
vt  0.685514 -0.809151 0.000000
vt  0.783873 -0.876317 0.000000
vt  0.888228 -0.945865 0.000000
vt  0.891984 -0.989038 0.000000
vt  0.929549 -0.981098 0.000000
vt  0.888228 -0.945865 0.000000
vt  0.153069 -0.368874 0.000000
vt  0.119385 -0.125219 0.000000
vt  0.246534 -0.252665 0.000000
vt  0.351823 -0.127266 0.000000
vt  0.329963 -0.339933 0.000000
vt  0.440057 -0.226476 0.000000
vt  0.427523 -0.438858 0.000000
vt  0.523961 -0.324751 0.000000
vt  0.517545 -0.542485 0.000000
vt  0.617654 -0.430018 0.000000
vt  0.613473 -0.640978 0.000000
vt  0.709103 -0.547169 0.000000
vt  0.734536 -0.749083 0.000000
vt  0.808743 -0.682921 0.000000
vt  0.831175 -0.825342 0.000000
vt  0.011369 -0.255299 0.000000
vt  0.153069 -0.368874 0.000000
vt  0.243360 -0.440509 0.000000
vt  0.344665 -0.533881 0.000000
vt  0.459253 -0.636544 0.000000
vt  0.552516 -0.709785 0.000000
vt  0.685514 -0.809151 0.000000
vt  0.783873 -0.876317 0.000000
vt  0.618612 -0.979875 0.000000
vt  0.531494 -0.724974 0.000000
vt  0.461703 -0.747711 0.000000
vt  0.331894 -0.558912 0.000000
vt  0.142921 -0.428608 0.000000
vt  0.073494 -0.492194 0.000000
vt  0.246955 -0.633845 0.000000
vt  0.047536 -0.535194 0.000000
vt  0.220319 -0.695942 0.000000
vt  0.035836 -0.560224 0.000000
vt  0.013656 -0.581040 0.000000
vt  0.175850 -0.739246 0.000000
vt  0.381034 -0.836338 0.000000
vt  0.357901 -0.917976 0.000000
vt  0.415564 -0.783608 0.000000
vt  0.618612 -0.979875 0.000000
vt  0.461703 -0.747711 0.000000
vt  0.531494 -0.724974 0.000000
vt  0.331894 -0.558912 0.000000
vt  0.142921 -0.428608 0.000000
vt  0.246955 -0.633845 0.000000
vt  0.415564 -0.783608 0.000000
vt  0.381034 -0.836338 0.000000
vt  0.357901 -0.917976 0.000000
vt  0.175850 -0.739246 0.000000
vt  0.220319 -0.695942 0.000000
vt  0.013656 -0.581040 0.000000
vt  0.035836 -0.560224 0.000000
vt  0.047536 -0.535194 0.000000
vt  0.073494 -0.492194 0.000000
vt  0.274135 -0.980150 0.000000
vt  0.350774 -0.925208 0.000000
vt  0.198977 -0.780131 0.000000
vt  0.274135 -0.980150 0.000000
vt  0.214713 -0.990388 0.000000
vt  0.142614 -0.977334 0.000000
vt  0.082173 -0.919435 0.000000
vt  0.039910 -0.868089 0.000000
vt  0.011095 -0.781922 0.000000
vt  0.016073 -0.714881 0.000000
vt  0.044981 -0.633746 0.000000
vt  0.016073 -0.714881 0.000000
vt  0.011095 -0.781922 0.000000
vt  0.039910 -0.868089 0.000000
vt  0.082173 -0.919435 0.000000
vt  0.142614 -0.977334 0.000000
vt  0.214713 -0.990388 0.000000
vt  0.932139 -0.427608 0.000000
vt  0.975062 -0.315218 0.000000
vt  0.706205 -0.268483 0.000000
vt  0.989200 -0.221096 0.000000
vt  0.947741 -0.137939 0.000000
vt  0.865297 -0.078079 0.000000
vt  0.771201 -0.026862 0.000000
vt  0.649696 -0.011339 0.000000
vt  0.572438 -0.028763 0.000000
vt  0.464587 -0.097058 0.000000
vt  0.572438 -0.028763 0.000000
vt  0.649696 -0.011339 0.000000
vt  0.771201 -0.026862 0.000000
vt  0.865297 -0.078079 0.000000
vt  0.947741 -0.137939 0.000000
vt  0.989200 -0.221096 0.000000
vt  0.975062 -0.315218 0.000000

vn  -0.158725 0.974378 0.159357
vn  -0.517454 0.491934 -0.700173
vn  -0.198058 0.967275 -0.158596
vn  -0.237864 -0.176382 -0.955149
vn  -0.149925 -0.873868 -0.462468
vn  0.453881 -0.348429 0.820115
vn  0.559872 0.498251 0.662034
vn  -0.536826 0.826032 -0.171726
vn  -0.220236 -0.975435 -0.004766
vn  -0.149925 -0.873868 -0.462468
vn  -0.237864 -0.176382 -0.955149
vn  -0.220236 -0.975435 -0.004766
vn  -0.132109 -0.867967 0.478728
vn  -0.547538 -0.678760 0.489374
vn  -0.269537 -0.185519 0.944951
vn  0.459200 -0.344809 -0.818683
vn  -0.294362 -0.570644 0.766627
vn  0.557481 0.494501 -0.666846
vn  -0.123738 -0.868059 -0.480793
vn  -0.512578 0.847725 0.136477
vn  -0.561577 -0.667772 -0.488581
vn  -0.471693 0.707341 0.526473
vn  -0.294362 -0.570644 0.766627
vn  -0.201147 0.966865 0.157201
vn  -0.269537 -0.185519 0.944951
vn  -0.156698 0.974349 -0.161525
vn  0.570199 -0.753141 0.328104
vn  0.028025 -0.999607 -0.000011
vn  0.584169 -0.811632 -0.000001
vn  0.566221 -0.747093 -0.348203
vn  -0.132109 -0.867967 0.478728
vn  -0.220236 -0.975435 -0.004766
vn  -0.123738 -0.868059 -0.480793
vn  -0.240828 -0.824207 -0.512528
vn  0.666504 -0.558624 -0.493672
vn  -0.173134 -0.566046 -0.805988
vn  0.708733 -0.304221 -0.636512
vn  -0.112682 -0.196613 -0.973985
vn  0.774191 -0.083579 -0.627410
vn  -0.001665 0.192325 -0.981330
vn  0.783303 0.070133 -0.617671
vn  0.061516 0.426920 -0.902195
vn  0.816856 0.225892 -0.530772
vn  0.130552 0.650540 -0.748167
vn  0.874579 0.388793 -0.289745
vn  0.222755 0.868146 -0.443512
vn  0.900674 0.434495 -0.000001
vn  -0.670835 0.545250 -0.502675
vn  -0.702076 0.379506 -0.602548
vn  -0.770941 0.208783 -0.601714
vn  -0.841024 -0.070874 -0.536335
vn  -0.843565 -0.312408 -0.436806
vn  -0.848166 -0.446091 -0.285687
vn  -0.561577 -0.667772 -0.488581
vn  -0.881708 -0.471795 -0.000001
vn  -0.220236 -0.975435 -0.004766
vn  -0.547538 -0.678760 0.489374
vn  -0.592486 0.748579 -0.297641
vn  0.256360 0.966581 0.000013
vn  0.222637 0.868160 0.443545
vn  0.874580 0.388790 0.289746
vn  0.130351 0.650569 0.748176
vn  0.816859 0.225886 0.530769
vn  0.061210 0.427360 0.902007
vn  0.783457 0.070321 0.617454
vn  -0.006664 0.165269 0.986226
vn  0.765377 -0.097874 0.636097
vn  -0.110584 -0.170664 0.979104
vn  0.729985 -0.289269 0.619230
vn  -0.172227 -0.529829 0.830433
vn  0.654229 -0.546613 0.522684
vn  -0.241166 -0.837451 0.490424
vn  -0.601137 0.799146 -0.000020
vn  -0.592562 0.748551 0.297559
vn  -0.670981 0.545191 0.502544
vn  -0.702289 0.379570 0.602260
vn  -0.768273 0.192559 0.610473
vn  -0.853088 -0.045372 0.519791
vn  -0.833393 -0.308950 0.458264
vn  -0.851032 -0.448529 0.273068
vn  -0.951831 -0.247231 0.181371
vn  -0.425727 0.174827 -0.887802
vn  -0.098144 -0.994486 -0.036947
vn  -0.186598 -0.156244 -0.969932
vn  -0.237864 -0.176382 -0.955149
vn  0.453881 -0.348429 0.820115
vn  0.422362 -0.342616 0.839181
vn  -0.158725 0.974378 0.159357
vn  0.262703 0.961309 0.082897
vn  -0.198058 0.967275 -0.158596
vn  -0.237864 -0.176382 -0.955149
vn  -0.186598 -0.156244 -0.969932
vn  0.059265 0.983261 0.172294
vn  -0.425727 0.174827 -0.887802
vn  0.188178 -0.048700 0.980927
vn  -0.951831 -0.247229 -0.181374
vn  0.103596 -0.990925 0.085643
vn  -0.460699 0.066862 0.885034
vn  -0.140141 -0.030287 0.989668
vn  -0.269537 -0.185519 0.944951
vn  0.543056 -0.180127 -0.820149
vn  0.175852 -0.134499 -0.975185
vn  -0.117800 0.967007 -0.225876
vn  -0.460699 0.066862 0.885034
vn  -0.140141 -0.030287 0.989668
vn  0.035895 0.992404 -0.117670
vn  -0.269537 -0.185519 0.944951
vn  -0.201147 0.966865 0.157201
vn  -0.156698 0.974349 -0.161525
vn  0.459200 -0.344809 -0.818683
vn  -0.592562 0.748551 0.297559
vn  -0.601137 0.799146 -0.000020
vn  -0.995754 0.092053 -0.000007
vn  -0.592486 0.748579 -0.297641
vn  -0.670835 0.545250 -0.502675
vn  -0.702076 0.379506 -0.602548
vn  -0.770941 0.208783 -0.601714
vn  -0.841024 -0.070874 -0.536335
vn  -0.843565 -0.312408 -0.436806
vn  -0.848166 -0.446091 -0.285687
vn  -0.881708 -0.471795 -0.000001
vn  -0.851032 -0.448529 0.273068
vn  -0.833393 -0.308950 0.458264
vn  -0.853088 -0.045372 0.519791
vn  -0.768273 0.192559 0.610473
vn  -0.702289 0.379570 0.602260
vn  -0.670981 0.545191 0.502544
vn  0.900674 0.434495 -0.000001
vn  0.874580 0.388790 0.289746
vn  0.954276 -0.298926 -0.000007
vn  0.816859 0.225886 0.530769
vn  0.783457 0.070321 0.617454
vn  0.765377 -0.097874 0.636097
vn  0.729985 -0.289269 0.619230
vn  0.654229 -0.546613 0.522684
vn  0.570199 -0.753141 0.328104
vn  0.584169 -0.811632 -0.000001
vn  0.566221 -0.747093 -0.348203
vn  0.666504 -0.558624 -0.493672
vn  0.708733 -0.304221 -0.636512
vn  0.774191 -0.083579 -0.627410
vn  0.783303 0.070133 -0.617671
vn  0.816856 0.225892 -0.530772
vn  0.874579 0.388793 -0.289745

g L1001
usemtl L1001_3
f  1/1/1 2/2/2 3/3/3
f  4/4/4 5/5/5 6/6/6
f  7/7/7 6/6/6 5/5/5
f  6/6/6 7/7/7 1/1/1
f  8/8/8 1/1/1 7/7/7
f  1/1/1 8/8/8 2/2/2
f  9/9/9 2/2/2 8/8/8
f  10/10/10 2/2/2 9/9/9
f  2/2/2 10/10/10 3/3/3
f  11/11/11 3/3/3 10/10/10
f  5/5/5 12/12/12 7/7/7
f  13/13/13 7/7/7 12/12/12
f  7/7/7 13/13/13 8/8/8
f  14/14/14 8/8/8 13/13/13
f  8/8/8 14/14/14 9/9/9
f  15/15/15 16/16/16 17/17/17
f  18/18/18 17/17/17 16/16/16
f  17/17/17 18/18/18 12/12/12
f  12/12/12 18/18/18 19/19/19
f  20/20/20 19/19/19 18/18/18
f  19/19/19 20/20/20 21/21/21
f  21/21/21 20/20/20 9/9/9
f  22/22/22 9/9/9 20/20/20
f  9/9/9 22/22/22 23/23/23
f  24/24/24 23/23/23 22/22/22
f  23/23/23 24/24/24 25/25/25
f  24/24/24 22/22/22 26/26/26
f  20/20/20 26/26/26 22/22/22
f  18/18/18 26/26/26 20/20/20
f  26/26/26 18/18/18 16/16/16
f  27/27/27 28/28/28 29/29/29
f  30/30/30 29/29/29 28/28/28
f  27/27/27 31/31/31 28/28/28
f  32/32/32 28/28/28 31/31/31
f  33/33/33 28/28/28 32/32/32
f  28/28/28 33/33/33 30/30/30
f  34/34/34 30/30/30 33/33/33
f  30/30/30 34/34/34 35/35/35
f  36/36/36 35/35/35 34/34/34
f  35/35/35 36/36/36 37/37/37
f  38/38/38 37/37/37 36/36/36
f  37/37/37 38/38/38 39/39/39
f  40/40/40 39/39/39 38/38/38
f  39/39/39 40/40/40 41/41/41
f  42/42/42 41/41/41 40/40/40
f  41/41/41 42/42/42 43/43/43
f  44/44/44 43/43/43 42/42/42
f  43/43/43 44/44/44 45/45/45
f  46/46/46 45/45/45 44/44/44
f  45/45/45 46/46/46 47/47/47
f  44/44/44 48/48/48 46/46/46
f  48/48/48 44/44/44 49/49/49
f  42/42/42 49/49/49 44/44/44
f  49/49/49 42/42/42 50/50/50
f  40/40/40 50/50/50 42/42/42
f  38/38/38 50/50/50 40/40/40
f  50/50/50 38/38/38 51/51/51
f  51/51/51 38/38/38 52/52/52
f  36/36/36 52/52/52 38/38/38
f  52/52/52 36/36/36 53/53/53
f  34/34/34 53/53/53 36/36/36
f  33/33/33 53/53/53 34/34/34
f  54/54/54 53/53/53 33/33/33
f  53/53/53 54/54/54 55/55/55
f  56/56/56 55/55/55 54/54/54
f  57/57/57 55/55/55 56/56/56
f  48/48/48 58/58/58 46/46/46
f  59/59/59 46/46/46 58/58/58
f  46/46/46 59/59/59 47/47/47
f  60/60/60 47/47/47 59/59/59
f  47/47/47 60/60/60 61/61/61
f  62/62/62 61/61/61 60/60/60
f  61/61/61 62/62/62 63/63/63
f  64/64/64 63/63/63 62/62/62
f  63/63/63 64/64/64 65/65/65
f  66/66/66 65/65/65 64/64/64
f  65/65/65 66/66/66 67/67/67
f  68/68/68 67/67/67 66/66/66
f  67/67/67 68/68/68 69/69/69
f  70/70/70 69/69/69 68/68/68
f  69/69/69 70/70/70 71/71/71
f  72/72/72 71/71/71 70/70/70
f  71/71/71 72/72/72 27/27/27
f  31/31/31 27/27/27 72/72/72
f  58/58/58 73/73/73 59/59/59
f  74/74/74 59/59/59 73/73/73
f  59/59/59 74/74/74 60/60/60
f  75/75/75 60/60/60 74/74/74
f  60/60/60 75/75/75 62/62/62
f  76/76/76 62/62/62 75/75/75
f  62/62/62 76/76/76 64/64/64
f  77/77/77 64/64/64 76/76/76
f  64/64/64 77/77/77 66/66/66
f  66/66/66 77/77/77 68/68/68
f  78/78/78 68/68/68 77/77/77
f  79/79/79 68/68/68 78/78/78
f  68/68/68 79/79/79 70/70/70
f  80/80/80 70/70/70 79/79/79
f  70/70/70 80/80/80 72/72/72
f  72/72/72 80/80/80 31/31/31
f  31/31/31 80/80/80 57/57/57
f  55/55/55 57/57/57 80/80/80
f  81/81/81 82/82/82 83/83/83
f  84/84/84 83/83/83 82/82/82
f  85/85/85 86/86/86 87/87/87
f  88/88/88 87/87/87 86/86/86
f  87/87/87 88/88/88 89/89/89
f  90/90/90 89/89/89 88/88/88
f  91/91/91 89/89/89 90/90/90
f  92/92/92 89/89/89 91/91/91
f  89/89/89 92/92/92 93/93/93
f  94/94/94 93/93/93 92/92/92
f  81/81/81 93/93/93 94/94/94
f  93/93/93 81/81/81 95/95/95
f  83/83/83 95/95/95 81/81/81
f  95/95/95 83/83/83 87/87/87
f  84/84/84 87/87/87 83/83/83
f  87/87/87 84/84/84 85/85/85
f  87/87/87 89/89/89 95/95/95
f  93/93/93 95/95/95 89/89/89
f  96/96/96 97/97/97 98/98/98
f  99/99/99 98/98/98 97/97/97
f  100/100/100 99/99/99 101/101/101
f  97/97/97 101/101/101 99/99/99
f  101/101/101 97/97/97 102/102/102
f  96/96/96 102/102/102 97/97/97
f  102/102/102 96/96/96 103/103/103
f  104/104/104 103/103/103 96/96/96
f  105/105/105 103/103/103 104/104/104
f  103/103/103 105/105/105 106/106/106
f  107/107/107 106/106/106 105/105/105
f  108/108/108 106/106/106 107/107/107
f  109/109/109 106/106/106 108/108/108
f  106/106/106 109/109/109 101/101/101
f  110/110/110 101/101/101 109/109/109
f  101/101/101 110/110/110 100/100/100
f  103/103/103 106/106/106 102/102/102
f  101/101/101 102/102/102 106/106/106
f  111/111/111 112/112/112 113/113/113
f  114/114/114 113/113/113 112/112/112
f  115/115/115 113/113/113 114/114/114
f  116/116/116 113/113/113 115/115/115
f  117/117/117 113/113/113 116/116/116
f  118/118/118 113/113/113 117/117/117
f  119/119/119 113/113/113 118/118/118
f  120/120/120 113/113/113 119/119/119
f  121/121/121 113/113/113 120/120/120
f  122/122/122 113/113/113 121/121/121
f  123/123/123 113/113/113 122/122/122
f  124/124/124 113/113/113 123/123/123
f  125/125/125 113/113/113 124/124/124
f  126/126/126 113/113/113 125/125/125
f  127/127/127 113/113/113 126/126/126
f  113/113/113 127/127/127 111/111/111
f  128/128/128 129/129/129 130/130/130
f  131/131/131 130/130/130 129/129/129
f  132/132/132 130/130/130 131/131/131
f  133/133/133 130/130/130 132/132/132
f  134/134/134 130/130/130 133/133/133
f  135/135/135 130/130/130 134/134/134
f  136/136/136 130/130/130 135/135/135
f  137/137/137 130/130/130 136/136/136
f  138/138/138 130/130/130 137/137/137
f  139/139/139 130/130/130 138/138/138
f  140/140/140 130/130/130 139/139/139
f  141/141/141 130/130/130 140/140/140
f  142/142/142 130/130/130 141/141/141
f  143/143/143 130/130/130 142/142/142
f  144/144/144 130/130/130 143/143/143
f  130/130/130 144/144/144 128/128/128

g
