# Noesis .obj export.
#
mtllib l1104.mtl
g
v  0.532806 -0.114219 0.000008
v  0.576362 -0.118844 0.341244
v  0.520698 -0.282384 0.249931
v  0.470030 -0.438405 0.169550
v  0.532833 -0.114156 0.000008
v  0.467865 -0.411564 0.000008
v  0.470030 -0.438404 -0.169535
v  0.520698 -0.282384 -0.249916
v  0.576362 -0.118843 -0.341229
v  0.532806 -0.114219 0.000008
v  0.532833 -0.114156 0.000008
v  0.616599 0.035430 0.243011
v  0.576362 -0.118844 0.341244
v  0.616599 0.035430 -0.242995
v  0.532833 -0.114156 0.000008
v  0.576362 -0.118843 -0.341229
v  0.180988 -0.000524 0.238773
v  0.308261 0.101061 0.204352
v  0.218325 0.113834 0.206784
v  0.247608 0.225636 0.123836
v  0.334118 0.191376 0.123078
v  0.321316 0.095962 0.185201
v  0.269072 -0.032074 0.235037
v  0.401792 0.043193 0.160284
v  0.362803 -0.055006 0.223051
v  0.483928 0.024674 0.172661
v  0.449911 -0.086638 0.255266
v  0.616599 0.035430 0.243011
v  0.576362 -0.118844 0.341244
v  0.146938 -0.114035 0.205484
v  0.235809 -0.143041 0.203113
v  0.121172 -0.211509 0.108260
v  0.210830 -0.237971 0.107597
v  0.115413 -0.247078 0.000008
v  0.204515 -0.274772 0.000008
v  0.210830 -0.237971 -0.107581
v  0.220925 -0.263242 0.000008
v  0.295894 -0.263917 -0.108956
v  0.304663 -0.264221 0.000008
v  0.393219 -0.306666 0.000008
v  0.295894 -0.263917 0.108971
v  0.389268 -0.323995 0.124013
v  0.426827 -0.202277 0.169629
v  0.520698 -0.282384 0.249931
v  0.335283 -0.153491 0.150161
v  0.248292 -0.144941 0.189242
v  0.470030 -0.438405 0.169550
v  0.467865 -0.411564 0.000008
v  0.389268 -0.323995 -0.123997
v  0.470030 -0.438404 -0.169535
v  0.520698 -0.282384 -0.249916
v  0.426827 -0.202277 -0.169613
v  0.449911 -0.086638 -0.255250
v  0.576362 -0.118843 -0.341229
v  0.616599 0.035430 -0.242995
v  0.483928 0.024674 -0.172645
v  0.362803 -0.055005 -0.223035
v  0.401792 0.038078 -0.160268
v  0.269072 -0.032074 -0.235021
v  0.335283 -0.153490 -0.150146
v  0.248292 -0.144941 -0.189227
v  0.235809 -0.143041 -0.203098
v  0.684575 0.193637 -0.178473
v  0.526193 0.160147 -0.125222
v  0.428819 0.151362 -0.102059
v  0.335610 0.199981 0.000008
v  0.334118 0.191376 -0.123061
v  0.321316 0.095962 -0.185185
v  0.308261 0.101062 -0.204336
v  0.247608 0.225637 -0.123820
v  0.219894 0.132680 -0.202325
v  0.180988 -0.000523 -0.238757
v  0.146938 -0.114035 -0.205468
v  0.121172 -0.211509 -0.108245
v  0.666847 0.171998 0.000008
v  0.519572 0.148679 0.000008
v  0.428587 0.141474 0.000008
v  0.428819 0.151362 0.102075
v  0.526193 0.160147 0.125239
v  0.684575 0.193637 0.178490
v  0.616599 0.035430 0.243011
v  0.532833 -0.114156 0.000008
v  0.684575 0.193637 0.178490
v  0.666847 0.171998 0.000008
v  0.616599 0.035430 -0.242995
v  0.684575 0.193637 -0.178473
v  0.335610 0.199981 0.000008
v  0.342047 0.206151 0.116486
v  0.334118 0.191376 0.123078
v  0.247608 0.225636 0.123836
v  0.254635 0.243720 0.117332
v  0.348076 0.222632 0.000008
v  0.263693 0.258538 0.000008
v  0.254635 0.243721 -0.117316
v  0.335618 0.199998 0.000008
v  0.342047 0.206152 -0.116469
v  0.247608 0.225637 -0.123820
v  0.334118 0.191376 -0.123061
v  0.121172 -0.211509 0.108260
v  0.234776 0.014174 0.000008
v  0.115413 -0.247078 0.000008
v  0.121172 -0.211509 -0.108245
v  0.146938 -0.114035 0.205484
v  0.180988 -0.000524 0.238773
v  0.218325 0.113834 0.206784
v  0.247608 0.225636 0.123836
v  0.254635 0.243720 0.117332
v  0.263693 0.258538 0.000008
v  0.254635 0.243721 -0.117316
v  0.247608 0.225637 -0.123820
v  0.219894 0.132680 -0.202325
v  0.180988 -0.000523 -0.238757
v  0.146938 -0.114035 -0.205468

vt  0.648511 -0.986270 0.000000
vt  0.650037 -0.621140 0.000000
vt  0.494562 -0.739826 0.000000
vt  0.321076 -0.805530 0.000000
vt  0.648381 -0.986269 0.000000
vt  0.344490 -0.983029 0.000000
vt  0.321076 -0.805530 0.000000
vt  0.494562 -0.739826 0.000000
vt  0.650037 -0.621140 0.000000
vt  0.648511 -0.986270 0.000000
vt  0.648579 -0.986271 0.000000
vt  0.804439 -0.736579 0.000000
vt  0.650037 -0.621140 0.000000
vt  0.804439 -0.736579 0.000000
vt  0.648579 -0.986271 0.000000
vt  0.650037 -0.621140 0.000000
vt  0.344951 -0.157647 0.000000
vt  0.496635 -0.163186 0.000000
vt  0.449209 -0.079509 0.000000
vt  0.554593 -0.018268 0.000000
vt  0.597300 -0.107569 0.000000
vt  0.510345 -0.195956 0.000000
vt  0.391218 -0.250041 0.000000
vt  0.567067 -0.258612 0.000000
vt  0.451013 -0.343901 0.000000
vt  0.643121 -0.342021 0.000000
vt  0.521274 -0.459642 0.000000
vt  0.752998 -0.467216 0.000000
vt  0.617239 -0.621905 0.000000
vt  0.231746 -0.205558 0.000000
vt  0.267015 -0.293565 0.000000
vt  0.124105 -0.253993 0.000000
vt  0.158034 -0.350353 0.000000
vt  0.011328 -0.279642 0.000000
vt  0.035350 -0.369865 0.000000
vt  0.158034 -0.350353 0.000000
vt  0.045938 -0.395088 0.000000
vt  0.187282 -0.451272 0.000000
vt  0.063133 -0.467030 0.000000
vt  0.062454 -0.566754 0.000000
vt  0.187282 -0.451272 0.000000
vt  0.211019 -0.581166 0.000000
vt  0.352364 -0.510026 0.000000
vt  0.412012 -0.657104 0.000000
vt  0.318637 -0.402594 0.000000
vt  0.281648 -0.322268 0.000000
vt  0.238934 -0.758964 0.000000
vt  0.046063 -0.716471 0.000000
vt  0.211019 -0.581166 0.000000
vt  0.238934 -0.758964 0.000000
vt  0.412012 -0.657104 0.000000
vt  0.352364 -0.510026 0.000000
vt  0.521274 -0.459642 0.000000
vt  0.617239 -0.621905 0.000000
vt  0.752998 -0.467216 0.000000
vt  0.643121 -0.342021 0.000000
vt  0.451013 -0.343901 0.000000
vt  0.567067 -0.258612 0.000000
vt  0.391218 -0.250041 0.000000
vt  0.318637 -0.402594 0.000000
vt  0.281648 -0.322268 0.000000
vt  0.267015 -0.293565 0.000000
vt  0.939953 -0.364224 0.000000
vt  0.782776 -0.249379 0.000000
vt  0.674868 -0.169415 0.000000
vt  0.654301 -0.011361 0.000000
vt  0.597300 -0.107569 0.000000
vt  0.510345 -0.195956 0.000000
vt  0.496635 -0.163186 0.000000
vt  0.554593 -0.018268 0.000000
vt  0.449209 -0.079509 0.000000
vt  0.344951 -0.157647 0.000000
vt  0.231746 -0.205558 0.000000
vt  0.124105 -0.253993 0.000000
vt  0.989321 -0.164539 0.000000
vt  0.834120 -0.106865 0.000000
vt  0.735559 -0.059194 0.000000
vt  0.674868 -0.169415 0.000000
vt  0.782776 -0.249379 0.000000
vt  0.939953 -0.364224 0.000000
vt  0.804439 -0.736579 0.000000
vt  0.648775 -0.986271 0.000000
vt  0.987158 -0.802680 0.000000
vt  0.961260 -0.985865 0.000000
vt  0.804439 -0.736579 0.000000
vt  0.987158 -0.802680 0.000000
vt  0.034235 -0.771905 0.000000
vt  0.226810 -0.812569 0.000000
vt  0.246144 -0.796145 0.000000
vt  0.268640 -0.972102 0.000000
vt  0.232716 -0.978289 0.000000
vt  0.025643 -0.837930 0.000000
vt  0.027658 -0.979093 0.000000
vt  0.232716 -0.978289 0.000000
vt  0.034219 -0.771922 0.000000
vt  0.226810 -0.812569 0.000000
vt  0.268640 -0.972102 0.000000
vt  0.246144 -0.796145 0.000000
vt  0.031319 -0.105161 0.000000
vt  0.210401 -0.018484 0.000000
vt  0.015825 -0.021660 0.000000
vt  0.031319 -0.105161 0.000000
vt  0.101935 -0.157843 0.000000
vt  0.189684 -0.189153 0.000000
vt  0.279859 -0.154106 0.000000
vt  0.348018 -0.102903 0.000000
vt  0.362258 -0.100979 0.000000
vt  0.376631 -0.018542 0.000000
vt  0.362258 -0.100979 0.000000
vt  0.348018 -0.102903 0.000000
vt  0.279859 -0.154106 0.000000
vt  0.189684 -0.189153 0.000000
vt  0.101935 -0.157843 0.000000

vn  0.301928 0.300380 0.904772
vn  -0.098841 0.090159 0.991011
vn  0.364840 -0.557103 0.746008
vn  0.104865 -0.897324 0.428734
vn  0.955266 -0.295749 -0.000000
vn  0.219914 -0.975519 -0.000001
vn  0.104865 -0.897323 -0.428736
vn  0.364889 -0.557113 -0.745977
vn  -0.099029 0.090239 -0.990984
vn  0.301927 0.300382 -0.904771
vn  0.937999 -0.323663 -0.124100
vn  0.937999 -0.323663 -0.124100
vn  0.937999 -0.323663 -0.124100
vn  0.937999 -0.323664 0.124099
vn  0.937999 -0.323664 0.124099
vn  0.937999 -0.323664 0.124099
vn  -0.675501 0.202371 0.709045
vn  0.500490 0.287586 0.816581
vn  -0.615945 0.493794 0.613823
vn  -0.704091 0.525043 0.478106
vn  0.487464 0.490444 0.722387
vn  0.669258 0.212912 0.711873
vn  0.156106 -0.086813 0.983918
vn  0.181843 0.439801 0.879493
vn  -0.090884 0.011838 0.995791
vn  -0.250743 0.527522 0.811695
vn  -0.485529 0.130436 0.864435
vn  0.121324 0.373945 0.919481
vn  -0.098841 0.090159 0.991011
vn  -0.783362 -0.129397 0.607948
vn  0.232014 -0.537051 0.811015
vn  -0.853397 -0.377537 0.359415
vn  -0.157689 -0.812676 0.560975
vn  -0.859756 -0.510705 -0.000000
vn  0.129069 -0.991636 -0.000001
vn  -0.157689 -0.812675 -0.560976
vn  0.227042 -0.973885 -0.000001
vn  -0.335978 -0.734939 -0.589053
vn  -0.237820 -0.971309 -0.000001
vn  -0.656798 -0.754067 -0.000001
vn  -0.335978 -0.734940 0.589051
vn  -0.735364 -0.526004 0.427271
vn  -0.558416 -0.273598 0.783145
vn  0.364840 -0.557103 0.746008
vn  -0.123316 -0.460565 0.879018
vn  0.442204 -0.567058 0.694910
vn  0.104865 -0.897324 0.428734
vn  0.219914 -0.975519 -0.000001
vn  -0.735364 -0.526003 -0.427272
vn  0.104865 -0.897323 -0.428736
vn  0.364889 -0.557113 -0.745977
vn  -0.558416 -0.273596 -0.783145
vn  -0.485529 0.130437 -0.864435
vn  -0.099029 0.090239 -0.990984
vn  0.121387 0.373935 -0.919477
vn  -0.259469 0.528171 -0.808524
vn  -0.092382 0.020632 -0.995510
vn  0.168517 0.446158 -0.878945
vn  0.158423 -0.086068 -0.983613
vn  -0.123316 -0.460564 -0.879019
vn  0.442206 -0.567057 -0.694910
vn  0.232016 -0.537049 -0.811016
vn  0.646618 0.601912 -0.468602
vn  -0.281752 0.851248 -0.442710
vn  0.169794 0.847885 -0.502256
vn  0.957542 0.288294 0.000000
vn  0.498960 0.491375 -0.713856
vn  0.675974 0.210527 -0.706214
vn  0.517800 0.261331 -0.814610
vn  -0.702346 0.544400 -0.458627
vn  -0.600805 0.516497 -0.610134
vn  -0.675325 0.192969 -0.711828
vn  -0.783362 -0.129396 -0.607948
vn  -0.853397 -0.377536 -0.359416
vn  0.809734 0.586797 0.000001
vn  -0.113782 0.993506 0.000001
vn  0.235030 0.971988 0.000001
vn  0.172885 0.850116 0.497407
vn  -0.281752 0.851248 0.442712
vn  0.646618 0.601911 0.468603
vn  0.121324 0.373945 0.919481
vn  -0.366021 -0.930607 -0.000001
vn  0.646618 0.601911 0.468603
vn  0.809734 0.586797 0.000001
vn  0.121387 0.373935 -0.919477
vn  0.646618 0.601912 -0.468602
vn  0.957542 0.288294 0.000000
vn  0.825467 0.283486 0.488098
vn  0.487464 0.490444 0.722387
vn  -0.704091 0.525043 0.478106
vn  -0.418642 0.774531 0.474174
vn  0.927581 0.373621 0.000001
vn  -0.446673 0.894697 0.000001
vn  -0.418642 0.774531 -0.474174
vn  0.892088 -0.451863 -0.000001
vn  0.825472 0.283478 -0.488094
vn  -0.702346 0.544400 -0.458627
vn  0.498960 0.491375 -0.713856
vn  -0.853397 -0.377537 0.359415
vn  -0.962188 0.272379 0.002128
vn  -0.859756 -0.510705 -0.000000
vn  -0.853397 -0.377536 -0.359416
vn  -0.783362 -0.129397 0.607948
vn  -0.675501 0.202371 0.709045
vn  -0.615945 0.493794 0.613823
vn  -0.704091 0.525043 0.478106
vn  -0.418642 0.774531 0.474174
vn  -0.446673 0.894697 0.000001
vn  -0.418642 0.774531 -0.474174
vn  -0.702346 0.544400 -0.458627
vn  -0.600805 0.516497 -0.610134
vn  -0.675325 0.192969 -0.711828
vn  -0.783362 -0.129396 -0.607948

g L1104
usemtl L1104_3
f  1/1/1 2/2/2 3/3/3
f  3/3/3 4/4/4 5/5/5
f  6/6/6 5/5/5 4/4/4
f  5/5/5 6/6/6 7/7/7
f  8/8/8 5/5/5 7/7/7
f  9/9/9 10/10/10 8/8/8
f  11/11/11 12/12/12 13/13/13
f  14/14/14 15/15/15 16/16/16
f  17/17/17 18/18/18 19/19/19
f  20/20/20 19/19/19 21/21/21
f  18/18/18 21/21/21 19/19/19
f  21/21/21 18/18/18 22/22/22
f  23/23/23 22/22/22 18/18/18
f  22/22/22 23/23/23 24/24/24
f  25/25/25 24/24/24 23/23/23
f  24/24/24 25/25/25 26/26/26
f  27/27/27 26/26/26 25/25/25
f  26/26/26 27/27/27 28/28/28
f  29/29/29 28/28/28 27/27/27
f  18/18/18 17/17/17 23/23/23
f  30/30/30 23/23/23 17/17/17
f  23/23/23 30/30/30 31/31/31
f  32/32/32 31/31/31 30/30/30
f  31/31/31 32/32/32 33/33/33
f  34/34/34 33/33/33 32/32/32
f  33/33/33 34/34/34 35/35/35
f  36/36/36 35/35/35 34/34/34
f  35/35/35 36/36/36 37/37/37
f  38/38/38 37/37/37 36/36/36
f  37/37/37 38/38/38 39/39/39
f  40/40/40 39/39/39 38/38/38
f  39/39/39 40/40/40 41/41/41
f  42/42/42 41/41/41 40/40/40
f  41/41/41 42/42/42 43/43/43
f  44/44/44 43/43/43 42/42/42
f  43/43/43 44/44/44 27/27/27
f  29/29/29 27/27/27 44/44/44
f  27/27/27 25/25/25 43/43/43
f  45/45/45 43/43/43 25/25/25
f  43/43/43 45/45/45 41/41/41
f  33/33/33 41/41/41 45/45/45
f  41/41/41 33/33/33 37/37/37
f  35/35/35 37/37/37 33/33/33
f  25/25/25 23/23/23 45/45/45
f  46/46/46 45/45/45 23/23/23
f  45/45/45 46/46/46 33/33/33
f  31/31/31 33/33/33 46/46/46
f  31/31/31 46/46/46 23/23/23
f  41/41/41 37/37/37 39/39/39
f  44/44/44 42/42/42 47/47/47
f  48/48/48 47/47/47 42/42/42
f  42/42/42 40/40/40 48/48/48
f  49/49/49 48/48/48 40/40/40
f  48/48/48 49/49/49 50/50/50
f  51/51/51 50/50/50 49/49/49
f  40/40/40 38/38/38 49/49/49
f  52/52/52 49/49/49 38/38/38
f  49/49/49 52/52/52 51/51/51
f  53/53/53 51/51/51 52/52/52
f  51/51/51 53/53/53 54/54/54
f  55/55/55 54/54/54 53/53/53
f  55/55/55 53/53/53 56/56/56
f  57/57/57 56/56/56 53/53/53
f  56/56/56 57/57/57 58/58/58
f  59/59/59 58/58/58 57/57/57
f  53/53/53 52/52/52 57/57/57
f  60/60/60 57/57/57 52/52/52
f  57/57/57 60/60/60 59/59/59
f  61/61/61 59/59/59 60/60/60
f  59/59/59 61/61/61 62/62/62
f  36/36/36 62/62/62 61/61/61
f  61/61/61 60/60/60 36/36/36
f  38/38/38 36/36/36 60/60/60
f  52/52/52 38/38/38 60/60/60
f  63/63/63 55/55/55 64/64/64
f  56/56/56 64/64/64 55/55/55
f  64/64/64 56/56/56 65/65/65
f  58/58/58 65/65/65 56/56/56
f  66/66/66 65/65/65 67/67/67
f  58/58/58 67/67/67 65/65/65
f  67/67/67 58/58/58 68/68/68
f  59/59/59 68/68/68 58/58/58
f  68/68/68 59/59/59 69/69/69
f  70/70/70 67/67/67 71/71/71
f  69/69/69 71/71/71 67/67/67
f  71/71/71 69/69/69 72/72/72
f  59/59/59 72/72/72 69/69/69
f  72/72/72 59/59/59 73/73/73
f  62/62/62 73/73/73 59/59/59
f  73/73/73 62/62/62 74/74/74
f  36/36/36 74/74/74 62/62/62
f  74/74/74 36/36/36 34/34/34
f  64/64/64 75/75/75 63/63/63
f  75/75/75 64/64/64 76/76/76
f  65/65/65 76/76/76 64/64/64
f  76/76/76 65/65/65 77/77/77
f  66/66/66 77/77/77 65/65/65
f  77/77/77 66/66/66 78/78/78
f  21/21/21 78/78/78 66/66/66
f  78/78/78 21/21/21 24/24/24
f  22/22/22 24/24/24 21/21/21
f  24/24/24 26/26/26 78/78/78
f  79/79/79 78/78/78 26/26/26
f  78/78/78 79/79/79 76/76/76
f  75/75/75 76/76/76 79/79/79
f  78/78/78 76/76/76 77/77/77
f  67/67/67 68/68/68 69/69/69
f  28/28/28 79/79/79 26/26/26
f  75/75/75 79/79/79 80/80/80
f  28/28/28 80/80/80 79/79/79
f  81/81/81 82/82/82 83/83/83
f  84/84/84 83/83/83 82/82/82
f  85/85/85 86/86/86 82/82/82
f  84/84/84 82/82/82 86/86/86
f  87/87/87 88/88/88 89/89/89
f  90/90/90 89/89/89 88/88/88
f  90/90/90 88/88/88 91/91/91
f  92/92/92 91/91/91 88/88/88
f  91/91/91 92/92/92 93/93/93
f  94/94/94 93/93/93 92/92/92
f  88/88/88 95/95/95 92/92/92
f  96/96/96 92/92/92 95/95/95
f  92/92/92 96/96/96 94/94/94
f  97/97/97 94/94/94 96/96/96
f  97/97/97 96/96/96 98/98/98
f  87/87/87 98/98/98 96/96/96
f  99/99/99 100/100/100 101/101/101
f  102/102/102 101/101/101 100/100/100
f  99/99/99 103/103/103 100/100/100
f  104/104/104 100/100/100 103/103/103
f  100/100/100 104/104/104 105/105/105
f  105/105/105 106/106/106 100/100/100
f  107/107/107 100/100/100 106/106/106
f  100/100/100 107/107/107 108/108/108
f  108/108/108 109/109/109 100/100/100
f  110/110/110 100/100/100 109/109/109
f  100/100/100 110/110/110 111/111/111
f  111/111/111 112/112/112 100/100/100
f  113/113/113 100/100/100 112/112/112
f  100/100/100 113/113/113 102/102/102

g
