# Noesis .obj export.
#
mtllib l1103.mtl
g
v  0.135462 0.013650 -0.228157
v  0.164197 0.091614 -0.192504
v  0.223301 0.075149 -0.215534
v  0.215030 0.179716 -0.150389
v  0.121148 -0.060905 -0.218808
v  0.207303 -0.013290 -0.251388
v  0.302882 0.052912 -0.279836
v  0.278493 0.154333 -0.209217
v  0.265117 0.212946 -0.107759
v  0.258522 0.137317 -0.180794
v  0.250045 0.205728 -0.091822
v  0.503605 0.166468 -0.125808
v  0.297653 0.220410 -0.000038
v  0.526842 0.184592 -0.000038
v  0.503605 0.166467 0.125732
v  0.250045 0.205728 0.091747
v  0.258522 0.137316 0.180718
v  0.265117 0.212946 0.107684
v  0.278493 0.154332 0.209141
v  0.215030 0.179716 0.150314
v  0.302882 0.052911 0.279760
v  0.230895 0.214935 -0.069698
v  0.245110 0.241725 -0.000038
v  0.230895 0.214935 0.069623
v  0.281269 0.050273 0.242511
v  0.273254 -0.038770 0.251542
v  0.297510 -0.061361 0.304210
v  0.266747 -0.105564 0.247949
v  0.285815 -0.139999 0.293905
v  0.252531 -0.187073 0.207980
v  0.248463 -0.206688 0.225868
v  0.163905 -0.229878 0.099533
v  0.462548 0.097671 0.227442
v  0.406713 0.019363 0.269624
v  0.358050 -0.064526 0.264233
v  0.338838 -0.131226 0.262411
v  0.315023 -0.199003 0.216963
v  0.284611 -0.292709 0.133035
v  0.280894 -0.333368 -0.000038
v  0.195067 -0.089616 0.229824
v  0.207303 -0.013290 0.251313
v  0.223301 0.075148 0.215459
v  0.135462 0.013649 0.228082
v  0.121148 -0.060906 0.218732
v  0.163351 -0.158200 0.179293
v  0.166549 -0.261658 0.112788
v  0.181530 -0.271783 -0.000038
v  0.163905 -0.229878 -0.099609
v  0.284611 -0.292709 -0.133111
v  0.252531 -0.187072 -0.208056
v  0.315023 -0.199003 -0.217040
v  0.266747 -0.105563 -0.248025
v  0.338838 -0.131225 -0.262487
v  0.273254 -0.038769 -0.251618
v  0.106111 -0.148426 0.176142
v  0.131050 -0.223525 0.089395
v  0.170059 -0.280023 -0.000038
v  0.166549 -0.261658 -0.112864
v  0.248463 -0.206687 -0.225945
v  0.285815 -0.139999 -0.293981
v  0.297510 -0.061360 -0.304285
v  0.281269 0.050273 -0.242587
v  0.195067 -0.089615 -0.229900
v  0.163351 -0.158200 -0.179369
v  0.131050 -0.223525 -0.089471
v  0.133384 -0.242828 -0.000038
v  0.099152 -0.230256 -0.000038
v  0.092404 -0.215237 -0.089166
v  0.106111 -0.148425 -0.176218
v  0.358050 -0.064526 -0.264309
v  0.406713 0.019363 -0.269700
v  0.462548 0.097671 -0.227517
v  0.092404 -0.215237 0.089090
v  0.164197 0.091613 0.192429
v  0.404790 -0.158676 0.282037
v  0.242761 0.004804 0.229507
v  0.310598 -0.200728 0.289574
v  0.264958 -0.238319 0.203998
v  0.377181 -0.329629 0.253544
v  0.353235 -0.342499 0.164013
v  0.478124 -0.405892 0.173411
v  0.466221 -0.404811 0.094352
v  0.666892 -0.455553 0.014741
v  0.508204 -0.375394 0.179952
v  0.439108 -0.293504 0.257466
v  0.242761 0.004804 0.229507
v  0.404790 -0.158676 0.282037
v  0.310598 -0.200728 0.289574
v  0.439108 -0.293504 0.257466
v  0.377181 -0.329629 0.253544
v  0.508204 -0.375394 0.179952
v  0.478124 -0.405892 0.173411
v  0.666892 -0.455553 0.014741
v  0.466221 -0.404811 0.094352
v  0.353235 -0.342499 0.164013
v  0.264958 -0.238319 0.203998
v  0.503605 0.166468 -0.125808
v  0.526842 0.184592 -0.000038
v  0.379964 -0.080128 -0.000038
v  0.503605 0.166467 0.125732
v  0.462548 0.097671 0.227442
v  0.406713 0.019363 0.269624
v  0.358050 -0.064526 0.264233
v  0.338838 -0.131226 0.262411
v  0.315023 -0.199003 0.216963
v  0.284611 -0.292709 0.133035
v  0.280894 -0.333368 -0.000038
v  0.284611 -0.292709 -0.133111
v  0.315023 -0.199003 -0.217040
v  0.338838 -0.131225 -0.262487
v  0.358050 -0.064526 -0.264309
v  0.406713 0.019363 -0.269700
v  0.462548 0.097671 -0.227517
v  0.092404 -0.215237 -0.089166
v  0.099152 -0.230256 -0.000038
v  0.252300 -0.030996 -0.000038
v  0.092404 -0.215237 0.089090
v  0.106111 -0.148426 0.176142
v  0.121148 -0.060906 0.218732
v  0.135462 0.013649 0.228082
v  0.164197 0.091613 0.192429
v  0.215030 0.179716 0.150314
v  0.230895 0.214935 0.069623
v  0.245110 0.241725 -0.000038
v  0.230895 0.214935 -0.069698
v  0.215030 0.179716 -0.150389
v  0.164197 0.091614 -0.192504
v  0.135462 0.013650 -0.228157
v  0.121148 -0.060905 -0.218808
v  0.106111 -0.148425 -0.176218

vt  0.320849 -0.685998 0.000000
vt  0.242144 -0.604390 0.000000
vt  0.290682 -0.557755 0.000000
vt  0.142314 -0.468017 0.000000
vt  0.399961 -0.774336 0.000000
vt  0.375232 -0.624660 0.000000
vt  0.405983 -0.474064 0.000000
vt  0.268857 -0.432877 0.000000
vt  0.157887 -0.369678 0.000000
vt  0.265078 -0.390899 0.000000
vt  0.145688 -0.348257 0.000000
vt  0.316902 -0.100196 0.000000
vt  0.066673 -0.242927 0.000000
vt  0.184976 -0.005343 0.000000
vt  0.316902 -0.100196 0.000000
vt  0.145688 -0.348257 0.000000
vt  0.265078 -0.390899 0.000000
vt  0.157887 -0.369678 0.000000
vt  0.268857 -0.432877 0.000000
vt  0.142314 -0.468017 0.000000
vt  0.405983 -0.474064 0.000000
vt  0.079486 -0.382087 0.000000
vt  0.006560 -0.320417 0.000000
vt  0.079486 -0.382087 0.000000
vt  0.412074 -0.423828 0.000000
vt  0.511958 -0.463622 0.000000
vt  0.504685 -0.529703 0.000000
vt  0.613322 -0.534109 0.000000
vt  0.584066 -0.581182 0.000000
vt  0.694897 -0.636859 0.000000
vt  0.649451 -0.662409 0.000000
vt  0.732846 -0.796776 0.000000
vt  0.428640 -0.200840 0.000000
vt  0.515115 -0.304938 0.000000
vt  0.588548 -0.380843 0.000000
vt  0.686469 -0.458832 0.000000
vt  0.779480 -0.546077 0.000000
vt  0.867166 -0.625577 0.000000
vt  0.994408 -0.738874 0.000000
vt  0.455281 -0.692633 0.000000
vt  0.375232 -0.624660 0.000000
vt  0.290682 -0.557755 0.000000
vt  0.320849 -0.685998 0.000000
vt  0.399961 -0.774336 0.000000
vt  0.540247 -0.785132 0.000000
vt  0.692666 -0.822928 0.000000
vt  0.821895 -0.879223 0.000000
vt  0.732846 -0.796776 0.000000
vt  0.867166 -0.625577 0.000000
vt  0.694897 -0.636859 0.000000
vt  0.779480 -0.546077 0.000000
vt  0.613322 -0.534109 0.000000
vt  0.686469 -0.458832 0.000000
vt  0.511958 -0.463622 0.000000
vt  0.497133 -0.852543 0.000000
vt  0.626834 -0.878632 0.000000
vt  0.787181 -0.927702 0.000000
vt  0.692666 -0.822928 0.000000
vt  0.649451 -0.662409 0.000000
vt  0.584066 -0.581182 0.000000
vt  0.504685 -0.529703 0.000000
vt  0.412074 -0.423828 0.000000
vt  0.455281 -0.692633 0.000000
vt  0.540247 -0.785132 0.000000
vt  0.626834 -0.878632 0.000000
vt  0.724675 -0.960397 0.000000
vt  0.700143 -0.990415 0.000000
vt  0.596943 -0.924817 0.000000
vt  0.497133 -0.852543 0.000000
vt  0.588548 -0.380843 0.000000
vt  0.515115 -0.304938 0.000000
vt  0.428640 -0.200840 0.000000
vt  0.596943 -0.924817 0.000000
vt  0.242144 -0.604390 0.000000
vt  0.921797 -0.351034 0.000000
vt  0.993341 -0.707318 0.000000
vt  0.778757 -0.479017 0.000000
vt  0.921797 -0.351034 0.000000
vt  0.616141 -0.368001 0.000000
vt  0.711650 -0.272089 0.000000
vt  0.489038 -0.233993 0.000000
vt  0.550075 -0.173308 0.000000
vt  0.273114 -0.007015 0.000000
vt  0.550075 -0.173308 0.000000
vt  0.711650 -0.272089 0.000000
vt  0.993341 -0.707318 0.000000
vt  0.921797 -0.351034 0.000000
vt  0.778757 -0.479017 0.000000
vt  0.711650 -0.272089 0.000000
vt  0.616141 -0.368001 0.000000
vt  0.550075 -0.173308 0.000000
vt  0.489038 -0.233993 0.000000
vt  0.273114 -0.007015 0.000000
vt  0.550075 -0.173308 0.000000
vt  0.711650 -0.272089 0.000000
vt  0.921797 -0.351034 0.000000
vt  0.032479 -0.604974 0.000000
vt  0.109011 -0.487811 0.000000
vt  0.315283 -0.718609 0.000000
vt  0.032479 -0.604974 0.000000
vt  0.007167 -0.732192 0.000000
vt  0.045050 -0.840033 0.000000
vt  0.105032 -0.898439 0.000000
vt  0.177927 -0.961775 0.000000
vt  0.274599 -0.992535 0.000000
vt  0.371195 -0.980552 0.000000
vt  0.507167 -0.925557 0.000000
vt  0.371195 -0.980552 0.000000
vt  0.274599 -0.992535 0.000000
vt  0.177927 -0.961775 0.000000
vt  0.105032 -0.898439 0.000000
vt  0.045050 -0.840033 0.000000
vt  0.007167 -0.732192 0.000000
vt  0.959396 -0.228865 0.000000
vt  0.949414 -0.315899 0.000000
vt  0.723509 -0.240302 0.000000
vt  0.959396 -0.228865 0.000000
vt  0.932333 -0.146796 0.000000
vt  0.883290 -0.079999 0.000000
vt  0.820603 -0.033311 0.000000
vt  0.747663 -0.011309 0.000000
vt  0.631802 -0.018262 0.000000
vt  0.578817 -0.069657 0.000000
vt  0.531104 -0.119867 0.000000
vt  0.578817 -0.069657 0.000000
vt  0.631802 -0.018262 0.000000
vt  0.747663 -0.011309 0.000000
vt  0.820603 -0.033311 0.000000
vt  0.883290 -0.079999 0.000000
vt  0.932333 -0.146796 0.000000

vn  -0.837520 0.300175 -0.456569
vn  -0.820786 0.506770 -0.263617
vn  -0.357488 0.446909 -0.820046
vn  -0.730181 0.623522 -0.279384
vn  -0.897090 -0.023539 -0.441220
vn  -0.386441 0.111391 -0.915563
vn  0.689858 0.380211 -0.616064
vn  0.643618 0.524759 -0.557122
vn  0.750858 0.647005 0.132652
vn  0.906022 0.368247 -0.208610
vn  0.750452 0.626911 0.209294
vn  0.802854 0.443660 -0.398236
vn  0.203426 0.979090 0.000001
vn  0.889016 0.457875 0.000000
vn  0.802854 0.443659 0.398237
vn  0.750452 0.626912 -0.209292
vn  0.906022 0.368247 0.208611
vn  0.750858 0.647006 -0.132650
vn  0.643617 0.524758 0.557123
vn  -0.730181 0.623522 0.279385
vn  0.689858 0.380210 0.616065
vn  -0.670896 0.740479 -0.039870
vn  -0.427110 0.904200 0.000001
vn  -0.670896 0.740479 0.039871
vn  0.889218 0.249687 0.383337
vn  0.831585 -0.058758 0.552281
vn  0.638941 -0.099879 0.762744
vn  0.801762 -0.271791 0.532266
vn  0.520622 -0.434386 0.735025
vn  0.474452 -0.777254 0.413245
vn  0.284815 -0.857726 0.428004
vn  0.630827 -0.759070 0.160842
vn  0.694076 0.207269 0.689418
vn  0.514778 -0.096212 0.851908
vn  0.519688 -0.243853 0.818816
vn  0.461242 -0.404211 0.789854
vn  0.456832 -0.616078 0.641679
vn  0.269195 -0.846767 0.458824
vn  0.271532 -0.962429 -0.000001
vn  -0.460493 -0.276711 0.843432
vn  -0.386441 0.111390 0.915563
vn  -0.357488 0.446907 0.820046
vn  -0.837520 0.300174 0.456570
vn  -0.897090 -0.023540 0.441220
vn  -0.425379 -0.494250 0.758136
vn  0.138511 -0.936537 0.322044
vn  0.072790 -0.997347 -0.000001
vn  0.630827 -0.759070 -0.160843
vn  0.269195 -0.846766 -0.458826
vn  0.474453 -0.777253 -0.413247
vn  0.456832 -0.616077 -0.641681
vn  0.801762 -0.271791 -0.532266
vn  0.461243 -0.404210 -0.789854
vn  0.831585 -0.058757 -0.552281
vn  -0.866259 -0.215445 0.450753
vn  -0.517725 -0.767436 0.378157
vn  -0.078315 -0.996929 -0.000001
vn  0.138511 -0.936537 -0.322046
vn  0.284815 -0.857725 -0.428006
vn  0.520622 -0.434384 -0.735026
vn  0.638942 -0.099877 -0.762744
vn  0.889218 0.249687 -0.383336
vn  -0.460493 -0.276709 -0.843432
vn  -0.425379 -0.494249 -0.758137
vn  -0.517725 -0.767435 -0.378159
vn  -0.557844 -0.829946 -0.000001
vn  -0.924249 -0.381790 -0.000000
vn  -0.901806 -0.383099 -0.199953
vn  -0.866259 -0.215444 -0.450753
vn  0.519688 -0.243851 -0.818817
vn  0.514778 -0.096210 -0.851908
vn  0.694076 0.207271 -0.689418
vn  -0.901806 -0.383100 0.199952
vn  -0.820786 0.506770 0.263618
vn  0.057477 0.049970 0.997096
vn  -0.509575 0.082125 0.856498
vn  -0.414822 -0.142356 0.898697
vn  -0.762124 -0.409501 0.501474
vn  -0.267105 -0.643417 0.717404
vn  -0.554474 -0.799933 0.229490
vn  -0.026335 -0.865155 0.500813
vn  -0.327265 -0.944232 0.036366
vn  -0.000884 -0.954648 0.297735
vn  0.362168 -0.535549 0.762904
vn  0.180745 -0.367873 0.912141
vn  0.509575 -0.082125 -0.856498
vn  -0.057477 -0.049970 -0.997096
vn  0.414822 0.142356 -0.898697
vn  -0.180745 0.367873 -0.912141
vn  0.267105 0.643417 -0.717404
vn  -0.362168 0.535549 -0.762904
vn  0.026335 0.865155 -0.500813
vn  0.000883 0.954648 -0.297735
vn  0.327265 0.944232 -0.036366
vn  0.554474 0.799933 -0.229490
vn  0.762124 0.409501 -0.501474
vn  0.802854 0.443660 -0.398236
vn  0.889016 0.457875 0.000000
vn  0.904685 -0.426082 -0.000000
vn  0.802854 0.443659 0.398237
vn  0.694076 0.207269 0.689418
vn  0.514778 -0.096212 0.851908
vn  0.519688 -0.243853 0.818816
vn  0.461242 -0.404211 0.789854
vn  0.456832 -0.616078 0.641679
vn  0.269195 -0.846767 0.458824
vn  0.271532 -0.962429 -0.000001
vn  0.269195 -0.846766 -0.458826
vn  0.456832 -0.616077 -0.641681
vn  0.461243 -0.404210 -0.789854
vn  0.519688 -0.243851 -0.818817
vn  0.514778 -0.096210 -0.851908
vn  0.694076 0.207271 -0.689418
vn  -0.901806 -0.383099 -0.199953
vn  -0.924249 -0.381790 -0.000000
vn  -0.954537 0.298092 0.000000
vn  -0.901806 -0.383100 0.199952
vn  -0.866259 -0.215445 0.450753
vn  -0.897090 -0.023540 0.441220
vn  -0.837520 0.300174 0.456570
vn  -0.820786 0.506770 0.263618
vn  -0.730181 0.623522 0.279385
vn  -0.670896 0.740479 0.039871
vn  -0.427110 0.904200 0.000001
vn  -0.670896 0.740479 -0.039870
vn  -0.730181 0.623522 -0.279384
vn  -0.820786 0.506770 -0.263617
vn  -0.837520 0.300175 -0.456569
vn  -0.897090 -0.023539 -0.441220
vn  -0.866259 -0.215444 -0.450753

g L1103
usemtl L1103_3
f  1/1/1 2/2/2 3/3/3
f  4/4/4 3/3/3 2/2/2
f  5/5/5 1/1/1 6/6/6
f  3/3/3 6/6/6 1/1/1
f  6/6/6 3/3/3 7/7/7
f  4/4/4 7/7/7 3/3/3
f  7/7/7 4/4/4 8/8/8
f  9/9/9 8/8/8 4/4/4
f  8/8/8 9/9/9 10/10/10
f  11/11/11 10/10/10 9/9/9
f  10/10/10 11/11/11 12/12/12
f  13/13/13 12/12/12 11/11/11
f  12/12/12 13/13/13 14/14/14
f  14/14/14 13/13/13 15/15/15
f  16/16/16 15/15/15 13/13/13
f  15/15/15 16/16/16 17/17/17
f  18/18/18 17/17/17 16/16/16
f  17/17/17 18/18/18 19/19/19
f  20/20/20 19/19/19 18/18/18
f  19/19/19 20/20/20 21/21/21
f  22/22/22 9/9/9 4/4/4
f  9/9/9 22/22/22 11/11/11
f  11/11/11 22/22/22 13/13/13
f  23/23/23 13/13/13 22/22/22
f  24/24/24 13/13/13 23/23/23
f  13/13/13 24/24/24 16/16/16
f  16/16/16 24/24/24 18/18/18
f  20/20/20 18/18/18 24/24/24
f  17/17/17 19/19/19 25/25/25
f  21/21/21 25/25/25 19/19/19
f  25/25/25 21/21/21 26/26/26
f  27/27/27 26/26/26 21/21/21
f  26/26/26 27/27/27 28/28/28
f  29/29/29 28/28/28 27/27/27
f  28/28/28 29/29/29 30/30/30
f  31/31/31 30/30/30 29/29/29
f  30/30/30 31/31/31 32/32/32
f  15/15/15 17/17/17 33/33/33
f  33/33/33 17/17/17 34/34/34
f  25/25/25 34/34/34 17/17/17
f  34/34/34 25/25/25 35/35/35
f  26/26/26 35/35/35 25/25/25
f  35/35/35 26/26/26 36/36/36
f  28/28/28 36/36/36 26/26/26
f  36/36/36 28/28/28 37/37/37
f  30/30/30 37/37/37 28/28/28
f  37/37/37 30/30/30 38/38/38
f  32/32/32 38/38/38 30/30/30
f  38/38/38 32/32/32 39/39/39
f  31/31/31 29/29/29 40/40/40
f  27/27/27 40/40/40 29/29/29
f  40/40/40 27/27/27 41/41/41
f  21/21/21 41/41/41 27/27/27
f  20/20/20 42/42/42 21/21/21
f  21/21/21 42/42/42 41/41/41
f  43/43/43 41/41/41 42/42/42
f  44/44/44 41/41/41 43/43/43
f  41/41/41 44/44/44 40/40/40
f  45/45/45 40/40/40 44/44/44
f  40/40/40 45/45/45 31/31/31
f  46/46/46 31/31/31 45/45/45
f  31/31/31 46/46/46 32/32/32
f  47/47/47 32/32/32 46/46/46
f  32/32/32 47/47/47 39/39/39
f  48/48/48 39/39/39 47/47/47
f  39/39/39 48/48/48 49/49/49
f  50/50/50 49/49/49 48/48/48
f  49/49/49 50/50/50 51/51/51
f  52/52/52 51/51/51 50/50/50
f  51/51/51 52/52/52 53/53/53
f  54/54/54 53/53/53 52/52/52
f  44/44/44 55/55/55 45/45/45
f  56/56/56 45/45/45 55/55/55
f  45/45/45 56/56/56 46/46/46
f  57/57/57 46/46/46 56/56/56
f  46/46/46 57/57/57 47/47/47
f  58/58/58 47/47/47 57/57/57
f  47/47/47 58/58/58 48/48/48
f  59/59/59 48/48/48 58/58/58
f  48/48/48 59/59/59 50/50/50
f  60/60/60 50/50/50 59/59/59
f  50/50/50 60/60/60 52/52/52
f  61/61/61 52/52/52 60/60/60
f  52/52/52 61/61/61 54/54/54
f  7/7/7 54/54/54 61/61/61
f  54/54/54 7/7/7 62/62/62
f  8/8/8 62/62/62 7/7/7
f  62/62/62 8/8/8 10/10/10
f  61/61/61 60/60/60 63/63/63
f  59/59/59 63/63/63 60/60/60
f  63/63/63 59/59/59 64/64/64
f  58/58/58 64/64/64 59/59/59
f  64/64/64 58/58/58 65/65/65
f  57/57/57 65/65/65 58/58/58
f  65/65/65 57/57/57 66/66/66
f  56/56/56 66/66/66 57/57/57
f  67/67/67 66/66/66 56/56/56
f  66/66/66 67/67/67 65/65/65
f  68/68/68 65/65/65 67/67/67
f  69/69/69 65/65/65 68/68/68
f  65/65/65 69/69/69 64/64/64
f  5/5/5 64/64/64 69/69/69
f  64/64/64 5/5/5 63/63/63
f  6/6/6 63/63/63 5/5/5
f  63/63/63 6/6/6 61/61/61
f  7/7/7 61/61/61 6/6/6
f  53/53/53 54/54/54 70/70/70
f  62/62/62 70/70/70 54/54/54
f  70/70/70 62/62/62 71/71/71
f  10/10/10 71/71/71 62/62/62
f  71/71/71 10/10/10 72/72/72
f  12/12/12 72/72/72 10/10/10
f  55/55/55 73/73/73 56/56/56
f  67/67/67 56/56/56 73/73/73
f  43/43/43 42/42/42 74/74/74
f  20/20/20 74/74/74 42/42/42
f  75/75/75 76/76/76 77/77/77
f  78/78/78 77/77/77 76/76/76
f  77/77/77 78/78/78 79/79/79
f  80/80/80 79/79/79 78/78/78
f  79/79/79 80/80/80 81/81/81
f  82/82/82 81/81/81 80/80/80
f  83/83/83 81/81/81 82/82/82
f  84/84/84 81/81/81 83/83/83
f  81/81/81 84/84/84 79/79/79
f  85/85/85 79/79/79 84/84/84
f  79/79/79 85/85/85 77/77/77
f  75/75/75 77/77/77 85/85/85
f  86/86/86 87/87/87 88/88/88
f  89/89/89 88/88/88 87/87/87
f  88/88/88 89/89/89 90/90/90
f  91/91/91 90/90/90 89/89/89
f  90/90/90 91/91/91 92/92/92
f  93/93/93 92/92/92 91/91/91
f  94/94/94 92/92/92 93/93/93
f  95/95/95 92/92/92 94/94/94
f  92/92/92 95/95/95 90/90/90
f  96/96/96 90/90/90 95/95/95
f  90/90/90 96/96/96 88/88/88
f  86/86/86 88/88/88 96/96/96
f  97/97/97 98/98/98 99/99/99
f  100/100/100 99/99/99 98/98/98
f  101/101/101 99/99/99 100/100/100
f  102/102/102 99/99/99 101/101/101
f  103/103/103 99/99/99 102/102/102
f  104/104/104 99/99/99 103/103/103
f  105/105/105 99/99/99 104/104/104
f  106/106/106 99/99/99 105/105/105
f  107/107/107 99/99/99 106/106/106
f  108/108/108 99/99/99 107/107/107
f  109/109/109 99/99/99 108/108/108
f  110/110/110 99/99/99 109/109/109
f  111/111/111 99/99/99 110/110/110
f  112/112/112 99/99/99 111/111/111
f  113/113/113 99/99/99 112/112/112
f  99/99/99 113/113/113 97/97/97
f  114/114/114 115/115/115 116/116/116
f  117/117/117 116/116/116 115/115/115
f  118/118/118 116/116/116 117/117/117
f  119/119/119 116/116/116 118/118/118
f  120/120/120 116/116/116 119/119/119
f  121/121/121 116/116/116 120/120/120
f  122/122/122 116/116/116 121/121/121
f  123/123/123 116/116/116 122/122/122
f  124/124/124 116/116/116 123/123/123
f  125/125/125 116/116/116 124/124/124
f  126/126/126 116/116/116 125/125/125
f  127/127/127 116/116/116 126/126/126
f  128/128/128 116/116/116 127/127/127
f  129/129/129 116/116/116 128/128/128
f  130/130/130 116/116/116 129/129/129
f  116/116/116 130/130/130 114/114/114

g
