# Noesis .obj export.
#
mtllib l1117.mtl
g
v  0.528444 -0.298926 -0.068947
v  0.570198 -0.131713 -0.159669
v  0.643183 -0.173174 -0.064917
v  0.712941 -0.048205 -0.061111
v  0.652746 0.002417 -0.155709
v  0.536896 0.052713 -0.225386
v  0.458380 -0.445376 -0.078017
v  0.414415 -0.349751 -0.161216
v  0.463289 -0.241512 -0.161612
v  0.484961 -0.091351 -0.224825
v  0.460763 0.085494 -0.284492
v  0.574846 0.148977 -0.233373
v  0.680586 0.144894 -0.155742
v  0.760907 0.100564 -0.060323
v  0.344185 -0.279686 -0.267498
v  0.373232 -0.189999 -0.275841
v  0.415676 -0.058197 -0.288616
v  0.414415 -0.349751 0.174252
v  0.344185 -0.279686 0.267453
v  0.343881 -0.309687 0.136455
v  0.264909 -0.277499 0.124454
v  0.458380 -0.445376 0.078017
v  0.407777 -0.353717 0.038966
v  0.342710 -0.315459 0.000017
v  0.259137 -0.292485 0.000017
v  0.188596 -0.257345 0.135705
v  0.175875 -0.295843 0.000003
v  0.115416 -0.250451 -0.000014
v  0.188596 -0.257345 -0.135842
v  0.125088 -0.206113 -0.115666
v  0.147406 -0.104761 -0.205020
v  0.223834 -0.135931 -0.214749
v  0.261723 0.006079 -0.223012
v  0.300894 -0.167637 -0.225085
v  0.343388 -0.027163 -0.228469
v  0.373232 -0.189999 -0.275841
v  0.415676 -0.058197 -0.288616
v  0.381958 0.107021 -0.223388
v  0.264909 -0.277499 -0.134538
v  0.343881 -0.309686 -0.147507
v  0.407777 -0.353717 -0.038966
v  0.414415 -0.349751 -0.161216
v  0.458380 -0.445376 -0.078017
v  0.344185 -0.279686 -0.267498
v  0.271453 -0.260723 -0.196185
v  0.299401 0.132284 -0.188627
v  0.182169 0.038181 -0.218848
v  0.212946 0.157249 -0.178780
v  0.318001 0.208513 -0.094488
v  0.398254 0.169853 -0.102589
v  0.402405 0.185621 0.000017
v  0.480819 0.153572 0.000000
v  0.398254 0.169853 0.102697
v  0.318001 0.208513 0.094522
v  0.381958 0.107020 0.223370
v  0.299401 0.132283 0.188522
v  0.343388 -0.027163 0.228451
v  0.261723 0.006079 0.222907
v  0.212946 0.157248 0.178643
v  0.182169 0.038180 0.218711
v  0.147406 -0.104762 0.204883
v  0.760907 0.100564 0.060324
v  0.680901 0.143967 0.044940
v  0.680587 0.144894 0.155819
v  0.578571 0.159723 0.023038
v  0.578328 0.159636 0.135045
v  0.476700 0.138657 0.116842
v  0.460763 0.085493 0.284448
v  0.415676 -0.058198 0.288572
v  0.373232 -0.190000 0.275797
v  0.300894 -0.167638 0.224980
v  0.223834 -0.135932 0.214612
v  0.125088 -0.206114 0.124546
v  0.574846 0.148976 0.229423
v  0.271453 -0.260724 0.196080
v  0.326130 0.239961 0.000017
v  0.230137 0.228028 0.090404
v  0.237529 0.256626 0.000003
v  0.230137 0.228028 -0.090398
v  0.460763 0.085494 -0.284492
v  0.476700 0.138658 -0.116764
v  0.574846 0.148977 -0.233373
v  0.578328 0.159636 -0.134968
v  0.680586 0.144894 -0.155742
v  0.578571 0.159723 -0.023038
v  0.680901 0.143967 -0.044940
v  0.760907 0.100564 -0.060323
v  0.712941 -0.048205 0.061111
v  0.652746 0.002417 0.155786
v  0.643183 -0.173174 0.064917
v  0.570199 -0.131714 0.159746
v  0.528444 -0.298926 0.068947
v  0.463289 -0.241512 0.161689
v  0.484961 -0.091351 0.224780
v  0.536896 0.052712 0.229247
v  0.458380 -0.445376 0.078017
v  0.414415 -0.349751 0.174252
v  0.344185 -0.279686 0.267453
v  0.373232 -0.190000 0.275797
v  0.415676 -0.058198 0.288572
v  0.460763 0.085493 0.284448
v  0.574846 0.148976 0.229423
v  0.680587 0.144894 0.155819
v  0.760907 0.100564 0.060324
v  0.182169 0.038181 -0.218848
v  0.147406 -0.104761 -0.205020
v  0.258118 -0.007868 0.000017
v  0.125088 -0.206113 -0.115666
v  0.115416 -0.250451 -0.000014
v  0.125088 -0.206114 0.124546
v  0.147406 -0.104762 0.204883
v  0.182169 0.038180 0.218711
v  0.212946 0.157248 0.178643
v  0.230137 0.228028 0.090404
v  0.237529 0.256626 0.000003
v  0.230137 0.228028 -0.090398
v  0.212946 0.157249 -0.178780
v  0.680901 0.143967 0.044940
v  0.760907 0.100564 0.060324
v  0.480263 -0.084013 0.000000
v  0.712941 -0.048205 0.061111
v  0.643183 -0.173174 0.064917
v  0.528444 -0.298926 0.068947
v  0.458380 -0.445376 0.078017
v  0.407777 -0.353717 0.038966
v  0.342710 -0.315459 0.000017
v  0.407777 -0.353717 -0.038966
v  0.458380 -0.445376 -0.078017
v  0.528444 -0.298926 -0.068947
v  0.643183 -0.173174 -0.064917
v  0.712941 -0.048205 -0.061111
v  0.760907 0.100564 -0.060323
v  0.680901 0.143967 -0.044940
v  0.578571 0.159723 -0.023038
v  0.480819 0.153572 0.000000
v  0.578571 0.159723 0.023038

vt  0.511875 -0.236917 0.000000
vt  0.697428 -0.257240 0.000000
vt  0.627672 -0.119356 0.000000
vt  0.756035 -0.050274 0.000000
vt  0.822364 -0.183450 0.000000
vt  0.875193 -0.314345 0.000000
vt  0.419298 -0.336431 0.000000
vt  0.515051 -0.440110 0.000000
vt  0.603484 -0.365307 0.000000
vt  0.742984 -0.376273 0.000000
vt  0.925069 -0.415607 0.000000
vt  0.974439 -0.283900 0.000000
vt  0.954645 -0.150642 0.000000
vt  0.892360 -0.023638 0.000000
vt  0.603331 -0.544646 0.000000
vt  0.679192 -0.504327 0.000000
vt  0.800806 -0.479682 0.000000
vt  0.152672 -0.587281 0.000000
vt  0.284030 -0.610609 0.000000
vt  0.165765 -0.691945 0.000000
vt  0.191083 -0.789448 0.000000
vt  0.032169 -0.579002 0.000000
vt  0.050646 -0.667631 0.000000
vt  0.053088 -0.759789 0.000000
vt  0.082436 -0.845809 0.000000
vt  0.230151 -0.861443 0.000000
vt  0.113967 -0.917397 0.000000
vt  0.143616 -0.971944 0.000000
vt  0.230151 -0.861443 0.000000
vt  0.248746 -0.942711 0.000000
vt  0.346206 -0.916146 0.000000
vt  0.343528 -0.835119 0.000000
vt  0.465264 -0.838455 0.000000
vt  0.354932 -0.738428 0.000000
vt  0.475865 -0.737732 0.000000
vt  0.365309 -0.606275 0.000000
vt  0.489054 -0.619425 0.000000
vt  0.595619 -0.744011 0.000000
vt  0.191083 -0.789448 0.000000
vt  0.165765 -0.691945 0.000000
vt  0.050646 -0.667631 0.000000
vt  0.152672 -0.587281 0.000000
vt  0.032169 -0.579002 0.000000
vt  0.284030 -0.610609 0.000000
vt  0.260957 -0.760280 0.000000
vt  0.581472 -0.846786 0.000000
vt  0.469298 -0.922660 0.000000
vt  0.570338 -0.927575 0.000000
vt  0.686381 -0.867544 0.000000
vt  0.732050 -0.791894 0.000000
vt  0.842468 -0.842910 0.000000
vt  0.897292 -0.763994 0.000000
vt  0.732050 -0.791894 0.000000
vt  0.686381 -0.867544 0.000000
vt  0.595619 -0.744011 0.000000
vt  0.581472 -0.846786 0.000000
vt  0.475865 -0.737732 0.000000
vt  0.465264 -0.838455 0.000000
vt  0.570338 -0.927575 0.000000
vt  0.469298 -0.922660 0.000000
vt  0.346206 -0.916146 0.000000
vt  0.960424 -0.456031 0.000000
vt  0.946517 -0.543292 0.000000
vt  0.832383 -0.497084 0.000000
vt  0.929207 -0.654335 0.000000
vt  0.805052 -0.601809 0.000000
vt  0.772430 -0.709614 0.000000
vt  0.616069 -0.643439 0.000000
vt  0.489054 -0.619425 0.000000
vt  0.365309 -0.606275 0.000000
vt  0.354932 -0.738428 0.000000
vt  0.343528 -0.835119 0.000000
vt  0.248746 -0.942711 0.000000
vt  0.721268 -0.569741 0.000000
vt  0.260957 -0.760280 0.000000
vt  0.794545 -0.913715 0.000000
vt  0.653229 -0.947387 0.000000
vt  0.749526 -0.982777 0.000000
vt  0.653229 -0.947387 0.000000
vt  0.616069 -0.643439 0.000000
vt  0.772430 -0.709614 0.000000
vt  0.721268 -0.569741 0.000000
vt  0.805052 -0.601809 0.000000
vt  0.832383 -0.497084 0.000000
vt  0.929207 -0.654335 0.000000
vt  0.946517 -0.543292 0.000000
vt  0.960424 -0.456031 0.000000
vt  0.756035 -0.050274 0.000000
vt  0.822364 -0.183450 0.000000
vt  0.627672 -0.119356 0.000000
vt  0.697428 -0.257240 0.000000
vt  0.511875 -0.236917 0.000000
vt  0.603484 -0.365307 0.000000
vt  0.742984 -0.376273 0.000000
vt  0.875193 -0.314345 0.000000
vt  0.419298 -0.336431 0.000000
vt  0.515051 -0.440110 0.000000
vt  0.603331 -0.544646 0.000000
vt  0.679192 -0.504327 0.000000
vt  0.800806 -0.479682 0.000000
vt  0.925069 -0.415607 0.000000
vt  0.974439 -0.283900 0.000000
vt  0.954645 -0.150642 0.000000
vt  0.892360 -0.023638 0.000000
vt  0.305644 -0.357932 0.000000
vt  0.198267 -0.367605 0.000000
vt  0.281470 -0.546832 0.000000
vt  0.114779 -0.429714 0.000000
vt  0.078636 -0.531654 0.000000
vt  0.114779 -0.429714 0.000000
vt  0.198267 -0.367605 0.000000
vt  0.305644 -0.357932 0.000000
vt  0.397490 -0.397865 0.000000
vt  0.447536 -0.472157 0.000000
vt  0.462696 -0.556898 0.000000
vt  0.447536 -0.472157 0.000000
vt  0.397490 -0.397865 0.000000
vt  0.032704 -0.207213 0.000000
vt  0.021314 -0.124889 0.000000
vt  0.283669 -0.203406 0.000000
vt  0.119204 -0.047893 0.000000
vt  0.234410 -0.021136 0.000000
vt  0.367918 -0.029615 0.000000
vt  0.487216 -0.055370 0.000000
vt  0.487322 -0.147011 0.000000
vt  0.480365 -0.224768 0.000000
vt  0.487322 -0.147011 0.000000
vt  0.487216 -0.055370 0.000000
vt  0.367918 -0.029615 0.000000
vt  0.234410 -0.021136 0.000000
vt  0.119204 -0.047893 0.000000
vt  0.021314 -0.124889 0.000000
vt  0.032704 -0.207213 0.000000
vt  0.089765 -0.291806 0.000000
vt  0.159839 -0.348777 0.000000
vt  0.089765 -0.291806 0.000000

vn  0.805001 -0.541950 0.241379
vn  0.537641 -0.378191 -0.753600
vn  0.782681 -0.574095 0.240468
vn  0.887735 -0.366334 0.278793
vn  0.630006 -0.233891 -0.740532
vn  0.488704 -0.232214 -0.840979
vn  0.140144 -0.986015 0.090192
vn  0.076797 -0.793641 -0.603520
vn  0.613141 -0.378927 -0.693161
vn  0.558408 -0.270931 -0.784077
vn  0.023462 0.385070 -0.922589
vn  0.217018 0.628301 -0.747088
vn  0.614887 0.593346 -0.519475
vn  0.945638 0.202381 0.254579
vn  -0.120235 -0.513637 -0.849542
vn  0.060062 -0.127086 -0.990072
vn  0.010395 -0.037120 -0.999257
vn  0.097636 -0.775575 0.623659
vn  -0.132180 -0.508008 0.851150
vn  -0.466512 -0.876972 0.115269
vn  -0.302629 -0.939496 0.160509
vn  0.136788 -0.983671 -0.116963
vn  -0.198997 -0.692162 -0.693766
vn  -0.157461 -0.987523 0.002018
vn  -0.159151 -0.987249 0.003198
vn  -0.438957 -0.755856 0.485797
vn  -0.298212 -0.954500 0.000139
vn  -0.952349 -0.305010 -0.000872
vn  -0.459229 -0.744348 -0.484824
vn  -0.955346 -0.145489 -0.257192
vn  -0.822099 0.029782 -0.568565
vn  -0.245479 -0.200779 -0.948382
vn  -0.031096 0.118911 -0.992418
vn  -0.400468 -0.012523 -0.916225
vn  -0.349675 0.136086 -0.926935
vn  0.060062 -0.127086 -0.990072
vn  0.010395 -0.037120 -0.999257
vn  -0.262169 0.592584 -0.761651
vn  -0.317074 -0.932382 -0.173576
vn  -0.455865 -0.880300 -0.131371
vn  -0.197586 -0.693693 0.692639
vn  0.076797 -0.793641 -0.603520
vn  0.140144 -0.986015 0.090192
vn  -0.120235 -0.513637 -0.849542
vn  -0.550599 -0.576220 -0.603996
vn  -0.033252 0.542926 -0.839122
vn  -0.742745 0.273277 -0.611269
vn  -0.661509 0.531255 -0.529315
vn  0.270177 0.858628 -0.435618
vn  0.333940 0.897955 -0.286638
vn  0.444943 0.895559 -0.000030
vn  0.257456 0.966290 -0.000049
vn  0.333776 0.897956 0.286823
vn  0.269914 0.858582 0.435872
vn  -0.262544 0.592356 0.761699
vn  -0.033937 0.542745 0.839211
vn  -0.350164 0.135999 0.926763
vn  -0.031715 0.118956 0.992393
vn  -0.661825 0.530955 0.529221
vn  -0.742929 0.273298 0.611036
vn  -0.823557 0.031690 0.566348
vn  0.945589 0.202413 -0.254737
vn  0.346117 0.693372 -0.632012
vn  0.609824 0.591731 0.527228
vn  0.168085 0.730233 -0.662198
vn  -0.026392 0.997266 0.069026
vn  0.025698 0.979442 0.200083
vn  0.018307 0.389254 0.920949
vn  0.010493 -0.037153 0.999255
vn  0.059681 -0.126995 0.990106
vn  -0.400960 -0.012573 0.916009
vn  -0.245696 -0.200823 0.948316
vn  -0.938888 -0.171724 0.298329
vn  0.217308 0.646728 0.731109
vn  -0.542248 -0.597242 0.590990
vn  0.389575 0.920995 0.000017
vn  -0.634221 0.712409 0.300394
vn  -0.577307 0.816527 -0.000025
vn  -0.634232 0.712493 -0.300174
vn  0.023462 0.385070 -0.922589
vn  0.025030 0.979677 -0.199012
vn  0.217018 0.628301 -0.747088
vn  -0.026087 0.997421 -0.066860
vn  0.614887 0.593346 -0.519475
vn  0.168085 0.730232 0.662200
vn  0.346117 0.693369 0.632015
vn  0.945638 0.202381 0.254579
vn  0.887686 -0.366318 -0.278972
vn  0.634854 -0.230463 0.737460
vn  0.782641 -0.574071 -0.240656
vn  0.537886 -0.381961 0.751521
vn  0.811425 -0.526937 -0.252839
vn  0.623683 -0.353037 0.697412
vn  0.552750 -0.276717 0.786063
vn  0.493195 -0.208453 0.844575
vn  0.136788 -0.983671 -0.116963
vn  0.097636 -0.775575 0.623659
vn  -0.132180 -0.508008 0.851150
vn  0.059681 -0.126995 0.990106
vn  0.010493 -0.037153 0.999255
vn  0.018307 0.389254 0.920949
vn  0.217308 0.646728 0.731109
vn  0.609824 0.591731 0.527228
vn  0.945589 0.202413 -0.254737
vn  -0.742745 0.273277 -0.611269
vn  -0.822099 0.029782 -0.568565
vn  -0.973988 0.226600 0.000487
vn  -0.955346 -0.145489 -0.257192
vn  -0.952349 -0.305010 -0.000872
vn  -0.938888 -0.171724 0.298329
vn  -0.823557 0.031690 0.566348
vn  -0.742929 0.273298 0.611036
vn  -0.661825 0.530955 0.529221
vn  -0.634221 0.712409 0.300394
vn  -0.577307 0.816527 -0.000025
vn  -0.634232 0.712493 -0.300174
vn  -0.661509 0.531255 -0.529315
vn  0.346117 0.693372 -0.632012
vn  0.945589 0.202413 -0.254737
vn  0.880470 -0.474102 0.000001
vn  0.887686 -0.366318 -0.278972
vn  0.782641 -0.574071 -0.240656
vn  0.811425 -0.526937 -0.252839
vn  0.136788 -0.983671 -0.116963
vn  -0.198997 -0.692162 -0.693766
vn  -0.157461 -0.987523 0.002018
vn  -0.197586 -0.693693 0.692639
vn  0.140144 -0.986015 0.090192
vn  0.805001 -0.541950 0.241379
vn  0.782681 -0.574095 0.240468
vn  0.887735 -0.366334 0.278793
vn  0.945638 0.202381 0.254579
vn  0.346117 0.693369 0.632015
vn  0.168085 0.730232 0.662200
vn  0.257456 0.966290 -0.000049
vn  0.168085 0.730233 -0.662198

g L1117
usemtl L1117_3
f  1/1/1 2/2/2 3/3/3
f  4/4/4 3/3/3 5/5/5
f  2/2/2 5/5/5 3/3/3
f  5/5/5 2/2/2 6/6/6
f  7/7/7 8/8/8 1/1/1
f  9/9/9 1/1/1 8/8/8
f  1/1/1 9/9/9 2/2/2
f  10/10/10 2/2/2 9/9/9
f  2/2/2 10/10/10 6/6/6
f  11/11/11 6/6/6 10/10/10
f  12/12/12 6/6/6 11/11/11
f  6/6/6 12/12/12 5/5/5
f  13/13/13 5/5/5 12/12/12
f  5/5/5 13/13/13 4/4/4
f  14/14/14 4/4/4 13/13/13
f  8/8/8 15/15/15 9/9/9
f  16/16/16 9/9/9 15/15/15
f  9/9/9 16/16/16 10/10/10
f  17/17/17 10/10/10 16/16/16
f  10/10/10 17/17/17 11/11/11
f  18/18/18 19/19/19 20/20/20
f  21/21/21 20/20/20 19/19/19
f  22/22/22 18/18/18 23/23/23
f  20/20/20 23/23/23 18/18/18
f  23/23/23 20/20/20 24/24/24
f  21/21/21 24/24/24 20/20/20
f  24/24/24 21/21/21 25/25/25
f  26/26/26 25/25/25 21/21/21
f  25/25/25 26/26/26 27/27/27
f  28/28/28 27/27/27 26/26/26
f  27/27/27 28/28/28 29/29/29
f  30/30/30 29/29/29 28/28/28
f  31/31/31 29/29/29 30/30/30
f  29/29/29 31/31/31 32/32/32
f  33/33/33 32/32/32 31/31/31
f  32/32/32 33/33/33 34/34/34
f  35/35/35 34/34/34 33/33/33
f  34/34/34 35/35/35 36/36/36
f  36/36/36 35/35/35 37/37/37
f  38/38/38 37/37/37 35/35/35
f  27/27/27 29/29/29 25/25/25
f  39/39/39 25/25/25 29/29/29
f  25/25/25 39/39/39 24/24/24
f  40/40/40 24/24/24 39/39/39
f  24/24/24 40/40/40 41/41/41
f  42/42/42 41/41/41 40/40/40
f  41/41/41 42/42/42 43/43/43
f  36/36/36 44/44/44 34/34/34
f  45/45/45 34/34/34 44/44/44
f  34/34/34 45/45/45 32/32/32
f  32/32/32 45/45/45 29/29/29
f  29/29/29 45/45/45 39/39/39
f  44/44/44 39/39/39 45/45/45
f  39/39/39 44/44/44 40/40/40
f  42/42/42 40/40/40 44/44/44
f  33/33/33 46/46/46 35/35/35
f  38/38/38 35/35/35 46/46/46
f  31/31/31 47/47/47 33/33/33
f  48/48/48 33/33/33 47/47/47
f  33/33/33 48/48/48 46/46/46
f  49/49/49 46/46/46 48/48/48
f  46/46/46 49/49/49 38/38/38
f  38/38/38 49/49/49 50/50/50
f  51/51/51 50/50/50 49/49/49
f  50/50/50 51/51/51 52/52/52
f  52/52/52 51/51/51 53/53/53
f  54/54/54 53/53/53 51/51/51
f  53/53/53 54/54/54 55/55/55
f  56/56/56 55/55/55 54/54/54
f  55/55/55 56/56/56 57/57/57
f  57/57/57 56/56/56 58/58/58
f  59/59/59 58/58/58 56/56/56
f  60/60/60 58/58/58 59/59/59
f  58/58/58 60/60/60 61/61/61
f  62/62/62 63/63/63 64/64/64
f  65/65/65 64/64/64 63/63/63
f  64/64/64 65/65/65 66/66/66
f  52/52/52 66/66/66 65/65/65
f  66/66/66 52/52/52 67/67/67
f  53/53/53 67/67/67 52/52/52
f  67/67/67 53/53/53 68/68/68
f  55/55/55 68/68/68 53/53/53
f  68/68/68 55/55/55 69/69/69
f  57/57/57 69/69/69 55/55/55
f  69/69/69 57/57/57 70/70/70
f  70/70/70 57/57/57 71/71/71
f  58/58/58 71/71/71 57/57/57
f  71/71/71 58/58/58 72/72/72
f  61/61/61 72/72/72 58/58/58
f  72/72/72 61/61/61 26/26/26
f  73/73/73 26/26/26 61/61/61
f  28/28/28 26/26/26 73/73/73
f  64/64/64 66/66/66 74/74/74
f  67/67/67 74/74/74 66/66/66
f  74/74/74 67/67/67 68/68/68
f  70/70/70 71/71/71 19/19/19
f  75/75/75 19/19/19 71/71/71
f  19/19/19 75/75/75 21/21/21
f  21/21/21 75/75/75 26/26/26
f  26/26/26 75/75/75 72/72/72
f  71/71/71 72/72/72 75/75/75
f  49/49/49 76/76/76 51/51/51
f  54/54/54 51/51/51 76/76/76
f  56/56/56 54/54/54 59/59/59
f  59/59/59 54/54/54 77/77/77
f  76/76/76 77/77/77 54/54/54
f  77/77/77 76/76/76 78/78/78
f  78/78/78 76/76/76 79/79/79
f  49/49/49 79/79/79 76/76/76
f  79/79/79 49/49/49 48/48/48
f  80/80/80 81/81/81 82/82/82
f  83/83/83 82/82/82 81/81/81
f  82/82/82 83/83/83 84/84/84
f  37/37/37 38/38/38 80/80/80
f  50/50/50 80/80/80 38/38/38
f  80/80/80 50/50/50 81/81/81
f  52/52/52 81/81/81 50/50/50
f  81/81/81 52/52/52 83/83/83
f  85/85/85 83/83/83 52/52/52
f  83/83/83 85/85/85 84/84/84
f  86/86/86 84/84/84 85/85/85
f  84/84/84 86/86/86 87/87/87
f  88/88/88 89/89/89 90/90/90
f  91/91/91 90/90/90 89/89/89
f  90/90/90 91/91/91 92/92/92
f  92/92/92 91/91/91 93/93/93
f  93/93/93 91/91/91 94/94/94
f  94/94/94 91/91/91 95/95/95
f  89/89/89 95/95/95 91/91/91
f  96/96/96 92/92/92 97/97/97
f  93/93/93 97/97/97 92/92/92
f  97/97/97 93/93/93 98/98/98
f  98/98/98 93/93/93 99/99/99
f  94/94/94 99/99/99 93/93/93
f  99/99/99 94/94/94 100/100/100
f  100/100/100 94/94/94 101/101/101
f  95/95/95 101/101/101 94/94/94
f  101/101/101 95/95/95 102/102/102
f  89/89/89 102/102/102 95/95/95
f  102/102/102 89/89/89 103/103/103
f  88/88/88 103/103/103 89/89/89
f  103/103/103 88/88/88 104/104/104
f  105/105/105 106/106/106 107/107/107
f  108/108/108 107/107/107 106/106/106
f  109/109/109 107/107/107 108/108/108
f  110/110/110 107/107/107 109/109/109
f  111/111/111 107/107/107 110/110/110
f  112/112/112 107/107/107 111/111/111
f  113/113/113 107/107/107 112/112/112
f  114/114/114 107/107/107 113/113/113
f  115/115/115 107/107/107 114/114/114
f  116/116/116 107/107/107 115/115/115
f  117/117/117 107/107/107 116/116/116
f  107/107/107 117/117/117 105/105/105
f  118/118/118 119/119/119 120/120/120
f  121/121/121 120/120/120 119/119/119
f  122/122/122 120/120/120 121/121/121
f  123/123/123 120/120/120 122/122/122
f  124/124/124 120/120/120 123/123/123
f  125/125/125 120/120/120 124/124/124
f  126/126/126 120/120/120 125/125/125
f  127/127/127 120/120/120 126/126/126
f  128/128/128 120/120/120 127/127/127
f  129/129/129 120/120/120 128/128/128
f  130/130/130 120/120/120 129/129/129
f  131/131/131 120/120/120 130/130/130
f  132/132/132 120/120/120 131/131/131
f  133/133/133 120/120/120 132/132/132
f  134/134/134 120/120/120 133/133/133
f  135/135/135 120/120/120 134/134/134
f  136/136/136 120/120/120 135/135/135
f  120/120/120 136/136/136 118/118/118

g
