# Noesis .obj export.
#
mtllib l1112.mtl
g
v  0.289648 -0.204887 -0.171463
v  0.306252 -0.282893 0.001543
v  0.156633 -0.223378 -0.175420
v  0.168918 -0.256356 0.001543
v  0.194140 -0.059841 -0.273291
v  0.306437 -0.064275 -0.239280
v  0.226751 0.076430 -0.264239
v  0.323226 0.055584 -0.226991
v  0.290838 0.201164 -0.199379
v  0.369083 0.168270 -0.177053
v  0.375017 0.197024 0.001543
v  0.304703 0.255542 0.001543
v  0.290838 0.201163 0.202465
v  0.369083 0.168270 0.180139
v  0.323226 0.055583 0.230078
v  0.226751 0.076429 0.267325
v  0.306437 -0.064275 0.242366
v  0.194140 -0.059842 0.276377
v  0.289648 -0.204887 0.174549
v  0.156633 -0.223379 0.173020
v  0.417705 -0.147282 -0.140223
v  0.391974 -0.068603 -0.191113
v  0.415860 0.015468 -0.153707
v  0.465360 0.067006 -0.125025
v  0.487250 0.137971 0.001543
v  0.465360 0.067006 0.128111
v  0.415860 0.015468 0.156793
v  0.391974 -0.068604 0.194199
v  0.417705 -0.147283 0.143309
v  0.462109 -0.201569 0.001543
v  0.510459 -0.032538 0.132614
v  0.454435 -0.081517 0.168548
v  0.472048 -0.057321 0.001543
v  0.567365 0.001623 0.001543
v  0.510459 -0.032538 -0.129528
v  0.454435 -0.081517 -0.165462
v  0.208597 0.069233 -0.259196
v  0.178054 -0.058395 -0.267674
v  0.332607 0.012211 0.001543
v  0.142926 -0.195682 -0.156399
v  0.170791 -0.072004 -0.300555
v  0.228542 0.063631 -0.312378
v  0.231622 -0.077915 -0.346864
v  0.148103 -0.212960 -0.298711
v  0.114891 -0.250275 -0.187110
v  0.114049 -0.345303 -0.190785
v  0.117985 -0.282600 0.001543
v  0.108642 -0.360703 0.001543
v  0.114049 -0.345303 0.193870
v  0.114891 -0.250275 0.184709
v  0.148103 -0.212961 0.301797
v  0.142926 -0.214040 0.175943
v  0.170791 -0.072005 0.303641
v  0.231622 -0.077915 0.349950
v  0.228542 0.063630 0.315464
v  0.322282 0.049905 0.389730
v  0.331384 0.165389 0.385873
v  0.133082 -0.461789 -0.210331
v  0.133082 -0.461789 0.001543
v  0.133082 -0.461789 0.213416
v  0.142933 -0.364101 0.325350
v  0.170482 -0.255912 0.419577
v  0.262178 -0.078877 0.413619
v  0.364968 0.041899 0.461865
v  0.372876 0.149927 0.492365
v  0.432352 0.247207 0.451415
v  0.280717 0.199738 0.286225
v  0.208597 0.069232 0.262283
v  0.178054 -0.058395 0.270760
v  0.258591 0.196499 0.201537
v  0.388988 0.263005 0.317380
v  0.484500 0.315129 0.374929
v  0.367992 0.273983 0.176146
v  0.271577 0.247429 0.001543
v  0.533714 0.391650 0.271996
v  0.454074 0.361193 0.116597
v  0.463204 0.344791 0.235634
v  0.341793 0.313008 0.001543
v  0.426988 0.374159 0.001544
v  0.454074 0.361193 -0.113510
v  0.367992 0.273984 -0.173060
v  0.258591 0.196500 -0.198450
v  0.388988 0.263006 -0.314293
v  0.280717 0.199738 -0.283138
v  0.432352 0.247208 -0.448328
v  0.484500 0.315129 -0.371842
v  0.331384 0.165390 -0.382786
v  0.372876 0.149928 -0.489278
v  0.364968 0.041900 -0.458778
v  0.322282 0.049906 -0.386643
v  0.262178 -0.078877 -0.410533
v  0.170482 -0.255911 -0.416491
v  0.142933 -0.364100 -0.322265
v  0.533714 0.391650 -0.268909
v  0.463204 0.344792 -0.232547
v  0.533714 0.391650 -0.268909
v  0.454074 0.361193 -0.113510
v  0.463204 0.344792 -0.232547
v  0.371873 0.275649 -0.172997
v  0.484500 0.315129 -0.371842
v  0.156633 -0.223379 0.173020
v  0.194140 -0.059842 0.276377
v  0.184364 -0.074057 0.310438
v  0.226751 0.076429 0.267325
v  0.242893 0.068470 0.321600
v  0.291743 0.206974 0.289232
v  0.290838 0.201163 0.202465
v  0.388988 0.263006 0.317380
v  0.371873 0.275648 0.176084
v  0.304703 0.255542 0.001543
v  0.353571 0.321906 0.001543
v  0.454074 0.361193 0.116597
v  0.390209 0.348066 0.001544
v  0.426988 0.374159 0.001544
v  0.290838 0.201164 -0.199379
v  0.388988 0.263006 -0.314293
v  0.239800 -0.078878 0.353771
v  0.322358 0.049905 0.389730
v  0.331384 0.165389 0.385873
v  0.432352 0.247207 0.451415
v  0.484500 0.315129 0.374929
v  0.372876 0.149927 0.492365
v  0.364968 0.041899 0.461865
v  0.262178 -0.078877 0.413619
v  0.170482 -0.255912 0.419577
v  0.149451 -0.213953 0.302416
v  0.142933 -0.364101 0.325350
v  0.114119 -0.345730 0.193832
v  0.122255 -0.258743 0.183195
v  0.126209 -0.293555 0.001543
v  0.109743 -0.364018 0.001543
v  0.133082 -0.461789 0.213416
v  0.168918 -0.256356 0.001543
v  0.122255 -0.258743 -0.185596
v  0.156633 -0.223378 -0.175420
v  0.149451 -0.213952 -0.299330
v  0.184364 -0.074056 -0.307352
v  0.194140 -0.059841 -0.273291
v  0.226751 0.076430 -0.264239
v  0.242893 0.068470 -0.318514
v  0.291743 0.206975 -0.286146
v  0.432352 0.247208 -0.448328
v  0.142933 -0.364100 -0.322265
v  0.170482 -0.255911 -0.416491
v  0.239800 -0.078878 -0.350684
v  0.322358 0.049906 -0.386643
v  0.331384 0.165390 -0.382786
v  0.372876 0.149928 -0.489278
v  0.364968 0.041900 -0.458778
v  0.262178 -0.078877 -0.410533
v  0.133082 -0.461789 0.001543
v  0.133082 -0.461789 -0.210331
v  0.114119 -0.345730 -0.190747
v  0.533714 0.391650 0.271996
v  0.463204 0.344791 0.235634
v  0.154432 -0.243761 0.001543

vt  0.657909 -0.477388 0.000000
vt  0.495315 -0.520778 0.000000
vt  0.704087 -0.604491 0.000000
vt  0.564702 -0.650838 0.000000
vt  0.845931 -0.489937 0.000000
vt  0.768251 -0.398548 0.000000
vt  0.931522 -0.368811 0.000000
vt  0.843993 -0.306623 0.000000
vt  0.977478 -0.209463 0.000000
vt  0.878701 -0.184426 0.000000
vt  0.873528 -0.021933 0.000000
vt  0.984663 -0.013819 0.000000
vt  0.977478 -0.209463 0.000000
vt  0.878701 -0.184426 0.000000
vt  0.843993 -0.306623 0.000000
vt  0.931522 -0.368811 0.000000
vt  0.768251 -0.398548 0.000000
vt  0.845931 -0.489937 0.000000
vt  0.657909 -0.477388 0.000000
vt  0.704087 -0.604491 0.000000
vt  0.609921 -0.351576 0.000000
vt  0.700566 -0.329387 0.000000
vt  0.738682 -0.245819 0.000000
vt  0.733829 -0.169098 0.000000
vt  0.737319 -0.031873 0.000000
vt  0.733829 -0.169098 0.000000
vt  0.738682 -0.245819 0.000000
vt  0.700566 -0.329387 0.000000
vt  0.609921 -0.351576 0.000000
vt  0.470530 -0.332978 0.000000
vt  0.638113 -0.211466 0.000000
vt  0.645188 -0.286605 0.000000
vt  0.513324 -0.204364 0.000000
vt  0.577962 -0.093291 0.000000
vt  0.638113 -0.211466 0.000000
vt  0.645188 -0.286605 0.000000
vt  0.274366 -0.341981 0.000000
vt  0.322155 -0.427390 0.000000
vt  0.105155 -0.444317 0.000000
vt  0.302743 -0.548163 0.000000
vt  0.346737 -0.426346 0.000000
vt  0.306132 -0.325604 0.000000
vt  0.390668 -0.391829 0.000000
vt  0.392610 -0.514616 0.000000
vt  0.330615 -0.583065 0.000000
vt  0.373413 -0.637820 0.000000
vt  0.259776 -0.657566 0.000000
vt  0.288928 -0.709260 0.000000
vt  0.373413 -0.637820 0.000000
vt  0.330615 -0.583065 0.000000
vt  0.392610 -0.514616 0.000000
vt  0.302743 -0.548163 0.000000
vt  0.346737 -0.426346 0.000000
vt  0.390668 -0.391829 0.000000
vt  0.306132 -0.325604 0.000000
vt  0.375070 -0.270994 0.000000
vt  0.318700 -0.206275 0.000000
vt  0.444001 -0.694240 0.000000
vt  0.332886 -0.773310 0.000000
vt  0.444001 -0.694240 0.000000
vt  0.465807 -0.601194 0.000000
vt  0.475953 -0.499594 0.000000
vt  0.430932 -0.363210 0.000000
vt  0.423804 -0.238707 0.000000
vt  0.387697 -0.165276 0.000000
vt  0.329813 -0.098184 0.000000
vt  0.243479 -0.236509 0.000000
vt  0.274366 -0.341981 0.000000
vt  0.322155 -0.427390 0.000000
vt  0.192132 -0.267871 0.000000
vt  0.243100 -0.139870 0.000000
vt  0.262157 -0.050296 0.000000
vt  0.150606 -0.172244 0.000000
vt  0.058338 -0.269596 0.000000
vt  0.175031 -0.005681 0.000000
vt  0.086874 -0.093432 0.000000
vt  0.166762 -0.074381 0.000000
vt  0.034107 -0.200853 0.000000
vt  0.011457 -0.124122 0.000000
vt  0.086874 -0.093432 0.000000
vt  0.150606 -0.172244 0.000000
vt  0.192132 -0.267871 0.000000
vt  0.243100 -0.139870 0.000000
vt  0.243479 -0.236509 0.000000
vt  0.329813 -0.098184 0.000000
vt  0.262157 -0.050296 0.000000
vt  0.318700 -0.206275 0.000000
vt  0.387697 -0.165276 0.000000
vt  0.423804 -0.238707 0.000000
vt  0.375070 -0.270994 0.000000
vt  0.430932 -0.363210 0.000000
vt  0.475953 -0.499594 0.000000
vt  0.465807 -0.601194 0.000000
vt  0.175031 -0.005681 0.000000
vt  0.166762 -0.074381 0.000000
vt  0.988454 -0.804776 0.000000
vt  0.923181 -0.677711 0.000000
vt  0.916126 -0.771611 0.000000
vt  0.818094 -0.720598 0.000000
vt  0.909423 -0.884186 0.000000
vt  0.329019 -0.791670 0.000000
vt  0.476935 -0.837939 0.000000
vt  0.470287 -0.866522 0.000000
vt  0.596179 -0.804143 0.000000
vt  0.604379 -0.849031 0.000000
vt  0.721701 -0.802777 0.000000
vt  0.716976 -0.734520 0.000000
vt  0.817315 -0.831697 0.000000
vt  0.818094 -0.720598 0.000000
vt  0.766761 -0.577982 0.000000
vt  0.836465 -0.579907 0.000000
vt  0.923181 -0.677711 0.000000
vt  0.875919 -0.581909 0.000000
vt  0.915413 -0.584393 0.000000
vt  0.716976 -0.734520 0.000000
vt  0.817315 -0.831697 0.000000
vt  0.497119 -0.919854 0.000000
vt  0.630344 -0.930946 0.000000
vt  0.721094 -0.892013 0.000000
vt  0.835700 -0.941886 0.000000
vt  0.909423 -0.884186 0.000000
vt  0.743296 -0.981695 0.000000
vt  0.651639 -0.995106 0.000000
vt  0.515642 -0.966542 0.000000
vt  0.357190 -0.994829 0.000000
vt  0.355150 -0.898695 0.000000
vt  0.245228 -0.969272 0.000000
vt  0.217963 -0.859778 0.000000
vt  0.281526 -0.821460 0.000000
vt  0.203336 -0.725576 0.000000
vt  0.147379 -0.752319 0.000000
vt  0.142649 -0.929738 0.000000
vt  0.243585 -0.700213 0.000000
vt  0.281526 -0.821460 0.000000
vt  0.329019 -0.791670 0.000000
vt  0.355150 -0.898695 0.000000
vt  0.470287 -0.866522 0.000000
vt  0.476935 -0.837939 0.000000
vt  0.596179 -0.804143 0.000000
vt  0.604379 -0.849031 0.000000
vt  0.721701 -0.802777 0.000000
vt  0.835700 -0.941886 0.000000
vt  0.245228 -0.969272 0.000000
vt  0.357190 -0.994829 0.000000
vt  0.497119 -0.919854 0.000000
vt  0.630344 -0.930946 0.000000
vt  0.721094 -0.892013 0.000000
vt  0.743296 -0.981695 0.000000
vt  0.651639 -0.995106 0.000000
vt  0.515642 -0.966542 0.000000
vt  0.070857 -0.791309 0.000000
vt  0.142649 -0.929738 0.000000
vt  0.217963 -0.859778 0.000000
vt  0.988454 -0.804776 0.000000
vt  0.916126 -0.771611 0.000000
vt  0.236665 -0.623933 0.000000

vn  0.277750 -0.700421 -0.657469
vn  0.207088 -0.978322 0.001290
vn  0.563455 -0.747500 -0.351800
vn  0.264803 -0.964298 0.002961
vn  0.751993 -0.306144 -0.583766
vn  0.372793 -0.210371 -0.903753
vn  0.896700 -0.206297 -0.391627
vn  0.485022 0.124298 -0.865623
vn  0.903787 -0.261241 -0.339003
vn  0.563036 0.571217 -0.597244
vn  0.531533 0.847038 0.000001
vn  0.999448 -0.033236 -0.000000
vn  0.903787 -0.261241 0.339002
vn  0.563036 0.571216 0.597246
vn  0.485022 0.124296 0.865624
vn  0.896700 -0.206297 0.391626
vn  0.372793 -0.210373 0.903753
vn  0.751610 -0.310006 0.582219
vn  0.266850 -0.703373 0.658830
vn  0.551593 -0.756560 0.351230
vn  0.520382 -0.602449 -0.605192
vn  0.464804 -0.121476 -0.877041
vn  0.498219 0.157104 -0.852699
vn  0.688928 0.320286 -0.650227
vn  0.748466 0.663173 0.000001
vn  0.688928 0.320285 0.650227
vn  0.498219 0.157102 0.852700
vn  0.464804 -0.121478 0.877041
vn  0.520382 -0.602450 0.605191
vn  0.787219 -0.616673 -0.000001
vn  0.814773 -0.220726 0.536120
vn  0.634607 -0.283632 0.718907
vn  0.840956 -0.541104 -0.000001
vn  0.992170 -0.124895 -0.000000
vn  0.814773 -0.220725 -0.536120
vn  0.634607 -0.283631 -0.718907
vn  -0.952185 0.303532 0.034808
vn  -0.928758 0.297989 0.220481
vn  -0.980518 0.196375 0.004523
vn  -0.891908 0.427916 0.146250
vn  -0.881244 0.216291 -0.420271
vn  -0.762244 0.290035 -0.578674
vn  -0.727933 0.307354 -0.612900
vn  -0.945872 0.206850 -0.250077
vn  -0.968590 0.237957 -0.072176
vn  -0.992125 -0.044051 -0.117252
vn  -0.925412 0.378963 -0.000884
vn  -0.998537 -0.054079 -0.000000
vn  -0.992144 -0.042286 0.117739
vn  -0.948115 0.314883 0.043889
vn  -0.947834 0.208879 0.240790
vn  -0.854423 0.503552 -0.128052
vn  -0.885463 0.212709 0.413171
vn  -0.727933 0.307353 0.612901
vn  -0.762244 0.290033 0.578675
vn  -0.743821 0.202209 0.637057
vn  -0.778904 0.332559 0.531708
vn  0.127466 -0.669083 -0.732176
vn  0.233596 -0.972334 -0.000001
vn  0.127548 -0.669082 0.732162
vn  0.012008 -0.937642 0.347395
vn  -0.108307 -0.667172 0.736988
vn  0.167751 -0.307122 0.936769
vn  0.633641 0.428727 0.643966
vn  0.095097 0.515387 -0.851665
vn  0.709241 0.391088 0.586539
vn  -0.716064 0.631211 0.298036
vn  -0.952185 0.303532 -0.034807
vn  -0.931782 0.275697 -0.236163
vn  -0.865956 0.499936 -0.013570
vn  -0.548465 0.811544 0.201451
vn  0.466996 0.120589 0.875998
vn  -0.591920 0.782965 0.191300
vn  -0.921244 0.388985 0.000000
vn  -0.777514 -0.595472 -0.202200
vn  0.658573 0.627306 -0.415654
vn  -0.638492 0.742150 0.203817
vn  -0.640859 0.767659 0.000001
vn  -0.712709 -0.701460 0.000000
vn  0.658577 0.627304 0.415651
vn  -0.591920 0.782966 -0.191298
vn  -0.865956 0.499936 0.013571
vn  -0.548465 0.811544 -0.201449
vn  -0.716064 0.631212 -0.298034
vn  0.709233 0.391083 -0.586551
vn  0.466984 0.120671 -0.875994
vn  -0.778904 0.332561 -0.531707
vn  0.058999 0.470406 0.880476
vn  0.633639 0.428728 -0.643967
vn  -0.743821 0.202210 -0.637057
vn  0.167751 -0.307120 -0.936769
vn  -0.108312 -0.667169 -0.736990
vn  0.012009 -0.937640 -0.347400
vn  -0.808910 -0.561669 0.173760
vn  -0.638492 0.742151 -0.203816
vn  -0.808910 -0.561669 0.173760
vn  0.658577 0.627304 0.415651
vn  0.643165 -0.738095 0.203848
vn  0.645649 -0.740878 0.185032
vn  0.466984 0.120671 -0.875994
vn  0.551593 -0.756560 0.351230
vn  0.751610 -0.310006 0.582219
vn  0.891001 -0.237752 -0.386770
vn  0.896700 -0.206297 0.391626
vn  0.787145 -0.283003 -0.548007
vn  0.739104 -0.647273 -0.186448
vn  0.903787 -0.261241 0.339002
vn  0.555924 -0.810214 -0.185746
vn  0.645649 -0.740878 -0.185033
vn  0.999448 -0.033236 -0.000000
vn  0.702949 -0.711240 -0.000001
vn  0.658573 0.627306 -0.415654
vn  0.580230 -0.814453 -0.000001
vn  -0.712709 -0.701460 0.000000
vn  0.903787 -0.261241 -0.339003
vn  0.555924 -0.810215 0.185744
vn  0.748240 -0.327605 -0.576899
vn  0.753310 -0.191979 -0.629021
vn  0.789256 -0.337164 -0.513220
vn  0.709241 0.391088 0.586539
vn  0.466996 0.120589 0.875998
vn  0.095097 0.515387 -0.851665
vn  0.633641 0.428727 0.643966
vn  0.167751 -0.307122 0.936769
vn  -0.108307 -0.667172 0.736988
vn  0.948082 -0.258322 -0.185500
vn  0.012008 -0.937642 0.347395
vn  0.994762 0.008975 -0.101826
vn  0.919397 -0.392847 0.019497
vn  0.881609 -0.471979 0.001093
vn  0.999996 0.002950 -0.000000
vn  0.127548 -0.669082 0.732162
vn  0.264803 -0.964298 0.002961
vn  0.921246 -0.388805 -0.011713
vn  0.563455 -0.747500 -0.351800
vn  0.948015 -0.259142 0.184699
vn  0.891504 -0.237254 0.385915
vn  0.751993 -0.306144 -0.583766
vn  0.896700 -0.206297 -0.391627
vn  0.787145 -0.283005 0.548007
vn  0.739104 -0.647273 0.186447
vn  0.709233 0.391083 -0.586551
vn  0.012009 -0.937640 -0.347400
vn  -0.108312 -0.667169 -0.736990
vn  0.748240 -0.327606 0.576899
vn  0.753310 -0.191980 0.629021
vn  0.789256 -0.337165 0.513219
vn  0.058999 0.470406 0.880476
vn  0.633639 0.428728 -0.643967
vn  0.167751 -0.307120 -0.936769
vn  0.233596 -0.972334 -0.000001
vn  0.127466 -0.669083 -0.732176
vn  0.994805 0.010015 0.101303
vn  -0.777514 -0.595472 -0.202200
vn  0.643165 -0.738095 -0.203850
vn  -0.788596 0.614639 0.018293

g L1112
usemtl L1112_3
f  1/1/1 2/2/2 3/3/3
f  4/4/4 3/3/3 2/2/2
f  5/5/5 1/1/1 3/3/3
f  1/1/1 5/5/5 6/6/6
f  7/7/7 6/6/6 5/5/5
f  6/6/6 7/7/7 8/8/8
f  9/9/9 8/8/8 7/7/7
f  8/8/8 9/9/9 10/10/10
f  10/10/10 9/9/9 11/11/11
f  12/12/12 11/11/11 9/9/9
f  13/13/13 11/11/11 12/12/12
f  11/11/11 13/13/13 14/14/14
f  14/14/14 13/13/13 15/15/15
f  16/16/16 15/15/15 13/13/13
f  15/15/15 16/16/16 17/17/17
f  18/18/18 17/17/17 16/16/16
f  17/17/17 18/18/18 19/19/19
f  20/20/20 19/19/19 18/18/18
f  19/19/19 20/20/20 2/2/2
f  4/4/4 2/2/2 20/20/20
f  6/6/6 21/21/21 1/1/1
f  21/21/21 6/6/6 22/22/22
f  8/8/8 22/22/22 6/6/6
f  22/22/22 8/8/8 23/23/23
f  10/10/10 23/23/23 8/8/8
f  23/23/23 10/10/10 24/24/24
f  24/24/24 10/10/10 25/25/25
f  11/11/11 25/25/25 10/10/10
f  14/14/14 25/25/25 11/11/11
f  25/25/25 14/14/14 26/26/26
f  26/26/26 14/14/14 27/27/27
f  15/15/15 27/27/27 14/14/14
f  27/27/27 15/15/15 28/28/28
f  17/17/17 28/28/28 15/15/15
f  28/28/28 17/17/17 29/29/29
f  19/19/19 29/29/29 17/17/17
f  29/29/29 19/19/19 30/30/30
f  2/2/2 30/30/30 19/19/19
f  26/26/26 27/27/27 31/31/31
f  28/28/28 31/31/31 27/27/27
f  31/31/31 28/28/28 32/32/32
f  29/29/29 32/32/32 28/28/28
f  30/30/30 32/32/32 29/29/29
f  33/33/33 32/32/32 30/30/30
f  32/32/32 33/33/33 31/31/31
f  34/34/34 31/31/31 33/33/33
f  25/25/25 31/31/31 34/34/34
f  31/31/31 25/25/25 26/26/26
f  25/25/25 34/34/34 35/35/35
f  33/33/33 35/35/35 34/34/34
f  35/35/35 33/33/33 36/36/36
f  30/30/30 36/36/36 33/33/33
f  21/21/21 36/36/36 30/30/30
f  22/22/22 36/36/36 21/21/21
f  36/36/36 22/22/22 35/35/35
f  23/23/23 35/35/35 22/22/22
f  24/24/24 35/35/35 23/23/23
f  35/35/35 24/24/24 25/25/25
f  21/21/21 30/30/30 1/1/1
f  2/2/2 1/1/1 30/30/30
f  37/37/37 38/38/38 39/39/39
f  39/39/39 38/38/38 40/40/40
f  41/41/41 40/40/40 38/38/38
f  38/38/38 37/37/37 41/41/41
f  42/42/42 41/41/41 37/37/37
f  43/43/43 41/41/41 42/42/42
f  44/44/44 41/41/41 43/43/43
f  41/41/41 44/44/44 40/40/40
f  40/40/40 44/44/44 45/45/45
f  46/46/46 45/45/45 44/44/44
f  45/45/45 46/46/46 47/47/47
f  48/48/48 47/47/47 46/46/46
f  49/49/49 47/47/47 48/48/48
f  47/47/47 49/49/49 50/50/50
f  51/51/51 50/50/50 49/49/49
f  50/50/50 51/51/51 52/52/52
f  52/52/52 51/51/51 53/53/53
f  54/54/54 53/53/53 51/51/51
f  53/53/53 54/54/54 55/55/55
f  56/56/56 55/55/55 54/54/54
f  57/57/57 55/55/55 56/56/56
f  46/46/46 58/58/58 48/48/48
f  59/59/59 48/48/48 58/58/58
f  60/60/60 48/48/48 59/59/59
f  48/48/48 60/60/60 49/49/49
f  61/61/61 49/49/49 60/60/60
f  49/49/49 61/61/61 51/51/51
f  62/62/62 51/51/51 61/61/61
f  51/51/51 62/62/62 54/54/54
f  63/63/63 54/54/54 62/62/62
f  64/64/64 54/54/54 63/63/63
f  54/54/54 64/64/64 56/56/56
f  56/56/56 64/64/64 57/57/57
f  65/65/65 57/57/57 64/64/64
f  65/65/65 66/66/66 57/57/57
f  67/67/67 57/57/57 66/66/66
f  57/57/57 67/67/67 55/55/55
f  68/68/68 55/55/55 67/67/67
f  55/55/55 68/68/68 53/53/53
f  69/69/69 53/53/53 68/68/68
f  53/53/53 69/69/69 52/52/52
f  52/52/52 69/69/69 39/39/39
f  68/68/68 39/39/39 69/69/69
f  39/39/39 68/68/68 70/70/70
f  67/67/67 70/70/70 68/68/68
f  70/70/70 67/67/67 71/71/71
f  66/66/66 71/71/71 67/67/67
f  72/72/72 71/71/71 66/66/66
f  73/73/73 71/71/71 72/72/72
f  71/71/71 73/73/73 70/70/70
f  74/74/74 70/70/70 73/73/73
f  70/70/70 74/74/74 39/39/39
f  75/75/75 76/76/76 77/77/77
f  73/73/73 77/77/77 76/76/76
f  72/72/72 77/77/77 73/73/73
f  77/77/77 72/72/72 75/75/75
f  73/73/73 76/76/76 78/78/78
f  79/79/79 78/78/78 76/76/76
f  80/80/80 78/78/78 79/79/79
f  78/78/78 80/80/80 81/81/81
f  73/73/73 78/78/78 74/74/74
f  81/81/81 74/74/74 78/78/78
f  74/74/74 81/81/81 82/82/82
f  83/83/83 82/82/82 81/81/81
f  82/82/82 83/83/83 84/84/84
f  84/84/84 83/83/83 85/85/85
f  85/85/85 83/83/83 86/86/86
f  81/81/81 86/86/86 83/83/83
f  74/74/74 82/82/82 39/39/39
f  39/39/39 82/82/82 37/37/37
f  84/84/84 37/37/37 82/82/82
f  37/37/37 84/84/84 42/42/42
f  42/42/42 84/84/84 87/87/87
f  85/85/85 87/87/87 84/84/84
f  88/88/88 87/87/87 85/85/85
f  89/89/89 87/87/87 88/88/88
f  90/90/90 87/87/87 89/89/89
f  87/87/87 90/90/90 42/42/42
f  42/42/42 90/90/90 43/43/43
f  89/89/89 43/43/43 90/90/90
f  91/91/91 43/43/43 89/89/89
f  92/92/92 43/43/43 91/91/91
f  43/43/43 92/92/92 44/44/44
f  93/93/93 44/44/44 92/92/92
f  44/44/44 93/93/93 46/46/46
f  58/58/58 46/46/46 93/93/93
f  94/94/94 86/86/86 95/95/95
f  81/81/81 95/95/95 86/86/86
f  80/80/80 95/95/95 81/81/81
f  95/95/95 80/80/80 94/94/94
f  96/96/96 97/97/97 98/98/98
f  99/99/99 98/98/98 97/97/97
f  100/100/100 98/98/98 99/99/99
f  98/98/98 100/100/100 96/96/96
f  101/101/101 102/102/102 103/103/103
f  104/104/104 103/103/103 102/102/102
f  103/103/103 104/104/104 105/105/105
f  105/105/105 104/104/104 106/106/106
f  107/107/107 106/106/106 104/104/104
f  106/106/106 107/107/107 108/108/108
f  108/108/108 107/107/107 109/109/109
f  110/110/110 109/109/109 107/107/107
f  111/111/111 109/109/109 110/110/110
f  109/109/109 111/111/111 112/112/112
f  113/113/113 112/112/112 111/111/111
f  112/112/112 113/113/113 114/114/114
f  114/114/114 113/113/113 97/97/97
f  111/111/111 97/97/97 113/113/113
f  97/97/97 111/111/111 99/99/99
f  110/110/110 99/99/99 111/111/111
f  115/115/115 99/99/99 110/110/110
f  99/99/99 115/115/115 116/116/116
f  103/103/103 105/105/105 117/117/117
f  117/117/117 105/105/105 118/118/118
f  118/118/118 105/105/105 119/119/119
f  106/106/106 119/119/119 105/105/105
f  119/119/119 106/106/106 120/120/120
f  108/108/108 120/120/120 106/106/106
f  120/120/120 108/108/108 121/121/121
f  109/109/109 121/121/121 108/108/108
f  120/120/120 122/122/122 119/119/119
f  123/123/123 119/119/119 122/122/122
f  119/119/119 123/123/123 118/118/118
f  118/118/118 123/123/123 117/117/117
f  124/124/124 117/117/117 123/123/123
f  125/125/125 117/117/117 124/124/124
f  117/117/117 125/125/125 126/126/126
f  127/127/127 126/126/126 125/125/125
f  128/128/128 126/126/126 127/127/127
f  126/126/126 128/128/128 129/129/129
f  129/129/129 128/128/128 130/130/130
f  130/130/130 128/128/128 131/131/131
f  131/131/131 128/128/128 132/132/132
f  127/127/127 132/132/132 128/128/128
f  126/126/126 103/103/103 117/117/117
f  103/103/103 126/126/126 101/101/101
f  129/129/129 101/101/101 126/126/126
f  101/101/101 129/129/129 133/133/133
f  130/130/130 133/133/133 129/129/129
f  134/134/134 133/133/133 130/130/130
f  133/133/133 134/134/134 135/135/135
f  136/136/136 135/135/135 134/134/134
f  137/137/137 135/135/135 136/136/136
f  135/135/135 137/137/137 138/138/138
f  138/138/138 137/137/137 139/139/139
f  140/140/140 139/139/139 137/137/137
f  141/141/141 139/139/139 140/140/140
f  139/139/139 141/141/141 115/115/115
f  115/115/115 141/141/141 116/116/116
f  142/142/142 116/116/116 141/141/141
f  100/100/100 116/116/116 142/142/142
f  99/99/99 116/116/116 100/100/100
f  143/143/143 144/144/144 136/136/136
f  145/145/145 136/136/136 144/144/144
f  136/136/136 145/145/145 137/137/137
f  137/137/137 145/145/145 140/140/140
f  146/146/146 140/140/140 145/145/145
f  147/147/147 140/140/140 146/146/146
f  140/140/140 147/147/147 141/141/141
f  141/141/141 147/147/147 142/142/142
f  142/142/142 147/147/147 148/148/148
f  148/148/148 147/147/147 149/149/149
f  146/146/146 149/149/149 147/147/147
f  145/145/145 149/149/149 146/146/146
f  149/149/149 145/145/145 150/150/150
f  144/144/144 150/150/150 145/145/145
f  132/132/132 151/151/151 131/131/131
f  152/152/152 131/131/131 151/151/151
f  153/153/153 131/131/131 152/152/152
f  131/131/131 153/153/153 130/130/130
f  130/130/130 153/153/153 134/134/134
f  134/134/134 153/153/153 136/136/136
f  136/136/136 153/153/153 143/143/143
f  152/152/152 143/143/143 153/153/153
f  154/154/154 121/121/121 155/155/155
f  109/109/109 155/155/155 121/121/121
f  112/112/112 155/155/155 109/109/109
f  155/155/155 112/112/112 154/154/154
f  39/39/39 40/40/40 156/156/156
f  45/45/45 156/156/156 40/40/40
f  47/47/47 156/156/156 45/45/45
f  50/50/50 156/156/156 47/47/47
f  52/52/52 156/156/156 50/50/50
f  156/156/156 52/52/52 39/39/39

g
