# Noesis .obj export.
#
mtllib l1205.mtl
g
v  0.265590 0.215759 0.000000
v  0.292220 0.188618 0.075508
v  0.283828 0.199698 0.000000
v  0.292220 0.188618 0.075508
v  0.265590 0.215759 0.000000
v  0.268085 0.192636 0.083772
v  0.265590 0.215759 0.000000
v  0.226364 0.193636 0.075774
v  0.268085 0.192636 0.083772
v  0.226364 0.193636 0.075774
v  0.265590 0.215759 0.000000
v  0.234825 0.209945 0.000000
v  0.225780 0.208510 -0.037220
v  0.205458 0.213714 0.000000
v  0.221368 0.222469 0.000000
v  0.205458 0.213714 0.000000
v  0.225769 0.210983 -0.037220
v  0.221368 0.222469 0.000000
v  0.265101 0.223452 0.000000
v  0.225780 0.208510 -0.037220
v  0.221368 0.222469 0.000000
v  0.338641 0.185966 0.000000
v  0.298906 0.204518 -0.040032
v  0.312724 0.213551 0.000000
v  0.265590 0.215759 0.000000
v  0.292220 0.188619 -0.075508
v  0.268085 0.192637 -0.083772
v  0.292220 0.188619 -0.075508
v  0.265590 0.215759 0.000000
v  0.283828 0.199698 0.000000
v  0.298906 0.204518 -0.040032
v  0.265101 0.223452 0.000000
v  0.312724 0.213551 0.000000
v  0.298895 0.204336 -0.040032
v  0.312724 0.213551 0.000000
v  0.265101 0.223452 0.000000
v  0.225769 0.210983 -0.037220
v  0.265101 0.223452 0.000000
v  0.221368 0.222469 0.000000
v  0.298895 0.204336 -0.040032
v  0.338641 0.185966 0.000000
v  0.312724 0.213551 0.000000
v  0.265590 0.215759 0.000000
v  0.226364 0.193637 -0.075773
v  0.234825 0.209945 0.000000
v  0.226364 0.193637 -0.075773
v  0.265590 0.215759 0.000000
v  0.268085 0.192637 -0.083772
v  0.177227 -0.067994 -0.200494
v  0.204675 -0.047507 -0.194625
v  0.177432 -0.067435 -0.186054
v  0.198750 -0.022258 -0.201143
v  0.204442 -0.047330 -0.202421
v  0.162621 -0.037677 -0.198253
v  0.177432 -0.067435 -0.186054
v  0.156245 -0.044477 -0.184822
v  0.181662 -0.016023 -0.201504
v  0.175391 -0.014727 -0.184423
v  0.206819 0.105697 -0.163899
v  0.212491 0.126154 -0.181287
v  0.217324 0.172443 -0.092646
v  0.224147 0.188847 -0.097318
v  0.220990 0.193666 0.000000
v  0.246683 0.116866 -0.184544
v  0.198983 -0.022435 -0.193295
v  0.246435 0.098336 -0.167056
v  0.292789 0.169117 -0.090274
v  0.232260 0.208487 0.000000
v  0.224147 0.188847 0.097318
v  0.217324 0.172443 0.092646
v  0.212491 0.132204 0.184634
v  0.206819 0.111747 0.167245
v  0.181662 -0.016024 0.201504
v  0.198750 -0.022258 0.201143
v  0.162621 -0.037678 0.198253
v  0.204442 -0.047330 0.202421
v  0.177227 -0.067994 0.200494
v  0.204675 -0.047508 0.194625
v  0.177432 -0.067435 0.186054
v  0.300308 0.193711 0.000000
v  0.292789 0.169117 0.090275
v  0.246683 0.122916 0.187890
v  0.290437 0.153090 -0.087092
v  0.300496 0.172003 0.000000
v  0.290437 0.153090 0.087093
v  0.246435 0.104385 0.170402
v  0.198983 -0.022436 0.193295
v  0.175391 -0.014727 0.184423
v  0.156245 -0.044477 0.184822
v  0.177432 -0.067435 0.186054
v  0.268404 0.209548 -0.047229
v  0.265101 0.223452 0.000000
v  0.225769 0.210983 -0.037220
v  0.205458 0.213714 0.000000
v  0.217503 0.200636 -0.064600
v  0.271990 0.194961 -0.082039
v  0.298895 0.204336 -0.040032
v  0.265101 0.223452 0.000000
v  0.205458 0.213714 0.000000
v  0.225780 0.208510 -0.037220
v  0.268404 0.209548 -0.047229
v  0.318044 0.182620 -0.070215
v  0.338641 0.185966 0.000000
v  0.298906 0.204518 -0.040032
v  0.265101 0.223452 0.000000
v  0.268085 0.192636 0.083772
v  0.290692 0.158524 0.112539
v  0.292220 0.188618 0.075508
v  0.292220 0.188619 -0.075508
v  0.283828 0.199698 0.000000
v  0.265590 0.215759 0.000000
v  0.268085 0.192636 0.083772
v  0.255682 0.165075 0.131885
v  0.210528 0.173330 0.115622
v  0.226364 0.193636 0.075774
v  0.234825 0.209945 0.000000
v  0.226364 0.193637 -0.075773
v  0.268085 0.192637 -0.083772
v  0.290692 0.158525 -0.112539
v  0.268085 0.192637 -0.083772
v  0.255682 0.165076 -0.131884
v  0.210528 0.173330 -0.115621
v  0.338641 0.185966 0.000000
v  0.312724 0.213551 0.000000
v  0.298906 0.204517 0.040033
v  0.265101 0.223452 0.000000
v  0.265101 0.223452 0.000000
v  0.312724 0.213551 0.000000
v  0.298895 0.204335 0.040033
v  0.318044 0.182620 0.070216
v  0.268404 0.209548 0.047230
v  0.225780 0.208510 0.037220
v  0.221368 0.222469 0.000000
v  0.205458 0.213714 0.000000
v  0.217503 0.200636 0.064600
v  0.271990 0.194961 0.082039
v  0.268404 0.209548 0.047230
v  0.265101 0.223452 0.000000
v  0.221368 0.222469 0.000000
v  0.265101 0.223452 0.000000
v  0.225769 0.210983 0.037220
v  0.205458 0.213714 0.000000
v  0.189769 0.207184 0.013517
v  0.187816 0.207821 0.000000
v  0.169010 0.209648 0.000000
v  0.189769 0.207184 -0.013517
v  0.170336 0.207535 -0.012113
v  0.181453 0.196335 -0.061279
v  0.196622 0.195379 -0.057942
v  0.193329 0.184105 -0.100751
v  0.207739 0.183212 -0.094797
v  0.224647 0.146891 -0.130385
v  0.208698 0.145366 -0.139147
v  0.208698 0.134925 0.132100
v  0.224647 0.131149 0.124049
v  0.193329 0.184105 0.100751
v  0.207739 0.183212 0.094797
v  0.196622 0.195378 0.057943
v  0.181453 0.196334 0.061279
v  0.170336 0.207535 0.012113
v  0.135349 0.219483 0.000000
v  0.134464 0.210552 -0.016419
v  0.133647 0.199573 -0.027224
v  0.115511 0.198530 0.000000
v  0.134464 0.210552 0.016420
v  0.133647 0.199573 0.027224
v  0.177432 -0.067435 -0.186054
v  0.204675 -0.047507 -0.194625
v  0.156245 -0.044477 -0.184822
v  0.198983 -0.022435 -0.193295
v  0.175391 -0.014727 -0.184423
v  0.206819 0.105697 -0.163899
v  0.246435 0.098336 -0.167056
v  0.217324 0.172443 -0.092646
v  0.290437 0.153090 -0.087092
v  0.220990 0.193666 0.000000
v  0.300496 0.172003 0.000000
v  0.290437 0.153090 0.087093
v  0.217324 0.172443 0.092646
v  0.246435 0.104385 0.170402
v  0.206819 0.111747 0.167245
v  0.198983 -0.022436 0.193295
v  0.175391 -0.014727 0.184423
v  0.156245 -0.044477 0.184822
v  0.204675 -0.047508 0.194625
v  0.177432 -0.067435 0.186054

vt  0.479594 -0.168856 0.000000
vt  0.202350 -0.037614 0.000000
vt  0.462510 -0.047302 0.000000
vt  0.202350 -0.037614 0.000000
vt  0.479594 -0.168856 0.000000
vt  0.188354 -0.196036 0.000000
vt  0.479594 -0.168856 0.000000
vt  0.248602 -0.375001 0.000000
vt  0.188354 -0.196036 0.000000
vt  0.248602 -0.375001 0.000000
vt  0.479594 -0.168856 0.000000
vt  0.497103 -0.293446 0.000000
vt  0.805922 -0.142888 0.000000
vt  0.976539 -0.022110 0.000000
vt  0.978101 -0.114338 0.000000
vt  0.976539 -0.022002 0.000000
vt  0.805922 -0.142837 0.000000
vt  0.978101 -0.114217 0.000000
vt  0.981936 -0.294034 0.000000
vt  0.805922 -0.142888 0.000000
vt  0.978101 -0.114338 0.000000
vt  0.978096 -0.651454 0.000000
vt  0.789720 -0.458533 0.000000
vt  0.978097 -0.524152 0.000000
vt  0.479594 -0.168856 0.000000
vt  0.202350 -0.037614 0.000000
vt  0.188354 -0.196036 0.000000
vt  0.202350 -0.037614 0.000000
vt  0.479594 -0.168856 0.000000
vt  0.462510 -0.047302 0.000000
vt  0.789720 -0.458533 0.000000
vt  0.981936 -0.294034 0.000000
vt  0.978097 -0.524152 0.000000
vt  0.789720 -0.458482 0.000000
vt  0.978097 -0.524100 0.000000
vt  0.981936 -0.294487 0.000000
vt  0.805922 -0.142837 0.000000
vt  0.981935 -0.293367 0.000000
vt  0.978101 -0.114217 0.000000
vt  0.789720 -0.458482 0.000000
vt  0.978096 -0.651454 0.000000
vt  0.978097 -0.524100 0.000000
vt  0.479594 -0.168856 0.000000
vt  0.248602 -0.375001 0.000000
vt  0.497103 -0.293446 0.000000
vt  0.248602 -0.375001 0.000000
vt  0.479594 -0.168856 0.000000
vt  0.188354 -0.196036 0.000000
vt  0.903760 -0.738060 0.000000
vt  0.843165 -0.658440 0.000000
vt  0.908782 -0.702155 0.000000
vt  0.755878 -0.715645 0.000000
vt  0.831951 -0.691096 0.000000
vt  0.831098 -0.804666 0.000000
vt  0.911611 -0.774530 0.000000
vt  0.854154 -0.831113 0.000000
vt  0.755653 -0.793980 0.000000
vt  0.756599 -0.835182 0.000000
vt  0.457680 -0.896538 0.000000
vt  0.452909 -0.854685 0.000000
vt  0.270660 -0.928430 0.000000
vt  0.270991 -0.890102 0.000000
vt  0.048278 -0.877741 0.000000
vt  0.453661 -0.676052 0.000000
vt  0.758180 -0.671493 0.000000
vt  0.454102 -0.627628 0.000000
vt  0.256844 -0.639186 0.000000
vt  0.034234 -0.840479 0.000000
vt  0.270991 -0.890102 0.000000
vt  0.270660 -0.928430 0.000000
vt  0.452909 -0.854685 0.000000
vt  0.457680 -0.896538 0.000000
vt  0.755653 -0.793980 0.000000
vt  0.755878 -0.715645 0.000000
vt  0.831098 -0.804666 0.000000
vt  0.831951 -0.691096 0.000000
vt  0.903760 -0.738060 0.000000
vt  0.843165 -0.658440 0.000000
vt  0.908782 -0.702155 0.000000
vt  0.039607 -0.674969 0.000000
vt  0.256844 -0.639186 0.000000
vt  0.453661 -0.676052 0.000000
vt  0.262882 -0.593005 0.000000
vt  0.051333 -0.629822 0.000000
vt  0.262882 -0.593005 0.000000
vt  0.454102 -0.627628 0.000000
vt  0.758180 -0.671493 0.000000
vt  0.756599 -0.835182 0.000000
vt  0.854154 -0.831113 0.000000
vt  0.911611 -0.774530 0.000000
vt  0.748267 -0.293129 0.000000
vt  0.981935 -0.293367 0.000000
vt  0.805922 -0.142837 0.000000
vt  0.976539 -0.022002 0.000000
vt  0.657195 -0.066379 0.000000
vt  0.556291 -0.295633 0.000000
vt  0.789720 -0.458482 0.000000
vt  0.981938 -0.293926 0.000000
vt  0.976539 -0.022110 0.000000
vt  0.805922 -0.142888 0.000000
vt  0.748267 -0.293181 0.000000
vt  0.628839 -0.547858 0.000000
vt  0.978096 -0.651454 0.000000
vt  0.789720 -0.458533 0.000000
vt  0.981936 -0.294034 0.000000
vt  0.188354 -0.196036 0.000000
vt  0.047830 -0.016091 0.000000
vt  0.202350 -0.037614 0.000000
vt  0.202350 -0.037614 0.000000
vt  0.462510 -0.047302 0.000000
vt  0.479594 -0.168856 0.000000
vt  0.188354 -0.196036 0.000000
vt  0.008616 -0.218500 0.000000
vt  0.095414 -0.455166 0.000000
vt  0.248602 -0.375001 0.000000
vt  0.497103 -0.293446 0.000000
vt  0.248602 -0.375001 0.000000
vt  0.188354 -0.196036 0.000000
vt  0.047830 -0.016091 0.000000
vt  0.188354 -0.196036 0.000000
vt  0.008616 -0.218500 0.000000
vt  0.095414 -0.455166 0.000000
vt  0.978096 -0.651454 0.000000
vt  0.978097 -0.524152 0.000000
vt  0.789720 -0.458533 0.000000
vt  0.981936 -0.294034 0.000000
vt  0.981936 -0.294487 0.000000
vt  0.978097 -0.524100 0.000000
vt  0.789720 -0.458482 0.000000
vt  0.628839 -0.547858 0.000000
vt  0.748267 -0.293181 0.000000
vt  0.805922 -0.142888 0.000000
vt  0.978101 -0.114338 0.000000
vt  0.976539 -0.022110 0.000000
vt  0.657195 -0.066379 0.000000
vt  0.556291 -0.295633 0.000000
vt  0.748267 -0.293129 0.000000
vt  0.981938 -0.293926 0.000000
vt  0.978101 -0.114217 0.000000
vt  0.981935 -0.293367 0.000000
vt  0.805922 -0.142837 0.000000
vt  0.976539 -0.022002 0.000000
vt  0.421220 -0.389214 0.000000
vt  0.476557 -0.358732 0.000000
vt  0.517756 -0.418695 0.000000
vt  0.421220 -0.389214 0.000000
vt  0.457893 -0.452238 0.000000
vt  0.320921 -0.499051 0.000000
vt  0.293448 -0.440568 0.000000
vt  0.178953 -0.531078 0.000000
vt  0.163476 -0.474067 0.000000
vt  0.032898 -0.473430 0.000000
vt  0.045886 -0.545038 0.000000
vt  0.045886 -0.545038 0.000000
vt  0.032898 -0.473430 0.000000
vt  0.178953 -0.531078 0.000000
vt  0.163476 -0.474067 0.000000
vt  0.293448 -0.440568 0.000000
vt  0.320921 -0.499051 0.000000
vt  0.457893 -0.452238 0.000000
vt  0.584801 -0.516246 0.000000
vt  0.526932 -0.556809 0.000000
vt  0.483588 -0.597103 0.000000
vt  0.620121 -0.572667 0.000000
vt  0.526932 -0.556809 0.000000
vt  0.483588 -0.597103 0.000000
vt  0.545997 -0.922197 0.000000
vt  0.574839 -0.892480 0.000000
vt  0.573886 -0.957070 0.000000
vt  0.620576 -0.904911 0.000000
vt  0.620951 -0.948369 0.000000
vt  0.776602 -0.961658 0.000000
vt  0.774184 -0.883422 0.000000
vt  0.872232 -0.973300 0.000000
vt  0.870133 -0.864186 0.000000
vt  0.985711 -0.953067 0.000000
vt  0.978168 -0.868297 0.000000
vt  0.870133 -0.864186 0.000000
vt  0.872232 -0.973300 0.000000
vt  0.774184 -0.883422 0.000000
vt  0.776602 -0.961658 0.000000
vt  0.620576 -0.904911 0.000000
vt  0.620951 -0.948369 0.000000
vt  0.573886 -0.957070 0.000000
vt  0.574839 -0.892480 0.000000
vt  0.545997 -0.922197 0.000000

vn  0.660457 0.749970 0.036641
vn  0.660457 0.749970 0.036641
vn  0.660457 0.749970 0.036641
vn  0.242113 0.937101 0.251441
vn  0.242113 0.937101 0.251441
vn  0.242113 0.937101 0.251441
vn  -0.028050 0.963361 0.266737
vn  -0.028050 0.963361 0.266737
vn  -0.028050 0.963361 0.266737
vn  -0.182397 0.965206 0.187374
vn  -0.182397 0.965206 0.187374
vn  -0.182397 0.965206 0.187374
vn  -0.449807 0.817415 -0.359870
vn  -0.449807 0.817415 -0.359870
vn  -0.449807 0.817415 -0.359870
vn  0.458181 -0.832631 0.311122
vn  0.458181 -0.832631 0.311122
vn  0.458181 -0.832631 0.311122
vn  -0.021042 0.935292 -0.353252
vn  -0.021042 0.935292 -0.353252
vn  -0.021042 0.935292 -0.353252
vn  0.675250 0.634418 -0.376233
vn  0.675250 0.634418 -0.376233
vn  0.675250 0.634418 -0.376233
vn  0.242114 0.937101 -0.251439
vn  0.242114 0.937101 -0.251439
vn  0.242114 0.937101 -0.251439
vn  0.660457 0.749970 -0.036639
vn  0.660457 0.749970 -0.036639
vn  0.660457 0.749970 -0.036639
vn  0.195443 0.940021 -0.279575
vn  0.195443 0.940021 -0.279575
vn  0.195443 0.940021 -0.279575
vn  -0.195205 -0.938877 0.283557
vn  -0.195205 -0.938877 0.283557
vn  -0.195205 -0.938877 0.283557
vn  0.021477 -0.954598 0.297123
vn  0.021477 -0.954598 0.297123
vn  0.021477 -0.954598 0.297123
vn  -0.674469 -0.633684 0.378863
vn  -0.674469 -0.633684 0.378863
vn  -0.674469 -0.633684 0.378863
vn  -0.182397 0.965206 -0.187372
vn  -0.182397 0.965206 -0.187372
vn  -0.182397 0.965206 -0.187372
vn  -0.028050 0.963362 -0.266734
vn  -0.028050 0.963362 -0.266734
vn  -0.028050 0.963362 -0.266734
vn  -0.215721 -0.802939 -0.555656
vn  0.823259 -0.273260 0.497568
vn  -0.120619 -0.751618 0.648476
vn  0.605472 0.005439 -0.795848
vn  0.709730 -0.256585 -0.656085
vn  -0.732885 0.182291 -0.655477
vn  -0.120619 -0.751618 0.648476
vn  -0.863969 -0.173876 0.472573
vn  -0.445933 0.216029 -0.868605
vn  -0.647746 0.214293 0.731098
vn  -0.824463 -0.158740 0.543196
vn  -0.528111 0.519917 -0.671405
vn  -0.929009 -0.289467 0.230546
vn  -0.394579 0.852526 -0.342792
vn  -0.974821 -0.222987 -0.000000
vn  0.574373 0.229110 -0.785878
vn  0.758396 -0.140246 0.636528
vn  0.726409 -0.607733 0.320922
vn  0.810302 0.458683 -0.364719
vn  -0.286297 0.958141 0.000001
vn  -0.397908 0.861437 0.315588
vn  -0.923046 -0.309925 -0.227889
vn  -0.519765 0.536982 0.664451
vn  -0.841265 -0.156884 -0.517359
vn  -0.451582 0.202064 0.869048
vn  0.608509 -0.001389 0.793545
vn  -0.732887 0.182291 0.655474
vn  0.709730 -0.256585 0.656085
vn  -0.215716 -0.802940 0.555656
vn  0.823259 -0.273259 -0.497568
vn  -0.120621 -0.751617 -0.648477
vn  0.746647 0.665220 0.000000
vn  0.816487 0.458327 0.351119
vn  0.571157 0.248751 0.782242
vn  0.637846 -0.764516 0.093101
vn  0.700250 -0.713898 -0.000001
vn  0.626669 -0.775101 -0.080656
vn  0.732930 -0.612929 -0.295181
vn  0.758836 -0.125317 -0.639112
vn  -0.638189 0.218503 -0.738222
vn  -0.863968 -0.173875 -0.472575
vn  -0.120621 -0.751617 -0.648477
vn  -0.089520 -0.938579 0.333250
vn  -0.072189 -0.958145 0.277033
vn  0.172808 -0.939361 0.296207
vn  0.981102 -0.035742 0.190163
vn  0.079643 0.294153 0.952434
vn  0.772488 0.048805 0.633151
vn  -0.378963 -0.876107 0.298031
vn  -0.072189 -0.958145 0.277033
vn  0.981102 -0.035742 0.190163
vn  -0.124227 0.961036 -0.246935
vn  0.096174 0.938588 -0.331365
vn  -0.859937 0.443169 0.253200
vn  0.951914 -0.139879 -0.272567
vn  0.362643 0.870158 -0.333640
vn  0.037579 0.959323 -0.279800
vn  0.195389 0.817835 0.541266
vn  -0.649761 0.738510 -0.180039
vn  -0.314248 -0.923253 -0.221024
vn  -0.314248 -0.923254 0.221022
vn  -0.660901 -0.750474 -0.000001
vn  -0.222093 -0.975026 -0.000001
vn  -0.158745 -0.891344 -0.424625
vn  0.031949 0.447934 -0.893496
vn  0.913778 0.040607 -0.404179
vn  0.061651 -0.966234 -0.250181
vn  0.185685 -0.982609 -0.000001
vn  0.061651 -0.966235 0.250179
vn  -0.158745 -0.891345 0.424623
vn  -0.580777 0.742291 0.334219
vn  0.195389 0.817836 -0.541265
vn  0.089232 0.470650 0.877796
vn  0.668230 0.673934 0.315090
vn  0.668059 -0.363598 -0.649226
vn  0.341684 0.372330 -0.862915
vn  0.374771 0.865066 0.333477
vn  -0.731490 -0.220861 0.645091
vn  -0.731490 -0.220861 0.645091
vn  0.341684 0.372330 -0.862915
vn  -0.386696 -0.869186 -0.308192
vn  -0.859936 0.443168 -0.253205
vn  0.096175 0.938588 0.331366
vn  -0.133126 0.953232 0.271340
vn  0.158201 -0.433196 0.887307
vn  0.674974 0.080607 0.733426
vn  0.079649 0.294154 -0.952433
vn  0.772490 0.048804 -0.633148
vn  -0.089521 -0.938578 -0.333252
vn  -0.731490 -0.220861 0.645091
vn  0.158201 -0.433196 0.887307
vn  -0.731490 -0.220861 0.645091
vn  0.172028 -0.938657 -0.298880
vn  0.674974 0.080607 0.733426
vn  0.039228 0.985475 0.165226
vn  0.096705 0.995313 0.000001
vn  0.172594 0.984993 0.000000
vn  0.039228 0.985476 -0.165224
vn  0.089319 0.962890 -0.254686
vn  0.101584 0.963485 -0.247746
vn  0.121082 0.960519 -0.250484
vn  0.230692 0.862031 -0.451313
vn  0.237918 0.862605 -0.446439
vn  0.278140 0.730625 -0.623559
vn  0.274322 0.729657 -0.626377
vn  0.473263 0.573910 0.668318
vn  0.452534 0.569516 0.686196
vn  0.280273 0.796729 0.535415
vn  0.275553 0.789441 0.548500
vn  0.121083 0.960518 0.250486
vn  0.101586 0.963484 0.247748
vn  0.089318 0.962890 0.254687
vn  -0.261899 0.965095 0.000001
vn  -0.308518 0.762678 -0.568453
vn  -0.305928 0.679251 -0.667103
vn  -0.765241 0.643744 0.000001
vn  -0.308518 0.762677 0.568455
vn  -0.305928 0.679250 0.667104
vn  -0.120619 -0.751618 0.648476
vn  0.823259 -0.273260 0.497568
vn  -0.863969 -0.173876 0.472573
vn  0.758396 -0.140246 0.636528
vn  -0.647746 0.214293 0.731098
vn  -0.824463 -0.158740 0.543196
vn  0.726409 -0.607733 0.320922
vn  -0.929009 -0.289467 0.230546
vn  0.637846 -0.764516 0.093101
vn  -0.974821 -0.222987 -0.000000
vn  0.700250 -0.713898 -0.000001
vn  0.626669 -0.775101 -0.080656
vn  -0.923046 -0.309925 -0.227889
vn  0.732930 -0.612929 -0.295181
vn  -0.841265 -0.156884 -0.517359
vn  0.758836 -0.125317 -0.639112
vn  -0.638189 0.218503 -0.738222
vn  -0.863968 -0.173875 -0.472575
vn  0.823259 -0.273259 -0.497568
vn  -0.120621 -0.751617 -0.648477

g L1205
usemtl L1205_3
f  1/1/1 2/2/2 3/3/3
f  4/4/4 5/5/5 6/6/6
f  7/7/7 8/8/8 9/9/9
f  10/10/10 11/11/11 12/12/12
f  13/13/13 14/14/14 15/15/15
f  16/16/16 17/17/17 18/18/18
f  19/19/19 20/20/20 21/21/21
f  22/22/22 23/23/23 24/24/24
f  25/25/25 26/26/26 27/27/27
f  28/28/28 29/29/29 30/30/30
f  31/31/31 32/32/32 33/33/33
f  34/34/34 35/35/35 36/36/36
f  37/37/37 38/38/38 39/39/39
f  40/40/40 41/41/41 42/42/42
f  43/43/43 44/44/44 45/45/45
f  46/46/46 47/47/47 48/48/48
f  49/49/49 50/50/50 51/51/51
f  52/52/52 50/50/50 53/53/53
f  49/49/49 53/53/53 50/50/50
f  53/53/53 49/49/49 54/54/54
f  55/55/55 54/54/54 49/49/49
f  56/56/56 54/54/54 55/55/55
f  54/54/54 56/56/56 57/57/57
f  58/58/58 57/57/57 56/56/56
f  59/59/59 57/57/57 58/58/58
f  57/57/57 59/59/59 60/60/60
f  61/61/61 60/60/60 59/59/59
f  60/60/60 61/61/61 62/62/62
f  63/63/63 62/62/62 61/61/61
f  62/62/62 64/64/64 60/60/60
f  52/52/52 60/60/60 64/64/64
f  60/60/60 52/52/52 57/57/57
f  57/57/57 52/52/52 54/54/54
f  53/53/53 54/54/54 52/52/52
f  50/50/50 52/52/52 65/65/65
f  64/64/64 65/65/65 52/52/52
f  65/65/65 64/64/64 66/66/66
f  66/66/66 64/64/64 67/67/67
f  62/62/62 67/67/67 64/64/64
f  67/67/67 62/62/62 68/68/68
f  63/63/63 68/68/68 62/62/62
f  68/68/68 63/63/63 69/69/69
f  70/70/70 69/69/69 63/63/63
f  69/69/69 70/70/70 71/71/71
f  72/72/72 71/71/71 70/70/70
f  73/73/73 71/71/71 72/72/72
f  71/71/71 73/73/73 74/74/74
f  75/75/75 74/74/74 73/73/73
f  74/74/74 75/75/75 76/76/76
f  77/77/77 76/76/76 75/75/75
f  76/76/76 77/77/77 78/78/78
f  79/79/79 78/78/78 77/77/77
f  67/67/67 68/68/68 80/80/80
f  80/80/80 68/68/68 81/81/81
f  69/69/69 81/81/81 68/68/68
f  81/81/81 69/69/69 82/82/82
f  71/71/71 82/82/82 69/69/69
f  82/82/82 71/71/71 74/74/74
f  66/66/66 67/67/67 83/83/83
f  80/80/80 83/83/83 67/67/67
f  83/83/83 80/80/80 84/84/84
f  84/84/84 80/80/80 85/85/85
f  81/81/81 85/85/85 80/80/80
f  85/85/85 81/81/81 86/86/86
f  82/82/82 86/86/86 81/81/81
f  86/86/86 82/82/82 87/87/87
f  74/74/74 87/87/87 82/82/82
f  87/87/87 74/74/74 78/78/78
f  76/76/76 78/78/78 74/74/74
f  72/72/72 88/88/88 73/73/73
f  89/89/89 73/73/73 88/88/88
f  73/73/73 89/89/89 75/75/75
f  90/90/90 75/75/75 89/89/89
f  75/75/75 90/90/90 77/77/77
f  91/91/91 92/92/92 93/93/93
f  94/94/94 95/95/95 93/93/93
f  96/96/96 93/93/93 95/95/95
f  93/93/93 96/96/96 91/91/91
f  97/97/97 91/91/91 96/96/96
f  91/91/91 97/97/97 98/98/98
f  99/99/99 100/100/100 95/95/95
f  101/101/101 95/95/95 100/100/100
f  95/95/95 101/101/101 96/96/96
f  102/102/102 96/96/96 101/101/101
f  96/96/96 102/102/102 97/97/97
f  97/97/97 102/102/102 103/103/103
f  103/103/103 102/102/102 104/104/104
f  101/101/101 104/104/104 102/102/102
f  104/104/104 101/101/101 105/105/105
f  100/100/100 105/105/105 101/101/101
f  106/106/106 107/107/107 108/108/108
f  109/109/109 110/110/110 111/111/111
f  108/108/108 111/111/111 110/110/110
f  111/111/111 108/108/108 112/112/112
f  107/107/107 112/112/112 108/108/108
f  112/112/112 107/107/107 113/113/113
f  106/106/106 113/113/113 107/107/107
f  113/113/113 106/106/106 114/114/114
f  115/115/115 114/114/114 106/106/106
f  114/114/114 115/115/115 112/112/112
f  112/112/112 115/115/115 111/111/111
f  116/116/116 111/111/111 115/115/115
f  114/114/114 112/112/112 113/113/113
f  116/116/116 117/117/117 111/111/111
f  118/118/118 111/111/111 117/117/117
f  111/111/111 118/118/118 109/109/109
f  119/119/119 109/109/109 118/118/118
f  109/109/109 119/119/119 120/120/120
f  121/121/121 120/120/120 119/119/119
f  120/120/120 121/121/121 122/122/122
f  118/118/118 122/122/122 121/121/121
f  117/117/117 122/122/122 118/118/118
f  122/122/122 117/117/117 120/120/120
f  119/119/119 118/118/118 121/121/121
f  123/123/123 124/124/124 125/125/125
f  126/126/126 125/125/125 124/124/124
f  127/127/127 128/128/128 129/129/129
f  123/123/123 129/129/129 128/128/128
f  129/129/129 123/123/123 130/130/130
f  125/125/125 130/130/130 123/123/123
f  130/130/130 125/125/125 131/131/131
f  126/126/126 131/131/131 125/125/125
f  131/131/131 126/126/126 132/132/132
f  133/133/133 132/132/132 126/126/126
f  134/134/134 132/132/132 133/133/133
f  135/135/135 132/132/132 134/134/134
f  132/132/132 135/135/135 131/131/131
f  136/136/136 131/131/131 135/135/135
f  131/131/131 136/136/136 130/130/130
f  130/130/130 136/136/136 129/129/129
f  137/137/137 129/129/129 136/136/136
f  129/129/129 137/137/137 138/138/138
f  139/139/139 140/140/140 141/141/141
f  137/137/137 141/141/141 140/140/140
f  136/136/136 141/141/141 137/137/137
f  135/135/135 141/141/141 136/136/136
f  142/142/142 141/141/141 135/135/135
f  141/141/141 142/142/142 139/139/139
f  143/143/143 144/144/144 145/145/145
f  146/146/146 145/145/145 144/144/144
f  145/145/145 146/146/146 147/147/147
f  147/147/147 146/146/146 148/148/148
f  149/149/149 148/148/148 146/146/146
f  148/148/148 149/149/149 150/150/150
f  151/151/151 150/150/150 149/149/149
f  152/152/152 150/150/150 151/151/151
f  150/150/150 152/152/152 153/153/153
f  154/154/154 155/155/155 156/156/156
f  157/157/157 156/156/156 155/155/155
f  158/158/158 156/156/156 157/157/157
f  156/156/156 158/158/158 159/159/159
f  143/143/143 159/159/159 158/158/158
f  159/159/159 143/143/143 160/160/160
f  145/145/145 160/160/160 143/143/143
f  160/160/160 145/145/145 161/161/161
f  147/147/147 161/161/161 145/145/145
f  161/161/161 147/147/147 162/162/162
f  163/163/163 162/162/162 147/147/147
f  164/164/164 162/162/162 163/163/163
f  162/162/162 164/164/164 161/161/161
f  165/165/165 161/161/161 164/164/164
f  161/161/161 165/165/165 160/160/160
f  160/160/160 165/165/165 166/166/166
f  164/164/164 166/166/166 165/165/165
f  167/167/167 168/168/168 169/169/169
f  170/170/170 169/169/169 168/168/168
f  169/169/169 170/170/170 171/171/171
f  171/171/171 170/170/170 172/172/172
f  173/173/173 172/172/172 170/170/170
f  172/172/172 173/173/173 174/174/174
f  175/175/175 174/174/174 173/173/173
f  174/174/174 175/175/175 176/176/176
f  177/177/177 176/176/176 175/175/175
f  178/178/178 176/176/176 177/177/177
f  176/176/176 178/178/178 179/179/179
f  180/180/180 179/179/179 178/178/178
f  179/179/179 180/180/180 181/181/181
f  182/182/182 181/181/181 180/180/180
f  181/181/181 182/182/182 183/183/183
f  183/183/183 182/182/182 184/184/184
f  185/185/185 184/184/184 182/182/182
f  184/184/184 185/185/185 186/186/186

g
