# Noesis .obj export.
#
mtllib l1225.mtl
g
v  0.449321 0.110223 -0.257121
v  0.398139 0.091046 -0.280329
v  0.444381 0.112483 -0.275247
v  0.505520 0.113768 -0.305612
v  0.475160 0.138552 -0.274825
v  0.479140 0.125243 -0.270666
v  0.447099 0.130524 -0.245871
v  0.411489 0.089709 -0.251476
v  0.356849 0.059191 -0.303213
v  0.323874 0.091433 -0.328554
v  0.382235 0.121309 -0.292479
v  0.434614 0.128352 -0.280400
v  0.467963 0.114339 -0.283872
v  0.468793 0.125086 -0.290923
v  0.474469 0.113672 -0.272854
v  0.388910 0.156158 -0.248185
v  0.407414 0.118922 -0.234735
v  0.372477 0.061019 -0.256406
v  0.343639 0.034134 -0.256993
v  0.302647 0.012078 -0.313852
v  0.267891 0.071599 -0.330845
v  0.200280 0.044234 -0.305587
v  0.261335 -0.014747 -0.294322
v  0.320705 0.013145 -0.241760
v  0.332847 0.086534 -0.232688
v  0.314667 0.074881 -0.222433
v  0.275572 0.127419 -0.245033
v  0.303910 0.132815 -0.254816
v  0.342366 0.143866 -0.248075
v  0.364545 0.102478 -0.229178
v  0.262701 0.122952 -0.220702
v  0.307841 0.069375 -0.204430
v  0.303625 0.003409 -0.214200
v  0.225049 -0.032083 -0.253885
v  0.163990 0.031913 -0.255795
v  0.145878 0.020831 -0.184451
v  0.205260 -0.033659 -0.182625
v  0.158427 0.022121 -0.097882
v  0.216279 -0.030089 -0.117346
v  0.225967 -0.021207 -0.074592
v  0.293378 0.005333 -0.124574
v  0.311271 0.013463 -0.074879
v  0.305986 0.064566 -0.131840
v  0.312973 0.073225 -0.095873
v  0.252833 0.121262 -0.103908
v  0.254045 0.120579 -0.177819
v  0.301927 0.063724 -0.171523
v  0.292864 0.001060 -0.177107
v  0.180716 0.100288 -0.100970
v  0.176032 0.102752 -0.186379
v  0.185990 0.103927 -0.246059
v  0.215559 0.106699 -0.283684
v  0.262149 0.117724 -0.301909
v  0.321078 0.142417 -0.298878
v  0.379940 0.157050 -0.281224
v  0.439875 0.151944 -0.258017
v  0.434950 0.150442 -0.275043
v  0.471312 0.137009 -0.286984
v  0.158427 0.022121 -0.097882
v  0.145878 0.020831 -0.184451
v  0.163990 0.031913 -0.255795
v  0.200280 0.044234 -0.305587
v  0.267891 0.071599 -0.330845
v  0.323874 0.091433 -0.328554
v  0.382235 0.121309 -0.292479
v  0.434614 0.128352 -0.280400
v  0.468793 0.125086 -0.290923
v  0.434614 0.128352 0.280401
v  0.468793 0.125085 0.290924
v  0.434950 0.150442 0.275044
v  0.471312 0.137009 0.286984
v  0.439875 0.151943 0.258018
v  0.475160 0.138552 0.274826
v  0.505520 0.113768 0.305612
v  0.267891 0.071599 0.330845
v  0.323874 0.091433 0.328555
v  0.262149 0.117723 0.301910
v  0.321078 0.142416 0.298878
v  0.303910 0.132815 0.254816
v  0.342366 0.143866 0.248076
v  0.379940 0.157049 0.281225
v  0.388910 0.156158 0.248185
v  0.382235 0.121309 0.292480
v  0.479140 0.125243 0.270666
v  0.447099 0.130523 0.245872
v  0.407414 0.118921 0.234735
v  0.364545 0.102477 0.229178
v  0.332847 0.086533 0.232689
v  0.275572 0.127418 0.245034
v  0.215559 0.106699 0.283684
v  0.200280 0.044233 0.305587
v  0.163990 0.031913 0.255796
v  0.185990 0.103927 0.246060
v  0.262701 0.122952 0.220702
v  0.314667 0.074880 0.222434
v  0.320705 0.013144 0.241761
v  0.343639 0.034134 0.256994
v  0.372477 0.061019 0.256406
v  0.411489 0.089709 0.251476
v  0.449321 0.110222 0.257121
v  0.474469 0.113671 0.272854
v  0.200280 0.044233 0.305587
v  0.302647 0.012078 0.313852
v  0.267891 0.071599 0.330845
v  0.323874 0.091433 0.328555
v  0.356849 0.059191 0.303213
v  0.398139 0.091045 0.280329
v  0.382235 0.121309 0.292480
v  0.444381 0.112482 0.275247
v  0.434614 0.128352 0.280401
v  0.467963 0.114338 0.283873
v  0.468793 0.125085 0.290924
v  0.261335 -0.014747 0.294322
v  0.225049 -0.032083 0.253885
v  0.303625 0.003409 0.214200
v  0.205260 -0.033659 0.182626
v  0.292864 0.001059 0.177107
v  0.216279 -0.030089 0.117346
v  0.293378 0.005333 0.124575
v  0.301927 0.063724 0.171524
v  0.305986 0.064566 0.131841
v  0.254045 0.120578 0.177820
v  0.176032 0.102751 0.186380
v  0.145878 0.020831 0.184452
v  0.163990 0.031913 0.255796
v  0.145878 0.020831 0.184452
v  0.158427 0.022121 0.097882
v  0.225967 -0.021208 0.074592
v  0.311271 0.013462 0.074879
v  0.312973 0.073225 0.095874
v  0.252833 0.121262 0.103909
v  0.180716 0.100288 0.100971
v  0.158427 0.022121 0.097882
v  0.307841 0.069375 0.204431

vt  0.196782 -0.147289 0.000000
vt  0.308997 -0.145638 0.000000
vt  0.212335 -0.115510 0.000000
vt  0.089807 -0.050895 0.000000
vt  0.116598 -0.136846 0.000000
vt  0.135204 -0.120464 0.000000
vt  0.173779 -0.177140 0.000000
vt  0.269486 -0.192258 0.000000
vt  0.414360 -0.157218 0.000000
vt  0.450287 -0.062325 0.000000
vt  0.322990 -0.078920 0.000000
vt  0.231512 -0.084950 0.000000
vt  0.166304 -0.091008 0.000000
vt  0.169309 -0.066654 0.000000
vt  0.153800 -0.109610 0.000000
vt  0.174676 -0.281538 0.000000
vt  0.224899 -0.232498 0.000000
vt  0.356973 -0.234441 0.000000
vt  0.432674 -0.269946 0.000000
vt  0.537022 -0.176046 0.000000
vt  0.561234 -0.050662 0.000000
vt  0.708851 -0.075384 0.000000
vt  0.616465 -0.207439 0.000000
vt  0.493679 -0.313877 0.000000
vt  0.334183 -0.362226 0.000000
vt  0.373755 -0.409359 0.000000
vt  0.245396 -0.504255 0.000000
vt  0.220975 -0.437704 0.000000
vt  0.207703 -0.357071 0.000000
vt  0.282832 -0.300805 0.000000
vt  0.287875 -0.554299 0.000000
vt  0.414650 -0.445275 0.000000
vt  0.549701 -0.364796 0.000000
vt  0.693255 -0.258573 0.000000
vt  0.817276 -0.141154 0.000000
vt  0.907351 -0.241166 0.000000
vt  0.745778 -0.348881 0.000000
vt  0.982636 -0.356352 0.000000
vt  0.790447 -0.431476 0.000000
vt  0.811075 -0.506405 0.000000
vt  0.622588 -0.510267 0.000000
vt  0.631599 -0.590805 0.000000
vt  0.487470 -0.536682 0.000000
vt  0.508730 -0.585747 0.000000
vt  0.397145 -0.662322 0.000000
vt  0.343713 -0.607930 0.000000
vt  0.455796 -0.490621 0.000000
vt  0.588683 -0.409901 0.000000
vt  0.331292 -0.801796 0.000000
vt  0.250764 -0.740991 0.000000
vt  0.178895 -0.681129 0.000000
vt  0.134152 -0.611681 0.000000
vt  0.120852 -0.521507 0.000000
vt  0.127320 -0.410895 0.000000
vt  0.130184 -0.305885 0.000000
vt  0.141220 -0.200976 0.000000
vt  0.113371 -0.209474 0.000000
vt  0.094056 -0.137015 0.000000
vt  0.230883 -0.962549 0.000000
vt  0.130736 -0.877741 0.000000
vt  0.060914 -0.774076 0.000000
vt  0.020195 -0.666956 0.000000
vt  0.019755 -0.531836 0.000000
vt  0.023784 -0.434564 0.000000
vt  0.063935 -0.311405 0.000000
vt  0.070705 -0.207926 0.000000
vt  0.070353 -0.133132 0.000000
vt  0.070705 -0.207926 0.000000
vt  0.070353 -0.133132 0.000000
vt  0.113371 -0.209474 0.000000
vt  0.094056 -0.137015 0.000000
vt  0.141220 -0.200976 0.000000
vt  0.116598 -0.136846 0.000000
vt  0.089807 -0.050895 0.000000
vt  0.019755 -0.531836 0.000000
vt  0.023784 -0.434564 0.000000
vt  0.120852 -0.521507 0.000000
vt  0.127320 -0.410895 0.000000
vt  0.220975 -0.437704 0.000000
vt  0.207703 -0.357071 0.000000
vt  0.130184 -0.305885 0.000000
vt  0.174676 -0.281538 0.000000
vt  0.063935 -0.311405 0.000000
vt  0.135204 -0.120464 0.000000
vt  0.173779 -0.177140 0.000000
vt  0.224899 -0.232498 0.000000
vt  0.282832 -0.300805 0.000000
vt  0.334183 -0.362226 0.000000
vt  0.245396 -0.504255 0.000000
vt  0.134152 -0.611681 0.000000
vt  0.020195 -0.666956 0.000000
vt  0.060914 -0.774076 0.000000
vt  0.178895 -0.681129 0.000000
vt  0.287875 -0.554299 0.000000
vt  0.373755 -0.409359 0.000000
vt  0.493679 -0.313877 0.000000
vt  0.432674 -0.269946 0.000000
vt  0.356973 -0.234441 0.000000
vt  0.269486 -0.192258 0.000000
vt  0.196782 -0.147289 0.000000
vt  0.153800 -0.109610 0.000000
vt  0.708851 -0.075384 0.000000
vt  0.537022 -0.176046 0.000000
vt  0.561234 -0.050662 0.000000
vt  0.450287 -0.062325 0.000000
vt  0.414360 -0.157218 0.000000
vt  0.308997 -0.145638 0.000000
vt  0.322990 -0.078920 0.000000
vt  0.212335 -0.115510 0.000000
vt  0.231512 -0.084950 0.000000
vt  0.166304 -0.091008 0.000000
vt  0.169309 -0.066654 0.000000
vt  0.616465 -0.207439 0.000000
vt  0.693255 -0.258573 0.000000
vt  0.549701 -0.364796 0.000000
vt  0.745778 -0.348881 0.000000
vt  0.588683 -0.409901 0.000000
vt  0.790447 -0.431476 0.000000
vt  0.622588 -0.510267 0.000000
vt  0.455796 -0.490621 0.000000
vt  0.487470 -0.536682 0.000000
vt  0.343713 -0.607930 0.000000
vt  0.250764 -0.740991 0.000000
vt  0.130736 -0.877741 0.000000
vt  0.817276 -0.141154 0.000000
vt  0.907351 -0.241166 0.000000
vt  0.982636 -0.356352 0.000000
vt  0.811075 -0.506405 0.000000
vt  0.631599 -0.590805 0.000000
vt  0.508730 -0.585747 0.000000
vt  0.397145 -0.662322 0.000000
vt  0.331292 -0.801796 0.000000
vt  0.230883 -0.962549 0.000000
vt  0.414650 -0.445275 0.000000

vn  0.446252 -0.769230 0.457324
vn  0.553598 -0.500440 -0.665649
vn  0.120620 -0.768526 -0.628347
vn  0.764850 -0.263754 -0.587740
vn  0.588015 0.769233 0.250038
vn  0.718158 0.023862 0.695470
vn  0.440064 0.109991 0.891204
vn  0.486092 -0.766804 0.419197
vn  0.626846 -0.478535 -0.614873
vn  0.196466 0.145131 -0.969710
vn  0.365912 0.112152 -0.923867
vn  -0.000603 0.004020 -0.999992
vn  -0.193196 -0.854483 -0.482218
vn  -0.331338 -0.062664 -0.941429
vn  0.394792 -0.814710 0.424720
vn  -0.022496 0.824506 0.565406
vn  0.208191 -0.032431 0.977551
vn  0.583775 -0.722600 0.370210
vn  0.695728 -0.657185 0.289947
vn  0.327898 -0.665840 -0.670179
vn  -0.196418 0.088469 -0.976521
vn  -0.598989 -0.097181 -0.794838
vn  0.068280 -0.826408 -0.558916
vn  0.739450 -0.641335 0.204702
vn  0.159073 0.055708 0.985694
vn  0.669036 0.265869 0.694050
vn  0.009345 0.963465 0.267672
vn  -0.192628 0.853340 0.484465
vn  -0.265037 0.743072 0.614491
vn  0.054419 -0.060182 0.996703
vn  0.203456 0.963709 0.172834
vn  0.887157 0.319704 0.332778
vn  0.735874 -0.649785 0.190444
vn  -0.173006 -0.941736 -0.288449
vn  -0.887512 -0.175450 -0.426075
vn  -0.967195 -0.246030 -0.063263
vn  -0.239955 -0.970746 -0.008596
vn  -0.920522 -0.344893 0.183543
vn  -0.128773 -0.979671 0.153825
vn  0.013714 -0.983469 0.180559
vn  0.748321 -0.661223 -0.052911
vn  0.787173 -0.598820 -0.147559
vn  0.949983 0.259749 -0.173385
vn  0.908895 0.329318 -0.255849
vn  0.269751 0.962213 -0.037160
vn  0.277392 0.959870 0.041277
vn  0.961952 0.264150 0.069808
vn  0.750281 -0.653441 0.100468
vn  -0.696278 0.713309 0.079922
vn  -0.684986 0.727724 -0.034808
vn  -0.661398 0.707901 -0.247850
vn  -0.495308 0.721624 -0.483662
vn  -0.321378 0.769715 -0.551594
vn  -0.177558 0.853241 -0.490361
vn  0.034826 0.869542 -0.492630
vn  0.310616 0.869554 0.383920
vn  0.126679 0.784031 -0.607658
vn  0.117700 0.755697 -0.644258
vn  -0.920522 -0.344893 0.183543
vn  -0.967195 -0.246030 -0.063263
vn  -0.887512 -0.175450 -0.426075
vn  -0.598989 -0.097181 -0.794838
vn  -0.196418 0.088469 -0.976521
vn  0.196466 0.145131 -0.969710
vn  0.365912 0.112152 -0.923867
vn  -0.000603 0.004020 -0.999992
vn  -0.331338 -0.062664 -0.941429
vn  -0.000602 0.004019 0.999992
vn  -0.331338 -0.062667 0.941429
vn  0.126679 0.784030 0.607659
vn  0.117700 0.755696 0.644259
vn  0.310616 0.869555 -0.383918
vn  0.588015 0.769233 -0.250037
vn  0.764850 -0.263756 0.587739
vn  -0.196417 0.088467 0.976521
vn  0.196466 0.145129 0.969711
vn  -0.321377 0.769714 0.551595
vn  -0.177558 0.853240 0.490362
vn  -0.192627 0.853341 -0.484463
vn  -0.265037 0.743073 -0.614490
vn  0.034826 0.869541 0.492632
vn  -0.022496 0.824507 -0.565404
vn  0.365912 0.112151 0.923867
vn  0.718158 0.023863 -0.695471
vn  0.440065 0.109993 -0.891204
vn  0.208190 -0.032429 -0.977551
vn  0.054419 -0.060180 -0.996703
vn  0.159073 0.055710 -0.985694
vn  0.009345 0.963465 -0.267671
vn  -0.495307 0.721623 0.483663
vn  -0.598989 -0.097182 0.794838
vn  -0.887512 -0.175450 0.426075
vn  -0.661398 0.707900 0.247851
vn  0.203455 0.963709 -0.172832
vn  0.669035 0.265869 -0.694050
vn  0.739450 -0.641335 -0.204704
vn  0.695728 -0.657185 -0.289949
vn  0.583775 -0.722600 -0.370212
vn  0.486092 -0.766803 -0.419198
vn  0.446252 -0.769230 -0.457324
vn  0.394791 -0.814709 -0.424722
vn  -0.598989 -0.097182 0.794838
vn  0.327899 -0.665841 0.670178
vn  -0.196417 0.088467 0.976521
vn  0.196466 0.145129 0.969711
vn  0.626846 -0.478536 0.614872
vn  0.553598 -0.500441 0.665648
vn  0.365912 0.112151 0.923867
vn  0.120620 -0.768525 0.628347
vn  -0.000602 0.004019 0.999992
vn  -0.193195 -0.854484 0.482216
vn  -0.331338 -0.062667 0.941429
vn  0.068280 -0.826409 0.558915
vn  -0.173005 -0.941736 0.288447
vn  0.735874 -0.649784 -0.190446
vn  -0.239955 -0.970746 0.008595
vn  0.750281 -0.653441 -0.100469
vn  -0.128773 -0.979671 -0.153827
vn  0.748321 -0.661223 0.052910
vn  0.961952 0.264150 -0.069808
vn  0.949983 0.259749 0.173386
vn  0.277392 0.959870 -0.041275
vn  -0.684986 0.727724 0.034810
vn  -0.967195 -0.246030 0.063263
vn  -0.887512 -0.175450 0.426075
vn  -0.967195 -0.246030 0.063263
vn  -0.920522 -0.344893 -0.183544
vn  0.013714 -0.983468 -0.180561
vn  0.787173 -0.598821 0.147557
vn  0.908895 0.329318 0.255849
vn  0.269751 0.962213 0.037162
vn  -0.696278 0.713309 -0.079920
vn  -0.920522 -0.344893 -0.183544
vn  0.887157 0.319705 -0.332778

g L1225
usemtl L1225_3
f  1/1/1 2/2/2 3/3/3
f  4/4/4 5/5/5 6/6/6
f  7/7/7 6/6/6 5/5/5
f  6/6/6 7/7/7 1/1/1
f  8/8/8 1/1/1 7/7/7
f  1/1/1 8/8/8 2/2/2
f  9/9/9 2/2/2 8/8/8
f  10/10/10 2/2/2 9/9/9
f  11/11/11 2/2/2 10/10/10
f  2/2/2 11/11/11 3/3/3
f  12/12/12 3/3/3 11/11/11
f  3/3/3 12/12/12 13/13/13
f  14/14/14 13/13/13 12/12/12
f  4/4/4 13/13/13 14/14/14
f  13/13/13 4/4/4 15/15/15
f  6/6/6 15/15/15 4/4/4
f  1/1/1 15/15/15 6/6/6
f  3/3/3 15/15/15 1/1/1
f  15/15/15 3/3/3 13/13/13
f  16/16/16 17/17/17 7/7/7
f  7/7/7 17/17/17 8/8/8
f  18/18/18 8/8/8 17/17/17
f  8/8/8 18/18/18 9/9/9
f  19/19/19 9/9/9 18/18/18
f  20/20/20 9/9/9 19/19/19
f  9/9/9 20/20/20 10/10/10
f  10/10/10 20/20/20 21/21/21
f  21/21/21 20/20/20 22/22/22
f  22/22/22 20/20/20 23/23/23
f  19/19/19 23/23/23 20/20/20
f  23/23/23 19/19/19 24/24/24
f  25/25/25 24/24/24 19/19/19
f  24/24/24 25/25/25 26/26/26
f  26/26/26 25/25/25 27/27/27
f  27/27/27 25/25/25 28/28/28
f  28/28/28 25/25/25 29/29/29
f  30/30/30 29/29/29 25/25/25
f  29/29/29 30/30/30 16/16/16
f  16/16/16 30/30/30 17/17/17
f  17/17/17 30/30/30 18/18/18
f  18/18/18 30/30/30 19/19/19
f  25/25/25 19/19/19 30/30/30
f  27/27/27 31/31/31 26/26/26
f  32/32/32 26/26/26 31/31/31
f  26/26/26 32/32/32 24/24/24
f  33/33/33 24/24/24 32/32/32
f  34/34/34 24/24/24 33/33/33
f  24/24/24 34/34/34 23/23/23
f  23/23/23 34/34/34 22/22/22
f  22/22/22 34/34/34 35/35/35
f  35/35/35 34/34/34 36/36/36
f  37/37/37 36/36/36 34/34/34
f  36/36/36 37/37/37 38/38/38
f  39/39/39 38/38/38 37/37/37
f  38/38/38 39/39/39 40/40/40
f  41/41/41 40/40/40 39/39/39
f  40/40/40 41/41/41 42/42/42
f  43/43/43 42/42/42 41/41/41
f  42/42/42 43/43/43 44/44/44
f  45/45/45 44/44/44 43/43/43
f  45/45/45 43/43/43 46/46/46
f  47/47/47 46/46/46 43/43/43
f  46/46/46 47/47/47 31/31/31
f  31/31/31 47/47/47 32/32/32
f  32/32/32 47/47/47 33/33/33
f  48/48/48 33/33/33 47/47/47
f  37/37/37 33/33/33 48/48/48
f  33/33/33 37/37/37 34/34/34
f  43/43/43 41/41/41 47/47/47
f  47/47/47 41/41/41 48/48/48
f  39/39/39 48/48/48 41/41/41
f  48/48/48 39/39/39 37/37/37
f  49/49/49 45/45/45 50/50/50
f  46/46/46 50/50/50 45/45/45
f  50/50/50 46/46/46 51/51/51
f  31/31/31 51/51/51 46/46/46
f  51/51/51 31/31/31 52/52/52
f  27/27/27 52/52/52 31/31/31
f  52/52/52 27/27/27 53/53/53
f  28/28/28 53/53/53 27/27/27
f  53/53/53 28/28/28 54/54/54
f  29/29/29 54/54/54 28/28/28
f  54/54/54 29/29/29 55/55/55
f  16/16/16 55/55/55 29/29/29
f  56/56/56 55/55/55 16/16/16
f  55/55/55 56/56/56 57/57/57
f  57/57/57 56/56/56 58/58/58
f  58/58/58 56/56/56 5/5/5
f  5/5/5 56/56/56 7/7/7
f  16/16/16 7/7/7 56/56/56
f  59/59/59 49/49/49 60/60/60
f  50/50/50 60/60/60 49/49/49
f  60/60/60 50/50/50 61/61/61
f  51/51/51 61/61/61 50/50/50
f  61/61/61 51/51/51 62/62/62
f  52/52/52 62/62/62 51/51/51
f  62/62/62 52/52/52 63/63/63
f  53/53/53 63/63/63 52/52/52
f  63/63/63 53/53/53 64/64/64
f  54/54/54 64/64/64 53/53/53
f  55/55/55 64/64/64 54/54/54
f  64/64/64 55/55/55 65/65/65
f  65/65/65 55/55/55 66/66/66
f  57/57/57 66/66/66 55/55/55
f  66/66/66 57/57/57 67/67/67
f  58/58/58 67/67/67 57/57/57
f  67/67/67 58/58/58 4/4/4
f  5/5/5 4/4/4 58/58/58
f  68/68/68 69/69/69 70/70/70
f  71/71/71 70/70/70 69/69/69
f  70/70/70 71/71/71 72/72/72
f  72/72/72 71/71/71 73/73/73
f  73/73/73 71/71/71 74/74/74
f  69/69/69 74/74/74 71/71/71
f  75/75/75 76/76/76 77/77/77
f  78/78/78 77/77/77 76/76/76
f  77/77/77 78/78/78 79/79/79
f  79/79/79 78/78/78 80/80/80
f  81/81/81 80/80/80 78/78/78
f  80/80/80 81/81/81 82/82/82
f  82/82/82 81/81/81 72/72/72
f  72/72/72 81/81/81 70/70/70
f  70/70/70 81/81/81 68/68/68
f  68/68/68 81/81/81 83/83/83
f  83/83/83 81/81/81 76/76/76
f  78/78/78 76/76/76 81/81/81
f  84/84/84 85/85/85 73/73/73
f  73/73/73 85/85/85 72/72/72
f  72/72/72 85/85/85 82/82/82
f  86/86/86 82/82/82 85/85/85
f  87/87/87 82/82/82 86/86/86
f  82/82/82 87/87/87 80/80/80
f  88/88/88 80/80/80 87/87/87
f  80/80/80 88/88/88 79/79/79
f  89/89/89 79/79/79 88/88/88
f  79/79/79 89/89/89 77/77/77
f  90/90/90 77/77/77 89/89/89
f  77/77/77 90/90/90 75/75/75
f  91/91/91 75/75/75 90/90/90
f  92/92/92 91/91/91 93/93/93
f  90/90/90 93/93/93 91/91/91
f  93/93/93 90/90/90 94/94/94
f  89/89/89 94/94/94 90/90/90
f  94/94/94 89/89/89 95/95/95
f  88/88/88 95/95/95 89/89/89
f  95/95/95 88/88/88 96/96/96
f  96/96/96 88/88/88 97/97/97
f  87/87/87 97/97/97 88/88/88
f  97/97/97 87/87/87 98/98/98
f  86/86/86 98/98/98 87/87/87
f  98/98/98 86/86/86 99/99/99
f  85/85/85 99/99/99 86/86/86
f  99/99/99 85/85/85 100/100/100
f  84/84/84 100/100/100 85/85/85
f  100/100/100 84/84/84 101/101/101
f  101/101/101 84/84/84 74/74/74
f  73/73/73 74/74/74 84/84/84
f  102/102/102 103/103/103 104/104/104
f  104/104/104 103/103/103 105/105/105
f  106/106/106 105/105/105 103/103/103
f  107/107/107 105/105/105 106/106/106
f  105/105/105 107/107/107 108/108/108
f  109/109/109 108/108/108 107/107/107
f  108/108/108 109/109/109 110/110/110
f  111/111/111 110/110/110 109/109/109
f  110/110/110 111/111/111 112/112/112
f  112/112/112 111/111/111 74/74/74
f  74/74/74 111/111/111 101/101/101
f  109/109/109 101/101/101 111/111/111
f  101/101/101 109/109/109 100/100/100
f  107/107/107 100/100/100 109/109/109
f  100/100/100 107/107/107 99/99/99
f  106/106/106 99/99/99 107/107/107
f  99/99/99 106/106/106 98/98/98
f  97/97/97 98/98/98 106/106/106
f  106/106/106 103/103/103 97/97/97
f  113/113/113 97/97/97 103/103/103
f  97/97/97 113/113/113 96/96/96
f  114/114/114 96/96/96 113/113/113
f  96/96/96 114/114/114 115/115/115
f  116/116/116 115/115/115 114/114/114
f  115/115/115 116/116/116 117/117/117
f  118/118/118 117/117/117 116/116/116
f  119/119/119 117/117/117 118/118/118
f  117/117/117 119/119/119 120/120/120
f  121/121/121 120/120/120 119/119/119
f  122/122/122 120/120/120 121/121/121
f  120/120/120 122/122/122 94/94/94
f  94/94/94 122/122/122 93/93/93
f  123/123/123 93/93/93 122/122/122
f  93/93/93 123/123/123 92/92/92
f  124/124/124 92/92/92 123/123/123
f  102/102/102 113/113/113 103/103/103
f  113/113/113 102/102/102 114/114/114
f  125/125/125 114/114/114 102/102/102
f  126/126/126 114/114/114 125/125/125
f  114/114/114 126/126/126 116/116/116
f  127/127/127 116/116/116 126/126/126
f  116/116/116 127/127/127 118/118/118
f  128/128/128 118/118/118 127/127/127
f  118/118/118 128/128/128 119/119/119
f  129/129/129 119/119/119 128/128/128
f  119/119/119 129/129/129 121/121/121
f  130/130/130 121/121/121 129/129/129
f  131/131/131 121/121/121 130/130/130
f  121/121/121 131/131/131 122/122/122
f  122/122/122 131/131/131 123/123/123
f  132/132/132 123/123/123 131/131/131
f  123/123/123 132/132/132 124/124/124
f  133/133/133 124/124/124 132/132/132
f  120/120/120 94/94/94 134/134/134
f  95/95/95 134/134/134 94/94/94
f  96/96/96 134/134/134 95/95/95
f  115/115/115 134/134/134 96/96/96
f  134/134/134 115/115/115 120/120/120
f  117/117/117 120/120/120 115/115/115

g
