# Noesis .obj export.
#
mtllib l1230.mtl
g
v  0.205020 0.021296 0.177829
v  0.208742 -0.095882 0.143428
v  0.207683 -0.029375 0.165668
v  0.204521 -0.162188 0.067342
v  0.202003 -0.175648 -0.006917
v  0.200306 0.137227 0.139693
v  0.201173 0.075320 0.170720
v  0.089485 0.155725 -0.065323
v  0.080573 0.127517 -0.122490
v  0.136005 0.174089 0.001231
v  0.092250 0.079733 -0.147738
v  0.113635 0.026777 -0.153336
v  0.144074 -0.024498 -0.162279
v  0.159413 -0.097825 -0.142495
v  0.194139 -0.159999 -0.079108
v  0.197204 0.168861 0.070959
v  0.196418 0.178678 0.073556
v  0.195410 0.182131 -0.002203
v  0.193209 0.192551 -0.002054
v  0.190379 0.179187 -0.078954
v  0.192348 0.164821 -0.076435
v  0.189176 0.137871 -0.142942
v  0.189430 0.124545 -0.138870
v  0.187717 0.079538 -0.177486
v  0.189198 0.077615 -0.168917
v  0.187270 0.028432 -0.182012
v  0.190103 0.027673 -0.174648
v  0.185353 -0.021550 -0.174341
v  0.188009 -0.021512 -0.178859
v  0.190542 -0.104996 -0.148380
v  0.191444 -0.104614 -0.141286
v  0.196102 -0.163161 -0.085069
v  0.292450 -0.025286 0.143747
v  0.294675 -0.084814 0.116718
v  0.290468 0.020993 0.153202
v  0.285272 0.066379 0.144277
v  0.277741 0.144528 0.071758
v  0.281017 0.113611 0.118339
v  0.297106 -0.138625 0.059957
v  0.296521 -0.150607 -0.004583
v  0.274068 0.164740 -0.004396
v  0.275796 0.148806 -0.068249
v  0.294866 -0.137481 -0.073509
v  0.292600 -0.083587 -0.120931
v  0.289146 -0.025231 -0.145280
v  0.285827 0.027283 -0.154939
v  0.280675 0.065130 -0.148928
v  0.275101 0.110140 -0.127190
v  0.247285 0.074125 -0.162146
v  0.248193 0.072000 -0.157520
v  0.241355 0.030460 -0.173428
v  0.241253 0.030424 -0.168696
v  0.252103 0.029876 -0.166068
v  0.252628 -0.026330 -0.156403
v  0.258023 0.116885 -0.131368
v  0.259556 0.120157 -0.134735
v  0.267398 0.151261 -0.072995
v  0.272001 0.158535 -0.074422
v  0.228125 0.171260 -0.076734
v  0.224612 0.132153 -0.142203
v  0.221983 0.076818 -0.172944
v  0.221977 0.030561 -0.183757
v  0.227614 -0.028122 -0.171778
v  0.228940 -0.026536 -0.167028
v  0.219170 -0.098638 -0.143220
v  0.250954 -0.094981 -0.130098
v  0.254060 -0.147607 -0.078108
v  0.214988 -0.160052 -0.082769
v  0.231495 0.182840 -0.004464
v  0.193209 0.192551 -0.002054
v  0.190379 0.179187 -0.078954
v  0.189176 0.137871 -0.142942
v  0.187717 0.079538 -0.177486
v  0.187270 0.028432 -0.182012
v  0.188009 -0.021512 -0.178859
v  0.219037 -0.102252 -0.146891
v  0.190542 -0.104996 -0.148380
v  0.213775 -0.165496 -0.084974
v  0.196102 -0.163161 -0.085069
v  0.202003 -0.175648 -0.006917
v  0.251948 -0.168944 -0.004410
v  0.296521 -0.150607 -0.004583
v  0.294866 -0.137481 -0.073509
v  0.292600 -0.083587 -0.120931
v  0.289146 -0.025231 -0.145280
v  0.285827 0.027283 -0.154939
v  0.280675 0.065130 -0.148928
v  0.275101 0.110140 -0.127190
v  0.275796 0.148806 -0.068249
v  0.274068 0.164740 -0.004396
v  0.294675 -0.084814 0.116718
v  0.252674 -0.094988 0.127965
v  0.297106 -0.138625 0.059957
v  0.252086 -0.152358 0.067960
v  0.296521 -0.150607 -0.004583
v  0.251948 -0.168944 -0.004410
v  0.236521 -0.158376 0.065599
v  0.202003 -0.175648 -0.006917
v  0.204521 -0.162188 0.067342
v  0.230132 -0.095647 0.136190
v  0.251681 -0.029013 0.159445
v  0.292450 -0.025286 0.143747
v  0.250176 0.023701 0.171635
v  0.290468 0.020993 0.153202
v  0.246695 0.077147 0.160883
v  0.285272 0.066379 0.144277
v  0.243802 0.131403 0.131492
v  0.281017 0.113611 0.118339
v  0.237238 0.170616 0.072942
v  0.277741 0.144528 0.071758
v  0.231495 0.182840 -0.004464
v  0.274068 0.164740 -0.004396
v  0.229545 -0.030246 0.164912
v  0.227307 0.021852 0.174086
v  0.223877 0.074029 0.165801
v  0.219942 0.135219 0.136655
v  0.216451 0.177955 0.074805
v  0.208742 -0.095882 0.143428
v  0.207683 -0.029375 0.165668
v  0.205020 0.021296 0.177829
v  0.201173 0.075320 0.170720
v  0.200306 0.137227 0.139693
v  0.196418 0.178678 0.073556
v  0.193209 0.192551 -0.002054
v  0.134698 0.165663 -0.072750
v  0.130502 0.134385 -0.133422
v  0.080573 0.127517 -0.122490
v  0.092250 0.079733 -0.147738
v  0.135474 0.080490 -0.161332
v  0.113635 0.026777 -0.153336
v  0.153392 0.026803 -0.171901
v  0.144074 -0.024498 -0.162279
v  0.165755 -0.022575 -0.165795
v  0.159413 -0.097825 -0.142495
v  0.175268 -0.099465 -0.142516
v  0.194139 -0.159999 -0.079108
v  0.185598 -0.100289 -0.143813
v  0.191444 -0.104614 -0.141286
v  0.157132 0.186365 0.000853
v  0.188510 0.185024 -0.000486
v  0.177554 0.165487 -0.076958
v  0.172002 0.129181 -0.139942
v  0.172259 0.079002 -0.168017
v  0.174541 0.026447 -0.174916
v  0.180374 -0.022681 -0.163821
v  0.185353 -0.021550 -0.174341
v  0.190103 0.027673 -0.174648
v  0.189198 0.077615 -0.168917
v  0.189430 0.124545 -0.138870
v  0.192348 0.164821 -0.076435
v  0.195410 0.182131 -0.002203
v  0.197204 0.168861 0.070959
v  0.136005 0.174089 0.001231
v  0.089485 0.155725 -0.065323

vt  0.506241 -0.888681 0.000000
vt  0.522378 -0.782834 0.000000
vt  0.506461 -0.842492 0.000000
vt  0.557229 -0.742153 0.000000
vt  0.612102 -0.714539 0.000000
vt  0.559133 -0.977690 0.000000
vt  0.525688 -0.936572 0.000000
vt  0.699796 -0.961973 0.000000
vt  0.746087 -0.917286 0.000000
vt  0.657324 -0.975369 0.000000
vt  0.753531 -0.866229 0.000000
vt  0.729139 -0.807316 0.000000
vt  0.700229 -0.774175 0.000000
vt  0.685951 -0.751177 0.000000
vt  0.663681 -0.733214 0.000000
vt  0.619179 -0.985371 0.000000
vt  0.617121 -0.993834 0.000000
vt  0.668353 -0.983709 0.000000
vt  0.670914 -0.996769 0.000000
vt  0.722931 -0.970076 0.000000
vt  0.714490 -0.958959 0.000000
vt  0.764040 -0.929685 0.000000
vt  0.749539 -0.921064 0.000000
vt  0.777384 -0.877569 0.000000
vt  0.764116 -0.875239 0.000000
vt  0.775567 -0.824983 0.000000
vt  0.753187 -0.830076 0.000000
vt  0.735905 -0.790140 0.000000
vt  0.758755 -0.781576 0.000000
vt  0.719390 -0.735457 0.000000
vt  0.703099 -0.751289 0.000000
vt  0.676199 -0.715037 0.000000
vt  0.984362 -0.091765 0.000000
vt  0.949546 -0.042494 0.000000
vt  0.996062 -0.134714 0.000000
vt  0.991002 -0.183991 0.000000
vt  0.918455 -0.262613 0.000000
vt  0.970404 -0.230706 0.000000
vt  0.903964 -0.015636 0.000000
vt  0.841755 -0.003224 0.000000
vt  0.867145 -0.285031 0.000000
vt  0.812687 -0.270339 0.000000
vt  0.778781 -0.025611 0.000000
vt  0.743040 -0.057098 0.000000
vt  0.717959 -0.110656 0.000000
vt  0.714255 -0.154769 0.000000
vt  0.727936 -0.202734 0.000000
vt  0.756287 -0.246106 0.000000
vt  0.395591 -0.609526 0.000000
vt  0.410902 -0.609526 0.000000
vt  0.367559 -0.491017 0.000000
vt  0.376898 -0.491017 0.000000
vt  0.403845 -0.491017 0.000000
vt  0.403845 -0.387059 0.000000
vt  0.442555 -0.731468 0.000000
vt  0.426928 -0.731468 0.000000
vt  0.474377 -0.863634 0.000000
vt  0.456671 -0.863634 0.000000
vt  0.351587 -0.863634 0.000000
vt  0.351587 -0.731468 0.000000
vt  0.351587 -0.609526 0.000000
vt  0.351587 -0.491017 0.000000
vt  0.341572 -0.387059 0.000000
vt  0.353131 -0.387059 0.000000
vt  0.322793 -0.249030 0.000000
vt  0.403845 -0.249030 0.000000
vt  0.403845 -0.138802 0.000000
vt  0.293615 -0.138802 0.000000
vt  0.351587 -0.986254 0.000000
vt  0.247835 -0.986254 0.000000
vt  0.247835 -0.863634 0.000000
vt  0.247835 -0.731468 0.000000
vt  0.247835 -0.609526 0.000000
vt  0.247835 -0.491017 0.000000
vt  0.247835 -0.387059 0.000000
vt  0.309217 -0.249030 0.000000
vt  0.247835 -0.249030 0.000000
vt  0.283790 -0.138802 0.000000
vt  0.247835 -0.138802 0.000000
vt  0.247835 -0.006565 0.000000
vt  0.403845 -0.006565 0.000000
vt  0.502010 -0.006565 0.000000
vt  0.502010 -0.138802 0.000000
vt  0.502010 -0.249030 0.000000
vt  0.502010 -0.387059 0.000000
vt  0.502010 -0.491017 0.000000
vt  0.502010 -0.609526 0.000000
vt  0.502010 -0.731468 0.000000
vt  0.502010 -0.863634 0.000000
vt  0.502010 -0.986254 0.000000
vt  0.004599 -0.249030 0.000000
vt  0.119436 -0.249030 0.000000
vt  0.004599 -0.138802 0.000000
vt  0.119436 -0.138802 0.000000
vt  0.004599 -0.006565 0.000000
vt  0.119366 -0.006565 0.000000
vt  0.158522 -0.138802 0.000000
vt  0.238664 -0.006565 0.000000
vt  0.238664 -0.138802 0.000000
vt  0.176075 -0.249030 0.000000
vt  0.119436 -0.387059 0.000000
vt  0.004599 -0.387059 0.000000
vt  0.119436 -0.491017 0.000000
vt  0.004599 -0.491017 0.000000
vt  0.119436 -0.609526 0.000000
vt  0.004599 -0.609526 0.000000
vt  0.119436 -0.731468 0.000000
vt  0.004599 -0.731468 0.000000
vt  0.119436 -0.863634 0.000000
vt  0.004599 -0.863634 0.000000
vt  0.119436 -0.986254 0.000000
vt  0.004599 -0.986254 0.000000
vt  0.176075 -0.387059 0.000000
vt  0.176075 -0.491017 0.000000
vt  0.176075 -0.609526 0.000000
vt  0.176075 -0.731468 0.000000
vt  0.191435 -0.863634 0.000000
vt  0.238664 -0.249030 0.000000
vt  0.238664 -0.387059 0.000000
vt  0.238664 -0.491017 0.000000
vt  0.238664 -0.609526 0.000000
vt  0.238664 -0.731468 0.000000
vt  0.238664 -0.863634 0.000000
vt  0.238664 -0.986254 0.000000
vt  0.824630 -0.742643 0.000000
vt  0.762216 -0.641822 0.000000
vt  0.693988 -0.699536 0.000000
vt  0.617643 -0.592801 0.000000
vt  0.702222 -0.540362 0.000000
vt  0.562761 -0.479698 0.000000
vt  0.652827 -0.435235 0.000000
vt  0.522336 -0.347298 0.000000
vt  0.605361 -0.321214 0.000000
vt  0.512687 -0.197673 0.000000
vt  0.572404 -0.187418 0.000000
vt  0.526108 -0.035179 0.000000
vt  0.618226 -0.157296 0.000000
vt  0.639106 -0.125005 0.000000
vt  0.900389 -0.853375 0.000000
vt  0.941751 -0.833160 0.000000
vt  0.896255 -0.710343 0.000000
vt  0.848050 -0.595646 0.000000
vt  0.796394 -0.484971 0.000000
vt  0.739442 -0.378728 0.000000
vt  0.684547 -0.270593 0.000000
vt  0.735695 -0.223180 0.000000
vt  0.806548 -0.326895 0.000000
vt  0.870320 -0.445463 0.000000
vt  0.920312 -0.570677 0.000000
vt  0.956813 -0.702360 0.000000
vt  0.974105 -0.833544 0.000000
vt  0.986645 -0.982242 0.000000
vt  0.872607 -0.881254 0.000000
vt  0.767965 -0.785913 0.000000

vn  -0.583742 -0.047752 0.810534
vn  -0.515195 -0.486271 0.705773
vn  -0.526688 -0.235012 0.816927
vn  -0.606617 -0.704693 0.367998
vn  -0.597772 -0.800257 0.047507
vn  -0.580626 0.518470 0.627744
vn  -0.657552 0.193721 0.728078
vn  -0.953819 0.179766 0.240655
vn  -0.928959 0.276135 -0.246546
vn  -0.800039 0.361541 0.478775
vn  -0.894280 -0.092293 -0.437887
vn  -0.876000 -0.392418 -0.280412
vn  -0.739104 -0.313272 -0.596310
vn  -0.698673 -0.508475 -0.503298
vn  -0.938667 -0.344474 0.015554
vn  -0.982770 -0.001180 0.184827
vn  -0.689336 0.669116 0.277667
vn  -0.714818 0.697867 -0.044913
vn  -0.653564 0.756647 0.018402
vn  -0.640115 0.725216 -0.253605
vn  -0.773738 0.598520 -0.207613
vn  -0.623235 0.556509 -0.549432
vn  -0.702824 0.495929 -0.509994
vn  -0.671455 0.267442 -0.691103
vn  -0.826549 0.187466 -0.530730
vn  -0.800004 -0.021147 -0.599622
vn  -0.862276 -0.005190 -0.506413
vn  -0.887125 -0.080386 -0.454474
vn  -0.411896 -0.177681 -0.893740
vn  -0.658901 -0.445521 -0.606103
vn  -0.843664 -0.393157 -0.365595
vn  -0.577302 -0.735569 -0.354487
vn  0.820072 -0.154470 0.551019
vn  0.804566 -0.324098 0.497628
vn  0.846640 0.053298 0.529491
vn  0.830419 0.243754 0.500988
vn  0.828246 0.529102 0.184552
vn  0.821527 0.418919 0.386783
vn  0.790698 -0.544047 0.280731
vn  0.816345 -0.577549 -0.004248
vn  0.781943 0.622383 0.034707
vn  0.800518 0.561599 -0.209231
vn  0.758609 -0.543434 -0.359433
vn  0.795501 -0.296094 -0.528684
vn  0.793724 -0.131287 -0.593942
vn  0.823517 0.064781 -0.563580
vn  0.769701 0.253263 -0.586019
vn  0.723222 0.463335 -0.512124
vn  0.750349 0.152916 -0.643113
vn  0.769626 0.127149 -0.625706
vn  0.835827 -0.078825 -0.543304
vn  0.813129 -0.123917 -0.568741
vn  0.272264 0.025143 -0.961894
vn  0.340929 -0.244254 -0.907804
vn  0.932515 0.098575 -0.347417
vn  0.851669 0.252392 -0.459301
vn  0.970570 0.130077 -0.202665
vn  0.894443 0.375326 -0.243109
vn  0.254138 0.901344 -0.350703
vn  0.249313 0.656968 -0.711503
vn  0.273864 0.338723 -0.900147
vn  0.224017 0.002569 -0.974582
vn  0.629023 -0.256967 -0.733689
vn  0.783570 -0.238959 -0.573512
vn  0.864010 -0.328342 -0.381679
vn  0.348715 -0.516602 -0.781997
vn  0.301323 -0.815588 -0.493984
vn  0.778146 -0.582259 -0.235507
vn  0.319934 0.947437 0.002476
vn  -0.653564 0.756647 0.018402
vn  -0.640115 0.725216 -0.253605
vn  -0.623235 0.556509 -0.549432
vn  -0.671455 0.267442 -0.691103
vn  -0.800004 -0.021147 -0.599622
vn  -0.411896 -0.177681 -0.893740
vn  0.684940 -0.423463 -0.592905
vn  -0.658901 -0.445521 -0.606103
vn  0.546541 -0.778592 -0.308364
vn  -0.577302 -0.735569 -0.354487
vn  -0.597772 -0.800257 0.047507
vn  0.265793 -0.964025 -0.003270
vn  0.816345 -0.577549 -0.004248
vn  0.758609 -0.543434 -0.359433
vn  0.795501 -0.296094 -0.528684
vn  0.793724 -0.131287 -0.593942
vn  0.823517 0.064781 -0.563580
vn  0.769701 0.253263 -0.586019
vn  0.723222 0.463335 -0.512124
vn  0.800518 0.561599 -0.209231
vn  0.781943 0.622383 0.034707
vn  0.804566 -0.324098 0.497628
vn  0.311379 -0.568859 0.761211
vn  0.790698 -0.544047 0.280731
vn  0.291731 -0.831691 0.472424
vn  0.816345 -0.577549 -0.004248
vn  0.265793 -0.964025 -0.003270
vn  0.196339 -0.883057 0.426218
vn  -0.597772 -0.800257 0.047507
vn  -0.606617 -0.704693 0.367998
vn  0.271840 -0.572570 0.773477
vn  0.306361 -0.298685 0.903842
vn  0.820072 -0.154470 0.551019
vn  0.265647 0.020665 0.963849
vn  0.846640 0.053298 0.529491
vn  0.293065 0.347984 0.890517
vn  0.830419 0.243754 0.500988
vn  0.372649 0.642726 0.669355
vn  0.821527 0.418919 0.386783
vn  0.422638 0.857343 0.293838
vn  0.828246 0.529102 0.184552
vn  0.319934 0.947437 0.002476
vn  0.781943 0.622383 0.034707
vn  0.140724 -0.276212 0.950738
vn  0.133278 -0.008321 0.991044
vn  0.193215 0.297937 0.934827
vn  0.224080 0.646296 0.729445
vn  0.193469 0.920742 0.338827
vn  -0.515195 -0.486271 0.705773
vn  -0.526688 -0.235012 0.816927
vn  -0.583742 -0.047752 0.810534
vn  -0.657552 0.193721 0.728078
vn  -0.580626 0.518470 0.627744
vn  -0.689336 0.669116 0.277667
vn  -0.653564 0.756647 0.018402
vn  -0.141418 0.933097 -0.330652
vn  -0.145924 0.699326 -0.699750
vn  -0.928959 0.276135 -0.246546
vn  -0.894280 -0.092293 -0.437887
vn  -0.240802 0.259527 -0.935233
vn  -0.876000 -0.392418 -0.280412
vn  -0.263207 -0.017744 -0.964576
vn  -0.739104 -0.313272 -0.596310
vn  -0.013799 -0.227874 -0.973593
vn  -0.698673 -0.508475 -0.503298
vn  -0.094822 -0.530512 -0.842357
vn  -0.938667 -0.344474 0.015554
vn  -0.076916 -0.501701 -0.861615
vn  -0.843664 -0.393157 -0.365595
vn  -0.219438 0.970338 0.101446
vn  0.204245 0.978427 -0.031057
vn  0.021586 0.928299 -0.371208
vn  0.078913 0.681500 -0.727551
vn  -0.078499 0.326936 -0.941781
vn  -0.051715 -0.039781 -0.997869
vn  -0.448692 -0.195512 -0.872038
vn  -0.887125 -0.080386 -0.454474
vn  -0.862276 -0.005190 -0.506413
vn  -0.826549 0.187466 -0.530730
vn  -0.702824 0.495929 -0.509994
vn  -0.773738 0.598520 -0.207613
vn  -0.714818 0.697867 -0.044913
vn  -0.982770 -0.001180 0.184827
vn  -0.800039 0.361541 0.478775
vn  -0.953819 0.179766 0.240655

g L1230
usemtl L1230_3
f  1/1/1 2/2/2 3/3/3
f  4/4/4 2/2/2 5/5/5
f  1/1/1 5/5/5 2/2/2
f  5/5/5 1/1/1 6/6/6
f  7/7/7 6/6/6 1/1/1
f  8/8/8 9/9/9 10/10/10
f  11/11/11 10/10/10 9/9/9
f  12/12/12 10/10/10 11/11/11
f  13/13/13 10/10/10 12/12/12
f  14/14/14 10/10/10 13/13/13
f  15/15/15 10/10/10 14/14/14
f  10/10/10 15/15/15 16/16/16
f  5/5/5 16/16/16 15/15/15
f  6/6/6 16/16/16 5/5/5
f  17/17/17 16/16/16 6/6/6
f  16/16/16 17/17/17 18/18/18
f  19/19/19 18/18/18 17/17/17
f  20/20/20 18/18/18 19/19/19
f  18/18/18 20/20/20 21/21/21
f  22/22/22 21/21/21 20/20/20
f  21/21/21 22/22/22 23/23/23
f  24/24/24 23/23/23 22/22/22
f  23/23/23 24/24/24 25/25/25
f  24/24/24 26/26/26 25/25/25
f  25/25/25 26/26/26 27/27/27
f  27/27/27 26/26/26 28/28/28
f  29/29/29 28/28/28 26/26/26
f  30/30/30 28/28/28 29/29/29
f  28/28/28 30/30/30 31/31/31
f  32/32/32 31/31/31 30/30/30
f  31/31/31 32/32/32 15/15/15
f  5/5/5 15/15/15 32/32/32
f  33/33/33 34/34/34 35/35/35
f  35/35/35 34/34/34 36/36/36
f  37/37/37 36/36/36 34/34/34
f  36/36/36 37/37/37 38/38/38
f  34/34/34 39/39/39 37/37/37
f  40/40/40 37/37/37 39/39/39
f  37/37/37 40/40/40 41/41/41
f  41/41/41 40/40/40 42/42/42
f  43/43/43 42/42/42 40/40/40
f  42/42/42 43/43/43 44/44/44
f  45/45/45 46/46/46 44/44/44
f  47/47/47 44/44/44 46/46/46
f  44/44/44 47/47/47 42/42/42
f  48/48/48 42/42/42 47/47/47
f  49/49/49 50/50/50 51/51/51
f  51/51/51 50/50/50 52/52/52
f  53/53/53 52/52/52 50/50/50
f  52/52/52 53/53/53 54/54/54
f  50/50/50 49/49/49 55/55/55
f  56/56/56 55/55/55 49/49/49
f  55/55/55 56/56/56 57/57/57
f  57/57/57 56/56/56 58/58/58
f  58/58/58 56/56/56 59/59/59
f  59/59/59 56/56/56 60/60/60
f  49/49/49 60/60/60 56/56/56
f  60/60/60 49/49/49 61/61/61
f  51/51/51 61/61/61 49/49/49
f  61/61/61 51/51/51 62/62/62
f  62/62/62 51/51/51 63/63/63
f  52/52/52 63/63/63 51/51/51
f  63/63/63 52/52/52 64/64/64
f  54/54/54 64/64/64 52/52/52
f  64/64/64 54/54/54 65/65/65
f  66/66/66 65/65/65 54/54/54
f  67/67/67 65/65/65 66/66/66
f  68/68/68 65/65/65 67/67/67
f  69/69/69 59/59/59 70/70/70
f  70/70/70 59/59/59 71/71/71
f  60/60/60 71/71/71 59/59/59
f  71/71/71 60/60/60 72/72/72
f  61/61/61 72/72/72 60/60/60
f  72/72/72 61/61/61 73/73/73
f  62/62/62 73/73/73 61/61/61
f  73/73/73 62/62/62 74/74/74
f  63/63/63 74/74/74 62/62/62
f  74/74/74 63/63/63 75/75/75
f  76/76/76 75/75/75 63/63/63
f  75/75/75 76/76/76 77/77/77
f  78/78/78 77/77/77 76/76/76
f  77/77/77 78/78/78 79/79/79
f  79/79/79 78/78/78 80/80/80
f  68/68/68 80/80/80 78/78/78
f  80/80/80 68/68/68 81/81/81
f  67/67/67 81/81/81 68/68/68
f  68/68/68 78/78/78 65/65/65
f  76/76/76 65/65/65 78/78/78
f  65/65/65 76/76/76 64/64/64
f  63/63/63 64/64/64 76/76/76
f  82/82/82 81/81/81 83/83/83
f  67/67/67 83/83/83 81/81/81
f  83/83/83 67/67/67 84/84/84
f  66/66/66 84/84/84 67/67/67
f  84/84/84 66/66/66 85/85/85
f  54/54/54 85/85/85 66/66/66
f  85/85/85 54/54/54 86/86/86
f  53/53/53 86/86/86 54/54/54
f  86/86/86 53/53/53 87/87/87
f  50/50/50 87/87/87 53/53/53
f  87/87/87 50/50/50 88/88/88
f  55/55/55 88/88/88 50/50/50
f  88/88/88 55/55/55 89/89/89
f  57/57/57 89/89/89 55/55/55
f  89/89/89 57/57/57 90/90/90
f  58/58/58 90/90/90 57/57/57
f  90/90/90 58/58/58 69/69/69
f  59/59/59 69/69/69 58/58/58
f  91/91/91 92/92/92 93/93/93
f  94/94/94 93/93/93 92/92/92
f  93/93/93 94/94/94 95/95/95
f  95/95/95 94/94/94 96/96/96
f  96/96/96 94/94/94 97/97/97
f  92/92/92 97/97/97 94/94/94
f  98/98/98 96/96/96 99/99/99
f  97/97/97 99/99/99 96/96/96
f  99/99/99 97/97/97 100/100/100
f  92/92/92 100/100/100 97/97/97
f  100/100/100 92/92/92 101/101/101
f  91/91/91 101/101/101 92/92/92
f  102/102/102 101/101/101 91/91/91
f  101/101/101 102/102/102 103/103/103
f  104/104/104 103/103/103 102/102/102
f  103/103/103 104/104/104 105/105/105
f  106/106/106 105/105/105 104/104/104
f  105/105/105 106/106/106 107/107/107
f  108/108/108 107/107/107 106/106/106
f  107/107/107 108/108/108 109/109/109
f  110/110/110 109/109/109 108/108/108
f  109/109/109 110/110/110 111/111/111
f  112/112/112 111/111/111 110/110/110
f  100/100/100 101/101/101 113/113/113
f  103/103/103 113/113/113 101/101/101
f  113/113/113 103/103/103 114/114/114
f  105/105/105 114/114/114 103/103/103
f  114/114/114 105/105/105 115/115/115
f  107/107/107 115/115/115 105/105/105
f  115/115/115 107/107/107 116/116/116
f  109/109/109 116/116/116 107/107/107
f  116/116/116 109/109/109 117/117/117
f  99/99/99 100/100/100 118/118/118
f  113/113/113 118/118/118 100/100/100
f  118/118/118 113/113/113 119/119/119
f  114/114/114 119/119/119 113/113/113
f  119/119/119 114/114/114 120/120/120
f  115/115/115 120/120/120 114/114/114
f  120/120/120 115/115/115 121/121/121
f  116/116/116 121/121/121 115/115/115
f  121/121/121 116/116/116 122/122/122
f  117/117/117 122/122/122 116/116/116
f  122/122/122 117/117/117 123/123/123
f  123/123/123 117/117/117 124/124/124
f  109/109/109 124/124/124 117/117/117
f  124/124/124 109/109/109 111/111/111
f  125/125/125 126/126/126 127/127/127
f  127/127/127 126/126/126 128/128/128
f  129/129/129 128/128/128 126/126/126
f  128/128/128 129/129/129 130/130/130
f  131/131/131 130/130/130 129/129/129
f  130/130/130 131/131/131 132/132/132
f  133/133/133 132/132/132 131/131/131
f  132/132/132 133/133/133 134/134/134
f  135/135/135 134/134/134 133/133/133
f  134/134/134 135/135/135 136/136/136
f  137/137/137 136/136/136 135/135/135
f  136/136/136 137/137/137 138/138/138
f  139/139/139 140/140/140 125/125/125
f  141/141/141 125/125/125 140/140/140
f  125/125/125 141/141/141 126/126/126
f  142/142/142 126/126/126 141/141/141
f  126/126/126 142/142/142 129/129/129
f  143/143/143 129/129/129 142/142/142
f  129/129/129 143/143/143 131/131/131
f  144/144/144 131/131/131 143/143/143
f  131/131/131 144/144/144 133/133/133
f  145/145/145 133/133/133 144/144/144
f  133/133/133 145/145/145 135/135/135
f  137/137/137 135/135/135 145/145/145
f  138/138/138 137/137/137 146/146/146
f  145/145/145 146/146/146 137/137/137
f  146/146/146 145/145/145 147/147/147
f  144/144/144 147/147/147 145/145/145
f  147/147/147 144/144/144 148/148/148
f  143/143/143 148/148/148 144/144/144
f  148/148/148 143/143/143 149/149/149
f  142/142/142 149/149/149 143/143/143
f  149/149/149 142/142/142 150/150/150
f  141/141/141 150/150/150 142/142/142
f  150/150/150 141/141/141 151/151/151
f  140/140/140 151/151/151 141/141/141
f  151/151/151 140/140/140 152/152/152
f  139/139/139 152/152/152 140/140/140
f  152/152/152 139/139/139 153/153/153
f  153/153/153 139/139/139 154/154/154
f  125/125/125 154/154/154 139/139/139
f  154/154/154 125/125/125 127/127/127

g
