# Noesis .obj export.
#
mtllib l1234.mtl
g
v  0.084509 0.152093 0.065416
v  0.071786 0.152935 0.085997
v  0.078805 0.151391 0.089225
v  0.062603 0.146438 0.098709
v  0.071099 0.140896 0.106369
v  0.061957 0.128820 0.117528
v  0.054245 0.136000 0.107120
v  0.045010 0.122323 0.113379
v  0.045282 0.140979 0.095270
v  0.036600 0.128658 0.100500
v  0.035202 0.145163 0.080618
v  0.027598 0.133819 0.084650
v  0.020170 0.137306 0.066728
v  0.025771 0.144799 0.064842
v  0.013780 0.139671 0.042114
v  0.025302 0.081215 0.116737
v  0.036383 0.094713 0.123175
v  0.031239 0.097931 0.118260
v  0.037641 0.109513 0.116840
v  0.045867 0.106365 0.126180
v  0.052884 0.116379 0.123607
v  0.060905 0.111612 0.132319
v  0.071980 0.119601 0.128093
v  0.072738 0.104198 0.139897
v  0.081456 0.109464 0.137189
v  0.089787 0.099188 0.144007
v  0.084275 0.095237 0.144627
v  0.102807 0.077184 0.147199

vt  0.015882 -0.058020 0.000000
vt  0.114802 -0.187456 0.000000
vt  0.160819 -0.125545 0.000000
vt  0.214470 -0.301126 0.000000
vt  0.306649 -0.205173 0.000000
vt  0.489477 -0.303049 0.000000
vt  0.331744 -0.453863 0.000000
vt  0.528531 -0.609931 0.000000
vt  0.241264 -0.616637 0.000000
vt  0.377935 -0.718674 0.000000
vt  0.156289 -0.748226 0.000000
vt  0.255535 -0.822000 0.000000
vt  0.147220 -0.903600 0.000000
vt  0.090269 -0.856373 0.000000
vt  0.024933 -0.977198 0.000000
vt  0.885537 -0.787278 0.000000
vt  0.835300 -0.695889 0.000000
vt  0.791322 -0.746384 0.000000
vt  0.687042 -0.689490 0.000000
vt  0.761909 -0.596076 0.000000
vt  0.666809 -0.464458 0.000000
vt  0.760234 -0.320417 0.000000
vt  0.659108 -0.202302 0.000000
vt  0.849871 -0.204895 0.000000
vt  0.782125 -0.120312 0.000000
vt  0.871266 -0.064375 0.000000
vt  0.914049 -0.117833 0.000000
vt  0.984236 -0.014897 0.000000

vn  0.182384 0.980544 0.072594
vn  0.081043 0.956185 0.281324
vn  0.093374 0.947200 0.306746
vn  -0.047330 0.806591 0.589212
vn  -0.063764 0.773654 0.630392
vn  -0.311217 0.646356 0.696684
vn  -0.363672 0.653765 0.663577
vn  -0.465142 0.576184 0.672053
vn  -0.522586 0.618740 0.586571
vn  -0.526241 0.611387 0.590996
vn  -0.636578 0.609214 0.472891
vn  -0.641177 0.599867 0.478593
vn  -0.715101 0.615417 0.331499
vn  -0.712567 0.616767 0.334435
vn  -0.743472 0.619256 0.252531
vn  -0.630303 0.154559 0.760808
vn  -0.599567 0.279021 0.750111
vn  -0.568739 0.274960 0.775199
vn  -0.568017 0.438554 0.696439
vn  -0.583914 0.459595 0.669191
vn  -0.443462 0.582360 0.681321
vn  -0.213058 0.620935 0.754352
vn  -0.156034 0.624674 0.765138
vn  -0.102719 0.547590 0.830418
vn  -0.084077 0.562297 0.822650
vn  -0.048905 0.283549 0.957710
vn  -0.070878 0.250283 0.965575
vn  0.005854 0.146930 0.989130

g L1234
usemtl L1234_3
f  1/1/1 2/2/2 3/3/3
f  4/4/4 3/3/3 2/2/2
f  3/3/3 4/4/4 5/5/5
f  5/5/5 4/4/4 6/6/6
f  7/7/7 6/6/6 4/4/4
f  6/6/6 7/7/7 8/8/8
f  9/9/9 8/8/8 7/7/7
f  8/8/8 9/9/9 10/10/10
f  11/11/11 10/10/10 9/9/9
f  10/10/10 11/11/11 12/12/12
f  12/12/12 11/11/11 13/13/13
f  14/14/14 13/13/13 11/11/11
f  13/13/13 14/14/14 15/15/15
f  16/16/16 17/17/17 18/18/18
f  18/18/18 17/17/17 19/19/19
f  20/20/20 19/19/19 17/17/17
f  21/21/21 19/19/19 20/20/20
f  19/19/19 21/21/21 8/8/8
f  8/8/8 21/21/21 6/6/6
f  22/22/22 6/6/6 21/21/21
f  6/6/6 22/22/22 23/23/23
f  24/24/24 23/23/23 22/22/22
f  23/23/23 24/24/24 25/25/25
f  25/25/25 24/24/24 26/26/26
f  27/27/27 26/26/26 24/24/24
f  26/26/26 27/27/27 28/28/28

g
