# Noesis .obj export.
#
mtllib l1249.mtl
g
v  0.186286 0.146959 0.118369
v  0.186957 0.153003 0.106271
v  0.177699 0.150578 0.107429
v  0.188233 0.147417 0.102666
v  0.178969 0.144962 0.103818
v  0.188233 0.147417 0.102666
v  0.187562 0.141307 0.114736
v  0.185169 0.135628 0.124381
v  0.183899 0.141320 0.128037
v  0.179544 0.130354 0.132088
v  0.178337 0.136033 0.135722
v  0.170701 0.125157 0.137547
v  0.169435 0.130977 0.141238
v  0.160742 0.120397 0.141223
v  0.159487 0.126241 0.144924
v  0.164268 0.133961 0.133866
v  0.157022 0.130492 0.136400
v  0.158275 0.124674 0.132716
v  0.160742 0.120397 0.141223
v  0.158275 0.124674 0.132716
v  0.165625 0.127944 0.130610
v  0.171564 0.131207 0.126969
v  0.170259 0.137383 0.130426
v  0.175395 0.141834 0.124006
v  0.176688 0.136150 0.120357
v  0.177239 0.146004 0.116864
v  0.178509 0.140336 0.113231
v  0.178969 0.144962 0.103818
v  0.172587 0.169105 0.054145
v  0.180508 0.171310 0.038535
v  0.140254 0.174451 0.037735
v  0.149377 0.177528 0.022584
v  0.177350 0.168350 0.035756
v  0.153630 0.172565 0.024357
v  0.139614 0.173171 0.041364
v  0.108029 0.167416 0.043913
v  0.108937 0.166719 0.047526
v  0.093837 0.164214 0.053179
v  0.095544 0.164011 0.055409
v  0.083299 0.160915 0.065519
v  0.086017 0.160560 0.067629
v  0.079842 0.155722 0.079007
v  0.082291 0.155626 0.080414
v  0.081063 0.144736 0.100786
v  0.078744 0.144413 0.100075
v  0.084149 0.128735 0.126728
v  0.081706 0.127798 0.128121
v  0.115878 0.119715 0.141376
v  0.110962 0.103311 0.152150
v  0.076970 0.109688 0.136106
v  0.105387 0.101690 0.147101
v  0.082923 0.106100 0.137138
v  0.084833 0.154352 0.080669
v  0.083472 0.143853 0.100335
v  0.086684 0.128456 0.124160
v  0.117229 0.121600 0.139985
v  0.148943 0.123077 0.142503
v  0.149082 0.121389 0.144440
v  0.169009 0.129365 0.138709
v  0.167606 0.130793 0.137073
v  0.178819 0.136950 0.128513
v  0.181297 0.136054 0.129797
v  0.182336 0.145798 0.113416
v  0.185410 0.145472 0.113615
v  0.180779 0.153211 0.097255
v  0.184445 0.153202 0.096684
v  0.170232 0.168322 0.057117
v  0.132891 0.152993 0.099215
v  0.118665 0.122302 0.137413
v  0.148889 0.123608 0.139385
v  0.166292 0.131082 0.134259
v  0.176431 0.136726 0.126055
v  0.179353 0.145024 0.112050
v  0.177207 0.152143 0.096668
v  0.167967 0.166511 0.058953
v  0.139059 0.170861 0.043868
v  0.109927 0.164945 0.050010
v  0.097338 0.162695 0.056503
v  0.088830 0.159054 0.068595
v  0.211456 0.068703 -0.164615
v  0.192452 0.066083 -0.164615
v  0.216074 0.133498 -0.130718
v  0.195415 0.130613 -0.130718
v  0.206240 0.167950 -0.067277
v  0.185194 0.165171 -0.067278
v  0.189551 0.174601 -0.001767
v  0.166329 0.176043 -0.001767
v  0.177350 0.168350 0.035756
v  0.153630 0.172565 0.024357
v  0.053506 -0.131790 0.050323
v  0.070438 -0.130054 0.050180
v  0.044276 -0.091478 0.092251
v  0.059261 -0.092014 0.099099
v  0.036832 -0.018319 0.130125
v  0.052421 -0.019041 0.139957
v  0.058569 0.057221 0.144526
v  0.078801 0.049337 0.153158
v  0.082923 0.106100 0.137138
v  0.105387 0.101690 0.147101
v  0.105145 0.168898 0.044336
v  0.105909 0.163091 0.041281
v  0.093565 0.166511 0.051501
v  0.094312 0.160590 0.048428
v  0.084848 0.157830 0.057808
v  0.084117 0.163880 0.060901
v  0.080253 0.154271 0.069500
v  0.079530 0.160443 0.072619
v  0.077595 0.156586 0.083153
v  0.078315 0.150322 0.080011
v  0.077507 0.144258 0.092763
v  0.076789 0.150615 0.095936
v  0.085525 0.150221 0.094738
v  0.086304 0.155685 0.084168
v  0.088320 0.159395 0.075124
v  0.092052 0.162174 0.064718
v  0.098723 0.164134 0.058888
v  0.106845 0.165498 0.054072
v  0.076789 0.150615 0.095936
v  0.077507 0.144258 0.092763
v  0.086259 0.143941 0.091568
v  0.087039 0.149478 0.081024
v  0.089059 0.153266 0.072001
v  0.092796 0.156147 0.061617
v  0.099478 0.158190 0.055800
v  0.107611 0.159634 0.050995
v  0.105145 0.168898 0.044336
v  0.105909 0.163091 0.041281
v  0.070438 -0.130054 0.050180
v  0.053506 -0.131790 0.050323
v  0.098909 -0.146822 -0.010982
v  0.080656 -0.148279 -0.010932
v  0.126756 -0.138921 -0.067705
v  0.107418 -0.140471 -0.067692
v  0.157071 -0.111793 -0.126299
v  0.138377 -0.113581 -0.126299
v  0.160772 -0.067110 -0.162226
v  0.179413 -0.065065 -0.162226
v  0.179090 -0.002958 -0.172414
v  0.198734 -0.000457 -0.172414
v  0.192452 0.066083 -0.164615
v  0.211456 0.068703 -0.164615

vt  0.938909 -0.110967 0.000000
vt  0.938909 -0.047921 0.000000
vt  0.892490 -0.047921 0.000000
vt  0.938909 -0.021772 0.000000
vt  0.892490 -0.021772 0.000000
vt  0.981049 -0.047921 0.000000
vt  0.981049 -0.110967 0.000000
vt  0.981049 -0.165239 0.000000
vt  0.938909 -0.165239 0.000000
vt  0.981049 -0.222522 0.000000
vt  0.938909 -0.222522 0.000000
vt  0.981049 -0.276063 0.000000
vt  0.938909 -0.276063 0.000000
vt  0.981049 -0.330326 0.000000
vt  0.938909 -0.330326 0.000000
vt  0.892490 -0.276063 0.000000
vt  0.892490 -0.330326 0.000000
vt  0.892490 -0.359213 0.000000
vt  0.938909 -0.359213 0.000000
vt  0.866697 -0.330326 0.000000
vt  0.866697 -0.276063 0.000000
vt  0.866697 -0.222522 0.000000
vt  0.892490 -0.222522 0.000000
vt  0.892490 -0.165239 0.000000
vt  0.866697 -0.165239 0.000000
vt  0.892490 -0.110967 0.000000
vt  0.866697 -0.110967 0.000000
vt  0.866697 -0.047921 0.000000
vt  0.644057 -0.133558 0.000000
vt  0.644057 -0.039705 0.000000
vt  0.452772 -0.133558 0.000000
vt  0.452772 -0.034948 0.000000
vt  0.630949 -0.018737 0.000000
vt  0.474046 -0.018737 0.000000
vt  0.459413 -0.150727 0.000000
vt  0.314952 -0.263517 0.000000
vt  0.327783 -0.277765 0.000000
vt  0.269332 -0.352621 0.000000
vt  0.282937 -0.356572 0.000000
vt  0.249230 -0.447234 0.000000
vt  0.268082 -0.447679 0.000000
vt  0.253219 -0.540211 0.000000
vt  0.268807 -0.537714 0.000000
vt  0.310693 -0.678465 0.000000
vt  0.298171 -0.683896 0.000000
vt  0.435122 -0.800643 0.000000
vt  0.427525 -0.816946 0.000000
vt  0.639245 -0.816946 0.000000
vt  0.639245 -0.907041 0.000000
vt  0.427525 -0.907041 0.000000
vt  0.607326 -0.924060 0.000000
vt  0.451983 -0.924060 0.000000
vt  0.284395 -0.535218 0.000000
vt  0.323214 -0.673034 0.000000
vt  0.442719 -0.784340 0.000000
vt  0.638598 -0.800643 0.000000
vt  0.775964 -0.709743 0.000000
vt  0.783846 -0.723185 0.000000
vt  0.868844 -0.604285 0.000000
vt  0.856106 -0.596225 0.000000
vt  0.880508 -0.514783 0.000000
vt  0.896618 -0.517096 0.000000
vt  0.859375 -0.405708 0.000000
vt  0.874960 -0.400696 0.000000
vt  0.809480 -0.312770 0.000000
vt  0.822949 -0.306237 0.000000
vt  0.640979 -0.150727 0.000000
vt  0.582191 -0.469854 0.000000
vt  0.637951 -0.784340 0.000000
vt  0.768082 -0.696300 0.000000
vt  0.843368 -0.588165 0.000000
vt  0.864398 -0.512470 0.000000
vt  0.843790 -0.410720 0.000000
vt  0.796011 -0.319304 0.000000
vt  0.637901 -0.167897 0.000000
vt  0.466055 -0.167897 0.000000
vt  0.340614 -0.292013 0.000000
vt  0.296542 -0.360522 0.000000
vt  0.286935 -0.448124 0.000000
vt  0.115963 -0.984033 0.000000
vt  0.206196 -0.984033 0.000000
vt  0.115963 -0.674615 0.000000
vt  0.206196 -0.674615 0.000000
vt  0.115963 -0.374617 0.000000
vt  0.206196 -0.374617 0.000000
vt  0.115963 -0.118198 0.000000
vt  0.206196 -0.118198 0.000000
vt  0.115963 -0.031432 0.000000
vt  0.206196 -0.031432 0.000000
vt  0.206196 -0.984033 0.000000
vt  0.115963 -0.984033 0.000000
vt  0.206196 -0.674615 0.000000
vt  0.115963 -0.674615 0.000000
vt  0.206196 -0.374617 0.000000
vt  0.115963 -0.374617 0.000000
vt  0.206196 -0.118198 0.000000
vt  0.115963 -0.118198 0.000000
vt  0.206196 -0.031432 0.000000
vt  0.115963 -0.031432 0.000000
vt  0.893049 -0.945133 0.000000
vt  0.862144 -0.945133 0.000000
vt  0.893049 -0.885076 0.000000
vt  0.862144 -0.885076 0.000000
vt  0.862144 -0.825022 0.000000
vt  0.893049 -0.825022 0.000000
vt  0.862144 -0.761385 0.000000
vt  0.893049 -0.761385 0.000000
vt  0.893049 -0.702928 0.000000
vt  0.862144 -0.702928 0.000000
vt  0.862144 -0.641077 0.000000
vt  0.893049 -0.641077 0.000000
vt  0.944048 -0.641077 0.000000
vt  0.944048 -0.702928 0.000000
vt  0.944048 -0.761385 0.000000
vt  0.944048 -0.825022 0.000000
vt  0.944048 -0.885076 0.000000
vt  0.944048 -0.945133 0.000000
vt  0.944048 -0.608195 0.000000
vt  0.974799 -0.608195 0.000000
vt  0.974799 -0.641077 0.000000
vt  0.974799 -0.702928 0.000000
vt  0.974799 -0.761385 0.000000
vt  0.974799 -0.825022 0.000000
vt  0.974799 -0.885076 0.000000
vt  0.974799 -0.945133 0.000000
vt  0.944048 -0.976537 0.000000
vt  0.974799 -0.976537 0.000000
vt  0.011762 -0.984033 0.000000
vt  0.101258 -0.984033 0.000000
vt  0.011762 -0.640849 0.000000
vt  0.101258 -0.640849 0.000000
vt  0.011762 -0.340850 0.000000
vt  0.101258 -0.340850 0.000000
vt  0.011762 -0.031432 0.000000
vt  0.101258 -0.031432 0.000000
vt  0.101258 -0.340850 0.000000
vt  0.011762 -0.340850 0.000000
vt  0.101258 -0.640849 0.000000
vt  0.011762 -0.640849 0.000000
vt  0.101258 -0.984033 0.000000
vt  0.011762 -0.984033 0.000000

vn  0.585152 0.672968 0.452450
vn  0.423059 0.875858 -0.232150
vn  -0.722296 0.656418 -0.217725
vn  0.591316 0.527971 -0.609583
vn  -0.742227 0.235812 -0.627289
vn  0.591316 0.527971 -0.609583
vn  0.976516 0.097078 0.192332
vn  0.919370 -0.045449 0.390759
vn  0.567146 0.546672 0.616032
vn  0.749901 -0.234899 0.618442
vn  0.440819 0.409070 0.798962
vn  0.553371 -0.357848 0.752148
vn  0.263204 0.335986 0.904343
vn  -0.406658 -0.549458 0.729880
vn  -0.422686 0.025415 0.905920
vn  -0.521770 0.833199 -0.183127
vn  -0.844958 0.530377 -0.068891
vn  -0.891793 0.088908 -0.443622
vn  -0.406658 -0.549458 0.729880
vn  -0.891793 0.088908 -0.443622
vn  -0.523675 0.325484 -0.787289
vn  -0.722144 0.216030 -0.657145
vn  -0.609495 0.789185 -0.075517
vn  -0.721805 0.688375 0.071674
vn  -0.913567 0.051776 -0.403379
vn  -0.788018 0.585666 0.189799
vn  -0.976866 -0.096632 -0.190777
vn  -0.742227 0.235812 -0.627289
vn  0.057297 0.967537 0.246149
vn  0.270309 0.942004 -0.198902
vn  -0.019450 0.959173 0.282150
vn  0.241725 0.963545 -0.114678
vn  0.424508 0.688384 -0.588150
vn  0.431817 0.593523 -0.679165
vn  -0.098207 0.885143 0.454837
vn  -0.124436 0.967186 0.221510
vn  -0.043212 0.922039 0.384677
vn  -0.102050 0.979847 0.171714
vn  0.058497 0.936153 0.346693
vn  -0.090166 0.958777 0.269475
vn  0.080749 0.928514 0.362411
vn  -0.176449 0.911896 0.370556
vn  0.067387 0.896470 0.437950
vn  0.044156 0.863954 0.501632
vn  -0.257906 0.837165 0.482327
vn  0.098545 0.888949 0.447280
vn  -0.129081 0.727430 0.673931
vn  -0.144799 0.626473 0.765875
vn  -0.315735 0.290155 0.903394
vn  -0.367191 0.268003 0.890699
vn  -0.444068 -0.336234 0.830512
vn  -0.424943 -0.210419 0.880424
vn  0.143801 0.888945 0.434855
vn  0.139406 0.856605 0.496784
vn  0.198442 0.899606 0.389012
vn  -0.060533 0.823447 0.564155
vn  -0.145347 0.871995 0.467439
vn  -0.103226 0.746266 0.657595
vn  -0.023797 0.748665 0.662522
vn  -0.159440 0.855591 0.492486
vn  -0.147350 0.875093 0.460978
vn  0.015723 0.833206 0.552740
vn  -0.153031 0.880447 0.448771
vn  0.063480 0.883871 0.463402
vn  -0.126516 0.905669 0.404669
vn  0.061807 0.924788 0.375428
vn  -0.056817 0.921985 0.383034
vn  -0.062890 0.891402 0.448830
vn  -0.042148 0.906804 0.419441
vn  -0.172346 0.910690 0.375421
vn  -0.219634 0.888182 0.403601
vn  -0.245104 0.878755 0.409530
vn  -0.212931 0.867698 0.449177
vn  -0.150284 0.900173 0.408784
vn  -0.169895 0.885402 0.432665
vn  -0.099147 0.841801 0.530604
vn  -0.007623 0.898960 0.437965
vn  0.123003 0.890570 0.437899
vn  0.137968 0.914250 0.380935
vn  -0.044854 0.325313 -0.944542
vn  -0.037084 0.269244 -0.962358
vn  -0.097944 0.701792 -0.705617
vn  -0.095481 0.687859 -0.719537
vn  -0.123955 0.933995 -0.335096
vn  -0.105003 0.948096 -0.300147
vn  0.042279 0.999056 -0.009965
vn  0.068504 0.996211 0.053588
vn  0.424508 0.688384 -0.588150
vn  0.431817 0.593523 -0.679165
vn  0.088012 -0.831066 0.549166
vn  0.065259 -0.876877 0.476264
vn  -0.305885 -0.645370 0.699952
vn  -0.351263 -0.623595 0.698387
vn  -0.515099 -0.273805 0.812222
vn  -0.516752 -0.205633 0.831073
vn  -0.356803 0.130484 0.925022
vn  -0.351837 0.135589 0.926189
vn  -0.424943 -0.210419 0.880424
vn  -0.444068 -0.336234 0.830512
vn  0.296619 0.824530 -0.481838
vn  0.418704 0.464874 -0.780115
vn  -0.457590 0.834012 -0.308277
vn  -0.624864 0.295995 -0.722448
vn  -0.829862 0.171377 -0.530998
vn  -0.628802 0.760285 -0.163019
vn  -0.960564 0.027361 -0.276709
vn  -0.706149 0.706867 0.041136
vn  -0.718161 0.666823 0.198977
vn  -0.988811 -0.041389 -0.143315
vn  -0.642177 -0.400345 0.653707
vn  -0.575073 0.262871 0.774720
vn  0.577319 0.269141 0.770887
vn  0.653845 0.649455 0.388195
vn  0.639301 0.654167 0.404177
vn  0.571426 0.605841 0.553560
vn  0.441452 0.499627 0.745314
vn  0.707279 0.444125 0.550009
vn  -0.575073 0.262871 0.774720
vn  -0.642177 -0.400345 0.653707
vn  0.753189 -0.223897 0.618528
vn  0.985722 0.033366 0.165041
vn  0.960118 -0.025980 0.278387
vn  0.818741 -0.179709 0.545314
vn  0.593402 -0.310800 0.742481
vn  0.933920 -0.062378 0.351999
vn  0.296619 0.824530 -0.481838
vn  0.418704 0.464874 -0.780115
vn  0.065259 -0.876877 0.476264
vn  0.088012 -0.831066 0.549166
vn  0.081076 -0.995707 0.044659
vn  0.079082 -0.985318 0.151313
vn  0.076266 -0.954292 -0.288982
vn  0.079094 -0.976292 -0.201490
vn  0.071858 -0.753110 -0.653959
vn  0.080502 -0.842004 -0.533432
vn  0.050739 -0.470503 -0.880939
vn  0.037795 -0.342132 -0.938892
vn  0.006695 -0.054563 -0.998488
vn  -0.001320 0.009494 -0.999954
vn  -0.037084 0.269244 -0.962358
vn  -0.044854 0.325313 -0.944542

g L1249
usemtl L1249_3
f  1/1/1 2/2/2 3/3/3
f  4/4/4 3/3/3 2/2/2
f  3/3/3 4/4/4 5/5/5
f  6/6/6 2/2/2 7/7/7
f  1/1/1 7/7/7 2/2/2
f  7/7/7 1/1/1 8/8/8
f  9/9/9 8/8/8 1/1/1
f  8/8/8 9/9/9 10/10/10
f  11/11/11 10/10/10 9/9/9
f  10/10/10 11/11/11 12/12/12
f  13/13/13 12/12/12 11/11/11
f  12/12/12 13/13/13 14/14/14
f  14/14/14 13/13/13 15/15/15
f  16/16/16 15/15/15 13/13/13
f  17/17/17 15/15/15 16/16/16
f  18/18/18 15/15/15 17/17/17
f  15/15/15 18/18/18 19/19/19
f  20/20/20 17/17/17 21/21/21
f  16/16/16 21/21/21 17/17/17
f  21/21/21 16/16/16 22/22/22
f  22/22/22 16/16/16 23/23/23
f  13/13/13 23/23/23 16/16/16
f  11/11/11 23/23/23 13/13/13
f  9/9/9 23/23/23 11/11/11
f  24/24/24 23/23/23 9/9/9
f  23/23/23 24/24/24 22/22/22
f  22/22/22 24/24/24 25/25/25
f  26/26/26 25/25/25 24/24/24
f  25/25/25 26/26/26 27/27/27
f  27/27/27 26/26/26 28/28/28
f  28/28/28 26/26/26 3/3/3
f  3/3/3 26/26/26 1/1/1
f  24/24/24 1/1/1 26/26/26
f  1/1/1 24/24/24 9/9/9
f  29/29/29 30/30/30 31/31/31
f  31/31/31 30/30/30 32/32/32
f  33/33/33 32/32/32 30/30/30
f  32/32/32 33/33/33 34/34/34
f  29/29/29 31/31/31 35/35/35
f  36/36/36 35/35/35 31/31/31
f  35/35/35 36/36/36 37/37/37
f  38/38/38 37/37/37 36/36/36
f  37/37/37 38/38/38 39/39/39
f  40/40/40 39/39/39 38/38/38
f  39/39/39 40/40/40 41/41/41
f  42/42/42 41/41/41 40/40/40
f  41/41/41 42/42/42 43/43/43
f  43/43/43 42/42/42 44/44/44
f  45/45/45 44/44/44 42/42/42
f  44/44/44 45/45/45 46/46/46
f  47/47/47 46/46/46 45/45/45
f  46/46/46 47/47/47 48/48/48
f  48/48/48 47/47/47 49/49/49
f  50/50/50 49/49/49 47/47/47
f  49/49/49 50/50/50 51/51/51
f  52/52/52 51/51/51 50/50/50
f  44/44/44 53/53/53 43/43/43
f  53/53/53 44/44/44 54/54/54
f  46/46/46 54/54/54 44/44/44
f  54/54/54 46/46/46 55/55/55
f  55/55/55 46/46/46 56/56/56
f  48/48/48 56/56/56 46/46/46
f  56/56/56 48/48/48 57/57/57
f  58/58/58 57/57/57 48/48/48
f  59/59/59 57/57/57 58/58/58
f  57/57/57 59/59/59 60/60/60
f  60/60/60 59/59/59 61/61/61
f  62/62/62 61/61/61 59/59/59
f  61/61/61 62/62/62 63/63/63
f  64/64/64 63/63/63 62/62/62
f  63/63/63 64/64/64 65/65/65
f  66/66/66 65/65/65 64/64/64
f  65/65/65 66/66/66 67/67/67
f  29/29/29 67/67/67 66/66/66
f  53/53/53 54/54/54 68/68/68
f  55/55/55 68/68/68 54/54/54
f  68/68/68 55/55/55 69/69/69
f  56/56/56 69/69/69 55/55/55
f  69/69/69 56/56/56 70/70/70
f  57/57/57 70/70/70 56/56/56
f  60/60/60 70/70/70 57/57/57
f  70/70/70 60/60/60 71/71/71
f  61/61/61 71/71/71 60/60/60
f  71/71/71 61/61/61 72/72/72
f  63/63/63 72/72/72 61/61/61
f  72/72/72 63/63/63 73/73/73
f  65/65/65 73/73/73 63/63/63
f  73/73/73 65/65/65 74/74/74
f  74/74/74 65/65/65 75/75/75
f  67/67/67 75/75/75 65/65/65
f  76/76/76 75/75/75 67/67/67
f  75/75/75 76/76/76 68/68/68
f  69/69/69 70/70/70 68/68/68
f  71/71/71 68/68/68 70/70/70
f  72/72/72 68/68/68 71/71/71
f  73/73/73 68/68/68 72/72/72
f  74/74/74 68/68/68 73/73/73
f  68/68/68 74/74/74 75/75/75
f  35/35/35 67/67/67 29/29/29
f  67/67/67 35/35/35 76/76/76
f  37/37/37 76/76/76 35/35/35
f  76/76/76 37/37/37 77/77/77
f  39/39/39 77/77/77 37/37/37
f  77/77/77 39/39/39 78/78/78
f  41/41/41 78/78/78 39/39/39
f  78/78/78 41/41/41 79/79/79
f  43/43/43 79/79/79 41/41/41
f  53/53/53 79/79/79 43/43/43
f  76/76/76 77/77/77 68/68/68
f  78/78/78 68/68/68 77/77/77
f  79/79/79 68/68/68 78/78/78
f  68/68/68 79/79/79 53/53/53
f  80/80/80 81/81/81 82/82/82
f  83/83/83 82/82/82 81/81/81
f  82/82/82 83/83/83 84/84/84
f  85/85/85 84/84/84 83/83/83
f  84/84/84 85/85/85 86/86/86
f  87/87/87 86/86/86 85/85/85
f  86/86/86 87/87/87 88/88/88
f  89/89/89 88/88/88 87/87/87
f  90/90/90 91/91/91 92/92/92
f  93/93/93 92/92/92 91/91/91
f  92/92/92 93/93/93 94/94/94
f  95/95/95 94/94/94 93/93/93
f  94/94/94 95/95/95 96/96/96
f  97/97/97 96/96/96 95/95/95
f  96/96/96 97/97/97 98/98/98
f  99/99/99 98/98/98 97/97/97
f  100/100/100 101/101/101 102/102/102
f  103/103/103 102/102/102 101/101/101
f  104/104/104 102/102/102 103/103/103
f  102/102/102 104/104/104 105/105/105
f  106/106/106 105/105/105 104/104/104
f  105/105/105 106/106/106 107/107/107
f  107/107/107 106/106/106 108/108/108
f  109/109/109 108/108/108 106/106/106
f  110/110/110 111/111/111 109/109/109
f  109/109/109 111/111/111 108/108/108
f  112/112/112 108/108/108 111/111/111
f  113/113/113 108/108/108 112/112/112
f  108/108/108 113/113/113 107/107/107
f  114/114/114 107/107/107 113/113/113
f  115/115/115 107/107/107 114/114/114
f  107/107/107 115/115/115 105/105/105
f  116/116/116 105/105/105 115/115/115
f  105/105/105 116/116/116 102/102/102
f  102/102/102 116/116/116 100/100/100
f  117/117/117 100/100/100 116/116/116
f  118/118/118 119/119/119 112/112/112
f  120/120/120 112/112/112 119/119/119
f  112/112/112 120/120/120 113/113/113
f  121/121/121 113/113/113 120/120/120
f  113/113/113 121/121/121 114/114/114
f  122/122/122 114/114/114 121/121/121
f  114/114/114 122/122/122 115/115/115
f  123/123/123 115/115/115 122/122/122
f  115/115/115 123/123/123 116/116/116
f  124/124/124 116/116/116 123/123/123
f  116/116/116 124/124/124 117/117/117
f  125/125/125 117/117/117 124/124/124
f  117/117/117 125/125/125 126/126/126
f  127/127/127 126/126/126 125/125/125
f  128/128/128 129/129/129 130/130/130
f  131/131/131 130/130/130 129/129/129
f  130/130/130 131/131/131 132/132/132
f  133/133/133 132/132/132 131/131/131
f  132/132/132 133/133/133 134/134/134
f  135/135/135 134/134/134 133/133/133
f  136/136/136 134/134/134 135/135/135
f  134/134/134 136/136/136 137/137/137
f  138/138/138 137/137/137 136/136/136
f  137/137/137 138/138/138 139/139/139
f  140/140/140 139/139/139 138/138/138
f  139/139/139 140/140/140 141/141/141

g
