# Noesis .obj export.
#
mtllib l1285.mtl
g
v  0.083700 0.133381 -0.125151
v  0.058414 0.131713 -0.118423
v  0.068087 0.159749 -0.077050
v  0.066971 0.178816 -0.000216
v  0.068618 0.170300 -0.021703
v  0.039314 0.173381 -0.026066
v  0.070425 0.162964 -0.037031
v  0.041007 0.156801 -0.047127
v  0.038338 0.150128 -0.073403
v  0.037448 0.126749 -0.102992
v  0.040392 0.102832 -0.125308
v  0.058221 0.101795 -0.141277
v  0.081556 0.102765 -0.150504
v  0.098818 0.108990 -0.144620
v  0.107504 0.126738 -0.115567
v  0.095961 0.154103 -0.080624
v  0.037855 0.181627 -0.000216
v  0.039314 0.173381 0.025634
v  0.068618 0.170300 0.021271
v  0.070425 0.162964 0.036599
v  0.041007 0.156801 0.046695
v  0.068087 0.159749 0.076618
v  0.038338 0.150127 0.072971
v  0.058414 0.131713 0.117991
v  0.037448 0.126749 0.102560
v  0.040392 0.102832 0.124876
v  0.058221 0.101795 0.140845
v  0.081556 0.102765 0.150072
v  0.083700 0.133381 0.124719
v  0.098818 0.108990 0.144188
v  0.107504 0.126737 0.115135
v  0.095961 0.154103 0.080192

vt  0.342640 -0.223720 0.000000
vt  0.265244 -0.400159 0.000000
vt  0.571375 -0.495735 0.000000
vt  0.986762 -0.763525 0.000000
vt  0.872013 -0.682292 0.000000
vt  0.745553 -0.870619 0.000000
vt  0.793340 -0.614251 0.000000
vt  0.603467 -0.764589 0.000000
vt  0.431639 -0.690318 0.000000
vt  0.210069 -0.577426 0.000000
vt  0.025550 -0.457588 0.000000
vt  0.040882 -0.289119 0.000000
vt  0.108940 -0.107860 0.000000
vt  0.224994 -0.028888 0.000000
vt  0.446391 -0.061409 0.000000
vt  0.650147 -0.290670 0.000000
vt  0.882427 -0.961625 0.000000
vt  0.745553 -0.870619 0.000000
vt  0.872013 -0.682292 0.000000
vt  0.793340 -0.614251 0.000000
vt  0.603467 -0.764589 0.000000
vt  0.571375 -0.495735 0.000000
vt  0.431639 -0.690318 0.000000
vt  0.265244 -0.400159 0.000000
vt  0.210069 -0.577426 0.000000
vt  0.025550 -0.457588 0.000000
vt  0.040882 -0.289119 0.000000
vt  0.108940 -0.107860 0.000000
vt  0.342640 -0.223720 0.000000
vt  0.224994 -0.028888 0.000000
vt  0.446391 -0.061409 0.000000
vt  0.650147 -0.290670 0.000000

vn  0.077506 0.774907 -0.627305
vn  -0.385440 0.684248 -0.619064
vn  -0.079196 0.952137 -0.295235
vn  0.129889 0.991529 0.000000
vn  0.152803 0.911021 -0.383003
vn  0.100396 0.890915 -0.442935
vn  0.027693 0.951219 -0.307272
vn  -0.139830 0.934640 -0.326949
vn  -0.362482 0.859696 -0.359902
vn  -0.557814 0.611510 -0.561159
vn  -0.568532 0.508867 -0.646395
vn  -0.417251 0.553372 -0.720889
vn  -0.152946 0.622361 -0.767642
vn  0.166261 0.676066 -0.717839
vn  0.416235 0.750090 -0.513919
vn  0.199038 0.914713 -0.351687
vn  0.096071 0.995375 0.000000
vn  0.100396 0.890915 0.442935
vn  0.152803 0.911021 0.383004
vn  0.027693 0.951219 0.307272
vn  -0.139830 0.934640 0.326950
vn  -0.079196 0.952136 0.295236
vn  -0.362482 0.859696 0.359903
vn  -0.385440 0.684248 0.619065
vn  -0.557814 0.611509 0.561159
vn  -0.568532 0.508866 0.646396
vn  -0.417252 0.553371 0.720890
vn  -0.152945 0.622361 0.767642
vn  0.077507 0.774906 0.627306
vn  0.166261 0.676065 0.717839
vn  0.416235 0.750090 0.513920
vn  0.199038 0.914713 0.351688

g L1285
usemtl L1285_3
f  1/1/1 2/2/2 3/3/3
f  4/4/4 5/5/5 6/6/6
f  7/7/7 6/6/6 5/5/5
f  6/6/6 7/7/7 8/8/8
f  3/3/3 8/8/8 7/7/7
f  8/8/8 3/3/3 9/9/9
f  2/2/2 9/9/9 3/3/3
f  9/9/9 2/2/2 10/10/10
f  10/10/10 2/2/2 11/11/11
f  11/11/11 2/2/2 12/12/12
f  12/12/12 2/2/2 13/13/13
f  1/1/1 13/13/13 2/2/2
f  13/13/13 1/1/1 14/14/14
f  14/14/14 1/1/1 15/15/15
f  15/15/15 1/1/1 16/16/16
f  3/3/3 16/16/16 1/1/1
f  16/16/16 3/3/3 7/7/7
f  6/6/6 17/17/17 4/4/4
f  18/18/18 4/4/4 17/17/17
f  4/4/4 18/18/18 19/19/19
f  19/19/19 18/18/18 20/20/20
f  21/21/21 20/20/20 18/18/18
f  20/20/20 21/21/21 22/22/22
f  23/23/23 22/22/22 21/21/21
f  22/22/22 23/23/23 24/24/24
f  25/25/25 24/24/24 23/23/23
f  26/26/26 24/24/24 25/25/25
f  27/27/27 24/24/24 26/26/26
f  28/28/28 24/24/24 27/27/27
f  24/24/24 28/28/28 29/29/29
f  30/30/30 29/29/29 28/28/28
f  31/31/31 29/29/29 30/30/30
f  32/32/32 29/29/29 31/31/31
f  29/29/29 32/32/32 22/22/22
f  20/20/20 22/22/22 32/32/32
f  22/22/22 24/24/24 29/29/29

g
