# Noesis .obj export.
#
mtllib l1283.mtl
g
v  0.018831 0.110501 0.106949
v  0.035630 0.121620 0.117621
v  0.017001 0.125163 0.094999
v  0.034628 0.136726 0.103890
v  0.015773 0.135084 0.077271
v  0.034137 0.145048 0.083687
v  0.056487 0.150509 0.085382
v  0.057864 0.142869 0.107203
v  0.059661 0.127652 0.124377
v  0.060554 0.106485 0.138065
v  0.037116 0.099630 0.128708
v  0.021925 0.091361 0.112995
v  0.015072 0.080788 0.096486
v  0.011677 0.096040 0.091437
v  0.009004 0.112617 0.081308
v  0.007726 0.124674 0.066476
v  0.005838 0.133747 0.051623
v  0.014671 0.140026 0.056160
v  0.033870 0.147830 0.058538
v  0.056061 0.154022 0.062722
v  0.079802 0.156228 0.062673
v  0.079886 0.153005 0.086032
v  0.080382 0.145127 0.107314
v  0.081120 0.129206 0.124870
v  0.082013 0.106777 0.138760
v  0.082013 0.086170 0.143137
v  0.059419 0.084137 0.141976
v  0.039761 0.077671 0.131369
v  0.025393 0.071568 0.115184
v  0.018857 0.064731 0.100326

vt  0.610827 -0.694741 0.000000
vt  0.604351 -0.477809 0.000000
vt  0.465687 -0.673203 0.000000
vt  0.430689 -0.475751 0.000000
vt  0.334665 -0.704909 0.000000
vt  0.262932 -0.510397 0.000000
vt  0.249272 -0.295891 0.000000
vt  0.405238 -0.283882 0.000000
vt  0.575466 -0.266097 0.000000
vt  0.782320 -0.266560 0.000000
vt  0.799394 -0.495530 0.000000
vt  0.799264 -0.711621 0.000000
vt  0.816113 -0.896638 0.000000
vt  0.633422 -0.862034 0.000000
vt  0.479688 -0.845032 0.000000
vt  0.335760 -0.852145 0.000000
vt  0.169528 -0.907052 0.000000
vt  0.121162 -0.750689 0.000000
vt  0.056948 -0.555205 0.000000
vt  0.052420 -0.311869 0.000000
vt  0.069526 -0.095465 0.000000
vt  0.256502 -0.096964 0.000000
vt  0.404685 -0.094803 0.000000
vt  0.573267 -0.100281 0.000000
vt  0.794159 -0.098435 0.000000
vt  0.961225 -0.108486 0.000000
vt  0.966447 -0.298988 0.000000
vt  0.967691 -0.535767 0.000000
vt  0.963316 -0.717941 0.000000
vt  0.962138 -0.879566 0.000000

vn  -0.811061 0.202039 0.548963
vn  -0.513810 0.471184 0.716927
vn  -0.784825 0.450990 0.425038
vn  -0.467550 0.722885 0.508757
vn  -0.717439 0.619902 0.317809
vn  -0.392881 0.880479 0.265330
vn  -0.188305 0.950519 0.247093
vn  -0.186031 0.839223 0.510978
vn  -0.193842 0.620954 0.759501
vn  -0.218208 0.355503 0.908847
vn  -0.581173 0.181985 0.793170
vn  -0.823765 -0.015911 0.566708
vn  -0.898567 -0.087641 0.429995
vn  -0.917720 0.008400 0.397139
vn  -0.917711 0.225099 0.327318
vn  -0.881082 0.337558 0.331285
vn  -0.762175 0.590908 0.264420
vn  -0.556392 0.809740 0.186413
vn  -0.332036 0.935957 0.117204
vn  -0.201690 0.967973 0.149497
vn  -0.091391 0.986425 0.136427
vn  -0.105130 0.962915 0.248479
vn  -0.091699 0.853034 0.513736
vn  -0.065985 0.638983 0.766385
vn  -0.040295 0.374829 0.926218
vn  -0.050883 0.190987 0.980273
vn  -0.282870 0.146758 0.947864
vn  -0.622942 0.007985 0.782227
vn  -0.829777 -0.083685 0.551785
vn  -0.891626 -0.104825 0.440471

g L1283
usemtl L1283_3
f  1/1/1 2/2/2 3/3/3
f  4/4/4 3/3/3 2/2/2
f  5/5/5 3/3/3 6/6/6
f  4/4/4 6/6/6 3/3/3
f  6/6/6 4/4/4 7/7/7
f  7/7/7 4/4/4 8/8/8
f  8/8/8 4/4/4 9/9/9
f  2/2/2 9/9/9 4/4/4
f  9/9/9 2/2/2 10/10/10
f  10/10/10 2/2/2 11/11/11
f  1/1/1 11/11/11 2/2/2
f  11/11/11 1/1/1 12/12/12
f  13/13/13 12/12/12 14/14/14
f  1/1/1 14/14/14 12/12/12
f  14/14/14 1/1/1 15/15/15
f  3/3/3 15/15/15 1/1/1
f  5/5/5 15/15/15 3/3/3
f  15/15/15 5/5/5 16/16/16
f  16/16/16 5/5/5 17/17/17
f  17/17/17 5/5/5 18/18/18
f  6/6/6 18/18/18 5/5/5
f  18/18/18 6/6/6 19/19/19
f  7/7/7 19/19/19 6/6/6
f  19/19/19 7/7/7 20/20/20
f  21/21/21 20/20/20 22/22/22
f  7/7/7 22/22/22 20/20/20
f  22/22/22 7/7/7 23/23/23
f  8/8/8 23/23/23 7/7/7
f  23/23/23 8/8/8 24/24/24
f  9/9/9 24/24/24 8/8/8
f  24/24/24 9/9/9 25/25/25
f  10/10/10 25/25/25 9/9/9
f  25/25/25 10/10/10 26/26/26
f  26/26/26 10/10/10 27/27/27
f  11/11/11 27/27/27 10/10/10
f  27/27/27 11/11/11 28/28/28
f  12/12/12 28/28/28 11/11/11
f  28/28/28 12/12/12 29/29/29
f  13/13/13 29/29/29 12/12/12
f  29/29/29 13/13/13 30/30/30

g
