# Noesis .obj export.
#
mtllib l1701.mtl
g
v  0.009298 0.174808 -0.000004
v  0.019039 0.190130 0.013274
v  0.023084 0.186254 -0.000004
v  -0.004007 0.214146 0.022448
v  0.004167 0.206453 0.025895
v  -0.019950 0.207345 0.027242
v  -0.012456 0.196101 0.032180
v  0.010798 0.197960 0.022950
v  -0.004244 0.186106 0.030448
v  0.002496 0.176712 0.017941
v  0.004354 0.157429 -0.000004
v  -0.025735 0.214441 0.017053
v  -0.008174 0.224233 0.012724
v  -0.011217 0.225908 -0.000004
v  -0.029948 0.217409 -0.000004
v  -0.043741 0.217866 0.026381
v  -0.036907 0.208970 0.042016
v  -0.021737 0.190388 0.049621
v  -0.008112 0.173982 0.046604
v  -0.001136 0.162259 0.026381
v  0.011813 0.149285 0.035709
v  0.017995 0.143655 -0.000004
v  0.031838 0.147485 0.040038
v  0.037235 0.141047 -0.000004
v  -0.036738 0.220222 0.059231
v  -0.016449 0.193785 0.069204
v  0.003692 0.169223 0.062761
v  -0.050861 0.234757 0.035709
v  -0.044962 0.253978 0.040038
v  -0.024527 0.233368 0.069284
v  -0.001679 0.203062 0.080102
v  0.022417 0.173240 0.070259
v  -0.049740 0.223013 -0.000004
v  -0.058235 0.241745 -0.000004
v  -0.052629 0.261534 -0.000004
v  -0.044962 0.253978 -0.040046
v  -0.058235 0.241745 -0.000004
v  -0.052629 0.261534 -0.000004
v  0.037235 0.141047 -0.000004
v  0.017995 0.143655 -0.000004
v  0.031838 0.147484 -0.040045
v  0.011813 0.149285 -0.035716
v  0.022417 0.173240 -0.070266
v  0.003692 0.169223 -0.062768
v  -0.001679 0.203062 -0.080110
v  -0.016449 0.193785 -0.069211
v  -0.024527 0.233367 -0.069292
v  -0.036738 0.220222 -0.059239
v  -0.050861 0.234757 -0.035716
v  -0.049740 0.223013 -0.000004
v  -0.043741 0.217866 -0.026389
v  -0.029948 0.217409 -0.000004
v  -0.025735 0.214440 -0.017061
v  -0.011217 0.225908 -0.000004
v  -0.008174 0.224233 -0.012732
v  -0.004007 0.214146 -0.022456
v  -0.036907 0.208970 -0.042024
v  -0.021737 0.190388 -0.049629
v  -0.008112 0.173982 -0.046612
v  -0.001136 0.162259 -0.026389
v  0.004354 0.157429 -0.000004
v  0.002496 0.176712 -0.017948
v  0.009298 0.174808 -0.000004
v  0.019039 0.190130 -0.013282
v  -0.004244 0.186106 -0.030456
v  0.010798 0.197960 -0.022958
v  -0.012456 0.196101 -0.032187
v  0.004167 0.206453 -0.025902
v  -0.019950 0.207345 -0.027249
v  0.023084 0.186254 -0.000004
v  -0.033898 0.270027 -0.000004
v  -0.052629 0.261534 -0.000004
v  -0.027401 0.263770 0.035709
v  -0.044962 0.253978 0.040038
v  -0.024527 0.233368 0.069284
v  -0.014112 0.264423 -0.000004
v  -0.009394 0.260345 0.026381
v  -0.005811 0.240421 0.064491
v  -0.001679 0.203062 0.080102
v  -0.005618 0.245695 -0.000004
v  -0.002275 0.243454 0.017053
v  0.008373 0.238544 0.049717
v  0.014944 0.213414 0.073818
v  0.022417 0.173240 0.070259
v  -0.011217 0.225908 -0.000004
v  -0.008174 0.224233 0.012724
v  0.008204 0.227292 0.032501
v  0.024225 0.219127 0.056376
v  0.037459 0.185094 0.062761
v  0.031838 0.147485 0.040038
v  0.047989 0.160043 0.035709
v  0.037235 0.141047 -0.000004
v  0.050174 0.153063 -0.000004
v  0.051172 0.178010 0.026381
v  0.048835 0.166145 -0.000004
v  0.040770 0.184772 -0.000004
v  0.039249 0.190983 0.017053
v  0.023084 0.186254 -0.000004
v  0.019039 0.190130 0.013274
v  0.041327 0.197218 0.046604
v  0.018937 0.215730 0.036793
v  0.029523 0.201977 0.030448
v  -0.004007 0.214146 0.022448
v  0.004167 0.206453 0.025895
v  0.010798 0.197960 0.022950
v  0.029523 0.201977 -0.030456
v  0.041327 0.197218 -0.046612
v  0.018937 0.215730 -0.036801
v  0.024225 0.219126 -0.056384
v  0.008204 0.227292 -0.032509
v  0.008373 0.238544 -0.049724
v  -0.005811 0.240420 -0.064499
v  0.014944 0.213413 -0.073825
v  0.037459 0.185093 -0.062768
v  0.047989 0.160043 -0.035716
v  0.051172 0.178009 -0.026389
v  0.039249 0.190983 -0.017061
v  0.050174 0.153063 -0.000004
v  0.048835 0.166145 -0.000004
v  0.040770 0.184772 -0.000004
v  0.023084 0.186254 -0.000004
v  0.019039 0.190130 -0.013282
v  0.010798 0.197960 -0.022958
v  0.004167 0.206453 -0.025902
v  -0.004007 0.214146 -0.022456
v  -0.008174 0.224233 -0.012732
v  -0.002275 0.243454 -0.017061
v  -0.009394 0.260344 -0.026389
v  -0.027401 0.263770 -0.035717
v  0.037235 0.141047 -0.000004
v  0.031838 0.147484 -0.040045
v  0.022417 0.173240 -0.070266
v  -0.001679 0.203062 -0.080110
v  -0.024527 0.233367 -0.069292
v  -0.044962 0.253978 -0.040046
v  -0.052629 0.261534 -0.000004
v  -0.033898 0.270027 -0.000004
v  -0.014112 0.264423 -0.000004
v  -0.005618 0.245695 -0.000004
v  -0.011217 0.225908 -0.000004

vt  0.519472 -0.750043 0.000000
vt  0.573279 -0.696278 0.000000
vt  0.522928 -0.687474 0.000000
vt  0.678803 -0.657436 0.000000
vt  0.653272 -0.683244 0.000000
vt  0.740370 -0.680451 0.000000
vt  0.707782 -0.731628 0.000000
vt  0.623457 -0.698149 0.000000
vt  0.660591 -0.762040 0.000000
vt  0.591417 -0.771198 0.000000
vt  0.499248 -0.806889 0.000000
vt  0.755804 -0.626535 0.000000
vt  0.679164 -0.608763 0.000000
vt  0.683734 -0.562763 0.000000
vt  0.759418 -0.557872 0.000000
vt  0.833501 -0.642038 0.000000
vt  0.818252 -0.714455 0.000000
vt  0.758110 -0.789694 0.000000
vt  0.689035 -0.835523 0.000000
vt  0.597245 -0.832503 0.000000
vt  0.583789 -0.905649 0.000000
vt  0.460429 -0.860353 0.000000
vt  0.561416 -0.974733 0.000000
vt  0.422031 -0.916810 0.000000
vt  0.882277 -0.759743 0.000000
vt  0.802263 -0.854239 0.000000
vt  0.704677 -0.914160 0.000000
vt  0.911531 -0.652697 0.000000
vt  0.987792 -0.664028 0.000000
vt  0.939464 -0.810377 0.000000
vt  0.840695 -0.919984 0.000000
vt  0.710809 -0.990390 0.000000
vt  0.833502 -0.538104 0.000000
vt  0.910706 -0.517707 0.000000
vt  0.989329 -0.510085 0.000000
vt  0.438369 -0.499386 0.000000
vt  0.553428 -0.614117 0.000000
vt  0.588386 -0.547986 0.000000
vt  0.014550 -0.990080 0.000000
vt  0.091021 -0.977028 0.000000
vt  0.009430 -0.834110 0.000000
vt  0.087699 -0.840450 0.000000
vt  0.040867 -0.680744 0.000000
vt  0.112130 -0.715924 0.000000
vt  0.146257 -0.571859 0.000000
vt  0.195846 -0.633418 0.000000
vt  0.281482 -0.504182 0.000000
vt  0.309036 -0.576401 0.000000
vt  0.421790 -0.573570 0.000000
vt  0.512954 -0.674046 0.000000
vt  0.410025 -0.651968 0.000000
vt  0.482004 -0.738444 0.000000
vt  0.410121 -0.730652 0.000000
vt  0.467160 -0.810701 0.000000
vt  0.419864 -0.805861 0.000000
vt  0.368890 -0.800884 0.000000
vt  0.334643 -0.651928 0.000000
vt  0.246553 -0.696684 0.000000
vt  0.185180 -0.756213 0.000000
vt  0.166353 -0.850194 0.000000
vt  0.167299 -0.956513 0.000000
vt  0.230457 -0.870847 0.000000
vt  0.236903 -0.946983 0.000000
vt  0.309428 -0.902755 0.000000
vt  0.253608 -0.803971 0.000000
vt  0.317663 -0.851040 0.000000
vt  0.293102 -0.761833 0.000000
vt  0.339088 -0.823173 0.000000
vt  0.350739 -0.737098 0.000000
vt  0.304837 -0.955635 0.000000
vt  0.439669 -0.415447 0.000000
vt  0.420218 -0.482709 0.000000
vt  0.560778 -0.438378 0.000000
vt  0.564391 -0.502858 0.000000
vt  0.705924 -0.473345 0.000000
vt  0.472032 -0.351968 0.000000
vt  0.560264 -0.370174 0.000000
vt  0.696385 -0.403961 0.000000
vt  0.827500 -0.405164 0.000000
vt  0.501769 -0.290270 0.000000
vt  0.564186 -0.299130 0.000000
vt  0.677469 -0.333017 0.000000
vt  0.791051 -0.344615 0.000000
vt  0.913553 -0.291537 0.000000
vt  0.515565 -0.223166 0.000000
vt  0.561698 -0.228901 0.000000
vt  0.647135 -0.263045 0.000000
vt  0.747698 -0.285100 0.000000
vt  0.860429 -0.244562 0.000000
vt  0.979695 -0.161178 0.000000
vt  0.911301 -0.130568 0.000000
vt  0.990852 -0.015283 0.000000
vt  0.921864 -0.007982 0.000000
vt  0.842323 -0.112296 0.000000
vt  0.862780 -0.014930 0.000000
vt  0.781869 -0.032048 0.000000
vt  0.772173 -0.100061 0.000000
vt  0.715237 -0.037463 0.000000
vt  0.699824 -0.090261 0.000000
vt  0.802722 -0.203603 0.000000
vt  0.698336 -0.227633 0.000000
vt  0.737995 -0.168268 0.000000
vt  0.605217 -0.201905 0.000000
vt  0.643048 -0.178036 0.000000
vt  0.669418 -0.140947 0.000000
vt  0.356941 -0.241530 0.000000
vt  0.325978 -0.176140 0.000000
vt  0.301276 -0.284949 0.000000
vt  0.245813 -0.233364 0.000000
vt  0.271568 -0.342397 0.000000
vt  0.201465 -0.309533 0.000000
vt  0.130392 -0.281519 0.000000
vt  0.191126 -0.183007 0.000000
vt  0.293802 -0.116415 0.000000
vt  0.414278 -0.077222 0.000000
vt  0.419013 -0.141474 0.000000
vt  0.423352 -0.209080 0.000000
vt  0.537775 -0.097955 0.000000
vt  0.518045 -0.142091 0.000000
vt  0.488730 -0.207645 0.000000
vt  0.481770 -0.268747 0.000000
vt  0.431133 -0.280229 0.000000
vt  0.385294 -0.308914 0.000000
vt  0.354281 -0.336764 0.000000
vt  0.337854 -0.378033 0.000000
vt  0.315226 -0.429072 0.000000
vt  0.240134 -0.431683 0.000000
vt  0.163251 -0.431356 0.000000
vt  0.088534 -0.419842 0.000000
vt  0.551107 -0.038135 0.000000
vt  0.406719 -0.013664 0.000000
vt  0.265223 -0.055650 0.000000
vt  0.142192 -0.130315 0.000000
vt  0.061900 -0.253186 0.000000
vt  0.016022 -0.398016 0.000000
vt  0.011920 -0.548307 0.000000
vt  0.091143 -0.546280 0.000000
vt  0.172760 -0.526707 0.000000
vt  0.249479 -0.498234 0.000000
vt  0.322899 -0.477438 0.000000

vn  -0.837718 0.546102 -0.000001
vn  -0.291185 0.798033 -0.527593
vn  -0.274779 0.961507 -0.000002
vn  0.361076 -0.382272 -0.850584
vn  0.108252 0.097023 -0.989378
vn  -0.244183 -0.726221 -0.642634
vn  -0.470584 -0.460713 -0.752525
vn  -0.193870 0.428000 -0.882740
vn  -0.722788 -0.147564 -0.675131
vn  -0.848700 0.304578 -0.432366
vn  -0.934066 -0.357100 0.000001
vn  -0.027222 -0.925549 -0.377648
vn  0.691348 -0.516961 -0.504767
vn  0.754792 -0.655964 0.000001
vn  0.030580 -0.999532 0.000002
vn  -0.691580 -0.720807 -0.046413
vn  -0.760763 -0.648877 -0.014082
vn  -0.773994 -0.630581 -0.057451
vn  -0.795222 -0.606264 -0.008178
vn  -0.917733 -0.387730 -0.086209
vn  -0.448189 -0.851238 0.272984
vn  -0.403782 -0.914856 0.000002
vn  0.253118 -0.852032 0.458228
vn  0.314598 -0.949225 0.000002
vn  -0.793471 -0.184011 0.580124
vn  -0.621907 -0.445516 0.644009
vn  -0.403257 -0.703325 0.585421
vn  -0.943643 -0.099212 0.315745
vn  -0.666402 0.560392 0.491802
vn  -0.364354 0.350847 0.862643
vn  -0.101803 -0.054914 0.993288
vn  0.244653 -0.472406 0.846745
vn  -0.705029 -0.709178 0.000001
vn  -0.999302 -0.037347 0.000000
vn  -0.757916 0.652352 -0.000001
vn  -0.666402 0.560390 -0.491804
vn  -0.999302 -0.037347 0.000000
vn  -0.757916 0.652352 -0.000001
vn  0.314598 -0.949225 0.000002
vn  -0.403782 -0.914856 0.000002
vn  0.253118 -0.852034 -0.458225
vn  -0.448189 -0.851239 -0.272980
vn  0.244653 -0.472410 -0.846743
vn  -0.403257 -0.703327 -0.585418
vn  -0.101803 -0.054918 -0.993288
vn  -0.621907 -0.445518 -0.644007
vn  -0.364354 0.350844 -0.862644
vn  -0.793471 -0.184013 -0.580123
vn  -0.943643 -0.099214 -0.315745
vn  -0.705029 -0.709178 0.000001
vn  -0.691580 -0.720807 0.046416
vn  0.030580 -0.999532 0.000002
vn  -0.027222 -0.925547 0.377652
vn  0.754792 -0.655964 0.000001
vn  0.691347 -0.516959 0.504770
vn  0.361075 -0.382269 0.850585
vn  -0.760763 -0.648877 0.014084
vn  -0.773994 -0.630581 0.057453
vn  -0.795222 -0.606264 0.008180
vn  -0.917733 -0.387730 0.086211
vn  -0.934066 -0.357100 0.000001
vn  -0.848700 0.304580 0.432365
vn  -0.837718 0.546102 -0.000001
vn  -0.291185 0.798035 0.527590
vn  -0.722788 -0.147562 0.675132
vn  -0.193870 0.428004 0.882738
vn  -0.470584 -0.460710 0.752527
vn  0.108252 0.097027 0.989377
vn  -0.244183 -0.726219 0.642636
vn  -0.274779 0.961507 -0.000002
vn  -0.112840 0.993613 -0.000002
vn  -0.757916 0.652352 -0.000001
vn  -0.038188 0.916649 0.397864
vn  -0.666402 0.560392 0.491802
vn  -0.364354 0.350847 0.862643
vn  0.599980 0.800015 -0.000002
vn  0.608211 0.787482 0.099754
vn  0.260367 0.679657 0.685767
vn  -0.101803 -0.054914 0.993288
vn  0.993283 0.115710 -0.000000
vn  0.939599 0.196468 -0.280276
vn  0.737395 0.662136 0.133508
vn  0.472501 0.359796 0.804543
vn  0.244653 -0.472406 0.846745
vn  0.754792 -0.655964 0.000001
vn  0.691348 -0.516961 -0.504767
vn  0.801557 0.264570 -0.536198
vn  0.769205 0.610127 0.189918
vn  0.764651 -0.014062 0.644291
vn  0.253118 -0.852032 0.458228
vn  0.839526 -0.394561 0.373522
vn  0.314598 -0.949225 0.000002
vn  0.902476 -0.430741 0.000001
vn  0.961662 0.269122 0.052726
vn  0.976563 0.215232 -0.000000
vn  0.611421 0.791305 -0.000001
vn  0.510528 0.820586 -0.256903
vn  -0.274779 0.961507 -0.000002
vn  -0.291185 0.798033 -0.527593
vn  0.876863 0.469718 0.102353
vn  0.612936 0.558261 -0.559155
vn  0.477835 0.727240 -0.492743
vn  0.361076 -0.382272 -0.850584
vn  0.108252 0.097023 -0.989378
vn  -0.193870 0.428000 -0.882740
vn  0.477835 0.727242 0.492740
vn  0.876863 0.469718 -0.102355
vn  0.612936 0.558264 0.559152
vn  0.769205 0.610126 -0.189920
vn  0.801557 0.264573 0.536198
vn  0.737395 0.662135 -0.133510
vn  0.260367 0.679654 -0.685769
vn  0.472501 0.359793 -0.804545
vn  0.764651 -0.014064 -0.644291
vn  0.839526 -0.394562 -0.373520
vn  0.961662 0.269122 -0.052727
vn  0.510528 0.820587 0.256900
vn  0.902476 -0.430741 0.000001
vn  0.976563 0.215232 -0.000000
vn  0.611421 0.791305 -0.000001
vn  -0.274779 0.961507 -0.000002
vn  -0.291185 0.798035 0.527590
vn  -0.193870 0.428004 0.882738
vn  0.108252 0.097027 0.989377
vn  0.361075 -0.382269 0.850585
vn  0.691347 -0.516959 0.504770
vn  0.939599 0.196469 0.280275
vn  0.608211 0.787482 -0.099757
vn  -0.038188 0.916648 -0.397868
vn  0.314598 -0.949225 0.000002
vn  0.253118 -0.852034 -0.458225
vn  0.244653 -0.472410 -0.846743
vn  -0.101803 -0.054918 -0.993288
vn  -0.364354 0.350844 -0.862644
vn  -0.666402 0.560390 -0.491804
vn  -0.757916 0.652352 -0.000001
vn  -0.112840 0.993613 -0.000002
vn  0.599980 0.800015 -0.000002
vn  0.993283 0.115710 -0.000000
vn  0.754792 -0.655964 0.000001

g L1701
usemtl L1701_3
f  1/1/1 2/2/2 3/3/3
f  4/4/4 5/5/5 6/6/6
f  6/6/6 5/5/5 7/7/7
f  8/8/8 7/7/7 5/5/5
f  7/7/7 8/8/8 9/9/9
f  2/2/2 9/9/9 8/8/8
f  9/9/9 2/2/2 10/10/10
f  1/1/1 10/10/10 2/2/2
f  10/10/10 1/1/1 11/11/11
f  12/12/12 4/4/4 6/6/6
f  4/4/4 12/12/12 13/13/13
f  13/13/13 12/12/12 14/14/14
f  14/14/14 12/12/12 15/15/15
f  15/15/15 12/12/12 16/16/16
f  6/6/6 16/16/16 12/12/12
f  16/16/16 6/6/6 17/17/17
f  7/7/7 17/17/17 6/6/6
f  17/17/17 7/7/7 18/18/18
f  9/9/9 18/18/18 7/7/7
f  18/18/18 9/9/9 19/19/19
f  10/10/10 19/19/19 9/9/9
f  19/19/19 10/10/10 20/20/20
f  11/11/11 20/20/20 10/10/10
f  20/20/20 11/11/11 21/21/21
f  22/22/22 21/21/21 11/11/11
f  21/21/21 22/22/22 23/23/23
f  24/24/24 23/23/23 22/22/22
f  17/17/17 18/18/18 25/25/25
f  25/25/25 18/18/18 26/26/26
f  19/19/19 26/26/26 18/18/18
f  26/26/26 19/19/19 27/27/27
f  20/20/20 27/27/27 19/19/19
f  27/27/27 20/20/20 21/21/21
f  16/16/16 17/17/17 28/28/28
f  25/25/25 28/28/28 17/17/17
f  28/28/28 25/25/25 29/29/29
f  29/29/29 25/25/25 30/30/30
f  26/26/26 30/30/30 25/25/25
f  30/30/30 26/26/26 31/31/31
f  27/27/27 31/31/31 26/26/26
f  31/31/31 27/27/27 32/32/32
f  21/21/21 32/32/32 27/27/27
f  32/32/32 21/21/21 23/23/23
f  15/15/15 16/16/16 33/33/33
f  28/28/28 33/33/33 16/16/16
f  33/33/33 28/28/28 34/34/34
f  29/29/29 34/34/34 28/28/28
f  34/34/34 29/29/29 35/35/35
f  36/36/36 37/37/37 38/38/38
f  39/39/39 40/40/40 41/41/41
f  42/42/42 41/41/41 40/40/40
f  41/41/41 42/42/42 43/43/43
f  44/44/44 43/43/43 42/42/42
f  43/43/43 44/44/44 45/45/45
f  46/46/46 45/45/45 44/44/44
f  45/45/45 46/46/46 47/47/47
f  48/48/48 47/47/47 46/46/46
f  47/47/47 48/48/48 36/36/36
f  49/49/49 36/36/36 48/48/48
f  36/36/36 49/49/49 37/37/37
f  37/37/37 49/49/49 50/50/50
f  51/51/51 50/50/50 49/49/49
f  50/50/50 51/51/51 52/52/52
f  53/53/53 52/52/52 51/51/51
f  52/52/52 53/53/53 54/54/54
f  54/54/54 53/53/53 55/55/55
f  56/56/56 55/55/55 53/53/53
f  48/48/48 57/57/57 49/49/49
f  57/57/57 48/48/48 58/58/58
f  46/46/46 58/58/58 48/48/48
f  58/58/58 46/46/46 59/59/59
f  44/44/44 59/59/59 46/46/46
f  59/59/59 44/44/44 60/60/60
f  42/42/42 60/60/60 44/44/44
f  61/61/61 60/60/60 42/42/42
f  60/60/60 61/61/61 62/62/62
f  63/63/63 62/62/62 61/61/61
f  64/64/64 62/62/62 63/63/63
f  62/62/62 64/64/64 65/65/65
f  66/66/66 65/65/65 64/64/64
f  65/65/65 66/66/66 67/67/67
f  68/68/68 67/67/67 66/66/66
f  67/67/67 68/68/68 69/69/69
f  56/56/56 69/69/69 68/68/68
f  53/53/53 69/69/69 56/56/56
f  60/60/60 62/62/62 59/59/59
f  65/65/65 59/59/59 62/62/62
f  59/59/59 65/65/65 58/58/58
f  67/67/67 58/58/58 65/65/65
f  58/58/58 67/67/67 57/57/57
f  69/69/69 57/57/57 67/67/67
f  51/51/51 69/69/69 53/53/53
f  69/69/69 51/51/51 57/57/57
f  49/49/49 57/57/57 51/51/51
f  64/64/64 63/63/63 70/70/70
f  61/61/61 42/42/42 40/40/40
f  71/71/71 72/72/72 73/73/73
f  74/74/74 73/73/73 72/72/72
f  73/73/73 74/74/74 75/75/75
f  76/76/76 71/71/71 77/77/77
f  73/73/73 77/77/77 71/71/71
f  77/77/77 73/73/73 78/78/78
f  75/75/75 78/78/78 73/73/73
f  78/78/78 75/75/75 79/79/79
f  80/80/80 76/76/76 81/81/81
f  77/77/77 81/81/81 76/76/76
f  81/81/81 77/77/77 82/82/82
f  78/78/78 82/82/82 77/77/77
f  82/82/82 78/78/78 83/83/83
f  79/79/79 83/83/83 78/78/78
f  83/83/83 79/79/79 84/84/84
f  85/85/85 80/80/80 86/86/86
f  81/81/81 86/86/86 80/80/80
f  86/86/86 81/81/81 87/87/87
f  82/82/82 87/87/87 81/81/81
f  87/87/87 82/82/82 88/88/88
f  83/83/83 88/88/88 82/82/82
f  88/88/88 83/83/83 89/89/89
f  84/84/84 89/89/89 83/83/83
f  90/90/90 89/89/89 84/84/84
f  89/89/89 90/90/90 91/91/91
f  92/92/92 91/91/91 90/90/90
f  93/93/93 91/91/91 92/92/92
f  91/91/91 93/93/93 94/94/94
f  95/95/95 94/94/94 93/93/93
f  96/96/96 94/94/94 95/95/95
f  94/94/94 96/96/96 97/97/97
f  98/98/98 97/97/97 96/96/96
f  97/97/97 98/98/98 99/99/99
f  88/88/88 89/89/89 100/100/100
f  91/91/91 100/100/100 89/89/89
f  100/100/100 91/91/91 94/94/94
f  87/87/87 88/88/88 101/101/101
f  100/100/100 101/101/101 88/88/88
f  101/101/101 100/100/100 102/102/102
f  94/94/94 102/102/102 100/100/100
f  102/102/102 94/94/94 97/97/97
f  86/86/86 87/87/87 103/103/103
f  101/101/101 103/103/103 87/87/87
f  103/103/103 101/101/101 104/104/104
f  102/102/102 104/104/104 101/101/101
f  104/104/104 102/102/102 105/105/105
f  97/97/97 105/105/105 102/102/102
f  99/99/99 105/105/105 97/97/97
f  106/106/106 107/107/107 108/108/108
f  109/109/109 108/108/108 107/107/107
f  108/108/108 109/109/109 110/110/110
f  111/111/111 110/110/110 109/109/109
f  112/112/112 111/111/111 113/113/113
f  109/109/109 113/113/113 111/111/111
f  113/113/113 109/109/109 114/114/114
f  107/107/107 114/114/114 109/109/109
f  114/114/114 107/107/107 115/115/115
f  115/115/115 107/107/107 116/116/116
f  106/106/106 116/116/116 107/107/107
f  116/116/116 106/106/106 117/117/117
f  115/115/115 116/116/116 118/118/118
f  118/118/118 116/116/116 119/119/119
f  119/119/119 116/116/116 120/120/120
f  117/117/117 120/120/120 116/116/116
f  120/120/120 117/117/117 121/121/121
f  121/121/121 117/117/117 122/122/122
f  122/122/122 117/117/117 123/123/123
f  106/106/106 123/123/123 117/117/117
f  123/123/123 106/106/106 124/124/124
f  108/108/108 124/124/124 106/106/106
f  124/124/124 108/108/108 125/125/125
f  110/110/110 125/125/125 108/108/108
f  125/125/125 110/110/110 126/126/126
f  126/126/126 110/110/110 127/127/127
f  111/111/111 127/127/127 110/110/110
f  127/127/127 111/111/111 128/128/128
f  112/112/112 128/128/128 111/111/111
f  128/128/128 112/112/112 129/129/129
f  118/118/118 130/130/130 115/115/115
f  131/131/131 115/115/115 130/130/130
f  115/115/115 131/131/131 114/114/114
f  132/132/132 114/114/114 131/131/131
f  114/114/114 132/132/132 113/113/113
f  133/133/133 113/113/113 132/132/132
f  113/113/113 133/133/133 112/112/112
f  134/134/134 112/112/112 133/133/133
f  112/112/112 134/134/134 129/129/129
f  135/135/135 129/129/129 134/134/134
f  136/136/136 129/129/129 135/135/135
f  137/137/137 129/129/129 136/136/136
f  129/129/129 137/137/137 128/128/128
f  138/138/138 128/128/128 137/137/137
f  128/128/128 138/138/138 127/127/127
f  139/139/139 127/127/127 138/138/138
f  127/127/127 139/139/139 126/126/126
f  140/140/140 126/126/126 139/139/139

g
