# Noesis .obj export.
#
mtllib m1003.mtl
g
v  0.219979 -0.241530 -0.137584
v  0.192051 -0.268622 -0.000000
v  0.167556 -0.288210 -0.000000
v  0.219979 -0.241530 0.137583
v  0.158807 -0.269210 0.040738
v  0.149595 -0.287675 -0.000000
v  0.158807 -0.269210 -0.040739
v  0.170564 -0.236958 -0.144219
v  0.243180 -0.179300 -0.199358
v  0.191265 -0.177860 -0.220508
v  0.288667 -0.098217 -0.248604
v  0.236050 -0.076651 -0.260251
v  0.357680 0.013914 -0.239178
v  0.285101 0.036217 -0.255090
v  0.408858 0.082878 -0.205716
v  0.329285 0.122288 -0.234818
v  0.438721 0.137824 -0.169158
v  0.368542 0.189927 -0.184491
v  0.458352 0.176749 -0.098299
v  0.395588 0.237129 -0.114996
v  0.480806 0.203018 0.000000
v  0.289414 0.222185 -0.182129
v  0.255107 0.150653 -0.225319
v  0.216005 0.050958 -0.255676
v  0.164446 -0.065642 -0.255413
v  0.147135 -0.174898 -0.227794
v  0.138585 -0.224496 -0.135974
v  0.146033 -0.257587 -0.024337
v  0.126954 -0.258676 -0.000000
v  0.149595 -0.287675 -0.000000
v  0.146033 -0.257587 0.024337
v  0.308840 0.270290 -0.112881
v  0.409764 0.261854 0.000000
v  0.395588 0.237129 0.114997
v  0.458352 0.176748 0.098299
v  0.368542 0.189927 0.184491
v  0.438721 0.137824 0.169158
v  0.329285 0.122287 0.234819
v  0.408858 0.082877 0.205716
v  0.285102 0.036216 0.246571
v  0.357680 0.013913 0.239178
v  0.236050 -0.076651 0.268770
v  0.288667 -0.098218 0.248604
v  0.191265 -0.177861 0.220508
v  0.243180 -0.179301 0.199358
v  0.170564 -0.236959 0.144219
v  0.313238 0.299244 0.000000
v  0.308840 0.270289 0.112882
v  0.289414 0.222184 0.182129
v  0.255107 0.150653 0.225320
v  0.216005 0.050958 0.255676
v  0.164446 -0.065643 0.255413
v  0.147135 -0.174898 0.227794
v  0.138585 -0.224497 0.135974
v  -0.064167 -0.462728 0.186675
v  -0.021677 -0.411069 0.065100
v  0.004562 -0.400446 0.111190
v  0.034383 -0.326646 0.029368
v  0.149595 -0.287675 -0.000000
v  0.102071 -0.311150 0.055182
v  0.081440 -0.315712 0.016071
v  0.054256 -0.338509 0.115062
v  0.022305 -0.382290 0.189416
v  -0.010093 -0.369323 0.140237
v  -0.021677 -0.411069 0.065100
v  0.034383 -0.326646 0.029368
v  0.038231 -0.319908 0.065565
v  0.081440 -0.315712 0.016071
v  0.158807 -0.269210 0.040738
v  0.087988 -0.295673 0.042011
v  0.080318 -0.308847 0.030011
v  0.149595 -0.287675 -0.000000
v  0.146033 -0.257587 0.024337
v  0.081440 -0.315712 -0.016072
v  0.102071 -0.311150 -0.055183
v  0.034383 -0.326646 -0.029368
v  0.054256 -0.338509 -0.115063
v  0.004562 -0.400446 -0.111191
v  0.022305 -0.382290 -0.189417
v  -0.064167 -0.462727 -0.186676
v  -0.010093 -0.369322 -0.140238
v  -0.021677 -0.411069 -0.065100
v  0.034383 -0.326646 -0.029368
v  0.038231 -0.319908 -0.065566
v  0.081440 -0.315712 -0.016072
v  0.080318 -0.308847 -0.030012
v  0.087988 -0.295673 -0.042011
v  0.146033 -0.257587 -0.024337
v  0.158807 -0.269210 -0.040739
v  -0.021677 -0.411069 -0.065100
v  0.458352 0.176749 -0.098299
v  0.480806 0.203018 0.000000
v  0.336477 -0.005494 0.000000
v  0.458352 0.176748 0.098299
v  0.438721 0.137824 0.169158
v  0.408858 0.082877 0.205716
v  0.357680 0.013913 0.239178
v  0.288667 -0.098218 0.248604
v  0.243180 -0.179301 0.199358
v  0.219979 -0.241530 0.137583
v  0.192051 -0.268622 -0.000000
v  0.219979 -0.241530 -0.137584
v  0.243180 -0.179300 -0.199358
v  0.288667 -0.098217 -0.248604
v  0.357680 0.013914 -0.239178
v  0.408858 0.082878 -0.205716
v  0.438721 0.137824 -0.169158
v  0.313238 0.299244 0.000000
v  0.308840 0.270290 -0.112881
v  0.261721 0.021981 0.000000
v  0.289414 0.222185 -0.182129
v  0.255107 0.150653 -0.225319
v  0.216005 0.050958 -0.255676
v  0.164446 -0.065642 -0.255413
v  0.147135 -0.174898 -0.227794
v  0.138585 -0.224496 -0.135974
v  0.126954 -0.258676 -0.000000
v  0.138585 -0.224497 0.135974
v  0.147135 -0.174898 0.227794
v  0.164446 -0.065643 0.255413
v  0.216005 0.050958 0.255676
v  0.255107 0.150653 0.225320
v  0.289414 0.222184 0.182129
v  0.308840 0.270289 0.112882

vt  0.878025 -0.778774 0.000000
vt  0.994943 -0.918700 0.000000
vt  0.976568 -0.936340 0.000000
vt  0.878025 -0.778774 0.000000
vt  0.924508 -0.913638 0.000000
vt  0.969774 -0.961949 0.000000
vt  0.924508 -0.913638 0.000000
vt  0.836861 -0.834766 0.000000
vt  0.816615 -0.687230 0.000000
vt  0.752478 -0.746470 0.000000
vt  0.704392 -0.523999 0.000000
vt  0.639317 -0.623033 0.000000
vt  0.604141 -0.433687 0.000000
vt  0.533312 -0.538218 0.000000
vt  0.516483 -0.297236 0.000000
vt  0.428977 -0.426018 0.000000
vt  0.422017 -0.208187 0.000000
vt  0.319552 -0.325968 0.000000
vt  0.318319 -0.116710 0.000000
vt  0.227519 -0.238891 0.000000
vt  0.183829 -0.008584 0.000000
vt  0.254631 -0.445757 0.000000
vt  0.364034 -0.536098 0.000000
vt  0.491911 -0.635483 0.000000
vt  0.590106 -0.726679 0.000000
vt  0.708981 -0.813680 0.000000
vt  0.805608 -0.877360 0.000000
vt  0.915370 -0.947560 0.000000
vt  0.918310 -0.990434 0.000000
vt  0.966154 -0.968909 0.000000
vt  0.915370 -0.947560 0.000000
vt  0.164954 -0.369865 0.000000
vt  0.097159 -0.134654 0.000000
vt  0.227519 -0.238891 0.000000
vt  0.318319 -0.116710 0.000000
vt  0.319552 -0.325968 0.000000
vt  0.422017 -0.208187 0.000000
vt  0.428977 -0.426018 0.000000
vt  0.516483 -0.297236 0.000000
vt  0.533312 -0.538218 0.000000
vt  0.604141 -0.433687 0.000000
vt  0.639317 -0.623033 0.000000
vt  0.704392 -0.523999 0.000000
vt  0.752478 -0.746470 0.000000
vt  0.816615 -0.687230 0.000000
vt  0.836861 -0.834766 0.000000
vt  0.009829 -0.268664 0.000000
vt  0.164954 -0.369865 0.000000
vt  0.254631 -0.445757 0.000000
vt  0.364034 -0.536098 0.000000
vt  0.491911 -0.635483 0.000000
vt  0.590106 -0.726679 0.000000
vt  0.708981 -0.813680 0.000000
vt  0.805608 -0.877360 0.000000
vt  0.477146 -0.994133 0.000000
vt  0.561141 -0.724398 0.000000
vt  0.439984 -0.761755 0.000000
vt  0.300261 -0.505987 0.000000
vt  0.127876 -0.357525 0.000000
vt  0.143246 -0.478508 0.000000
vt  0.214069 -0.431756 0.000000
vt  0.214423 -0.562680 0.000000
vt  0.364298 -0.806905 0.000000
vt  0.297725 -0.861582 0.000000
vt  0.195344 -0.959838 0.000000
vt  0.118293 -0.638136 0.000000
vt  0.161440 -0.612529 0.000000
vt  0.062409 -0.543042 0.000000
vt  0.072070 -0.394337 0.000000
vt  0.095869 -0.504314 0.000000
vt  0.083983 -0.530239 0.000000
vt  0.006525 -0.447949 0.000000
vt  0.030298 -0.396098 0.000000
vt  0.214069 -0.431756 0.000000
vt  0.143246 -0.478508 0.000000
vt  0.300261 -0.505987 0.000000
vt  0.214423 -0.562680 0.000000
vt  0.439984 -0.761755 0.000000
vt  0.364298 -0.806905 0.000000
vt  0.477146 -0.994133 0.000000
vt  0.297725 -0.861582 0.000000
vt  0.195344 -0.959838 0.000000
vt  0.118293 -0.638136 0.000000
vt  0.161440 -0.612529 0.000000
vt  0.062409 -0.543042 0.000000
vt  0.083983 -0.530239 0.000000
vt  0.095869 -0.504314 0.000000
vt  0.030298 -0.396098 0.000000
vt  0.072070 -0.394337 0.000000
vt  0.561141 -0.724398 0.000000
vt  0.398186 -0.130535 0.000000
vt  0.360185 -0.007690 0.000000
vt  0.690846 -0.008669 0.000000
vt  0.398186 -0.130535 0.000000
vt  0.452181 -0.219483 0.000000
vt  0.538355 -0.266004 0.000000
vt  0.660163 -0.274235 0.000000
vt  0.761457 -0.274740 0.000000
vt  0.886003 -0.194328 0.000000
vt  0.942118 -0.133366 0.000000
vt  0.993186 -0.007209 0.000000
vt  0.942118 -0.133366 0.000000
vt  0.886003 -0.194328 0.000000
vt  0.761457 -0.274740 0.000000
vt  0.660163 -0.274235 0.000000
vt  0.538355 -0.266004 0.000000
vt  0.452181 -0.219483 0.000000
vt  0.992206 -0.705662 0.000000
vt  0.864681 -0.681038 0.000000
vt  0.995766 -0.427757 0.000000
vt  0.794023 -0.638441 0.000000
vt  0.752284 -0.547417 0.000000
vt  0.757231 -0.433712 0.000000
vt  0.776976 -0.342032 0.000000
vt  0.820242 -0.248310 0.000000
vt  0.886869 -0.201991 0.000000
vt  0.986962 -0.151748 0.000000
vt  0.886869 -0.201991 0.000000
vt  0.820242 -0.248310 0.000000
vt  0.776976 -0.342032 0.000000
vt  0.757231 -0.433712 0.000000
vt  0.752284 -0.547417 0.000000
vt  0.794023 -0.638441 0.000000
vt  0.864681 -0.681038 0.000000

vn  0.500289 -0.798743 -0.334246
vn  0.742867 -0.669439 -0.000001
vn  0.204988 -0.978765 -0.000001
vn  0.500289 -0.798744 0.334245
vn  -0.286491 -0.794649 0.535216
vn  -0.227108 -0.973870 -0.000001
vn  -0.286491 -0.794648 -0.535218
vn  -0.207858 -0.835998 -0.507842
vn  0.609659 -0.660594 -0.438099
vn  0.117537 -0.666106 -0.736537
vn  0.600459 -0.451082 -0.660284
vn  0.041244 -0.157038 -0.986731
vn  0.697719 -0.259388 -0.667762
vn  0.145239 0.086988 -0.985565
vn  0.806068 -0.210231 -0.553225
vn  0.235211 0.306258 -0.922433
vn  0.892124 0.039459 -0.450064
vn  0.381944 0.561638 -0.733949
vn  0.954001 0.077445 -0.289627
vn  0.498985 0.741884 -0.447909
vn  0.981106 0.193473 0.000000
vn  -0.496355 0.699959 -0.513506
vn  -0.631575 0.541036 -0.555332
vn  -0.664710 0.363045 -0.652962
vn  -0.793357 0.137542 -0.593015
vn  -0.719922 -0.382567 -0.579098
vn  -0.904978 -0.327679 -0.271370
vn  -0.829493 -0.420099 -0.368046
vn  -0.960517 -0.278220 -0.000000
vn  -0.227108 -0.973870 -0.000001
vn  -0.829493 -0.420099 0.368045
vn  -0.440802 0.841987 -0.311050
vn  0.504081 0.863656 0.000001
vn  0.498985 0.741883 0.447911
vn  0.954001 0.077445 0.289628
vn  0.381944 0.561637 0.733950
vn  0.892124 0.039458 0.450064
vn  0.235278 0.275754 0.931989
vn  0.797447 -0.216013 0.563398
vn  0.172689 0.109561 0.978864
vn  0.687463 -0.213323 0.694181
vn  0.050994 -0.160625 0.985697
vn  0.632099 -0.479797 0.608478
vn  0.121070 -0.685831 0.717619
vn  0.609659 -0.660595 0.438098
vn  -0.207858 -0.835999 0.507839
vn  -0.428433 0.903573 0.000001
vn  -0.440802 0.841986 0.311052
vn  -0.496355 0.699958 0.513508
vn  -0.631575 0.541034 0.555333
vn  -0.638995 0.380126 0.668723
vn  -0.821881 0.151326 0.549192
vn  -0.727741 -0.393875 0.561477
vn  -0.904978 -0.327680 0.271369
vn  -0.568031 -0.665569 0.484106
vn  -0.385452 -0.484480 -0.785306
vn  0.703205 -0.697961 -0.135475
vn  -0.230125 0.132332 -0.964122
vn  -0.227108 -0.973870 -0.000001
vn  0.386219 -0.434148 0.813849
vn  -0.306264 -0.337589 -0.890076
vn  0.824541 0.377405 0.421543
vn  0.460392 0.110749 0.880780
vn  -0.663952 0.713933 0.222413
vn  -0.385452 -0.484480 -0.785306
vn  -0.230125 0.132332 -0.964122
vn  -0.436445 0.890470 0.128759
vn  -0.306264 -0.337589 -0.890076
vn  -0.286491 -0.794649 0.535216
vn  -0.409881 0.899483 0.151417
vn  -0.502084 0.744304 -0.440367
vn  -0.227108 -0.973870 -0.000001
vn  -0.829493 -0.420099 0.368045
vn  -0.306264 -0.337592 0.890075
vn  0.386219 -0.434146 -0.813850
vn  -0.230125 0.132330 0.964122
vn  0.824541 0.377406 -0.421542
vn  0.703205 -0.697961 0.135473
vn  0.460392 0.110751 -0.880780
vn  -0.568032 -0.665567 -0.484107
vn  -0.663952 0.713933 -0.222411
vn  -0.385452 -0.484482 0.785305
vn  -0.230125 0.132330 0.964122
vn  -0.436445 0.890471 -0.128757
vn  -0.306264 -0.337592 0.890075
vn  -0.502084 0.744303 0.440369
vn  -0.409881 0.899484 -0.151415
vn  -0.829493 -0.420099 -0.368046
vn  -0.286491 -0.794648 -0.535218
vn  -0.385452 -0.484482 0.785305
vn  0.954001 0.077445 -0.289627
vn  0.981106 0.193473 0.000000
vn  0.854887 -0.518814 -0.000001
vn  0.954001 0.077445 0.289628
vn  0.892124 0.039458 0.450064
vn  0.797447 -0.216013 0.563398
vn  0.687463 -0.213323 0.694181
vn  0.632099 -0.479797 0.608478
vn  0.609659 -0.660595 0.438098
vn  0.500289 -0.798744 0.334245
vn  0.742867 -0.669439 -0.000001
vn  0.500289 -0.798743 -0.334246
vn  0.609659 -0.660594 -0.438099
vn  0.600459 -0.451082 -0.660284
vn  0.697719 -0.259388 -0.667762
vn  0.806068 -0.210231 -0.553225
vn  0.892124 0.039459 -0.450064
vn  -0.428433 0.903573 0.000001
vn  -0.440802 0.841987 -0.311050
vn  -0.947553 0.319597 0.000000
vn  -0.496355 0.699959 -0.513506
vn  -0.631575 0.541036 -0.555332
vn  -0.664710 0.363045 -0.652962
vn  -0.793357 0.137542 -0.593015
vn  -0.719922 -0.382567 -0.579098
vn  -0.904978 -0.327679 -0.271370
vn  -0.960517 -0.278220 -0.000000
vn  -0.904978 -0.327680 0.271369
vn  -0.727741 -0.393875 0.561477
vn  -0.821881 0.151326 0.549192
vn  -0.638995 0.380126 0.668723
vn  -0.631575 0.541034 0.555333
vn  -0.496355 0.699958 0.513508
vn  -0.440802 0.841986 0.311052

g M1003
usemtl M1003_3
f  1/1/1 2/2/2 3/3/3
f  4/4/4 3/3/3 2/2/2
f  4/4/4 5/5/5 3/3/3
f  6/6/6 3/3/3 5/5/5
f  7/7/7 3/3/3 6/6/6
f  3/3/3 7/7/7 1/1/1
f  8/8/8 1/1/1 7/7/7
f  1/1/1 8/8/8 9/9/9
f  10/10/10 9/9/9 8/8/8
f  9/9/9 10/10/10 11/11/11
f  12/12/12 11/11/11 10/10/10
f  11/11/11 12/12/12 13/13/13
f  14/14/14 13/13/13 12/12/12
f  13/13/13 14/14/14 15/15/15
f  16/16/16 15/15/15 14/14/14
f  15/15/15 16/16/16 17/17/17
f  18/18/18 17/17/17 16/16/16
f  17/17/17 18/18/18 19/19/19
f  20/20/20 19/19/19 18/18/18
f  19/19/19 20/20/20 21/21/21
f  18/18/18 22/22/22 20/20/20
f  22/22/22 18/18/18 23/23/23
f  16/16/16 23/23/23 18/18/18
f  23/23/23 16/16/16 24/24/24
f  14/14/14 24/24/24 16/16/16
f  12/12/12 24/24/24 14/14/14
f  24/24/24 12/12/12 25/25/25
f  25/25/25 12/12/12 26/26/26
f  10/10/10 26/26/26 12/12/12
f  26/26/26 10/10/10 27/27/27
f  8/8/8 27/27/27 10/10/10
f  7/7/7 27/27/27 8/8/8
f  28/28/28 27/27/27 7/7/7
f  27/27/27 28/28/28 29/29/29
f  30/30/30 29/29/29 28/28/28
f  31/31/31 29/29/29 30/30/30
f  22/22/22 32/32/32 20/20/20
f  33/33/33 20/20/20 32/32/32
f  20/20/20 33/33/33 21/21/21
f  34/34/34 21/21/21 33/33/33
f  21/21/21 34/34/34 35/35/35
f  36/36/36 35/35/35 34/34/34
f  35/35/35 36/36/36 37/37/37
f  38/38/38 37/37/37 36/36/36
f  37/37/37 38/38/38 39/39/39
f  40/40/40 39/39/39 38/38/38
f  39/39/39 40/40/40 41/41/41
f  42/42/42 41/41/41 40/40/40
f  41/41/41 42/42/42 43/43/43
f  44/44/44 43/43/43 42/42/42
f  43/43/43 44/44/44 45/45/45
f  46/46/46 45/45/45 44/44/44
f  45/45/45 46/46/46 4/4/4
f  5/5/5 4/4/4 46/46/46
f  32/32/32 47/47/47 33/33/33
f  48/48/48 33/33/33 47/47/47
f  33/33/33 48/48/48 34/34/34
f  49/49/49 34/34/34 48/48/48
f  34/34/34 49/49/49 36/36/36
f  50/50/50 36/36/36 49/49/49
f  36/36/36 50/50/50 38/38/38
f  51/51/51 38/38/38 50/50/50
f  38/38/38 51/51/51 40/40/40
f  40/40/40 51/51/51 42/42/42
f  52/52/52 42/42/42 51/51/51
f  53/53/53 42/42/42 52/52/52
f  42/42/42 53/53/53 44/44/44
f  54/54/54 44/44/44 53/53/53
f  44/44/44 54/54/54 46/46/46
f  46/46/46 54/54/54 5/5/5
f  5/5/5 54/54/54 31/31/31
f  29/29/29 31/31/31 54/54/54
f  55/55/55 56/56/56 57/57/57
f  58/58/58 57/57/57 56/56/56
f  59/59/59 60/60/60 61/61/61
f  61/61/61 60/60/60 58/58/58
f  62/62/62 58/58/58 60/60/60
f  58/58/58 62/62/62 57/57/57
f  63/63/63 57/57/57 62/62/62
f  57/57/57 63/63/63 55/55/55
f  64/64/64 55/55/55 63/63/63
f  55/55/55 64/64/64 65/65/65
f  65/65/65 64/64/64 66/66/66
f  67/67/67 66/66/66 64/64/64
f  66/66/66 67/67/67 68/68/68
f  64/64/64 63/63/63 67/67/67
f  62/62/62 67/67/67 63/63/63
f  67/67/67 62/62/62 60/60/60
f  59/59/59 69/69/69 60/60/60
f  70/70/70 60/60/60 69/69/69
f  60/60/60 70/70/70 67/67/67
f  71/71/71 67/67/67 70/70/70
f  67/67/67 71/71/71 68/68/68
f  68/68/68 71/71/71 72/72/72
f  70/70/70 72/72/72 71/71/71
f  72/72/72 70/70/70 73/73/73
f  69/69/69 73/73/73 70/70/70
f  59/59/59 74/74/74 75/75/75
f  76/76/76 75/75/75 74/74/74
f  75/75/75 76/76/76 77/77/77
f  78/78/78 77/77/77 76/76/76
f  77/77/77 78/78/78 79/79/79
f  80/80/80 79/79/79 78/78/78
f  79/79/79 80/80/80 81/81/81
f  82/82/82 81/81/81 80/80/80
f  83/83/83 81/81/81 82/82/82
f  81/81/81 83/83/83 84/84/84
f  85/85/85 84/84/84 83/83/83
f  84/84/84 85/85/85 86/86/86
f  72/72/72 86/86/86 85/85/85
f  86/86/86 72/72/72 87/87/87
f  88/88/88 87/87/87 72/72/72
f  89/89/89 87/87/87 88/88/88
f  87/87/87 89/89/89 75/75/75
f  59/59/59 75/75/75 89/89/89
f  86/86/86 87/87/87 84/84/84
f  75/75/75 84/84/84 87/87/87
f  77/77/77 84/84/84 75/75/75
f  79/79/79 84/84/84 77/77/77
f  84/84/84 79/79/79 81/81/81
f  80/80/80 78/78/78 90/90/90
f  76/76/76 90/90/90 78/78/78
f  91/91/91 92/92/92 93/93/93
f  94/94/94 93/93/93 92/92/92
f  95/95/95 93/93/93 94/94/94
f  96/96/96 93/93/93 95/95/95
f  97/97/97 93/93/93 96/96/96
f  98/98/98 93/93/93 97/97/97
f  99/99/99 93/93/93 98/98/98
f  100/100/100 93/93/93 99/99/99
f  101/101/101 93/93/93 100/100/100
f  102/102/102 93/93/93 101/101/101
f  103/103/103 93/93/93 102/102/102
f  104/104/104 93/93/93 103/103/103
f  105/105/105 93/93/93 104/104/104
f  106/106/106 93/93/93 105/105/105
f  107/107/107 93/93/93 106/106/106
f  93/93/93 107/107/107 91/91/91
f  108/108/108 109/109/109 110/110/110
f  111/111/111 110/110/110 109/109/109
f  112/112/112 110/110/110 111/111/111
f  113/113/113 110/110/110 112/112/112
f  114/114/114 110/110/110 113/113/113
f  115/115/115 110/110/110 114/114/114
f  116/116/116 110/110/110 115/115/115
f  117/117/117 110/110/110 116/116/116
f  118/118/118 110/110/110 117/117/117
f  119/119/119 110/110/110 118/118/118
f  120/120/120 110/110/110 119/119/119
f  121/121/121 110/110/110 120/120/120
f  122/122/122 110/110/110 121/121/121
f  123/123/123 110/110/110 122/122/122
f  124/124/124 110/110/110 123/123/123
f  110/110/110 124/124/124 108/108/108

g
