# Noesis .obj export.
#
mtllib m1104.mtl
g
v  0.679784 -0.100733 -0.000293
v  0.716883 -0.110366 0.403972
v  0.656781 -0.279992 0.272190
v  0.679784 -0.100733 -0.000293
v  0.755735 0.064547 0.276305
v  0.721672 -0.114417 -0.403972
v  0.660002 -0.282717 -0.271218
v  0.759019 0.061770 -0.277614
v  0.679784 -0.100733 -0.000293
v  0.613481 -0.476913 -0.195612
v  0.611148 -0.474939 0.197989
v  0.608557 -0.445255 0.001012
v  0.679784 -0.100733 -0.000293
v  0.824539 0.264174 0.202170
v  0.806797 0.237967 -0.001238
v  0.826950 0.262134 -0.204674
v  0.255653 0.004922 0.261545
v  0.398523 0.109426 0.204714
v  0.292849 0.145737 0.206378
v  0.325722 0.250722 0.126396
v  0.430575 0.211350 0.126415
v  0.409721 0.079188 0.173539
v  0.362150 -0.028328 0.258198
v  0.495160 0.071541 0.178242
v  0.458444 -0.042368 0.265525
v  0.605059 0.056666 0.198898
v  0.570779 -0.072092 0.295233
v  0.755735 0.064547 0.276305
v  0.716883 -0.110366 0.403972
v  0.220999 -0.132215 0.211493
v  0.328297 -0.162387 0.209807
v  0.195299 -0.242318 0.128095
v  0.303400 -0.269412 0.128072
v  0.190019 -0.262721 -0.002384
v  0.297514 -0.291306 -0.001603
v  0.304938 -0.270713 -0.131412
v  0.322187 -0.256403 -0.001632
v  0.394160 -0.293570 -0.129482
v  0.403068 -0.276850 0.000416
v  0.500060 -0.329281 -0.000212
v  0.392620 -0.292267 0.130360
v  0.495500 -0.348616 0.143809
v  0.534263 -0.206939 0.196281
v  0.656781 -0.279992 0.272190
v  0.433327 -0.160049 0.179053
v  0.344449 -0.143853 0.174270
v  0.611148 -0.474939 0.197989
v  0.608557 -0.445255 0.001012
v  0.497206 -0.350059 -0.144076
v  0.613481 -0.476913 -0.195612
v  0.660002 -0.282717 -0.271218
v  0.543155 -0.223503 -0.214976
v  0.574291 -0.075063 -0.297362
v  0.721672 -0.114417 -0.403972
v  0.759019 0.061770 -0.277614
v  0.607435 0.054656 -0.201924
v  0.461597 -0.045034 -0.266357
v  0.497282 0.069746 -0.179791
v  0.365241 -0.030942 -0.263243
v  0.435450 -0.161845 -0.179012
v  0.346539 -0.145621 -0.178377
v  0.330809 -0.164511 -0.213916
v  0.826950 0.262134 -0.204674
v  0.649458 0.204336 -0.147375
v  0.527405 0.205237 -0.131212
v  0.432853 0.217246 -0.003351
v  0.432113 0.210049 -0.133069
v  0.411811 0.077420 -0.179108
v  0.400986 0.107343 -0.210716
v  0.327269 0.249413 -0.134687
v  0.295341 0.143629 -0.213996
v  0.258793 0.002266 -0.268186
v  0.223539 -0.134365 -0.217175
v  0.196846 -0.243627 -0.132988
v  0.806797 0.237967 -0.001238
v  0.641794 0.185737 -0.001954
v  0.527124 0.187011 -0.001175
v  0.525865 0.206540 0.128668
v  0.647735 0.205793 0.143354
v  0.824539 0.264174 0.202170
v  0.432853 0.217246 -0.003351
v  0.439185 0.232174 0.124060
v  0.430575 0.211350 0.126415
v  0.325722 0.250722 0.126396
v  0.333211 0.272609 0.124155
v  0.431294 0.259957 -0.003574
v  0.343964 0.291640 -0.004250
v  0.334733 0.271322 -0.132577
v  0.432862 0.217267 -0.003351
v  0.440696 0.230896 -0.130820
v  0.327269 0.249413 -0.134687
v  0.432113 0.210049 -0.133069
v  0.195299 -0.242318 0.128095
v  0.320563 0.023756 -0.003046
v  0.190019 -0.262721 -0.002384
v  0.196846 -0.243627 -0.132988
v  0.220999 -0.132215 0.211493
v  0.255653 0.004922 0.261545
v  0.292849 0.145737 0.206378
v  0.295341 0.143629 -0.213996
v  0.258793 0.002266 -0.268186
v  0.223539 -0.134365 -0.217175
v  0.343964 0.291640 -0.004250
v  0.334733 0.271322 -0.132577
v  0.327269 0.249413 -0.134687
v  0.325722 0.250722 0.126396
v  0.333211 0.272609 0.124155

vt  0.648511 -0.986270 0.000000
vt  0.650037 -0.621140 0.000000
vt  0.494562 -0.739826 0.000000
vt  0.648579 -0.986271 0.000000
vt  0.804439 -0.736579 0.000000
vt  0.650037 -0.621140 0.000000
vt  0.494562 -0.739826 0.000000
vt  0.804439 -0.736579 0.000000
vt  0.648381 -0.986269 0.000000
vt  0.321076 -0.805530 0.000000
vt  0.321076 -0.805530 0.000000
vt  0.344490 -0.983029 0.000000
vt  0.648775 -0.986271 0.000000
vt  0.987158 -0.802680 0.000000
vt  0.961260 -0.985865 0.000000
vt  0.987158 -0.802680 0.000000
vt  0.344951 -0.157647 0.000000
vt  0.496635 -0.163186 0.000000
vt  0.449209 -0.079509 0.000000
vt  0.554593 -0.018268 0.000000
vt  0.597300 -0.107569 0.000000
vt  0.510345 -0.195956 0.000000
vt  0.391218 -0.250041 0.000000
vt  0.567067 -0.258612 0.000000
vt  0.451013 -0.343901 0.000000
vt  0.643121 -0.342021 0.000000
vt  0.521274 -0.459642 0.000000
vt  0.752998 -0.467216 0.000000
vt  0.617239 -0.621905 0.000000
vt  0.231746 -0.205558 0.000000
vt  0.267015 -0.293565 0.000000
vt  0.124105 -0.253993 0.000000
vt  0.158034 -0.350353 0.000000
vt  0.011328 -0.279642 0.000000
vt  0.035350 -0.369865 0.000000
vt  0.158034 -0.350353 0.000000
vt  0.045938 -0.395088 0.000000
vt  0.187282 -0.451272 0.000000
vt  0.063133 -0.467030 0.000000
vt  0.062454 -0.566754 0.000000
vt  0.187282 -0.451272 0.000000
vt  0.211019 -0.581166 0.000000
vt  0.352364 -0.510026 0.000000
vt  0.412012 -0.657104 0.000000
vt  0.318637 -0.402594 0.000000
vt  0.281648 -0.322268 0.000000
vt  0.238934 -0.758964 0.000000
vt  0.046063 -0.716471 0.000000
vt  0.211019 -0.581166 0.000000
vt  0.238934 -0.758964 0.000000
vt  0.412012 -0.657104 0.000000
vt  0.352364 -0.510026 0.000000
vt  0.521274 -0.459642 0.000000
vt  0.617239 -0.621905 0.000000
vt  0.752998 -0.467216 0.000000
vt  0.643121 -0.342021 0.000000
vt  0.451013 -0.343901 0.000000
vt  0.567067 -0.258612 0.000000
vt  0.391218 -0.250041 0.000000
vt  0.318637 -0.402594 0.000000
vt  0.281648 -0.322268 0.000000
vt  0.267015 -0.293565 0.000000
vt  0.939953 -0.364224 0.000000
vt  0.782776 -0.249379 0.000000
vt  0.674868 -0.169415 0.000000
vt  0.654301 -0.011361 0.000000
vt  0.597300 -0.107569 0.000000
vt  0.510345 -0.195956 0.000000
vt  0.496635 -0.163186 0.000000
vt  0.554593 -0.018268 0.000000
vt  0.449209 -0.079509 0.000000
vt  0.344951 -0.157647 0.000000
vt  0.231746 -0.205558 0.000000
vt  0.124105 -0.253993 0.000000
vt  0.989321 -0.164539 0.000000
vt  0.834120 -0.106865 0.000000
vt  0.735559 -0.059194 0.000000
vt  0.674868 -0.169415 0.000000
vt  0.782776 -0.249379 0.000000
vt  0.939953 -0.364224 0.000000
vt  0.034235 -0.771905 0.000000
vt  0.226810 -0.812569 0.000000
vt  0.246144 -0.796145 0.000000
vt  0.268640 -0.972102 0.000000
vt  0.232716 -0.978289 0.000000
vt  0.025643 -0.837930 0.000000
vt  0.027658 -0.979093 0.000000
vt  0.232716 -0.978289 0.000000
vt  0.034219 -0.771922 0.000000
vt  0.226810 -0.812569 0.000000
vt  0.268640 -0.972102 0.000000
vt  0.246144 -0.796145 0.000000
vt  0.031319 -0.105161 0.000000
vt  0.210401 -0.018484 0.000000
vt  0.015825 -0.021660 0.000000
vt  0.031319 -0.105161 0.000000
vt  0.101935 -0.157843 0.000000
vt  0.189684 -0.189153 0.000000
vt  0.279859 -0.154106 0.000000
vt  0.279859 -0.154106 0.000000
vt  0.189684 -0.189153 0.000000
vt  0.101935 -0.157843 0.000000
vt  0.376631 -0.018542 0.000000
vt  0.362258 -0.100979 0.000000
vt  0.348018 -0.102903 0.000000
vt  0.348018 -0.102903 0.000000
vt  0.362258 -0.100979 0.000000

vn  0.961047 -0.276296 0.007082
vn  0.393090 -0.112735 0.912563
vn  0.418635 -0.530191 0.737321
vn  0.961047 -0.276296 0.007082
vn  0.622859 0.219650 0.750866
vn  0.403873 -0.121856 -0.906663
vn  0.446801 -0.536885 -0.715628
vn  0.631729 0.212148 -0.745595
vn  0.961047 -0.276296 0.007082
vn  0.175171 -0.871256 -0.458507
vn  0.169673 -0.866604 0.469264
vn  0.290961 -0.956713 0.006521
vn  0.961047 -0.276296 0.007082
vn  0.589093 0.655626 0.472360
vn  0.740749 0.671781 0.001022
vn  0.594689 0.650892 -0.471894
vn  -0.665874 0.192584 0.720780
vn  0.616236 0.245223 0.748411
vn  -0.633018 0.512199 0.580465
vn  -0.776000 0.475086 0.414870
vn  0.359673 0.461918 0.810720
vn  0.519928 0.299579 0.799955
vn  0.075296 -0.038015 0.996436
vn  -0.047495 0.486404 0.872442
vn  -0.161225 0.068417 0.984543
vn  -0.247313 0.516720 0.819656
vn  -0.443282 0.121745 0.888076
vn  0.622859 0.219650 0.750866
vn  0.393090 -0.112735 0.912563
vn  -0.798409 -0.120815 0.589870
vn  0.470392 -0.510510 0.719799
vn  -0.814454 -0.439139 0.379238
vn  -0.107448 -0.847867 0.519207
vn  -0.878978 -0.476855 -0.002819
vn  0.307874 -0.951404 0.006595
vn  -0.093328 -0.851942 -0.515251
vn  0.291236 -0.956622 0.007559
vn  -0.370160 -0.786650 -0.494129
vn  -0.364876 -0.931055 0.001153
vn  -0.603770 -0.797158 0.001035
vn  -0.352565 -0.774205 0.525647
vn  -0.655023 -0.603074 0.455243
vn  -0.465720 -0.315526 0.826770
vn  0.418635 -0.530191 0.737321
vn  -0.230700 -0.421942 0.876780
vn  0.449548 -0.500723 0.739718
vn  0.169673 -0.866604 0.469264
vn  0.290961 -0.956713 0.006521
vn  -0.639515 -0.634747 -0.433724
vn  0.175171 -0.871256 -0.458507
vn  0.446801 -0.536885 -0.715628
vn  -0.471714 -0.320394 -0.821482
vn  -0.414903 0.140749 -0.898914
vn  0.403873 -0.121856 -0.906663
vn  0.631729 0.212148 -0.745595
vn  -0.247984 0.509805 -0.823774
vn  -0.161312 0.081863 -0.983502
vn  -0.034151 0.475916 -0.878827
vn  0.100708 -0.051234 -0.993596
vn  -0.285007 -0.407899 -0.867404
vn  0.470914 -0.508113 -0.721153
vn  0.478861 -0.517674 -0.709017
vn  0.594689 0.650892 -0.471894
vn  -0.278597 0.843049 -0.460056
vn  0.022394 0.854162 -0.519525
vn  0.895119 0.445812 0.003612
vn  0.377413 0.446609 -0.811234
vn  0.542348 0.285579 -0.790129
vn  0.625080 0.237742 -0.743474
vn  -0.770999 0.470863 -0.428775
vn  -0.626062 0.506316 -0.593035
vn  -0.657271 0.185308 -0.730518
vn  -0.791368 -0.126771 -0.598052
vn  -0.809927 -0.442968 -0.384444
vn  0.740749 0.671781 0.001022
vn  -0.137788 0.990448 -0.005188
vn  0.157611 0.987487 -0.005230
vn  0.013943 0.854630 0.519050
vn  -0.279003 0.849822 0.447169
vn  0.589093 0.655626 0.472360
vn  0.895119 0.445812 0.003612
vn  0.760191 0.292100 0.580334
vn  0.359673 0.461918 0.810720
vn  -0.776000 0.475086 0.414870
vn  -0.458769 0.697269 0.550770
vn  0.765283 0.643693 0.001309
vn  -0.478165 0.878240 -0.007238
vn  -0.452164 0.691685 -0.563133
vn  0.980290 -0.197446 0.006800
vn  0.767073 0.286267 -0.574152
vn  -0.770999 0.470863 -0.428775
vn  0.377413 0.446609 -0.811234
vn  -0.814454 -0.439139 0.379238
vn  -0.970032 0.242879 -0.006967
vn  -0.878978 -0.476855 -0.002819
vn  -0.809927 -0.442968 -0.384444
vn  -0.798409 -0.120815 0.589870
vn  -0.665874 0.192584 0.720780
vn  -0.633018 0.512199 0.580465
vn  -0.626062 0.506316 -0.593035
vn  -0.657271 0.185308 -0.730518
vn  -0.791368 -0.126771 -0.598052
vn  -0.478165 0.878240 -0.007238
vn  -0.452164 0.691685 -0.563133
vn  -0.770999 0.470863 -0.428775
vn  -0.776000 0.475086 0.414870
vn  -0.458769 0.697269 0.550770

g M1104
usemtl M1104_3
f  1/1/1 2/2/2 3/3/3
f  4/4/4 5/5/5 2/2/2
f  6/6/6 1/1/1 7/7/7
f  8/8/8 4/4/4 6/6/6
f  7/7/7 9/9/9 10/10/10
f  3/3/3 11/11/11 9/9/9
f  12/12/12 9/9/9 11/11/11
f  9/9/9 12/12/12 10/10/10
f  5/5/5 13/13/13 14/14/14
f  15/15/15 14/14/14 13/13/13
f  8/8/8 16/16/16 13/13/13
f  15/15/15 13/13/13 16/16/16
f  17/17/17 18/18/18 19/19/19
f  20/20/20 19/19/19 21/21/21
f  18/18/18 21/21/21 19/19/19
f  21/21/21 18/18/18 22/22/22
f  23/23/23 22/22/22 18/18/18
f  22/22/22 23/23/23 24/24/24
f  25/25/25 24/24/24 23/23/23
f  24/24/24 25/25/25 26/26/26
f  27/27/27 26/26/26 25/25/25
f  26/26/26 27/27/27 28/28/28
f  29/29/29 28/28/28 27/27/27
f  18/18/18 17/17/17 23/23/23
f  30/30/30 23/23/23 17/17/17
f  23/23/23 30/30/30 31/31/31
f  32/32/32 31/31/31 30/30/30
f  31/31/31 32/32/32 33/33/33
f  34/34/34 33/33/33 32/32/32
f  33/33/33 34/34/34 35/35/35
f  36/36/36 35/35/35 34/34/34
f  35/35/35 36/36/36 37/37/37
f  38/38/38 37/37/37 36/36/36
f  37/37/37 38/38/38 39/39/39
f  40/40/40 39/39/39 38/38/38
f  39/39/39 40/40/40 41/41/41
f  42/42/42 41/41/41 40/40/40
f  41/41/41 42/42/42 43/43/43
f  44/44/44 43/43/43 42/42/42
f  43/43/43 44/44/44 27/27/27
f  29/29/29 27/27/27 44/44/44
f  27/27/27 25/25/25 43/43/43
f  45/45/45 43/43/43 25/25/25
f  43/43/43 45/45/45 41/41/41
f  33/33/33 41/41/41 45/45/45
f  41/41/41 33/33/33 37/37/37
f  35/35/35 37/37/37 33/33/33
f  25/25/25 23/23/23 45/45/45
f  46/46/46 45/45/45 23/23/23
f  45/45/45 46/46/46 33/33/33
f  31/31/31 33/33/33 46/46/46
f  31/31/31 46/46/46 23/23/23
f  41/41/41 37/37/37 39/39/39
f  44/44/44 42/42/42 47/47/47
f  48/48/48 47/47/47 42/42/42
f  42/42/42 40/40/40 48/48/48
f  49/49/49 48/48/48 40/40/40
f  48/48/48 49/49/49 50/50/50
f  51/51/51 50/50/50 49/49/49
f  40/40/40 38/38/38 49/49/49
f  52/52/52 49/49/49 38/38/38
f  49/49/49 52/52/52 51/51/51
f  53/53/53 51/51/51 52/52/52
f  51/51/51 53/53/53 54/54/54
f  55/55/55 54/54/54 53/53/53
f  55/55/55 53/53/53 56/56/56
f  57/57/57 56/56/56 53/53/53
f  56/56/56 57/57/57 58/58/58
f  59/59/59 58/58/58 57/57/57
f  53/53/53 52/52/52 57/57/57
f  60/60/60 57/57/57 52/52/52
f  57/57/57 60/60/60 59/59/59
f  61/61/61 59/59/59 60/60/60
f  59/59/59 61/61/61 62/62/62
f  36/36/36 62/62/62 61/61/61
f  61/61/61 60/60/60 36/36/36
f  38/38/38 36/36/36 60/60/60
f  52/52/52 38/38/38 60/60/60
f  63/63/63 55/55/55 64/64/64
f  56/56/56 64/64/64 55/55/55
f  64/64/64 56/56/56 65/65/65
f  58/58/58 65/65/65 56/56/56
f  66/66/66 65/65/65 67/67/67
f  58/58/58 67/67/67 65/65/65
f  67/67/67 58/58/58 68/68/68
f  59/59/59 68/68/68 58/58/58
f  68/68/68 59/59/59 69/69/69
f  70/70/70 67/67/67 71/71/71
f  69/69/69 71/71/71 67/67/67
f  71/71/71 69/69/69 72/72/72
f  59/59/59 72/72/72 69/69/69
f  72/72/72 59/59/59 73/73/73
f  62/62/62 73/73/73 59/59/59
f  73/73/73 62/62/62 74/74/74
f  36/36/36 74/74/74 62/62/62
f  74/74/74 36/36/36 34/34/34
f  64/64/64 75/75/75 63/63/63
f  75/75/75 64/64/64 76/76/76
f  65/65/65 76/76/76 64/64/64
f  76/76/76 65/65/65 77/77/77
f  66/66/66 77/77/77 65/65/65
f  77/77/77 66/66/66 78/78/78
f  21/21/21 78/78/78 66/66/66
f  78/78/78 21/21/21 24/24/24
f  22/22/22 24/24/24 21/21/21
f  24/24/24 26/26/26 78/78/78
f  79/79/79 78/78/78 26/26/26
f  78/78/78 79/79/79 76/76/76
f  75/75/75 76/76/76 79/79/79
f  78/78/78 76/76/76 77/77/77
f  67/67/67 68/68/68 69/69/69
f  28/28/28 79/79/79 26/26/26
f  75/75/75 79/79/79 80/80/80
f  28/28/28 80/80/80 79/79/79
f  81/81/81 82/82/82 83/83/83
f  84/84/84 83/83/83 82/82/82
f  84/84/84 82/82/82 85/85/85
f  86/86/86 85/85/85 82/82/82
f  85/85/85 86/86/86 87/87/87
f  88/88/88 87/87/87 86/86/86
f  82/82/82 89/89/89 86/86/86
f  90/90/90 86/86/86 89/89/89
f  86/86/86 90/90/90 88/88/88
f  91/91/91 88/88/88 90/90/90
f  91/91/91 90/90/90 92/92/92
f  81/81/81 92/92/92 90/90/90
f  93/93/93 94/94/94 95/95/95
f  96/96/96 95/95/95 94/94/94
f  93/93/93 97/97/97 94/94/94
f  98/98/98 94/94/94 97/97/97
f  94/94/94 98/98/98 99/99/99
f  100/100/100 101/101/101 94/94/94
f  102/102/102 94/94/94 101/101/101
f  94/94/94 102/102/102 96/96/96
f  103/103/103 104/104/104 94/94/94
f  105/105/105 94/94/94 104/104/104
f  94/94/94 105/105/105 100/100/100
f  99/99/99 106/106/106 94/94/94
f  107/107/107 94/94/94 106/106/106
f  94/94/94 107/107/107 103/103/103

g
