# Noesis .obj export.
#
mtllib m1112.mtl
g
v  0.346451 -0.199774 -0.146998
v  0.365374 -0.285144 0.017565
v  0.194863 -0.199920 -0.130189
v  0.208864 -0.256102 0.017565
v  0.237608 -0.063747 -0.258104
v  0.365584 -0.068599 -0.223990
v  0.274772 0.085388 -0.249025
v  0.384717 0.062574 -0.211664
v  0.347807 0.221898 -0.183968
v  0.436978 0.185899 -0.161574
v  0.443740 0.217368 0.017565
v  0.363609 0.281410 0.017565
v  0.347807 0.221897 0.219098
v  0.436978 0.185898 0.196705
v  0.384717 0.062574 0.246795
v  0.274772 0.085388 0.284156
v  0.365584 -0.068600 0.259120
v  0.237608 -0.063748 0.293234
v  0.346451 -0.199774 0.182127
v  0.194863 -0.199920 0.165319
v  0.492389 -0.159443 -0.124633
v  0.463065 -0.073337 -0.175677
v  0.490286 0.018672 -0.138157
v  0.546698 0.075075 -0.109388
v  0.571644 0.152740 0.017565
v  0.546698 0.075075 0.144518
v  0.490286 0.018671 0.173287
v  0.463065 -0.073337 0.210807
v  0.492389 -0.159444 0.159762
v  0.542993 -0.196142 0.017565
v  0.598094 -0.033867 0.149035
v  0.534248 -0.087469 0.185078
v  0.554320 -0.060989 0.017565
v  0.662945 0.003519 0.017565
v  0.598094 -0.033867 -0.113905
v  0.534248 -0.087469 -0.149948
v  0.254083 0.077512 -0.243967
v  0.219276 -0.062165 -0.252470
v  0.395409 0.015106 0.017565
v  0.179243 -0.189699 -0.132669
v  0.210999 -0.077058 -0.285452
v  0.276813 0.071381 -0.297311
v  0.280324 -0.083527 -0.331901
v  0.185143 -0.221014 -0.268035
v  0.147294 -0.249446 -0.140103
v  0.146334 -0.353446 -0.147482
v  0.150819 -0.284823 0.017565
v  0.140171 -0.370300 0.017565
v  0.146334 -0.353446 0.182611
v  0.147294 -0.249447 0.175233
v  0.185143 -0.221015 0.303165
v  0.179243 -0.189700 0.167799
v  0.210999 -0.077059 0.320582
v  0.280324 -0.083528 0.367031
v  0.276813 0.071380 0.332441
v  0.383642 0.056359 0.406932
v  0.394015 0.182745 0.403063
v  0.168024 -0.480928 -0.183968
v  0.168024 -0.480929 0.017564
v  0.168024 -0.480929 0.219097
v  0.179251 -0.386424 0.325569
v  0.210646 -0.268022 0.415197
v  0.315146 -0.084581 0.430894
v  0.432288 0.047598 0.479286
v  0.441301 0.165824 0.509879
v  0.509081 0.272288 0.468805
v  0.336273 0.220337 0.303113
v  0.254083 0.077511 0.279098
v  0.219276 -0.062165 0.287600
v  0.311057 0.216793 0.218167
v  0.459662 0.289578 0.334362
v  0.568510 0.346622 0.392086
v  0.435734 0.301592 0.192699
v  0.325857 0.272530 0.017565
v  0.624595 0.430367 0.288840
v  0.533836 0.397035 0.132969
v  0.544240 0.379085 0.252368
v  0.405877 0.344300 0.017566
v  0.502967 0.411225 0.017566
v  0.533836 0.397035 -0.097838
v  0.435734 0.301592 -0.157569
v  0.311057 0.216793 -0.183036
v  0.459662 0.289578 -0.299231
v  0.336273 0.220338 -0.267982
v  0.509081 0.272289 -0.433674
v  0.568510 0.346622 -0.356955
v  0.394015 0.182746 -0.367933
v  0.441301 0.165825 -0.474749
v  0.432288 0.047599 -0.444156
v  0.383642 0.056360 -0.371802
v  0.315146 -0.084580 -0.395764
v  0.210646 -0.268021 -0.380067
v  0.179251 -0.386423 -0.290440
v  0.624595 0.430367 -0.253709
v  0.544240 0.379085 -0.217237
v  0.624595 0.430367 -0.253709
v  0.533836 0.397035 -0.097838
v  0.544240 0.379085 -0.217237
v  0.440157 0.303414 -0.157506
v  0.568510 0.346622 -0.356955
v  0.194863 -0.199920 0.165319
v  0.237608 -0.063748 0.293234
v  0.226467 -0.079305 0.327399
v  0.274772 0.085388 0.284156
v  0.293168 0.076676 0.338596
v  0.348838 0.228257 0.306129
v  0.347807 0.221897 0.219098
v  0.459662 0.289578 0.334362
v  0.440157 0.303414 0.192637
v  0.363609 0.281410 0.017565
v  0.419299 0.354038 0.017566
v  0.533836 0.397035 0.132969
v  0.461054 0.382669 0.017566
v  0.502967 0.411225 0.017566
v  0.347807 0.221898 -0.183968
v  0.459662 0.289578 -0.299231
v  0.289644 -0.084582 0.370863
v  0.383729 0.056360 0.406932
v  0.394015 0.182746 0.403063
v  0.509081 0.272288 0.468805
v  0.568510 0.346622 0.392086
v  0.441301 0.165824 0.509879
v  0.432288 0.047598 0.479286
v  0.315146 -0.084581 0.430894
v  0.210646 -0.268022 0.415197
v  0.186679 -0.222101 0.303754
v  0.179251 -0.386424 0.325569
v  0.146414 -0.353913 0.182579
v  0.155685 -0.258714 0.173949
v  0.160192 -0.296812 0.017565
v  0.141426 -0.373927 0.017565
v  0.168024 -0.480929 0.219097
v  0.208864 -0.256102 0.017565
v  0.155685 -0.258714 -0.138819
v  0.194863 -0.199920 -0.130189
v  0.186679 -0.222101 -0.268624
v  0.226467 -0.079304 -0.292269
v  0.237608 -0.063747 -0.258104
v  0.274772 0.085388 -0.249025
v  0.293168 0.076677 -0.303465
v  0.348838 0.228257 -0.270999
v  0.509081 0.272289 -0.433674
v  0.179251 -0.386423 -0.290440
v  0.210646 -0.268021 -0.380067
v  0.289644 -0.084581 -0.335734
v  0.383729 0.056361 -0.371802
v  0.394015 0.182747 -0.367933
v  0.441301 0.165825 -0.474749
v  0.432288 0.047599 -0.444156
v  0.315146 -0.084580 -0.395764
v  0.168024 -0.480929 0.017564
v  0.168024 -0.480928 -0.183968
v  0.146414 -0.353913 -0.147450
v  0.624595 0.430367 0.288840
v  0.544240 0.379085 0.252368
v  0.192356 -0.243692 0.017565

vt  0.657909 -0.477388 0.000000
vt  0.495315 -0.520778 0.000000
vt  0.704087 -0.604491 0.000000
vt  0.564702 -0.650838 0.000000
vt  0.845931 -0.489937 0.000000
vt  0.768251 -0.398548 0.000000
vt  0.931522 -0.368811 0.000000
vt  0.843993 -0.306623 0.000000
vt  0.977478 -0.209463 0.000000
vt  0.878701 -0.184426 0.000000
vt  0.873528 -0.021933 0.000000
vt  0.984663 -0.013819 0.000000
vt  0.977478 -0.209463 0.000000
vt  0.878701 -0.184426 0.000000
vt  0.843993 -0.306623 0.000000
vt  0.931522 -0.368811 0.000000
vt  0.768251 -0.398548 0.000000
vt  0.845931 -0.489937 0.000000
vt  0.657909 -0.477388 0.000000
vt  0.704087 -0.604491 0.000000
vt  0.609921 -0.351576 0.000000
vt  0.700566 -0.329387 0.000000
vt  0.738682 -0.245819 0.000000
vt  0.733829 -0.169098 0.000000
vt  0.737319 -0.031873 0.000000
vt  0.733829 -0.169098 0.000000
vt  0.738682 -0.245819 0.000000
vt  0.700566 -0.329387 0.000000
vt  0.609921 -0.351576 0.000000
vt  0.470530 -0.332978 0.000000
vt  0.638113 -0.211466 0.000000
vt  0.645188 -0.286605 0.000000
vt  0.513324 -0.204364 0.000000
vt  0.577962 -0.093291 0.000000
vt  0.638113 -0.211466 0.000000
vt  0.645188 -0.286605 0.000000
vt  0.274366 -0.341981 0.000000
vt  0.322155 -0.427390 0.000000
vt  0.105155 -0.444317 0.000000
vt  0.302743 -0.548163 0.000000
vt  0.346737 -0.426346 0.000000
vt  0.306132 -0.325604 0.000000
vt  0.390668 -0.391829 0.000000
vt  0.392610 -0.514616 0.000000
vt  0.330615 -0.583065 0.000000
vt  0.373413 -0.637820 0.000000
vt  0.259776 -0.657566 0.000000
vt  0.288928 -0.709260 0.000000
vt  0.373413 -0.637820 0.000000
vt  0.330615 -0.583065 0.000000
vt  0.392610 -0.514616 0.000000
vt  0.302743 -0.548163 0.000000
vt  0.346737 -0.426346 0.000000
vt  0.390668 -0.391829 0.000000
vt  0.306132 -0.325604 0.000000
vt  0.375070 -0.270994 0.000000
vt  0.318700 -0.206275 0.000000
vt  0.444001 -0.694240 0.000000
vt  0.332886 -0.773310 0.000000
vt  0.444001 -0.694240 0.000000
vt  0.465807 -0.601194 0.000000
vt  0.475953 -0.499594 0.000000
vt  0.430932 -0.363210 0.000000
vt  0.423804 -0.238707 0.000000
vt  0.387697 -0.165276 0.000000
vt  0.329813 -0.098184 0.000000
vt  0.243479 -0.236509 0.000000
vt  0.274366 -0.341981 0.000000
vt  0.322155 -0.427390 0.000000
vt  0.192132 -0.267871 0.000000
vt  0.243100 -0.139870 0.000000
vt  0.262157 -0.050296 0.000000
vt  0.150606 -0.172244 0.000000
vt  0.058338 -0.269596 0.000000
vt  0.175031 -0.005681 0.000000
vt  0.086874 -0.093432 0.000000
vt  0.166762 -0.074381 0.000000
vt  0.034107 -0.200853 0.000000
vt  0.011457 -0.124122 0.000000
vt  0.086874 -0.093432 0.000000
vt  0.150606 -0.172244 0.000000
vt  0.192132 -0.267871 0.000000
vt  0.243100 -0.139870 0.000000
vt  0.243479 -0.236509 0.000000
vt  0.329813 -0.098184 0.000000
vt  0.262157 -0.050296 0.000000
vt  0.318700 -0.206275 0.000000
vt  0.387697 -0.165276 0.000000
vt  0.423804 -0.238707 0.000000
vt  0.375070 -0.270994 0.000000
vt  0.430932 -0.363210 0.000000
vt  0.475953 -0.499594 0.000000
vt  0.465807 -0.601194 0.000000
vt  0.175031 -0.005681 0.000000
vt  0.166762 -0.074381 0.000000
vt  0.988454 -0.804776 0.000000
vt  0.923181 -0.677711 0.000000
vt  0.916126 -0.771611 0.000000
vt  0.818094 -0.720598 0.000000
vt  0.909423 -0.884186 0.000000
vt  0.329019 -0.791670 0.000000
vt  0.476935 -0.837939 0.000000
vt  0.470287 -0.866522 0.000000
vt  0.596179 -0.804143 0.000000
vt  0.604379 -0.849031 0.000000
vt  0.721701 -0.802777 0.000000
vt  0.716976 -0.734520 0.000000
vt  0.817315 -0.831697 0.000000
vt  0.818094 -0.720598 0.000000
vt  0.766761 -0.577982 0.000000
vt  0.836465 -0.579907 0.000000
vt  0.923181 -0.677711 0.000000
vt  0.875919 -0.581909 0.000000
vt  0.915413 -0.584393 0.000000
vt  0.716976 -0.734520 0.000000
vt  0.817315 -0.831697 0.000000
vt  0.497119 -0.919854 0.000000
vt  0.630344 -0.930946 0.000000
vt  0.721094 -0.892013 0.000000
vt  0.835700 -0.941886 0.000000
vt  0.909423 -0.884186 0.000000
vt  0.743296 -0.981695 0.000000
vt  0.651639 -0.995106 0.000000
vt  0.515642 -0.966542 0.000000
vt  0.357190 -0.994829 0.000000
vt  0.355150 -0.898695 0.000000
vt  0.245228 -0.969272 0.000000
vt  0.217963 -0.859778 0.000000
vt  0.281526 -0.821460 0.000000
vt  0.203336 -0.725576 0.000000
vt  0.147379 -0.752319 0.000000
vt  0.142649 -0.929738 0.000000
vt  0.243585 -0.700213 0.000000
vt  0.281526 -0.821460 0.000000
vt  0.329019 -0.791670 0.000000
vt  0.355150 -0.898695 0.000000
vt  0.470287 -0.866522 0.000000
vt  0.476935 -0.837939 0.000000
vt  0.596179 -0.804143 0.000000
vt  0.604379 -0.849031 0.000000
vt  0.721701 -0.802777 0.000000
vt  0.835700 -0.941886 0.000000
vt  0.245228 -0.969272 0.000000
vt  0.357190 -0.994829 0.000000
vt  0.497119 -0.919854 0.000000
vt  0.630344 -0.930946 0.000000
vt  0.721094 -0.892013 0.000000
vt  0.743296 -0.981695 0.000000
vt  0.651639 -0.995106 0.000000
vt  0.515642 -0.966542 0.000000
vt  0.070857 -0.791309 0.000000
vt  0.142649 -0.929738 0.000000
vt  0.217963 -0.859778 0.000000
vt  0.988454 -0.804776 0.000000
vt  0.916126 -0.771611 0.000000
vt  0.236665 -0.623933 0.000000

vn  0.145243 -0.751391 -0.643674
vn  0.172541 -0.985002 -0.000001
vn  0.548309 -0.753002 -0.363793
vn  0.302320 -0.953207 -0.000001
vn  0.726311 -0.380752 -0.572277
vn  0.320929 -0.242923 -0.915420
vn  0.890653 -0.223126 -0.396172
vn  0.440975 0.116971 -0.889865
vn  0.891694 -0.277337 -0.357723
vn  0.531042 0.573517 -0.623757
vn  0.513409 0.858144 0.000001
vn  0.998756 -0.049867 -0.000000
vn  0.891695 -0.277338 0.357722
vn  0.531042 0.573516 0.623758
vn  0.440975 0.116969 0.889865
vn  0.890653 -0.223127 0.396172
vn  0.320929 -0.242926 0.915419
vn  0.726311 -0.380753 0.572276
vn  0.145243 -0.751392 0.643672
vn  0.548309 -0.753003 0.363791
vn  0.454577 -0.673272 -0.583151
vn  0.420025 -0.114156 -0.900304
vn  0.454865 0.147851 -0.878201
vn  0.653989 0.319057 -0.685930
vn  0.741858 0.670557 0.000001
vn  0.653989 0.319055 0.685931
vn  0.454865 0.147849 0.878202
vn  0.420025 -0.114159 0.900304
vn  0.454577 -0.673273 0.583149
vn  0.770716 -0.637179 -0.000001
vn  0.790965 -0.239637 0.562981
vn  0.616149 -0.293577 0.730871
vn  0.830065 -0.557666 -0.000001
vn  0.993164 -0.116731 -0.000000
vn  0.790966 -0.239636 -0.562982
vn  0.616149 -0.293575 -0.730872
vn  -0.948664 0.313805 0.039528
vn  -0.914012 0.333611 0.230837
vn  -0.973450 0.228902 0.000000
vn  -0.867132 0.477155 0.142847
vn  -0.862409 0.201917 -0.464199
vn  -0.729099 0.290123 -0.619873
vn  -0.699847 0.292906 -0.651475
vn  -0.938321 0.197585 -0.283749
vn  -0.963694 0.262691 -0.047832
vn  -0.991778 -0.035323 -0.122999
vn  -0.923512 0.383570 0.000000
vn  -0.998485 -0.055021 -0.000000
vn  -0.991778 -0.035323 0.122998
vn  -0.963694 0.262691 0.047833
vn  -0.938321 0.197585 0.283750
vn  -0.867132 0.477155 -0.142846
vn  -0.862409 0.201916 0.464199
vn  -0.699847 0.292904 0.651476
vn  -0.729099 0.290121 0.619874
vn  -0.704937 0.200427 0.680363
vn  -0.747725 0.332180 0.574946
vn  0.132180 -0.672704 -0.728010
vn  0.242690 -0.970104 -0.000001
vn  0.132180 -0.672707 0.728007
vn  0.012423 -0.941792 0.335968
vn  -0.107583 -0.706710 0.699276
vn  0.175961 -0.349502 0.920264
vn  0.670750 0.423508 0.608881
vn  -0.052287 0.551587 -0.832477
vn  0.746606 0.400664 0.531081
vn  -0.696421 0.637509 0.329516
vn  -0.948664 0.313805 -0.039528
vn  -0.914012 0.333612 -0.230836
vn  -0.863598 0.504052 -0.011421
vn  -0.531094 0.817690 0.222087
vn  0.503394 0.117172 0.856075
vn  -0.573946 0.790977 0.211993
vn  -0.914316 0.405001 0.000001
vn  -0.761222 -0.624598 -0.174408
vn  0.650787 0.617614 -0.441621
vn  -0.620601 0.751172 0.224933
vn  -0.626316 0.779570 0.000001
vn  -0.712649 -0.701521 0.000001
vn  0.650788 0.617612 0.441622
vn  -0.573946 0.790978 -0.211991
vn  -0.863598 0.504052 0.011423
vn  -0.531094 0.817690 -0.222085
vn  -0.696421 0.637510 -0.329514
vn  0.746606 0.400665 -0.531080
vn  0.503394 0.117174 -0.856075
vn  -0.747725 0.332181 -0.574946
vn  -0.052287 0.551585 0.832478
vn  0.670748 0.423512 -0.608880
vn  -0.704937 0.200429 -0.680362
vn  0.175961 -0.349499 -0.920265
vn  -0.107577 -0.706711 -0.699276
vn  0.012426 -0.941791 -0.335969
vn  -0.773731 -0.606579 0.182766
vn  -0.620601 0.751173 -0.224931
vn  -0.773731 -0.606579 0.182766
vn  0.650788 0.617612 0.441622
vn  0.625300 -0.747243 0.225005
vn  0.628192 -0.750404 0.205594
vn  0.503394 0.117174 -0.856075
vn  0.548309 -0.753003 0.363791
vn  0.726311 -0.380753 0.572276
vn  0.867534 -0.231498 -0.440220
vn  0.890653 -0.223127 0.396172
vn  0.756485 -0.284280 -0.588995
vn  0.725721 -0.655931 -0.207565
vn  0.891695 -0.277338 0.357722
vn  0.539718 -0.816295 -0.205832
vn  0.628192 -0.750403 -0.205596
vn  0.998756 -0.049867 -0.000000
vn  0.689637 -0.724155 -0.000001
vn  0.650787 0.617614 -0.441621
vn  0.564689 -0.825304 -0.000001
vn  -0.712649 -0.701521 0.000001
vn  0.891694 -0.277337 -0.357723
vn  0.539718 -0.816296 0.205830
vn  0.723112 -0.318671 -0.612828
vn  0.714591 -0.190272 -0.673169
vn  0.759329 -0.337412 -0.556393
vn  0.746606 0.400664 0.531081
vn  0.503394 0.117172 0.856075
vn  -0.052287 0.551587 -0.832477
vn  0.670750 0.423508 0.608881
vn  0.175961 -0.349502 0.920264
vn  -0.107583 -0.706710 0.699276
vn  0.938901 -0.253372 -0.232953
vn  0.012423 -0.941792 0.335968
vn  0.994471 -0.001038 -0.105004
vn  0.939686 -0.341752 0.014020
vn  0.882097 -0.471068 -0.000001
vn  0.999994 0.003458 0.000000
vn  0.132180 -0.672707 0.728007
vn  0.302320 -0.953207 -0.000001
vn  0.939686 -0.341752 -0.014021
vn  0.548309 -0.753002 -0.363793
vn  0.938901 -0.253372 0.232952
vn  0.867534 -0.231500 0.440219
vn  0.726311 -0.380752 -0.572277
vn  0.890653 -0.223126 -0.396172
vn  0.756485 -0.284281 0.588994
vn  0.725721 -0.655932 0.207563
vn  0.746606 0.400665 -0.531080
vn  0.012426 -0.941791 -0.335969
vn  -0.107577 -0.706711 -0.699276
vn  0.723112 -0.318672 0.612827
vn  0.714591 -0.190273 0.673168
vn  0.759329 -0.337414 0.556392
vn  -0.052287 0.551585 0.832478
vn  0.670748 0.423512 -0.608880
vn  0.175961 -0.349499 -0.920265
vn  0.242690 -0.970104 -0.000001
vn  0.132180 -0.672704 -0.728010
vn  0.994471 -0.001038 0.105004
vn  -0.761222 -0.624598 -0.174408
vn  0.625300 -0.747243 -0.225007
vn  -0.769330 0.638852 0.000001

g M1112
usemtl M1112_3
f  1/1/1 2/2/2 3/3/3
f  4/4/4 3/3/3 2/2/2
f  5/5/5 1/1/1 3/3/3
f  1/1/1 5/5/5 6/6/6
f  7/7/7 6/6/6 5/5/5
f  6/6/6 7/7/7 8/8/8
f  9/9/9 8/8/8 7/7/7
f  8/8/8 9/9/9 10/10/10
f  10/10/10 9/9/9 11/11/11
f  12/12/12 11/11/11 9/9/9
f  13/13/13 11/11/11 12/12/12
f  11/11/11 13/13/13 14/14/14
f  14/14/14 13/13/13 15/15/15
f  16/16/16 15/15/15 13/13/13
f  15/15/15 16/16/16 17/17/17
f  18/18/18 17/17/17 16/16/16
f  17/17/17 18/18/18 19/19/19
f  20/20/20 19/19/19 18/18/18
f  19/19/19 20/20/20 2/2/2
f  4/4/4 2/2/2 20/20/20
f  6/6/6 21/21/21 1/1/1
f  21/21/21 6/6/6 22/22/22
f  8/8/8 22/22/22 6/6/6
f  22/22/22 8/8/8 23/23/23
f  10/10/10 23/23/23 8/8/8
f  23/23/23 10/10/10 24/24/24
f  24/24/24 10/10/10 25/25/25
f  11/11/11 25/25/25 10/10/10
f  14/14/14 25/25/25 11/11/11
f  25/25/25 14/14/14 26/26/26
f  26/26/26 14/14/14 27/27/27
f  15/15/15 27/27/27 14/14/14
f  27/27/27 15/15/15 28/28/28
f  17/17/17 28/28/28 15/15/15
f  28/28/28 17/17/17 29/29/29
f  19/19/19 29/29/29 17/17/17
f  29/29/29 19/19/19 30/30/30
f  2/2/2 30/30/30 19/19/19
f  26/26/26 27/27/27 31/31/31
f  28/28/28 31/31/31 27/27/27
f  31/31/31 28/28/28 32/32/32
f  29/29/29 32/32/32 28/28/28
f  30/30/30 32/32/32 29/29/29
f  33/33/33 32/32/32 30/30/30
f  32/32/32 33/33/33 31/31/31
f  34/34/34 31/31/31 33/33/33
f  25/25/25 31/31/31 34/34/34
f  31/31/31 25/25/25 26/26/26
f  24/24/24 25/25/25 35/35/35
f  34/34/34 35/35/35 25/25/25
f  33/33/33 35/35/35 34/34/34
f  35/35/35 33/33/33 36/36/36
f  30/30/30 36/36/36 33/33/33
f  21/21/21 36/36/36 30/30/30
f  22/22/22 36/36/36 21/21/21
f  36/36/36 22/22/22 35/35/35
f  23/23/23 35/35/35 22/22/22
f  35/35/35 23/23/23 24/24/24
f  21/21/21 30/30/30 1/1/1
f  2/2/2 1/1/1 30/30/30
f  37/37/37 38/38/38 39/39/39
f  39/39/39 38/38/38 40/40/40
f  41/41/41 40/40/40 38/38/38
f  38/38/38 37/37/37 41/41/41
f  42/42/42 41/41/41 37/37/37
f  43/43/43 41/41/41 42/42/42
f  44/44/44 41/41/41 43/43/43
f  41/41/41 44/44/44 40/40/40
f  40/40/40 44/44/44 45/45/45
f  46/46/46 45/45/45 44/44/44
f  45/45/45 46/46/46 47/47/47
f  48/48/48 47/47/47 46/46/46
f  49/49/49 47/47/47 48/48/48
f  47/47/47 49/49/49 50/50/50
f  51/51/51 50/50/50 49/49/49
f  50/50/50 51/51/51 52/52/52
f  52/52/52 51/51/51 53/53/53
f  54/54/54 53/53/53 51/51/51
f  53/53/53 54/54/54 55/55/55
f  56/56/56 55/55/55 54/54/54
f  57/57/57 55/55/55 56/56/56
f  46/46/46 58/58/58 48/48/48
f  59/59/59 48/48/48 58/58/58
f  60/60/60 48/48/48 59/59/59
f  48/48/48 60/60/60 49/49/49
f  61/61/61 49/49/49 60/60/60
f  49/49/49 61/61/61 51/51/51
f  62/62/62 51/51/51 61/61/61
f  51/51/51 62/62/62 54/54/54
f  63/63/63 54/54/54 62/62/62
f  64/64/64 54/54/54 63/63/63
f  54/54/54 64/64/64 56/56/56
f  56/56/56 64/64/64 57/57/57
f  65/65/65 57/57/57 64/64/64
f  65/65/65 66/66/66 57/57/57
f  67/67/67 57/57/57 66/66/66
f  57/57/57 67/67/67 55/55/55
f  68/68/68 55/55/55 67/67/67
f  55/55/55 68/68/68 53/53/53
f  69/69/69 53/53/53 68/68/68
f  53/53/53 69/69/69 52/52/52
f  52/52/52 69/69/69 39/39/39
f  68/68/68 39/39/39 69/69/69
f  39/39/39 68/68/68 70/70/70
f  67/67/67 70/70/70 68/68/68
f  70/70/70 67/67/67 71/71/71
f  66/66/66 71/71/71 67/67/67
f  72/72/72 71/71/71 66/66/66
f  73/73/73 71/71/71 72/72/72
f  71/71/71 73/73/73 70/70/70
f  74/74/74 70/70/70 73/73/73
f  70/70/70 74/74/74 39/39/39
f  75/75/75 76/76/76 77/77/77
f  73/73/73 77/77/77 76/76/76
f  72/72/72 77/77/77 73/73/73
f  77/77/77 72/72/72 75/75/75
f  73/73/73 76/76/76 78/78/78
f  79/79/79 78/78/78 76/76/76
f  80/80/80 78/78/78 79/79/79
f  78/78/78 80/80/80 81/81/81
f  73/73/73 78/78/78 74/74/74
f  81/81/81 74/74/74 78/78/78
f  74/74/74 81/81/81 82/82/82
f  83/83/83 82/82/82 81/81/81
f  82/82/82 83/83/83 84/84/84
f  84/84/84 83/83/83 85/85/85
f  85/85/85 83/83/83 86/86/86
f  81/81/81 86/86/86 83/83/83
f  74/74/74 82/82/82 39/39/39
f  39/39/39 82/82/82 37/37/37
f  84/84/84 37/37/37 82/82/82
f  37/37/37 84/84/84 42/42/42
f  42/42/42 84/84/84 87/87/87
f  85/85/85 87/87/87 84/84/84
f  88/88/88 87/87/87 85/85/85
f  89/89/89 87/87/87 88/88/88
f  90/90/90 87/87/87 89/89/89
f  87/87/87 90/90/90 42/42/42
f  42/42/42 90/90/90 43/43/43
f  89/89/89 43/43/43 90/90/90
f  91/91/91 43/43/43 89/89/89
f  92/92/92 43/43/43 91/91/91
f  43/43/43 92/92/92 44/44/44
f  93/93/93 44/44/44 92/92/92
f  44/44/44 93/93/93 46/46/46
f  58/58/58 46/46/46 93/93/93
f  94/94/94 86/86/86 95/95/95
f  81/81/81 95/95/95 86/86/86
f  80/80/80 95/95/95 81/81/81
f  95/95/95 80/80/80 94/94/94
f  96/96/96 97/97/97 98/98/98
f  99/99/99 98/98/98 97/97/97
f  100/100/100 98/98/98 99/99/99
f  98/98/98 100/100/100 96/96/96
f  101/101/101 102/102/102 103/103/103
f  104/104/104 103/103/103 102/102/102
f  103/103/103 104/104/104 105/105/105
f  105/105/105 104/104/104 106/106/106
f  107/107/107 106/106/106 104/104/104
f  106/106/106 107/107/107 108/108/108
f  108/108/108 107/107/107 109/109/109
f  110/110/110 109/109/109 107/107/107
f  111/111/111 109/109/109 110/110/110
f  109/109/109 111/111/111 112/112/112
f  113/113/113 112/112/112 111/111/111
f  112/112/112 113/113/113 114/114/114
f  114/114/114 113/113/113 97/97/97
f  111/111/111 97/97/97 113/113/113
f  97/97/97 111/111/111 99/99/99
f  110/110/110 99/99/99 111/111/111
f  115/115/115 99/99/99 110/110/110
f  99/99/99 115/115/115 116/116/116
f  103/103/103 105/105/105 117/117/117
f  117/117/117 105/105/105 118/118/118
f  118/118/118 105/105/105 119/119/119
f  106/106/106 119/119/119 105/105/105
f  119/119/119 106/106/106 120/120/120
f  108/108/108 120/120/120 106/106/106
f  120/120/120 108/108/108 121/121/121
f  109/109/109 121/121/121 108/108/108
f  120/120/120 122/122/122 119/119/119
f  123/123/123 119/119/119 122/122/122
f  119/119/119 123/123/123 118/118/118
f  118/118/118 123/123/123 117/117/117
f  124/124/124 117/117/117 123/123/123
f  125/125/125 117/117/117 124/124/124
f  117/117/117 125/125/125 126/126/126
f  127/127/127 126/126/126 125/125/125
f  128/128/128 126/126/126 127/127/127
f  126/126/126 128/128/128 129/129/129
f  129/129/129 128/128/128 130/130/130
f  130/130/130 128/128/128 131/131/131
f  131/131/131 128/128/128 132/132/132
f  127/127/127 132/132/132 128/128/128
f  126/126/126 103/103/103 117/117/117
f  103/103/103 126/126/126 101/101/101
f  129/129/129 101/101/101 126/126/126
f  101/101/101 129/129/129 133/133/133
f  130/130/130 133/133/133 129/129/129
f  134/134/134 133/133/133 130/130/130
f  133/133/133 134/134/134 135/135/135
f  136/136/136 135/135/135 134/134/134
f  137/137/137 135/135/135 136/136/136
f  135/135/135 137/137/137 138/138/138
f  138/138/138 137/137/137 139/139/139
f  140/140/140 139/139/139 137/137/137
f  141/141/141 139/139/139 140/140/140
f  139/139/139 141/141/141 115/115/115
f  115/115/115 141/141/141 116/116/116
f  142/142/142 116/116/116 141/141/141
f  100/100/100 116/116/116 142/142/142
f  99/99/99 116/116/116 100/100/100
f  143/143/143 144/144/144 136/136/136
f  145/145/145 136/136/136 144/144/144
f  136/136/136 145/145/145 137/137/137
f  137/137/137 145/145/145 140/140/140
f  146/146/146 140/140/140 145/145/145
f  147/147/147 140/140/140 146/146/146
f  140/140/140 147/147/147 141/141/141
f  141/141/141 147/147/147 142/142/142
f  142/142/142 147/147/147 148/148/148
f  148/148/148 147/147/147 149/149/149
f  146/146/146 149/149/149 147/147/147
f  145/145/145 149/149/149 146/146/146
f  149/149/149 145/145/145 150/150/150
f  144/144/144 150/150/150 145/145/145
f  132/132/132 151/151/151 131/131/131
f  152/152/152 131/131/131 151/151/151
f  153/153/153 131/131/131 152/152/152
f  131/131/131 153/153/153 130/130/130
f  130/130/130 153/153/153 134/134/134
f  134/134/134 153/153/153 136/136/136
f  136/136/136 153/153/153 143/143/143
f  152/152/152 143/143/143 153/153/153
f  154/154/154 121/121/121 155/155/155
f  109/109/109 155/155/155 121/121/121
f  112/112/112 155/155/155 109/109/109
f  155/155/155 112/112/112 154/154/154
f  39/39/39 40/40/40 156/156/156
f  45/45/45 156/156/156 40/40/40
f  47/47/47 156/156/156 45/45/45
f  50/50/50 156/156/156 47/47/47
f  52/52/52 156/156/156 50/50/50
f  156/156/156 52/52/52 39/39/39

g
