# Noesis .obj export.
#
mtllib m1117.mtl
g
v  0.689414 -0.284059 -0.092299
v  0.742435 -0.100380 -0.205096
v  0.822128 -0.145472 -0.085235
v  0.909438 -0.004534 -0.078174
v  0.832569 0.050706 -0.194614
v  0.706072 0.104977 -0.259206
v  0.612911 -0.448215 -0.094799
v  0.564906 -0.339358 -0.216089
v  0.618271 -0.221131 -0.212337
v  0.641935 -0.057437 -0.266493
v  0.615512 0.140180 -0.290820
v  0.747510 0.210637 -0.253577
v  0.874110 0.206347 -0.187747
v  0.961812 0.158492 -0.073963
v  0.539706 -0.263099 -0.270238
v  0.573834 -0.166984 -0.272547
v  0.566282 -0.022251 -0.295207
v  0.564906 -0.339358 0.213807
v  0.539706 -0.263099 0.270231
v  0.485766 -0.277107 0.160700
v  0.381341 -0.249447 0.147652
v  0.612911 -0.448215 0.091720
v  0.557658 -0.344572 0.045688
v  0.484524 -0.283578 -0.000852
v  0.375217 -0.266849 -0.000514
v  0.279154 -0.229887 0.161130
v  0.266039 -0.274181 -0.000450
v  0.198890 -0.240442 0.000147
v  0.279154 -0.229887 -0.160532
v  0.209152 -0.195762 -0.158342
v  0.236688 -0.078294 -0.238909
v  0.315485 -0.104926 -0.241099
v  0.356860 0.041387 -0.245585
v  0.419518 -0.135916 -0.238514
v  0.464599 0.009518 -0.258286
v  0.573834 -0.166984 -0.272547
v  0.566282 -0.022251 -0.295207
v  0.505519 0.152264 -0.244843
v  0.381341 -0.249446 -0.148081
v  0.485766 -0.277106 -0.162068
v  0.557658 -0.344572 -0.048183
v  0.564906 -0.339358 -0.216089
v  0.612911 -0.448215 -0.094799
v  0.539706 -0.263099 -0.270238
v  0.388284 -0.230051 -0.214212
v  0.396832 0.176985 -0.200894
v  0.272528 0.069338 -0.243654
v  0.304259 0.195074 -0.197009
v  0.416566 0.252059 -0.107144
v  0.522808 0.217482 -0.120046
v  0.527211 0.233694 0.000352
v  0.637412 0.215255 0.000072
v  0.522808 0.217482 0.121083
v  0.416566 0.252059 0.109025
v  0.505519 0.152263 0.247321
v  0.396832 0.176984 0.204678
v  0.464599 0.009517 0.261439
v  0.356860 0.041387 0.251046
v  0.304259 0.195074 0.203245
v  0.272528 0.069337 0.252098
v  0.236688 -0.078294 0.245463
v  0.961812 0.158491 0.073806
v  0.874453 0.205346 0.054828
v  0.874110 0.206347 0.187741
v  0.751577 0.222297 0.028210
v  0.751311 0.222202 0.163576
v  0.632914 0.198909 0.143381
v  0.615512 0.140179 0.292327
v  0.566282 -0.022252 0.297176
v  0.573834 -0.166985 0.273607
v  0.419518 -0.135917 0.240407
v  0.315485 -0.104927 0.245167
v  0.209152 -0.195763 0.160590
v  0.747510 0.210636 0.253551
v  0.388283 -0.230052 0.214514
v  0.425190 0.284391 0.000565
v  0.321983 0.263275 0.109498
v  0.329604 0.292153 0.001280
v  0.321983 0.263275 -0.105865
v  0.615512 0.140180 -0.290820
v  0.632914 0.198909 -0.143044
v  0.747510 0.210637 -0.253577
v  0.751311 0.222203 -0.163641
v  0.874110 0.206347 -0.187747
v  0.751577 0.222297 -0.028307
v  0.874453 0.205346 -0.054839
v  0.961812 0.158492 -0.073963
v  0.909438 -0.004535 0.076703
v  0.832569 0.050706 0.193495
v  0.822128 -0.145473 0.082959
v  0.742435 -0.100381 0.203376
v  0.689414 -0.284059 0.089750
v  0.618271 -0.221131 0.210745
v  0.641934 -0.057438 0.266223
v  0.706072 0.104976 0.259130
v  0.612911 -0.448215 0.091720
v  0.564906 -0.339358 0.213807
v  0.539706 -0.263099 0.270231
v  0.573834 -0.166985 0.273607
v  0.566282 -0.022252 0.297176
v  0.615512 0.140179 0.292327
v  0.747510 0.210636 0.253551
v  0.874110 0.206347 0.187741
v  0.961812 0.158491 0.073806
v  0.272528 0.069338 -0.243654
v  0.236688 -0.078294 -0.238909
v  0.404520 0.026124 0.001541
v  0.209152 -0.195762 -0.158342
v  0.198890 -0.240442 0.000147
v  0.209152 -0.195763 0.160590
v  0.236688 -0.078294 0.245463
v  0.272528 0.069337 0.252098
v  0.304259 0.195074 0.203245
v  0.321983 0.263275 0.109498
v  0.329604 0.292153 0.001280
v  0.321983 0.263275 -0.105865
v  0.304259 0.195074 -0.197009
v  0.874453 0.205346 0.054828
v  0.961812 0.158491 0.073806
v  0.636805 -0.049280 -0.000457
v  0.909438 -0.004535 0.076703
v  0.822128 -0.145473 0.082959
v  0.689414 -0.284059 0.089750
v  0.612911 -0.448215 0.091720
v  0.557658 -0.344572 0.045688
v  0.484524 -0.283578 -0.000852
v  0.557658 -0.344572 -0.048183
v  0.612911 -0.448215 -0.094799
v  0.689414 -0.284059 -0.092299
v  0.822128 -0.145472 -0.085235
v  0.909438 -0.004534 -0.078174
v  0.961812 0.158492 -0.073963
v  0.874453 0.205346 -0.054839
v  0.751577 0.222297 -0.028307
v  0.637412 0.215255 0.000072
v  0.751577 0.222297 0.028210

vt  0.511875 -0.236917 0.000000
vt  0.697428 -0.257240 0.000000
vt  0.627672 -0.119356 0.000000
vt  0.756035 -0.050274 0.000000
vt  0.822364 -0.183450 0.000000
vt  0.875193 -0.314345 0.000000
vt  0.419298 -0.336431 0.000000
vt  0.515051 -0.440110 0.000000
vt  0.603484 -0.365307 0.000000
vt  0.742984 -0.376273 0.000000
vt  0.925069 -0.415607 0.000000
vt  0.974439 -0.283900 0.000000
vt  0.954645 -0.150642 0.000000
vt  0.892360 -0.023638 0.000000
vt  0.603331 -0.544646 0.000000
vt  0.679192 -0.504327 0.000000
vt  0.800806 -0.479682 0.000000
vt  0.152672 -0.587281 0.000000
vt  0.284030 -0.610609 0.000000
vt  0.165765 -0.691945 0.000000
vt  0.191083 -0.789448 0.000000
vt  0.032169 -0.579002 0.000000
vt  0.050646 -0.667631 0.000000
vt  0.053088 -0.759789 0.000000
vt  0.082436 -0.845809 0.000000
vt  0.230151 -0.861443 0.000000
vt  0.113967 -0.917397 0.000000
vt  0.143616 -0.971944 0.000000
vt  0.230151 -0.861443 0.000000
vt  0.248746 -0.942711 0.000000
vt  0.346206 -0.916146 0.000000
vt  0.343528 -0.835119 0.000000
vt  0.465264 -0.838455 0.000000
vt  0.354932 -0.738428 0.000000
vt  0.475865 -0.737732 0.000000
vt  0.365309 -0.606275 0.000000
vt  0.489054 -0.619425 0.000000
vt  0.595619 -0.744011 0.000000
vt  0.191083 -0.789448 0.000000
vt  0.165765 -0.691945 0.000000
vt  0.050646 -0.667631 0.000000
vt  0.152672 -0.587281 0.000000
vt  0.032169 -0.579002 0.000000
vt  0.284030 -0.610609 0.000000
vt  0.260957 -0.760280 0.000000
vt  0.581472 -0.846786 0.000000
vt  0.469298 -0.922660 0.000000
vt  0.570338 -0.927575 0.000000
vt  0.686381 -0.867544 0.000000
vt  0.732050 -0.791894 0.000000
vt  0.842468 -0.842910 0.000000
vt  0.897292 -0.763994 0.000000
vt  0.732050 -0.791894 0.000000
vt  0.686381 -0.867544 0.000000
vt  0.595619 -0.744011 0.000000
vt  0.581472 -0.846786 0.000000
vt  0.475865 -0.737732 0.000000
vt  0.465264 -0.838455 0.000000
vt  0.570338 -0.927575 0.000000
vt  0.469298 -0.922660 0.000000
vt  0.346206 -0.916146 0.000000
vt  0.960424 -0.456031 0.000000
vt  0.946517 -0.543292 0.000000
vt  0.832383 -0.497084 0.000000
vt  0.929207 -0.654335 0.000000
vt  0.805052 -0.601809 0.000000
vt  0.772430 -0.709614 0.000000
vt  0.616069 -0.643439 0.000000
vt  0.489054 -0.619425 0.000000
vt  0.365309 -0.606275 0.000000
vt  0.354932 -0.738428 0.000000
vt  0.343528 -0.835119 0.000000
vt  0.248746 -0.942711 0.000000
vt  0.721268 -0.569741 0.000000
vt  0.260957 -0.760280 0.000000
vt  0.794545 -0.913715 0.000000
vt  0.653229 -0.947387 0.000000
vt  0.749526 -0.982777 0.000000
vt  0.653229 -0.947387 0.000000
vt  0.616069 -0.643439 0.000000
vt  0.772430 -0.709614 0.000000
vt  0.721268 -0.569741 0.000000
vt  0.805052 -0.601809 0.000000
vt  0.832383 -0.497084 0.000000
vt  0.929207 -0.654335 0.000000
vt  0.946517 -0.543292 0.000000
vt  0.960424 -0.456031 0.000000
vt  0.756035 -0.050274 0.000000
vt  0.822364 -0.183450 0.000000
vt  0.627672 -0.119356 0.000000
vt  0.697428 -0.257240 0.000000
vt  0.511875 -0.236917 0.000000
vt  0.603484 -0.365307 0.000000
vt  0.742984 -0.376273 0.000000
vt  0.875193 -0.314345 0.000000
vt  0.419298 -0.336431 0.000000
vt  0.515051 -0.440110 0.000000
vt  0.603331 -0.544646 0.000000
vt  0.679192 -0.504327 0.000000
vt  0.800806 -0.479682 0.000000
vt  0.925069 -0.415607 0.000000
vt  0.974439 -0.283900 0.000000
vt  0.954645 -0.150642 0.000000
vt  0.892360 -0.023638 0.000000
vt  0.305644 -0.357932 0.000000
vt  0.198267 -0.367605 0.000000
vt  0.281470 -0.546832 0.000000
vt  0.114779 -0.429714 0.000000
vt  0.078636 -0.531654 0.000000
vt  0.114779 -0.429714 0.000000
vt  0.198267 -0.367605 0.000000
vt  0.305644 -0.357932 0.000000
vt  0.397490 -0.397865 0.000000
vt  0.447536 -0.472157 0.000000
vt  0.462696 -0.556898 0.000000
vt  0.447536 -0.472157 0.000000
vt  0.397490 -0.397865 0.000000
vt  0.032704 -0.207213 0.000000
vt  0.021314 -0.124889 0.000000
vt  0.283669 -0.203406 0.000000
vt  0.119204 -0.047893 0.000000
vt  0.234410 -0.021136 0.000000
vt  0.367918 -0.029615 0.000000
vt  0.487216 -0.055370 0.000000
vt  0.487322 -0.147011 0.000000
vt  0.480365 -0.224768 0.000000
vt  0.487322 -0.147011 0.000000
vt  0.487216 -0.055370 0.000000
vt  0.367918 -0.029615 0.000000
vt  0.234410 -0.021136 0.000000
vt  0.119204 -0.047893 0.000000
vt  0.021314 -0.124889 0.000000
vt  0.032704 -0.207213 0.000000
vt  0.089765 -0.291806 0.000000
vt  0.159839 -0.348777 0.000000
vt  0.089765 -0.291806 0.000000

vn  0.822382 -0.524700 0.219949
vn  0.545450 -0.365365 -0.754316
vn  0.769112 -0.591448 0.242189
vn  0.880689 -0.395291 0.261020
vn  0.604460 -0.215603 -0.766905
vn  0.361210 -0.105123 -0.926540
vn  0.125199 -0.983067 0.133810
vn  -0.034278 -0.741142 -0.670473
vn  0.622485 -0.362451 -0.693644
vn  0.391063 -0.180259 -0.902539
vn  -0.047395 0.434546 -0.899402
vn  0.142370 0.652723 -0.744099
vn  0.589237 0.581410 -0.561037
vn  0.940544 0.208177 0.268401
vn  0.012590 -0.444956 -0.895464
vn  0.232466 -0.181330 -0.955552
vn  -0.059458 -0.055689 -0.996676
vn  -0.031280 -0.747219 0.663842
vn  0.021002 -0.457552 0.888935
vn  -0.466218 -0.868278 0.169512
vn  -0.206824 -0.960769 0.184788
vn  0.125141 -0.982517 -0.137843
vn  -0.273095 -0.665716 -0.694436
vn  -0.148832 -0.988862 -0.000843
vn  -0.084412 -0.996431 -0.000411
vn  -0.288340 -0.808319 0.513303
vn  -0.201722 -0.979441 -0.001827
vn  -0.943666 -0.330900 0.000651
vn  -0.294579 -0.800214 -0.522380
vn  -0.899914 -0.248288 -0.358479
vn  -0.816670 0.045604 -0.575300
vn  -0.115627 -0.228929 -0.966552
vn  -0.018363 0.138002 -0.990262
vn  -0.163624 -0.103652 -0.981062
vn  -0.226811 0.060025 -0.972087
vn  0.232466 -0.181330 -0.955552
vn  -0.059458 -0.055689 -0.996676
vn  -0.205511 0.566279 -0.798181
vn  -0.208106 -0.960148 -0.186568
vn  -0.467567 -0.867124 -0.171688
vn  -0.272145 -0.668961 0.691686
vn  -0.034278 -0.741142 -0.670473
vn  0.125199 -0.983067 0.133810
vn  0.012590 -0.444956 -0.895464
vn  -0.316461 -0.637072 -0.702845
vn  -0.035683 0.570492 -0.820527
vn  -0.773993 0.297651 -0.558873
vn  -0.714481 0.509944 -0.479034
vn  0.175397 0.891498 -0.417692
vn  0.172417 0.940852 -0.291667
vn  0.268981 0.963145 -0.000332
vn  0.154154 0.988047 -0.000491
vn  0.175093 0.941049 0.289429
vn  0.182043 0.892597 0.412468
vn  -0.196863 0.568937 0.798471
vn  -0.017359 0.575857 0.817366
vn  -0.214336 0.056130 0.975146
vn  0.006808 0.132410 0.991172
vn  -0.705453 0.516785 0.485046
vn  -0.758332 0.298522 0.579497
vn  -0.808960 0.031429 0.587022
vn  0.940980 0.208313 -0.266762
vn  0.346398 0.693217 -0.632027
vn  0.589782 0.579422 0.562519
vn  0.167137 0.731326 -0.661232
vn  -0.030739 0.996697 0.075168
vn  -0.084662 0.972510 0.216925
vn  -0.036503 0.434174 0.900089
vn  -0.043958 -0.059259 0.997274
vn  0.244754 -0.190062 0.950774
vn  -0.155087 -0.118449 0.980774
vn  -0.097179 -0.248746 0.963681
vn  -0.899962 -0.253602 0.354618
vn  0.145797 0.652481 0.743647
vn  -0.311689 -0.646774 0.696085
vn  0.274759 0.961512 -0.001524
vn  -0.716901 0.655081 0.238583
vn  -0.692816 0.721114 0.000513
vn  -0.718523 0.652676 -0.240289
vn  -0.047395 0.434546 -0.899402
vn  -0.086285 0.972106 -0.218094
vn  0.142370 0.652723 -0.744099
vn  -0.030894 0.996688 -0.075228
vn  0.589237 0.581410 -0.561037
vn  0.167443 0.730645 0.661907
vn  0.346563 0.692028 0.633239
vn  0.940544 0.208177 0.268401
vn  0.880458 -0.393276 -0.264816
vn  0.605293 -0.219893 0.765028
vn  0.768647 -0.590149 -0.246792
vn  0.548386 -0.368932 0.750441
vn  0.821866 -0.523724 -0.224165
vn  0.628461 -0.367667 0.685462
vn  0.406207 -0.184960 0.894866
vn  0.370041 -0.110028 0.922477
vn  0.125141 -0.982517 -0.137843
vn  -0.031280 -0.747219 0.663842
vn  0.021002 -0.457552 0.888935
vn  0.244754 -0.190062 0.950774
vn  -0.043958 -0.059259 0.997274
vn  -0.036503 0.434174 0.900089
vn  0.145797 0.652481 0.743647
vn  0.589782 0.579422 0.562519
vn  0.940980 0.208313 -0.266762
vn  -0.773993 0.297651 -0.558873
vn  -0.816670 0.045604 -0.575300
vn  -0.982783 0.184740 0.002923
vn  -0.899914 -0.248288 -0.358479
vn  -0.943666 -0.330900 0.000651
vn  -0.899962 -0.253602 0.354618
vn  -0.808960 0.031429 0.587022
vn  -0.758332 0.298522 0.579497
vn  -0.705453 0.516785 0.485046
vn  -0.716901 0.655081 0.238583
vn  -0.692816 0.721114 0.000513
vn  -0.718523 0.652676 -0.240289
vn  -0.714481 0.509944 -0.479034
vn  0.346398 0.693217 -0.632027
vn  0.940980 0.208313 -0.266762
vn  0.865816 -0.500356 -0.002531
vn  0.880458 -0.393276 -0.264816
vn  0.768647 -0.590149 -0.246792
vn  0.821866 -0.523724 -0.224165
vn  0.125141 -0.982517 -0.137843
vn  -0.273095 -0.665716 -0.694436
vn  -0.148832 -0.988862 -0.000843
vn  -0.272145 -0.668961 0.691686
vn  0.125199 -0.983067 0.133810
vn  0.822382 -0.524700 0.219949
vn  0.769112 -0.591448 0.242189
vn  0.880689 -0.395291 0.261020
vn  0.940544 0.208177 0.268401
vn  0.346563 0.692028 0.633239
vn  0.167443 0.730645 0.661907
vn  0.154154 0.988047 -0.000491
vn  0.167137 0.731326 -0.661232

g M1117
usemtl M1117_3
f  1/1/1 2/2/2 3/3/3
f  4/4/4 3/3/3 5/5/5
f  2/2/2 5/5/5 3/3/3
f  5/5/5 2/2/2 6/6/6
f  7/7/7 8/8/8 1/1/1
f  9/9/9 1/1/1 8/8/8
f  1/1/1 9/9/9 2/2/2
f  10/10/10 2/2/2 9/9/9
f  2/2/2 10/10/10 6/6/6
f  11/11/11 6/6/6 10/10/10
f  12/12/12 6/6/6 11/11/11
f  6/6/6 12/12/12 5/5/5
f  13/13/13 5/5/5 12/12/12
f  5/5/5 13/13/13 4/4/4
f  14/14/14 4/4/4 13/13/13
f  8/8/8 15/15/15 9/9/9
f  16/16/16 9/9/9 15/15/15
f  9/9/9 16/16/16 10/10/10
f  17/17/17 10/10/10 16/16/16
f  10/10/10 17/17/17 11/11/11
f  18/18/18 19/19/19 20/20/20
f  21/21/21 20/20/20 19/19/19
f  22/22/22 18/18/18 23/23/23
f  20/20/20 23/23/23 18/18/18
f  23/23/23 20/20/20 24/24/24
f  21/21/21 24/24/24 20/20/20
f  24/24/24 21/21/21 25/25/25
f  26/26/26 25/25/25 21/21/21
f  25/25/25 26/26/26 27/27/27
f  28/28/28 27/27/27 26/26/26
f  27/27/27 28/28/28 29/29/29
f  30/30/30 29/29/29 28/28/28
f  31/31/31 29/29/29 30/30/30
f  29/29/29 31/31/31 32/32/32
f  33/33/33 32/32/32 31/31/31
f  32/32/32 33/33/33 34/34/34
f  35/35/35 34/34/34 33/33/33
f  34/34/34 35/35/35 36/36/36
f  36/36/36 35/35/35 37/37/37
f  38/38/38 37/37/37 35/35/35
f  27/27/27 29/29/29 25/25/25
f  39/39/39 25/25/25 29/29/29
f  25/25/25 39/39/39 24/24/24
f  40/40/40 24/24/24 39/39/39
f  24/24/24 40/40/40 41/41/41
f  42/42/42 41/41/41 40/40/40
f  41/41/41 42/42/42 43/43/43
f  36/36/36 44/44/44 34/34/34
f  45/45/45 34/34/34 44/44/44
f  34/34/34 45/45/45 32/32/32
f  32/32/32 45/45/45 29/29/29
f  29/29/29 45/45/45 39/39/39
f  44/44/44 39/39/39 45/45/45
f  39/39/39 44/44/44 40/40/40
f  42/42/42 40/40/40 44/44/44
f  33/33/33 46/46/46 35/35/35
f  38/38/38 35/35/35 46/46/46
f  31/31/31 47/47/47 33/33/33
f  48/48/48 33/33/33 47/47/47
f  33/33/33 48/48/48 46/46/46
f  49/49/49 46/46/46 48/48/48
f  46/46/46 49/49/49 38/38/38
f  38/38/38 49/49/49 50/50/50
f  51/51/51 50/50/50 49/49/49
f  50/50/50 51/51/51 52/52/52
f  52/52/52 51/51/51 53/53/53
f  54/54/54 53/53/53 51/51/51
f  53/53/53 54/54/54 55/55/55
f  56/56/56 55/55/55 54/54/54
f  55/55/55 56/56/56 57/57/57
f  57/57/57 56/56/56 58/58/58
f  59/59/59 58/58/58 56/56/56
f  60/60/60 58/58/58 59/59/59
f  58/58/58 60/60/60 61/61/61
f  62/62/62 63/63/63 64/64/64
f  65/65/65 64/64/64 63/63/63
f  64/64/64 65/65/65 66/66/66
f  52/52/52 66/66/66 65/65/65
f  66/66/66 52/52/52 67/67/67
f  53/53/53 67/67/67 52/52/52
f  67/67/67 53/53/53 68/68/68
f  55/55/55 68/68/68 53/53/53
f  68/68/68 55/55/55 69/69/69
f  57/57/57 69/69/69 55/55/55
f  69/69/69 57/57/57 70/70/70
f  70/70/70 57/57/57 71/71/71
f  58/58/58 71/71/71 57/57/57
f  71/71/71 58/58/58 72/72/72
f  61/61/61 72/72/72 58/58/58
f  72/72/72 61/61/61 26/26/26
f  73/73/73 26/26/26 61/61/61
f  28/28/28 26/26/26 73/73/73
f  64/64/64 66/66/66 74/74/74
f  67/67/67 74/74/74 66/66/66
f  74/74/74 67/67/67 68/68/68
f  70/70/70 71/71/71 19/19/19
f  75/75/75 19/19/19 71/71/71
f  19/19/19 75/75/75 21/21/21
f  21/21/21 75/75/75 26/26/26
f  26/26/26 75/75/75 72/72/72
f  71/71/71 72/72/72 75/75/75
f  49/49/49 76/76/76 51/51/51
f  54/54/54 51/51/51 76/76/76
f  56/56/56 54/54/54 59/59/59
f  59/59/59 54/54/54 77/77/77
f  76/76/76 77/77/77 54/54/54
f  77/77/77 76/76/76 78/78/78
f  78/78/78 76/76/76 79/79/79
f  49/49/49 79/79/79 76/76/76
f  79/79/79 49/49/49 48/48/48
f  80/80/80 81/81/81 82/82/82
f  83/83/83 82/82/82 81/81/81
f  82/82/82 83/83/83 84/84/84
f  37/37/37 38/38/38 80/80/80
f  50/50/50 80/80/80 38/38/38
f  80/80/80 50/50/50 81/81/81
f  52/52/52 81/81/81 50/50/50
f  81/81/81 52/52/52 83/83/83
f  85/85/85 83/83/83 52/52/52
f  83/83/83 85/85/85 84/84/84
f  86/86/86 84/84/84 85/85/85
f  84/84/84 86/86/86 87/87/87
f  88/88/88 89/89/89 90/90/90
f  91/91/91 90/90/90 89/89/89
f  90/90/90 91/91/91 92/92/92
f  92/92/92 91/91/91 93/93/93
f  93/93/93 91/91/91 94/94/94
f  94/94/94 91/91/91 95/95/95
f  89/89/89 95/95/95 91/91/91
f  96/96/96 92/92/92 97/97/97
f  93/93/93 97/97/97 92/92/92
f  97/97/97 93/93/93 98/98/98
f  98/98/98 93/93/93 99/99/99
f  94/94/94 99/99/99 93/93/93
f  99/99/99 94/94/94 100/100/100
f  100/100/100 94/94/94 101/101/101
f  95/95/95 101/101/101 94/94/94
f  101/101/101 95/95/95 102/102/102
f  89/89/89 102/102/102 95/95/95
f  102/102/102 89/89/89 103/103/103
f  88/88/88 103/103/103 89/89/89
f  103/103/103 88/88/88 104/104/104
f  105/105/105 106/106/106 107/107/107
f  108/108/108 107/107/107 106/106/106
f  109/109/109 107/107/107 108/108/108
f  110/110/110 107/107/107 109/109/109
f  111/111/111 107/107/107 110/110/110
f  112/112/112 107/107/107 111/111/111
f  113/113/113 107/107/107 112/112/112
f  114/114/114 107/107/107 113/113/113
f  115/115/115 107/107/107 114/114/114
f  116/116/116 107/107/107 115/115/115
f  117/117/117 107/107/107 116/116/116
f  107/107/107 117/117/117 105/105/105
f  118/118/118 119/119/119 120/120/120
f  121/121/121 120/120/120 119/119/119
f  122/122/122 120/120/120 121/121/121
f  123/123/123 120/120/120 122/122/122
f  124/124/124 120/120/120 123/123/123
f  125/125/125 120/120/120 124/124/124
f  126/126/126 120/120/120 125/125/125
f  127/127/127 120/120/120 126/126/126
f  128/128/128 120/120/120 127/127/127
f  129/129/129 120/120/120 128/128/128
f  130/130/130 120/120/120 129/129/129
f  131/131/131 120/120/120 130/130/130
f  132/132/132 120/120/120 131/131/131
f  133/133/133 120/120/120 132/132/132
f  134/134/134 120/120/120 133/133/133
f  135/135/135 120/120/120 134/134/134
f  136/136/136 120/120/120 135/135/135
f  120/120/120 136/136/136 118/118/118

g
