# Noesis .obj export.
#
mtllib m1132.mtl
g
v  0.621145 -0.343263 -0.167731
v  0.709364 -0.253375 0.000000
v  0.719766 -0.424553 -0.000000
v  0.621144 -0.343264 0.167731
v  0.816184 -0.009092 0.000001
v  0.959062 0.117293 0.000001
v  0.856068 0.132034 0.171696
v  0.882249 0.217287 0.000001
v  0.856068 0.132035 -0.171694
v  0.750329 0.014937 -0.168961
v  0.728851 -0.120887 0.000000
v  0.682176 -0.100003 -0.202414
v  0.646563 -0.216688 -0.160244
v  0.621145 -0.343263 -0.167731
v  0.455342 -0.228659 -0.224804
v  0.443550 -0.306718 -0.165513
v  0.579803 -0.399722 -0.000000
v  0.621144 -0.343264 0.167731
v  0.769330 0.265574 0.000001
v  0.765258 0.193187 -0.166412
v  0.758361 0.130221 -0.257239
v  0.654347 0.052246 -0.271473
v  0.573287 -0.051021 -0.262839
v  0.473190 -0.136523 -0.275599
v  0.400371 -0.119363 -0.263972
v  0.439084 0.023766 -0.279786
v  0.362815 0.055548 -0.244756
v  0.397323 0.175516 -0.215460
v  0.494292 0.150674 -0.267720
v  0.415083 0.250050 -0.127380
v  0.516028 0.236519 -0.140109
v  0.758360 0.130219 0.257242
v  0.765258 0.193186 0.166415
v  0.616603 0.276028 0.000001
v  0.609275 0.217294 -0.149266
v  0.588192 0.127703 -0.351482
v  0.521809 0.000148 -0.314528
v  0.522615 0.278280 0.000001
v  0.609275 0.217294 0.149268
v  0.588191 0.127702 0.351483
v  0.654347 0.052244 0.271474
v  0.573287 -0.051022 0.262840
v  0.521809 0.000146 0.314529
v  0.473189 -0.136524 0.275600
v  0.439083 0.023765 0.279787
v  0.494291 0.150673 0.267722
v  0.516028 0.236518 0.140111
v  0.750329 0.014936 0.168963
v  0.682176 -0.100004 0.202415
v  0.646563 -0.216689 0.160244
v  0.455342 -0.228660 0.224803
v  0.400371 -0.119364 0.263972
v  0.362814 0.055547 0.244757
v  0.397322 0.175515 0.215462
v  0.415083 0.250049 0.127382
v  0.422845 0.282623 0.000001
v  0.443208 -0.291293 0.165512
v  0.439207 -0.352069 -0.000000
v  0.351045 -0.262805 0.169543
v  0.365010 -0.209159 0.217344
v  0.325874 -0.073774 0.247173
v  0.246763 -0.055496 0.257525
v  0.272194 0.081533 0.243957
v  0.221138 -0.205370 0.152942
v  0.290479 -0.226975 0.153717
v  0.211902 -0.244132 -0.000000
v  0.278438 -0.265812 -0.000000
v  0.290479 -0.226974 -0.153718
v  0.221138 -0.205369 -0.152943
v  0.246763 -0.055495 -0.257525
v  0.325875 -0.073773 -0.247173
v  0.365010 -0.209158 -0.217345
v  0.351045 -0.262804 -0.169544
v  0.345500 -0.322499 -0.000000
v  0.272195 0.081534 -0.243956
v  0.298853 0.199366 -0.206228
v  0.313854 0.273286 -0.125052
v  0.324482 0.305951 0.000001
v  0.313854 0.273285 0.125053
v  0.298852 0.199365 0.206229
v  0.803462 -0.430481 -0.000000
v  0.704841 -0.349191 -0.167731
v  0.719766 -0.424553 -0.000000
v  0.621145 -0.343263 -0.167731
v  0.621145 -0.343263 -0.167731
v  0.704841 -0.349191 -0.167731
v  0.621145 -0.343263 -0.167731
v  0.621144 -0.343264 0.167731
v  0.704840 -0.349192 0.167731
v  0.803462 -0.430481 -0.000000
v  0.704840 -0.349192 0.167731
v  0.621144 -0.343264 0.167731
v  0.621144 -0.343264 0.167731
v  0.617583 0.294591 0.000001
v  0.610835 0.246833 0.149268
v  0.524763 0.318957 0.000001
v  0.517407 0.262628 0.140111
v  0.415083 0.250049 0.127382
v  0.422845 0.282623 0.000001
v  0.415083 0.250049 0.127382
v  0.517407 0.262628 0.140111
v  0.610835 0.246833 0.149268
v  0.674822 0.143499 0.457846
v  0.768668 0.151423 0.307786
v  0.636135 0.168236 0.351483
v  0.760672 0.173986 0.257242
v  0.767513 0.235886 0.166415
v  0.770132 0.280767 0.000001
v  0.858293 0.174181 0.171696
v  0.884118 0.243763 0.000001
v  0.961095 0.168164 0.000001
v  0.937594 0.121531 0.166385
v  1.045271 0.106459 0.039688
v  1.045271 0.106459 0.039688
v  0.937594 0.121531 0.166385
v  0.858293 0.174181 0.171696
v  0.767513 0.235886 0.166415
v  0.760672 0.173986 0.257242
v  0.636135 0.168236 0.351483
v  0.768668 0.151423 0.307786
v  0.674822 0.143499 0.457846
v  0.937595 0.121532 -0.166382
v  1.045271 0.106459 -0.039685
v  0.858294 0.174182 -0.171693
v  0.884118 0.243763 0.000001
v  0.770132 0.280767 0.000001
v  0.767513 0.235887 -0.166412
v  0.617583 0.294591 0.000001
v  0.610835 0.246834 -0.149266
v  0.760672 0.173987 -0.257239
v  0.636136 0.168237 -0.351481
v  0.768669 0.151424 -0.307784
v  0.674823 0.143501 -0.457844
v  1.045271 0.106459 -0.039685
v  0.937595 0.121532 -0.166382
v  0.858294 0.174182 -0.171693
v  0.767513 0.235887 -0.166412
v  0.610835 0.246834 -0.149266
v  0.760672 0.173987 -0.257239
v  0.636136 0.168237 -0.351481
v  0.768669 0.151424 -0.307784
v  0.674823 0.143501 -0.457844
v  0.517407 0.262628 -0.140109
v  0.524763 0.318957 0.000001
v  0.517407 0.262628 -0.140109
v  0.415083 0.250050 -0.127380
v  0.415083 0.250050 -0.127380
v  0.272195 0.081534 -0.243956
v  0.246763 -0.055495 -0.257525
v  0.357459 0.030185 0.000000
v  0.221138 -0.205369 -0.152943
v  0.211902 -0.244132 -0.000000
v  0.221138 -0.205370 0.152942
v  0.246763 -0.055496 0.257525
v  0.272194 0.081533 0.243957
v  0.298852 0.199365 0.206229
v  0.313854 0.273285 0.125053
v  0.324482 0.305951 0.000001
v  0.313854 0.273286 -0.125052
v  0.298853 0.199366 -0.206228

vt  0.527974 -0.170484 0.000000
vt  0.341877 -0.214394 0.000000
vt  0.377732 -0.067008 0.000000
vt  0.527974 -0.170484 0.000000
vt  0.300863 -0.534873 0.000000
vt  0.283720 -0.740064 0.000000
vt  0.450866 -0.681112 0.000000
vt  0.387921 -0.834607 0.000000
vt  0.450866 -0.681112 0.000000
vt  0.465247 -0.530581 0.000000
vt  0.320738 -0.353035 0.000000
vt  0.504069 -0.403501 0.000000
vt  0.501853 -0.292993 0.000000
vt  0.527974 -0.170484 0.000000
vt  0.725127 -0.277865 0.000000
vt  0.712600 -0.158719 0.000000
vt  0.539603 -0.012957 0.000000
vt  0.527974 -0.170484 0.000000
vt  0.523265 -0.885939 0.000000
vt  0.546276 -0.730691 0.000000
vt  0.550075 -0.639021 0.000000
vt  0.600759 -0.528440 0.000000
vt  0.641913 -0.417774 0.000000
vt  0.732871 -0.341317 0.000000
vt  0.826057 -0.340969 0.000000
vt  0.815037 -0.469211 0.000000
vt  0.901414 -0.483362 0.000000
vt  0.890398 -0.620918 0.000000
vt  0.791650 -0.595106 0.000000
vt  0.886192 -0.746706 0.000000
vt  0.797500 -0.754443 0.000000
vt  0.550075 -0.639021 0.000000
vt  0.546276 -0.730691 0.000000
vt  0.701730 -0.895383 0.000000
vt  0.706385 -0.754508 0.000000
vt  0.705600 -0.568066 0.000000
vt  0.730976 -0.453372 0.000000
vt  0.803634 -0.877699 0.000000
vt  0.706385 -0.754508 0.000000
vt  0.705600 -0.568066 0.000000
vt  0.600759 -0.528440 0.000000
vt  0.641913 -0.417774 0.000000
vt  0.730976 -0.453372 0.000000
vt  0.732871 -0.341317 0.000000
vt  0.815037 -0.469211 0.000000
vt  0.791650 -0.595106 0.000000
vt  0.797500 -0.754443 0.000000
vt  0.465247 -0.530581 0.000000
vt  0.504069 -0.403501 0.000000
vt  0.501853 -0.292993 0.000000
vt  0.725127 -0.277865 0.000000
vt  0.826057 -0.340969 0.000000
vt  0.901414 -0.483362 0.000000
vt  0.890398 -0.620918 0.000000
vt  0.886192 -0.746706 0.000000
vt  0.886826 -0.859489 0.000000
vt  0.712600 -0.158719 0.000000
vt  0.704480 -0.006529 0.000000
vt  0.826137 -0.189981 0.000000
vt  0.819354 -0.255621 0.000000
vt  0.903608 -0.345848 0.000000
vt  0.982368 -0.341156 0.000000
vt  0.986310 -0.487202 0.000000
vt  0.979021 -0.212785 0.000000
vt  0.905211 -0.210795 0.000000
vt  0.986928 -0.080796 0.000000
vt  0.918253 -0.067838 0.000000
vt  0.905211 -0.210795 0.000000
vt  0.979021 -0.212785 0.000000
vt  0.982368 -0.341156 0.000000
vt  0.903608 -0.345848 0.000000
vt  0.819354 -0.255621 0.000000
vt  0.826137 -0.189981 0.000000
vt  0.811831 -0.032271 0.000000
vt  0.986310 -0.487202 0.000000
vt  0.981278 -0.623496 0.000000
vt  0.976828 -0.741659 0.000000
vt  0.978231 -0.848159 0.000000
vt  0.976828 -0.741659 0.000000
vt  0.981278 -0.623496 0.000000
vt  0.282847 -0.494586 0.000000
vt  0.139463 -0.354381 0.000000
vt  0.191082 -0.516670 0.000000
vt  0.047699 -0.376465 0.000000
vt  0.047699 -0.376465 0.000000
vt  0.139463 -0.354381 0.000000
vt  0.047699 -0.376465 0.000000
vt  0.047699 -0.376465 0.000000
vt  0.139463 -0.354381 0.000000
vt  0.282847 -0.494586 0.000000
vt  0.139463 -0.354381 0.000000
vt  0.047699 -0.376465 0.000000
vt  0.047699 -0.376465 0.000000
vt  0.012094 -0.846001 0.000000
vt  0.129470 -0.856734 0.000000
vt  0.012040 -0.915851 0.000000
vt  0.116447 -0.927084 0.000000
vt  0.099125 -0.992979 0.000000
vt  0.011769 -0.978978 0.000000
vt  0.099125 -0.992979 0.000000
vt  0.116447 -0.927084 0.000000
vt  0.129470 -0.856734 0.000000
vt  0.364214 -0.840249 0.000000
vt  0.270975 -0.741724 0.000000
vt  0.282412 -0.854129 0.000000
vt  0.228985 -0.741781 0.000000
vt  0.147776 -0.724094 0.000000
vt  0.015111 -0.721444 0.000000
vt  0.157241 -0.628297 0.000000
vt  0.018242 -0.626080 0.000000
vt  0.032442 -0.537482 0.000000
vt  0.157734 -0.550077 0.000000
vt  0.063821 -0.460187 0.000000
vt  0.063821 -0.460187 0.000000
vt  0.157734 -0.550077 0.000000
vt  0.157241 -0.628297 0.000000
vt  0.147776 -0.724094 0.000000
vt  0.228985 -0.741781 0.000000
vt  0.282412 -0.854129 0.000000
vt  0.270975 -0.741724 0.000000
vt  0.364214 -0.840249 0.000000
vt  0.157734 -0.550077 0.000000
vt  0.063821 -0.460187 0.000000
vt  0.157241 -0.628297 0.000000
vt  0.018242 -0.626080 0.000000
vt  0.015111 -0.721444 0.000000
vt  0.147776 -0.724094 0.000000
vt  0.012094 -0.846001 0.000000
vt  0.129470 -0.856734 0.000000
vt  0.228985 -0.741781 0.000000
vt  0.282412 -0.854129 0.000000
vt  0.270975 -0.741724 0.000000
vt  0.364214 -0.840249 0.000000
vt  0.063821 -0.460187 0.000000
vt  0.157734 -0.550077 0.000000
vt  0.157241 -0.628297 0.000000
vt  0.147776 -0.724094 0.000000
vt  0.129470 -0.856734 0.000000
vt  0.228985 -0.741781 0.000000
vt  0.282412 -0.854129 0.000000
vt  0.270975 -0.741724 0.000000
vt  0.364214 -0.840249 0.000000
vt  0.116447 -0.927084 0.000000
vt  0.012040 -0.915851 0.000000
vt  0.116447 -0.927084 0.000000
vt  0.099125 -0.992979 0.000000
vt  0.099125 -0.992979 0.000000
vt  0.181498 -0.172297 0.000000
vt  0.167543 -0.260342 0.000000
vt  0.018521 -0.163089 0.000000
vt  0.110527 -0.319971 0.000000
vt  0.022837 -0.334912 0.000000
vt  0.110527 -0.319971 0.000000
vt  0.167543 -0.260342 0.000000
vt  0.181498 -0.172297 0.000000
vt  0.152130 -0.089866 0.000000
vt  0.092374 -0.037397 0.000000
vt  0.022576 -0.011254 0.000000
vt  0.092374 -0.037397 0.000000
vt  0.152130 -0.089866 0.000000

vn  0.871829 0.052982 -0.486937
vn  0.991992 -0.126304 0.000001
vn  0.689123 -0.724644 -0.000001
vn  0.871828 0.052980 0.486939
vn  0.740069 -0.672531 -0.000001
vn  0.994634 -0.103455 0.000001
vn  0.772673 0.092899 0.627970
vn  0.593967 0.804490 0.000002
vn  0.772675 0.092902 -0.627967
vn  0.704827 -0.493775 -0.509318
vn  0.935074 -0.354452 -0.000000
vn  0.650891 -0.376640 -0.659154
vn  0.662630 -0.294385 -0.688665
vn  0.164174 -0.726432 -0.667341
vn  -0.020311 -0.488793 -0.872164
vn  -0.271610 -0.787369 -0.553424
vn  -0.234353 -0.972077 0.012008
vn  0.137949 -0.733892 0.665111
vn  0.251610 0.967829 0.000003
vn  0.285837 0.835317 -0.469620
vn  0.529483 0.203485 -0.823554
vn  0.480699 -0.411857 -0.774146
vn  0.389458 -0.379591 -0.839186
vn  0.047503 -0.349215 -0.935838
vn  -0.263654 -0.208245 -0.941871
vn  -0.361231 0.103350 -0.926731
vn  -0.140090 0.176790 -0.974228
vn  -0.111681 0.557789 -0.822435
vn  -0.350511 0.562874 -0.748542
vn  0.100010 0.884419 -0.455852
vn  0.083919 0.911852 -0.401849
vn  0.529482 0.203481 0.823556
vn  0.285836 0.835315 0.469625
vn  0.056184 0.998420 0.000002
vn  0.130010 0.909196 -0.395550
vn  0.043685 0.304797 -0.951415
vn  -0.046500 -0.198749 -0.978947
vn  0.070508 0.997511 0.000002
vn  0.130009 0.909194 0.395555
vn  0.043683 0.304793 0.951416
vn  0.480697 -0.411860 0.774146
vn  0.389457 -0.379595 0.839185
vn  -0.046502 -0.198754 0.978946
vn  0.047501 -0.349220 0.935836
vn  -0.361233 0.103346 0.926731
vn  -0.350512 0.562871 0.748544
vn  0.083919 0.911850 0.401854
vn  0.704826 -0.493777 0.509317
vn  0.650890 -0.376643 0.659153
vn  0.662629 -0.294389 0.688664
vn  -0.022787 -0.517093 0.855626
vn  -0.263656 -0.208250 0.941869
vn  -0.140092 0.176786 0.974228
vn  -0.111683 0.557785 0.822437
vn  0.100009 0.884417 0.455856
vn  0.133436 0.991058 0.000002
vn  -0.236743 -0.801027 0.549827
vn  -0.319667 -0.947121 0.027856
vn  -0.385167 -0.739382 0.552233
vn  -0.355084 -0.456760 0.815651
vn  -0.127271 -0.194025 0.972706
vn  -0.727636 -0.033975 0.685122
vn  -0.758877 0.282505 0.586768
vn  -0.838638 -0.381760 0.388517
vn  -0.420890 -0.711835 0.562266
vn  -0.888936 -0.458032 -0.000002
vn  -0.492651 -0.870227 -0.000002
vn  -0.420889 -0.711832 -0.562270
vn  -0.838637 -0.381759 -0.388521
vn  -0.727635 -0.033972 -0.685123
vn  -0.127269 -0.194021 -0.972707
vn  -0.355082 -0.456756 -0.815654
vn  -0.415508 -0.721328 -0.554111
vn  -0.458218 -0.888840 -0.000002
vn  -0.758876 0.282508 -0.586768
vn  -0.680383 0.494568 -0.540816
vn  -0.627445 0.717426 -0.302678
vn  -0.581225 0.813743 0.000001
vn  -0.627445 0.717424 0.302680
vn  -0.680384 0.494565 0.540817
vn  -0.174796 0.981720 -0.075311
vn  0.064624 0.912390 0.404188
vn  0.689123 -0.724644 -0.000001
vn  0.064624 0.912390 0.404188
vn  -0.064624 -0.912390 -0.404188
vn  -0.064624 -0.912390 -0.404188
vn  0.164174 -0.726432 -0.667341
vn  0.064625 0.912392 -0.404184
vn  0.064625 0.912392 -0.404184
vn  -0.134927 -0.984579 0.111354
vn  -0.064625 -0.912392 0.404184
vn  -0.064625 -0.912392 0.404184
vn  0.137949 -0.733892 0.665111
vn  -0.427445 0.903345 -0.035485
vn  -0.101906 -0.926809 -0.361441
vn  0.732590 -0.601892 -0.317863
vn  0.014505 -0.927990 -0.372324
vn  0.225735 -0.924894 -0.305965
vn  0.133436 0.991058 0.000002
vn  -0.225735 0.924894 0.305965
vn  -0.014505 0.927990 0.372324
vn  0.101906 0.926809 0.361441
vn  0.176465 0.970946 0.161630
vn  0.218402 0.926692 0.305847
vn  0.196158 0.948281 0.249569
vn  0.160436 0.897523 0.410746
vn  0.220919 0.900600 0.374318
vn  0.313360 0.948515 0.046103
vn  0.518370 0.796230 0.311945
vn  -0.042713 -0.661384 -0.748830
vn  0.221169 0.450196 0.865106
vn  0.520597 0.800185 0.297797
vn  0.468371 0.831346 0.299154
vn  -0.468371 -0.831346 -0.299154
vn  -0.520597 -0.800185 -0.297797
vn  -0.518370 -0.796230 -0.311945
vn  -0.220919 -0.900600 -0.374318
vn  -0.160436 -0.897523 -0.410746
vn  -0.196158 -0.948281 -0.249569
vn  -0.218402 -0.926692 -0.305847
vn  -0.176465 -0.970946 -0.161630
vn  -0.520597 -0.800187 0.297792
vn  -0.468372 -0.831347 0.299149
vn  -0.518371 -0.796232 0.311940
vn  0.001893 0.673381 0.739294
vn  0.636049 0.005664 -0.771628
vn  -0.220920 -0.900602 0.374313
vn  0.113688 0.621744 -0.774926
vn  -0.101907 -0.926811 0.361436
vn  -0.160437 -0.897525 0.410742
vn  -0.196159 -0.948282 0.249564
vn  -0.218402 -0.926693 0.305843
vn  -0.176466 -0.970947 0.161625
vn  0.468372 0.831347 -0.299149
vn  0.520597 0.800187 -0.297792
vn  0.518371 0.796232 -0.311940
vn  0.220920 0.900602 -0.374313
vn  0.101907 0.926811 -0.361436
vn  0.160437 0.897525 -0.410742
vn  0.196159 0.948282 -0.249564
vn  0.218402 0.926693 -0.305843
vn  0.176466 0.970947 -0.161625
vn  0.014504 -0.927991 0.372319
vn  -0.004836 0.878618 0.477501
vn  -0.014504 0.927991 -0.372319
vn  -0.225734 0.924896 -0.305961
vn  0.225734 -0.924896 0.305961
vn  -0.758876 0.282508 -0.586768
vn  -0.727635 -0.033972 -0.685123
vn  -0.984764 0.173898 -0.000000
vn  -0.838637 -0.381759 -0.388521
vn  -0.888936 -0.458032 -0.000002
vn  -0.838638 -0.381760 0.388517
vn  -0.727636 -0.033975 0.685122
vn  -0.758877 0.282505 0.586768
vn  -0.680384 0.494565 0.540817
vn  -0.627445 0.717424 0.302680
vn  -0.581225 0.813743 0.000001
vn  -0.627445 0.717426 -0.302678
vn  -0.680383 0.494568 -0.540816

g M1132
usemtl M1132_3
f  1/1/1 2/2/2 3/3/3
f  4/4/4 3/3/3 2/2/2
f  5/5/5 6/6/6 7/7/7
f  7/7/7 6/6/6 8/8/8
f  8/8/8 6/6/6 9/9/9
f  5/5/5 9/9/9 6/6/6
f  9/9/9 5/5/5 10/10/10
f  11/11/11 10/10/10 5/5/5
f  10/10/10 11/11/11 12/12/12
f  2/2/2 12/12/12 11/11/11
f  12/12/12 2/2/2 13/13/13
f  14/14/14 13/13/13 2/2/2
f  13/13/13 14/14/14 15/15/15
f  15/15/15 14/14/14 16/16/16
f  16/16/16 14/14/14 17/17/17
f  3/3/3 17/17/17 14/14/14
f  17/17/17 3/3/3 18/18/18
f  7/7/7 8/8/8 19/19/19
f  9/9/9 19/19/19 8/8/8
f  19/19/19 9/9/9 20/20/20
f  20/20/20 9/9/9 21/21/21
f  10/10/10 21/21/21 9/9/9
f  21/21/21 10/10/10 22/22/22
f  12/12/12 22/22/22 10/10/10
f  22/22/22 12/12/12 23/23/23
f  13/13/13 23/23/23 12/12/12
f  23/23/23 13/13/13 24/24/24
f  15/15/15 24/24/24 13/13/13
f  25/25/25 24/24/24 15/15/15
f  24/24/24 25/25/25 26/26/26
f  27/27/27 26/26/26 25/25/25
f  28/28/28 26/26/26 27/27/27
f  26/26/26 28/28/28 29/29/29
f  30/30/30 29/29/29 28/28/28
f  29/29/29 30/30/30 31/31/31
f  32/32/32 7/7/7 33/33/33
f  19/19/19 33/33/33 7/7/7
f  33/33/33 19/19/19 34/34/34
f  20/20/20 34/34/34 19/19/19
f  34/34/34 20/20/20 35/35/35
f  21/21/21 35/35/35 20/20/20
f  35/35/35 21/21/21 36/36/36
f  22/22/22 36/36/36 21/21/21
f  23/23/23 36/36/36 22/22/22
f  36/36/36 23/23/23 37/37/37
f  24/24/24 37/37/37 23/23/23
f  26/26/26 37/37/37 24/24/24
f  29/29/29 37/37/37 26/26/26
f  37/37/37 29/29/29 36/36/36
f  31/31/31 36/36/36 29/29/29
f  36/36/36 31/31/31 35/35/35
f  38/38/38 35/35/35 31/31/31
f  35/35/35 38/38/38 34/34/34
f  38/38/38 39/39/39 34/34/34
f  34/34/34 39/39/39 33/33/33
f  33/33/33 39/39/39 32/32/32
f  40/40/40 32/32/32 39/39/39
f  32/32/32 40/40/40 41/41/41
f  41/41/41 40/40/40 42/42/42
f  43/43/43 42/42/42 40/40/40
f  42/42/42 43/43/43 44/44/44
f  44/44/44 43/43/43 45/45/45
f  45/45/45 43/43/43 46/46/46
f  40/40/40 46/46/46 43/43/43
f  46/46/46 40/40/40 47/47/47
f  39/39/39 47/47/47 40/40/40
f  47/47/47 39/39/39 38/38/38
f  7/7/7 32/32/32 48/48/48
f  41/41/41 48/48/48 32/32/32
f  48/48/48 41/41/41 49/49/49
f  42/42/42 49/49/49 41/41/41
f  49/49/49 42/42/42 50/50/50
f  44/44/44 50/50/50 42/42/42
f  50/50/50 44/44/44 51/51/51
f  51/51/51 44/44/44 52/52/52
f  45/45/45 52/52/52 44/44/44
f  52/52/52 45/45/45 53/53/53
f  53/53/53 45/45/45 54/54/54
f  46/46/46 54/54/54 45/45/45
f  54/54/54 46/46/46 55/55/55
f  47/47/47 55/55/55 46/46/46
f  38/38/38 55/55/55 47/47/47
f  55/55/55 38/38/38 56/56/56
f  56/56/56 38/38/38 30/30/30
f  31/31/31 30/30/30 38/38/38
f  48/48/48 5/5/5 7/7/7
f  5/5/5 48/48/48 11/11/11
f  49/49/49 11/11/11 48/48/48
f  11/11/11 49/49/49 2/2/2
f  50/50/50 2/2/2 49/49/49
f  2/2/2 50/50/50 18/18/18
f  51/51/51 18/18/18 50/50/50
f  57/57/57 18/18/18 51/51/51
f  18/18/18 57/57/57 17/17/17
f  17/17/17 57/57/57 58/58/58
f  58/58/58 57/57/57 59/59/59
f  51/51/51 59/59/59 57/57/57
f  59/59/59 51/51/51 60/60/60
f  52/52/52 60/60/60 51/51/51
f  60/60/60 52/52/52 61/61/61
f  53/53/53 61/61/61 52/52/52
f  61/61/61 53/53/53 62/62/62
f  63/63/63 62/62/62 53/53/53
f  62/62/62 64/64/64 65/65/65
f  66/66/66 65/65/65 64/64/64
f  65/65/65 66/66/66 67/67/67
f  67/67/67 66/66/66 68/68/68
f  69/69/69 68/68/68 66/66/66
f  70/70/70 68/68/68 69/69/69
f  71/71/71 68/68/68 70/70/70
f  72/72/72 68/68/68 71/71/71
f  73/73/73 68/68/68 72/72/72
f  68/68/68 73/73/73 74/74/74
f  58/58/58 74/74/74 73/73/73
f  59/59/59 74/74/74 58/58/58
f  74/74/74 59/59/59 65/65/65
f  60/60/60 65/65/65 59/59/59
f  61/61/61 65/65/65 60/60/60
f  65/65/65 61/61/61 62/62/62
f  17/17/17 58/58/58 16/16/16
f  73/73/73 16/16/16 58/58/58
f  16/16/16 73/73/73 15/15/15
f  72/72/72 15/15/15 73/73/73
f  15/15/15 72/72/72 25/25/25
f  71/71/71 25/25/25 72/72/72
f  25/25/25 71/71/71 27/27/27
f  70/70/70 27/27/27 71/71/71
f  75/75/75 27/27/27 70/70/70
f  76/76/76 27/27/27 75/75/75
f  27/27/27 76/76/76 28/28/28
f  28/28/28 76/76/76 30/30/30
f  77/77/77 30/30/30 76/76/76
f  30/30/30 77/77/77 56/56/56
f  78/78/78 56/56/56 77/77/77
f  79/79/79 56/56/56 78/78/78
f  56/56/56 79/79/79 55/55/55
f  80/80/80 55/55/55 79/79/79
f  55/55/55 80/80/80 54/54/54
f  54/54/54 80/80/80 53/53/53
f  63/63/63 53/53/53 80/80/80
f  81/81/81 82/82/82 83/83/83
f  84/84/84 83/83/83 82/82/82
f  85/85/85 86/86/86 83/83/83
f  81/81/81 83/83/83 86/86/86
f  82/82/82 83/83/83 81/81/81
f  83/83/83 82/82/82 84/84/84
f  81/81/81 83/83/83 86/86/86
f  87/87/87 86/86/86 83/83/83
f  88/88/88 89/89/89 83/83/83
f  90/90/90 83/83/83 89/89/89
f  88/88/88 89/89/89 83/83/83
f  90/90/90 83/83/83 89/89/89
f  91/91/91 83/83/83 90/90/90
f  83/83/83 91/91/91 92/92/92
f  93/93/93 83/83/83 91/91/91
f  90/90/90 91/91/91 83/83/83
f  68/68/68 74/74/74 67/67/67
f  65/65/65 67/67/67 74/74/74
f  94/94/94 95/95/95 96/96/96
f  97/97/97 96/96/96 95/95/95
f  98/98/98 96/96/96 97/97/97
f  99/99/99 96/96/96 98/98/98
f  100/100/100 96/96/96 99/99/99
f  101/101/101 96/96/96 100/100/100
f  102/102/102 96/96/96 101/101/101
f  96/96/96 102/102/102 94/94/94
f  103/103/103 104/104/104 105/105/105
f  106/106/106 105/105/105 104/104/104
f  105/105/105 106/106/106 102/102/102
f  107/107/107 102/102/102 106/106/106
f  102/102/102 107/107/107 94/94/94
f  94/94/94 107/107/107 108/108/108
f  109/109/109 108/108/108 107/107/107
f  108/108/108 109/109/109 110/110/110
f  110/110/110 109/109/109 111/111/111
f  112/112/112 111/111/111 109/109/109
f  111/111/111 112/112/112 113/113/113
f  114/114/114 115/115/115 111/111/111
f  116/116/116 111/111/111 115/115/115
f  111/111/111 116/116/116 110/110/110
f  110/110/110 116/116/116 108/108/108
f  117/117/117 108/108/108 116/116/116
f  108/108/108 117/117/117 94/94/94
f  94/94/94 117/117/117 95/95/95
f  118/118/118 95/95/95 117/117/117
f  95/95/95 118/118/118 119/119/119
f  120/120/120 119/119/119 118/118/118
f  119/119/119 120/120/120 121/121/121
f  111/111/111 122/122/122 123/123/123
f  122/122/122 111/111/111 124/124/124
f  125/125/125 124/124/124 111/111/111
f  126/126/126 124/124/124 125/125/125
f  124/124/124 126/126/126 127/127/127
f  128/128/128 127/127/127 126/126/126
f  129/129/129 127/127/127 128/128/128
f  127/127/127 129/129/129 130/130/130
f  131/131/131 130/130/130 129/129/129
f  130/130/130 131/131/131 132/132/132
f  133/133/133 132/132/132 131/131/131
f  134/134/134 135/135/135 111/111/111
f  136/136/136 111/111/111 135/135/135
f  111/111/111 136/136/136 125/125/125
f  125/125/125 136/136/136 126/126/126
f  137/137/137 126/126/126 136/136/136
f  126/126/126 137/137/137 128/128/128
f  128/128/128 137/137/137 138/138/138
f  139/139/139 138/138/138 137/137/137
f  138/138/138 139/139/139 140/140/140
f  141/141/141 140/140/140 139/139/139
f  140/140/140 141/141/141 142/142/142
f  143/143/143 129/129/129 144/144/144
f  128/128/128 144/144/144 129/129/129
f  138/138/138 144/144/144 128/128/128
f  145/145/145 144/144/144 138/138/138
f  146/146/146 144/144/144 145/145/145
f  99/99/99 144/144/144 146/146/146
f  147/147/147 144/144/144 99/99/99
f  144/144/144 147/147/147 143/143/143
f  148/148/148 149/149/149 150/150/150
f  151/151/151 150/150/150 149/149/149
f  152/152/152 150/150/150 151/151/151
f  153/153/153 150/150/150 152/152/152
f  154/154/154 150/150/150 153/153/153
f  155/155/155 150/150/150 154/154/154
f  156/156/156 150/150/150 155/155/155
f  157/157/157 150/150/150 156/156/156
f  158/158/158 150/150/150 157/157/157
f  159/159/159 150/150/150 158/158/158
f  160/160/160 150/150/150 159/159/159
f  150/150/150 160/160/160 148/148/148

g
