# Noesis .obj export.
#
mtllib m1153.mtl
g
v  0.257955 -0.204798 0.322682
v  0.164040 -0.204793 0.322690
v  0.257955 -0.212052 0.327761
v  0.164040 -0.212047 0.327769
v  0.164040 -0.212047 0.327769
v  0.164040 -0.204793 0.322690
v  0.257955 -0.212052 0.327761
v  0.257955 -0.204798 0.322682
v  0.263104 -0.202003 0.322983
v  0.267766 -0.205306 0.322280
v  0.263104 -0.203420 0.320959
v  0.267766 -0.212480 0.327302
v  0.269676 -0.208893 0.324791
v  0.269676 -0.207476 0.326815
v  0.267766 -0.203889 0.324304
v  0.263104 -0.206657 0.327937
v  0.267766 -0.211062 0.329327
v  0.263105 -0.212948 0.330647
v  0.263105 -0.214366 0.328623
v  0.258443 -0.211062 0.329327
v  0.258443 -0.212480 0.327302
v  0.256533 -0.208871 0.324775
v  0.256533 -0.207453 0.326800
v  0.258443 -0.205306 0.322280
v  0.258443 -0.203889 0.324304
v  0.269676 -0.208893 0.324791
v  0.263104 -0.209678 0.323622
v  0.267766 -0.205306 0.322280
v  0.263104 -0.203420 0.320959
v  0.258443 -0.205306 0.322280
v  0.256533 -0.208871 0.324775
v  0.258443 -0.212480 0.327302
v  0.263105 -0.214366 0.328623
v  0.267766 -0.212480 0.327302
v  0.091622 -0.185470 0.312967
v  0.070440 -0.202234 0.334206
v  0.091631 -0.190624 0.323334
v  0.091631 -0.216408 0.341388
v  0.148595 -0.205842 0.329057
v  0.091622 -0.188335 0.308876
v  0.091620 -0.184304 0.309102
v  0.150659 -0.203584 0.322601
v  0.150660 -0.204314 0.326160
v  0.150660 -0.209069 0.329490
v  0.091622 -0.228306 0.342960
v  0.057249 -0.206698 0.327831
v  0.053070 -0.208131 0.325785
v  0.091620 -0.232337 0.342735
v  0.150659 -0.212662 0.328958
v  0.153828 -0.206699 0.327831
v  0.153814 -0.205774 0.324135
v  0.150660 -0.207178 0.322070
v  0.148595 -0.210422 0.322515
v  0.091631 -0.199840 0.310173
v  0.091631 -0.225623 0.328227
v  0.070440 -0.214027 0.317364
v  0.057249 -0.209563 0.323740
v  0.091622 -0.231171 0.338869
v  0.150660 -0.211933 0.325400
v  0.153829 -0.209564 0.323740
v  0.162222 -0.201220 0.320946
v  0.162222 -0.201639 0.324299
v  0.162222 -0.205359 0.329742
v  0.170043 -0.206693 0.327837
v  0.172655 -0.208130 0.325785
v  0.170043 -0.209568 0.323732
v  0.162222 -0.215028 0.330615
v  0.162223 -0.211734 0.331367
v  0.153814 -0.210473 0.327425
v  0.162223 -0.214608 0.327262
v  0.162222 -0.210901 0.321827
v  0.162222 -0.204514 0.320193
v  0.267670 -0.207789 0.324769
v  0.267670 -0.207030 0.325852
v  0.291298 -0.209162 0.322808
v  0.292640 -0.208587 0.323629
v  0.267670 -0.208482 0.326869
v  0.292640 -0.210039 0.324645
v  0.267670 -0.209241 0.325785
v  0.291298 -0.210614 0.323824
v  0.267670 -0.207789 0.324769
v  0.291298 -0.209162 0.322808
v  0.296138 -0.210842 0.320409
v  0.296138 -0.212293 0.321426
v  0.298732 -0.215756 0.313390
v  0.298732 -0.217208 0.314407
v  0.294929 -0.220979 0.309021
v  0.294929 -0.219528 0.308004
v  0.274702 -0.225364 0.301214
v  0.296197 -0.221551 0.308205
v  0.300323 -0.217212 0.314401
v  0.298132 -0.212023 0.321812
v  0.298132 -0.210572 0.320795
v  0.296138 -0.210842 0.320409
v  0.300323 -0.215761 0.313384
v  0.298732 -0.215756 0.313390
v  0.294929 -0.219528 0.308004
v  0.296197 -0.220099 0.307189

vt  0.013555 -0.020218 0.000000
vt  0.013555 -0.987965 0.000000
vt  0.104802 -0.020218 0.000000
vt  0.104802 -0.987965 0.000000
vt  0.104802 -0.987965 0.000000
vt  0.013555 -0.987965 0.000000
vt  0.104802 -0.020218 0.000000
vt  0.013555 -0.020218 0.000000
vt  0.309766 -0.171277 0.000000
vt  0.324297 -0.065446 0.000000
vt  0.273423 -0.170866 0.000000
vt  0.524288 -0.066382 0.000000
vt  0.424463 -0.022191 0.000000
vt  0.424294 -0.059325 0.000000
vt  0.351643 -0.094135 0.000000
vt  0.422950 -0.171527 0.000000
vt  0.496635 -0.094658 0.000000
vt  0.537756 -0.172306 0.000000
vt  0.573736 -0.172773 0.000000
vt  0.494822 -0.249438 0.000000
vt  0.522121 -0.278163 0.000000
vt  0.421415 -0.321652 0.000000
vt  0.421513 -0.284625 0.000000
vt  0.322231 -0.277227 0.000000
vt  0.350037 -0.249003 0.000000
vt  0.901839 -0.097275 0.000000
vt  0.902450 -0.163378 0.000000
vt  0.945606 -0.116182 0.000000
vt  0.968777 -0.162752 0.000000
vt  0.945602 -0.209600 0.000000
vt  0.901929 -0.228939 0.000000
vt  0.857902 -0.209866 0.000000
vt  0.835078 -0.163515 0.000000
vt  0.858180 -0.116959 0.000000
vt  0.923946 -0.670823 0.000000
vt  0.715966 -0.851183 0.000000
vt  0.855340 -0.670823 0.000000
vt  0.577497 -0.670823 0.000000
vt  0.717434 -0.221625 0.000000
vt  0.923946 -0.670823 0.000000
vt  0.963010 -0.670823 0.000000
vt  0.763298 -0.198423 0.000000
vt  0.746683 -0.198423 0.000000
vt  0.689435 -0.198423 0.000000
vt  0.510083 -0.670823 0.000000
vt  0.715966 -0.950220 0.000000
vt  0.715966 -0.995227 0.000000
vt  0.473654 -0.670823 0.000000
vt  0.666311 -0.198423 0.000000
vt  0.717436 -0.176740 0.000000
vt  0.739246 -0.176740 0.000000
vt  0.746683 -0.198423 0.000000
vt  0.717434 -0.221625 0.000000
vt  0.855340 -0.670823 0.000000
vt  0.577497 -0.670823 0.000000
vt  0.715966 -0.851183 0.000000
vt  0.715966 -0.950220 0.000000
vt  0.510083 -0.670823 0.000000
vt  0.689435 -0.198423 0.000000
vt  0.717436 -0.176740 0.000000
vt  0.787581 -0.099128 0.000000
vt  0.770669 -0.099128 0.000000
vt  0.717434 -0.099128 0.000000
vt  0.717434 -0.029827 0.000000
vt  0.717434 -0.006894 0.000000
vt  0.717434 -0.029827 0.000000
vt  0.644612 -0.099128 0.000000
vt  0.665239 -0.099128 0.000000
vt  0.695884 -0.176740 0.000000
vt  0.665239 -0.099128 0.000000
vt  0.717434 -0.099128 0.000000
vt  0.770669 -0.099128 0.000000
vt  0.230534 -0.020558 0.000000
vt  0.216823 -0.018646 0.000000
vt  0.229024 -0.268396 0.000000
vt  0.214651 -0.277323 0.000000
vt  0.198247 -0.019158 0.000000
vt  0.195532 -0.277523 0.000000
vt  0.184440 -0.022685 0.000000
vt  0.181124 -0.269814 0.000000
vt  0.166056 -0.023628 0.000000
vt  0.162667 -0.270455 0.000000
vt  0.160744 -0.331723 0.000000
vt  0.179052 -0.332116 0.000000
vt  0.155061 -0.427528 0.000000
vt  0.173440 -0.429488 0.000000
vt  0.162591 -0.511556 0.000000
vt  0.144541 -0.508590 0.000000
vt  0.128327 -0.740558 0.000000
vt  0.178028 -0.512551 0.000000
vt  0.189089 -0.429726 0.000000
vt  0.196694 -0.339962 0.000000
vt  0.214026 -0.340619 0.000000
vt  0.231527 -0.333930 0.000000
vt  0.207359 -0.431871 0.000000
vt  0.221967 -0.435242 0.000000
vt  0.209337 -0.521282 0.000000
vt  0.195577 -0.515936 0.000000

vn  0.000100 0.573575 0.819153
vn  0.000100 0.573575 0.819153
vn  0.000100 0.573575 0.819153
vn  0.000100 0.573575 0.819153
vn  -0.000100 -0.573575 -0.819153
vn  -0.000100 -0.573575 -0.819153
vn  -0.000100 -0.573575 -0.819153
vn  -0.000100 -0.573575 -0.819153
vn  0.012786 0.999861 -0.010658
vn  0.596394 0.140618 -0.790278
vn  -0.012889 0.352919 -0.935565
vn  0.557620 -0.801204 -0.217100
vn  0.821267 -0.339099 -0.458837
vn  0.820779 0.339219 0.459622
vn  0.557616 0.801208 0.217096
vn  0.000142 0.574380 0.818589
vn  0.595631 -0.139371 0.791074
vn  -0.012753 -0.351417 0.936132
vn  0.012855 -0.999857 0.011026
vn  -0.558334 -0.069710 0.826682
vn  -0.596813 -0.790293 -0.138753
vn  -0.821277 -0.313741 -0.476519
vn  -0.820769 0.317324 0.475019
vn  -0.556894 0.070340 -0.827600
vn  -0.595203 0.791462 0.139004
vn  0.821267 -0.339099 -0.458837
vn  -0.000143 -0.572761 -0.819722
vn  0.596394 0.140618 -0.790278
vn  -0.012889 0.352919 -0.935565
vn  -0.556894 0.070340 -0.827600
vn  -0.821277 -0.313741 -0.476519
vn  -0.596813 -0.790293 -0.138753
vn  0.012855 -0.999857 0.011026
vn  0.557620 -0.801204 -0.217100
vn  -0.085906 0.936650 0.339570
vn  -0.344785 0.541291 0.766895
vn  -0.003419 0.800190 0.599737
vn  -0.000035 0.301186 0.953565
vn  0.284881 0.549963 0.785101
vn  -0.085908 0.001264 -0.996302
vn  -0.109108 0.814262 -0.570151
vn  0.480412 0.718433 -0.503050
vn  0.342925 0.835176 0.429981
vn  0.353330 0.114568 0.928457
vn  -0.086283 0.004719 0.996259
vn  -0.511671 0.495840 0.701667
vn  -0.999996 0.002281 -0.001598
vn  -0.109444 -0.814231 0.570131
vn  0.490159 -0.713999 0.499950
vn  -0.041553 0.573558 0.818110
vn  0.112760 0.813929 -0.569917
vn  0.342924 -0.118399 -0.931872
vn  0.284879 -0.549653 -0.785319
vn  -0.003421 -0.289885 -0.957055
vn  -0.000037 -0.793045 -0.609163
vn  -0.344787 -0.535510 -0.770941
vn  -0.511670 -0.489762 -0.705923
vn  -0.086286 -0.934564 -0.345175
vn  0.353331 -0.833280 -0.425208
vn  -0.041558 -0.572600 -0.818781
vn  0.020307 0.818983 -0.573458
vn  0.013286 0.958220 0.285723
vn  0.008379 0.573274 0.819321
vn  0.584275 0.465107 0.665055
vn  1.000000 -0.000289 0.000205
vn  0.584277 -0.465869 -0.664520
vn  0.034974 -0.818651 0.573225
vn  0.027689 -0.053107 0.998205
vn  0.060674 -0.817643 0.572520
vn  0.027687 -0.956169 -0.291504
vn  0.008376 -0.573836 -0.818927
vn  0.013283 0.059240 -0.998155
vn  -0.069028 0.206217 -0.976069
vn  0.079092 0.975528 0.205160
vn  -0.205952 0.269078 -0.940840
vn  0.247200 0.947496 0.202840
vn  0.079098 -0.140865 0.986864
vn  0.247207 -0.133456 0.959728
vn  -0.069021 -0.987735 -0.140057
vn  -0.205945 -0.976132 -0.068937
vn  -0.069028 0.206217 -0.976069
vn  -0.205952 0.269078 -0.940840
vn  -0.476682 0.440761 -0.760594
vn  -0.476674 -0.865479 0.154043
vn  -0.584593 0.701091 -0.408315
vn  -0.584586 -0.623484 0.519160
vn  -0.425866 -0.392734 0.815106
vn  -0.425873 0.900269 -0.090262
vn  -0.927173 -0.214899 -0.306869
vn  0.496062 -0.860687 -0.114631
vn  0.766476 -0.577470 0.281147
vn  0.629681 -0.257700 0.732866
vn  0.629675 0.776812 0.008494
vn  -0.476682 0.440761 -0.760594
vn  0.766470 0.461705 -0.446489
vn  -0.584593 0.701091 -0.408315
vn  -0.425873 0.900269 -0.090262
vn  0.496056 0.186660 -0.847990

g M1246
usemtl M1246_3
f  1/1/1 2/2/2 3/3/3
f  4/4/4 3/3/3 2/2/2
f  5/5/5 6/6/6 7/7/7
f  8/8/8 7/7/7 6/6/6
f  9/9/9 10/10/10 11/11/11
f  12/12/12 13/13/13 14/14/14
f  10/10/10 14/14/14 13/13/13
f  14/14/14 10/10/10 15/15/15
f  9/9/9 15/15/15 10/10/10
f  15/15/15 9/9/9 14/14/14
f  16/16/16 14/14/14 9/9/9
f  17/17/17 14/14/14 16/16/16
f  14/14/14 17/17/17 12/12/12
f  18/18/18 12/12/12 17/17/17
f  12/12/12 18/18/18 19/19/19
f  20/20/20 19/19/19 18/18/18
f  19/19/19 20/20/20 21/21/21
f  21/21/21 20/20/20 22/22/22
f  23/23/23 22/22/22 20/20/20
f  22/22/22 23/23/23 24/24/24
f  25/25/25 24/24/24 23/23/23
f  24/24/24 25/25/25 11/11/11
f  9/9/9 11/11/11 25/25/25
f  17/17/17 16/16/16 18/18/18
f  23/23/23 18/18/18 16/16/16
f  18/18/18 23/23/23 20/20/20
f  23/23/23 16/16/16 25/25/25
f  9/9/9 25/25/25 16/16/16
f  26/26/26 27/27/27 28/28/28
f  29/29/29 28/28/28 27/27/27
f  30/30/30 29/29/29 31/31/31
f  27/27/27 31/31/31 29/29/29
f  31/31/31 27/27/27 32/32/32
f  32/32/32 27/27/27 33/33/33
f  26/26/26 33/33/33 27/27/27
f  33/33/33 26/26/26 34/34/34
f  35/35/35 36/36/36 37/37/37
f  38/38/38 37/37/37 36/36/36
f  39/39/39 37/37/37 38/38/38
f  37/37/37 39/39/39 35/35/35
f  40/40/40 41/41/41 42/42/42
f  35/35/35 42/42/42 41/41/41
f  42/42/42 35/35/35 43/43/43
f  39/39/39 43/43/43 35/35/35
f  43/43/43 39/39/39 44/44/44
f  44/44/44 39/39/39 45/45/45
f  38/38/38 45/45/45 39/39/39
f  36/36/36 45/45/45 38/38/38
f  45/45/45 36/36/36 46/46/46
f  35/35/35 46/46/46 36/36/36
f  46/46/46 35/35/35 41/41/41
f  41/41/41 47/47/47 46/46/46
f  48/48/48 46/46/46 47/47/47
f  46/46/46 48/48/48 45/45/45
f  49/49/49 45/45/45 48/48/48
f  45/45/45 49/49/49 44/44/44
f  50/50/50 44/44/44 49/49/49
f  44/44/44 50/50/50 43/43/43
f  51/51/51 43/43/43 50/50/50
f  43/43/43 51/51/51 42/42/42
f  52/52/52 42/42/42 51/51/51
f  42/42/42 52/52/52 40/40/40
f  53/53/53 40/40/40 52/52/52
f  40/40/40 53/53/53 54/54/54
f  55/55/55 54/54/54 53/53/53
f  56/56/56 54/54/54 55/55/55
f  54/54/54 56/56/56 40/40/40
f  57/57/57 40/40/40 56/56/56
f  40/40/40 57/57/57 41/41/41
f  41/41/41 57/57/57 47/47/47
f  47/47/47 57/57/57 48/48/48
f  48/48/48 57/57/57 58/58/58
f  56/56/56 58/58/58 57/57/57
f  55/55/55 58/58/58 56/56/56
f  53/53/53 58/58/58 55/55/55
f  58/58/58 53/53/53 59/59/59
f  52/52/52 59/59/59 53/53/53
f  59/59/59 52/52/52 60/60/60
f  51/51/51 60/60/60 52/52/52
f  60/60/60 51/51/51 61/61/61
f  50/50/50 61/61/61 51/51/51
f  61/61/61 50/50/50 62/62/62
f  63/63/63 62/62/62 50/50/50
f  64/64/64 62/62/62 63/63/63
f  62/62/62 64/64/64 61/61/61
f  65/65/65 61/61/61 64/64/64
f  61/61/61 65/65/65 66/66/66
f  66/66/66 65/65/65 67/67/67
f  64/64/64 67/67/67 65/65/65
f  67/67/67 64/64/64 68/68/68
f  63/63/63 68/68/68 64/64/64
f  50/50/50 68/68/68 63/63/63
f  68/68/68 50/50/50 69/69/69
f  49/49/49 69/69/69 50/50/50
f  69/69/69 49/49/49 60/60/60
f  60/60/60 49/49/49 59/59/59
f  59/59/59 49/49/49 58/58/58
f  48/48/48 58/58/58 49/49/49
f  68/68/68 69/69/69 67/67/67
f  70/70/70 67/67/67 69/69/69
f  67/67/67 70/70/70 66/66/66
f  71/71/71 66/66/66 70/70/70
f  72/72/72 66/66/66 71/71/71
f  66/66/66 72/72/72 61/61/61
f  61/61/61 72/72/72 60/60/60
f  71/71/71 60/60/60 72/72/72
f  70/70/70 60/60/60 71/71/71
f  60/60/60 70/70/70 69/69/69
f  73/73/73 74/74/74 75/75/75
f  75/75/75 74/74/74 76/76/76
f  77/77/77 76/76/76 74/74/74
f  76/76/76 77/77/77 78/78/78
f  79/79/79 78/78/78 77/77/77
f  78/78/78 79/79/79 80/80/80
f  81/81/81 80/80/80 79/79/79
f  82/82/82 80/80/80 81/81/81
f  83/83/83 80/80/80 82/82/82
f  80/80/80 83/83/83 84/84/84
f  85/85/85 84/84/84 83/83/83
f  84/84/84 85/85/85 86/86/86
f  86/86/86 85/85/85 87/87/87
f  88/88/88 87/87/87 85/85/85
f  89/89/89 87/87/87 88/88/88
f  90/90/90 87/87/87 89/89/89
f  87/87/87 90/90/90 86/86/86
f  91/91/91 86/86/86 90/90/90
f  86/86/86 91/91/91 84/84/84
f  92/92/92 84/84/84 91/91/91
f  84/84/84 92/92/92 80/80/80
f  80/80/80 92/92/92 78/78/78
f  78/78/78 92/92/92 76/76/76
f  93/93/93 76/76/76 92/92/92
f  76/76/76 93/93/93 75/75/75
f  75/75/75 93/93/93 94/94/94
f  95/95/95 94/94/94 93/93/93
f  94/94/94 95/95/95 96/96/96
f  96/96/96 95/95/95 97/97/97
f  98/98/98 97/97/97 95/95/95
f  97/97/97 98/98/98 89/89/89
f  89/89/89 98/98/98 90/90/90
f  90/90/90 98/98/98 91/91/91
f  95/95/95 91/91/91 98/98/98
f  93/93/93 91/91/91 95/95/95
f  91/91/91 93/93/93 92/92/92

g
v  0.192326 -0.131125 0.270376
v  0.004171 -0.131125 0.270376
v  0.192326 -0.285252 0.378296
v  0.004171 -0.285253 0.378297

vt  0.000000 -0.000000 0.000000
vt  0.000000 -1.000000 0.000000
vt  1.000000 -0.000000 0.000000
vt  1.000000 -1.000000 0.000000

vn  -0.000000 0.573575 0.819153
vn  -0.000000 0.573575 0.819153
vn  -0.000000 0.573575 0.819153
vn  -0.000000 0.573575 0.819153

g Plane
usemtl 2_12
f  99/99/99 100/100/100 101/101/101
f  102/102/102 101/101/101 100/100/100

g
