# Noesis .obj export.
#
mtllib m1225.mtl
g
v  0.624556 0.182477 -0.148531
v  0.622660 0.166743 -0.142929
v  0.587823 0.197983 -0.156666
v  0.680118 0.177098 -0.173820
v  0.656322 0.175592 -0.136520
v  0.653844 0.166492 -0.145293
v  0.623906 0.163314 -0.125027
v  0.583427 0.169657 -0.143171
v  0.560491 0.220861 -0.179210
v  0.560673 0.246298 -0.159889
v  0.590424 0.216751 -0.140818
v  0.622978 0.192310 -0.140056
v  0.645856 0.179873 -0.154837
v  0.651325 0.185090 -0.152779
v  0.647657 0.169150 -0.151473
v  0.587880 0.196936 -0.097350
v  0.584464 0.164258 -0.118391
v  0.545122 0.181730 -0.155657
v  0.518043 0.195779 -0.171714
v  0.520462 0.236089 -0.202713
v  0.514467 0.266427 -0.173724
v  0.459233 0.265582 -0.174801
v  0.472457 0.233994 -0.205578
v  0.489777 0.190140 -0.174108
v  0.516939 0.184523 -0.133513
v  0.496595 0.182617 -0.132862
v  0.487210 0.220676 -0.106067
v  0.515312 0.225652 -0.104614
v  0.547620 0.211263 -0.098936
v  0.544560 0.172461 -0.122122
v  0.468553 0.204596 -0.098387
v  0.484671 0.171272 -0.127225
v  0.464996 0.170631 -0.169113
v  0.428679 0.211146 -0.193505
v  0.400964 0.235611 -0.156408
v  0.366503 0.193721 -0.131259
v  0.403129 0.167637 -0.169066
v  0.342564 0.137519 -0.091855
v  0.387487 0.127076 -0.143607
v  0.385095 0.085639 -0.118380
v  0.445142 0.110664 -0.133986
v  0.447737 0.070988 -0.106985
v  0.470617 0.128261 -0.098497
v  0.476890 0.099058 -0.076520
v  0.441770 0.141427 -0.050148
v  0.455632 0.178084 -0.081904
v  0.473603 0.151560 -0.115591
v  0.449895 0.148520 -0.158258
v  0.391353 0.160807 -0.045094
v  0.407637 0.203926 -0.080646
v  0.434563 0.240873 -0.106367
v  0.469797 0.261636 -0.121920
v  0.517391 0.263679 -0.125256
v  0.553600 0.241965 -0.115104
v  0.589296 0.219916 -0.113928
v  0.628756 0.182195 -0.113211
v  0.629111 0.195854 -0.121145
v  0.656162 0.185319 -0.142485
v  0.342564 0.137519 -0.091855
v  0.366503 0.193721 -0.131259
v  0.400964 0.235611 -0.156408
v  0.459233 0.265582 -0.174801
v  0.514467 0.266427 -0.173724
v  0.560673 0.246298 -0.159889
v  0.590424 0.216751 -0.140818
v  0.622978 0.192310 -0.140056
v  0.651325 0.185090 -0.152779
v  0.622978 0.192310 0.140056
v  0.651325 0.185090 0.152780
v  0.629111 0.195854 0.121146
v  0.656162 0.185318 0.142486
v  0.628756 0.182195 0.113212
v  0.656322 0.175592 0.136521
v  0.680118 0.177098 0.173820
v  0.514467 0.266427 0.173725
v  0.560673 0.246298 0.159889
v  0.517391 0.263679 0.125257
v  0.553600 0.241964 0.115105
v  0.515312 0.225652 0.104615
v  0.547620 0.211262 0.098937
v  0.589296 0.219915 0.113928
v  0.587880 0.196936 0.097351
v  0.590424 0.216751 0.140819
v  0.653844 0.166492 0.145293
v  0.623906 0.163314 0.125028
v  0.584463 0.164258 0.118392
v  0.544560 0.172461 0.122123
v  0.516939 0.184523 0.133514
v  0.487210 0.220676 0.106068
v  0.469796 0.261635 0.121921
v  0.459233 0.265581 0.174801
v  0.400964 0.235610 0.156409
v  0.434563 0.240873 0.106368
v  0.468553 0.204596 0.098387
v  0.496595 0.182616 0.132862
v  0.489777 0.190140 0.174109
v  0.518043 0.195779 0.171715
v  0.545122 0.181730 0.155658
v  0.583427 0.169656 0.143171
v  0.622660 0.166743 0.142929
v  0.647657 0.169150 0.151473
v  0.459233 0.265581 0.174801
v  0.520462 0.236089 0.202713
v  0.514467 0.266427 0.173725
v  0.560673 0.246298 0.159889
v  0.560491 0.220861 0.179210
v  0.587823 0.197982 0.156667
v  0.590424 0.216751 0.140819
v  0.624556 0.182477 0.148531
v  0.622978 0.192310 0.140056
v  0.645855 0.179872 0.154838
v  0.651325 0.185090 0.152780
v  0.472457 0.233994 0.205578
v  0.428679 0.211145 0.193506
v  0.464996 0.170630 0.169113
v  0.403129 0.167637 0.169067
v  0.449895 0.148519 0.158259
v  0.387487 0.127075 0.143608
v  0.445142 0.110664 0.133986
v  0.473603 0.151560 0.115592
v  0.470617 0.128261 0.098497
v  0.455632 0.178084 0.081905
v  0.407637 0.203926 0.080647
v  0.366502 0.193720 0.131259
v  0.400964 0.235610 0.156409
v  0.366502 0.193720 0.131259
v  0.342564 0.137519 0.091855
v  0.385095 0.085639 0.118381
v  0.447737 0.070988 0.106985
v  0.476890 0.099058 0.076520
v  0.441770 0.141427 0.050148
v  0.391353 0.160807 0.045095
v  0.342564 0.137519 0.091855
v  0.484671 0.171271 0.127226

vt  0.212335 -0.115510 0.000000
vt  0.196782 -0.147289 0.000000
vt  0.308997 -0.145638 0.000000
vt  0.089807 -0.050895 0.000000
vt  0.116598 -0.136846 0.000000
vt  0.135204 -0.120464 0.000000
vt  0.173779 -0.177140 0.000000
vt  0.269486 -0.192258 0.000000
vt  0.414360 -0.157218 0.000000
vt  0.450287 -0.062325 0.000000
vt  0.322990 -0.078920 0.000000
vt  0.231512 -0.084950 0.000000
vt  0.166304 -0.091008 0.000000
vt  0.169309 -0.066654 0.000000
vt  0.153800 -0.109610 0.000000
vt  0.174676 -0.281538 0.000000
vt  0.224899 -0.232498 0.000000
vt  0.356973 -0.234441 0.000000
vt  0.432674 -0.269946 0.000000
vt  0.537022 -0.176046 0.000000
vt  0.561234 -0.050662 0.000000
vt  0.708851 -0.075384 0.000000
vt  0.616465 -0.207439 0.000000
vt  0.493679 -0.313877 0.000000
vt  0.334183 -0.362226 0.000000
vt  0.373755 -0.409359 0.000000
vt  0.245396 -0.504255 0.000000
vt  0.220975 -0.437704 0.000000
vt  0.207703 -0.357071 0.000000
vt  0.282832 -0.300805 0.000000
vt  0.287875 -0.554299 0.000000
vt  0.414650 -0.445275 0.000000
vt  0.549701 -0.364796 0.000000
vt  0.693255 -0.258573 0.000000
vt  0.817276 -0.141154 0.000000
vt  0.907351 -0.241166 0.000000
vt  0.745778 -0.348881 0.000000
vt  0.982636 -0.356352 0.000000
vt  0.790447 -0.431476 0.000000
vt  0.811075 -0.506405 0.000000
vt  0.622588 -0.510267 0.000000
vt  0.631599 -0.590805 0.000000
vt  0.487470 -0.536682 0.000000
vt  0.508730 -0.585747 0.000000
vt  0.397145 -0.662322 0.000000
vt  0.343713 -0.607930 0.000000
vt  0.455796 -0.490621 0.000000
vt  0.588683 -0.409901 0.000000
vt  0.331292 -0.801796 0.000000
vt  0.250764 -0.740991 0.000000
vt  0.178895 -0.681129 0.000000
vt  0.134152 -0.611681 0.000000
vt  0.120852 -0.521507 0.000000
vt  0.127320 -0.410895 0.000000
vt  0.130184 -0.305885 0.000000
vt  0.141220 -0.200976 0.000000
vt  0.113371 -0.209474 0.000000
vt  0.094056 -0.137015 0.000000
vt  0.230883 -0.962549 0.000000
vt  0.130736 -0.877741 0.000000
vt  0.060914 -0.774076 0.000000
vt  0.020195 -0.666956 0.000000
vt  0.019755 -0.531836 0.000000
vt  0.023784 -0.434564 0.000000
vt  0.063935 -0.311405 0.000000
vt  0.070705 -0.207926 0.000000
vt  0.070353 -0.133132 0.000000
vt  0.070705 -0.207926 0.000000
vt  0.070353 -0.133132 0.000000
vt  0.113371 -0.209474 0.000000
vt  0.094056 -0.137015 0.000000
vt  0.141220 -0.200976 0.000000
vt  0.116598 -0.136846 0.000000
vt  0.089807 -0.050895 0.000000
vt  0.019755 -0.531836 0.000000
vt  0.023784 -0.434564 0.000000
vt  0.120852 -0.521507 0.000000
vt  0.127320 -0.410895 0.000000
vt  0.220975 -0.437704 0.000000
vt  0.207703 -0.357071 0.000000
vt  0.130184 -0.305885 0.000000
vt  0.174676 -0.281538 0.000000
vt  0.063935 -0.311405 0.000000
vt  0.135204 -0.120464 0.000000
vt  0.173779 -0.177140 0.000000
vt  0.224899 -0.232498 0.000000
vt  0.282832 -0.300805 0.000000
vt  0.334183 -0.362226 0.000000
vt  0.245396 -0.504255 0.000000
vt  0.134152 -0.611681 0.000000
vt  0.020195 -0.666956 0.000000
vt  0.060914 -0.774076 0.000000
vt  0.178895 -0.681129 0.000000
vt  0.287875 -0.554299 0.000000
vt  0.373755 -0.409359 0.000000
vt  0.493679 -0.313877 0.000000
vt  0.432674 -0.269946 0.000000
vt  0.356973 -0.234441 0.000000
vt  0.269486 -0.192258 0.000000
vt  0.196782 -0.147289 0.000000
vt  0.153800 -0.109610 0.000000
vt  0.708851 -0.075384 0.000000
vt  0.537022 -0.176046 0.000000
vt  0.561234 -0.050662 0.000000
vt  0.450287 -0.062325 0.000000
vt  0.414360 -0.157218 0.000000
vt  0.308997 -0.145638 0.000000
vt  0.322990 -0.078920 0.000000
vt  0.212335 -0.115510 0.000000
vt  0.231512 -0.084950 0.000000
vt  0.166304 -0.091008 0.000000
vt  0.169309 -0.066654 0.000000
vt  0.616465 -0.207439 0.000000
vt  0.693255 -0.258573 0.000000
vt  0.549701 -0.364796 0.000000
vt  0.745778 -0.348881 0.000000
vt  0.588683 -0.409901 0.000000
vt  0.790447 -0.431476 0.000000
vt  0.622588 -0.510267 0.000000
vt  0.455796 -0.490621 0.000000
vt  0.487470 -0.536682 0.000000
vt  0.343713 -0.607930 0.000000
vt  0.250764 -0.740991 0.000000
vt  0.130736 -0.877741 0.000000
vt  0.817276 -0.141154 0.000000
vt  0.907351 -0.241166 0.000000
vt  0.982636 -0.356352 0.000000
vt  0.811075 -0.506405 0.000000
vt  0.631599 -0.590805 0.000000
vt  0.508730 -0.585747 0.000000
vt  0.397145 -0.662322 0.000000
vt  0.331292 -0.801796 0.000000
vt  0.230883 -0.962549 0.000000
vt  0.414650 -0.445275 0.000000

vn  -0.012440 0.151507 -0.988378
vn  -0.087125 -0.793446 -0.602373
vn  0.444324 -0.000364 -0.895866
vn  0.728054 0.002973 -0.685513
vn  0.724584 -0.171397 0.667534
vn  0.350908 -0.929552 0.113119
vn  0.163511 -0.904976 0.392789
vn  -0.062557 -0.826192 -0.559905
vn  0.546169 -0.027599 -0.837220
vn  0.617317 0.734837 -0.280953
vn  0.678776 0.652867 -0.336196
vn  0.321565 0.819965 -0.473555
vn  -0.362476 0.142979 -0.920960
vn  -0.034051 0.880576 -0.472680
vn  -0.213356 -0.720335 -0.659997
vn  0.161474 0.002891 0.986873
vn  -0.093686 -0.908726 0.406743
vn  -0.090156 -0.820428 -0.564597
vn  0.114920 -0.766633 -0.631717
vn  0.271785 0.102610 -0.956872
vn  0.202068 0.913149 -0.354016
vn  -0.287472 0.886884 -0.361658
vn  -0.096516 0.111594 -0.989056
vn  0.266441 -0.717927 -0.643110
vn  -0.181735 -0.934642 0.305642
vn  0.453043 -0.824409 0.339268
vn  0.167319 0.025163 0.985582
vn  -0.100160 0.042234 0.994075
vn  -0.117803 -0.026747 0.992677
vn  -0.355096 -0.859138 0.368495
vn  0.484793 0.125450 0.865586
vn  0.822821 -0.532932 0.197355
vn  0.363109 -0.624073 -0.691871
vn  -0.363264 -0.027421 -0.931283
vn  -0.701439 0.665468 -0.255215
vn  -0.899652 0.392459 -0.191318
vn  -0.422032 -0.295883 -0.856937
vn  -0.958082 0.211341 -0.193429
vn  -0.454893 -0.381568 -0.804661
vn  -0.317238 -0.491152 -0.811252
vn  0.452369 -0.500181 -0.738364
vn  0.517157 -0.443181 -0.732215
vn  0.998695 -0.036156 -0.036074
vn  0.979739 0.068941 -0.188041
vn  0.626159 0.416545 0.659102
vn  0.636503 0.279203 0.718964
vn  0.959586 -0.279557 0.032287
vn  0.368371 -0.571753 -0.733077
vn  -0.245346 0.666761 0.703729
vn  -0.255830 0.674079 0.692942
vn  -0.227462 0.733611 0.640372
vn  -0.117380 0.830686 0.544227
vn  0.151675 0.858605 0.489685
vn  0.333529 0.722474 0.605632
vn  0.500649 0.731542 0.462813
vn  0.466262 -0.094841 0.879548
vn  0.540243 0.757941 0.365599
vn  0.585051 0.756463 0.292367
vn  -0.958082 0.211341 -0.193429
vn  -0.899652 0.392459 -0.191318
vn  -0.701439 0.665468 -0.255215
vn  -0.287472 0.886884 -0.361658
vn  0.202068 0.913149 -0.354016
vn  0.617317 0.734837 -0.280953
vn  0.678776 0.652867 -0.336196
vn  0.321565 0.819965 -0.473555
vn  -0.034051 0.880576 -0.472680
vn  0.321564 0.819964 0.473557
vn  -0.034051 0.880575 0.472683
vn  0.540243 0.757943 -0.365596
vn  0.585052 0.756464 -0.292366
vn  0.466262 -0.094840 -0.879548
vn  0.724584 -0.171395 -0.667534
vn  0.728054 0.002972 0.685513
vn  0.202067 0.913148 0.354019
vn  0.617317 0.734836 0.280956
vn  0.151675 0.858606 -0.489683
vn  0.333529 0.722475 -0.605630
vn  -0.100159 0.042236 -0.994075
vn  -0.117802 -0.026744 -0.992677
vn  0.500650 0.731544 -0.462811
vn  0.161474 0.002894 -0.986873
vn  0.678776 0.652866 0.336198
vn  0.350909 -0.929552 -0.113122
vn  0.163511 -0.904975 -0.392791
vn  -0.093685 -0.908725 -0.406745
vn  -0.355096 -0.859137 -0.368498
vn  -0.181735 -0.934641 -0.305645
vn  0.167319 0.025166 -0.985582
vn  -0.117380 0.830688 -0.544225
vn  -0.287472 0.886883 0.361660
vn  -0.701440 0.665467 0.255217
vn  -0.227462 0.733613 -0.640370
vn  0.484793 0.125452 -0.865585
vn  0.453043 -0.824408 -0.339269
vn  0.266440 -0.717929 0.643108
vn  0.114920 -0.766635 0.631716
vn  -0.090156 -0.820429 0.564596
vn  -0.062557 -0.826193 0.559903
vn  -0.087126 -0.793447 0.602371
vn  -0.213356 -0.720337 0.659995
vn  -0.287472 0.886883 0.361660
vn  0.271785 0.102607 0.956872
vn  0.202067 0.913148 0.354019
vn  0.617317 0.734836 0.280956
vn  0.546169 -0.027601 0.837220
vn  0.444323 -0.000366 0.895867
vn  0.678776 0.652866 0.336198
vn  -0.012440 0.151504 0.988378
vn  0.321564 0.819964 0.473557
vn  -0.362476 0.142977 0.920961
vn  -0.034051 0.880575 0.472683
vn  -0.096516 0.111591 0.989056
vn  -0.363264 -0.027423 0.931282
vn  0.363109 -0.624074 0.691869
vn  -0.422033 -0.295885 0.856937
vn  0.368371 -0.571754 0.733076
vn  -0.454893 -0.381570 0.804660
vn  0.452368 -0.500183 0.738363
vn  0.959586 -0.279557 -0.032287
vn  0.998695 -0.036157 0.036075
vn  0.636504 0.279205 -0.718963
vn  -0.255829 0.674080 -0.692941
vn  -0.899652 0.392458 0.191319
vn  -0.701440 0.665467 0.255217
vn  -0.899652 0.392458 0.191319
vn  -0.958082 0.211340 0.193430
vn  -0.317238 -0.491154 0.811250
vn  0.517157 -0.443183 0.732214
vn  0.979739 0.068940 0.188042
vn  0.626159 0.416547 -0.659101
vn  -0.245346 0.666763 -0.703728
vn  -0.958082 0.211340 0.193430
vn  0.822821 -0.532932 -0.197356

g M1225
usemtl M1225_3
f  1/1/1 2/2/2 3/3/3
f  4/4/4 5/5/5 6/6/6
f  7/7/7 6/6/6 5/5/5
f  6/6/6 7/7/7 2/2/2
f  8/8/8 2/2/2 7/7/7
f  2/2/2 8/8/8 3/3/3
f  9/9/9 3/3/3 8/8/8
f  10/10/10 3/3/3 9/9/9
f  11/11/11 3/3/3 10/10/10
f  3/3/3 11/11/11 1/1/1
f  12/12/12 1/1/1 11/11/11
f  1/1/1 12/12/12 13/13/13
f  14/14/14 13/13/13 12/12/12
f  4/4/4 13/13/13 14/14/14
f  13/13/13 4/4/4 15/15/15
f  6/6/6 15/15/15 4/4/4
f  2/2/2 15/15/15 6/6/6
f  1/1/1 15/15/15 2/2/2
f  15/15/15 1/1/1 13/13/13
f  16/16/16 17/17/17 7/7/7
f  7/7/7 17/17/17 8/8/8
f  18/18/18 8/8/8 17/17/17
f  8/8/8 18/18/18 9/9/9
f  19/19/19 9/9/9 18/18/18
f  20/20/20 9/9/9 19/19/19
f  9/9/9 20/20/20 10/10/10
f  10/10/10 20/20/20 21/21/21
f  21/21/21 20/20/20 22/22/22
f  22/22/22 20/20/20 23/23/23
f  19/19/19 23/23/23 20/20/20
f  23/23/23 19/19/19 24/24/24
f  25/25/25 24/24/24 19/19/19
f  24/24/24 25/25/25 26/26/26
f  26/26/26 25/25/25 27/27/27
f  27/27/27 25/25/25 28/28/28
f  28/28/28 25/25/25 29/29/29
f  30/30/30 29/29/29 25/25/25
f  29/29/29 30/30/30 16/16/16
f  16/16/16 30/30/30 17/17/17
f  17/17/17 30/30/30 18/18/18
f  18/18/18 30/30/30 19/19/19
f  25/25/25 19/19/19 30/30/30
f  27/27/27 31/31/31 26/26/26
f  32/32/32 26/26/26 31/31/31
f  26/26/26 32/32/32 24/24/24
f  33/33/33 24/24/24 32/32/32
f  34/34/34 24/24/24 33/33/33
f  24/24/24 34/34/34 23/23/23
f  23/23/23 34/34/34 22/22/22
f  22/22/22 34/34/34 35/35/35
f  35/35/35 34/34/34 36/36/36
f  37/37/37 36/36/36 34/34/34
f  36/36/36 37/37/37 38/38/38
f  39/39/39 38/38/38 37/37/37
f  38/38/38 39/39/39 40/40/40
f  41/41/41 40/40/40 39/39/39
f  40/40/40 41/41/41 42/42/42
f  43/43/43 42/42/42 41/41/41
f  42/42/42 43/43/43 44/44/44
f  45/45/45 44/44/44 43/43/43
f  45/45/45 43/43/43 46/46/46
f  47/47/47 46/46/46 43/43/43
f  46/46/46 47/47/47 31/31/31
f  31/31/31 47/47/47 32/32/32
f  32/32/32 47/47/47 33/33/33
f  48/48/48 33/33/33 47/47/47
f  37/37/37 33/33/33 48/48/48
f  33/33/33 37/37/37 34/34/34
f  43/43/43 41/41/41 47/47/47
f  47/47/47 41/41/41 48/48/48
f  39/39/39 48/48/48 41/41/41
f  48/48/48 39/39/39 37/37/37
f  49/49/49 45/45/45 50/50/50
f  46/46/46 50/50/50 45/45/45
f  50/50/50 46/46/46 51/51/51
f  31/31/31 51/51/51 46/46/46
f  51/51/51 31/31/31 52/52/52
f  27/27/27 52/52/52 31/31/31
f  52/52/52 27/27/27 53/53/53
f  28/28/28 53/53/53 27/27/27
f  53/53/53 28/28/28 54/54/54
f  29/29/29 54/54/54 28/28/28
f  54/54/54 29/29/29 55/55/55
f  16/16/16 55/55/55 29/29/29
f  56/56/56 55/55/55 16/16/16
f  55/55/55 56/56/56 57/57/57
f  57/57/57 56/56/56 58/58/58
f  58/58/58 56/56/56 5/5/5
f  5/5/5 56/56/56 7/7/7
f  16/16/16 7/7/7 56/56/56
f  59/59/59 49/49/49 60/60/60
f  50/50/50 60/60/60 49/49/49
f  60/60/60 50/50/50 61/61/61
f  51/51/51 61/61/61 50/50/50
f  61/61/61 51/51/51 62/62/62
f  52/52/52 62/62/62 51/51/51
f  62/62/62 52/52/52 63/63/63
f  53/53/53 63/63/63 52/52/52
f  63/63/63 53/53/53 64/64/64
f  54/54/54 64/64/64 53/53/53
f  55/55/55 64/64/64 54/54/54
f  64/64/64 55/55/55 65/65/65
f  65/65/65 55/55/55 66/66/66
f  57/57/57 66/66/66 55/55/55
f  66/66/66 57/57/57 67/67/67
f  58/58/58 67/67/67 57/57/57
f  67/67/67 58/58/58 4/4/4
f  5/5/5 4/4/4 58/58/58
f  68/68/68 69/69/69 70/70/70
f  71/71/71 70/70/70 69/69/69
f  70/70/70 71/71/71 72/72/72
f  72/72/72 71/71/71 73/73/73
f  73/73/73 71/71/71 74/74/74
f  69/69/69 74/74/74 71/71/71
f  75/75/75 76/76/76 77/77/77
f  78/78/78 77/77/77 76/76/76
f  77/77/77 78/78/78 79/79/79
f  79/79/79 78/78/78 80/80/80
f  81/81/81 80/80/80 78/78/78
f  80/80/80 81/81/81 82/82/82
f  82/82/82 81/81/81 72/72/72
f  72/72/72 81/81/81 70/70/70
f  70/70/70 81/81/81 68/68/68
f  68/68/68 81/81/81 83/83/83
f  83/83/83 81/81/81 76/76/76
f  78/78/78 76/76/76 81/81/81
f  84/84/84 85/85/85 73/73/73
f  73/73/73 85/85/85 72/72/72
f  72/72/72 85/85/85 82/82/82
f  86/86/86 82/82/82 85/85/85
f  87/87/87 82/82/82 86/86/86
f  82/82/82 87/87/87 80/80/80
f  88/88/88 80/80/80 87/87/87
f  80/80/80 88/88/88 79/79/79
f  89/89/89 79/79/79 88/88/88
f  79/79/79 89/89/89 77/77/77
f  90/90/90 77/77/77 89/89/89
f  77/77/77 90/90/90 75/75/75
f  91/91/91 75/75/75 90/90/90
f  92/92/92 91/91/91 93/93/93
f  90/90/90 93/93/93 91/91/91
f  93/93/93 90/90/90 94/94/94
f  89/89/89 94/94/94 90/90/90
f  94/94/94 89/89/89 95/95/95
f  88/88/88 95/95/95 89/89/89
f  95/95/95 88/88/88 96/96/96
f  96/96/96 88/88/88 97/97/97
f  87/87/87 97/97/97 88/88/88
f  97/97/97 87/87/87 98/98/98
f  86/86/86 98/98/98 87/87/87
f  98/98/98 86/86/86 99/99/99
f  85/85/85 99/99/99 86/86/86
f  99/99/99 85/85/85 100/100/100
f  84/84/84 100/100/100 85/85/85
f  100/100/100 84/84/84 101/101/101
f  101/101/101 84/84/84 74/74/74
f  73/73/73 74/74/74 84/84/84
f  102/102/102 103/103/103 104/104/104
f  104/104/104 103/103/103 105/105/105
f  106/106/106 105/105/105 103/103/103
f  107/107/107 105/105/105 106/106/106
f  105/105/105 107/107/107 108/108/108
f  109/109/109 108/108/108 107/107/107
f  108/108/108 109/109/109 110/110/110
f  111/111/111 110/110/110 109/109/109
f  110/110/110 111/111/111 112/112/112
f  112/112/112 111/111/111 74/74/74
f  74/74/74 111/111/111 101/101/101
f  109/109/109 101/101/101 111/111/111
f  101/101/101 109/109/109 100/100/100
f  107/107/107 100/100/100 109/109/109
f  100/100/100 107/107/107 99/99/99
f  106/106/106 99/99/99 107/107/107
f  99/99/99 106/106/106 98/98/98
f  97/97/97 98/98/98 106/106/106
f  106/106/106 103/103/103 97/97/97
f  113/113/113 97/97/97 103/103/103
f  97/97/97 113/113/113 96/96/96
f  114/114/114 96/96/96 113/113/113
f  96/96/96 114/114/114 115/115/115
f  116/116/116 115/115/115 114/114/114
f  115/115/115 116/116/116 117/117/117
f  118/118/118 117/117/117 116/116/116
f  119/119/119 117/117/117 118/118/118
f  117/117/117 119/119/119 120/120/120
f  121/121/121 120/120/120 119/119/119
f  122/122/122 120/120/120 121/121/121
f  120/120/120 122/122/122 94/94/94
f  94/94/94 122/122/122 93/93/93
f  123/123/123 93/93/93 122/122/122
f  93/93/93 123/123/123 92/92/92
f  124/124/124 92/92/92 123/123/123
f  102/102/102 113/113/113 103/103/103
f  113/113/113 102/102/102 114/114/114
f  125/125/125 114/114/114 102/102/102
f  126/126/126 114/114/114 125/125/125
f  114/114/114 126/126/126 116/116/116
f  127/127/127 116/116/116 126/126/126
f  116/116/116 127/127/127 118/118/118
f  128/128/128 118/118/118 127/127/127
f  118/118/118 128/128/128 119/119/119
f  129/129/129 119/119/119 128/128/128
f  119/119/119 129/129/129 121/121/121
f  130/130/130 121/121/121 129/129/129
f  131/131/131 121/121/121 130/130/130
f  121/121/121 131/131/131 122/122/122
f  122/122/122 131/131/131 123/123/123
f  132/132/132 123/123/123 131/131/131
f  123/123/123 132/132/132 124/124/124
f  133/133/133 124/124/124 132/132/132
f  120/120/120 94/94/94 134/134/134
f  95/95/95 134/134/134 94/94/94
f  96/96/96 134/134/134 95/95/95
f  115/115/115 134/134/134 96/96/96
f  134/134/134 115/115/115 120/120/120
f  117/117/117 120/120/120 115/115/115

g
