# Noesis .obj export.
#
mtllib m1234.mtl
g
v  0.147934 0.262659 0.129232
v  0.132805 0.244707 0.156048
v  0.140543 0.242936 0.158149
v  0.121864 0.233784 0.172945
v  0.129845 0.225095 0.180096
v  0.117045 0.209645 0.194880
v  0.110449 0.223278 0.184995
v  0.095753 0.212571 0.194584
v  0.102208 0.234602 0.173081
v  0.088653 0.225298 0.181918
v  0.092130 0.245913 0.158330
v  0.080914 0.239226 0.165301
v  0.074206 0.252131 0.146089
v  0.081969 0.255532 0.142305
v  0.066684 0.263691 0.119351
v  0.056141 0.183476 0.208391
v  0.074701 0.186660 0.209732
v  0.070527 0.193218 0.204940
v  0.082802 0.201831 0.201319
v  0.090588 0.192801 0.210458
v  0.101930 0.199827 0.205244
v  0.107605 0.185628 0.213292
v  0.122695 0.188945 0.205485
v  0.115656 0.170296 0.218887
v  0.126755 0.172245 0.213488
v  0.130873 0.155878 0.221055
v  0.123058 0.153681 0.223367
v  0.135647 0.132775 0.229802

vt  0.015882 -0.058020 0.000000
vt  0.114802 -0.187456 0.000000
vt  0.160819 -0.125545 0.000000
vt  0.214470 -0.301126 0.000000
vt  0.306649 -0.205173 0.000000
vt  0.489477 -0.303049 0.000000
vt  0.331744 -0.453863 0.000000
vt  0.528531 -0.609931 0.000000
vt  0.241264 -0.616637 0.000000
vt  0.377935 -0.718674 0.000000
vt  0.156289 -0.748226 0.000000
vt  0.255535 -0.822000 0.000000
vt  0.147220 -0.903600 0.000000
vt  0.090269 -0.856373 0.000000
vt  0.024933 -0.977198 0.000000
vt  0.885537 -0.787278 0.000000
vt  0.835300 -0.695889 0.000000
vt  0.791322 -0.746384 0.000000
vt  0.687042 -0.689490 0.000000
vt  0.761909 -0.596076 0.000000
vt  0.666809 -0.464458 0.000000
vt  0.760234 -0.320417 0.000000
vt  0.659108 -0.202302 0.000000
vt  0.849871 -0.204895 0.000000
vt  0.782125 -0.120312 0.000000
vt  0.871266 -0.064375 0.000000
vt  0.914049 -0.117833 0.000000
vt  0.984236 -0.014897 0.000000

vn  0.033545 0.821658 0.568992
vn  0.035710 0.825074 0.563896
vn  0.058198 0.810086 0.583416
vn  0.140625 0.708031 0.692038
vn  0.098494 0.684758 0.722084
vn  0.142335 0.608842 0.780418
vn  0.080067 0.660113 0.746887
vn  0.000024 0.651061 0.759025
vn  -0.072030 0.735511 0.673673
vn  -0.038746 0.722409 0.690380
vn  -0.093026 0.787704 0.608990
vn  -0.071861 0.774988 0.627877
vn  -0.132191 0.848608 0.512241
vn  -0.135606 0.858960 0.493760
vn  -0.176809 0.884343 0.432061
vn  -0.149898 0.519378 0.841295
vn  -0.173195 0.538714 0.824495
vn  -0.136915 0.526172 0.839284
vn  -0.147034 0.604524 0.782899
vn  -0.162737 0.629022 0.760163
vn  0.066533 0.613731 0.786707
vn  0.293373 0.494655 0.818076
vn  0.314200 0.486216 0.815397
vn  0.302904 0.450953 0.839578
vn  0.318947 0.467469 0.824467
vn  0.201801 0.380158 0.902638
vn  0.172906 0.352708 0.919620
vn  0.163080 0.378644 0.911062

g M1234
usemtl M1234_3
f  1/1/1 2/2/2 3/3/3
f  4/4/4 3/3/3 2/2/2
f  3/3/3 4/4/4 5/5/5
f  5/5/5 4/4/4 6/6/6
f  7/7/7 6/6/6 4/4/4
f  6/6/6 7/7/7 8/8/8
f  9/9/9 8/8/8 7/7/7
f  8/8/8 9/9/9 10/10/10
f  11/11/11 10/10/10 9/9/9
f  10/10/10 11/11/11 12/12/12
f  12/12/12 11/11/11 13/13/13
f  14/14/14 13/13/13 11/11/11
f  13/13/13 14/14/14 15/15/15
f  16/16/16 17/17/17 18/18/18
f  18/18/18 17/17/17 19/19/19
f  20/20/20 19/19/19 17/17/17
f  21/21/21 19/19/19 20/20/20
f  19/19/19 21/21/21 8/8/8
f  8/8/8 21/21/21 6/6/6
f  22/22/22 6/6/6 21/21/21
f  6/6/6 22/22/22 23/23/23
f  24/24/24 23/23/23 22/22/22
f  23/23/23 24/24/24 25/25/25
f  25/25/25 24/24/24 26/26/26
f  27/27/27 26/26/26 24/24/24
f  26/26/26 27/27/27 28/28/28

g
