# Noesis .obj export.
#
mtllib m1231.mtl
g
v  0.258799 0.033061 -0.259537
v  0.281219 0.181882 -0.225242
v  0.340695 0.023612 -0.220361
v  0.359399 0.147768 -0.183987
v  0.294662 0.271118 -0.135966
v  0.372079 0.225196 -0.114853
v  0.323001 0.323511 0.000001
v  0.373596 0.268533 0.000000
v  0.316671 -0.117522 -0.203513
v  0.236024 -0.118117 -0.247376
v  0.309100 -0.186113 -0.128572
v  0.223180 -0.203375 -0.142545
v  0.304002 -0.219958 -0.000000
v  0.219980 -0.238112 0.000660
v  0.223180 -0.203376 0.142545
v  0.309100 -0.186114 0.128571
v  0.236024 -0.118118 0.247376
v  0.316671 -0.117523 0.203513
v  0.258799 0.033060 0.259537
v  0.340695 0.023611 0.220362
v  0.281219 0.181882 0.225243
v  0.359399 0.147767 0.183988
v  0.294662 0.271117 0.135966
v  0.372079 0.225196 0.114854
v  0.343269 0.317358 0.047080
v  0.312515 0.332272 0.032875
v  0.325365 0.302050 0.000000
v  0.296238 0.339126 0.000661
v  0.312515 0.332273 -0.032874
v  0.343269 0.317358 -0.047079
v  0.377454 0.301352 -0.030748
v  0.391557 0.296432 0.000000
v  0.377454 0.301351 0.030749
v  0.315435 0.347196 0.000001
v  0.328212 0.340548 0.022647
v  0.353830 0.340377 0.000001
v  0.350427 0.330793 0.031328
v  0.373200 0.317309 0.021854
v  0.384259 0.313527 0.000001
v  0.373200 0.317309 -0.021853
v  0.350427 0.330793 -0.031327
v  0.328212 0.340548 -0.022646
v  0.377454 0.301351 0.030749
v  0.343269 0.317358 0.047080
v  0.312515 0.332272 0.032875
v  0.296238 0.339126 0.000661
v  0.312515 0.332273 -0.032874
v  0.343269 0.317358 -0.047079
v  0.377454 0.301352 -0.030748
v  0.391557 0.296432 0.000000
v  0.316671 -0.117522 -0.203513
v  0.340695 0.023612 -0.220361
v  0.304458 0.028373 0.000000
v  0.359399 0.147768 -0.183987
v  0.372079 0.225196 -0.114853
v  0.373596 0.268533 0.000000
v  0.372079 0.225196 0.114854
v  0.359399 0.147767 0.183988
v  0.340695 0.023611 0.220362
v  0.316671 -0.117523 0.203513
v  0.309100 -0.186114 0.128571
v  0.304002 -0.219958 -0.000000
v  0.309100 -0.186113 -0.128572
v  0.258799 0.033061 -0.259537
v  0.236024 -0.118117 -0.247376
v  0.292491 0.030205 0.000000
v  0.223180 -0.203375 -0.142545
v  0.219980 -0.238112 0.000660
v  0.223180 -0.203376 0.142545
v  0.236024 -0.118118 0.247376
v  0.258799 0.033060 0.259537
v  0.281219 0.181882 0.225243
v  0.294662 0.271117 0.135966
v  0.323001 0.323511 0.000001
v  0.294662 0.271118 -0.135966
v  0.281219 0.181882 -0.225242
v  0.494090 0.128315 -0.178106
v  0.496198 0.198069 -0.074571
v  0.424138 0.264915 -0.090968
v  0.429498 0.257375 0.000148
v  0.335129 0.293618 -0.094911
v  0.345505 0.319329 0.000001
v  0.296238 0.339126 0.000661
v  0.279931 0.280752 -0.130130
v  0.258726 0.346172 0.000001
v  0.259123 0.332858 -0.104184
v  0.278538 0.235550 -0.192959
v  0.324726 0.211690 -0.203963
v  0.409867 0.171452 -0.203986
v  0.494090 0.128315 -0.178106
v  0.409867 0.171452 -0.203986
v  0.424138 0.264915 -0.090968
v  0.324738 0.211714 -0.203963
v  0.339712 0.314327 -0.101700
v  0.278566 0.235617 -0.192944
v  0.294822 0.334929 -0.106764
v  0.259123 0.332858 -0.104184
v  0.496198 0.198069 -0.074571
v  0.494090 0.128314 0.178107
v  0.409867 0.171451 0.203986
v  0.424138 0.264914 0.090969
v  0.324726 0.211689 0.203964
v  0.335129 0.293618 0.094912
v  0.278538 0.235549 0.192960
v  0.279931 0.280752 0.130131
v  0.259123 0.332858 0.104185
v  0.294393 0.336400 -0.001321
v  0.429498 0.257375 -0.000147
v  0.496198 0.198069 0.074572
v  0.494090 0.128314 0.178107
v  0.496198 0.198069 0.074572
v  0.424138 0.264914 0.090969
v  0.339712 0.314327 0.101701
v  0.294822 0.334928 0.106765
v  0.259123 0.332858 0.104185
v  0.278566 0.235616 0.192945
v  0.324738 0.211713 0.203964
v  0.409867 0.171451 0.203986

vt  0.022053 -0.522286 0.000000
vt  0.024814 -0.346117 0.000000
vt  0.171095 -0.520776 0.000000
vt  0.172507 -0.358200 0.000000
vt  0.096056 -0.154176 0.000000
vt  0.238100 -0.179924 0.000000
vt  0.210797 -0.016410 0.000000
vt  0.298831 -0.041450 0.000000
vt  0.178521 -0.665343 0.000000
vt  0.030000 -0.676862 0.000000
vt  0.228084 -0.818928 0.000000
vt  0.083924 -0.842138 0.000000
vt  0.311761 -0.946996 0.000000
vt  0.174012 -0.979762 0.000000
vt  0.083924 -0.842138 0.000000
vt  0.228084 -0.818928 0.000000
vt  0.030000 -0.676862 0.000000
vt  0.178521 -0.665343 0.000000
vt  0.022053 -0.522286 0.000000
vt  0.171095 -0.520776 0.000000
vt  0.024814 -0.346117 0.000000
vt  0.172507 -0.358200 0.000000
vt  0.096056 -0.154176 0.000000
vt  0.238100 -0.179924 0.000000
vt  0.208984 -0.339422 0.000000
vt  0.288083 -0.279900 0.000000
vt  0.338034 -0.379668 0.000000
vt  0.395968 -0.282698 0.000000
vt  0.288083 -0.279900 0.000000
vt  0.208984 -0.339422 0.000000
vt  0.197921 -0.441721 0.000000
vt  0.258123 -0.513422 0.000000
vt  0.197921 -0.441721 0.000000
vt  0.683896 -0.625439 0.000000
vt  0.699559 -0.530685 0.000000
vt  0.805621 -0.581135 0.000000
vt  0.765263 -0.476475 0.000000
vt  0.856230 -0.476430 0.000000
vt  0.920588 -0.539291 0.000000
vt  0.856230 -0.476430 0.000000
vt  0.765263 -0.476475 0.000000
vt  0.699559 -0.530685 0.000000
vt  0.891133 -0.412134 0.000000
vt  0.732873 -0.403049 0.000000
vt  0.627901 -0.499259 0.000000
vt  0.613039 -0.650626 0.000000
vt  0.627901 -0.499259 0.000000
vt  0.732873 -0.403049 0.000000
vt  0.891133 -0.412134 0.000000
vt  0.990002 -0.513424 0.000000
vt  0.372291 -0.108831 0.000000
vt  0.422711 -0.052257 0.000000
vt  0.507469 -0.181469 0.000000
vt  0.502388 -0.023120 0.000000
vt  0.574790 -0.053612 0.000000
vt  0.621878 -0.108582 0.000000
vt  0.574790 -0.053612 0.000000
vt  0.502388 -0.023120 0.000000
vt  0.422711 -0.052257 0.000000
vt  0.372291 -0.108831 0.000000
vt  0.357543 -0.185034 0.000000
vt  0.382662 -0.260828 0.000000
vt  0.357543 -0.185034 0.000000
vt  0.422711 -0.052257 0.000000
vt  0.372291 -0.108831 0.000000
vt  0.507469 -0.181469 0.000000
vt  0.357543 -0.185034 0.000000
vt  0.382662 -0.260828 0.000000
vt  0.357543 -0.185034 0.000000
vt  0.372291 -0.108831 0.000000
vt  0.422711 -0.052257 0.000000
vt  0.502388 -0.023120 0.000000
vt  0.574790 -0.053612 0.000000
vt  0.621878 -0.108582 0.000000
vt  0.574790 -0.053612 0.000000
vt  0.502388 -0.023120 0.000000
vt  0.984104 -0.637262 0.000000
vt  0.804858 -0.644696 0.000000
vt  0.798305 -0.746818 0.000000
vt  0.577910 -0.737876 0.000000
vt  0.793543 -0.848468 0.000000
vt  0.572472 -0.844201 0.000000
vt  0.570267 -0.903082 0.000000
vt  0.793414 -0.904180 0.000000
vt  0.572484 -0.977110 0.000000
vt  0.798027 -0.973199 0.000000
vt  0.955876 -0.904610 0.000000
vt  0.972058 -0.845972 0.000000
vt  0.978159 -0.739335 0.000000
vt  0.984104 -0.637262 0.000000
vt  0.978159 -0.739335 0.000000
vt  0.798305 -0.746818 0.000000
vt  0.972058 -0.845972 0.000000
vt  0.793543 -0.848468 0.000000
vt  0.955876 -0.904610 0.000000
vt  0.793414 -0.904180 0.000000
vt  0.798027 -0.973199 0.000000
vt  0.804858 -0.644696 0.000000
vt  0.984104 -0.637262 0.000000
vt  0.978159 -0.739335 0.000000
vt  0.798305 -0.746818 0.000000
vt  0.972058 -0.845972 0.000000
vt  0.793543 -0.848468 0.000000
vt  0.955876 -0.904610 0.000000
vt  0.793414 -0.904180 0.000000
vt  0.798027 -0.973199 0.000000
vt  0.570267 -0.903082 0.000000
vt  0.577910 -0.737876 0.000000
vt  0.804858 -0.644696 0.000000
vt  0.984104 -0.637262 0.000000
vt  0.804858 -0.644696 0.000000
vt  0.798305 -0.746818 0.000000
vt  0.793543 -0.848468 0.000000
vt  0.793414 -0.904180 0.000000
vt  0.798027 -0.973199 0.000000
vt  0.955876 -0.904610 0.000000
vt  0.972058 -0.845972 0.000000
vt  0.978159 -0.739335 0.000000

vn  -0.547665 0.122053 -0.827747
vn  -0.441550 0.484025 -0.755482
vn  0.851570 -0.102107 -0.514200
vn  0.889932 0.106374 -0.443514
vn  -0.452137 0.767027 -0.455239
vn  0.907140 0.275219 -0.318358
vn  -0.201627 0.979463 0.000001
vn  0.942884 0.333123 0.000001
vn  0.791583 -0.358749 -0.494667
vn  -0.534244 -0.285322 -0.795723
vn  0.749542 -0.600959 -0.277552
vn  -0.663926 -0.642431 -0.382733
vn  0.723267 -0.690568 -0.000310
vn  -0.669203 -0.743077 0.001864
vn  -0.663954 -0.642279 0.382940
vn  0.749542 -0.600960 0.277550
vn  -0.534244 -0.285325 0.795722
vn  0.791583 -0.358750 0.494666
vn  -0.547665 0.122051 0.827748
vn  0.851570 -0.102109 0.514200
vn  -0.441550 0.484023 0.755484
vn  0.889932 0.106373 0.443515
vn  -0.452137 0.767025 0.455241
vn  0.907140 0.275218 0.318359
vn  -0.047161 -0.141942 0.988751
vn  -0.637351 0.177200 0.749922
vn  -0.493921 -0.869507 -0.000298
vn  -0.839021 0.375740 0.393526
vn  -0.642351 0.180018 -0.744969
vn  -0.047161 -0.141939 -0.988751
vn  0.551767 -0.450101 -0.702113
vn  0.843725 -0.536776 -0.000001
vn  0.551767 -0.450103 0.702112
vn  -0.189327 0.981880 -0.008163
vn  0.028681 0.893027 0.449089
vn  0.438543 0.898710 0.000001
vn  0.377856 0.735604 0.562238
vn  0.682412 0.584566 0.438858
vn  0.841221 0.540692 0.000001
vn  0.682412 0.584567 -0.438857
vn  0.377856 0.735606 -0.562236
vn  0.025419 0.893598 -0.448148
vn  0.551767 -0.450103 0.702112
vn  -0.047161 -0.141942 0.988751
vn  -0.637351 0.177200 0.749922
vn  -0.839021 0.375740 0.393526
vn  -0.642351 0.180018 -0.744969
vn  -0.047161 -0.141939 -0.988751
vn  0.551767 -0.450101 -0.702113
vn  0.843725 -0.536776 -0.000001
vn  0.791583 -0.358749 -0.494667
vn  0.851570 -0.102107 -0.514200
vn  0.987999 -0.154460 -0.000000
vn  0.889932 0.106374 -0.443514
vn  0.907140 0.275219 -0.318358
vn  0.942884 0.333123 0.000001
vn  0.907140 0.275218 0.318359
vn  0.889932 0.106373 0.443515
vn  0.851570 -0.102109 0.514200
vn  0.791583 -0.358750 0.494666
vn  0.749542 -0.600960 0.277550
vn  0.723267 -0.690568 -0.000310
vn  0.749542 -0.600959 -0.277552
vn  -0.547665 0.122053 -0.827747
vn  -0.534244 -0.285322 -0.795723
vn  -0.987558 0.157253 0.000003
vn  -0.663926 -0.642431 -0.382733
vn  -0.669203 -0.743077 0.001864
vn  -0.663954 -0.642279 0.382940
vn  -0.534244 -0.285325 0.795722
vn  -0.547665 0.122051 0.827748
vn  -0.441550 0.484023 0.755484
vn  -0.452137 0.767025 0.455241
vn  -0.201627 0.979463 0.000001
vn  -0.452137 0.767027 -0.455239
vn  -0.441550 0.484025 -0.755482
vn  -0.560548 -0.619389 0.549676
vn  -0.681967 -0.663755 0.307165
vn  -0.480586 -0.828782 0.286631
vn  0.642173 -0.369208 0.671788
vn  -0.259991 -0.863437 0.432298
vn  0.571139 0.820853 -0.000388
vn  -0.839021 0.375740 0.393526
vn  -0.514760 -0.713468 0.475379
vn  -0.869992 0.493053 -0.003505
vn  -0.907887 -0.408007 0.096285
vn  -0.301754 -0.740913 0.599994
vn  -0.281120 -0.725426 0.628274
vn  -0.418222 -0.656103 0.628187
vn  0.560548 0.619389 -0.549676
vn  0.418322 0.656062 -0.628164
vn  0.563715 0.767294 -0.305754
vn  0.291282 0.660048 -0.692454
vn  0.451229 0.793627 -0.408103
vn  0.173591 0.647312 -0.742195
vn  0.183384 0.869972 -0.457733
vn  -0.082636 0.886114 -0.456041
vn  0.681967 0.663755 -0.307165
vn  -0.560548 -0.619387 -0.549678
vn  -0.418222 -0.656101 -0.628189
vn  -0.480586 -0.828781 -0.286633
vn  -0.281120 -0.725425 -0.628276
vn  -0.251819 -0.868683 -0.426588
vn  -0.301754 -0.740911 -0.599996
vn  -0.516004 -0.714996 -0.471720
vn  -0.907887 -0.408007 -0.096287
vn  0.202315 0.169084 -0.964613
vn  0.642173 -0.369206 -0.671789
vn  -0.681967 -0.663754 -0.307167
vn  0.560548 0.619387 0.549678
vn  0.681967 0.663754 0.307167
vn  0.563715 0.767293 0.305756
vn  0.447166 0.798757 0.402529
vn  0.189065 0.873161 0.449270
vn  -0.082637 0.886113 0.456044
vn  0.173591 0.647309 0.742197
vn  0.291282 0.660046 0.692456
vn  0.418322 0.656060 0.628166

g M1231
usemtl M1231_3
f  1/1/1 2/2/2 3/3/3
f  3/3/3 2/2/2 4/4/4
f  5/5/5 4/4/4 2/2/2
f  4/4/4 5/5/5 6/6/6
f  7/7/7 6/6/6 5/5/5
f  6/6/6 7/7/7 8/8/8
f  9/9/9 1/1/1 3/3/3
f  1/1/1 9/9/9 10/10/10
f  11/11/11 10/10/10 9/9/9
f  10/10/10 11/11/11 12/12/12
f  13/13/13 12/12/12 11/11/11
f  12/12/12 13/13/13 14/14/14
f  14/14/14 13/13/13 15/15/15
f  16/16/16 15/15/15 13/13/13
f  15/15/15 16/16/16 17/17/17
f  18/18/18 17/17/17 16/16/16
f  17/17/17 18/18/18 19/19/19
f  20/20/20 19/19/19 18/18/18
f  19/19/19 20/20/20 21/21/21
f  22/22/22 21/21/21 20/20/20
f  21/21/21 22/22/22 23/23/23
f  24/24/24 23/23/23 22/22/22
f  23/23/23 24/24/24 7/7/7
f  8/8/8 7/7/7 24/24/24
f  25/25/25 26/26/26 27/27/27
f  28/28/28 27/27/27 26/26/26
f  29/29/29 27/27/27 28/28/28
f  30/30/30 27/27/27 29/29/29
f  31/31/31 27/27/27 30/30/30
f  32/32/32 27/27/27 31/31/31
f  33/33/33 27/27/27 32/32/32
f  27/27/27 33/33/33 25/25/25
f  34/34/34 35/35/35 36/36/36
f  37/37/37 36/36/36 35/35/35
f  38/38/38 36/36/36 37/37/37
f  39/39/39 36/36/36 38/38/38
f  40/40/40 36/36/36 39/39/39
f  41/41/41 36/36/36 40/40/40
f  42/42/42 36/36/36 41/41/41
f  36/36/36 42/42/42 34/34/34
f  43/43/43 38/38/38 44/44/44
f  37/37/37 44/44/44 38/38/38
f  44/44/44 37/37/37 45/45/45
f  35/35/35 45/45/45 37/37/37
f  45/45/45 35/35/35 46/46/46
f  34/34/34 46/46/46 35/35/35
f  42/42/42 46/46/46 34/34/34
f  46/46/46 42/42/42 47/47/47
f  41/41/41 47/47/47 42/42/42
f  47/47/47 41/41/41 48/48/48
f  40/40/40 48/48/48 41/41/41
f  48/48/48 40/40/40 49/49/49
f  49/49/49 40/40/40 50/50/50
f  39/39/39 50/50/50 40/40/40
f  38/38/38 50/50/50 39/39/39
f  50/50/50 38/38/38 43/43/43
f  51/51/51 52/52/52 53/53/53
f  54/54/54 53/53/53 52/52/52
f  55/55/55 53/53/53 54/54/54
f  56/56/56 53/53/53 55/55/55
f  57/57/57 53/53/53 56/56/56
f  58/58/58 53/53/53 57/57/57
f  59/59/59 53/53/53 58/58/58
f  60/60/60 53/53/53 59/59/59
f  61/61/61 53/53/53 60/60/60
f  62/62/62 53/53/53 61/61/61
f  63/63/63 53/53/53 62/62/62
f  53/53/53 63/63/63 51/51/51
f  64/64/64 65/65/65 66/66/66
f  67/67/67 66/66/66 65/65/65
f  68/68/68 66/66/66 67/67/67
f  69/69/69 66/66/66 68/68/68
f  70/70/70 66/66/66 69/69/69
f  71/71/71 66/66/66 70/70/70
f  72/72/72 66/66/66 71/71/71
f  73/73/73 66/66/66 72/72/72
f  74/74/74 66/66/66 73/73/73
f  75/75/75 66/66/66 74/74/74
f  76/76/76 66/66/66 75/75/75
f  66/66/66 76/76/76 64/64/64
f  77/77/77 78/78/78 79/79/79
f  80/80/80 79/79/79 78/78/78
f  79/79/79 80/80/80 81/81/81
f  82/82/82 81/81/81 80/80/80
f  83/83/83 81/81/81 82/82/82
f  81/81/81 83/83/83 84/84/84
f  85/85/85 84/84/84 83/83/83
f  86/86/86 84/84/84 85/85/85
f  87/87/87 84/84/84 86/86/86
f  84/84/84 87/87/87 81/81/81
f  88/88/88 81/81/81 87/87/87
f  81/81/81 88/88/88 79/79/79
f  89/89/89 79/79/79 88/88/88
f  79/79/79 89/89/89 77/77/77
f  90/90/90 91/91/91 92/92/92
f  93/93/93 92/92/92 91/91/91
f  92/92/92 93/93/93 94/94/94
f  95/95/95 94/94/94 93/93/93
f  94/94/94 95/95/95 96/96/96
f  97/97/97 96/96/96 95/95/95
f  85/85/85 96/96/96 97/97/97
f  83/83/83 96/96/96 85/85/85
f  96/96/96 83/83/83 94/94/94
f  82/82/82 94/94/94 83/83/83
f  80/80/80 94/94/94 82/82/82
f  94/94/94 80/80/80 92/92/92
f  98/98/98 92/92/92 80/80/80
f  92/92/92 98/98/98 90/90/90
f  99/99/99 100/100/100 101/101/101
f  102/102/102 101/101/101 100/100/100
f  101/101/101 102/102/102 103/103/103
f  104/104/104 103/103/103 102/102/102
f  103/103/103 104/104/104 105/105/105
f  106/106/106 105/105/105 104/104/104
f  85/85/85 105/105/105 106/106/106
f  107/107/107 105/105/105 85/85/85
f  105/105/105 107/107/107 103/103/103
f  82/82/82 103/103/103 107/107/107
f  108/108/108 103/103/103 82/82/82
f  103/103/103 108/108/108 101/101/101
f  109/109/109 101/101/101 108/108/108
f  101/101/101 109/109/109 99/99/99
f  110/110/110 111/111/111 112/112/112
f  108/108/108 112/112/112 111/111/111
f  112/112/112 108/108/108 113/113/113
f  82/82/82 113/113/113 108/108/108
f  107/107/107 113/113/113 82/82/82
f  113/113/113 107/107/107 114/114/114
f  85/85/85 114/114/114 107/107/107
f  115/115/115 114/114/114 85/85/85
f  116/116/116 114/114/114 115/115/115
f  114/114/114 116/116/116 113/113/113
f  117/117/117 113/113/113 116/116/116
f  113/113/113 117/117/117 112/112/112
f  118/118/118 112/112/112 117/117/117
f  112/112/112 118/118/118 110/110/110

g
