# Noesis .obj export.
#
mtllib m1230.mtl
g
v  0.287435 0.002700 0.240316
v  0.266071 -0.175079 0.176543
v  0.278814 -0.093217 0.230628
v  0.260206 -0.211216 0.094552
v  0.260906 -0.236180 -0.000754
v  0.303124 0.203145 0.178322
v  0.296470 0.110753 0.220689
v  0.180154 0.300540 -0.095958
v  0.132585 0.256843 -0.186095
v  0.245089 0.317006 0.001514
v  0.114139 0.150701 -0.258617
v  0.112941 0.025202 -0.289603
v  0.133103 -0.108755 -0.271462
v  0.173311 -0.200688 -0.155915
v  0.248920 -0.220231 -0.089898
v  0.296204 0.278894 0.097137
v  0.294227 0.278513 0.097539
v  0.291892 0.300310 0.001380
v  0.288316 0.310307 0.001839
v  0.287385 0.283011 -0.097948
v  0.291186 0.277400 -0.094580
v  0.285073 0.223939 -0.192327
v  0.286909 0.221046 -0.184230
v  0.282028 0.136620 -0.241286
v  0.283810 0.130922 -0.234792
v  0.269561 0.014053 -0.265296
v  0.272176 0.011427 -0.247608
v  0.265280 -0.100627 -0.252675
v  0.261296 -0.098712 -0.267021
v  0.248603 -0.189574 -0.176047
v  0.249781 -0.185048 -0.159176
v  0.250520 -0.224419 -0.095942
v  0.362575 -0.087969 0.193638
v  0.364879 -0.152049 0.146152
v  0.362615 -0.008416 0.205005
v  0.371725 0.102040 0.177633
v  0.380222 0.232564 0.075885
v  0.380348 0.182719 0.143798
v  0.362625 -0.186185 0.081308
v  0.360350 -0.206169 -0.005473
v  0.380473 0.257358 -0.001007
v  0.380717 0.227037 -0.081087
v  0.361221 -0.190008 -0.082251
v  0.362960 -0.157449 -0.141372
v  0.363539 -0.082812 -0.201900
v  0.368279 0.000457 -0.202084
v  0.373100 0.102793 -0.180546
v  0.380601 0.179900 -0.145323
v  0.361943 0.117182 -0.205310
v  0.363057 0.114445 -0.199159
v  0.337089 0.007495 -0.228326
v  0.336982 0.007441 -0.222217
v  0.355099 0.005343 -0.213680
v  0.341405 -0.086487 -0.219330
v  0.371498 0.188927 -0.155664
v  0.372636 0.193151 -0.159741
v  0.386574 0.244762 -0.087545
v  0.377473 0.248951 -0.089161
v  0.340857 0.274153 -0.091952
v  0.342005 0.216600 -0.186031
v  0.333181 0.127090 -0.229496
v  0.318183 0.010499 -0.241202
v  0.308444 -0.090387 -0.241721
v  0.309984 -0.088178 -0.235034
v  0.283047 -0.181688 -0.171561
v  0.331331 -0.166684 -0.151066
v  0.323713 -0.206007 -0.092247
v  0.265871 -0.226819 -0.097871
v  0.342474 0.291818 0.000042
v  0.288316 0.310307 0.001839
v  0.287385 0.283011 -0.097948
v  0.285073 0.223939 -0.192327
v  0.282028 0.136620 -0.241286
v  0.269561 0.014053 -0.265296
v  0.261296 -0.098712 -0.267021
v  0.282491 -0.186362 -0.176098
v  0.248603 -0.189574 -0.176047
v  0.265439 -0.225850 -0.096685
v  0.250520 -0.224419 -0.095942
v  0.260906 -0.236180 -0.000754
v  0.317727 -0.220989 -0.006296
v  0.360350 -0.206169 -0.005473
v  0.361221 -0.190008 -0.082251
v  0.362960 -0.157449 -0.141372
v  0.363539 -0.082812 -0.201900
v  0.368279 0.000457 -0.202084
v  0.373100 0.102793 -0.180546
v  0.380601 0.179900 -0.145323
v  0.380717 0.227037 -0.081087
v  0.380473 0.257358 -0.001007
v  0.364879 -0.152049 0.146152
v  0.324311 -0.170187 0.169692
v  0.362625 -0.186185 0.081308
v  0.320592 -0.205456 0.093370
v  0.360350 -0.206169 -0.005473
v  0.317727 -0.220989 -0.006296
v  0.300024 -0.212687 0.091444
v  0.260906 -0.236180 -0.000754
v  0.260206 -0.211216 0.094552
v  0.297022 -0.169414 0.170427
v  0.328582 -0.094162 0.216996
v  0.362575 -0.087969 0.193638
v  0.345444 -0.006663 0.226239
v  0.362615 -0.008416 0.205005
v  0.353451 0.107486 0.204444
v  0.371725 0.102040 0.177633
v  0.352152 0.192161 0.163473
v  0.380348 0.182719 0.143798
v  0.350394 0.265360 0.087588
v  0.380222 0.232564 0.075885
v  0.342474 0.291818 0.000042
v  0.380473 0.257358 -0.001007
v  0.299751 -0.091859 0.230970
v  0.316157 -0.002160 0.242333
v  0.327940 0.107709 0.221010
v  0.329396 0.200906 0.177853
v  0.312576 0.281379 0.093391
v  0.266071 -0.175079 0.176543
v  0.278814 -0.093217 0.230628
v  0.287435 0.002700 0.240316
v  0.296470 0.110753 0.220689
v  0.303124 0.203145 0.178322
v  0.294227 0.278513 0.097539
v  0.288316 0.310307 0.001839
v  0.219924 0.299937 -0.098876
v  0.188923 0.247635 -0.203042
v  0.132585 0.256843 -0.186095
v  0.114139 0.150701 -0.258617
v  0.182230 0.147126 -0.254603
v  0.112941 0.025202 -0.289603
v  0.178080 0.021699 -0.281061
v  0.133103 -0.108755 -0.271462
v  0.183253 -0.108330 -0.273196
v  0.173311 -0.200688 -0.155915
v  0.200549 -0.197192 -0.162974
v  0.248920 -0.220231 -0.089898
v  0.231653 -0.189668 -0.163929
v  0.249781 -0.185048 -0.159176
v  0.261321 0.316663 0.001940
v  0.282738 0.306377 0.002718
v  0.265390 0.285537 -0.103227
v  0.256466 0.229150 -0.197418
v  0.242383 0.138411 -0.250349
v  0.231671 0.017943 -0.268260
v  0.226010 -0.104323 -0.261719
v  0.265280 -0.100627 -0.252675
v  0.272176 0.011427 -0.247608
v  0.283810 0.130922 -0.234792
v  0.286909 0.221046 -0.184230
v  0.291186 0.277400 -0.094580
v  0.291892 0.300310 0.001380
v  0.296204 0.278894 0.097137
v  0.245089 0.317006 0.001514
v  0.180154 0.300540 -0.095958

vt  0.506241 -0.888681 0.000000
vt  0.522378 -0.782834 0.000000
vt  0.506461 -0.842492 0.000000
vt  0.557229 -0.742153 0.000000
vt  0.612102 -0.714539 0.000000
vt  0.559133 -0.977690 0.000000
vt  0.525688 -0.936572 0.000000
vt  0.699796 -0.961973 0.000000
vt  0.746087 -0.917286 0.000000
vt  0.657324 -0.975369 0.000000
vt  0.753531 -0.866229 0.000000
vt  0.729139 -0.807316 0.000000
vt  0.700229 -0.774175 0.000000
vt  0.685951 -0.751177 0.000000
vt  0.663681 -0.733214 0.000000
vt  0.619179 -0.985371 0.000000
vt  0.617121 -0.993834 0.000000
vt  0.668353 -0.983709 0.000000
vt  0.670914 -0.996769 0.000000
vt  0.722931 -0.970076 0.000000
vt  0.714490 -0.958959 0.000000
vt  0.764040 -0.929685 0.000000
vt  0.749539 -0.921064 0.000000
vt  0.777384 -0.877569 0.000000
vt  0.764116 -0.875239 0.000000
vt  0.775567 -0.824983 0.000000
vt  0.753187 -0.830076 0.000000
vt  0.735905 -0.790140 0.000000
vt  0.758755 -0.781576 0.000000
vt  0.719390 -0.735457 0.000000
vt  0.703099 -0.751289 0.000000
vt  0.676199 -0.715037 0.000000
vt  0.984362 -0.091765 0.000000
vt  0.949546 -0.042494 0.000000
vt  0.996062 -0.134714 0.000000
vt  0.991002 -0.183991 0.000000
vt  0.918455 -0.262613 0.000000
vt  0.970404 -0.230706 0.000000
vt  0.903964 -0.015636 0.000000
vt  0.841755 -0.003224 0.000000
vt  0.867145 -0.285031 0.000000
vt  0.812687 -0.270339 0.000000
vt  0.778781 -0.025611 0.000000
vt  0.743040 -0.057098 0.000000
vt  0.717959 -0.110656 0.000000
vt  0.714255 -0.154769 0.000000
vt  0.727936 -0.202734 0.000000
vt  0.756287 -0.246106 0.000000
vt  0.395591 -0.609526 0.000000
vt  0.410902 -0.609526 0.000000
vt  0.367559 -0.491017 0.000000
vt  0.376898 -0.491017 0.000000
vt  0.403845 -0.491017 0.000000
vt  0.403845 -0.387059 0.000000
vt  0.442555 -0.731468 0.000000
vt  0.426928 -0.731468 0.000000
vt  0.474377 -0.863634 0.000000
vt  0.456671 -0.863634 0.000000
vt  0.351587 -0.863634 0.000000
vt  0.351587 -0.731468 0.000000
vt  0.351587 -0.609526 0.000000
vt  0.351587 -0.491017 0.000000
vt  0.341572 -0.387059 0.000000
vt  0.353131 -0.387059 0.000000
vt  0.322793 -0.249030 0.000000
vt  0.403845 -0.249030 0.000000
vt  0.403845 -0.138802 0.000000
vt  0.293615 -0.138802 0.000000
vt  0.351587 -0.986254 0.000000
vt  0.247835 -0.986254 0.000000
vt  0.247835 -0.863634 0.000000
vt  0.247835 -0.731468 0.000000
vt  0.247835 -0.609526 0.000000
vt  0.247835 -0.491017 0.000000
vt  0.247835 -0.387059 0.000000
vt  0.309217 -0.249030 0.000000
vt  0.247835 -0.249030 0.000000
vt  0.283790 -0.138802 0.000000
vt  0.247835 -0.138802 0.000000
vt  0.247835 -0.006565 0.000000
vt  0.403845 -0.006565 0.000000
vt  0.502010 -0.006565 0.000000
vt  0.502010 -0.138802 0.000000
vt  0.502010 -0.249030 0.000000
vt  0.502010 -0.387059 0.000000
vt  0.502010 -0.491017 0.000000
vt  0.502010 -0.609526 0.000000
vt  0.502010 -0.731468 0.000000
vt  0.502010 -0.863634 0.000000
vt  0.502010 -0.986254 0.000000
vt  0.004599 -0.249030 0.000000
vt  0.119436 -0.249030 0.000000
vt  0.004599 -0.138802 0.000000
vt  0.119436 -0.138802 0.000000
vt  0.004599 -0.006565 0.000000
vt  0.119366 -0.006565 0.000000
vt  0.158522 -0.138802 0.000000
vt  0.238664 -0.006565 0.000000
vt  0.238664 -0.138802 0.000000
vt  0.176075 -0.249030 0.000000
vt  0.119436 -0.387059 0.000000
vt  0.004599 -0.387059 0.000000
vt  0.119436 -0.491017 0.000000
vt  0.004599 -0.491017 0.000000
vt  0.119436 -0.609526 0.000000
vt  0.004599 -0.609526 0.000000
vt  0.119436 -0.731468 0.000000
vt  0.004599 -0.731468 0.000000
vt  0.119436 -0.863634 0.000000
vt  0.004599 -0.863634 0.000000
vt  0.119436 -0.986254 0.000000
vt  0.004599 -0.986254 0.000000
vt  0.176075 -0.387059 0.000000
vt  0.176075 -0.491017 0.000000
vt  0.176075 -0.609526 0.000000
vt  0.176075 -0.731468 0.000000
vt  0.191435 -0.863634 0.000000
vt  0.238664 -0.249030 0.000000
vt  0.238664 -0.387059 0.000000
vt  0.238664 -0.491017 0.000000
vt  0.238664 -0.609526 0.000000
vt  0.238664 -0.731468 0.000000
vt  0.238664 -0.863634 0.000000
vt  0.238664 -0.986254 0.000000
vt  0.824630 -0.742643 0.000000
vt  0.762216 -0.641822 0.000000
vt  0.693988 -0.699536 0.000000
vt  0.617643 -0.592801 0.000000
vt  0.702222 -0.540362 0.000000
vt  0.562761 -0.479698 0.000000
vt  0.652827 -0.435235 0.000000
vt  0.522336 -0.347298 0.000000
vt  0.605361 -0.321214 0.000000
vt  0.512687 -0.197673 0.000000
vt  0.572404 -0.187418 0.000000
vt  0.526108 -0.035179 0.000000
vt  0.618226 -0.157296 0.000000
vt  0.639106 -0.125005 0.000000
vt  0.900389 -0.853375 0.000000
vt  0.941751 -0.833160 0.000000
vt  0.896255 -0.710343 0.000000
vt  0.848050 -0.595646 0.000000
vt  0.796394 -0.484971 0.000000
vt  0.739442 -0.378728 0.000000
vt  0.684547 -0.270593 0.000000
vt  0.735695 -0.223180 0.000000
vt  0.806548 -0.326895 0.000000
vt  0.870320 -0.445463 0.000000
vt  0.920312 -0.570677 0.000000
vt  0.956813 -0.702360 0.000000
vt  0.974105 -0.833544 0.000000
vt  0.986645 -0.982242 0.000000
vt  0.872607 -0.881254 0.000000
vt  0.767965 -0.785913 0.000000

vn  -0.683450 0.099647 0.723164
vn  -0.598703 -0.601607 0.528795
vn  -0.621050 -0.221322 0.751874
vn  -0.811908 -0.548926 0.198710
vn  -0.568480 -0.809722 0.145534
vn  -0.586432 0.471696 0.658483
vn  -0.645193 0.277359 0.711897
vn  -0.748361 0.631568 0.202675
vn  -0.824787 0.548811 -0.136135
vn  -0.584265 0.740405 0.332318
vn  -0.829594 0.260457 -0.493899
vn  -0.793983 -0.014745 -0.607761
vn  -0.741201 -0.401427 -0.538032
vn  -0.682689 -0.727877 0.064273
vn  -0.921177 -0.350026 0.170045
vn  -0.669082 -0.734234 -0.115019
vn  0.426365 -0.369203 0.825774
vn  -0.699202 0.713603 -0.043453
vn  -0.653243 0.756006 0.041579
vn  -0.773858 0.584303 -0.244405
vn  -0.805875 0.554221 -0.208337
vn  -0.657074 0.527147 -0.538860
vn  -0.698343 0.503298 -0.508929
vn  -0.635683 0.262180 -0.726064
vn  -0.716982 0.283621 -0.636786
vn  -0.568863 0.121714 -0.813376
vn  -0.597001 0.070135 -0.799169
vn  -0.867942 0.000075 -0.496666
vn  -0.548379 -0.262711 -0.793891
vn  -0.707806 -0.551107 -0.441918
vn  -0.634298 -0.636106 -0.439358
vn  -0.633958 -0.747235 -0.199345
vn  0.848894 -0.216585 0.482152
vn  0.854527 -0.402228 0.328629
vn  0.904824 -0.026397 0.424966
vn  0.941741 0.072482 0.328435
vn  0.930061 0.329732 0.162060
vn  0.910242 0.209585 0.357117
vn  0.831601 -0.532579 0.157478
vn  0.769797 -0.638124 -0.014496
vn  0.899708 0.433525 0.050801
vn  0.986094 -0.162540 0.034648
vn  0.808811 -0.561833 -0.173689
vn  0.796548 -0.468909 -0.381622
vn  0.837694 -0.236808 -0.492129
vn  0.896309 -0.006834 -0.443377
vn  0.964886 0.004265 -0.262636
vn  0.967301 0.135368 -0.214485
vn  0.859418 0.042125 -0.509535
vn  0.939396 -0.016019 -0.342461
vn  0.870684 -0.156771 -0.466189
vn  0.839966 -0.136484 -0.525196
vn  0.565006 0.037991 -0.824212
vn  0.524929 -0.321288 -0.788178
vn  0.984186 0.006609 -0.177016
vn  0.936697 0.173097 -0.304362
vn  0.890915 0.407634 -0.200262
vn  0.507809 0.779339 -0.367099
vn  0.397323 0.845933 -0.355713
vn  0.470130 0.581146 -0.664264
vn  0.456597 0.210417 -0.864433
vn  0.490414 0.011270 -0.871417
vn  0.749952 -0.312736 -0.582896
vn  0.819590 -0.347500 -0.455539
vn  0.833934 -0.505869 -0.220570
vn  0.429471 -0.698058 -0.572949
vn  0.396233 -0.868745 -0.297122
vn  -0.459479 -0.810039 -0.364303
vn  0.492921 0.869290 0.036923
vn  -0.653243 0.756006 0.041579
vn  -0.773858 0.584303 -0.244405
vn  -0.657074 0.527147 -0.538860
vn  -0.635683 0.262180 -0.726064
vn  -0.568863 0.121714 -0.813376
vn  -0.548379 -0.262711 -0.793891
vn  0.649795 -0.670423 -0.358190
vn  -0.707806 -0.551107 -0.441918
vn  -0.644238 -0.721970 -0.252421
vn  -0.633958 -0.747235 -0.199345
vn  -0.568480 -0.809722 0.145534
vn  0.297206 -0.954735 0.012246
vn  0.769797 -0.638124 -0.014496
vn  0.808811 -0.561833 -0.173689
vn  0.796548 -0.468909 -0.381622
vn  0.837694 -0.236808 -0.492129
vn  0.896309 -0.006834 -0.443377
vn  0.964886 0.004265 -0.262636
vn  0.967301 0.135368 -0.214485
vn  0.986094 -0.162540 0.034648
vn  0.899708 0.433525 0.050801
vn  0.854527 -0.402228 0.328629
vn  0.293818 -0.707286 0.642976
vn  0.831601 -0.532579 0.157478
vn  0.369088 -0.886911 0.277784
vn  0.769797 -0.638124 -0.014496
vn  0.297206 -0.954735 0.012246
vn  0.120408 -0.955390 0.269687
vn  -0.568480 -0.809722 0.145534
vn  -0.811908 -0.548926 0.198710
vn  0.132822 -0.756143 0.640786
vn  0.455278 -0.378798 0.805751
vn  0.848894 -0.216585 0.482152
vn  0.619080 -0.031753 0.784686
vn  0.904824 -0.026397 0.424966
vn  0.684596 0.217025 0.695865
vn  0.941741 0.072482 0.328435
vn  0.610670 0.449065 0.652244
vn  0.910242 0.209585 0.357117
vn  0.578445 0.733663 0.356568
vn  0.930061 0.329732 0.162060
vn  0.492921 0.869290 0.036923
vn  0.899708 0.433525 0.050801
vn  0.195725 -0.358238 0.912884
vn  0.221380 0.006122 0.975169
vn  0.289805 0.270961 0.917929
vn  0.331914 0.547237 0.768352
vn  0.201653 0.873760 0.442582
vn  -0.598703 -0.601607 0.528795
vn  -0.621050 -0.221322 0.751874
vn  -0.683450 0.099647 0.723164
vn  -0.645193 0.277359 0.711897
vn  -0.586432 0.471696 0.658483
vn  0.426365 -0.369203 0.825774
vn  -0.653243 0.756006 0.041579
vn  0.122218 0.935254 -0.332209
vn  0.084501 0.699514 -0.709606
vn  -0.824787 0.548811 -0.136135
vn  -0.829594 0.260457 -0.493899
vn  0.105800 0.343475 -0.933183
vn  -0.793983 -0.014745 -0.607761
vn  0.162319 0.048124 -0.985564
vn  -0.741201 -0.401427 -0.538032
vn  0.112438 -0.446843 -0.887519
vn  -0.682689 -0.727877 0.064273
vn  0.075186 -0.855896 -0.511653
vn  -0.921177 -0.350026 0.170045
vn  0.248129 -0.805098 -0.538747
vn  -0.634298 -0.636106 -0.439358
vn  0.227335 0.973571 0.021858
vn  0.477772 0.877825 -0.034020
vn  0.324357 0.865035 -0.382762
vn  0.336337 0.618237 -0.710394
vn  0.257758 0.306115 -0.916436
vn  0.339129 0.018270 -0.940562
vn  0.268492 -0.417090 -0.868302
vn  -0.867942 0.000075 -0.496666
vn  -0.597001 0.070135 -0.799169
vn  -0.716982 0.283621 -0.636786
vn  -0.698343 0.503298 -0.508929
vn  -0.805875 0.554221 -0.208337
vn  -0.699202 0.713603 -0.043453
vn  -0.669082 -0.734234 -0.115019
vn  -0.584265 0.740405 0.332318
vn  -0.748361 0.631568 0.202675

g M1230
usemtl M1230_3
f  1/1/1 2/2/2 3/3/3
f  4/4/4 2/2/2 5/5/5
f  1/1/1 5/5/5 2/2/2
f  5/5/5 1/1/1 6/6/6
f  7/7/7 6/6/6 1/1/1
f  8/8/8 9/9/9 10/10/10
f  11/11/11 10/10/10 9/9/9
f  12/12/12 10/10/10 11/11/11
f  13/13/13 10/10/10 12/12/12
f  14/14/14 10/10/10 13/13/13
f  15/15/15 10/10/10 14/14/14
f  10/10/10 15/15/15 16/16/16
f  5/5/5 16/16/16 15/15/15
f  6/6/6 16/16/16 5/5/5
f  17/17/17 16/16/16 6/6/6
f  16/16/16 17/17/17 18/18/18
f  19/19/19 18/18/18 17/17/17
f  20/20/20 18/18/18 19/19/19
f  18/18/18 20/20/20 21/21/21
f  22/22/22 21/21/21 20/20/20
f  21/21/21 22/22/22 23/23/23
f  24/24/24 23/23/23 22/22/22
f  23/23/23 24/24/24 25/25/25
f  24/24/24 26/26/26 25/25/25
f  25/25/25 26/26/26 27/27/27
f  27/27/27 26/26/26 28/28/28
f  29/29/29 28/28/28 26/26/26
f  30/30/30 28/28/28 29/29/29
f  28/28/28 30/30/30 31/31/31
f  32/32/32 31/31/31 30/30/30
f  31/31/31 32/32/32 15/15/15
f  5/5/5 15/15/15 32/32/32
f  33/33/33 34/34/34 35/35/35
f  35/35/35 34/34/34 36/36/36
f  37/37/37 36/36/36 34/34/34
f  36/36/36 37/37/37 38/38/38
f  34/34/34 39/39/39 37/37/37
f  40/40/40 37/37/37 39/39/39
f  37/37/37 40/40/40 41/41/41
f  41/41/41 40/40/40 42/42/42
f  43/43/43 42/42/42 40/40/40
f  42/42/42 43/43/43 44/44/44
f  45/45/45 46/46/46 44/44/44
f  47/47/47 44/44/44 46/46/46
f  44/44/44 47/47/47 42/42/42
f  48/48/48 42/42/42 47/47/47
f  49/49/49 50/50/50 51/51/51
f  51/51/51 50/50/50 52/52/52
f  53/53/53 52/52/52 50/50/50
f  52/52/52 53/53/53 54/54/54
f  50/50/50 49/49/49 55/55/55
f  56/56/56 55/55/55 49/49/49
f  55/55/55 56/56/56 57/57/57
f  57/57/57 56/56/56 58/58/58
f  58/58/58 56/56/56 59/59/59
f  59/59/59 56/56/56 60/60/60
f  49/49/49 60/60/60 56/56/56
f  60/60/60 49/49/49 61/61/61
f  51/51/51 61/61/61 49/49/49
f  61/61/61 51/51/51 62/62/62
f  62/62/62 51/51/51 63/63/63
f  52/52/52 63/63/63 51/51/51
f  63/63/63 52/52/52 64/64/64
f  54/54/54 64/64/64 52/52/52
f  64/64/64 54/54/54 65/65/65
f  66/66/66 65/65/65 54/54/54
f  67/67/67 65/65/65 66/66/66
f  68/68/68 65/65/65 67/67/67
f  69/69/69 59/59/59 70/70/70
f  70/70/70 59/59/59 71/71/71
f  60/60/60 71/71/71 59/59/59
f  71/71/71 60/60/60 72/72/72
f  61/61/61 72/72/72 60/60/60
f  72/72/72 61/61/61 73/73/73
f  62/62/62 73/73/73 61/61/61
f  73/73/73 62/62/62 74/74/74
f  63/63/63 74/74/74 62/62/62
f  74/74/74 63/63/63 75/75/75
f  76/76/76 75/75/75 63/63/63
f  75/75/75 76/76/76 77/77/77
f  78/78/78 77/77/77 76/76/76
f  77/77/77 78/78/78 79/79/79
f  79/79/79 78/78/78 80/80/80
f  68/68/68 80/80/80 78/78/78
f  80/80/80 68/68/68 81/81/81
f  67/67/67 81/81/81 68/68/68
f  68/68/68 78/78/78 65/65/65
f  76/76/76 65/65/65 78/78/78
f  65/65/65 76/76/76 64/64/64
f  63/63/63 64/64/64 76/76/76
f  82/82/82 81/81/81 83/83/83
f  67/67/67 83/83/83 81/81/81
f  83/83/83 67/67/67 84/84/84
f  66/66/66 84/84/84 67/67/67
f  84/84/84 66/66/66 85/85/85
f  54/54/54 85/85/85 66/66/66
f  85/85/85 54/54/54 86/86/86
f  53/53/53 86/86/86 54/54/54
f  86/86/86 53/53/53 87/87/87
f  50/50/50 87/87/87 53/53/53
f  87/87/87 50/50/50 88/88/88
f  55/55/55 88/88/88 50/50/50
f  88/88/88 55/55/55 89/89/89
f  57/57/57 89/89/89 55/55/55
f  89/89/89 57/57/57 90/90/90
f  58/58/58 90/90/90 57/57/57
f  90/90/90 58/58/58 69/69/69
f  59/59/59 69/69/69 58/58/58
f  91/91/91 92/92/92 93/93/93
f  94/94/94 93/93/93 92/92/92
f  93/93/93 94/94/94 95/95/95
f  95/95/95 94/94/94 96/96/96
f  96/96/96 94/94/94 97/97/97
f  92/92/92 97/97/97 94/94/94
f  98/98/98 96/96/96 99/99/99
f  97/97/97 99/99/99 96/96/96
f  99/99/99 97/97/97 100/100/100
f  92/92/92 100/100/100 97/97/97
f  100/100/100 92/92/92 101/101/101
f  91/91/91 101/101/101 92/92/92
f  102/102/102 101/101/101 91/91/91
f  101/101/101 102/102/102 103/103/103
f  104/104/104 103/103/103 102/102/102
f  103/103/103 104/104/104 105/105/105
f  106/106/106 105/105/105 104/104/104
f  105/105/105 106/106/106 107/107/107
f  108/108/108 107/107/107 106/106/106
f  107/107/107 108/108/108 109/109/109
f  110/110/110 109/109/109 108/108/108
f  109/109/109 110/110/110 111/111/111
f  112/112/112 111/111/111 110/110/110
f  100/100/100 101/101/101 113/113/113
f  103/103/103 113/113/113 101/101/101
f  113/113/113 103/103/103 114/114/114
f  105/105/105 114/114/114 103/103/103
f  114/114/114 105/105/105 115/115/115
f  107/107/107 115/115/115 105/105/105
f  115/115/115 107/107/107 116/116/116
f  109/109/109 116/116/116 107/107/107
f  116/116/116 109/109/109 117/117/117
f  99/99/99 100/100/100 118/118/118
f  113/113/113 118/118/118 100/100/100
f  118/118/118 113/113/113 119/119/119
f  114/114/114 119/119/119 113/113/113
f  119/119/119 114/114/114 120/120/120
f  115/115/115 120/120/120 114/114/114
f  120/120/120 115/115/115 121/121/121
f  116/116/116 121/121/121 115/115/115
f  121/121/121 116/116/116 122/122/122
f  117/117/117 122/122/122 116/116/116
f  122/122/122 117/117/117 123/123/123
f  123/123/123 117/117/117 124/124/124
f  109/109/109 124/124/124 117/117/117
f  124/124/124 109/109/109 111/111/111
f  125/125/125 126/126/126 127/127/127
f  127/127/127 126/126/126 128/128/128
f  129/129/129 128/128/128 126/126/126
f  128/128/128 129/129/129 130/130/130
f  131/131/131 130/130/130 129/129/129
f  130/130/130 131/131/131 132/132/132
f  133/133/133 132/132/132 131/131/131
f  132/132/132 133/133/133 134/134/134
f  135/135/135 134/134/134 133/133/133
f  134/134/134 135/135/135 136/136/136
f  137/137/137 136/136/136 135/135/135
f  136/136/136 137/137/137 138/138/138
f  139/139/139 140/140/140 125/125/125
f  141/141/141 125/125/125 140/140/140
f  125/125/125 141/141/141 126/126/126
f  142/142/142 126/126/126 141/141/141
f  126/126/126 142/142/142 129/129/129
f  143/143/143 129/129/129 142/142/142
f  129/129/129 143/143/143 131/131/131
f  144/144/144 131/131/131 143/143/143
f  131/131/131 144/144/144 133/133/133
f  145/145/145 133/133/133 144/144/144
f  133/133/133 145/145/145 135/135/135
f  137/137/137 135/135/135 145/145/145
f  138/138/138 137/137/137 146/146/146
f  145/145/145 146/146/146 137/137/137
f  146/146/146 145/145/145 147/147/147
f  144/144/144 147/147/147 145/145/145
f  147/147/147 144/144/144 148/148/148
f  143/143/143 148/148/148 144/144/144
f  148/148/148 143/143/143 149/149/149
f  142/142/142 149/149/149 143/143/143
f  149/149/149 142/142/142 150/150/150
f  141/141/141 150/150/150 142/142/142
f  150/150/150 141/141/141 151/151/151
f  140/140/140 151/151/151 141/141/141
f  151/151/151 140/140/140 152/152/152
f  139/139/139 152/152/152 140/140/140
f  152/152/152 139/139/139 153/153/153
f  153/153/153 139/139/139 154/154/154
f  125/125/125 154/154/154 139/139/139
f  154/154/154 125/125/125 127/127/127

g
