# Noesis .obj export.
#
mtllib m1249.mtl
g
v  0.310611 0.251613 0.144251
v  0.312840 0.259879 0.128215
v  0.302004 0.258396 0.129884
v  0.313206 0.253627 0.125263
v  0.302369 0.252142 0.126970
v  0.313206 0.253627 0.125263
v  0.310976 0.245355 0.141578
v  0.306971 0.238065 0.155452
v  0.306607 0.244320 0.157870
v  0.299480 0.231948 0.167180
v  0.299172 0.238140 0.169349
v  0.288421 0.226636 0.176269
v  0.288058 0.232952 0.178264
v  0.276158 0.222132 0.183072
v  0.275792 0.228439 0.184931
v  0.282989 0.238036 0.167193
v  0.274026 0.234723 0.171614
v  0.274391 0.228432 0.169497
v  0.276158 0.222132 0.183072
v  0.274391 0.228432 0.169497
v  0.283409 0.231422 0.165627
v  0.290825 0.234759 0.159840
v  0.290503 0.241549 0.161730
v  0.297302 0.246711 0.152344
v  0.297699 0.240469 0.149825
v  0.300361 0.252098 0.142383
v  0.300726 0.245839 0.139684
v  0.302369 0.252142 0.126970
v  0.301076 0.284762 0.065503
v  0.310595 0.288803 0.047483
v  0.265676 0.295789 0.046306
v  0.276990 0.301009 0.028728
v  0.306486 0.285829 0.044394
v  0.280782 0.294763 0.030912
v  0.264616 0.294387 0.050513
v  0.226015 0.291705 0.053528
v  0.226905 0.290668 0.057711
v  0.207699 0.289243 0.064262
v  0.209739 0.288674 0.066838
v  0.193403 0.285623 0.078566
v  0.196753 0.284739 0.081024
v  0.187564 0.278663 0.094491
v  0.190670 0.278147 0.096142
v  0.186398 0.263437 0.121544
v  0.183351 0.263397 0.120735
v  0.186144 0.239178 0.158576
v  0.182784 0.238148 0.160662
v  0.223352 0.224051 0.182767
v  0.214044 0.204894 0.196060
v  0.173166 0.218514 0.170659
v  0.207033 0.204152 0.191637
v  0.179999 0.212835 0.174020
v  0.193676 0.276471 0.096588
v  0.189347 0.262327 0.121208
v  0.189406 0.239055 0.155453
v  0.225371 0.226213 0.179987
v  0.263193 0.226532 0.182793
v  0.262978 0.224347 0.186282
v  0.287320 0.231521 0.175692
v  0.286059 0.233557 0.172838
v  0.300059 0.240053 0.159860
v  0.302620 0.238487 0.161948
v  0.306090 0.251503 0.138437
v  0.309444 0.250622 0.138879
v  0.306194 0.262065 0.117364
v  0.310289 0.261538 0.116781
v  0.298226 0.284110 0.068943
v  0.251521 0.267863 0.118821
v  0.227291 0.227218 0.176254
v  0.263309 0.227561 0.178368
v  0.284699 0.234438 0.169008
v  0.297400 0.240468 0.156745
v  0.302636 0.251234 0.136899
v  0.301999 0.261439 0.116797
v  0.295277 0.282272 0.071149
v  0.263457 0.291770 0.053457
v  0.227696 0.288426 0.060643
v  0.211680 0.286921 0.068166
v  0.200004 0.282681 0.082254
v  0.322151 0.127405 -0.205786
v  0.300692 0.134505 -0.205711
v  0.340949 0.199611 -0.157029
v  0.317636 0.211681 -0.157051
v  0.338267 0.259894 -0.078307
v  0.314467 0.266672 -0.078346
v  0.321612 0.296613 0.000428
v  0.296039 0.302067 0.000266
v  0.306486 0.285829 0.044394
v  0.280782 0.294763 0.030912
v  0.207033 0.204152 0.191637
v  0.179999 0.212835 0.174020
v  0.166107 0.148083 0.243196
v  0.139783 0.153739 0.239316
v  0.122377 0.049032 0.269419
v  0.100865 0.067068 0.272515
v  0.105365 -0.038804 0.297712
v  0.081426 -0.037806 0.297262
v  0.086276 -0.124532 0.260950
v  0.109818 -0.124200 0.262089
v  0.090981 -0.195400 0.203501
v  0.114294 -0.196292 0.203702
v  0.222798 0.293708 0.053963
v  0.222605 0.287141 0.050657
v  0.207858 0.291962 0.062242
v  0.207666 0.285401 0.058974
v  0.194964 0.282731 0.069904
v  0.195156 0.289284 0.073108
v  0.188068 0.278141 0.083649
v  0.188260 0.284684 0.086734
v  0.184695 0.279268 0.099180
v  0.184503 0.272731 0.096245
v  0.181921 0.264419 0.112086
v  0.182113 0.270953 0.114776
v  0.193365 0.269947 0.125351
v  0.195718 0.277354 0.100501
v  0.199256 0.282394 0.089733
v  0.204783 0.286216 0.077605
v  0.213633 0.288212 0.070835
v  0.223984 0.289187 0.065273
v  0.182113 0.270953 0.114776
v  0.181921 0.264419 0.112086
v  0.193173 0.263410 0.110828
v  0.195526 0.270816 0.097607
v  0.199064 0.275852 0.086699
v  0.204590 0.279666 0.074463
v  0.213441 0.281657 0.067642
v  0.223791 0.282628 0.062052
v  0.222798 0.293708 0.053963
v  0.222605 0.287141 0.050657
v  0.114294 -0.196292 0.203702
v  0.090981 -0.195400 0.203501
v  0.135941 -0.233738 0.114398
v  0.112812 -0.232558 0.114268
v  0.141579 -0.251403 0.001181
v  0.163925 -0.252551 0.006625
v  0.169744 -0.229156 -0.107770
v  0.191640 -0.222482 -0.103767
v  0.220311 -0.171861 -0.187422
v  0.198863 -0.174605 -0.199288
v  0.235327 -0.051161 -0.248956
v  0.256647 -0.052043 -0.241526
v  0.271095 0.055389 -0.233390
v  0.293357 0.048136 -0.233570
v  0.300692 0.134505 -0.205711
v  0.322151 0.127405 -0.205786

vt  0.938909 -0.110967 0.000000
vt  0.938909 -0.047921 0.000000
vt  0.892490 -0.047921 0.000000
vt  0.938909 -0.021772 0.000000
vt  0.892490 -0.021772 0.000000
vt  0.981049 -0.047921 0.000000
vt  0.981049 -0.110967 0.000000
vt  0.981049 -0.165239 0.000000
vt  0.938909 -0.165239 0.000000
vt  0.981049 -0.222522 0.000000
vt  0.938909 -0.222522 0.000000
vt  0.981049 -0.276063 0.000000
vt  0.938909 -0.276063 0.000000
vt  0.981049 -0.330326 0.000000
vt  0.938909 -0.330326 0.000000
vt  0.892490 -0.276063 0.000000
vt  0.892490 -0.330326 0.000000
vt  0.892490 -0.359213 0.000000
vt  0.938909 -0.359213 0.000000
vt  0.866697 -0.330326 0.000000
vt  0.866697 -0.276063 0.000000
vt  0.866697 -0.222522 0.000000
vt  0.892490 -0.222522 0.000000
vt  0.892490 -0.165239 0.000000
vt  0.866697 -0.165239 0.000000
vt  0.892490 -0.110967 0.000000
vt  0.866697 -0.110967 0.000000
vt  0.866697 -0.047921 0.000000
vt  0.644057 -0.133558 0.000000
vt  0.644057 -0.039705 0.000000
vt  0.452772 -0.133558 0.000000
vt  0.452772 -0.034948 0.000000
vt  0.630949 -0.018737 0.000000
vt  0.474046 -0.018737 0.000000
vt  0.459413 -0.150727 0.000000
vt  0.314952 -0.263517 0.000000
vt  0.327783 -0.277765 0.000000
vt  0.269332 -0.352621 0.000000
vt  0.282937 -0.356572 0.000000
vt  0.249230 -0.447234 0.000000
vt  0.268082 -0.447679 0.000000
vt  0.253219 -0.540211 0.000000
vt  0.268807 -0.537714 0.000000
vt  0.310693 -0.678465 0.000000
vt  0.298171 -0.683896 0.000000
vt  0.435122 -0.800643 0.000000
vt  0.427525 -0.816946 0.000000
vt  0.639245 -0.816946 0.000000
vt  0.639245 -0.907041 0.000000
vt  0.427525 -0.907041 0.000000
vt  0.607326 -0.924060 0.000000
vt  0.451983 -0.924060 0.000000
vt  0.284395 -0.535218 0.000000
vt  0.323214 -0.673034 0.000000
vt  0.442719 -0.784340 0.000000
vt  0.638598 -0.800643 0.000000
vt  0.775964 -0.709743 0.000000
vt  0.783846 -0.723185 0.000000
vt  0.868844 -0.604285 0.000000
vt  0.856106 -0.596225 0.000000
vt  0.880508 -0.514783 0.000000
vt  0.896618 -0.517096 0.000000
vt  0.859375 -0.405708 0.000000
vt  0.874960 -0.400696 0.000000
vt  0.809480 -0.312770 0.000000
vt  0.822949 -0.306237 0.000000
vt  0.640979 -0.150727 0.000000
vt  0.582191 -0.469854 0.000000
vt  0.637951 -0.784340 0.000000
vt  0.768082 -0.696300 0.000000
vt  0.843368 -0.588165 0.000000
vt  0.864398 -0.512470 0.000000
vt  0.843790 -0.410720 0.000000
vt  0.796011 -0.319304 0.000000
vt  0.637901 -0.167897 0.000000
vt  0.466055 -0.167897 0.000000
vt  0.340614 -0.292013 0.000000
vt  0.296542 -0.360522 0.000000
vt  0.286935 -0.448124 0.000000
vt  0.115963 -0.984033 0.000000
vt  0.206196 -0.984033 0.000000
vt  0.115963 -0.674615 0.000000
vt  0.206196 -0.674615 0.000000
vt  0.115963 -0.374617 0.000000
vt  0.206196 -0.374617 0.000000
vt  0.115963 -0.118198 0.000000
vt  0.206196 -0.118198 0.000000
vt  0.115963 -0.031432 0.000000
vt  0.206196 -0.031432 0.000000
vt  0.115963 -0.031432 0.000000
vt  0.206196 -0.031432 0.000000
vt  0.115963 -0.118198 0.000000
vt  0.206196 -0.118198 0.000000
vt  0.115963 -0.374617 0.000000
vt  0.206196 -0.374617 0.000000
vt  0.115963 -0.674615 0.000000
vt  0.206196 -0.674615 0.000000
vt  0.206196 -0.831673 0.000000
vt  0.115963 -0.828926 0.000000
vt  0.206196 -0.984033 0.000000
vt  0.115963 -0.984033 0.000000
vt  0.893049 -0.945133 0.000000
vt  0.862144 -0.945133 0.000000
vt  0.893049 -0.885076 0.000000
vt  0.862144 -0.885076 0.000000
vt  0.862144 -0.825022 0.000000
vt  0.893049 -0.825022 0.000000
vt  0.862144 -0.761385 0.000000
vt  0.893049 -0.761385 0.000000
vt  0.893049 -0.702928 0.000000
vt  0.862144 -0.702928 0.000000
vt  0.862144 -0.641077 0.000000
vt  0.893049 -0.641077 0.000000
vt  0.944048 -0.641077 0.000000
vt  0.944048 -0.702928 0.000000
vt  0.944048 -0.761385 0.000000
vt  0.944048 -0.825022 0.000000
vt  0.944048 -0.885076 0.000000
vt  0.944048 -0.945133 0.000000
vt  0.944048 -0.608195 0.000000
vt  0.974799 -0.608195 0.000000
vt  0.974799 -0.641077 0.000000
vt  0.974799 -0.702928 0.000000
vt  0.974799 -0.761385 0.000000
vt  0.974799 -0.825022 0.000000
vt  0.974799 -0.885076 0.000000
vt  0.974799 -0.945133 0.000000
vt  0.944048 -0.976537 0.000000
vt  0.974799 -0.976537 0.000000
vt  0.011762 -0.984033 0.000000
vt  0.101258 -0.984033 0.000000
vt  0.011762 -0.640849 0.000000
vt  0.101258 -0.640849 0.000000
vt  0.101258 -0.470055 0.000000
vt  0.011762 -0.474844 0.000000
vt  0.101258 -0.340850 0.000000
vt  0.011762 -0.340850 0.000000
vt  0.011762 -0.031432 0.000000
vt  0.101258 -0.031432 0.000000
vt  0.101258 -0.340850 0.000000
vt  0.011762 -0.340850 0.000000
vt  0.101258 -0.640849 0.000000
vt  0.011762 -0.640849 0.000000
vt  0.101258 -0.984033 0.000000
vt  0.011762 -0.984033 0.000000

vn  0.668267 0.592241 0.450189
vn  0.529863 0.798816 -0.284847
vn  -0.619835 0.745900 -0.243800
vn  0.685460 0.341967 -0.642809
vn  -0.737182 0.248921 -0.628173
vn  0.685460 0.341967 -0.642809
vn  0.980046 -0.027501 0.196857
vn  0.920531 -0.094356 0.379104
vn  0.636427 0.523211 0.566755
vn  0.773913 -0.175932 0.608364
vn  0.526572 0.456024 0.717471
vn  0.599823 -0.212691 0.771346
vn  0.365989 0.439043 0.820544
vn  -0.417124 -0.283238 0.863588
vn  -0.407023 0.212644 0.888321
vn  -0.505376 0.825874 -0.250055
vn  -0.761851 0.632853 -0.138133
vn  -0.901522 0.090670 -0.423127
vn  -0.417124 -0.283238 0.863588
vn  -0.901522 0.090670 -0.423127
vn  -0.556022 0.174159 -0.812717
vn  -0.736741 0.147194 -0.659959
vn  -0.582448 0.806236 -0.103623
vn  -0.669244 0.738667 0.080516
vn  -0.913536 0.102647 -0.393593
vn  -0.713343 0.671636 0.200116
vn  -0.980077 0.027576 -0.196694
vn  -0.737182 0.248921 -0.628173
vn  0.158245 0.938317 0.307440
vn  0.367523 0.923705 -0.108153
vn  0.076091 0.940799 0.330315
vn  0.337460 0.941282 -0.010470
vn  0.545619 0.604945 -0.579949
vn  0.529610 0.552689 -0.643465
vn  0.005135 0.890084 0.455768
vn  -0.022309 0.968666 0.247361
vn  0.046081 0.911913 0.407789
vn  -0.007651 0.974673 0.223503
vn  0.130797 0.910137 0.393119
vn  -0.003240 0.942316 0.334710
vn  0.141823 0.896542 0.419642
vn  -0.076076 0.902012 0.424956
vn  0.124323 0.866144 0.484085
vn  0.095299 0.842236 0.530620
vn  -0.140780 0.849415 0.508601
vn  0.152313 0.876482 0.456705
vn  -0.082578 0.765069 0.638631
vn  -0.109360 0.743589 0.659633
vn  -0.304722 0.491453 0.815855
vn  -0.371198 0.430197 0.822887
vn  -0.444604 0.285514 0.849005
vn  -0.504904 0.100501 0.857305
vn  0.182650 0.854897 0.485582
vn  0.164993 0.830253 0.532407
vn  0.229178 0.866472 0.443512
vn  -0.004960 0.884179 0.467122
vn  -0.060795 0.910063 0.409988
vn  -0.039640 0.847897 0.528677
vn  0.045073 0.825629 0.562410
vn  -0.044029 0.896719 0.440404
vn  -0.032848 0.898692 0.437348
vn  0.103563 0.851551 0.513941
vn  -0.031061 0.890080 0.454744
vn  0.165831 0.866524 0.470782
vn  -0.001755 0.901195 0.433411
vn  0.175183 0.893872 0.412680
vn  0.070754 0.909642 0.409323
vn  0.027685 0.888450 0.458138
vn  0.005231 0.914516 0.404515
vn  -0.085632 0.923774 0.373240
vn  -0.087473 0.910988 0.403049
vn  -0.109713 0.901938 0.417697
vn  -0.084686 0.886154 0.455588
vn  -0.035462 0.898914 0.436688
vn  -0.063123 0.886566 0.458276
vn  -0.002908 0.836757 0.547567
vn  0.080087 0.879626 0.468876
vn  0.185281 0.857299 0.480322
vn  0.188975 0.878407 0.438964
vn  0.133149 0.411977 -0.901414
vn  0.140639 0.411217 -0.900622
vn  0.304477 0.603357 -0.737058
vn  0.321226 0.648922 -0.689720
vn  0.255625 0.841455 -0.476035
vn  0.240428 0.862382 -0.445525
vn  0.213918 0.972315 -0.094030
vn  0.201290 0.978745 0.039248
vn  0.545619 0.604945 -0.579949
vn  0.529610 0.552689 -0.643465
vn  -0.444604 0.285514 0.849005
vn  -0.504904 0.100501 0.857305
vn  -0.031643 0.555351 0.831014
vn  0.012244 0.495225 0.868678
vn  0.293895 0.231493 0.927382
vn  0.293736 0.221721 0.929816
vn  0.002422 -0.075584 0.997136
vn  -0.022402 -0.087949 0.995873
vn  -0.033812 -0.512672 0.857919
vn  -0.034358 -0.514636 0.856720
vn  -0.036017 -0.786930 0.615991
vn  -0.036204 -0.816045 0.576853
vn  0.419676 0.782687 -0.459645
vn  0.474806 0.383787 -0.792002
vn  -0.350478 0.891363 -0.287468
vn  -0.562933 0.381649 -0.733110
vn  -0.782760 0.292381 -0.549364
vn  -0.530420 0.834624 -0.148520
vn  -0.936296 0.172058 -0.306179
vn  -0.626495 0.777222 0.058557
vn  -0.666633 0.730917 0.146151
vn  -0.980117 0.104122 -0.168909
vn  -0.834437 -0.421074 0.355543
vn  -0.824331 0.347979 0.446529
vn  0.320964 0.044163 0.946061
vn  0.744891 0.555108 0.370124
vn  0.684177 0.548942 0.480171
vn  0.589814 0.509786 0.626289
vn  0.450854 0.427333 0.783656
vn  0.743466 0.352718 0.568198
vn  -0.824331 0.347979 0.446529
vn  -0.834437 -0.421074 0.355543
vn  0.768318 -0.581652 0.267148
vn  0.976082 -0.112016 0.186321
vn  0.938047 -0.168771 0.302630
vn  0.779974 -0.289941 0.554595
vn  0.538717 -0.382118 0.750846
vn  0.898114 -0.214581 0.383857
vn  0.419676 0.782687 -0.459645
vn  0.474806 0.383787 -0.792002
vn  -0.036204 -0.816045 0.576853
vn  -0.036017 -0.786930 0.615991
vn  -0.052336 -0.967541 0.247237
vn  -0.050469 -0.958208 0.281586
vn  -0.043017 -0.998772 -0.024585
vn  -0.024190 -0.999371 -0.025951
vn  0.305960 -0.910402 -0.278491
vn  0.328192 -0.894217 -0.304409
vn  0.412187 -0.674921 -0.612033
vn  0.419813 -0.679414 -0.601792
vn  0.321177 -0.260128 -0.910592
vn  0.295897 -0.191967 -0.935732
vn  0.072885 0.182948 -0.980417
vn  0.054392 0.189796 -0.980316
vn  0.140639 0.411217 -0.900622
vn  0.133149 0.411977 -0.901414

g M1249
usemtl M1249_3
f  1/1/1 2/2/2 3/3/3
f  4/4/4 3/3/3 2/2/2
f  3/3/3 4/4/4 5/5/5
f  6/6/6 2/2/2 7/7/7
f  1/1/1 7/7/7 2/2/2
f  7/7/7 1/1/1 8/8/8
f  9/9/9 8/8/8 1/1/1
f  8/8/8 9/9/9 10/10/10
f  11/11/11 10/10/10 9/9/9
f  10/10/10 11/11/11 12/12/12
f  13/13/13 12/12/12 11/11/11
f  12/12/12 13/13/13 14/14/14
f  14/14/14 13/13/13 15/15/15
f  16/16/16 15/15/15 13/13/13
f  17/17/17 15/15/15 16/16/16
f  18/18/18 15/15/15 17/17/17
f  15/15/15 18/18/18 19/19/19
f  20/20/20 17/17/17 21/21/21
f  16/16/16 21/21/21 17/17/17
f  21/21/21 16/16/16 22/22/22
f  22/22/22 16/16/16 23/23/23
f  13/13/13 23/23/23 16/16/16
f  11/11/11 23/23/23 13/13/13
f  9/9/9 23/23/23 11/11/11
f  24/24/24 23/23/23 9/9/9
f  23/23/23 24/24/24 22/22/22
f  22/22/22 24/24/24 25/25/25
f  26/26/26 25/25/25 24/24/24
f  25/25/25 26/26/26 27/27/27
f  27/27/27 26/26/26 28/28/28
f  28/28/28 26/26/26 3/3/3
f  3/3/3 26/26/26 1/1/1
f  24/24/24 1/1/1 26/26/26
f  1/1/1 24/24/24 9/9/9
f  29/29/29 30/30/30 31/31/31
f  31/31/31 30/30/30 32/32/32
f  33/33/33 32/32/32 30/30/30
f  32/32/32 33/33/33 34/34/34
f  29/29/29 31/31/31 35/35/35
f  36/36/36 35/35/35 31/31/31
f  35/35/35 36/36/36 37/37/37
f  38/38/38 37/37/37 36/36/36
f  37/37/37 38/38/38 39/39/39
f  40/40/40 39/39/39 38/38/38
f  39/39/39 40/40/40 41/41/41
f  42/42/42 41/41/41 40/40/40
f  41/41/41 42/42/42 43/43/43
f  43/43/43 42/42/42 44/44/44
f  45/45/45 44/44/44 42/42/42
f  44/44/44 45/45/45 46/46/46
f  47/47/47 46/46/46 45/45/45
f  46/46/46 47/47/47 48/48/48
f  48/48/48 47/47/47 49/49/49
f  50/50/50 49/49/49 47/47/47
f  49/49/49 50/50/50 51/51/51
f  52/52/52 51/51/51 50/50/50
f  44/44/44 53/53/53 43/43/43
f  53/53/53 44/44/44 54/54/54
f  46/46/46 54/54/54 44/44/44
f  54/54/54 46/46/46 55/55/55
f  55/55/55 46/46/46 56/56/56
f  48/48/48 56/56/56 46/46/46
f  56/56/56 48/48/48 57/57/57
f  58/58/58 57/57/57 48/48/48
f  59/59/59 57/57/57 58/58/58
f  57/57/57 59/59/59 60/60/60
f  60/60/60 59/59/59 61/61/61
f  62/62/62 61/61/61 59/59/59
f  61/61/61 62/62/62 63/63/63
f  64/64/64 63/63/63 62/62/62
f  63/63/63 64/64/64 65/65/65
f  66/66/66 65/65/65 64/64/64
f  65/65/65 66/66/66 67/67/67
f  29/29/29 67/67/67 66/66/66
f  53/53/53 54/54/54 68/68/68
f  55/55/55 68/68/68 54/54/54
f  68/68/68 55/55/55 69/69/69
f  56/56/56 69/69/69 55/55/55
f  69/69/69 56/56/56 70/70/70
f  57/57/57 70/70/70 56/56/56
f  60/60/60 70/70/70 57/57/57
f  70/70/70 60/60/60 71/71/71
f  61/61/61 71/71/71 60/60/60
f  71/71/71 61/61/61 72/72/72
f  63/63/63 72/72/72 61/61/61
f  72/72/72 63/63/63 73/73/73
f  65/65/65 73/73/73 63/63/63
f  73/73/73 65/65/65 74/74/74
f  74/74/74 65/65/65 75/75/75
f  67/67/67 75/75/75 65/65/65
f  76/76/76 75/75/75 67/67/67
f  75/75/75 76/76/76 68/68/68
f  69/69/69 70/70/70 68/68/68
f  71/71/71 68/68/68 70/70/70
f  72/72/72 68/68/68 71/71/71
f  73/73/73 68/68/68 72/72/72
f  74/74/74 68/68/68 73/73/73
f  68/68/68 74/74/74 75/75/75
f  35/35/35 67/67/67 29/29/29
f  67/67/67 35/35/35 76/76/76
f  37/37/37 76/76/76 35/35/35
f  76/76/76 37/37/37 77/77/77
f  39/39/39 77/77/77 37/37/37
f  77/77/77 39/39/39 78/78/78
f  41/41/41 78/78/78 39/39/39
f  78/78/78 41/41/41 79/79/79
f  43/43/43 79/79/79 41/41/41
f  53/53/53 79/79/79 43/43/43
f  76/76/76 77/77/77 68/68/68
f  78/78/78 68/68/68 77/77/77
f  79/79/79 68/68/68 78/78/78
f  68/68/68 79/79/79 53/53/53
f  80/80/80 81/81/81 82/82/82
f  83/83/83 82/82/82 81/81/81
f  82/82/82 83/83/83 84/84/84
f  85/85/85 84/84/84 83/83/83
f  84/84/84 85/85/85 86/86/86
f  87/87/87 86/86/86 85/85/85
f  86/86/86 87/87/87 88/88/88
f  89/89/89 88/88/88 87/87/87
f  90/90/90 91/91/91 92/92/92
f  93/93/93 92/92/92 91/91/91
f  92/92/92 93/93/93 94/94/94
f  95/95/95 94/94/94 93/93/93
f  94/94/94 95/95/95 96/96/96
f  97/97/97 96/96/96 95/95/95
f  98/98/98 96/96/96 97/97/97
f  96/96/96 98/98/98 99/99/99
f  100/100/100 99/99/99 98/98/98
f  99/99/99 100/100/100 101/101/101
f  102/102/102 103/103/103 104/104/104
f  105/105/105 104/104/104 103/103/103
f  106/106/106 104/104/104 105/105/105
f  104/104/104 106/106/106 107/107/107
f  108/108/108 107/107/107 106/106/106
f  107/107/107 108/108/108 109/109/109
f  109/109/109 108/108/108 110/110/110
f  111/111/111 110/110/110 108/108/108
f  112/112/112 113/113/113 111/111/111
f  111/111/111 113/113/113 110/110/110
f  114/114/114 110/110/110 113/113/113
f  115/115/115 110/110/110 114/114/114
f  110/110/110 115/115/115 109/109/109
f  116/116/116 109/109/109 115/115/115
f  117/117/117 109/109/109 116/116/116
f  109/109/109 117/117/117 107/107/107
f  118/118/118 107/107/107 117/117/117
f  107/107/107 118/118/118 104/104/104
f  104/104/104 118/118/118 102/102/102
f  119/119/119 102/102/102 118/118/118
f  120/120/120 121/121/121 114/114/114
f  122/122/122 114/114/114 121/121/121
f  114/114/114 122/122/122 115/115/115
f  123/123/123 115/115/115 122/122/122
f  115/115/115 123/123/123 116/116/116
f  124/124/124 116/116/116 123/123/123
f  116/116/116 124/124/124 117/117/117
f  125/125/125 117/117/117 124/124/124
f  117/117/117 125/125/125 118/118/118
f  126/126/126 118/118/118 125/125/125
f  118/118/118 126/126/126 119/119/119
f  127/127/127 119/119/119 126/126/126
f  119/119/119 127/127/127 128/128/128
f  129/129/129 128/128/128 127/127/127
f  130/130/130 131/131/131 132/132/132
f  133/133/133 132/132/132 131/131/131
f  134/134/134 132/132/132 133/133/133
f  132/132/132 134/134/134 135/135/135
f  136/136/136 135/135/135 134/134/134
f  135/135/135 136/136/136 137/137/137
f  137/137/137 136/136/136 138/138/138
f  139/139/139 138/138/138 136/136/136
f  140/140/140 138/138/138 139/139/139
f  138/138/138 140/140/140 141/141/141
f  142/142/142 141/141/141 140/140/140
f  141/141/141 142/142/142 143/143/143
f  144/144/144 143/143/143 142/142/142
f  143/143/143 144/144/144 145/145/145

g
