# Noesis .obj export.
#
mtllib M611.mtl
g
v  -0.170295 -0.074974 0.992907
v  -0.270291 -0.097441 1.126065
v  -0.184816 -0.190715 1.082389
v  -0.077932 -0.098026 0.981791
v  -0.087543 -0.219553 1.029603
v  0.028872 -0.190715 1.022452
v  0.009945 -0.074974 0.992907
v  -0.077932 -0.098026 0.981791
v  -0.087543 -0.219553 1.029603
v  0.128120 -0.086867 1.049867
v  -0.193841 0.019716 0.992826
v  -0.303546 0.019716 1.136638
v  -0.077694 0.019716 0.889525
v  -0.077694 0.019716 0.889525
v  0.029867 0.019716 0.969605
v  0.142816 0.019716 1.064937
v  -0.256715 0.146163 1.133926
v  -0.303546 0.019716 1.136638
v  -0.193841 0.019716 0.992826
v  -0.169936 0.114120 1.011606
v  -0.077694 0.019716 0.889525
v  -0.078417 0.136962 0.982046
v  0.008657 0.114120 0.978795
v  -0.078417 0.136962 0.982046
v  -0.077694 0.019716 0.889525
v  0.029867 0.019716 0.969605
v  0.128120 0.126300 1.070465
v  0.142816 0.019716 1.064937
v  -0.175283 0.230148 1.111131
v  -0.062758 0.258986 1.072007
v  0.034729 0.230148 1.058650
v  -0.062758 0.258986 1.072007
v  -0.328206 -0.107671 1.091302
v  -0.199166 -0.231825 1.036303
v  -0.087449 -0.266302 0.985492
v  -0.087449 -0.266302 0.985492
v  0.051601 -0.231825 0.998129
v  0.182178 -0.107671 0.999237
v  -0.345776 0.019754 1.091302
v  0.199749 0.019754 0.999237
v  -0.317012 0.144395 1.072381
v  -0.345776 0.019754 1.091302
v  0.199749 0.019754 0.999237
v  0.196639 0.156275 0.997799
v  -0.205716 0.259897 1.065357
v  -0.077199 0.309019 1.023053
v  0.048500 0.274224 1.021256
v  -0.077199 0.309019 1.023053
v  -0.199166 -0.231825 1.036303
v  -0.328206 -0.107671 1.091302
v  -0.437370 -0.186873 0.670932
v  -0.286405 -0.344542 0.646265
v  -0.087449 -0.266302 0.985492
v  -0.078353 -0.381814 0.630310
v  0.051601 -0.231825 0.998129
v  -0.087449 -0.266302 0.985492
v  -0.078353 -0.381814 0.630310
v  0.152661 -0.334088 0.669661
v  0.182178 -0.107671 0.999237
v  0.301146 -0.181294 0.725505
v  -0.345776 0.019754 1.091302
v  -0.477605 0.022076 0.686966
v  0.199749 0.019754 0.999237
v  0.319823 0.036529 0.725505
v  -0.345776 0.019754 1.091302
v  -0.317012 0.144395 1.072381
v  -0.437046 0.190950 0.686966
v  -0.477605 0.022076 0.686966
v  0.196639 0.156275 0.997799
v  0.199749 0.019754 0.999237
v  0.319823 0.036529 0.725505
v  0.263686 0.216443 0.725505
v  -0.205716 0.259897 1.065357
v  -0.344826 0.313113 0.664385
v  -0.077199 0.309019 1.023053
v  -0.078353 0.425965 0.690875
v  -0.077199 0.309019 1.023053
v  0.048500 0.274224 1.021256
v  0.117103 0.377286 0.712502
v  -0.078353 0.425965 0.690875
v  -0.550092 -0.241825 0.573072
v  -0.360755 -0.412021 0.565959
v  0.335964 -0.207668 0.654466
v  -0.605670 -0.004175 0.594309
v  0.366722 0.036529 0.654466
v  -0.527903 0.206462 0.611567
v  -0.605670 -0.004175 0.594309
v  0.366722 0.036529 0.654466
v  0.304438 0.250396 0.654466
v  0.142779 0.416195 0.664973
v  -0.637128 -0.273813 0.220725
v  -0.353902 -0.506387 0.250248
v  0.018572 -0.394727 0.272864
v  0.018572 -0.394727 0.272864
v  0.316770 -0.366120 0.298666
v  0.505954 -0.341806 0.384884
v  -0.699577 0.020208 0.220725
v  0.503683 0.032783 0.374365
v  -0.612519 0.259235 0.220725
v  -0.699577 0.020208 0.220725
v  0.503683 0.032783 0.374365
v  0.407783 0.284930 0.352926
v  -0.447148 0.443939 0.250248
v  -0.066729 0.562819 0.298666
v  0.193302 0.508901 0.326269
v  -0.066729 0.562819 0.298666
v  -0.677473 -0.312474 -0.003044
v  -0.403333 -0.571827 -0.003044
v  0.006826 -0.414957 -0.003044
v  0.006826 -0.414957 -0.003044
v  0.325857 -0.447054 -0.003044
v  0.600151 -0.395580 -0.003044
v  -0.755180 0.020351 -0.003044
v  0.587397 0.020292 0.113033
v  -0.674143 0.290032 -0.003044
v  -0.755180 0.020351 -0.003044
v  0.755180 0.020351 -0.003044
v  0.500467 0.310251 -0.003044
v  0.587397 0.020292 0.113033
v  -0.468405 0.482226 -0.003044
v  -0.066997 0.624316 -0.003044
v  0.252656 0.570899 -0.003044
v  -0.066997 0.624316 -0.003044
v  0.755180 0.020351 -0.003044

vt  0.929663 -0.835035 0.000000
vt  0.942692 -0.922604 0.000000
vt  0.965775 -0.867981 0.000000
vt  0.940711 -0.787006 0.000000
vt  0.975652 -0.809396 0.000000
vt  0.930000 -0.664488 0.000000
vt  0.921792 -0.599960 0.000000
vt  0.897739 -0.615522 0.000000
vt  0.898558 -0.686056 0.000000
vt  0.958057 -0.606536 0.000000
vt  0.904139 -0.850806 0.000000
vt  0.913417 -0.950946 0.000000
vt  0.900868 -0.763968 0.000000
vt  0.889221 -0.536552 0.000000
vt  0.924965 -0.545568 0.000000
vt  0.965663 -0.549711 0.000000
vt  0.849598 -0.916636 0.000000
vt  0.881450 -0.949737 0.000000
vt  0.892272 -0.849762 0.000000
vt  0.865529 -0.840195 0.000000
vt  0.895554 -0.762686 0.000000
vt  0.856781 -0.789265 0.000000
vt  0.917331 -0.461858 0.000000
vt  0.894668 -0.443596 0.000000
vt  0.888019 -0.523831 0.000000
vt  0.924654 -0.513312 0.000000
vt  0.957123 -0.442737 0.000000
vt  0.965317 -0.498348 0.000000
vt  0.827322 -0.871784 0.000000
vt  0.815947 -0.808704 0.000000
vt  0.930802 -0.387560 0.000000
vt  0.904659 -0.364197 0.000000
vt  0.951371 -0.954613 0.000000
vt  0.982495 -0.870836 0.000000
vt  0.992947 -0.803501 0.000000
vt  0.901646 -0.719691 0.000000
vt  0.937526 -0.689933 0.000000
vt  0.976083 -0.628042 0.000000
vt  0.919143 -0.983388 0.000000
vt  0.988716 -0.562617 0.000000
vt  0.842728 -0.960190 0.000000
vt  0.876460 -0.982681 0.000000
vt  0.989536 -0.489191 0.000000
vt  0.981402 -0.415060 0.000000
vt  0.813264 -0.890891 0.000000
vt  0.796075 -0.816919 0.000000
vt  0.938109 -0.357836 0.000000
vt  0.906254 -0.325571 0.000000
vt  0.586605 -0.291249 0.000000
vt  0.530816 -0.268200 0.000000
vt  0.535787 -0.529222 0.000000
vt  0.602014 -0.537415 0.000000
vt  0.638369 -0.307909 0.000000
vt  0.670140 -0.523722 0.000000
vt  0.812358 -0.677488 0.000000
vt  0.853912 -0.676042 0.000000
vt  0.873306 -0.432020 0.000000
vt  0.808273 -0.449615 0.000000
vt  0.757764 -0.679903 0.000000
vt  0.750741 -0.489285 0.000000
vt  0.490729 -0.282508 0.000000
vt  0.478044 -0.515621 0.000000
vt  0.725175 -0.686130 0.000000
vt  0.687637 -0.504517 0.000000
vt  0.186353 -0.262772 0.000000
vt  0.145566 -0.278474 0.000000
vt  0.163893 -0.530895 0.000000
vt  0.219760 -0.510977 0.000000
vt  0.397680 -0.665895 0.000000
vt  0.434569 -0.675850 0.000000
vt  0.443763 -0.502668 0.000000
vt  0.391500 -0.498066 0.000000
vt  0.092031 -0.282570 0.000000
vt  0.119976 -0.555406 0.000000
vt  0.051763 -0.304533 0.000000
vt  0.030974 -0.524259 0.000000
vt  0.285593 -0.691502 0.000000
vt  0.329507 -0.684319 0.000000
vt  0.328203 -0.489429 0.000000
vt  0.271097 -0.485324 0.000000
vt  0.535161 -0.620654 0.000000
vt  0.604638 -0.608408 0.000000
vt  0.744049 -0.435214 0.000000
vt  0.465775 -0.601868 0.000000
vt  0.675657 -0.449770 0.000000
vt  0.194712 -0.597440 0.000000
vt  0.263544 -0.605725 0.000000
vt  0.449514 -0.455263 0.000000
vt  0.392226 -0.446885 0.000000
vt  0.325317 -0.450979 0.000000
vt  0.524804 -0.837898 0.000000
vt  0.630755 -0.822695 0.000000
vt  0.734673 -0.796099 0.000000
vt  0.876411 -0.201105 0.000000
vt  0.796909 -0.212397 0.000000
vt  0.734268 -0.265305 0.000000
vt  0.448425 -0.829118 0.000000
vt  0.649606 -0.276229 0.000000
vt  0.197538 -0.841028 0.000000
vt  0.269884 -0.841979 0.000000
vt  0.475585 -0.293343 0.000000
vt  0.406583 -0.257982 0.000000
vt  0.123152 -0.837158 0.000000
vt  0.012022 -0.786027 0.000000
vt  0.322352 -0.233364 0.000000
vt  0.249803 -0.217411 0.000000
vt  0.527032 -0.980610 0.000000
vt  0.639732 -0.985887 0.000000
vt  0.767240 -0.978856 0.000000
vt  0.885149 -0.026422 0.000000
vt  0.793549 -0.015879 0.000000
vt  0.705258 -0.019892 0.000000
vt  0.439290 -0.961275 0.000000
vt  0.637404 -0.109705 0.000000
vt  0.199304 -0.982931 0.000000
vt  0.274831 -0.977926 0.000000
vt  0.533457 -0.025586 0.000000
vt  0.418606 -0.029168 0.000000
vt  0.498987 -0.122961 0.000000
vt  0.122421 -0.983798 0.000000
vt  0.006086 -0.977426 0.000000
vt  0.328122 -0.026709 0.000000
vt  0.242382 -0.022263 0.000000
vt  0.603693 -0.026432 0.000000

vn  0.542689 0.398909 0.739162
vn  0.160371 -0.186693 0.969240
vn  0.208775 -0.287709 0.934685
vn  0.064694 0.495266 0.866329
vn  0.248116 -0.309668 0.917902
vn  -0.008284 -0.191605 0.981437
vn  -0.355106 0.312208 0.881150
vn  0.064694 0.495266 0.866329
vn  0.248116 -0.309668 0.917902
vn  0.119830 -0.181184 0.976122
vn  0.730505 -0.062003 0.680087
vn  -0.075278 0.026508 0.996810
vn  0.041065 -0.002518 0.999153
vn  0.041065 -0.002518 0.999153
vn  -0.582327 0.022643 0.812640
vn  0.123296 -0.069631 0.989924
vn  -0.003098 0.139575 0.990207
vn  -0.075278 0.026508 0.996810
vn  0.730505 -0.062003 0.680087
vn  0.573792 -0.451321 0.683427
vn  0.041065 -0.002518 0.999153
vn  0.146605 -0.599494 0.786838
vn  -0.390438 -0.414026 0.822278
vn  0.146605 -0.599494 0.786838
vn  0.041065 -0.002518 0.999153
vn  -0.582327 0.022643 0.812640
vn  0.140816 0.075971 0.987117
vn  0.123296 -0.069631 0.989924
vn  0.128618 0.215983 0.967889
vn  0.209382 0.175777 0.961905
vn  0.143386 0.103108 0.984281
vn  0.209382 0.175777 0.961905
vn  -0.693367 -0.437947 0.572227
vn  -0.260163 -0.817118 0.514425
vn  0.064819 -0.863930 0.499423
vn  0.064819 -0.863930 0.499423
vn  0.314094 -0.707283 0.633321
vn  0.720827 -0.383446 0.577389
vn  -0.859878 0.070648 0.505588
vn  0.841214 -0.035554 0.539532
vn  -0.763324 0.443801 0.469444
vn  -0.859878 0.070648 0.505588
vn  0.841214 -0.035554 0.539532
vn  0.765812 0.374597 0.522694
vn  -0.410906 0.774731 0.480570
vn  0.027939 0.871026 0.490442
vn  0.420932 0.715236 0.557902
vn  0.027939 0.871026 0.490442
vn  -0.260163 -0.817118 0.514425
vn  -0.693367 -0.437947 0.572227
vn  -0.667603 -0.434446 0.604618
vn  -0.317849 -0.750950 0.578832
vn  0.064819 -0.863930 0.499423
vn  0.025980 -0.916858 0.398369
vn  0.314094 -0.707283 0.633321
vn  0.064819 -0.863930 0.499423
vn  0.025980 -0.916858 0.398369
vn  0.380587 -0.840778 0.385027
vn  0.720827 -0.383446 0.577389
vn  0.771985 -0.411954 0.484080
vn  -0.859878 0.070648 0.505588
vn  -0.801073 0.012469 0.598437
vn  0.841214 -0.035554 0.539532
vn  0.884799 0.077260 0.459523
vn  -0.859878 0.070648 0.505588
vn  -0.763324 0.443801 0.469444
vn  -0.724602 0.405653 0.557134
vn  -0.801073 0.012469 0.598437
vn  0.765812 0.374597 0.522694
vn  0.841214 -0.035554 0.539532
vn  0.884799 0.077260 0.459523
vn  0.758464 0.451833 0.469659
vn  -0.410906 0.774731 0.480570
vn  -0.524612 0.767271 0.368887
vn  0.027939 0.871026 0.490442
vn  -0.120620 0.931038 0.344412
vn  0.027939 0.871026 0.490442
vn  0.420932 0.715236 0.557902
vn  0.398824 0.734182 0.549468
vn  -0.120620 0.931038 0.344412
vn  -0.725205 -0.461780 0.510721
vn  -0.363738 -0.782145 0.505908
vn  0.774498 -0.456324 0.438087
vn  -0.845221 0.003399 0.534406
vn  0.874415 0.058032 0.481696
vn  -0.721505 0.452747 0.523881
vn  -0.845221 0.003399 0.534406
vn  0.874415 0.058032 0.481696
vn  0.751022 0.461198 0.472506
vn  0.395322 0.770921 0.499400
vn  -0.838840 -0.487056 0.243152
vn  -0.392813 -0.877477 0.275196
vn  -0.250361 -0.901312 0.353492
vn  -0.250361 -0.901312 0.353492
vn  -0.204379 -0.907574 0.366797
vn  0.369139 -0.839059 0.399646
vn  -0.966251 0.056295 0.251375
vn  0.932027 0.065182 0.356478
vn  -0.826341 0.502203 0.254859
vn  -0.966251 0.056295 0.251375
vn  0.932027 0.065182 0.356478
vn  0.798002 0.530623 0.285713
vn  -0.543746 0.803984 0.240728
vn  -0.081172 0.963305 0.255841
vn  0.442953 0.856127 0.266157
vn  -0.081172 0.963305 0.255841
vn  -0.828823 -0.497510 0.255999
vn  -0.424757 -0.853967 0.300537
vn  -0.368395 -0.871342 0.324112
vn  -0.368395 -0.871342 0.324112
vn  -0.471022 -0.829963 0.298830
vn  0.416096 -0.802427 0.427756
vn  -0.970067 0.029302 0.241065
vn  0.829931 0.058798 0.554758
vn  -0.810742 0.514885 0.278552
vn  -0.970067 0.029302 0.241065
vn  0.568827 0.019635 0.822223
vn  0.766453 0.541245 0.345839
vn  0.829931 0.058798 0.554758
vn  -0.530939 0.824039 0.197645
vn  -0.078998 0.977558 0.195291
vn  0.469038 0.849762 0.240640
vn  -0.078998 0.977558 0.195291
vn  0.568827 0.019635 0.822223

g "object0004_Editable Poly"
usemtl object0007_Standard_2_4
f  1/1/1 2/2/2 3/3/3
f  4/4/4 1/1/1 3/3/3
f  3/3/3 5/5/5 4/4/4
f  6/6/6 7/7/7 8/8/8
f  8/8/8 9/9/9 6/6/6
f  10/10/10 7/7/7 6/6/6
f  11/11/11 12/12/12 2/2/2
f  2/2/2 1/1/1 11/11/11
f  13/13/13 11/11/11 1/1/1
f  1/1/1 4/4/4 13/13/13
f  14/14/14 8/8/8 7/7/7
f  7/7/7 15/15/15 14/14/14
f  15/15/15 7/7/7 10/10/10
f  10/10/10 16/16/16 15/15/15
f  17/17/17 18/18/18 19/19/19
f  19/19/19 20/20/20 17/17/17
f  20/20/20 19/19/19 21/21/21
f  21/21/21 22/22/22 20/20/20
f  23/23/23 24/24/24 25/25/25
f  25/25/25 26/26/26 23/23/23
f  27/27/27 23/23/23 26/26/26
f  26/26/26 28/28/28 27/27/27
f  17/17/17 20/20/20 29/29/29
f  30/30/30 29/29/29 20/20/20
f  20/20/20 22/22/22 30/30/30
f  31/31/31 32/32/32 24/24/24
f  24/24/24 23/23/23 31/31/31
f  27/27/27 31/31/31 23/23/23
f  3/3/3 2/2/2 33/33/33
f  33/33/33 34/34/34 3/3/3
f  5/5/5 3/3/3 34/34/34
f  34/34/34 35/35/35 5/5/5
f  6/6/6 9/9/9 36/36/36
f  36/36/36 37/37/37 6/6/6
f  10/10/10 6/6/6 37/37/37
f  37/37/37 38/38/38 10/10/10
f  12/12/12 39/39/39 33/33/33
f  33/33/33 2/2/2 12/12/12
f  16/16/16 10/10/10 38/38/38
f  38/38/38 40/40/40 16/16/16
f  18/18/18 17/17/17 41/41/41
f  41/41/41 42/42/42 18/18/18
f  27/27/27 28/28/28 43/43/43
f  43/43/43 44/44/44 27/27/27
f  17/17/17 29/29/29 45/45/45
f  45/45/45 41/41/41 17/17/17
f  29/29/29 30/30/30 46/46/46
f  46/46/46 45/45/45 29/29/29
f  32/32/32 31/31/31 47/47/47
f  47/47/47 48/48/48 32/32/32
f  31/31/31 27/27/27 44/44/44
f  44/44/44 47/47/47 31/31/31
f  49/49/49 50/50/50 51/51/51
f  51/51/51 52/52/52 49/49/49
f  53/53/53 49/49/49 52/52/52
f  52/52/52 54/54/54 53/53/53
f  55/55/55 56/56/56 57/57/57
f  57/57/57 58/58/58 55/55/55
f  59/59/59 55/55/55 58/58/58
f  58/58/58 60/60/60 59/59/59
f  50/50/50 61/61/61 62/62/62
f  62/62/62 51/51/51 50/50/50
f  63/63/63 59/59/59 60/60/60
f  60/60/60 64/64/64 63/63/63
f  65/65/65 66/66/66 67/67/67
f  67/67/67 68/68/68 65/65/65
f  69/69/69 70/70/70 71/71/71
f  71/71/71 72/72/72 69/69/69
f  66/66/66 73/73/73 74/74/74
f  74/74/74 67/67/67 66/66/66
f  73/73/73 75/75/75 76/76/76
f  76/76/76 74/74/74 73/73/73
f  77/77/77 78/78/78 79/79/79
f  79/79/79 80/80/80 77/77/77
f  78/78/78 69/69/69 72/72/72
f  72/72/72 79/79/79 78/78/78
f  52/52/52 51/51/51 81/81/81
f  81/81/81 82/82/82 52/52/52
f  54/54/54 52/52/52 82/82/82
f  58/58/58 83/83/83 60/60/60
f  51/51/51 62/62/62 84/84/84
f  84/84/84 81/81/81 51/51/51
f  64/64/64 60/60/60 83/83/83
f  83/83/83 85/85/85 64/64/64
f  68/68/68 67/67/67 86/86/86
f  86/86/86 87/87/87 68/68/68
f  72/72/72 71/71/71 88/88/88
f  88/88/88 89/89/89 72/72/72
f  74/74/74 86/86/86 67/67/67
f  80/80/80 79/79/79 90/90/90
f  79/79/79 72/72/72 89/89/89
f  89/89/89 90/90/90 79/79/79
f  81/81/81 91/91/91 92/92/92
f  92/92/92 82/82/82 81/81/81
f  82/82/82 92/92/92 93/93/93
f  93/93/93 54/54/54 82/82/82
f  58/58/58 57/57/57 94/94/94
f  94/94/94 95/95/95 58/58/58
f  83/83/83 58/58/58 95/95/95
f  95/95/95 96/96/96 83/83/83
f  97/97/97 91/91/91 81/81/81
f  81/81/81 84/84/84 97/97/97
f  85/85/85 83/83/83 96/96/96
f  96/96/96 98/98/98 85/85/85
f  86/86/86 99/99/99 100/100/100
f  100/100/100 87/87/87 86/86/86
f  89/89/89 88/88/88 101/101/101
f  101/101/101 102/102/102 89/89/89
f  86/86/86 74/74/74 103/103/103
f  103/103/103 99/99/99 86/86/86
f  76/76/76 104/104/104 103/103/103
f  103/103/103 74/74/74 76/76/76
f  90/90/90 105/105/105 106/106/106
f  106/106/106 80/80/80 90/90/90
f  90/90/90 89/89/89 102/102/102
f  102/102/102 105/105/105 90/90/90
f  92/92/92 91/91/91 107/107/107
f  107/107/107 108/108/108 92/92/92
f  93/93/93 92/92/92 108/108/108
f  108/108/108 109/109/109 93/93/93
f  95/95/95 94/94/94 110/110/110
f  110/110/110 111/111/111 95/95/95
f  96/96/96 95/95/95 111/111/111
f  111/111/111 112/112/112 96/96/96
f  97/97/97 113/113/113 107/107/107
f  107/107/107 91/91/91 97/97/97
f  96/96/96 112/112/112 114/114/114
f  114/114/114 98/98/98 96/96/96
f  100/100/100 99/99/99 115/115/115
f  115/115/115 116/116/116 100/100/100
f  117/117/117 118/118/118 119/119/119
f  119/119/119 118/118/118 102/102/102
f  102/102/102 101/101/101 119/119/119
f  99/99/99 103/103/103 120/120/120
f  120/120/120 115/115/115 99/99/99
f  103/103/103 104/104/104 121/121/121
f  121/121/121 120/120/120 103/103/103
f  106/106/106 105/105/105 122/122/122
f  122/122/122 123/123/123 106/106/106
f  118/118/118 122/122/122 105/105/105
f  105/105/105 102/102/102 118/118/118
f  112/112/112 124/124/124 114/114/114

g
v  -0.483006 0.086523 0.394097
v  -0.601680 0.018006 0.222264
v  -0.272196 -0.278612 0.394097
v  -0.390870 -0.347128 0.222264
v  -0.782107 -0.086163 0.152266
v  -0.571297 -0.451297 0.152266
v  -0.272196 0.522539 0.394097
v  -0.390870 0.591055 0.222264
v  -0.483006 0.157405 0.394097
v  -0.601680 0.225921 0.222264
v  -0.571297 0.695225 0.152266
v  -0.782107 0.330091 0.152266
v  0.210810 0.557980 0.394097
v  0.210810 0.695013 0.222264
v  -0.210810 0.557980 0.394097
v  -0.210810 0.695013 0.222264
v  0.210810 0.903352 0.152266
v  -0.210810 0.903351 0.152266
v  0.483006 0.157405 0.394097
v  0.601680 0.225921 0.222264
v  0.272196 0.522539 0.394097
v  0.390870 0.591055 0.222264
v  0.782107 0.330091 0.152266
v  0.571297 0.695225 0.152266
v  0.272196 -0.278612 0.394097
v  0.390870 -0.347128 0.222264
v  0.483006 0.086523 0.394097
v  0.601680 0.018006 0.222264
v  0.571297 -0.451297 0.152266
v  0.782107 -0.086163 0.152266
v  -0.210810 -0.314053 0.394097
v  -0.210810 -0.451086 0.222264
v  0.210810 -0.314053 0.394097
v  0.210810 -0.451086 0.222264
v  -0.210810 -0.659424 0.152266
v  0.210810 -0.659424 0.152266

vt  0.000000 -0.000000 0.000000
vt  0.000000 -0.500000 0.000000
vt  1.000000 -0.000000 0.000000
vt  1.000000 -0.500000 0.000000
vt  0.000000 -1.000000 0.000000
vt  1.000000 -1.000000 0.000000
vt  0.000000 -0.000000 0.000000
vt  0.000000 -0.500000 0.000000
vt  1.000000 -0.000000 0.000000
vt  1.000000 -0.500000 0.000000
vt  0.000000 -1.000000 0.000000
vt  1.000000 -1.000000 0.000000
vt  0.000000 -0.000000 0.000000
vt  0.000000 -0.500000 0.000000
vt  1.000000 -0.000000 0.000000
vt  1.000000 -0.500000 0.000000
vt  0.000000 -1.000000 0.000000
vt  1.000000 -1.000000 0.000000
vt  0.000000 -0.000000 0.000000
vt  0.000000 -0.500000 0.000000
vt  1.000000 -0.000000 0.000000
vt  1.000000 -0.500000 0.000000
vt  0.000000 -1.000000 0.000000
vt  1.000000 -1.000000 0.000000
vt  0.000000 -0.000000 0.000000
vt  0.000000 -0.500000 0.000000
vt  1.000000 -0.000000 0.000000
vt  1.000000 -0.500000 0.000000
vt  0.000000 -1.000000 0.000000
vt  1.000000 -1.000000 0.000000
vt  0.000000 -0.000000 0.000000
vt  0.000000 -0.500000 0.000000
vt  1.000000 -0.000000 0.000000
vt  1.000000 -0.500000 0.000000
vt  0.000000 -1.000000 0.000000
vt  1.000000 -1.000000 0.000000

vn  -0.677086 -0.390916 0.623490
vn  -0.496732 -0.286788 0.819152
vn  -0.677086 -0.390916 0.623490
vn  -0.496732 -0.286788 0.819152
vn  -0.275818 -0.159243 0.947927
vn  -0.275818 -0.159243 0.947927
vn  -0.677086 0.390916 0.623490
vn  -0.496732 0.286788 0.819152
vn  -0.677086 0.390916 0.623490
vn  -0.496732 0.286788 0.819152
vn  -0.275818 0.159243 0.947927
vn  -0.275818 0.159243 0.947927
vn  0.000000 0.781831 0.623490
vn  0.000000 0.573576 0.819152
vn  0.000000 0.781831 0.623490
vn  0.000000 0.573576 0.819152
vn  0.000000 0.318487 0.947927
vn  0.000000 0.318487 0.947927
vn  0.677086 0.390916 0.623490
vn  0.496732 0.286788 0.819152
vn  0.677086 0.390916 0.623490
vn  0.496732 0.286788 0.819152
vn  0.275818 0.159243 0.947927
vn  0.275818 0.159243 0.947927
vn  0.677086 -0.390916 0.623490
vn  0.496732 -0.286788 0.819152
vn  0.677086 -0.390916 0.623490
vn  0.496732 -0.286788 0.819152
vn  0.275818 -0.159244 0.947927
vn  0.275818 -0.159243 0.947927
vn  0.000000 -0.781832 0.623490
vn  0.000000 -0.573577 0.819152
vn  0.000000 -0.781832 0.623490
vn  0.000000 -0.573577 0.819152
vn  0.000000 -0.318487 0.947927
vn  0.000000 -0.318487 0.947927

g "object0080_Editable Poly"
usemtl object0082_SP-03_80
f  125/125/125 126/126/126 127/127/127
f  127/127/127 126/126/126 128/128/128
f  129/129/129 128/128/128 126/126/126
f  128/128/128 129/129/129 130/130/130
f  131/131/131 132/132/132 133/133/133
f  133/133/133 132/132/132 134/134/134
f  135/135/135 134/134/134 132/132/132
f  134/134/134 135/135/135 136/136/136
f  137/137/137 138/138/138 139/139/139
f  139/139/139 138/138/138 140/140/140
f  141/141/141 140/140/140 138/138/138
f  140/140/140 141/141/141 142/142/142
f  143/143/143 144/144/144 145/145/145
f  145/145/145 144/144/144 146/146/146
f  147/147/147 146/146/146 144/144/144
f  146/146/146 147/147/147 148/148/148
f  149/149/149 150/150/150 151/151/151
f  151/151/151 150/150/150 152/152/152
f  153/153/153 152/152/152 150/150/150
f  152/152/152 153/153/153 154/154/154
f  155/155/155 156/156/156 157/157/157
f  157/157/157 156/156/156 158/158/158
f  159/159/159 158/158/158 156/156/156
f  158/158/158 159/159/159 160/160/160

g
