# Noesis .obj export.
#
mtllib m677.mtl
g
v  0.636388 0.636395 0.000813
v  0.636388 0.636397 0.762425
v  0.899981 0.000001 0.762425
v  0.899999 -0.000001 0.000813
v  -0.000004 0.899999 0.000813
v  -0.000004 0.900001 0.762425
v  0.636388 0.636397 0.762425
v  -0.636395 0.636395 0.000813
v  -0.636395 0.636397 0.762425
v  -0.000004 0.900001 0.762425
v  -0.000004 0.899999 0.000813
v  -0.900006 -0.000001 0.000813
v  -0.900023 0.000001 0.762425
v  -0.636395 0.636397 0.762425
v  -0.636395 -0.636397 0.000813
v  -0.636395 -0.636396 0.762425
v  -0.900023 0.000001 0.762425
v  -0.900006 -0.000001 0.000813
v  -0.000004 -0.900001 0.000813
v  -0.000004 -0.899999 0.762425
v  -0.636395 -0.636396 0.762425
v  -0.636395 -0.636397 0.000813
v  0.636388 -0.636397 0.000813
v  0.636388 -0.636395 0.762425
v  -0.000004 -0.899999 0.762425
v  -0.000004 -0.900001 0.000813
v  0.899981 0.000001 0.762425
v  0.636388 -0.636395 0.762425
v  0.636388 0.636395 8.038861
v  -0.000004 0.899999 8.038861
v  -0.636395 0.636395 8.038861
v  -0.900006 -0.000001 8.038861
v  -0.636395 -0.636398 8.038861
v  -0.000004 -0.900001 8.038861
v  0.636388 -0.636397 8.038861
v  0.899999 -0.000001 8.038861
v  0.636388 0.636395 8.038861
v  0.899999 -0.000001 8.038861
v  0.899981 0.000000 3.971915
v  0.636371 0.636396 3.971915
v  -0.000004 0.899999 8.038861
v  0.636371 0.636396 3.971915
v  -0.000021 0.900000 3.971915
v  -0.636395 0.636395 8.038861
v  -0.000004 0.899999 8.038861
v  -0.000021 0.900000 3.971915
v  -0.636412 0.636396 3.971915
v  -0.900006 -0.000001 8.038861
v  -0.636412 0.636396 3.971915
v  -0.900023 0.000000 3.971915
v  -0.636395 -0.636398 8.038861
v  -0.900023 0.000000 3.971915
v  -0.636412 -0.636397 3.971915
v  -0.000004 -0.900001 8.038861
v  -0.636412 -0.636397 3.971915
v  -0.000021 -0.900000 3.971915
v  0.636388 -0.636397 8.038861
v  -0.000021 -0.900000 3.971915
v  0.636371 -0.636396 3.971915
v  0.636371 -0.636396 3.971915
v  0.899981 0.000000 3.971915
v  0.899981 0.000001 2.679748
v  0.636388 0.636397 2.679748
v  0.636388 0.636397 2.679748
v  -0.000004 0.900001 2.679748
v  -0.000004 0.900001 2.679748
v  -0.636395 0.636397 2.679748
v  -0.636395 0.636397 2.679748
v  -0.900023 0.000001 2.679748
v  -0.900023 0.000001 2.679748
v  -0.636395 -0.636396 2.679748
v  -0.636395 -0.636396 2.679748
v  -0.000004 -0.899999 2.679748
v  -0.000004 -0.899999 2.679748
v  0.636388 -0.636395 2.679748
v  0.636388 -0.636395 2.679748
v  0.899981 0.000001 2.679748

vt  0.411559 -0.993345 0.000000
vt  0.411559 -0.868523 0.000000
vt  0.357292 -0.868523 0.000000
vt  0.357292 -0.993345 0.000000
vt  0.473300 -0.993345 0.000000
vt  0.473300 -0.868523 0.000000
vt  0.411559 -0.868523 0.000000
vt  0.078197 -0.993345 0.000000
vt  0.078197 -0.868523 0.000000
vt  0.024892 -0.868523 0.000000
vt  0.024892 -0.993345 0.000000
vt  0.131222 -0.993345 0.000000
vt  0.131222 -0.868523 0.000000
vt  0.078197 -0.868523 0.000000
vt  0.187739 -0.993345 0.000000
vt  0.187739 -0.868523 0.000000
vt  0.131221 -0.868523 0.000000
vt  0.131222 -0.993345 0.000000
vt  0.244257 -0.993345 0.000000
vt  0.244257 -0.868523 0.000000
vt  0.187739 -0.868523 0.000000
vt  0.187739 -0.993345 0.000000
vt  0.300775 -0.993345 0.000000
vt  0.300774 -0.868523 0.000000
vt  0.244257 -0.868523 0.000000
vt  0.244257 -0.993345 0.000000
vt  0.357292 -0.868523 0.000000
vt  0.300775 -0.868523 0.000000
vt  0.895869 -0.174826 0.000000
vt  0.836567 -0.145259 0.000000
vt  0.773726 -0.166285 0.000000
vt  0.744159 -0.225588 0.000000
vt  0.765185 -0.288428 0.000000
vt  0.824488 -0.317995 0.000000
vt  0.887328 -0.296969 0.000000
vt  0.916895 -0.237666 0.000000
vt  0.411559 0.000396 0.000000
vt  0.357292 0.000396 0.000000
vt  0.357293 -0.544242 0.000000
vt  0.411559 -0.544242 0.000000
vt  0.473300 0.000396 0.000000
vt  0.411560 -0.544242 0.000000
vt  0.473301 -0.544242 0.000000
vt  0.078197 0.000396 0.000000
vt  0.024892 0.000396 0.000000
vt  0.024893 -0.544242 0.000000
vt  0.078198 -0.544242 0.000000
vt  0.131222 0.000396 0.000000
vt  0.078197 -0.544242 0.000000
vt  0.131222 -0.544242 0.000000
vt  0.187739 0.000396 0.000000
vt  0.131221 -0.544242 0.000000
vt  0.187739 -0.544242 0.000000
vt  0.244257 0.000396 0.000000
vt  0.187738 -0.544242 0.000000
vt  0.244256 -0.544242 0.000000
vt  0.300775 0.000396 0.000000
vt  0.244256 -0.544242 0.000000
vt  0.300773 -0.544242 0.000000
vt  0.300774 -0.544242 0.000000
vt  0.357292 -0.544242 0.000000
vt  0.357293 -0.737748 0.000000
vt  0.411559 -0.737748 0.000000
vt  0.411560 -0.737748 0.000000
vt  0.473301 -0.737748 0.000000
vt  0.024893 -0.737748 0.000000
vt  0.078197 -0.737748 0.000000
vt  0.078197 -0.737748 0.000000
vt  0.131222 -0.737748 0.000000
vt  0.131221 -0.737748 0.000000
vt  0.187739 -0.737748 0.000000
vt  0.187739 -0.737748 0.000000
vt  0.244256 -0.737748 0.000000
vt  0.244256 -0.737748 0.000000
vt  0.300774 -0.737748 0.000000
vt  0.300774 -0.737748 0.000000
vt  0.357292 -0.737748 0.000000

vn  0.707109 0.707105 0.000004
vn  0.707113 0.707101 -0.000001
vn  1.000000 0.000003 0.000008
vn  1.000000 0.000005 0.000016
vn  -0.000000 1.000000 -0.000003
vn  -0.000000 1.000000 -0.000001
vn  0.707113 0.707101 -0.000001
vn  -0.707105 0.707109 -0.000002
vn  -0.707098 0.707115 -0.000004
vn  -0.000000 1.000000 -0.000001
vn  -0.000000 1.000000 -0.000003
vn  -1.000000 0.000005 -0.000016
vn  -1.000000 0.000003 -0.000008
vn  -0.707098 0.707115 -0.000004
vn  -0.707101 -0.707113 -0.000005
vn  -0.707096 -0.707117 0.000001
vn  -1.000000 0.000003 -0.000008
vn  -1.000000 0.000005 -0.000016
vn  0.000000 -1.000000 0.000002
vn  0.000001 -1.000000 0.000001
vn  -0.707096 -0.707117 0.000001
vn  -0.707101 -0.707113 -0.000005
vn  0.707104 -0.707109 0.000002
vn  0.707111 -0.707103 0.000004
vn  0.000001 -1.000000 0.000001
vn  0.000000 -1.000000 0.000002
vn  1.000000 0.000003 0.000008
vn  0.707111 -0.707103 0.000004
vn  0.548984 0.548986 0.630262
vn  0.000001 0.776383 0.630262
vn  -0.548982 0.548986 0.630265
vn  -0.776382 0.000000 0.630262
vn  -0.548982 -0.548986 0.630264
vn  0.000001 -0.776383 0.630262
vn  0.548984 -0.548987 0.630262
vn  0.776385 -0.000000 0.630259
vn  0.548984 0.548986 0.630262
vn  0.776385 -0.000000 0.630259
vn  1.000000 0.000002 0.000000
vn  0.707105 0.707109 0.000001
vn  0.000001 0.776383 0.630262
vn  0.707105 0.707109 0.000001
vn  -0.000002 1.000000 0.000001
vn  -0.548982 0.548986 0.630265
vn  0.000001 0.776383 0.630262
vn  -0.000002 1.000000 0.000001
vn  -0.707106 0.707108 -0.000003
vn  -0.776382 0.000000 0.630262
vn  -0.707106 0.707108 -0.000003
vn  -1.000000 0.000002 -0.000000
vn  -0.548982 -0.548986 0.630264
vn  -1.000000 0.000002 -0.000000
vn  -0.707104 -0.707110 -0.000001
vn  0.000001 -0.776383 0.630262
vn  -0.707104 -0.707110 -0.000001
vn  -0.000001 -1.000000 -0.000001
vn  0.548984 -0.548987 0.630262
vn  -0.000001 -1.000000 -0.000001
vn  0.707104 -0.707110 0.000003
vn  0.707104 -0.707110 0.000003
vn  1.000000 0.000002 0.000000
vn  1.000000 0.000002 0.000002
vn  0.707113 0.707100 0.000005
vn  0.707113 0.707100 0.000005
vn  0.000002 1.000000 0.000000
vn  0.000002 1.000000 0.000000
vn  -0.707097 0.707117 -0.000002
vn  -0.707097 0.707117 -0.000002
vn  -1.000000 0.000002 -0.000002
vn  -1.000000 0.000002 -0.000002
vn  -0.707095 -0.707118 -0.000005
vn  -0.707095 -0.707118 -0.000005
vn  0.000002 -1.000000 -0.000000
vn  0.000002 -1.000000 -0.000000
vn  0.707112 -0.707101 0.000002
vn  0.707112 -0.707101 0.000002
vn  1.000000 0.000002 0.000002

g M677
usemtl M677_3
f  1/1/1 2/2/2 3/3/3
f  3/3/3 4/4/4 1/1/1
f  5/5/5 6/6/6 7/7/7
f  7/7/7 1/1/1 5/5/5
f  8/8/8 9/9/9 10/10/10
f  10/10/10 11/11/11 8/8/8
f  12/12/12 13/13/13 14/14/14
f  14/14/14 8/8/8 12/12/12
f  15/15/15 16/16/16 17/17/17
f  17/17/17 18/18/18 15/15/15
f  19/19/19 20/20/20 21/21/21
f  21/21/21 22/22/22 19/19/19
f  23/23/23 24/24/24 25/25/25
f  25/25/25 26/26/26 23/23/23
f  4/4/4 27/27/27 28/28/28
f  28/28/28 23/23/23 4/4/4
f  29/29/29 30/30/30 31/31/31
f  31/31/31 32/32/32 33/33/33
f  33/33/33 34/34/34 35/35/35
f  31/31/31 33/33/33 35/35/35
f  29/29/29 31/31/31 35/35/35
f  36/36/36 29/29/29 35/35/35
f  37/37/37 38/38/38 39/39/39
f  39/39/39 40/40/40 37/37/37
f  41/41/41 37/37/37 42/42/42
f  42/42/42 43/43/43 41/41/41
f  44/44/44 45/45/45 46/46/46
f  46/46/46 47/47/47 44/44/44
f  48/48/48 44/44/44 49/49/49
f  49/49/49 50/50/50 48/48/48
f  51/51/51 48/48/48 52/52/52
f  52/52/52 53/53/53 51/51/51
f  54/54/54 51/51/51 55/55/55
f  55/55/55 56/56/56 54/54/54
f  57/57/57 54/54/54 58/58/58
f  58/58/58 59/59/59 57/57/57
f  38/38/38 57/57/57 60/60/60
f  60/60/60 61/61/61 38/38/38
f  40/40/40 39/39/39 62/62/62
f  62/62/62 63/63/63 40/40/40
f  43/43/43 42/42/42 64/64/64
f  64/64/64 65/65/65 43/43/43
f  47/47/47 46/46/46 66/66/66
f  66/66/66 67/67/67 47/47/47
f  50/50/50 49/49/49 68/68/68
f  68/68/68 69/69/69 50/50/50
f  53/53/53 52/52/52 70/70/70
f  70/70/70 71/71/71 53/53/53
f  56/56/56 55/55/55 72/72/72
f  72/72/72 73/73/73 56/56/56
f  59/59/59 58/58/58 74/74/74
f  74/74/74 75/75/75 59/59/59
f  61/61/61 60/60/60 76/76/76
f  76/76/76 77/77/77 61/61/61
f  63/63/63 62/62/62 3/3/3
f  3/3/3 2/2/2 63/63/63
f  65/65/65 64/64/64 7/7/7
f  7/7/7 6/6/6 65/65/65
f  67/67/67 66/66/66 10/10/10
f  10/10/10 9/9/9 67/67/67
f  69/69/69 68/68/68 14/14/14
f  14/14/14 13/13/13 69/69/69
f  71/71/71 70/70/70 17/17/17
f  17/17/17 16/16/16 71/71/71
f  73/73/73 72/72/72 21/21/21
f  21/21/21 20/20/20 73/73/73
f  75/75/75 74/74/74 25/25/25
f  25/25/25 24/24/24 75/75/75
f  77/77/77 76/76/76 28/28/28
f  28/28/28 27/27/27 77/77/77

g
v  -0.223097 0.223097 0.000000
v  0.223097 0.223097 0.000000
v  -0.223097 -0.223097 0.000000
v  0.223097 -0.223097 0.000000
v  0.223097 -0.223097 0.446193
v  0.223097 0.223097 0.446193
v  -0.223097 -0.223097 0.446193
v  -0.223097 0.223097 0.446193
v  0.223097 -0.223097 0.000000
v  0.223097 -0.223097 0.446193
v  -0.223097 -0.223097 0.000000
v  -0.223097 -0.223097 0.446193
v  0.223097 0.223097 0.000000
v  0.223097 0.223097 0.446193
v  0.223097 -0.223097 0.000000
v  0.223097 -0.223097 0.446193
v  -0.223097 0.223097 0.000000
v  -0.223097 0.223097 0.446193
v  0.223097 0.223097 0.000000
v  0.223097 0.223097 0.446193
v  -0.223097 -0.223097 0.000000
v  -0.223097 -0.223097 0.446193
v  -0.223097 0.223097 0.000000
v  -0.223097 0.223097 0.446193

vt  0.000000 -0.000000 0.000000
vt  0.000000 -0.000000 0.000000
vt  0.000000 -0.000000 0.000000
vt  0.000000 -0.000000 0.000000
vt  0.000000 -0.000000 0.000000
vt  0.000000 -0.000000 0.000000
vt  0.000000 -0.000000 0.000000
vt  0.000000 -0.000000 0.000000
vt  0.000000 -0.000000 0.000000
vt  0.000000 -0.000000 0.000000
vt  0.000000 -0.000000 0.000000
vt  0.000000 -0.000000 0.000000
vt  0.000000 -0.000000 0.000000
vt  0.000000 -0.000000 0.000000
vt  0.000000 -0.000000 0.000000
vt  0.000000 -0.000000 0.000000
vt  0.000000 -0.000000 0.000000
vt  0.000000 -0.000000 0.000000
vt  0.000000 -0.000000 0.000000
vt  0.000000 -0.000000 0.000000
vt  0.000000 -0.000000 0.000000
vt  0.000000 -0.000000 0.000000
vt  0.000000 -0.000000 0.000000
vt  0.000000 -0.000000 0.000000

vn  0.000000 0.000000 -1.000000
vn  0.000000 0.000000 -1.000000
vn  0.000000 0.000000 -1.000000
vn  0.000000 0.000000 -1.000000
vn  0.000000 0.000000 1.000000
vn  0.000000 0.000000 1.000000
vn  0.000000 0.000000 1.000000
vn  0.000000 0.000000 1.000000
vn  0.000000 -1.000000 0.000000
vn  0.000000 -1.000000 0.000000
vn  0.000000 -1.000000 0.000000
vn  0.000000 -1.000000 0.000000
vn  1.000000 0.000000 0.000000
vn  1.000000 0.000000 0.000000
vn  1.000000 0.000000 0.000000
vn  1.000000 0.000000 0.000000
vn  0.000000 1.000000 0.000000
vn  0.000000 1.000000 0.000000
vn  0.000000 1.000000 0.000000
vn  0.000000 1.000000 0.000000
vn  -1.000000 0.000000 0.000000
vn  -1.000000 0.000000 0.000000
vn  -1.000000 0.000000 0.000000
vn  -1.000000 0.000000 0.000000

g Box
usemtl mesh27material
f  78/78/78 79/79/79 80/80/80
f  81/81/81 80/80/80 79/79/79
f  82/82/82 83/83/83 84/84/84
f  85/85/85 84/84/84 83/83/83
f  86/86/86 87/87/87 88/88/88
f  89/89/89 88/88/88 87/87/87
f  90/90/90 91/91/91 92/92/92
f  93/93/93 92/92/92 91/91/91
f  94/94/94 95/95/95 96/96/96
f  97/97/97 96/96/96 95/95/95
f  98/98/98 99/99/99 100/100/100
f  101/101/101 100/100/100 99/99/99

g
v  -0.104959 0.104959 0.000000
v  0.104959 0.104959 0.000000
v  -0.104959 -0.104959 0.000000
v  0.104959 -0.104959 0.000000
v  0.104959 -0.104959 0.209918
v  0.104959 0.104959 0.209918
v  -0.104959 -0.104959 0.209918
v  -0.104959 0.104959 0.209918
v  0.104959 -0.104959 0.000000
v  0.104959 -0.104959 0.209918
v  -0.104959 -0.104959 0.000000
v  -0.104959 -0.104959 0.209918
v  0.104959 0.104959 0.000000
v  0.104959 0.104959 0.209918
v  0.104959 -0.104959 0.000000
v  0.104959 -0.104959 0.209918
v  -0.104959 0.104959 0.000000
v  -0.104959 0.104959 0.209918
v  0.104959 0.104959 0.000000
v  0.104959 0.104959 0.209918
v  -0.104959 -0.104959 0.000000
v  -0.104959 -0.104959 0.209918
v  -0.104959 0.104959 0.000000
v  -0.104959 0.104959 0.209918

vt  0.000000 -0.000000 0.000000
vt  0.000000 -0.000000 0.000000
vt  0.000000 -0.000000 0.000000
vt  0.000000 -0.000000 0.000000
vt  0.000000 -0.000000 0.000000
vt  0.000000 -0.000000 0.000000
vt  0.000000 -0.000000 0.000000
vt  0.000000 -0.000000 0.000000
vt  0.000000 -0.000000 0.000000
vt  0.000000 -0.000000 0.000000
vt  0.000000 -0.000000 0.000000
vt  0.000000 -0.000000 0.000000
vt  0.000000 -0.000000 0.000000
vt  0.000000 -0.000000 0.000000
vt  0.000000 -0.000000 0.000000
vt  0.000000 -0.000000 0.000000
vt  0.000000 -0.000000 0.000000
vt  0.000000 -0.000000 0.000000
vt  0.000000 -0.000000 0.000000
vt  0.000000 -0.000000 0.000000
vt  0.000000 -0.000000 0.000000
vt  0.000000 -0.000000 0.000000
vt  0.000000 -0.000000 0.000000
vt  0.000000 -0.000000 0.000000

vn  0.000000 0.000000 -1.000000
vn  0.000000 0.000000 -1.000000
vn  0.000000 0.000000 -1.000000
vn  0.000000 0.000000 -1.000000
vn  0.000000 0.000000 1.000000
vn  0.000000 0.000000 1.000000
vn  0.000000 0.000000 1.000000
vn  0.000000 0.000000 1.000000
vn  0.000000 -1.000000 0.000000
vn  0.000000 -1.000000 0.000000
vn  0.000000 -1.000000 0.000000
vn  0.000000 -1.000000 0.000000
vn  1.000000 0.000000 0.000000
vn  1.000000 0.000000 0.000000
vn  1.000000 0.000000 0.000000
vn  1.000000 0.000000 0.000000
vn  0.000000 1.000000 0.000000
vn  0.000000 1.000000 0.000000
vn  0.000000 1.000000 0.000000
vn  0.000000 1.000000 0.000000
vn  -1.000000 0.000000 0.000000
vn  -1.000000 0.000000 0.000000
vn  -1.000000 0.000000 0.000000
vn  -1.000000 0.000000 0.000000

g Box@#0
usemtl mesh30material
f  102/102/102 103/103/103 104/104/104
f  105/105/105 104/104/104 103/103/103
f  106/106/106 107/107/107 108/108/108
f  109/109/109 108/108/108 107/107/107
f  110/110/110 111/111/111 112/112/112
f  113/113/113 112/112/112 111/111/111
f  114/114/114 115/115/115 116/116/116
f  117/117/117 116/116/116 115/115/115
f  118/118/118 119/119/119 120/120/120
f  121/121/121 120/120/120 119/119/119
f  122/122/122 123/123/123 124/124/124
f  125/125/125 124/124/124 123/123/123

g
