# Noesis .obj export.
#
mtllib B1001.mtl
g
v  -0.045785 -0.266337 0.062536
v  0.023093 -0.245967 0.027159
v  -0.047522 -0.271977 0.051940
v  -0.046962 -0.275497 0.037477
v  0.023219 -0.247744 0.016966
v  -0.034692 -0.274930 0.080704
v  0.032698 -0.248783 0.054593
v  0.025199 -0.241798 0.041528
v  0.099528 -0.223014 0.000001
v  0.023219 -0.247744 0.016966
v  -0.046962 -0.275497 0.037477
v  0.099528 -0.223014 0.000001
v  0.107030 -0.206976 0.034927
v  0.093032 -0.197972 0.020358
v  -0.046962 -0.275497 -0.037475
v  -0.034692 -0.274930 -0.080703
v  0.023219 -0.247744 -0.016964
v  0.032697 -0.248783 -0.054592
v  0.107030 -0.206976 -0.034926
v  0.025199 -0.241798 -0.041526
v  0.093032 -0.197972 -0.020356
v  0.023093 -0.245967 -0.027157
v  0.023219 -0.247744 -0.016964
v  -0.047523 -0.271977 -0.051939
v  -0.046962 -0.275497 -0.037475
v  -0.045785 -0.266337 -0.062535
v  0.165509 -0.184165 0.100487
v  0.121610 -0.221268 0.000001
v  0.137869 -0.218587 0.000001
v  0.165509 -0.184165 -0.100486
v  0.107030 -0.206976 0.034927
v  0.099528 -0.223014 0.000001
v  0.107030 -0.206976 -0.034926
v  0.115672 -0.187346 -0.102482
v  0.183786 -0.142199 -0.151315
v  0.120852 -0.133242 -0.163035
v  0.221159 -0.056303 -0.201013
v  0.136256 -0.042145 -0.213419
v  0.255196 0.028944 -0.212055
v  0.159869 0.043983 -0.223274
v  0.284816 0.111272 -0.211397
v  0.189929 0.127803 -0.218622
v  0.312084 0.176672 -0.173605
v  0.213134 0.203319 -0.175751
v  0.330420 0.209562 -0.100355
v  0.229216 0.239029 -0.107705
v  0.341502 0.232927 0.000000
v  0.127064 0.206282 -0.163564
v  0.109382 0.138263 -0.209885
v  0.089816 0.044950 -0.209132
v  0.079866 -0.029208 -0.199857
v  0.074109 -0.119954 -0.150915
v  0.076940 -0.168638 -0.091145
v  0.093032 -0.197972 -0.020356
v  0.078868 -0.206700 0.000001
v  0.099528 -0.223014 0.000001
v  0.093032 -0.197972 0.020358
v  0.132392 0.246616 -0.107408
v  0.240897 0.260611 0.000000
v  0.229217 0.239029 0.107706
v  0.330420 0.209562 0.100356
v  0.213134 0.203319 0.175752
v  0.312084 0.176673 0.173606
v  0.189929 0.127804 0.218623
v  0.284816 0.111272 0.211398
v  0.159869 0.043983 0.223275
v  0.255196 0.028944 0.212056
v  0.136256 -0.042145 0.213420
v  0.221159 -0.056302 0.201014
v  0.120852 -0.133242 0.163036
v  0.183786 -0.142199 0.151317
v  0.115672 -0.187346 0.102483
v  0.131422 0.266378 0.000000
v  0.132392 0.246617 0.107408
v  0.127064 0.206282 0.163565
v  0.109382 0.138263 0.209886
v  0.089816 0.044951 0.209134
v  0.079866 -0.029208 0.199859
v  0.074109 -0.119954 0.150917
v  0.076940 -0.168638 0.091146
v  -0.264987 -0.367310 0.153388
v  -0.190232 -0.339957 0.092633
v  -0.171301 -0.349515 0.130167
v  -0.114427 -0.308045 0.062655
v  -0.046962 -0.275497 0.037477
v  -0.034692 -0.274930 0.080704
v  -0.100853 -0.308335 0.122544
v  -0.045785 -0.266337 0.062536
v  -0.117306 -0.297960 0.095310
v  -0.047522 -0.271977 0.051940
v  -0.046962 -0.275497 0.037477
v  -0.114427 -0.308045 0.062655
v  -0.184894 -0.319926 0.137960
v  -0.190232 -0.339957 0.092633
v  -0.170881 -0.339095 0.170126
v  -0.264987 -0.367310 -0.153387
v  -0.171301 -0.349515 -0.130166
v  -0.190232 -0.339957 -0.092631
v  -0.114427 -0.308045 -0.062654
v  -0.046962 -0.275497 -0.037475
v  -0.100854 -0.308335 -0.122543
v  -0.170881 -0.339096 -0.170124
v  -0.184895 -0.319926 -0.137959
v  -0.190232 -0.339957 -0.092631
v  -0.114427 -0.308045 -0.062654
v  -0.117306 -0.297961 -0.095309
v  -0.046962 -0.275497 -0.037475
v  -0.047523 -0.271977 -0.051939
v  -0.045785 -0.266337 -0.062535
v  -0.034692 -0.274930 -0.080703
v  0.132392 0.246617 0.107408
v  0.131422 0.266378 0.000000
v  0.116326 0.029564 0.000001
v  0.132392 0.246616 -0.107408
v  0.127064 0.206282 -0.163564
v  0.109382 0.138263 -0.209885
v  0.089816 0.044950 -0.209132
v  0.079866 -0.029208 -0.199857
v  0.074109 -0.119954 -0.150915
v  0.076940 -0.168638 -0.091145
v  0.078868 -0.206700 0.000001
v  0.076940 -0.168638 0.091146
v  0.074109 -0.119954 0.150917
v  0.079866 -0.029208 0.199859
v  0.089816 0.044951 0.209134
v  0.109382 0.138263 0.209886
v  0.127064 0.206282 0.163565
v  0.341502 0.232927 0.000000
v  0.330420 0.209562 0.100356
v  0.226031 0.018869 0.000001
v  0.312084 0.176673 0.173606
v  0.284816 0.111272 0.211398
v  0.255196 0.028944 0.212056
v  0.221159 -0.056302 0.201014
v  0.183786 -0.142199 0.151317
v  0.165509 -0.184165 0.100487
v  0.137869 -0.218587 0.000001
v  0.165509 -0.184165 -0.100486
v  0.183786 -0.142199 -0.151315
v  0.221159 -0.056303 -0.201013
v  0.255196 0.028944 -0.212055
v  0.284816 0.111272 -0.211397
v  0.312084 0.176672 -0.173605
v  0.330420 0.209562 -0.100355

vt  0.879800 -0.631862 0.000000
vt  0.704551 -0.478204 0.000000
vt  0.866022 -0.655811 0.000000
vt  0.983869 -0.533737 0.000000
vt  0.804164 -0.375429 0.000000
vt  0.909307 -0.591215 0.000000
vt  0.744430 -0.425463 0.000000
vt  0.723993 -0.453706 0.000000
vt  0.541439 -0.301111 0.000000
vt  0.687996 -0.490119 0.000000
vt  0.842159 -0.674674 0.000000
vt  0.620228 -0.223402 0.000000
vt  0.576650 -0.252089 0.000000
vt  0.548611 -0.257094 0.000000
vt  0.983869 -0.533737 0.000000
vt  0.909307 -0.591215 0.000000
vt  0.804164 -0.375429 0.000000
vt  0.744430 -0.425463 0.000000
vt  0.576650 -0.252089 0.000000
vt  0.723993 -0.453706 0.000000
vt  0.548611 -0.257094 0.000000
vt  0.704551 -0.478204 0.000000
vt  0.687996 -0.490119 0.000000
vt  0.866022 -0.655811 0.000000
vt  0.842159 -0.674674 0.000000
vt  0.879800 -0.631862 0.000000
vt  0.874595 -0.761333 0.000000
vt  0.972697 -0.919067 0.000000
vt  0.988486 -0.897659 0.000000
vt  0.874595 -0.761333 0.000000
vt  0.905957 -0.906098 0.000000
vt  0.956617 -0.946250 0.000000
vt  0.905957 -0.906098 0.000000
vt  0.831175 -0.825342 0.000000
vt  0.808743 -0.682921 0.000000
vt  0.734536 -0.749083 0.000000
vt  0.709103 -0.547169 0.000000
vt  0.613473 -0.640978 0.000000
vt  0.617654 -0.430018 0.000000
vt  0.517545 -0.542485 0.000000
vt  0.523961 -0.324751 0.000000
vt  0.427523 -0.438858 0.000000
vt  0.440057 -0.226476 0.000000
vt  0.329963 -0.339933 0.000000
vt  0.351823 -0.127266 0.000000
vt  0.246534 -0.252665 0.000000
vt  0.230547 -0.007193 0.000000
vt  0.243360 -0.440509 0.000000
vt  0.344665 -0.533881 0.000000
vt  0.459253 -0.636544 0.000000
vt  0.552516 -0.709785 0.000000
vt  0.685514 -0.809151 0.000000
vt  0.783873 -0.876317 0.000000
vt  0.888228 -0.945865 0.000000
vt  0.891984 -0.989038 0.000000
vt  0.929549 -0.981098 0.000000
vt  0.888228 -0.945865 0.000000
vt  0.153069 -0.368874 0.000000
vt  0.119385 -0.125219 0.000000
vt  0.246534 -0.252665 0.000000
vt  0.351823 -0.127266 0.000000
vt  0.329963 -0.339933 0.000000
vt  0.440057 -0.226476 0.000000
vt  0.427523 -0.438858 0.000000
vt  0.523961 -0.324751 0.000000
vt  0.517545 -0.542485 0.000000
vt  0.617654 -0.430018 0.000000
vt  0.613473 -0.640978 0.000000
vt  0.709103 -0.547169 0.000000
vt  0.734536 -0.749083 0.000000
vt  0.808743 -0.682921 0.000000
vt  0.831175 -0.825342 0.000000
vt  0.011369 -0.255299 0.000000
vt  0.153069 -0.368874 0.000000
vt  0.243360 -0.440509 0.000000
vt  0.344665 -0.533881 0.000000
vt  0.459253 -0.636544 0.000000
vt  0.552516 -0.709785 0.000000
vt  0.685514 -0.809151 0.000000
vt  0.783873 -0.876317 0.000000
vt  0.618612 -0.979875 0.000000
vt  0.531494 -0.724974 0.000000
vt  0.461703 -0.747711 0.000000
vt  0.331894 -0.558912 0.000000
vt  0.142921 -0.428608 0.000000
vt  0.073494 -0.492194 0.000000
vt  0.246955 -0.633845 0.000000
vt  0.047536 -0.535194 0.000000
vt  0.220319 -0.695942 0.000000
vt  0.035836 -0.560224 0.000000
vt  0.013656 -0.581040 0.000000
vt  0.175850 -0.739246 0.000000
vt  0.381034 -0.836338 0.000000
vt  0.357901 -0.917976 0.000000
vt  0.415564 -0.783608 0.000000
vt  0.618612 -0.979875 0.000000
vt  0.461703 -0.747711 0.000000
vt  0.531494 -0.724974 0.000000
vt  0.331894 -0.558912 0.000000
vt  0.142921 -0.428608 0.000000
vt  0.246955 -0.633845 0.000000
vt  0.415564 -0.783608 0.000000
vt  0.381034 -0.836338 0.000000
vt  0.357901 -0.917976 0.000000
vt  0.175850 -0.739246 0.000000
vt  0.220319 -0.695942 0.000000
vt  0.013656 -0.581040 0.000000
vt  0.035836 -0.560224 0.000000
vt  0.047536 -0.535194 0.000000
vt  0.073494 -0.492194 0.000000
vt  0.275049 -0.980391 0.000000
vt  0.351324 -0.925340 0.000000
vt  0.199567 -0.779301 0.000000
vt  0.275049 -0.980391 0.000000
vt  0.215466 -0.990606 0.000000
vt  0.142703 -0.977419 0.000000
vt  0.081696 -0.919178 0.000000
vt  0.039053 -0.867556 0.000000
vt  0.010014 -0.780974 0.000000
vt  0.015087 -0.713654 0.000000
vt  0.045436 -0.633229 0.000000
vt  0.015087 -0.713654 0.000000
vt  0.010014 -0.780974 0.000000
vt  0.039053 -0.867556 0.000000
vt  0.081696 -0.919178 0.000000
vt  0.142703 -0.977419 0.000000
vt  0.215466 -0.990606 0.000000
vt  0.933276 -0.425648 0.000000
vt  0.975310 -0.314680 0.000000
vt  0.704359 -0.265533 0.000000
vt  0.988464 -0.221568 0.000000
vt  0.946349 -0.138617 0.000000
vt  0.863887 -0.078755 0.000000
vt  0.769563 -0.027191 0.000000
vt  0.647893 -0.010773 0.000000
vt  0.570853 -0.027545 0.000000
vt  0.464308 -0.094220 0.000000
vt  0.570853 -0.027545 0.000000
vt  0.647893 -0.010773 0.000000
vt  0.769563 -0.027191 0.000000
vt  0.863887 -0.078755 0.000000
vt  0.946349 -0.138617 0.000000
vt  0.988464 -0.221568 0.000000
vt  0.975310 -0.314680 0.000000

vn  -0.346540 0.935949 0.062523
vn  -0.366704 0.910403 -0.191557
vn  -0.455097 0.842994 -0.286787
vn  -0.209651 -0.147892 -0.966527
vn  -0.202422 -0.088266 -0.975312
vn  0.507632 -0.126102 0.852296
vn  0.266800 -0.292685 0.918234
vn  -0.330195 0.930408 0.159099
vn  -0.123628 -0.992329 0.000000
vn  -0.202422 -0.088266 -0.975312
vn  -0.209651 -0.147892 -0.966527
vn  -0.123628 -0.992329 0.000000
vn  -0.165843 -0.851112 0.498100
vn  -0.694787 -0.519782 0.497089
vn  -0.209655 -0.147890 0.966526
vn  0.507632 -0.126110 -0.852295
vn  -0.202419 -0.088262 0.975314
vn  0.266803 -0.292683 -0.918234
vn  -0.165843 -0.851113 -0.498099
vn  -0.330196 0.930408 -0.159097
vn  -0.694787 -0.519783 -0.497088
vn  -0.366703 0.910404 0.191555
vn  -0.202419 -0.088262 0.975314
vn  -0.455098 0.842994 0.286787
vn  -0.209655 -0.147890 0.966526
vn  -0.346540 0.935949 -0.062525
vn  0.591938 -0.763813 0.257293
vn  0.079855 -0.996807 0.000001
vn  0.536699 -0.843774 0.000001
vn  0.591938 -0.763813 -0.257292
vn  -0.165843 -0.851112 0.498100
vn  -0.123628 -0.992329 0.000000
vn  -0.165843 -0.851113 -0.498099
vn  -0.211328 -0.849327 -0.483719
vn  0.605721 -0.640890 -0.471552
vn  -0.170666 -0.608666 -0.774854
vn  0.653507 -0.454120 -0.605561
vn  -0.104797 -0.292509 -0.950503
vn  0.718046 -0.299069 -0.628465
vn  -0.054868 -0.012149 -0.998420
vn  0.718127 -0.055820 -0.693670
vn  0.017119 0.267301 -0.963461
vn  0.797505 0.270072 -0.539488
vn  0.080240 0.716308 -0.693155
vn  0.893307 0.353132 -0.278030
vn  0.164375 0.915130 -0.368127
vn  0.891798 0.452434 -0.000000
vn  -0.649214 0.609330 -0.455234
vn  -0.687077 0.329397 -0.647628
vn  -0.797312 0.117358 -0.592048
vn  -0.817017 -0.095718 -0.568613
vn  -0.844506 -0.328101 -0.423273
vn  -0.876356 -0.421459 -0.233177
vn  -0.694787 -0.519783 -0.497088
vn  -0.835013 -0.550231 0.000000
vn  -0.123628 -0.992329 0.000000
vn  -0.694787 -0.519782 0.497089
vn  -0.601858 0.741247 -0.297185
vn  0.170048 0.985436 -0.000001
vn  0.164375 0.915131 0.368126
vn  0.893307 0.353132 0.278030
vn  0.080240 0.716309 0.693155
vn  0.797505 0.270073 0.539487
vn  0.017118 0.267302 0.963461
vn  0.718126 -0.055820 0.693671
vn  -0.054869 -0.012148 0.998420
vn  0.718045 -0.299068 0.628466
vn  -0.104798 -0.292508 0.950503
vn  0.653506 -0.454119 0.605562
vn  -0.170666 -0.608666 0.774854
vn  0.605721 -0.640890 0.471553
vn  -0.211328 -0.849326 0.483720
vn  -0.629310 0.777154 -0.000001
vn  -0.601858 0.741248 0.297184
vn  -0.649214 0.609331 0.455233
vn  -0.687078 0.329397 0.647628
vn  -0.797312 0.117358 0.592048
vn  -0.817018 -0.095716 0.568613
vn  -0.844506 -0.328101 0.423272
vn  -0.876357 -0.421459 0.233177
vn  -0.915610 -0.333368 0.224775
vn  -0.436642 -0.169291 -0.883563
vn  0.320498 -0.946483 -0.038094
vn  -0.162144 -0.188220 -0.968650
vn  -0.209651 -0.147892 -0.966527
vn  0.507632 -0.126102 0.852296
vn  0.658632 -0.002081 0.752462
vn  -0.346540 0.935949 0.062523
vn  -0.339586 0.938413 0.063744
vn  -0.455097 0.842994 -0.286787
vn  -0.209651 -0.147892 -0.966527
vn  -0.162144 -0.188220 -0.968650
vn  -0.336042 0.923630 0.184345
vn  -0.436642 -0.169291 -0.883563
vn  0.249895 -0.093693 0.963729
vn  -0.915610 -0.333369 -0.224775
vn  0.320497 -0.946483 0.038096
vn  -0.436643 -0.169288 0.883563
vn  -0.162143 -0.188219 0.968650
vn  -0.209655 -0.147890 0.966526
vn  0.658630 -0.002079 -0.752464
vn  0.249897 -0.093694 -0.963729
vn  -0.336042 0.923630 -0.184347
vn  -0.436643 -0.169288 0.883563
vn  -0.162143 -0.188219 0.968650
vn  -0.339587 0.938412 -0.063744
vn  -0.209655 -0.147890 0.966526
vn  -0.455098 0.842994 0.286787
vn  -0.346540 0.935949 -0.062525
vn  0.507632 -0.126110 -0.852295
vn  -0.601858 0.741248 0.297184
vn  -0.629310 0.777154 -0.000001
vn  -0.990384 0.138343 -0.000000
vn  -0.601858 0.741247 -0.297185
vn  -0.649214 0.609330 -0.455234
vn  -0.687077 0.329397 -0.647628
vn  -0.797312 0.117358 -0.592048
vn  -0.817017 -0.095718 -0.568613
vn  -0.844506 -0.328101 -0.423273
vn  -0.876356 -0.421459 -0.233177
vn  -0.835013 -0.550231 0.000000
vn  -0.876357 -0.421459 0.233177
vn  -0.844506 -0.328101 0.423272
vn  -0.817018 -0.095716 0.568613
vn  -0.797312 0.117358 0.592048
vn  -0.687078 0.329397 0.647628
vn  -0.649214 0.609331 0.455233
vn  0.891798 0.452434 -0.000000
vn  0.893307 0.353132 0.278030
vn  0.922646 -0.385647 0.000000
vn  0.797505 0.270073 0.539487
vn  0.718126 -0.055820 0.693671
vn  0.718045 -0.299068 0.628466
vn  0.653506 -0.454119 0.605562
vn  0.605721 -0.640890 0.471553
vn  0.591938 -0.763813 0.257293
vn  0.536699 -0.843774 0.000001
vn  0.591938 -0.763813 -0.257292
vn  0.605721 -0.640890 -0.471552
vn  0.653507 -0.454120 -0.605561
vn  0.718046 -0.299069 -0.628465
vn  0.718127 -0.055820 -0.693670
vn  0.797505 0.270072 -0.539488
vn  0.893307 0.353132 -0.278030

g B1001
usemtl mesh1material
f  1/1/1 2/2/2 3/3/3
f  4/4/4 5/5/5 6/6/6
f  7/7/7 6/6/6 5/5/5
f  6/6/6 7/7/7 1/1/1
f  8/8/8 1/1/1 7/7/7
f  1/1/1 8/8/8 2/2/2
f  9/9/9 2/2/2 8/8/8
f  10/10/10 2/2/2 9/9/9
f  2/2/2 10/10/10 3/3/3
f  11/11/11 3/3/3 10/10/10
f  5/5/5 12/12/12 7/7/7
f  13/13/13 7/7/7 12/12/12
f  7/7/7 13/13/13 8/8/8
f  14/14/14 8/8/8 13/13/13
f  8/8/8 14/14/14 9/9/9
f  15/15/15 16/16/16 17/17/17
f  18/18/18 17/17/17 16/16/16
f  17/17/17 18/18/18 12/12/12
f  12/12/12 18/18/18 19/19/19
f  20/20/20 19/19/19 18/18/18
f  19/19/19 20/20/20 21/21/21
f  21/21/21 20/20/20 9/9/9
f  22/22/22 9/9/9 20/20/20
f  9/9/9 22/22/22 23/23/23
f  24/24/24 23/23/23 22/22/22
f  23/23/23 24/24/24 25/25/25
f  24/24/24 22/22/22 26/26/26
f  20/20/20 26/26/26 22/22/22
f  18/18/18 26/26/26 20/20/20
f  26/26/26 18/18/18 16/16/16
f  27/27/27 28/28/28 29/29/29
f  30/30/30 29/29/29 28/28/28
f  27/27/27 31/31/31 28/28/28
f  32/32/32 28/28/28 31/31/31
f  33/33/33 28/28/28 32/32/32
f  28/28/28 33/33/33 30/30/30
f  34/34/34 30/30/30 33/33/33
f  30/30/30 34/34/34 35/35/35
f  36/36/36 35/35/35 34/34/34
f  35/35/35 36/36/36 37/37/37
f  38/38/38 37/37/37 36/36/36
f  37/37/37 38/38/38 39/39/39
f  40/40/40 39/39/39 38/38/38
f  39/39/39 40/40/40 41/41/41
f  42/42/42 41/41/41 40/40/40
f  41/41/41 42/42/42 43/43/43
f  44/44/44 43/43/43 42/42/42
f  43/43/43 44/44/44 45/45/45
f  46/46/46 45/45/45 44/44/44
f  45/45/45 46/46/46 47/47/47
f  44/44/44 48/48/48 46/46/46
f  48/48/48 44/44/44 49/49/49
f  42/42/42 49/49/49 44/44/44
f  49/49/49 42/42/42 50/50/50
f  40/40/40 50/50/50 42/42/42
f  38/38/38 50/50/50 40/40/40
f  50/50/50 38/38/38 51/51/51
f  51/51/51 38/38/38 52/52/52
f  36/36/36 52/52/52 38/38/38
f  52/52/52 36/36/36 53/53/53
f  34/34/34 53/53/53 36/36/36
f  33/33/33 53/53/53 34/34/34
f  54/54/54 53/53/53 33/33/33
f  53/53/53 54/54/54 55/55/55
f  56/56/56 55/55/55 54/54/54
f  57/57/57 55/55/55 56/56/56
f  48/48/48 58/58/58 46/46/46
f  59/59/59 46/46/46 58/58/58
f  46/46/46 59/59/59 47/47/47
f  60/60/60 47/47/47 59/59/59
f  47/47/47 60/60/60 61/61/61
f  62/62/62 61/61/61 60/60/60
f  61/61/61 62/62/62 63/63/63
f  64/64/64 63/63/63 62/62/62
f  63/63/63 64/64/64 65/65/65
f  66/66/66 65/65/65 64/64/64
f  65/65/65 66/66/66 67/67/67
f  68/68/68 67/67/67 66/66/66
f  67/67/67 68/68/68 69/69/69
f  70/70/70 69/69/69 68/68/68
f  69/69/69 70/70/70 71/71/71
f  72/72/72 71/71/71 70/70/70
f  71/71/71 72/72/72 27/27/27
f  31/31/31 27/27/27 72/72/72
f  58/58/58 73/73/73 59/59/59
f  74/74/74 59/59/59 73/73/73
f  59/59/59 74/74/74 60/60/60
f  75/75/75 60/60/60 74/74/74
f  60/60/60 75/75/75 62/62/62
f  76/76/76 62/62/62 75/75/75
f  62/62/62 76/76/76 64/64/64
f  77/77/77 64/64/64 76/76/76
f  64/64/64 77/77/77 66/66/66
f  66/66/66 77/77/77 68/68/68
f  78/78/78 68/68/68 77/77/77
f  79/79/79 68/68/68 78/78/78
f  68/68/68 79/79/79 70/70/70
f  80/80/80 70/70/70 79/79/79
f  70/70/70 80/80/80 72/72/72
f  72/72/72 80/80/80 31/31/31
f  31/31/31 80/80/80 57/57/57
f  55/55/55 57/57/57 80/80/80
f  81/81/81 82/82/82 83/83/83
f  84/84/84 83/83/83 82/82/82
f  85/85/85 86/86/86 87/87/87
f  88/88/88 87/87/87 86/86/86
f  87/87/87 88/88/88 89/89/89
f  90/90/90 89/89/89 88/88/88
f  91/91/91 89/89/89 90/90/90
f  92/92/92 89/89/89 91/91/91
f  89/89/89 92/92/92 93/93/93
f  94/94/94 93/93/93 92/92/92
f  81/81/81 93/93/93 94/94/94
f  93/93/93 81/81/81 95/95/95
f  83/83/83 95/95/95 81/81/81
f  95/95/95 83/83/83 87/87/87
f  84/84/84 87/87/87 83/83/83
f  87/87/87 84/84/84 85/85/85
f  93/93/93 95/95/95 89/89/89
f  87/87/87 89/89/89 95/95/95
f  96/96/96 97/97/97 98/98/98
f  99/99/99 98/98/98 97/97/97
f  100/100/100 99/99/99 101/101/101
f  97/97/97 101/101/101 99/99/99
f  101/101/101 97/97/97 102/102/102
f  96/96/96 102/102/102 97/97/97
f  102/102/102 96/96/96 103/103/103
f  104/104/104 103/103/103 96/96/96
f  105/105/105 103/103/103 104/104/104
f  103/103/103 105/105/105 106/106/106
f  107/107/107 106/106/106 105/105/105
f  108/108/108 106/106/106 107/107/107
f  109/109/109 106/106/106 108/108/108
f  106/106/106 109/109/109 101/101/101
f  110/110/110 101/101/101 109/109/109
f  101/101/101 110/110/110 100/100/100
f  101/101/101 102/102/102 106/106/106
f  103/103/103 106/106/106 102/102/102
f  111/111/111 112/112/112 113/113/113
f  114/114/114 113/113/113 112/112/112
f  115/115/115 113/113/113 114/114/114
f  116/116/116 113/113/113 115/115/115
f  117/117/117 113/113/113 116/116/116
f  118/118/118 113/113/113 117/117/117
f  119/119/119 113/113/113 118/118/118
f  120/120/120 113/113/113 119/119/119
f  121/121/121 113/113/113 120/120/120
f  122/122/122 113/113/113 121/121/121
f  123/123/123 113/113/113 122/122/122
f  124/124/124 113/113/113 123/123/123
f  125/125/125 113/113/113 124/124/124
f  126/126/126 113/113/113 125/125/125
f  127/127/127 113/113/113 126/126/126
f  113/113/113 127/127/127 111/111/111
f  128/128/128 129/129/129 130/130/130
f  131/131/131 130/130/130 129/129/129
f  132/132/132 130/130/130 131/131/131
f  133/133/133 130/130/130 132/132/132
f  134/134/134 130/130/130 133/133/133
f  135/135/135 130/130/130 134/134/134
f  136/136/136 130/130/130 135/135/135
f  137/137/137 130/130/130 136/136/136
f  138/138/138 130/130/130 137/137/137
f  139/139/139 130/130/130 138/138/138
f  140/140/140 130/130/130 139/139/139
f  141/141/141 130/130/130 140/140/140
f  142/142/142 130/130/130 141/141/141
f  143/143/143 130/130/130 142/142/142
f  144/144/144 130/130/130 143/143/143
f  130/130/130 144/144/144 128/128/128

g
