# Noesis .obj export.
#
mtllib m1701.mtl
g
v  0.021934 0.308942 -0.000004
v  0.032147 0.325005 0.013917
v  0.036387 0.320941 -0.000004
v  0.007985 0.350183 0.023535
v  0.016555 0.342117 0.027148
v  -0.008729 0.343053 0.028560
v  -0.000872 0.331265 0.033736
v  0.023507 0.333213 0.024061
v  0.007737 0.320787 0.031921
v  0.014804 0.310938 0.018809
v  0.016751 0.290722 -0.000004
v  -0.014793 0.350492 0.017879
v  0.003617 0.360757 0.013340
v  0.000426 0.362514 -0.000004
v  -0.019210 0.353603 -0.000004
v  -0.033671 0.354083 0.027657
v  -0.026506 0.344757 0.044049
v  -0.010603 0.325275 0.052022
v  0.003682 0.308076 0.048859
v  0.010996 0.295786 0.027658
v  0.024571 0.282184 0.037437
v  0.031052 0.276281 -0.000004
v  0.045565 0.280297 0.041975
v  0.051223 0.273547 -0.000004
v  -0.026329 0.356552 0.062097
v  -0.005058 0.328837 0.072552
v  0.016057 0.303086 0.065797
v  -0.041135 0.371791 0.037436
v  -0.034950 0.391942 0.041975
v  -0.013527 0.370334 0.072636
v  0.010426 0.338562 0.083977
v  0.035687 0.307298 0.073658
v  -0.039959 0.359479 -0.000004
v  -0.048865 0.379117 -0.000004
v  -0.042988 0.399863 -0.000004
v  -0.034950 0.391942 -0.041983
v  -0.048865 0.379117 -0.000004
v  -0.042988 0.399863 -0.000004
v  0.051223 0.273547 -0.000004
v  0.031052 0.276281 -0.000004
v  0.045565 0.280296 -0.041982
v  0.024571 0.282184 -0.037444
v  0.035687 0.307298 -0.073665
v  0.016057 0.303086 -0.065804
v  0.010426 0.338562 -0.083985
v  -0.005058 0.328836 -0.072559
v  -0.013527 0.370334 -0.072644
v  -0.026329 0.356552 -0.062105
v  -0.041135 0.371791 -0.037444
v  -0.039959 0.359479 -0.000004
v  -0.033671 0.354083 -0.027665
v  -0.019210 0.353603 -0.000004
v  -0.014793 0.350492 -0.017886
v  0.000426 0.362514 -0.000004
v  0.003617 0.360757 -0.013348
v  0.007985 0.350183 -0.023542
v  -0.026506 0.344757 -0.044056
v  -0.010603 0.325275 -0.052029
v  0.003682 0.308075 -0.048867
v  0.010996 0.295786 -0.027665
v  0.016751 0.290722 -0.000004
v  0.014804 0.310938 -0.018816
v  0.021934 0.308942 -0.000004
v  0.032147 0.325005 -0.013924
v  0.007737 0.320787 -0.031929
v  0.023507 0.333213 -0.024068
v  -0.000872 0.331265 -0.033744
v  0.016555 0.342117 -0.027155
v  -0.008729 0.343053 -0.028567
v  0.036387 0.320941 -0.000004
v  -0.023352 0.408767 -0.000004
v  -0.042988 0.399863 -0.000004
v  -0.016540 0.402208 0.037436
v  -0.034950 0.391942 0.041975
v  -0.013527 0.370334 0.072636
v  -0.002608 0.402892 -0.000004
v  0.002338 0.398616 0.027657
v  0.006094 0.377729 0.067611
v  0.010426 0.338562 0.083977
v  0.006297 0.383258 -0.000004
v  0.009801 0.380908 0.017878
v  0.020964 0.375761 0.052122
v  0.027853 0.349415 0.077389
v  0.035687 0.307298 0.073658
v  0.000426 0.362514 -0.000004
v  0.003617 0.360757 0.013340
v  0.020787 0.363965 0.034074
v  0.037584 0.355404 0.059103
v  0.051457 0.319725 0.065797
v  0.045565 0.280297 0.041975
v  0.062497 0.293463 0.037437
v  0.051223 0.273547 -0.000004
v  0.064788 0.286145 -0.000004
v  0.065833 0.312298 0.027658
v  0.063384 0.299860 -0.000004
v  0.054928 0.319388 -0.000004
v  0.053334 0.325899 0.017879
v  0.036387 0.320941 -0.000004
v  0.032147 0.325005 0.013917
v  0.055513 0.332436 0.048859
v  0.032039 0.351843 0.038573
v  0.043138 0.337425 0.031921
v  0.007985 0.350183 0.023535
v  0.016555 0.342117 0.027148
v  0.023507 0.333213 0.024061
v  0.043138 0.337425 -0.031929
v  0.055513 0.332436 -0.048867
v  0.032039 0.351843 -0.038581
v  0.037584 0.355404 -0.059111
v  0.020787 0.363965 -0.034082
v  0.020964 0.375761 -0.052130
v  0.006094 0.377728 -0.067619
v  0.027853 0.349415 -0.077396
v  0.051457 0.319725 -0.065804
v  0.062497 0.293463 -0.037444
v  0.065833 0.312298 -0.027665
v  0.053334 0.325899 -0.017886
v  0.064788 0.286145 -0.000004
v  0.063384 0.299860 -0.000004
v  0.054928 0.319388 -0.000004
v  0.036387 0.320941 -0.000004
v  0.032147 0.325005 -0.013924
v  0.023507 0.333213 -0.024068
v  0.016555 0.342117 -0.027155
v  0.007985 0.350183 -0.023542
v  0.003617 0.360757 -0.013348
v  0.009801 0.380908 -0.017886
v  0.002338 0.398616 -0.027665
v  -0.016540 0.402207 -0.037444
v  0.051223 0.273547 -0.000004
v  0.045565 0.280296 -0.041982
v  0.035687 0.307298 -0.073665
v  0.010426 0.338562 -0.083985
v  -0.013527 0.370334 -0.072644
v  -0.034950 0.391942 -0.041983
v  -0.042988 0.399863 -0.000004
v  -0.023352 0.408767 -0.000004
v  -0.002608 0.402892 -0.000004
v  0.006297 0.383258 -0.000004
v  0.000426 0.362514 -0.000004

vt  0.519472 -0.750043 0.000000
vt  0.573279 -0.696278 0.000000
vt  0.522928 -0.687474 0.000000
vt  0.678803 -0.657436 0.000000
vt  0.653272 -0.683244 0.000000
vt  0.740370 -0.680451 0.000000
vt  0.707782 -0.731628 0.000000
vt  0.623457 -0.698149 0.000000
vt  0.660591 -0.762040 0.000000
vt  0.591417 -0.771198 0.000000
vt  0.499248 -0.806889 0.000000
vt  0.755804 -0.626535 0.000000
vt  0.679164 -0.608763 0.000000
vt  0.683734 -0.562763 0.000000
vt  0.759418 -0.557872 0.000000
vt  0.833501 -0.642038 0.000000
vt  0.818252 -0.714455 0.000000
vt  0.758110 -0.789694 0.000000
vt  0.689035 -0.835523 0.000000
vt  0.597245 -0.832503 0.000000
vt  0.583789 -0.905649 0.000000
vt  0.460429 -0.860353 0.000000
vt  0.561416 -0.974733 0.000000
vt  0.422031 -0.916810 0.000000
vt  0.882277 -0.759743 0.000000
vt  0.802263 -0.854239 0.000000
vt  0.704677 -0.914160 0.000000
vt  0.911531 -0.652697 0.000000
vt  0.987792 -0.664028 0.000000
vt  0.939464 -0.810377 0.000000
vt  0.840695 -0.919984 0.000000
vt  0.710809 -0.990390 0.000000
vt  0.833502 -0.538104 0.000000
vt  0.910706 -0.517707 0.000000
vt  0.989329 -0.510085 0.000000
vt  0.438369 -0.499386 0.000000
vt  0.553428 -0.614117 0.000000
vt  0.588386 -0.547986 0.000000
vt  0.014550 -0.990080 0.000000
vt  0.091021 -0.977028 0.000000
vt  0.009430 -0.834110 0.000000
vt  0.087699 -0.840450 0.000000
vt  0.040867 -0.680744 0.000000
vt  0.112130 -0.715924 0.000000
vt  0.146257 -0.571859 0.000000
vt  0.195846 -0.633418 0.000000
vt  0.281482 -0.504182 0.000000
vt  0.309036 -0.576401 0.000000
vt  0.421790 -0.573570 0.000000
vt  0.512954 -0.674046 0.000000
vt  0.410025 -0.651968 0.000000
vt  0.482004 -0.738444 0.000000
vt  0.410121 -0.730652 0.000000
vt  0.467160 -0.810701 0.000000
vt  0.419864 -0.805861 0.000000
vt  0.368890 -0.800884 0.000000
vt  0.334643 -0.651928 0.000000
vt  0.246553 -0.696684 0.000000
vt  0.185180 -0.756213 0.000000
vt  0.166353 -0.850194 0.000000
vt  0.167299 -0.956513 0.000000
vt  0.230457 -0.870847 0.000000
vt  0.236903 -0.946983 0.000000
vt  0.309428 -0.902755 0.000000
vt  0.253608 -0.803971 0.000000
vt  0.317663 -0.851040 0.000000
vt  0.293102 -0.761833 0.000000
vt  0.339088 -0.823173 0.000000
vt  0.350739 -0.737098 0.000000
vt  0.304837 -0.955635 0.000000
vt  0.439669 -0.415447 0.000000
vt  0.420218 -0.482709 0.000000
vt  0.560778 -0.438378 0.000000
vt  0.564391 -0.502858 0.000000
vt  0.705924 -0.473345 0.000000
vt  0.472032 -0.351968 0.000000
vt  0.560264 -0.370174 0.000000
vt  0.696385 -0.403961 0.000000
vt  0.827500 -0.405164 0.000000
vt  0.501769 -0.290270 0.000000
vt  0.564186 -0.299130 0.000000
vt  0.677469 -0.333017 0.000000
vt  0.791051 -0.344615 0.000000
vt  0.913553 -0.291537 0.000000
vt  0.515565 -0.223166 0.000000
vt  0.561698 -0.228901 0.000000
vt  0.647135 -0.263045 0.000000
vt  0.747698 -0.285100 0.000000
vt  0.860429 -0.244562 0.000000
vt  0.979695 -0.161178 0.000000
vt  0.911301 -0.130568 0.000000
vt  0.990852 -0.015283 0.000000
vt  0.921864 -0.007982 0.000000
vt  0.842323 -0.112296 0.000000
vt  0.862780 -0.014930 0.000000
vt  0.781869 -0.032048 0.000000
vt  0.772173 -0.100061 0.000000
vt  0.715237 -0.037463 0.000000
vt  0.699824 -0.090261 0.000000
vt  0.802722 -0.203603 0.000000
vt  0.698336 -0.227633 0.000000
vt  0.737995 -0.168268 0.000000
vt  0.605217 -0.201905 0.000000
vt  0.643048 -0.178036 0.000000
vt  0.669418 -0.140947 0.000000
vt  0.356941 -0.241530 0.000000
vt  0.325978 -0.176140 0.000000
vt  0.301276 -0.284949 0.000000
vt  0.245813 -0.233364 0.000000
vt  0.271568 -0.342397 0.000000
vt  0.201465 -0.309533 0.000000
vt  0.130392 -0.281519 0.000000
vt  0.191126 -0.183007 0.000000
vt  0.293802 -0.116415 0.000000
vt  0.414278 -0.077222 0.000000
vt  0.419013 -0.141474 0.000000
vt  0.423352 -0.209080 0.000000
vt  0.537775 -0.097955 0.000000
vt  0.518045 -0.142091 0.000000
vt  0.488730 -0.207645 0.000000
vt  0.481770 -0.268747 0.000000
vt  0.431133 -0.280229 0.000000
vt  0.385294 -0.308914 0.000000
vt  0.354281 -0.336764 0.000000
vt  0.337854 -0.378033 0.000000
vt  0.315226 -0.429072 0.000000
vt  0.240134 -0.431683 0.000000
vt  0.163251 -0.431356 0.000000
vt  0.088534 -0.419842 0.000000
vt  0.551107 -0.038135 0.000000
vt  0.406719 -0.013664 0.000000
vt  0.265223 -0.055650 0.000000
vt  0.142192 -0.130315 0.000000
vt  0.061900 -0.253186 0.000000
vt  0.016022 -0.398016 0.000000
vt  0.011920 -0.548307 0.000000
vt  0.091143 -0.546280 0.000000
vt  0.172760 -0.526707 0.000000
vt  0.249479 -0.498234 0.000000
vt  0.322899 -0.477438 0.000000

vn  -0.837718 0.546102 -0.000001
vn  -0.291185 0.798033 -0.527593
vn  -0.274779 0.961507 -0.000002
vn  0.361075 -0.382272 -0.850584
vn  0.108252 0.097023 -0.989378
vn  -0.244183 -0.726221 -0.642633
vn  -0.470584 -0.460713 -0.752525
vn  -0.193870 0.428000 -0.882740
vn  -0.722788 -0.147564 -0.675131
vn  -0.848700 0.304578 -0.432366
vn  -0.934066 -0.357100 0.000001
vn  -0.027222 -0.925549 -0.377648
vn  0.691347 -0.516961 -0.504767
vn  0.754792 -0.655964 0.000001
vn  0.030580 -0.999532 0.000002
vn  -0.691580 -0.720807 -0.046413
vn  -0.760763 -0.648877 -0.014081
vn  -0.773995 -0.630581 -0.057451
vn  -0.795222 -0.606264 -0.008178
vn  -0.917733 -0.387730 -0.086209
vn  -0.448189 -0.851238 0.272984
vn  -0.403781 -0.914855 0.000002
vn  0.253118 -0.852032 0.458228
vn  0.314598 -0.949225 0.000002
vn  -0.793471 -0.184011 0.580124
vn  -0.621907 -0.445516 0.644008
vn  -0.403257 -0.703325 0.585421
vn  -0.943643 -0.099212 0.315745
vn  -0.666402 0.560392 0.491802
vn  -0.364354 0.350848 0.862643
vn  -0.101803 -0.054914 0.993288
vn  0.244653 -0.472406 0.846745
vn  -0.705030 -0.709178 0.000002
vn  -0.999302 -0.037347 0.000000
vn  -0.757916 0.652352 -0.000002
vn  -0.666402 0.560390 -0.491805
vn  -0.999302 -0.037347 0.000000
vn  -0.757916 0.652352 -0.000002
vn  0.314598 -0.949225 0.000002
vn  -0.403781 -0.914855 0.000002
vn  0.253118 -0.852034 -0.458225
vn  -0.448189 -0.851239 -0.272980
vn  0.244653 -0.472410 -0.846743
vn  -0.403257 -0.703327 -0.585418
vn  -0.101802 -0.054918 -0.993288
vn  -0.621907 -0.445518 -0.644007
vn  -0.364354 0.350844 -0.862644
vn  -0.793471 -0.184013 -0.580123
vn  -0.943643 -0.099213 -0.315745
vn  -0.705030 -0.709178 0.000002
vn  -0.691581 -0.720806 0.046416
vn  0.030580 -0.999532 0.000002
vn  -0.027222 -0.925547 0.377653
vn  0.754792 -0.655964 0.000001
vn  0.691348 -0.516958 0.504770
vn  0.361075 -0.382268 0.850585
vn  -0.760763 -0.648877 0.014085
vn  -0.773994 -0.630581 0.057453
vn  -0.795222 -0.606264 0.008180
vn  -0.917733 -0.387730 0.086211
vn  -0.934066 -0.357100 0.000001
vn  -0.848700 0.304580 0.432365
vn  -0.837718 0.546102 -0.000001
vn  -0.291184 0.798036 0.527590
vn  -0.722788 -0.147562 0.675132
vn  -0.193870 0.428004 0.882738
vn  -0.470584 -0.460710 0.752527
vn  0.108252 0.097027 0.989377
vn  -0.244183 -0.726218 0.642637
vn  -0.274779 0.961507 -0.000002
vn  -0.112840 0.993613 -0.000002
vn  -0.757916 0.652352 -0.000002
vn  -0.038188 0.916649 0.397864
vn  -0.666402 0.560392 0.491802
vn  -0.364354 0.350848 0.862643
vn  0.599979 0.800016 -0.000002
vn  0.608211 0.787482 0.099754
vn  0.260367 0.679657 0.685767
vn  -0.101803 -0.054914 0.993288
vn  0.993283 0.115709 -0.000000
vn  0.939599 0.196468 -0.280276
vn  0.737395 0.662136 0.133508
vn  0.472501 0.359796 0.804543
vn  0.244653 -0.472406 0.846745
vn  0.754792 -0.655964 0.000001
vn  0.691347 -0.516961 -0.504767
vn  0.801557 0.264570 -0.536199
vn  0.769205 0.610127 0.189917
vn  0.764651 -0.014062 0.644291
vn  0.253118 -0.852032 0.458228
vn  0.839526 -0.394561 0.373522
vn  0.314598 -0.949225 0.000002
vn  0.902476 -0.430741 0.000001
vn  0.961662 0.269122 0.052726
vn  0.976563 0.215232 -0.000001
vn  0.611421 0.791306 -0.000002
vn  0.510528 0.820586 -0.256904
vn  -0.274779 0.961507 -0.000002
vn  -0.291185 0.798033 -0.527593
vn  0.876863 0.469718 0.102353
vn  0.612936 0.558261 -0.559155
vn  0.477835 0.727241 -0.492743
vn  0.361075 -0.382272 -0.850584
vn  0.108252 0.097023 -0.989378
vn  -0.193870 0.428000 -0.882740
vn  0.477835 0.727242 0.492740
vn  0.876863 0.469718 -0.102355
vn  0.612936 0.558264 0.559152
vn  0.769205 0.610126 -0.189921
vn  0.801557 0.264573 0.536197
vn  0.737395 0.662135 -0.133511
vn  0.260367 0.679654 -0.685769
vn  0.472501 0.359793 -0.804545
vn  0.764651 -0.014064 -0.644291
vn  0.839526 -0.394562 -0.373520
vn  0.961662 0.269122 -0.052727
vn  0.510528 0.820587 0.256900
vn  0.902476 -0.430741 0.000001
vn  0.976563 0.215232 -0.000001
vn  0.611421 0.791306 -0.000002
vn  -0.274779 0.961507 -0.000002
vn  -0.291184 0.798036 0.527590
vn  -0.193870 0.428004 0.882738
vn  0.108252 0.097027 0.989377
vn  0.361075 -0.382268 0.850585
vn  0.691348 -0.516958 0.504770
vn  0.939599 0.196469 0.280275
vn  0.608211 0.787482 -0.099757
vn  -0.038188 0.916647 -0.397868
vn  0.314598 -0.949225 0.000002
vn  0.253118 -0.852034 -0.458225
vn  0.244653 -0.472410 -0.846743
vn  -0.101802 -0.054918 -0.993288
vn  -0.364354 0.350844 -0.862644
vn  -0.666402 0.560390 -0.491805
vn  -0.757916 0.652352 -0.000002
vn  -0.112840 0.993613 -0.000002
vn  0.599979 0.800016 -0.000002
vn  0.993283 0.115709 -0.000000
vn  0.754792 -0.655964 0.000001

g M1701
usemtl M1701_3
f  1/1/1 2/2/2 3/3/3
f  4/4/4 5/5/5 6/6/6
f  6/6/6 5/5/5 7/7/7
f  8/8/8 7/7/7 5/5/5
f  7/7/7 8/8/8 9/9/9
f  2/2/2 9/9/9 8/8/8
f  9/9/9 2/2/2 10/10/10
f  1/1/1 10/10/10 2/2/2
f  10/10/10 1/1/1 11/11/11
f  12/12/12 4/4/4 6/6/6
f  4/4/4 12/12/12 13/13/13
f  13/13/13 12/12/12 14/14/14
f  14/14/14 12/12/12 15/15/15
f  15/15/15 12/12/12 16/16/16
f  6/6/6 16/16/16 12/12/12
f  16/16/16 6/6/6 17/17/17
f  7/7/7 17/17/17 6/6/6
f  17/17/17 7/7/7 18/18/18
f  9/9/9 18/18/18 7/7/7
f  18/18/18 9/9/9 19/19/19
f  10/10/10 19/19/19 9/9/9
f  19/19/19 10/10/10 20/20/20
f  11/11/11 20/20/20 10/10/10
f  20/20/20 11/11/11 21/21/21
f  22/22/22 21/21/21 11/11/11
f  21/21/21 22/22/22 23/23/23
f  24/24/24 23/23/23 22/22/22
f  17/17/17 18/18/18 25/25/25
f  25/25/25 18/18/18 26/26/26
f  19/19/19 26/26/26 18/18/18
f  26/26/26 19/19/19 27/27/27
f  20/20/20 27/27/27 19/19/19
f  27/27/27 20/20/20 21/21/21
f  16/16/16 17/17/17 28/28/28
f  25/25/25 28/28/28 17/17/17
f  28/28/28 25/25/25 29/29/29
f  29/29/29 25/25/25 30/30/30
f  26/26/26 30/30/30 25/25/25
f  30/30/30 26/26/26 31/31/31
f  27/27/27 31/31/31 26/26/26
f  31/31/31 27/27/27 32/32/32
f  21/21/21 32/32/32 27/27/27
f  32/32/32 21/21/21 23/23/23
f  15/15/15 16/16/16 33/33/33
f  28/28/28 33/33/33 16/16/16
f  33/33/33 28/28/28 34/34/34
f  29/29/29 34/34/34 28/28/28
f  34/34/34 29/29/29 35/35/35
f  36/36/36 37/37/37 38/38/38
f  39/39/39 40/40/40 41/41/41
f  42/42/42 41/41/41 40/40/40
f  41/41/41 42/42/42 43/43/43
f  44/44/44 43/43/43 42/42/42
f  43/43/43 44/44/44 45/45/45
f  46/46/46 45/45/45 44/44/44
f  45/45/45 46/46/46 47/47/47
f  48/48/48 47/47/47 46/46/46
f  47/47/47 48/48/48 36/36/36
f  49/49/49 36/36/36 48/48/48
f  36/36/36 49/49/49 37/37/37
f  37/37/37 49/49/49 50/50/50
f  51/51/51 50/50/50 49/49/49
f  50/50/50 51/51/51 52/52/52
f  53/53/53 52/52/52 51/51/51
f  52/52/52 53/53/53 54/54/54
f  54/54/54 53/53/53 55/55/55
f  56/56/56 55/55/55 53/53/53
f  48/48/48 57/57/57 49/49/49
f  57/57/57 48/48/48 58/58/58
f  46/46/46 58/58/58 48/48/48
f  58/58/58 46/46/46 59/59/59
f  44/44/44 59/59/59 46/46/46
f  59/59/59 44/44/44 60/60/60
f  42/42/42 60/60/60 44/44/44
f  61/61/61 60/60/60 42/42/42
f  60/60/60 61/61/61 62/62/62
f  63/63/63 62/62/62 61/61/61
f  64/64/64 62/62/62 63/63/63
f  62/62/62 64/64/64 65/65/65
f  66/66/66 65/65/65 64/64/64
f  65/65/65 66/66/66 67/67/67
f  68/68/68 67/67/67 66/66/66
f  67/67/67 68/68/68 69/69/69
f  56/56/56 69/69/69 68/68/68
f  53/53/53 69/69/69 56/56/56
f  60/60/60 62/62/62 59/59/59
f  65/65/65 59/59/59 62/62/62
f  59/59/59 65/65/65 58/58/58
f  67/67/67 58/58/58 65/65/65
f  58/58/58 67/67/67 57/57/57
f  69/69/69 57/57/57 67/67/67
f  51/51/51 69/69/69 53/53/53
f  69/69/69 51/51/51 57/57/57
f  49/49/49 57/57/57 51/51/51
f  64/64/64 63/63/63 70/70/70
f  61/61/61 42/42/42 40/40/40
f  71/71/71 72/72/72 73/73/73
f  74/74/74 73/73/73 72/72/72
f  73/73/73 74/74/74 75/75/75
f  76/76/76 71/71/71 77/77/77
f  73/73/73 77/77/77 71/71/71
f  77/77/77 73/73/73 78/78/78
f  75/75/75 78/78/78 73/73/73
f  78/78/78 75/75/75 79/79/79
f  80/80/80 76/76/76 81/81/81
f  77/77/77 81/81/81 76/76/76
f  81/81/81 77/77/77 82/82/82
f  78/78/78 82/82/82 77/77/77
f  82/82/82 78/78/78 83/83/83
f  79/79/79 83/83/83 78/78/78
f  83/83/83 79/79/79 84/84/84
f  85/85/85 80/80/80 86/86/86
f  81/81/81 86/86/86 80/80/80
f  86/86/86 81/81/81 87/87/87
f  82/82/82 87/87/87 81/81/81
f  87/87/87 82/82/82 88/88/88
f  83/83/83 88/88/88 82/82/82
f  88/88/88 83/83/83 89/89/89
f  84/84/84 89/89/89 83/83/83
f  90/90/90 89/89/89 84/84/84
f  89/89/89 90/90/90 91/91/91
f  92/92/92 91/91/91 90/90/90
f  93/93/93 91/91/91 92/92/92
f  91/91/91 93/93/93 94/94/94
f  95/95/95 94/94/94 93/93/93
f  96/96/96 94/94/94 95/95/95
f  94/94/94 96/96/96 97/97/97
f  98/98/98 97/97/97 96/96/96
f  97/97/97 98/98/98 99/99/99
f  88/88/88 89/89/89 100/100/100
f  91/91/91 100/100/100 89/89/89
f  100/100/100 91/91/91 94/94/94
f  87/87/87 88/88/88 101/101/101
f  100/100/100 101/101/101 88/88/88
f  101/101/101 100/100/100 102/102/102
f  94/94/94 102/102/102 100/100/100
f  102/102/102 94/94/94 97/97/97
f  86/86/86 87/87/87 103/103/103
f  101/101/101 103/103/103 87/87/87
f  103/103/103 101/101/101 104/104/104
f  102/102/102 104/104/104 101/101/101
f  104/104/104 102/102/102 105/105/105
f  97/97/97 105/105/105 102/102/102
f  99/99/99 105/105/105 97/97/97
f  106/106/106 107/107/107 108/108/108
f  109/109/109 108/108/108 107/107/107
f  108/108/108 109/109/109 110/110/110
f  111/111/111 110/110/110 109/109/109
f  112/112/112 111/111/111 113/113/113
f  109/109/109 113/113/113 111/111/111
f  113/113/113 109/109/109 114/114/114
f  107/107/107 114/114/114 109/109/109
f  114/114/114 107/107/107 115/115/115
f  115/115/115 107/107/107 116/116/116
f  106/106/106 116/116/116 107/107/107
f  116/116/116 106/106/106 117/117/117
f  115/115/115 116/116/116 118/118/118
f  118/118/118 116/116/116 119/119/119
f  119/119/119 116/116/116 120/120/120
f  117/117/117 120/120/120 116/116/116
f  120/120/120 117/117/117 121/121/121
f  121/121/121 117/117/117 122/122/122
f  122/122/122 117/117/117 123/123/123
f  106/106/106 123/123/123 117/117/117
f  123/123/123 106/106/106 124/124/124
f  108/108/108 124/124/124 106/106/106
f  124/124/124 108/108/108 125/125/125
f  110/110/110 125/125/125 108/108/108
f  125/125/125 110/110/110 126/126/126
f  126/126/126 110/110/110 127/127/127
f  111/111/111 127/127/127 110/110/110
f  127/127/127 111/111/111 128/128/128
f  112/112/112 128/128/128 111/111/111
f  128/128/128 112/112/112 129/129/129
f  118/118/118 130/130/130 115/115/115
f  131/131/131 115/115/115 130/130/130
f  115/115/115 131/131/131 114/114/114
f  132/132/132 114/114/114 131/131/131
f  114/114/114 132/132/132 113/113/113
f  133/133/133 113/113/113 132/132/132
f  113/113/113 133/133/133 112/112/112
f  134/134/134 112/112/112 133/133/133
f  112/112/112 134/134/134 129/129/129
f  135/135/135 129/129/129 134/134/134
f  136/136/136 129/129/129 135/135/135
f  137/137/137 129/129/129 136/136/136
f  129/129/129 137/137/137 128/128/128
f  138/138/138 128/128/128 137/137/137
f  128/128/128 138/138/138 127/127/127
f  139/139/139 127/127/127 138/138/138
f  127/127/127 139/139/139 126/126/126
f  140/140/140 126/126/126 139/139/139

g
