# Noesis .obj export.
#
mtllib m667.mtl
g
v  -4.389369 0.255250 -0.000000
v  -0.000000 0.255250 -0.000000
v  -0.000000 -0.255250 -0.000000
v  -4.389369 -0.255250 -0.000000
v  -0.000000 -0.255250 1.066140
v  -0.000000 0.255250 1.066140
v  -4.389369 0.255250 1.066140
v  -4.389369 -0.255250 1.066140
v  -0.000000 -0.255250 -0.000000
v  -0.000000 -0.255250 1.066140
v  -4.389369 -0.255250 1.066140
v  -4.389369 -0.255250 -0.000000
v  4.389368 -0.255250 -0.000000
v  4.389368 0.255250 -0.000000
v  4.389368 0.255250 1.066140
v  4.389368 -0.255250 1.066140
v  -0.000000 0.255250 -0.000000
v  -0.000000 0.255250 1.066140
v  4.389368 0.255250 1.066140
v  4.389368 0.255250 -0.000000
v  -4.389369 0.255250 -0.000000
v  -4.389369 -0.255250 -0.000000
v  -4.389369 -0.255250 1.066140
v  -4.389369 0.255250 1.066140
v  4.389368 0.255250 -0.000000
v  4.389368 -0.255250 -0.000000
v  4.389368 -0.255250 1.066140
v  4.389368 0.255250 1.066140
v  4.389368 -0.255250 -0.000000
v  4.389368 -0.255250 1.066140
v  -4.389369 0.255250 -0.000000
v  -4.389369 0.255250 1.066140

vt  0.130332 -0.947061 0.000000
vt  0.509319 -0.950064 0.000000
vt  0.510086 -0.852841 0.000000
vt  0.131098 -0.849811 0.000000
vt  0.511049 -0.732867 0.000000
vt  0.511861 -0.635631 0.000000
vt  0.132877 -0.632472 0.000000
vt  0.132057 -0.729768 0.000000
vt  0.510086 -0.852841 0.000000
vt  0.511049 -0.732867 0.000000
vt  0.132057 -0.729768 0.000000
vt  0.131098 -0.849811 0.000000
vt  0.889078 -0.855863 0.000000
vt  0.986304 -0.856640 0.000000
vt  0.987263 -0.736660 0.000000
vt  0.890036 -0.735911 0.000000
vt  0.512877 -0.515623 0.000000
vt  0.511861 -0.635631 0.000000
vt  0.890839 -0.638756 0.000000
vt  0.891857 -0.518802 0.000000
vt  0.033878 -0.849041 0.000000
vt  0.131098 -0.849811 0.000000
vt  0.132057 -0.729768 0.000000
vt  0.034810 -0.729028 0.000000
vt  0.888307 -0.953074 0.000000
vt  0.889078 -0.855863 0.000000
vt  0.890036 -0.735911 0.000000
vt  0.890839 -0.638756 0.000000
vt  0.889078 -0.855863 0.000000
vt  0.890036 -0.735911 0.000000
vt  0.133895 -0.512455 0.000000
vt  0.132877 -0.632472 0.000000

vn  0.000000 0.000000 -1.000000
vn  0.000000 0.000000 -1.000000
vn  0.000000 0.000000 -1.000000
vn  0.000000 0.000000 -1.000000
vn  0.000000 0.000000 1.000000
vn  0.000000 0.000000 1.000000
vn  0.000000 0.000000 1.000000
vn  0.000000 0.000000 1.000000
vn  0.000000 -1.000000 0.000000
vn  0.000000 -1.000000 0.000000
vn  0.000000 -1.000000 0.000000
vn  0.000000 -1.000000 0.000000
vn  1.000000 0.000000 0.000000
vn  1.000000 0.000000 0.000000
vn  1.000000 0.000000 0.000000
vn  1.000000 0.000000 0.000000
vn  0.000000 1.000000 0.000000
vn  0.000000 1.000000 0.000000
vn  0.000000 1.000000 0.000000
vn  0.000000 1.000000 0.000000
vn  -1.000000 0.000000 0.000000
vn  -1.000000 0.000000 0.000000
vn  -1.000000 0.000000 0.000000
vn  -1.000000 0.000000 0.000000
vn  0.000000 0.000000 -1.000000
vn  0.000000 0.000000 -1.000000
vn  0.000000 0.000000 1.000000
vn  0.000000 0.000000 1.000000
vn  0.000000 -1.000000 0.000000
vn  0.000000 -1.000000 0.000000
vn  0.000000 1.000000 0.000000
vn  0.000000 1.000000 0.000000

g M667
usemtl M667_3
f  1/1/1 2/2/2 3/3/3
f  3/3/3 4/4/4 1/1/1
f  5/5/5 6/6/6 7/7/7
f  7/7/7 8/8/8 5/5/5
f  9/9/9 10/10/10 11/11/11
f  11/11/11 12/12/12 9/9/9
f  13/13/13 14/14/14 15/15/15
f  15/15/15 16/16/16 13/13/13
f  17/17/17 18/18/18 19/19/19
f  19/19/19 20/20/20 17/17/17
f  21/21/21 22/22/22 23/23/23
f  23/23/23 24/24/24 21/21/21
f  25/25/25 26/26/26 3/3/3
f  3/3/3 2/2/2 25/25/25
f  27/27/27 28/28/28 6/6/6
f  6/6/6 5/5/5 27/27/27
f  29/29/29 30/30/30 10/10/10
f  10/10/10 9/9/9 29/29/29
f  31/31/31 32/32/32 18/18/18
f  18/18/18 17/17/17 31/31/31

g
v  -0.492844 -0.519313 0.000000
v  -0.492844 0.519313 0.000000
v  0.492844 0.519313 0.000000
v  0.492844 -0.519313 0.000000
v  -0.492844 -0.519313 1.177973
v  0.492844 -0.519313 1.177973
v  0.492844 0.519313 1.177973
v  -0.492844 0.519313 1.177973
v  -0.492844 -0.519313 0.000000
v  0.492844 -0.519313 0.000000
v  0.492844 -0.519313 1.177973
v  -0.492844 -0.519313 1.177973
v  0.492844 -0.519313 0.000000
v  0.492844 0.519313 0.000000
v  0.492844 0.519313 1.177973
v  0.492844 -0.519313 1.177973
v  0.492844 0.519313 0.000000
v  -0.492844 0.519313 0.000000
v  -0.492844 0.519313 1.177973
v  0.492844 0.519313 1.177973
v  -0.492844 0.519313 0.000000
v  -0.492844 -0.519313 0.000000
v  -0.492844 -0.519313 1.177973
v  -0.492844 0.519313 1.177973

vt  0.000000 -0.000000 0.000000
vt  0.000000 -0.000000 0.000000
vt  0.000000 -0.000000 0.000000
vt  0.000000 -0.000000 0.000000
vt  0.000000 -0.000000 0.000000
vt  0.000000 -0.000000 0.000000
vt  0.000000 -0.000000 0.000000
vt  0.000000 -0.000000 0.000000
vt  0.000000 -0.000000 0.000000
vt  0.000000 -0.000000 0.000000
vt  0.000000 -0.000000 0.000000
vt  0.000000 -0.000000 0.000000
vt  0.000000 -0.000000 0.000000
vt  0.000000 -0.000000 0.000000
vt  0.000000 -0.000000 0.000000
vt  0.000000 -0.000000 0.000000
vt  0.000000 -0.000000 0.000000
vt  0.000000 -0.000000 0.000000
vt  0.000000 -0.000000 0.000000
vt  0.000000 -0.000000 0.000000
vt  0.000000 -0.000000 0.000000
vt  0.000000 -0.000000 0.000000
vt  0.000000 -0.000000 0.000000
vt  0.000000 -0.000000 0.000000

vn  0.000000 0.000000 -1.000000
vn  0.000000 0.000000 -1.000000
vn  0.000000 0.000000 -1.000000
vn  0.000000 0.000000 -1.000000
vn  0.000000 0.000000 1.000000
vn  0.000000 0.000000 1.000000
vn  0.000000 0.000000 1.000000
vn  0.000000 0.000000 1.000000
vn  0.000000 -1.000000 0.000000
vn  0.000000 -1.000000 0.000000
vn  0.000000 -1.000000 0.000000
vn  0.000000 -1.000000 0.000000
vn  1.000000 0.000000 0.000000
vn  1.000000 0.000000 0.000000
vn  1.000000 0.000000 0.000000
vn  1.000000 0.000000 0.000000
vn  0.000000 1.000000 0.000000
vn  0.000000 1.000000 0.000000
vn  0.000000 1.000000 0.000000
vn  0.000000 1.000000 0.000000
vn  -1.000000 0.000000 0.000000
vn  -1.000000 0.000000 0.000000
vn  -1.000000 0.000000 0.000000
vn  -1.000000 0.000000 0.000000

g Box
usemtl mesh19material
f  33/33/33 34/34/34 35/35/35
f  35/35/35 36/36/36 33/33/33
f  37/37/37 38/38/38 39/39/39
f  39/39/39 40/40/40 37/37/37
f  41/41/41 42/42/42 43/43/43
f  43/43/43 44/44/44 41/41/41
f  45/45/45 46/46/46 47/47/47
f  47/47/47 48/48/48 45/45/45
f  49/49/49 50/50/50 51/51/51
f  51/51/51 52/52/52 49/49/49
f  53/53/53 54/54/54 55/55/55
f  55/55/55 56/56/56 53/53/53

g
v  -0.407844 -0.414040 0.000000
v  -0.407844 0.414040 0.000000
v  0.407844 0.414040 0.000000
v  0.407844 -0.414040 0.000000
v  -0.407844 -0.414040 1.014646
v  0.407844 -0.414040 1.014646
v  0.407844 0.414040 1.014646
v  -0.407844 0.414040 1.014646
v  -0.407844 -0.414040 0.000000
v  0.407844 -0.414040 0.000000
v  0.407844 -0.414040 1.014646
v  -0.407844 -0.414040 1.014646
v  0.407844 -0.414040 0.000000
v  0.407844 0.414040 0.000000
v  0.407844 0.414040 1.014646
v  0.407844 -0.414040 1.014646
v  0.407844 0.414040 0.000000
v  -0.407844 0.414040 0.000000
v  -0.407844 0.414040 1.014646
v  0.407844 0.414040 1.014646
v  -0.407844 0.414040 0.000000
v  -0.407844 -0.414040 0.000000
v  -0.407844 -0.414040 1.014646
v  -0.407844 0.414040 1.014646

vt  0.000000 -0.000000 0.000000
vt  0.000000 -0.000000 0.000000
vt  0.000000 -0.000000 0.000000
vt  0.000000 -0.000000 0.000000
vt  0.000000 -0.000000 0.000000
vt  0.000000 -0.000000 0.000000
vt  0.000000 -0.000000 0.000000
vt  0.000000 -0.000000 0.000000
vt  0.000000 -0.000000 0.000000
vt  0.000000 -0.000000 0.000000
vt  0.000000 -0.000000 0.000000
vt  0.000000 -0.000000 0.000000
vt  0.000000 -0.000000 0.000000
vt  0.000000 -0.000000 0.000000
vt  0.000000 -0.000000 0.000000
vt  0.000000 -0.000000 0.000000
vt  0.000000 -0.000000 0.000000
vt  0.000000 -0.000000 0.000000
vt  0.000000 -0.000000 0.000000
vt  0.000000 -0.000000 0.000000
vt  0.000000 -0.000000 0.000000
vt  0.000000 -0.000000 0.000000
vt  0.000000 -0.000000 0.000000
vt  0.000000 -0.000000 0.000000

vn  0.000000 0.000000 -1.000000
vn  0.000000 0.000000 -1.000000
vn  0.000000 0.000000 -1.000000
vn  0.000000 0.000000 -1.000000
vn  0.000000 0.000000 1.000000
vn  0.000000 0.000000 1.000000
vn  0.000000 0.000000 1.000000
vn  0.000000 0.000000 1.000000
vn  0.000000 -1.000000 0.000000
vn  0.000000 -1.000000 0.000000
vn  0.000000 -1.000000 0.000000
vn  0.000000 -1.000000 0.000000
vn  1.000000 0.000000 0.000000
vn  1.000000 0.000000 0.000000
vn  1.000000 0.000000 0.000000
vn  1.000000 0.000000 0.000000
vn  0.000000 1.000000 0.000000
vn  0.000000 1.000000 0.000000
vn  0.000000 1.000000 0.000000
vn  0.000000 1.000000 0.000000
vn  -1.000000 0.000000 0.000000
vn  -1.000000 0.000000 0.000000
vn  -1.000000 0.000000 0.000000
vn  -1.000000 0.000000 0.000000

g Box@#0
usemtl mesh22material
f  57/57/57 58/58/58 59/59/59
f  59/59/59 60/60/60 57/57/57
f  61/61/61 62/62/62 63/63/63
f  63/63/63 64/64/64 61/61/61
f  65/65/65 66/66/66 67/67/67
f  67/67/67 68/68/68 65/65/65
f  69/69/69 70/70/70 71/71/71
f  71/71/71 72/72/72 69/69/69
f  73/73/73 74/74/74 75/75/75
f  75/75/75 76/76/76 73/73/73
f  77/77/77 78/78/78 79/79/79
f  79/79/79 80/80/80 77/77/77

g
