<?xml version="1.0" standalone="no"?>
<!DOCTYPE svg PUBLIC "-//W3C//DTD SVG 20010904//EN"
 "http://www.w3.org/TR/2001/REC-SVG-20010904/DTD/svg10.dtd">
<svg version="1.0" xmlns="http://www.w3.org/2000/svg"
 width="600.000000pt" height="150.000000pt" viewBox="0 0 600.000000 150.000000"
 preserveAspectRatio="xMidYMid meet">
<metadata>
Created by potrace 1.16, written by Peter Selinger 2001-2019
</metadata>
<g transform="translate(0.000000,150.000000) scale(0.100000,-0.100000)"
fill="#000000" stroke="none">
<path d="M5798 433 c28 -6 29 -18 0 -20 -11 -1 -24 -6 -27 -10 -3 -4 -64 -8
-136 -9 -299 -2 -543 -12 -595 -24 l-55 -13 55 -13 c31 -7 64 -12 74 -11 10 1
21 -3 23 -10 3 -8 -8 -11 -31 -10 -20 1 -36 5 -36 9 0 4 -13 6 -30 4 -16 -2
-30 1 -30 5 0 12 -87 12 -94 0 -3 -5 -23 -12 -43 -15 -21 -4 -51 -9 -67 -12
-19 -4 -26 -3 -22 5 4 6 2 11 -4 11 -7 0 -10 7 -6 15 3 8 1 15 -4 15 -6 0 -10
-5 -10 -11 0 -25 -73 -42 -150 -34 -41 4 -88 6 -105 4 -45 -4 -115 -3 -160 2
-27 4 -41 10 -43 22 -2 10 -7 15 -12 12 -5 -3 -7 -12 -3 -20 3 -8 0 -15 -6
-15 -6 0 -11 5 -11 11 0 6 -6 7 -12 2 -7 -4 -96 -8 -198 -9 -102 -1 -192 -2
-200 -3 -8 0 -87 0 -175 1 -88 0 -197 -4 -242 -9 -46 -5 -83 -6 -83 -2 0 4
-116 5 -257 4 -142 -2 -283 -3 -313 -2 -55 2 -966 0 -985 -2 -5 0 -365 1 -799
4 -554 4 -793 9 -803 16 -7 6 -13 8 -13 3 1 -13 22 -38 50 -57 23 -16 202 -17
2801 -17 l2777 0 31 26 c27 22 31 32 31 74 0 41 -4 52 -26 69 -15 12 -38 20
-53 20 -23 -2 -24 -2 -3 -6z"/>
</g>
</svg>
