# Noesis .obj export.
#
mtllib w282.mtl
g
v  0.007855 -0.072246 -0.210072
v  -0.130408 -0.072246 -0.258600
v  0.008341 0.000000 -0.215363
v  -0.129807 0.000000 -0.263831
v  -0.130408 0.072246 -0.258600
v  0.007855 0.072246 -0.210072
v  0.159187 -0.000000 -0.132729
v  0.156478 0.072246 -0.125437
v  0.286955 -0.000000 0.047849
v  0.278784 0.072246 0.046863
v  0.336182 0.072246 0.253680
v  0.344685 -0.000000 0.254449
v  0.372582 0.072246 0.390584
v  0.377943 -0.000000 0.387327
v  0.372582 -0.072246 0.390584
v  0.336182 -0.072246 0.253680
v  0.278784 -0.072246 0.046863
v  0.156478 -0.072246 -0.125437
v  -0.216899 0.083162 0.483199
v  -0.200120 0.083163 0.584486
v  -0.034074 0.072246 0.398316
v  0.211466 0.072246 0.458869
v  0.169464 0.072246 0.243759
v  -0.130408 0.072246 -0.258600
v  -0.124579 0.072246 -0.138163
v  0.007855 0.072246 -0.210072
v  -0.013024 0.072246 -0.102100
v  0.156478 0.072246 -0.125437
v  0.100367 0.072246 -0.019573
v  0.278784 0.072246 0.046863
v  0.174511 0.072246 0.121375
v  0.336182 0.072246 0.253680
v  0.372582 0.072246 0.390584
v  0.169464 -0.072246 0.243759
v  0.211466 -0.072246 0.458869
v  -0.034074 -0.072246 0.398316
v  -0.200120 -0.083162 0.584486
v  -0.216899 -0.083162 0.483199
v  0.372582 -0.072246 0.390584
v  0.336182 -0.072246 0.253680
v  0.278784 -0.072246 0.046863
v  0.174511 -0.072246 0.121375
v  0.100367 -0.072246 -0.019573
v  0.156478 -0.072246 -0.125437
v  -0.013024 -0.072246 -0.102100
v  0.007855 -0.072246 -0.210072
v  -0.124579 -0.072246 -0.138163
v  -0.130408 -0.072246 -0.258600
v  -0.200120 0.083163 0.584486
v  -0.216899 0.083162 0.483199
v  -0.197584 0.000000 0.583641
v  -0.216899 0.000000 0.483199
v  -0.216899 -0.083162 0.483199
v  -0.200120 -0.083162 0.584486
v  -0.138706 -0.020749 1.661740
v  -0.075661 0.000000 1.677767
v  -0.261426 -0.014569 1.802522
v  -0.270523 0.000000 1.882840
v  -0.270729 0.000000 1.560351
v  -0.250142 -0.026364 1.557837
v  -0.196521 0.000000 1.312296
v  -0.176535 0.033718 1.314147
v  -0.250142 0.026364 1.557837
v  -0.000809 0.027472 1.405244
v  -0.138706 0.020749 1.661740
v  0.089987 0.000000 1.432850
v  -0.000809 -0.027472 1.405243
v  -0.176535 -0.033717 1.314147
v  -0.155604 0.000000 1.079767
v  -0.136073 0.039752 1.080393
v  0.085963 0.027504 1.145592
v  0.199971 -0.000000 1.180741
v  0.085963 -0.027504 1.145592
v  -0.136073 -0.039752 1.080393
v  -0.142035 0.000000 0.831187
v  -0.117638 0.048621 0.831579
v  0.175416 0.036154 0.832576
v  0.312657 -0.000000 0.837996
v  0.175416 -0.036154 0.832576
v  -0.117638 -0.048621 0.831580
v  -0.182470 0.000000 0.579713
v  -0.157101 0.061870 0.575105
v  0.198913 0.030119 0.473941
v  0.342833 -0.000000 0.416472
v  0.198913 -0.030119 0.473941
v  -0.157101 -0.061870 0.575105
v  -0.261426 0.014569 1.802521
v  0.050343 0.000000 0.415208
v  0.036460 0.000000 0.302683
v  0.005443 0.041622 0.416040
v  0.002906 0.031658 0.304245
v  -0.037996 0.000000 0.416517
v  -0.029852 0.000000 0.305610
v  0.002906 -0.031658 0.304245
v  0.005443 -0.041622 0.416040
v  0.032715 0.000000 -0.128066
v  -0.003538 -0.031658 -0.000141
v  -0.005910 -0.040621 -0.127479
v  -0.034388 0.000000 0.001241
v  -0.044090 0.000000 -0.127003
v  -0.005910 0.040621 -0.127479
v  -0.003538 0.031658 -0.000141
v  0.027783 0.000000 -0.001640
v  0.169464 -0.072246 0.243759
v  0.172671 -0.000000 0.244452
v  0.174511 -0.072246 0.121375
v  0.177449 -0.000000 0.122099
v  0.102893 0.000000 -0.011744
v  0.100367 -0.072246 -0.019573
v  -0.012610 0.000000 -0.102641
v  -0.013024 -0.072246 -0.102100
v  -0.124655 0.000000 -0.141085
v  -0.124579 -0.072246 -0.138163
v  -0.129807 0.000000 -0.263831
v  -0.130408 -0.072246 -0.258600
v  -0.034074 -0.072246 0.398316
v  -0.028871 0.000000 0.401190
v  -0.216899 -0.083162 0.483199
v  -0.216899 0.000000 0.483199
v  -0.216899 0.083162 0.483199
v  -0.034074 0.072246 0.398316
v  0.169464 0.072246 0.243759
v  0.174511 0.072246 0.121375
v  0.100367 0.072246 -0.019573
v  -0.013024 0.072246 -0.102100
v  -0.124579 0.072246 -0.138163
v  -0.130408 0.072246 -0.258600
v  0.377943 -0.000000 0.387327
v  0.372582 0.072246 0.390584
v  0.342833 -0.000000 0.416472
v  0.211466 0.072246 0.458869
v  0.198913 0.030119 0.473941
v  -0.157101 0.061870 0.575105
v  -0.200120 0.083163 0.584486
v  -0.182470 0.000000 0.579713
v  -0.197584 0.000000 0.583641
v  -0.200120 -0.083162 0.584486
v  -0.157101 -0.061870 0.575105
v  0.211466 -0.072246 0.458869
v  0.198913 -0.030119 0.473941
v  0.372582 -0.072246 0.390584

vt  0.878577 -0.150290 0.000000
vt  0.974636 -0.152120 0.000000
vt  0.882485 -0.086239 0.000000
vt  0.978116 -0.087989 0.000000
vt  0.979802 -0.023913 0.000000
vt  0.883750 -0.022318 0.000000
vt  0.779086 -0.084418 0.000000
vt  0.779605 -0.020478 0.000000
vt  0.647253 -0.081946 0.000000
vt  0.653115 -0.018154 0.000000
vt  0.521060 -0.015281 0.000000
vt  0.516023 -0.079440 0.000000
vt  0.433083 -0.013691 0.000000
vt  0.431429 -0.077855 0.000000
vt  0.427832 -0.141919 0.000000
vt  0.515702 -0.143501 0.000000
vt  0.647691 -0.145766 0.000000
vt  0.774286 -0.148359 0.000000
vt  0.094944 -0.505900 0.000000
vt  0.016154 -0.501804 0.000000
vt  0.130441 -0.660285 0.000000
vt  0.041162 -0.810637 0.000000
vt  0.207157 -0.825410 0.000000
vt  0.665204 -0.980726 0.000000
vt  0.621969 -0.899389 0.000000
vt  0.553622 -0.985631 0.000000
vt  0.527914 -0.911250 0.000000
vt  0.435761 -0.981215 0.000000
vt  0.419899 -0.895580 0.000000
vt  0.294096 -0.967851 0.000000
vt  0.301571 -0.863753 0.000000
vt  0.146415 -0.949601 0.000000
vt  0.045439 -0.943842 0.000000
vt  0.207157 -0.825410 0.000000
vt  0.041162 -0.810637 0.000000
vt  0.130441 -0.660285 0.000000
vt  0.016154 -0.501804 0.000000
vt  0.094944 -0.505900 0.000000
vt  0.045439 -0.943842 0.000000
vt  0.146415 -0.949601 0.000000
vt  0.294096 -0.967851 0.000000
vt  0.301571 -0.863753 0.000000
vt  0.419899 -0.895580 0.000000
vt  0.435761 -0.981215 0.000000
vt  0.527914 -0.911250 0.000000
vt  0.553622 -0.985631 0.000000
vt  0.621969 -0.899389 0.000000
vt  0.665204 -0.980726 0.000000
vt  0.161657 -0.532225 0.000000
vt  0.159740 -0.620310 0.000000
vt  0.244744 -0.536569 0.000000
vt  0.242820 -0.624297 0.000000
vt  0.159740 -0.620310 0.000000
vt  0.161657 -0.532225 0.000000
vt  0.106722 -0.198690 0.000000
vt  0.060949 -0.237063 0.000000
vt  0.053991 -0.055339 0.000000
vt  0.010650 -0.007556 0.000000
vt  0.233735 -0.119614 0.000000
vt  0.218831 -0.156533 0.000000
vt  0.407136 -0.216796 0.000000
vt  0.383794 -0.267892 0.000000
vt  0.218831 -0.156533 0.000000
vt  0.261042 -0.377203 0.000000
vt  0.106722 -0.198690 0.000000
vt  0.197044 -0.442171 0.000000
vt  0.261042 -0.377203 0.000000
vt  0.383794 -0.267892 0.000000
vt  0.580023 -0.279755 0.000000
vt  0.558559 -0.346031 0.000000
vt  0.448206 -0.500721 0.000000
vt  0.379850 -0.589002 0.000000
vt  0.448206 -0.500721 0.000000
vt  0.558559 -0.346031 0.000000
vt  0.779156 -0.321136 0.000000
vt  0.761185 -0.408153 0.000000
vt  0.689764 -0.622244 0.000000
vt  0.641896 -0.743887 0.000000
vt  0.689764 -0.622244 0.000000
vt  0.761185 -0.408153 0.000000
vt  0.987135 -0.340227 0.000000
vt  0.977032 -0.440739 0.000000
vt  0.975521 -0.718487 0.000000
vt  0.980721 -0.851446 0.000000
vt  0.975521 -0.718487 0.000000
vt  0.977032 -0.440739 0.000000
vt  0.053991 -0.055339 0.000000
vt  0.586633 -0.261721 0.000000
vt  0.667258 -0.266546 0.000000
vt  0.585636 -0.210114 0.000000
vt  0.670426 -0.223917 0.000000
vt  0.602215 -0.162748 0.000000
vt  0.679152 -0.185148 0.000000
vt  0.670426 -0.223917 0.000000
vt  0.585636 -0.210114 0.000000
vt  0.965996 -0.322508 0.000000
vt  0.887137 -0.260215 0.000000
vt  0.980962 -0.276444 0.000000
vt  0.891441 -0.218576 0.000000
vt  0.982316 -0.226541 0.000000
vt  0.980962 -0.276444 0.000000
vt  0.887137 -0.260215 0.000000
vt  0.879266 -0.298284 0.000000
vt  0.556706 -0.795961 0.000000
vt  0.583703 -0.737010 0.000000
vt  0.629100 -0.828727 0.000000
vt  0.655314 -0.769286 0.000000
vt  0.741400 -0.807801 0.000000
vt  0.719400 -0.869323 0.000000
vt  0.827529 -0.845632 0.000000
vt  0.801457 -0.905234 0.000000
vt  0.903094 -0.878993 0.000000
vt  0.875928 -0.938143 0.000000
vt  0.979391 -0.912053 0.000000
vt  0.950314 -0.970478 0.000000
vt  0.409451 -0.731436 0.000000
vt  0.436963 -0.672466 0.000000
vt  0.278655 -0.674693 0.000000
vt  0.304502 -0.614865 0.000000
vt  0.278655 -0.674693 0.000000
vt  0.409451 -0.731436 0.000000
vt  0.556706 -0.795961 0.000000
vt  0.629100 -0.828727 0.000000
vt  0.719400 -0.869323 0.000000
vt  0.801457 -0.905234 0.000000
vt  0.875928 -0.938143 0.000000
vt  0.950314 -0.970478 0.000000
vt  0.210117 -0.776242 0.000000
vt  0.222278 -0.688273 0.000000
vt  0.248070 -0.792043 0.000000
vt  0.375980 -0.752050 0.000000
vt  0.386984 -0.810828 0.000000
vt  0.683912 -0.892361 0.000000
vt  0.725136 -0.895495 0.000000
vt  0.703866 -0.979913 0.000000
vt  0.718170 -0.985618 0.000000
vt  0.725136 -0.895495 0.000000
vt  0.683912 -0.892361 0.000000
vt  0.375980 -0.752050 0.000000
vt  0.386984 -0.810828 0.000000
vt  0.222278 -0.688273 0.000000

vn  0.287267 -0.713879 -0.638634
vn  -0.505400 -0.578570 -0.640178
vn  0.406037 0.000000 -0.913857
vn  -0.576575 0.000000 -0.817044
vn  -0.505400 0.578571 -0.640177
vn  0.287267 0.713879 -0.638634
vn  0.665983 0.000000 -0.745967
vn  0.484053 0.697622 -0.528220
vn  0.905816 -0.000000 -0.423671
vn  0.638500 0.704854 -0.309030
vn  0.644991 0.743686 -0.175837
vn  0.965416 -0.000000 -0.260715
vn  0.704529 0.629194 0.328258
vn  0.956891 -0.000000 0.290449
vn  0.704529 -0.629195 0.328258
vn  0.644991 -0.743686 -0.175837
vn  0.638499 -0.704854 -0.309030
vn  0.484052 -0.697622 -0.528220
vn  -0.697040 0.607625 -0.380693
vn  -0.451623 0.581267 0.676879
vn  -0.354504 0.694549 -0.626042
vn  0.234454 0.768743 0.595034
vn  -0.525252 0.804762 -0.276529
vn  -0.505400 0.578571 -0.640177
vn  -0.636911 0.589130 0.497263
vn  0.287267 0.713879 -0.638634
vn  -0.308843 0.739413 0.598235
vn  0.484053 0.697622 -0.528220
vn  -0.480798 0.771663 0.416378
vn  0.638500 0.704854 -0.309030
vn  -0.630723 0.761283 0.150458
vn  0.644991 0.743686 -0.175837
vn  0.704529 0.629194 0.328258
vn  -0.525253 -0.804762 -0.276529
vn  0.234454 -0.768741 0.595037
vn  -0.354504 -0.694548 -0.626043
vn  -0.451623 -0.581266 0.676880
vn  -0.697040 -0.607625 -0.380693
vn  0.704529 -0.629195 0.328258
vn  0.644991 -0.743686 -0.175837
vn  0.638499 -0.704854 -0.309030
vn  -0.630723 -0.761282 0.150458
vn  -0.480798 -0.771663 0.416377
vn  0.484052 -0.697622 -0.528220
vn  -0.308843 -0.739413 0.598235
vn  0.287267 -0.713879 -0.638634
vn  -0.636911 -0.589130 0.497263
vn  -0.505400 -0.578570 -0.640178
vn  -0.451623 0.581267 0.676879
vn  -0.697040 0.607625 -0.380693
vn  -0.532079 0.000001 0.846695
vn  -0.884783 0.000000 -0.466002
vn  -0.697040 -0.607625 -0.380693
vn  -0.451623 -0.581266 0.676880
vn  0.140505 -0.980133 0.139990
vn  0.783417 0.000000 0.621496
vn  -0.388847 -0.915094 0.106775
vn  -0.290506 0.000000 0.956873
vn  -0.991738 0.000000 -0.128282
vn  -0.460821 -0.885831 -0.054288
vn  -0.974231 0.000001 -0.225551
vn  -0.455173 0.885957 -0.088876
vn  -0.460821 0.885831 -0.054288
vn  0.140362 0.986855 0.080097
vn  0.140505 0.980133 0.139990
vn  0.885261 0.000000 0.465095
vn  0.140362 -0.986855 0.080097
vn  -0.455174 -0.885956 -0.088876
vn  -0.993209 0.000000 -0.116348
vn  -0.493875 0.868787 -0.036012
vn  0.131127 0.989927 0.053387
vn  0.945426 -0.000000 0.325837
vn  0.131127 -0.989927 0.053387
vn  -0.493875 -0.868787 -0.036012
vn  -0.998026 -0.000000 0.062794
vn  -0.470363 0.881198 0.047414
vn  0.152376 0.987661 0.036162
vn  0.979616 -0.000000 0.200880
vn  0.152375 -0.987661 0.036162
vn  -0.470363 -0.881198 0.047414
vn  -0.413402 0.000001 0.910548
vn  -0.011691 0.522686 0.852445
vn  0.304688 0.761817 0.571664
vn  0.549456 0.000000 0.835523
vn  0.304688 -0.761815 0.571666
vn  -0.011690 -0.522682 0.852448
vn  -0.388847 0.915094 0.106775
vn  0.992475 0.000001 -0.122448
vn  0.997243 0.000000 -0.074204
vn  -0.005231 0.995914 -0.090158
vn  -0.006874 0.998847 -0.047507
vn  -0.997485 0.000001 -0.070877
vn  -0.999612 -0.000000 -0.027866
vn  -0.006874 -0.998847 -0.047507
vn  -0.005232 -0.995914 -0.090158
vn  0.998931 -0.000000 0.046233
vn  -0.001355 -0.999487 0.031993
vn  -0.002054 -0.997788 0.066445
vn  -0.998769 -0.000000 0.049604
vn  -0.997151 0.000001 0.075433
vn  -0.002053 0.997788 0.066445
vn  -0.001355 0.999487 0.031993
vn  0.999956 -0.000000 0.009359
vn  -0.525253 -0.804762 -0.276529
vn  -0.888523 0.000001 -0.458832
vn  -0.630723 -0.761282 0.150458
vn  -0.973362 0.000000 0.229276
vn  -0.775371 -0.000000 0.631506
vn  -0.480798 -0.771663 0.416377
vn  -0.466814 -0.000000 0.884356
vn  -0.308843 -0.739413 0.598235
vn  -0.805154 0.000000 0.593066
vn  -0.636911 -0.589130 0.497263
vn  -0.576575 0.000000 -0.817044
vn  -0.505400 -0.578570 -0.640178
vn  -0.354504 -0.694548 -0.626043
vn  -0.521962 0.000001 -0.852969
vn  -0.697040 -0.607625 -0.380693
vn  -0.884783 0.000000 -0.466002
vn  -0.697040 0.607625 -0.380693
vn  -0.354504 0.694549 -0.626042
vn  -0.525252 0.804762 -0.276529
vn  -0.630723 0.761283 0.150458
vn  -0.480798 0.771663 0.416378
vn  -0.308843 0.739413 0.598235
vn  -0.636911 0.589130 0.497263
vn  -0.505400 0.578571 -0.640177
vn  0.956891 -0.000000 0.290449
vn  0.704529 0.629194 0.328258
vn  0.549456 0.000000 0.835523
vn  0.234454 0.768743 0.595034
vn  0.304688 0.761817 0.571664
vn  -0.011691 0.522686 0.852445
vn  -0.451623 0.581267 0.676879
vn  -0.413402 0.000001 0.910548
vn  -0.532079 0.000001 0.846695
vn  -0.451623 -0.581266 0.676880
vn  -0.011690 -0.522682 0.852448
vn  0.234454 -0.768741 0.595037
vn  0.304688 -0.761815 0.571666
vn  0.704529 -0.629195 0.328258

g "Editable Poly"
usemtl W282_8
f  1/1/1 2/2/2 3/3/3
f  4/4/4 3/3/3 2/2/2
f  4/4/4 5/5/5 3/3/3
f  6/6/6 3/3/3 5/5/5
f  3/3/3 6/6/6 7/7/7
f  8/8/8 7/7/7 6/6/6
f  7/7/7 8/8/8 9/9/9
f  10/10/10 9/9/9 8/8/8
f  11/11/11 9/9/9 10/10/10
f  9/9/9 11/11/11 12/12/12
f  13/13/13 12/12/12 11/11/11
f  14/14/14 12/12/12 13/13/13
f  15/15/15 12/12/12 14/14/14
f  16/16/16 12/12/12 15/15/15
f  12/12/12 16/16/16 9/9/9
f  17/17/17 9/9/9 16/16/16
f  18/18/18 9/9/9 17/17/17
f  9/9/9 18/18/18 7/7/7
f  1/1/1 7/7/7 18/18/18
f  7/7/7 1/1/1 3/3/3
f  19/19/19 20/20/20 21/21/21
f  22/22/22 21/21/21 20/20/20
f  21/21/21 22/22/22 23/23/23
f  24/24/24 25/25/25 26/26/26
f  27/27/27 26/26/26 25/25/25
f  26/26/26 27/27/27 28/28/28
f  29/29/29 28/28/28 27/27/27
f  28/28/28 29/29/29 30/30/30
f  31/31/31 30/30/30 29/29/29
f  23/23/23 30/30/30 31/31/31
f  30/30/30 23/23/23 32/32/32
f  22/22/22 32/32/32 23/23/23
f  32/32/32 22/22/22 33/33/33
f  34/34/34 35/35/35 36/36/36
f  37/37/37 36/36/36 35/35/35
f  36/36/36 37/37/37 38/38/38
f  39/39/39 35/35/35 40/40/40
f  34/34/34 40/40/40 35/35/35
f  40/40/40 34/34/34 41/41/41
f  42/42/42 41/41/41 34/34/34
f  43/43/43 41/41/41 42/42/42
f  41/41/41 43/43/43 44/44/44
f  45/45/45 44/44/44 43/43/43
f  44/44/44 45/45/45 46/46/46
f  47/47/47 46/46/46 45/45/45
f  46/46/46 47/47/47 48/48/48
f  49/49/49 50/50/50 51/51/51
f  52/52/52 51/51/51 50/50/50
f  53/53/53 51/51/51 52/52/52
f  51/51/51 53/53/53 54/54/54
f  55/55/55 56/56/56 57/57/57
f  58/58/58 57/57/57 56/56/56
f  59/59/59 57/57/57 58/58/58
f  60/60/60 57/57/57 59/59/59
f  57/57/57 60/60/60 55/55/55
f  61/61/61 59/59/59 62/62/62
f  63/63/63 62/62/62 59/59/59
f  62/62/62 63/63/63 64/64/64
f  65/65/65 64/64/64 63/63/63
f  64/64/64 65/65/65 66/66/66
f  56/56/56 66/66/66 65/65/65
f  55/55/55 66/66/66 56/56/56
f  66/66/66 55/55/55 67/67/67
f  60/60/60 67/67/67 55/55/55
f  67/67/67 60/60/60 68/68/68
f  59/59/59 68/68/68 60/60/60
f  68/68/68 59/59/59 61/61/61
f  69/69/69 61/61/61 70/70/70
f  62/62/62 70/70/70 61/61/61
f  70/70/70 62/62/62 71/71/71
f  64/64/64 71/71/71 62/62/62
f  71/71/71 64/64/64 72/72/72
f  66/66/66 72/72/72 64/64/64
f  67/67/67 72/72/72 66/66/66
f  72/72/72 67/67/67 73/73/73
f  68/68/68 73/73/73 67/67/67
f  73/73/73 68/68/68 74/74/74
f  61/61/61 74/74/74 68/68/68
f  74/74/74 61/61/61 69/69/69
f  75/75/75 69/69/69 76/76/76
f  70/70/70 76/76/76 69/69/69
f  76/76/76 70/70/70 77/77/77
f  71/71/71 77/77/77 70/70/70
f  77/77/77 71/71/71 78/78/78
f  72/72/72 78/78/78 71/71/71
f  73/73/73 78/78/78 72/72/72
f  78/78/78 73/73/73 79/79/79
f  74/74/74 79/79/79 73/73/73
f  79/79/79 74/74/74 80/80/80
f  69/69/69 80/80/80 74/74/74
f  80/80/80 69/69/69 75/75/75
f  81/81/81 75/75/75 82/82/82
f  76/76/76 82/82/82 75/75/75
f  82/82/82 76/76/76 83/83/83
f  77/77/77 83/83/83 76/76/76
f  83/83/83 77/77/77 84/84/84
f  78/78/78 84/84/84 77/77/77
f  79/79/79 84/84/84 78/78/78
f  84/84/84 79/79/79 85/85/85
f  80/80/80 85/85/85 79/79/79
f  85/85/85 80/80/80 86/86/86
f  75/75/75 86/86/86 80/80/80
f  86/86/86 75/75/75 81/81/81
f  65/65/65 63/63/63 87/87/87
f  59/59/59 87/87/87 63/63/63
f  58/58/58 87/87/87 59/59/59
f  56/56/56 87/87/87 58/58/58
f  87/87/87 56/56/56 65/65/65
f  88/88/88 89/89/89 90/90/90
f  91/91/91 90/90/90 89/89/89
f  90/90/90 91/91/91 92/92/92
f  93/93/93 92/92/92 91/91/91
f  94/94/94 92/92/92 93/93/93
f  92/92/92 94/94/94 95/95/95
f  89/89/89 95/95/95 94/94/94
f  95/95/95 89/89/89 88/88/88
f  96/96/96 97/97/97 98/98/98
f  99/99/99 98/98/98 97/97/97
f  98/98/98 99/99/99 100/100/100
f  100/100/100 99/99/99 101/101/101
f  102/102/102 101/101/101 99/99/99
f  101/101/101 102/102/102 96/96/96
f  103/103/103 96/96/96 102/102/102
f  96/96/96 103/103/103 97/97/97
f  97/97/97 103/103/103 94/94/94
f  94/94/94 103/103/103 89/89/89
f  89/89/89 103/103/103 91/91/91
f  102/102/102 91/91/91 103/103/103
f  91/91/91 102/102/102 93/93/93
f  99/99/99 93/93/93 102/102/102
f  97/97/97 93/93/93 99/99/99
f  93/93/93 97/97/97 94/94/94
f  104/104/104 105/105/105 106/106/106
f  107/107/107 106/106/106 105/105/105
f  108/108/108 106/106/106 107/107/107
f  106/106/106 108/108/108 109/109/109
f  110/110/110 109/109/109 108/108/108
f  109/109/109 110/110/110 111/111/111
f  112/112/112 111/111/111 110/110/110
f  111/111/111 112/112/112 113/113/113
f  114/114/114 113/113/113 112/112/112
f  113/113/113 114/114/114 115/115/115
f  116/116/116 105/105/105 104/104/104
f  105/105/105 116/116/116 117/117/117
f  118/118/118 117/117/117 116/116/116
f  119/119/119 117/117/117 118/118/118
f  120/120/120 117/117/117 119/119/119
f  121/121/121 117/117/117 120/120/120
f  117/117/117 121/121/121 105/105/105
f  122/122/122 105/105/105 121/121/121
f  123/123/123 105/105/105 122/122/122
f  105/105/105 123/123/123 107/107/107
f  107/107/107 123/123/123 108/108/108
f  124/124/124 108/108/108 123/123/123
f  108/108/108 124/124/124 110/110/110
f  125/125/125 110/110/110 124/124/124
f  110/110/110 125/125/125 112/112/112
f  126/126/126 112/112/112 125/125/125
f  112/112/112 126/126/126 114/114/114
f  127/127/127 114/114/114 126/126/126
f  128/128/128 129/129/129 130/130/130
f  131/131/131 130/130/130 129/129/129
f  130/130/130 131/131/131 132/132/132
f  132/132/132 131/131/131 133/133/133
f  134/134/134 133/133/133 131/131/131
f  133/133/133 134/134/134 135/135/135
f  136/136/136 135/135/135 134/134/134
f  137/137/137 135/135/135 136/136/136
f  135/135/135 137/137/137 138/138/138
f  139/139/139 138/138/138 137/137/137
f  138/138/138 139/139/139 140/140/140
f  140/140/140 139/139/139 130/130/130
f  141/141/141 130/130/130 139/139/139
f  130/130/130 141/141/141 128/128/128

g
