# Noesis .obj export.
#
mtllib w330.mtl
g
v  0.677159 0.177913 -0.070128
v  0.586042 0.185225 -0.096538
v  0.600025 -0.379367 0.009652
v  0.520973 -0.372828 -0.032411
v  0.520973 -0.372828 -0.032411
v  0.586042 0.185225 -0.096538
v  0.600025 -0.379367 0.009652
v  0.677159 0.177913 -0.070128
v  0.661704 0.124030 -0.101783
v  0.546819 0.139740 -0.073349
v  0.652038 -0.332737 -0.059411
v  0.464655 -0.251657 0.016221
v  0.464655 -0.251657 0.016221
v  0.546819 0.139740 -0.073349
v  0.652038 -0.332737 -0.059411
v  0.661704 0.124030 -0.101783
v  0.616370 0.231570 -0.057709
v  0.667967 0.176583 -0.102144
v  0.553402 -0.289275 0.008031
v  0.599036 -0.304506 -0.097848
v  0.599036 -0.304506 -0.097848
v  0.667967 0.176583 -0.102144
v  0.553402 -0.289275 0.008031
v  0.616370 0.231570 -0.057709
v  0.652809 0.220055 -0.046722
v  0.588289 0.217269 -0.109098
v  0.595251 -0.277009 -0.008873
v  0.530732 -0.279794 -0.071250
v  0.530732 -0.279794 -0.071250
v  0.588289 0.217269 -0.109098
v  0.595251 -0.277009 -0.008873
v  0.652809 0.220055 -0.046722
v  0.594632 -0.339676 0.110711
v  0.530061 -0.366960 -0.129346
v  0.617606 -0.052165 -0.019033
v  0.588897 -0.055373 -0.102583
v  0.619282 0.242788 -0.077546
v  0.618123 0.210944 -0.126226
v  0.618123 0.210944 -0.126226
v  0.588897 -0.055373 -0.102583
v  0.619282 0.242788 -0.077546
v  0.617606 -0.052165 -0.019033
v  0.530061 -0.366960 -0.129346
v  0.594632 -0.339676 0.110711

vt  0.010265 -0.914227 0.000000
vt  0.010264 -0.996359 0.000000
vt  0.423767 -0.914230 0.000000
vt  0.423767 -0.996362 0.000000
vt  0.423767 -0.996362 0.000000
vt  0.010264 -0.996359 0.000000
vt  0.423767 -0.914230 0.000000
vt  0.010265 -0.914227 0.000000
vt  0.575584 -0.197293 0.000000
vt  0.656980 -0.188278 0.000000
vt  0.569866 -0.673053 0.000000
vt  0.766660 -0.651259 0.000000
vt  0.766660 -0.651259 0.000000
vt  0.656980 -0.188278 0.000000
vt  0.569866 -0.673053 0.000000
vt  0.575584 -0.197293 0.000000
vt  0.425313 -0.906897 0.000000
vt  0.425313 -0.823380 0.000000
vt  0.006094 -0.906895 0.000000
vt  0.006094 -0.823379 0.000000
vt  0.006094 -0.823379 0.000000
vt  0.425313 -0.823380 0.000000
vt  0.006094 -0.906895 0.000000
vt  0.425313 -0.906897 0.000000
vt  0.425313 -0.906897 0.000000
vt  0.425313 -0.823380 0.000000
vt  0.006094 -0.906895 0.000000
vt  0.006094 -0.823379 0.000000
vt  0.006094 -0.823379 0.000000
vt  0.425313 -0.823380 0.000000
vt  0.006094 -0.906895 0.000000
vt  0.425313 -0.906897 0.000000
vt  0.569866 -0.673053 0.000000
vt  0.766660 -0.651259 0.000000
vt  0.572725 -0.435173 0.000000
vt  0.711820 -0.419769 0.000000
vt  0.575584 -0.197293 0.000000
vt  0.656980 -0.188278 0.000000
vt  0.656980 -0.188278 0.000000
vt  0.711820 -0.419769 0.000000
vt  0.575584 -0.197293 0.000000
vt  0.572725 -0.435173 0.000000
vt  0.766660 -0.651259 0.000000
vt  0.569866 -0.673053 0.000000

vn  -0.261461 0.172154 0.949738
vn  -0.281168 0.170655 0.944363
vn  -0.434489 0.156078 0.887051
vn  -0.454196 0.153798 0.877526
vn  0.454196 -0.153798 -0.877526
vn  0.281168 -0.170655 -0.944363
vn  0.434489 -0.156078 -0.887051
vn  0.261461 -0.172154 -0.949738
vn  0.250228 0.084177 0.964521
vn  0.296317 0.094026 0.950450
vn  0.383653 0.112477 0.916602
vn  0.415518 0.119135 0.901749
vn  -0.415518 -0.119135 -0.901749
vn  -0.296317 -0.094026 -0.950450
vn  -0.383653 -0.112477 -0.916602
vn  -0.250228 -0.084177 -0.964521
vn  -0.661427 -0.014683 -0.749866
vn  -0.694892 0.000820 -0.719114
vn  -0.887812 0.112816 -0.446164
vn  -0.904312 0.125929 -0.407875
vn  0.904312 -0.125929 0.407875
vn  0.694892 -0.000820 0.719114
vn  0.887812 -0.112816 0.446164
vn  0.661427 0.014683 0.749866
vn  -0.691773 0.134132 0.709548
vn  -0.691773 0.134132 0.709549
vn  -0.691773 0.134132 0.709549
vn  -0.691773 0.134132 0.709549
vn  0.691773 -0.134132 -0.709549
vn  0.691773 -0.134132 -0.709549
vn  0.691773 -0.134132 -0.709549
vn  0.691773 -0.134132 -0.709548
vn  0.954427 -0.182744 -0.235953
vn  0.951636 -0.176539 -0.251443
vn  0.945771 -0.123209 -0.300562
vn  0.946754 -0.113611 -0.301247
vn  0.994199 -0.097503 -0.045401
vn  0.993449 -0.105023 0.045056
vn  -0.993449 0.105023 -0.045056
vn  -0.946754 0.113611 0.301247
vn  -0.994199 0.097503 0.045400
vn  -0.945771 0.123209 0.300562
vn  -0.951635 0.176539 0.251444
vn  -0.954427 0.182744 0.235953

g "Editable Poly"
usemtl W330_9
f  1/1/1 2/2/2 3/3/3
f  4/4/4 3/3/3 2/2/2
f  5/5/5 6/6/6 7/7/7
f  8/8/8 7/7/7 6/6/6
f  9/9/9 10/10/10 11/11/11
f  12/12/12 11/11/11 10/10/10
f  13/13/13 14/14/14 15/15/15
f  16/16/16 15/15/15 14/14/14
f  17/17/17 18/18/18 19/19/19
f  20/20/20 19/19/19 18/18/18
f  21/21/21 22/22/22 23/23/23
f  24/24/24 23/23/23 22/22/22
f  25/25/25 26/26/26 27/27/27
f  28/28/28 27/27/27 26/26/26
f  29/29/29 30/30/30 31/31/31
f  32/32/32 31/31/31 30/30/30
f  33/33/33 34/34/34 35/35/35
f  36/36/36 35/35/35 34/34/34
f  35/35/35 36/36/36 37/37/37
f  38/38/38 37/37/37 36/36/36
f  39/39/39 40/40/40 41/41/41
f  41/41/41 40/40/40 42/42/42
f  43/43/43 42/42/42 40/40/40
f  42/42/42 43/43/43 44/44/44

g
