# Noesis .obj export.
#
mtllib w122.mtl
g
v  0.069794 -0.027156 0.684976
v  0.069794 0.027163 0.684976
v  0.053714 -0.017872 0.713842
v  0.053714 0.017879 0.713842
v  -0.010505 0.019205 0.581132
v  -0.024290 0.027163 0.684976
v  0.022752 0.054323 0.684976
v  -0.008209 0.017879 0.713842
v  0.022752 0.035755 0.713842
v  0.022752 0.039307 0.731973
v  -0.011285 0.019656 0.731973
v  0.022752 0.000004 0.766787
v  0.056790 0.019656 0.731973
v  0.056790 -0.019648 0.731973
v  0.022752 -0.039299 0.731973
v  0.022752 -0.035747 0.713842
v  0.022752 -0.054315 0.684976
v  0.056010 -0.019197 0.581132
v  0.056010 0.019205 0.581132
v  -0.024290 -0.027156 0.684976
v  -0.010505 -0.019197 0.581132
v  -0.008209 -0.017872 0.713842
v  -0.011285 -0.019648 0.731973
v  0.022752 -0.034377 0.661284
v  -0.000204 -0.011553 0.581135
v  -0.000204 0.011561 0.581135
v  0.022752 0.034385 0.661284
v  0.045708 0.011561 0.581135
v  0.045708 -0.011553 0.581135
v  -0.000211 0.041373 0.855567
v  -0.022546 0.031200 0.877725
v  -0.000144 0.041373 0.870416
v  0.008560 0.041373 0.882448
v  0.022703 0.041373 0.886973
v  -0.005332 -0.031339 0.824524
v  -0.022678 -0.031339 0.848297
v  -0.108897 -0.000069 0.682344
v  -0.082809 -0.000069 0.828840
v  -0.189771 -0.000069 0.932285
v  -0.022678 0.031200 0.848297
v  -0.005332 0.031200 0.824524
v  -0.005297 0.031200 0.901569
v  0.022732 0.031200 0.910538
v  0.036835 0.041373 0.882413
v  0.045510 0.041373 0.870360
v  0.022645 0.041373 0.838919
v  0.050739 0.031200 0.901501
v  0.235287 -0.000069 0.931767
v  0.067930 0.031200 0.877615
v  0.067990 0.031200 0.848186
v  0.045540 0.041373 0.855511
v  0.050586 0.031200 0.824455
v  0.036758 0.041373 0.843537
v  0.022946 -0.000069 1.086437
v  -0.042383 -0.000069 0.952744
v  -0.005297 -0.031339 0.901569
v  0.087949 -0.000069 0.952585
v  0.050739 -0.031339 0.901501
v  0.067930 -0.031339 0.877615
v  0.067990 -0.031339 0.848186
v  0.045540 -0.041512 0.855511
v  0.050586 -0.031339 0.824455
v  0.036758 -0.041512 0.843537
v  0.022645 -0.041512 0.838919
v  0.045510 -0.041512 0.870360
v  0.036835 -0.041512 0.882413
v  0.022732 -0.031339 0.910538
v  -0.000211 -0.041512 0.855567
v  -0.022546 -0.031339 0.877725
v  0.008560 -0.041512 0.882448
v  0.022703 -0.041512 0.886973
v  -0.000144 -0.041512 0.870416
v  0.022616 -0.031339 0.815304
v  0.008542 -0.041512 0.843571
v  0.022539 -0.000069 0.752105
v  0.153803 -0.000069 0.682024
v  0.022616 0.031200 0.815304
v  0.008542 0.041373 0.843571
v  0.128073 -0.000069 0.828583
v  -0.002263 0.014438 -0.129189
v  0.004330 0.010632 0.169182
v  0.022747 0.028878 -0.129189
v  0.022747 0.021265 0.169182
v  0.041164 0.010632 0.169182
v  0.047757 0.014438 -0.129189
v  0.041164 -0.010634 0.169182
v  0.047757 -0.014441 -0.129189
v  0.022752 -0.032164 0.665156
v  0.050611 -0.016080 0.665156
v  0.050611 0.016088 0.665156
v  0.022752 0.032172 0.665156
v  -0.005106 0.016088 0.665156
v  -0.005106 -0.016080 0.665156
v  0.004330 -0.010634 0.169182
v  0.022747 -0.021267 0.169182
v  0.022747 -0.028880 -0.129189
v  -0.002263 -0.014441 -0.129189
v  0.022747 -0.044876 -0.199285
v  -0.016116 -0.022439 -0.199285
v  0.022747 -0.000001 -0.272141
v  -0.016116 0.022436 -0.199285
v  0.022747 0.044873 -0.199285
v  0.061609 0.022436 -0.199285
v  0.061609 -0.022439 -0.199285
v  0.022747 0.028878 -0.167433
v  -0.002263 0.014438 -0.167433
v  -0.002263 -0.014441 -0.167433
v  0.022747 -0.028880 -0.167433
v  0.047757 -0.014441 -0.167433
v  0.047757 0.014438 -0.167433
v  0.022747 0.044245 -0.150168
v  -0.015571 0.022122 -0.150168
v  -0.015571 -0.022124 -0.150168
v  0.022747 -0.044247 -0.150168
v  0.061065 -0.022124 -0.150168
v  0.061065 0.022122 -0.150168
v  0.022747 0.028878 -0.129189
v  -0.002263 0.014438 -0.129189
v  -0.002263 -0.014441 -0.129189
v  0.022747 -0.028880 -0.129189
v  0.047757 -0.014441 -0.129189
v  0.047757 0.014438 -0.129189

vt  0.617879 -0.839842 0.000000
vt  0.555387 -0.839842 0.000000
vt  0.617879 -0.753595 0.000000
vt  0.555387 -0.753595 0.000000
vt  0.555387 -0.973117 0.000000
vt  0.555387 -0.839842 0.000000
vt  0.465672 -0.839842 0.000000
vt  0.555387 -0.753595 0.000000
vt  0.485345 -0.753595 0.000000
vt  0.485345 -0.712432 0.000000
vt  0.555387 -0.712432 0.000000
vt  0.584215 -0.655697 0.000000
vt  0.555387 -0.712432 0.000000
vt  0.617879 -0.712432 0.000000
vt  0.686427 -0.712432 0.000000
vt  0.686427 -0.753595 0.000000
vt  0.709198 -0.839842 0.000000
vt  0.617879 -0.973117 0.000000
vt  0.555387 -0.973117 0.000000
vt  0.617879 -0.839842 0.000000
vt  0.617879 -0.973117 0.000000
vt  0.617879 -0.753595 0.000000
vt  0.617879 -0.712432 0.000000
vt  0.709198 -0.872638 0.000000
vt  0.630046 -0.988549 0.000000
vt  0.543220 -0.988549 0.000000
vt  0.465672 -0.872638 0.000000
vt  0.543220 -0.988549 0.000000
vt  0.630046 -0.988549 0.000000
vt  0.552722 -0.435809 0.000000
vt  0.519310 -0.402662 0.000000
vt  0.552822 -0.413595 0.000000
vt  0.565841 -0.395597 0.000000
vt  0.586999 -0.388828 0.000000
vt  0.545061 -0.482246 0.000000
vt  0.519112 -0.446684 0.000000
vt  0.343226 -0.759337 0.000000
vt  0.391553 -0.487959 0.000000
vt  0.193410 -0.296331 0.000000
vt  0.519112 -0.446684 0.000000
vt  0.545061 -0.482246 0.000000
vt  0.545113 -0.366993 0.000000
vt  0.587042 -0.353578 0.000000
vt  0.608139 -0.395649 0.000000
vt  0.621115 -0.413679 0.000000
vt  0.586911 -0.460712 0.000000
vt  0.628938 -0.367096 0.000000
vt  0.980812 -0.297291 0.000000
vt  0.654653 -0.402827 0.000000
vt  0.654744 -0.446849 0.000000
vt  0.621161 -0.435892 0.000000
vt  0.628708 -0.482348 0.000000
vt  0.608023 -0.453805 0.000000
vt  0.587460 -0.010771 0.000000
vt  0.466440 -0.258432 0.000000
vt  0.545113 -0.366993 0.000000
vt  0.707875 -0.258726 0.000000
vt  0.628938 -0.367096 0.000000
vt  0.654653 -0.402827 0.000000
vt  0.654744 -0.446849 0.000000
vt  0.621161 -0.435892 0.000000
vt  0.628708 -0.482348 0.000000
vt  0.608023 -0.453805 0.000000
vt  0.586911 -0.460712 0.000000
vt  0.621115 -0.413679 0.000000
vt  0.608139 -0.395649 0.000000
vt  0.587042 -0.353578 0.000000
vt  0.552722 -0.435809 0.000000
vt  0.519310 -0.402662 0.000000
vt  0.565841 -0.395597 0.000000
vt  0.586999 -0.388828 0.000000
vt  0.552822 -0.413595 0.000000
vt  0.586868 -0.496038 0.000000
vt  0.565815 -0.453753 0.000000
vt  0.586704 -0.630108 0.000000
vt  0.829867 -0.759930 0.000000
vt  0.586868 -0.496038 0.000000
vt  0.565815 -0.453753 0.000000
vt  0.782202 -0.488435 0.000000
vt  0.040134 -0.990650 0.000000
vt  0.040134 -0.616695 0.000000
vt  0.007359 -0.990650 0.000000
vt  0.007359 -0.616695 0.000000
vt  0.040134 -0.616695 0.000000
vt  0.040134 -0.990650 0.000000
vt  0.072908 -0.616695 0.000000
vt  0.072908 -0.990650 0.000000
vt  0.105679 -0.010173 0.000000
vt  0.072908 -0.010173 0.000000
vt  0.040134 -0.010173 0.000000
vt  0.007359 -0.010173 0.000000
vt  0.040134 -0.010173 0.000000
vt  0.072908 -0.010173 0.000000
vt  0.072908 -0.616695 0.000000
vt  0.105679 -0.616695 0.000000
vt  0.105679 -0.990650 0.000000
vt  0.072908 -0.990650 0.000000
vt  0.343992 -0.639456 0.000000
vt  0.272595 -0.639456 0.000000
vt  0.239200 -0.780642 0.000000
vt  0.204523 -0.639456 0.000000
vt  0.127070 -0.639456 0.000000
vt  0.204523 -0.639456 0.000000
vt  0.272595 -0.639456 0.000000
vt  0.136410 -0.572142 0.000000
vt  0.204523 -0.572142 0.000000
vt  0.272595 -0.572142 0.000000
vt  0.336506 -0.572142 0.000000
vt  0.272595 -0.572142 0.000000
vt  0.204523 -0.572142 0.000000
vt  0.125847 -0.529820 0.000000
vt  0.204523 -0.529820 0.000000
vt  0.272595 -0.529820 0.000000
vt  0.346689 -0.529820 0.000000
vt  0.272595 -0.529820 0.000000
vt  0.204523 -0.529820 0.000000
vt  0.143072 -0.482582 0.000000
vt  0.204523 -0.482582 0.000000
vt  0.272595 -0.482582 0.000000
vt  0.329740 -0.482582 0.000000
vt  0.272595 -0.482582 0.000000
vt  0.204523 -0.482582 0.000000

vn  0.850517 -0.491047 0.188397
vn  0.850518 0.491047 0.188396
vn  0.845880 -0.488370 0.214433
vn  0.845880 0.488370 0.214433
vn  -0.390343 0.596841 -0.701008
vn  -0.850518 0.491047 0.188396
vn  0.000000 0.991719 0.128427
vn  -0.845880 0.488370 0.214433
vn  -0.000000 0.976739 0.214433
vn  0.000000 0.959782 0.280748
vn  -0.831195 0.479890 0.280748
vn  0.000000 -0.000001 1.000000
vn  0.831195 0.479891 0.280748
vn  0.831195 -0.479891 0.280746
vn  0.000000 -0.959782 0.280746
vn  -0.000000 -0.976739 0.214433
vn  -0.000000 -0.990893 0.134651
vn  0.401681 -0.583434 -0.705873
vn  0.390343 0.596841 -0.701008
vn  -0.850517 -0.491047 0.188397
vn  -0.401681 -0.583434 -0.705873
vn  -0.845880 -0.488370 0.214433
vn  -0.831195 -0.479891 0.280746
vn  0.000000 -0.765113 -0.643896
vn  0.284748 -0.355917 -0.890079
vn  0.282236 0.380002 -0.880875
vn  -0.000000 0.775716 -0.631082
vn  -0.282236 0.380002 -0.880875
vn  -0.284748 -0.355917 -0.890079
vn  -0.228732 0.970672 -0.074011
vn  -0.253253 0.963865 0.082629
vn  -0.228233 0.970755 0.074466
vn  -0.141072 0.970672 0.194667
vn  0.000292 0.970755 0.240073
vn  -0.156844 -0.963865 -0.215324
vn  -0.315600 -0.943381 -0.102119
vn  -0.588771 0.000000 -0.808300
vn  -0.951433 -0.000000 -0.307857
vn  -0.950679 -0.000002 0.310176
vn  -0.315600 0.943381 -0.102119
vn  -0.156844 0.963865 -0.215324
vn  -0.194647 0.943382 0.268596
vn  0.000325 0.963865 0.266391
vn  0.141546 0.970672 0.194322
vn  0.228413 0.970755 0.073907
vn  -0.000293 0.970672 -0.240408
vn  0.195302 0.943381 0.268121
vn  0.951433 -0.000000 0.307857
vn  0.253454 0.963865 0.082011
vn  0.315349 0.943381 -0.102889
vn  0.228551 0.970672 -0.074569
vn  0.156318 0.963865 -0.215706
vn  0.140874 0.970755 -0.194394
vn  0.001220 -0.000001 0.999999
vn  -0.586798 0.000000 0.809733
vn  -0.194647 -0.943381 0.268596
vn  0.588772 0.000000 0.808299
vn  0.195302 -0.943381 0.268121
vn  0.253454 -0.963865 0.082011
vn  0.315349 -0.943381 -0.102889
vn  0.228551 -0.970672 -0.074569
vn  0.156318 -0.963865 -0.215706
vn  0.140874 -0.970755 -0.194393
vn  -0.000293 -0.970672 -0.240408
vn  0.228413 -0.970755 0.073907
vn  0.141546 -0.970672 0.194323
vn  0.000325 -0.963865 0.266391
vn  -0.228732 -0.970672 -0.074011
vn  -0.253253 -0.963865 0.082628
vn  -0.141072 -0.970672 0.194666
vn  0.000292 -0.970755 0.240072
vn  -0.228233 -0.970755 0.074465
vn  -0.000405 -0.943382 -0.331709
vn  -0.141348 -0.970755 -0.194050
vn  -0.001219 -0.000000 -0.999999
vn  0.586798 -0.000001 -0.809733
vn  -0.000405 0.943382 -0.331709
vn  -0.141348 0.970755 -0.194050
vn  0.950679 -0.000000 -0.310178
vn  -0.809147 0.467161 0.356428
vn  -0.866025 0.499997 0.001781
vn  0.000000 0.934323 0.356428
vn  -0.000002 0.999998 0.001774
vn  0.866024 0.499999 0.001772
vn  0.809147 0.467161 0.356428
vn  0.866023 -0.500001 0.001777
vn  0.809147 -0.467161 0.356428
vn  0.000003 -0.999759 -0.021965
vn  0.865819 -0.499875 -0.021980
vn  0.865815 0.499880 -0.021990
vn  0.000003 0.999758 -0.021986
vn  -0.865814 0.499884 -0.021971
vn  -0.865817 -0.499878 -0.021961
vn  -0.866024 -0.499999 0.001787
vn  -0.000002 -0.999998 0.001785
vn  0.000000 -0.934323 0.356428
vn  -0.809147 -0.467161 0.356428
vn  0.000000 -0.999284 -0.037839
vn  -0.865405 -0.499642 -0.037839
vn  0.000000 -0.000000 -1.000000
vn  -0.865405 0.499642 -0.037839
vn  -0.000000 0.999284 -0.037840
vn  0.865405 0.499642 -0.037839
vn  0.865405 -0.499642 -0.037839
vn  -0.000000 0.986802 -0.161934
vn  -0.854595 0.493401 -0.161934
vn  -0.854595 -0.493401 -0.161934
vn  0.000000 -0.986802 -0.161934
vn  0.854595 -0.493401 -0.161934
vn  0.854595 0.493401 -0.161934
vn  0.000000 0.999193 -0.040174
vn  -0.865326 0.499597 -0.040174
vn  -0.865326 -0.499596 -0.040174
vn  -0.000000 -0.999193 -0.040174
vn  0.865326 -0.499596 -0.040174
vn  0.865326 0.499597 -0.040174
vn  0.000000 0.934323 0.356428
vn  -0.809147 0.467161 0.356428
vn  -0.809147 -0.467161 0.356428
vn  0.000000 -0.934323 0.356428
vn  0.809147 -0.467161 0.356428
vn  0.809147 0.467161 0.356428

g W122
usemtl W12201_3
f  1/1/1 2/2/2 3/3/3
f  4/4/4 3/3/3 2/2/2
f  5/5/5 6/6/6 7/7/7
f  8/8/8 7/7/7 6/6/6
f  7/7/7 8/8/8 9/9/9
f  9/9/9 8/8/8 10/10/10
f  11/11/11 10/10/10 8/8/8
f  12/12/12 10/10/10 11/11/11
f  10/10/10 12/12/12 13/13/13
f  13/13/13 12/12/12 14/14/14
f  15/15/15 14/14/14 12/12/12
f  14/14/14 15/15/15 3/3/3
f  16/16/16 3/3/3 15/15/15
f  3/3/3 16/16/16 1/1/1
f  17/17/17 1/1/1 16/16/16
f  18/18/18 1/1/1 17/17/17
f  19/19/19 1/1/1 18/18/18
f  1/1/1 19/19/19 2/2/2
f  7/7/7 2/2/2 19/19/19
f  2/2/2 7/7/7 4/4/4
f  20/20/20 5/5/5 21/21/21
f  5/5/5 20/20/20 6/6/6
f  22/22/22 6/6/6 20/20/20
f  6/6/6 22/22/22 8/8/8
f  8/8/8 22/22/22 11/11/11
f  23/23/23 11/11/11 22/22/22
f  11/11/11 23/23/23 12/12/12
f  12/12/12 23/23/23 15/15/15
f  22/22/22 15/15/15 23/23/23
f  15/15/15 22/22/22 16/16/16
f  20/20/20 16/16/16 22/22/22
f  16/16/16 20/20/20 17/17/17
f  21/21/21 17/17/17 20/20/20
f  7/7/7 9/9/9 4/4/4
f  10/10/10 4/4/4 9/9/9
f  13/13/13 4/4/4 10/10/10
f  4/4/4 13/13/13 3/3/3
f  14/14/14 3/3/3 13/13/13
f  24/24/24 17/17/17 25/25/25
f  21/21/21 25/25/25 17/17/17
f  25/25/25 21/21/21 26/26/26
f  5/5/5 26/26/26 21/21/21
f  26/26/26 5/5/5 27/27/27
f  7/7/7 27/27/27 5/5/5
f  19/19/19 27/27/27 7/7/7
f  27/27/27 19/19/19 28/28/28
f  18/18/18 28/28/28 19/19/19
f  28/28/28 18/18/18 29/29/29
f  17/17/17 29/29/29 18/18/18
f  29/29/29 17/17/17 24/24/24
f  30/30/30 31/31/31 32/32/32
f  33/33/33 32/32/32 31/31/31
f  32/32/32 33/33/33 34/34/34
f  35/35/35 36/36/36 37/37/37
f  37/37/37 36/36/36 38/38/38
f  39/39/39 38/38/38 36/36/36
f  40/40/40 38/38/38 39/39/39
f  38/38/38 40/40/40 37/37/37
f  37/37/37 40/40/40 41/41/41
f  41/41/41 40/40/40 30/30/30
f  30/30/30 40/40/40 31/31/31
f  39/39/39 31/31/31 40/40/40
f  42/42/42 31/31/31 39/39/39
f  31/31/31 42/42/42 33/33/33
f  43/43/43 33/33/33 42/42/42
f  33/33/33 43/43/43 34/34/34
f  44/44/44 34/34/34 43/43/43
f  45/45/45 34/34/34 44/44/44
f  46/46/46 34/34/34 45/45/45
f  34/34/34 46/46/46 32/32/32
f  30/30/30 32/32/32 46/46/46
f  47/47/47 48/48/48 49/49/49
f  50/50/50 49/49/49 48/48/48
f  49/49/49 50/50/50 51/51/51
f  52/52/52 51/51/51 50/50/50
f  51/51/51 52/52/52 53/53/53
f  46/46/46 53/53/53 52/52/52
f  53/53/53 46/46/46 51/51/51
f  45/45/45 51/51/51 46/46/46
f  51/51/51 45/45/45 49/49/49
f  44/44/44 49/49/49 45/45/45
f  49/49/49 44/44/44 47/47/47
f  43/43/43 47/47/47 44/44/44
f  47/47/47 43/43/43 54/54/54
f  42/42/42 54/54/54 43/43/43
f  54/54/54 42/42/42 55/55/55
f  39/39/39 55/55/55 42/42/42
f  56/56/56 55/55/55 39/39/39
f  55/55/55 56/56/56 54/54/54
f  48/48/48 47/47/47 57/57/57
f  54/54/54 57/57/57 47/47/47
f  58/58/58 57/57/57 54/54/54
f  57/57/57 58/58/58 48/48/48
f  59/59/59 48/48/48 58/58/58
f  48/48/48 59/59/59 60/60/60
f  61/61/61 60/60/60 59/59/59
f  60/60/60 61/61/61 62/62/62
f  63/63/63 62/62/62 61/61/61
f  62/62/62 63/63/63 64/64/64
f  61/61/61 64/64/64 63/63/63
f  64/64/64 61/61/61 65/65/65
f  59/59/59 65/65/65 61/61/61
f  65/65/65 59/59/59 66/66/66
f  58/58/58 66/66/66 59/59/59
f  66/66/66 58/58/58 67/67/67
f  54/54/54 67/67/67 58/58/58
f  56/56/56 67/67/67 54/54/54
f  35/35/35 68/68/68 36/36/36
f  69/69/69 36/36/36 68/68/68
f  36/36/36 69/69/69 39/39/39
f  39/39/39 69/69/69 56/56/56
f  70/70/70 56/56/56 69/69/69
f  56/56/56 70/70/70 67/67/67
f  71/71/71 67/67/67 70/70/70
f  67/67/67 71/71/71 66/66/66
f  66/66/66 71/71/71 65/65/65
f  65/65/65 71/71/71 64/64/64
f  72/72/72 64/64/64 71/71/71
f  64/64/64 72/72/72 68/68/68
f  68/68/68 72/72/72 69/69/69
f  69/69/69 72/72/72 70/70/70
f  71/71/71 70/70/70 72/72/72
f  73/73/73 64/64/64 74/74/74
f  68/68/68 74/74/74 64/64/64
f  35/35/35 74/74/74 68/68/68
f  74/74/74 35/35/35 73/73/73
f  37/37/37 73/73/73 35/35/35
f  73/73/73 37/37/37 75/75/75
f  73/73/73 62/62/62 64/64/64
f  62/62/62 73/73/73 76/76/76
f  75/75/75 76/76/76 73/73/73
f  76/76/76 75/75/75 77/77/77
f  37/37/37 77/77/77 75/75/75
f  41/41/41 77/77/77 37/37/37
f  77/77/77 41/41/41 78/78/78
f  30/30/30 78/78/78 41/41/41
f  46/46/46 78/78/78 30/30/30
f  78/78/78 46/46/46 77/77/77
f  52/52/52 77/77/77 46/46/46
f  77/77/77 52/52/52 76/76/76
f  50/50/50 76/76/76 52/52/52
f  76/76/76 50/50/50 79/79/79
f  48/48/48 79/79/79 50/50/50
f  60/60/60 79/79/79 48/48/48
f  79/79/79 60/60/60 76/76/76
f  62/62/62 76/76/76 60/60/60
f  80/80/80 81/81/81 82/82/82
f  83/83/83 82/82/82 81/81/81
f  84/84/84 82/82/82 83/83/83
f  82/82/82 84/84/84 85/85/85
f  86/86/86 85/85/85 84/84/84
f  85/85/85 86/86/86 87/87/87
f  88/88/88 86/86/86 89/89/89
f  84/84/84 89/89/89 86/86/86
f  89/89/89 84/84/84 90/90/90
f  83/83/83 90/90/90 84/84/84
f  90/90/90 83/83/83 91/91/91
f  91/91/91 83/83/83 92/92/92
f  81/81/81 92/92/92 83/83/83
f  92/92/92 81/81/81 93/93/93
f  94/94/94 93/93/93 81/81/81
f  93/93/93 94/94/94 88/88/88
f  95/95/95 88/88/88 94/94/94
f  88/88/88 95/95/95 86/86/86
f  86/86/86 95/95/95 87/87/87
f  87/87/87 95/95/95 96/96/96
f  96/96/96 95/95/95 97/97/97
f  94/94/94 97/97/97 95/95/95
f  97/97/97 94/94/94 80/80/80
f  81/81/81 80/80/80 94/94/94
f  98/98/98 99/99/99 100/100/100
f  101/101/101 100/100/100 99/99/99
f  102/102/102 100/100/100 101/101/101
f  103/103/103 100/100/100 102/102/102
f  104/104/104 100/100/100 103/103/103
f  100/100/100 104/104/104 98/98/98
f  105/105/105 102/102/102 106/106/106
f  101/101/101 106/106/106 102/102/102
f  106/106/106 101/101/101 107/107/107
f  99/99/99 107/107/107 101/101/101
f  107/107/107 99/99/99 108/108/108
f  98/98/98 108/108/108 99/99/99
f  104/104/104 108/108/108 98/98/98
f  108/108/108 104/104/104 109/109/109
f  103/103/103 109/109/109 104/104/104
f  109/109/109 103/103/103 110/110/110
f  102/102/102 110/110/110 103/103/103
f  110/110/110 102/102/102 105/105/105
f  111/111/111 105/105/105 112/112/112
f  106/106/106 112/112/112 105/105/105
f  112/112/112 106/106/106 113/113/113
f  107/107/107 113/113/113 106/106/106
f  113/113/113 107/107/107 114/114/114
f  108/108/108 114/114/114 107/107/107
f  109/109/109 114/114/114 108/108/108
f  114/114/114 109/109/109 115/115/115
f  110/110/110 115/115/115 109/109/109
f  115/115/115 110/110/110 116/116/116
f  105/105/105 116/116/116 110/110/110
f  116/116/116 105/105/105 111/111/111
f  117/117/117 111/111/111 118/118/118
f  112/112/112 118/118/118 111/111/111
f  118/118/118 112/112/112 119/119/119
f  113/113/113 119/119/119 112/112/112
f  119/119/119 113/113/113 120/120/120
f  114/114/114 120/120/120 113/113/113
f  115/115/115 120/120/120 114/114/114
f  120/120/120 115/115/115 121/121/121
f  116/116/116 121/121/121 115/115/115
f  121/121/121 116/116/116 122/122/122
f  111/111/111 122/122/122 116/116/116
f  122/122/122 111/111/111 117/117/117

g
v  0.219180 -0.000000 1.309390
v  0.022758 -0.000000 1.309390
v  0.193151 -0.000000 0.844057
v  0.022758 -0.000000 0.844057
v  0.188823 0.000000 -0.955093
v  0.022758 0.000000 -0.955093
v  -0.143307 0.000000 -0.955093
v  -0.147635 -0.000000 0.844057
v  -0.173664 -0.000000 1.309390

vt  1.000000 -0.000000 0.000000
vt  0.500000 -0.000000 0.000000
vt  1.000000 -0.500000 0.000000
vt  0.500000 -0.500000 0.000000
vt  1.000000 -1.000000 0.000000
vt  0.500000 -1.000000 0.000000
vt  0.000000 -1.000000 0.000000
vt  0.000000 -0.500000 0.000000
vt  0.000000 -0.000000 0.000000

vn  0.000000 -1.000000 -0.000000
vn  0.000000 -1.000000 -0.000000
vn  0.000000 -1.000000 -0.000000
vn  0.000000 -1.000000 -0.000000
vn  0.000000 -1.000000 -0.000000
vn  0.000000 -1.000000 -0.000000
vn  0.000000 -1.000000 -0.000000
vn  0.000000 -1.000000 -0.000000
vn  0.000000 -1.000000 -0.000000

g "Editable Mesh"
usemtl Standard_2_12
f  123/123/123 124/124/124 125/125/125
f  126/126/126 125/125/125 124/124/124
f  125/125/125 126/126/126 127/127/127
f  127/127/127 126/126/126 128/128/128
f  128/128/128 126/126/126 129/129/129
f  129/129/129 126/126/126 130/130/130
f  124/124/124 130/130/130 126/126/126
f  130/130/130 124/124/124 131/131/131

g
v  -0.334719 -0.000000 1.211947
v  -0.334719 -0.000000 0.496992
v  0.380235 -0.000000 1.211947
v  0.380235 -0.000000 0.496992

vt  0.000000 -0.000000 0.000000
vt  0.000000 -1.000000 0.000000
vt  1.000000 -0.000000 0.000000
vt  1.000000 -1.000000 0.000000

vn  0.000000 -1.000000 0.000000
vn  0.000000 -1.000000 0.000000
vn  0.000000 -1.000000 0.000000
vn  0.000000 -1.000000 0.000000

g Plane
usemtl Standard_2_49
f  132/132/132 133/133/133 134/134/134
f  135/135/135 134/134/134 133/133/133

g
v  -0.045152 -0.000069 0.955656
v  0.022670 -0.037971 0.862068
v  0.022954 -0.000069 1.095032
v  0.090720 -0.000069 0.955491
v  -0.114493 -0.000069 0.673763
v  -0.087296 -0.000069 0.826486
v  0.022670 0.037832 0.862068
v  -0.198804 -0.000069 0.934328
v  0.022529 -0.000069 0.746488
v  0.159373 -0.000069 0.673429
v  0.132549 -0.000069 0.826218
v  0.244320 -0.000069 0.933787

vt  0.346748 -0.338813 0.000000
vt  0.499802 -0.550014 0.000000
vt  0.500443 -0.024283 0.000000
vt  0.653370 -0.339187 0.000000
vt  0.190266 -0.974963 0.000000
vt  0.251641 -0.630312 0.000000
vt  0.499802 -0.550014 0.000000
vt  0.000000 -0.386945 0.000000
vt  0.499484 -0.810843 0.000000
vt  0.808300 -0.975717 0.000000
vt  0.747766 -0.630917 0.000000
vt  1.000000 -0.388165 0.000000

vn  -0.586799 0.000000 0.809733
vn  0.000000 -1.000000 0.000000
vn  0.001220 -0.000000 0.999999
vn  0.588772 0.000000 0.808299
vn  -0.588771 -0.000001 -0.808300
vn  -0.951433 0.000000 -0.307857
vn  0.000000 1.000000 -0.000000
vn  -0.950679 -0.000001 0.310177
vn  -0.001219 -0.000000 -0.999999
vn  0.586798 0.000000 -0.809733
vn  0.950679 -0.000000 -0.310177
vn  0.951433 0.000000 0.307857

g PolyMesh
usemtl Standard_2_69
f  136/136/136 137/137/137 138/138/138
f  139/139/139 138/138/138 137/137/137
f  140/140/140 141/141/141 142/142/142
f  143/143/143 142/142/142 141/141/141
f  142/142/142 143/143/143 136/136/136
f  136/136/136 143/143/143 137/137/137
f  141/141/141 137/137/137 143/143/143
f  140/140/140 137/137/137 141/141/141
f  137/137/137 140/140/140 144/144/144
f  142/142/142 144/144/144 140/140/140
f  145/145/145 144/144/144 142/142/142
f  144/144/144 145/145/145 137/137/137
f  137/137/137 145/145/145 146/146/146
f  142/142/142 146/146/146 145/145/145
f  147/147/147 146/146/146 142/142/142
f  146/146/146 147/147/147 137/137/137
f  137/137/137 147/147/147 139/139/139
f  142/142/142 139/139/139 147/147/147
f  139/139/139 142/142/142 138/138/138
f  136/136/136 138/138/138 142/142/142

g
